<?xml version="1.0" encoding="UTF-8"?>
<svg xmlns="http://www.w3.org/2000/svg" xmlns:xlink="http://www.w3.org/1999/xlink" viewBox="0 0 406 369.07">
  <defs>
    <style>
      .cls-1 {
        fill: none;
      }

      .cls-2 {
        font-family: AvenirLTStd-Medium, 'Avenir LT Std';
        font-size: 55.07px;
        font-weight: 500;
      }

      .cls-2, .cls-3 {
        fill: #010101;
      }

      .cls-2, .cls-4 {
        isolation: isolate;
      }

      .cls-5 {
        fill: url(#radial-gradient-2);
      }

      .cls-6 {
        fill: url(#linear-gradient-8);
      }

      .cls-7 {
        fill: url(#linear-gradient-5);
      }

      .cls-8 {
        fill: url(#linear-gradient-9);
      }

      .cls-9 {
        fill: url(#linear-gradient-2);
      }

      .cls-10 {
        fill: #d7df28;
      }

      .cls-11 {
        fill: url(#radial-gradient);
      }

      .cls-12 {
        fill: url(#linear-gradient);
      }

      .cls-13 {
        clip-path: url(#clippath-1);
      }

      .cls-14 {
        clip-path: url(#clippath-3);
      }

      .cls-15 {
        clip-path: url(#clippath-2);
      }

      .cls-16 {
        fill: url(#linear-gradient-3);
      }

      .cls-16, .cls-17, .cls-18, .cls-19 {
        mix-blend-mode: screen;
      }

      .cls-17 {
        fill: url(#linear-gradient-4);
      }

      .cls-18 {
        fill: url(#linear-gradient-6);
      }

      .cls-19 {
        fill: url(#linear-gradient-7);
      }

      .cls-20 {
        fill: url(#linear-gradient-10);
      }

      .cls-21 {
        fill: url(#linear-gradient-11);
      }

      .cls-22 {
        fill: url(#linear-gradient-12);
      }

      .cls-23 {
        fill: url(#linear-gradient-13);
      }

      .cls-24 {
        letter-spacing: 0em;
      }

      .cls-25 {
        letter-spacing: -.02em;
      }

      .cls-26 {
        clip-path: url(#clippath);
      }
    </style>
    <radialGradient id="radial-gradient" cx="84.92" cy="16.87" fx="84.92" fy="16.87" r="16.87" gradientUnits="userSpaceOnUse">
      <stop offset="0" stop-color="#019547"/>
      <stop offset="0" stop-color="#d7df28"/>
      <stop offset=".71" stop-color="#0f9748"/>
      <stop offset=".95" stop-color="#0f9748"/>
    </radialGradient>
    <radialGradient id="radial-gradient-2" cx="326.12" cy="172.84" fx="326.12" fy="172.84" xlink:href="#radial-gradient"/>
    <linearGradient id="linear-gradient" x1="46.95" y1="205.32" x2="346.11" y2="-24.3" gradientUnits="userSpaceOnUse">
      <stop offset="0" stop-color="#019547"/>
      <stop offset=".99" stop-color="#d7df28"/>
      <stop offset="1" stop-color="#d7df28"/>
    </linearGradient>
    <linearGradient id="linear-gradient-2" x1="79.97" y1="206.88" x2="344.83" y2="3.59" xlink:href="#linear-gradient"/>
    <linearGradient id="linear-gradient-3" x1="226.78" y1="37.41" x2="226.78" y2="111.01" xlink:href="#linear-gradient"/>
    <linearGradient id="linear-gradient-4" x1="175.66" y1="37.41" x2="175.66" y2="111.01" xlink:href="#linear-gradient"/>
    <linearGradient id="linear-gradient-5" x1="63.16" y1="185.27" x2="328.54" y2="-18.42" xlink:href="#linear-gradient"/>
    <linearGradient id="linear-gradient-6" x1="186.95" y1="37.41" x2="186.95" y2="110.94" xlink:href="#linear-gradient"/>
    <linearGradient id="linear-gradient-7" x1="184.99" y1="145.68" x2="240.51" y2="145.68" xlink:href="#linear-gradient"/>
    <linearGradient id="linear-gradient-8" x1="111.17" y1="169.06" x2="266.82" y2="49.6" xlink:href="#linear-gradient"/>
    <linearGradient id="linear-gradient-9" x1="124.03" y1="170.33" x2="272.13" y2="56.67" xlink:href="#linear-gradient"/>
    <clipPath id="clippath">
      <path class="cls-1" d="M195.35,140.6c-.75-3.79.58-6.84,3.04-9.5.09-.05.2-.06.27-.13-.09.1-.08.24-.14.36-.39.52-.68,1.1-.97,1.67-.86,1.72-1.38,3.53-1.37,5.46.11.59.15,1.18.13,1.78q.14.84.92.92c1.97.19,3.58-.47,4.84-2,1.23-1.49,1.73-3.27,2.04-5.13.27-1.64.19-3.29.39-4.93.19-1.63.46-3.23,1.22-4.72.15-.3.35-.58.55-.93-.17.01-.25,0-.33.02-2.53.52-4.94,1.34-7.19,2.62-2.4,1.37-4.39,3.15-5.52,5.75-1.08,2.46-1.12,4.87.43,7.17.22.32.47.63.77.9.26.26.57.48.92.69Z"/>
    </clipPath>
    <linearGradient id="linear-gradient-10" x1="-802.09" y1="171.31" x2="-800.26" y2="171.31" gradientTransform="translate(5485.01 -998.17) scale(6.6)" xlink:href="#linear-gradient"/>
    <clipPath id="clippath-1">
      <path class="cls-1" d="M194.54,141.02c.74.2,1.49.24,2.31.09-3.05-2.38-4.03-5.55-3.9-9.18.04-.09.11-.17.12-.28,0,.14.1.24.13.36.05.65.2,1.28.36,1.9.47,1.86,1.26,3.57,2.53,5.03.46.37.88.79,1.25,1.26.65.54.65.55,1.28.09,1.61-1.14,2.4-2.7,2.36-4.68-.05-1.93-.82-3.61-1.8-5.22-.86-1.42-2.01-2.62-2.93-3.99-.92-1.36-1.76-2.75-2.16-4.36-.09-.33-.12-.67-.19-1.06-.12.12-.18.17-.23.24-1.57,2.05-2.87,4.24-3.73,6.69-.93,2.61-1.26,5.26-.43,7.96.45,1.44,1.13,2.65,2.11,3.57.78.72,1.73,1.26,2.91,1.58Z"/>
    </clipPath>
    <linearGradient id="linear-gradient-11" x1="-916.03" y1="26.77" x2="-914.2" y2="26.77" gradientTransform="translate(-5843.52 87.59) rotate(-177.9) scale(6.6)" xlink:href="#linear-gradient"/>
    <clipPath id="clippath-2">
      <path class="cls-1" d="M136.22,181.18c-3.79.75-6.84-.58-9.5-3.04-.05-.09-.06-.2-.13-.27.1.09.24.08.36.14.52.39,1.1.68,1.67.97,1.72.86,3.53,1.38,5.46,1.37.59-.11,1.18-.15,1.78-.13q.84-.14.92-.92c.19-1.97-.47-3.58-2-4.84-1.49-1.23-3.27-1.73-5.13-2.04-1.64-.27-3.29-.19-4.93-.39-1.63-.19-3.23-.46-4.72-1.22-.3-.15-.58-.35-.93-.55.01.17,0,.25.02.33.52,2.53,1.34,4.94,2.62,7.19,1.37,2.4,3.15,4.39,5.75,5.52,2.46,1.08,4.87,1.12,7.17-.43.32-.22.63-.47.9-.77.26-.26.48-.57.69-.92Z"/>
    </clipPath>
    <linearGradient id="linear-gradient-12" x1="-921.1" y1="314.3" x2="-919.27" y2="314.3" gradientTransform="translate(6197 -1897.1) scale(6.6)" xlink:href="#linear-gradient"/>
    <clipPath id="clippath-3">
      <path class="cls-1" d="M136.64,181.98c.2-.74.24-1.49.09-2.31-2.38,3.05-5.55,4.03-9.18,3.9-.09-.04-.17-.11-.28-.12.14,0,.24-.1.36-.13.65-.05,1.28-.2,1.9-.36,1.86-.47,3.57-1.26,5.03-2.53.37-.46.79-.88,1.26-1.25.54-.65.55-.65.09-1.28-1.14-1.61-2.7-2.4-4.68-2.36-1.93.05-3.61.82-5.22,1.8-1.42.86-2.62,2.01-3.99,2.93-1.36.92-2.75,1.76-4.36,2.16-.33.09-.67.12-1.06.19.12.12.17.18.24.23,2.05,1.57,4.24,2.87,6.69,3.73,2.61.93,5.26,1.26,7.96.43,1.44-.45,2.65-1.13,3.57-2.11.72-.78,1.26-1.73,1.58-2.91Z"/>
    </clipPath>
    <linearGradient id="linear-gradient-13" x1="-1099.56" y1="57.16" x2="-1097.73" y2="57.16" gradientTransform="translate(239.16 7437.19) rotate(92.1) scale(6.6)" xlink:href="#linear-gradient"/>
  </defs>
  <g class="cls-4">
    <g id="Layer_2" data-name="Layer 2">
      <g id="Layer_1-2" data-name="Layer 1">
        <rect class="cls-1" x="88.67" y="311.94" width="236.7" height="41.98"/>
        <text class="cls-2" transform="translate(84.66 353.54)"><tspan class="cls-25" x="0" y="0">A</tspan><tspan class="cls-24" x="37.78" y="0">yurveda</tspan></text>
        <g>
          <path class="cls-3" d="M75.93,274.2h-39.21c-20.92,0-36.72-13.23-36.72-35.11,0-19.79,16.17-33.98,35.39-33.98s35.39,14.19,35.39,33.98c0,14.08-7.72,21.51-14.19,25.22v.2h19.31v9.7h.03ZM12.55,239.37c0,13.8,9.61,23.97,22.73,23.97s22.93-10.18,22.93-23.97-9.5-23.41-23.12-23.41-22.53,10.01-22.53,23.41Z"/>
          <path class="cls-3" d="M125.34,274.2h-10.86v-7.32h-.2c-2.09,4.55-6.36,8.48-13.99,8.48-12.27,0-16.65-8.65-16.65-17.98v-28.83h11.42v23.12c0,5.03.4,13.43,8.37,13.43,7.52,0,10.46-5.51,10.46-11.62v-24.93h11.42v45.65h.03Z"/>
          <path class="cls-3" d="M167.81,267.64h-.28c-3.22,5.14-8.57,7.43-14.64,7.43-8.48,0-16.65-4.66-16.65-13.71,0-14.84,17.33-15.89,28.72-15.89h2.86v-1.24c0-5.63-4.38-8.57-10.46-8.57-4.75,0-9.13,1.89-12.18,4.75l-5.99-5.99c5.03-5.14,12.18-7.32,19.42-7.32,19.51,0,19.51,14.08,19.51,20.55v26.26h-10.26v-6.28h-.03ZM167.13,253.45h-2.37c-6.28,0-17.13.48-17.13,7.04,0,4.18,4.3,5.99,8,5.99,7.8,0,11.51-4.1,11.51-10.46v-2.57Z"/>
          <path class="cls-3" d="M189.37,228.55h10.86v7.32h.2c2.09-4.55,6.36-8.48,13.99-8.48,12.27,0,16.65,8.65,16.65,17.98v28.83h-11.42v-23.12c0-5.03-.4-13.43-8.37-13.43-7.52,0-10.46,5.51-10.46,11.62v24.93h-11.42v-45.65h-.03Z"/>
          <path class="cls-3" d="M238.68,238.24v-9.7h9.41v-13.23h11.42v13.23h12.55v9.7h-12.55v19.99c0,4.55,1.33,7.41,6.36,7.41,2.01,0,4.75-.37,6.19-1.41v9.61c-2.37,1.13-6.36,1.53-9.05,1.53-12.1,0-14.95-5.43-14.95-16.17v-20.95h-9.39Z"/>
          <path class="cls-3" d="M322.72,274.2h-10.86v-7.32h-.2c-2.09,4.55-6.36,8.48-13.99,8.48-12.27,0-16.65-8.65-16.65-17.98v-28.83h11.42v23.12c0,5.03.4,13.43,8.37,13.43,7.52,0,10.46-5.51,10.46-11.62v-24.93h11.42v45.65h.03Z"/>
          <path class="cls-3" d="M335.19,228.55h10.86v7.12h.2c2.01-4.27,6.36-8.28,13.99-8.28,7.04,0,11.9,2.77,14.28,8.48,3.34-5.8,8.17-8.48,15.04-8.48,12.18,0,16.45,8.65,16.45,19.59v27.22h-11.42v-25.89c0-5.71-1.72-10.66-8.48-10.66-7.15,0-9.81,5.91-9.81,11.79v24.74h-11.42v-27.17c0-5.63-2.29-9.33-7.8-9.33-7.52,0-10.46,5.51-10.46,11.62v24.93h-11.42v-45.68h0Z"/>
        </g>
        <rect class="cls-3" x="54.57" y="297.83" width="296.85" height="1.22"/>
        <g>
          <path class="cls-10" d="M112.59,178.38c-20.78,3.56-35.32,1.36-39.63-6.22-4.94-8.67,2.82-25.56,20.75-45.18,1.89-2.08,3.89-4.16,5.96-6.26,3.43-3.46,7.12-6.95,11.01-10.44-.19-2.65-.27-5.36-.22-8.07.08-4.33.48-8.59,1.17-12.73-3.59-3.19-7-6.38-10.22-9.58-2.71-2.67-5.29-5.34-7.71-7.99-17.93-19.62-25.69-36.51-20.75-45.18,2.96-5.21,10.76-7.88,22.11-7.88,7.51,0,16.57,1.16,26.81,3.53,4.48,1.04,9.12,2.29,13.88,3.73,4.57,1.37,9.25,2.92,14.04,4.65,3.1-2.04,6.33-3.88,9.68-5.52-5.12-1.97-10.15-3.77-15.05-5.37-7.16-2.36-14.07-4.31-20.68-5.83-30.82-7.14-50.91-4.23-58.1,8.4-7.18,12.65.39,31.76,21.88,55.28,3.65,4,7.65,8.05,11.94,12.1,3.37,3.22,6.94,6.42,10.65,9.62-4.06,3.5-7.93,7-11.58,10.48-3.94,3.77-7.63,7.51-11.01,11.23-21.5,23.53-29.06,42.65-21.88,55.28,4.63,8.12,14.58,12.23,29.29,12.23,5.28,0,11.17-.54,17.65-1.6v-8.69Z"/>
          <path class="cls-10" d="M306.55,121.15c21.5,23.53,29.05,42.65,21.87,55.28-4.63,8.12-14.58,12.23-29.28,12.23-8.18,0-17.81-1.27-28.82-3.82-3.52-.82-7.12-1.75-10.81-2.81-5.33-1.52-10.82-3.28-16.44-5.27,2.87-1.91,5.63-3.97,8.24-6.2,5.35,1.77,10.57,3.33,15.62,4.64,1.77.46,3.53.89,5.27,1.3,25.7,5.96,43.98,4.33,48.92-4.34,4.93-8.67-2.83-25.56-20.76-45.18-1.89-2.08-3.89-4.16-5.96-6.26-3.86-3.88-8.01-7.79-12.43-11.72.11-1.9.18-3.8.17-5.74-.04-4.29-.37-8.51-1-12.65,4.06-3.57,7.92-7.15,11.52-10.71,2.71-2.68,5.29-5.34,7.71-8,17.93-19.62,25.69-36.51,20.76-45.18-2.98-5.21-10.77-7.88-22.12-7.88-7.51,0-16.57,1.16-26.8,3.53-4.48,1.04-9.12,2.29-13.89,3.73-4.83,1.46-9.81,3.11-14.88,4.95-3.06-2.03-6.24-3.9-9.54-5.53,5.36-2.09,10.63-3.97,15.76-5.66,7.16-2.35,14.07-4.3,20.68-5.83,30.82-7.14,50.91-4.23,58.1,8.4,7.18,12.65-.37,31.76-21.87,55.28-3.66,4-7.65,8.05-11.94,12.11-3.39,3.2-6.94,6.41-10.66,9.61,4.06,3.5,7.93,7,11.58,10.48,3.94,3.75,7.63,7.51,11.03,11.23Z"/>
          <path class="cls-11" d="M101.79,16.88c0,9.31-7.55,16.86-16.88,16.86-3.94,0-7.55-1.35-10.41-3.6-3.93-3.09-6.45-7.88-6.45-13.26,0-9.33,7.55-16.88,16.86-16.88,5.41,0,10.22,2.53,13.3,6.49,2.23,2.86,3.57,6.47,3.57,10.39Z"/>
          <path class="cls-5" d="M342.99,172.85c0,9.31-7.55,16.86-16.88,16.86-3.94,0-7.55-1.35-10.41-3.6-3.93-3.09-6.45-7.88-6.45-13.26,0-9.33,7.55-16.88,16.86-16.88,5.41,0,10.22,2.53,13.3,6.49,2.23,2.86,3.57,6.47,3.57,10.39Z"/>
          <path class="cls-12" d="M217.98,83.45c-4.47-10.07-8.98-20.13-13.62-30.11l20.74,46.4-7.13-16.29Z"/>
          <path class="cls-9" d="M243.44,143.03l-8.41-20.14-7.04-16.47-32.23-56.98-48.65,91.18c-.34.72-.67,1.44-1.01,2.17h.08s-.03.07-.04.1c1.16-1.49,3.41-3.92,6.95-5.55,4.19-1.93,7.98-1.72,9.84-1.47l1.03-2.39c6.13-14.1,12.16-28.25,18.19-42.41,4.65-10.92,9.31-21.84,13.92-32.79,4.26,9.93,8.64,19.79,13.07,29.63l8.89,19.54,9.05,19.45,8.44,17.83-.23-.15c-3.09-1.91-6.27-3.65-9.63-5-3.33-1.37-6.79-2.44-10.33-3.08-3.53-.62-7.11-.95-10.67-.63-1.77.04-3.53.41-5.27.66-.76.2-5.16,1.29-5.91,1.48.26.4,1.98,2.27,2.13,2.73.17.52,2.36-1.3,2.32-.77,2.24-.15,4.48-.13,6.69.11,1.62.11,3.22.42,4.82.69,1.58.38,3.16.72,4.7,1.27,3.07,1,6.09,2.21,8.97,3.78,2.86,1.57,5.66,3.28,8.31,5.23l1,.73.25.19.51.32c.36.23.75.44,1.18.59,1.66.66,3.69.59,5.28-.2.32-.15.61-.32.9-.53,1.2-.79,2.17-1.97,2.78-3.42.74-1.79.76-3.99.12-5.73Z"/>
          <polygon class="cls-16" points="227.99 106.42 228.45 107.24 225.1 99.74 226.58 103.12 227.99 106.42"/>
          <path class="cls-17" d="M152.96,127.91c6.39-13.97,12.89-27.89,19.41-41.8,6.49-13.92,12.97-27.85,19.59-41.7l4.27-8.93,3.93,8.93c1.41,2.97,2.81,5.95,4.2,8.94l-8.42-18.84-48.97,106.38.14-.27c.34-.74.69-1.48,1.03-2.25l4.82-10.46Z"/>
          <path class="cls-7" d="M227.99,106.42l-1.41-3.3-1.48-3.38-20.74-46.4c-1.39-2.99-2.78-5.97-4.2-8.94l-3.93-8.93-4.27,8.93c-6.61,13.85-13.1,27.78-19.59,41.7-6.51,13.91-13.02,27.83-19.41,41.8l-4.82,10.46c-.34.77-.69,1.51-1.03,2.25l48.65-91.18,32.23,56.98Z"/>
          <path class="cls-18" d="M227.99,106.42l-1.41-3.3-1.48-3.38-20.74-46.4c-1.39-2.99-2.78-5.97-4.2-8.94l-3.93-8.93-4.27,8.93c-6.61,13.85-13.1,27.78-19.59,41.7-6.51,13.91-14.71,29.11-21.1,43.08l-5.34,11.24c-.34.77,2.68-2.9,2.34-2.16l47.49-88.82,32.23,56.98Z"/>
          <path class="cls-19" d="M197.82,138.69c.11.45.15.9.12,1.34,2.33-.15,4.63-.13,6.88.11,1.61.12,3.2.42,4.79.69,1.57.38,3.15.72,4.67,1.26,3.05,1,6.05,2.2,8.91,3.76,2.85,1.55,5.62,3.25,8.26,5.2l.99.73.25.19.51.32c.36.23.74.44,1.17.59,1.65.66,3.67.59,5.25-.21.32-.15.61-.32.89-.53-15.76-14.3-31.9-15.22-42.69-13.47Z"/>
          <path class="cls-6" d="M282.96,99.95c-.27-6.48-1.22-12.96-2.91-19.24-1.73-6.26-4.16-12.33-7.21-18.05-6.07-11.49-14.82-21.46-25.17-29.18-10.39-7.68-22.51-13.06-35.17-15.42-12.65-2.37-25.79-1.94-38.2,1.31-12.38,3.31-24.01,9.34-33.67,17.63-9.69,8.24-17.57,18.58-22.76,30.12-2.61,5.77-4.61,11.8-5.86,17.98-1.25,6.18-1.79,12.49-1.66,18.77.36,12.54,3.88,25.05,10.72,35.32-1.87-5.86-3.38-11.71-4.36-17.6-.95-5.91-1.42-11.84-1.33-17.74.15-5.92.79-11.8,2.15-17.53,1.34-5.73,3.37-11.28,5.95-16.54,5.14-10.55,12.7-19.85,21.81-27.12,9.1-7.29,19.79-12.47,31.03-15.19,11.26-2.65,23.08-2.71,34.33-.31,5.63,1.18,11.09,3.08,16.29,5.48,5.21,2.4,10.16,5.37,14.7,8.84,9.05,7,16.63,15.94,21.8,26.11,5.2,10.15,8.14,21.41,8.49,32.79.37,11.37-1.74,22.8-6.36,33.18-4.56,10.39-11.45,19.74-20.01,27.21-9.28,8.28-28.2,16.8-40.23,19.72v.03c-3.7.31-7.37.39-11.01.19-7.25-.39-14.38-1.84-20.64-4.65-1.18-.52-2.32-1.11-3.43-1.73,2.12-1.67,4.05-3.65,5.68-5.89,2.65-3.64,4.47-7.99,5.27-12.47.4-2.24.58-4.52.55-6.79,0-1.13-.08-2.27-.2-3.39-.05-.53-.15-1.21-.27-1.83-.12-.63-.27-1.26-.45-1.88-.71-2.49-1.89-4.92-3.6-7.07-1.7-2.15-4-3.96-6.41-5.16-2.45-1.23-5.21-2.01-8.1-2.08-2.89-.07-5.88.56-8.56,1.93-2.69,1.36-4.9,3.38-6.55,5.56-.82,1.1-1.53,2.25-2.13,3.43-.3.59-.58,1.19-.83,1.82-.13.31-.25.63-.37.96l-.18.52c-.06.2-.11.33-.2.68l-.07.25-.05.35c-.34,2.19-.6,4.41-.68,6.67-.06,2.27.05,4.56.34,6.86.6,4.58,1.99,9.28,4.47,13.45,1.61,2.78,3.59,5.28,5.81,7.49-3.69,1.29-18.6,2.58-22.71,2.59,6.18,4.33,20.7,1.07,25.73.12.15.12.3.25.45.37,3.64,2.83,7.63,5.02,11.74,6.64,4.12,1.6,8.36,2.68,12.6,3.34,4.25.6,8.51.86,12.72.7,3.02-.12,6.01-.42,8.96-.87l-.02.1c2.09-.43,13.89-2.05,15.94-2.64,6.27-1.79,12.35-4.29,18.07-7.4,5.72-3.14,11.09-6.92,15.97-11.22,9.82-8.58,17.6-19.42,22.77-31.38,5.21-11.95,7.54-25.13,7-38.1ZM156.19,145.41l.11-.33c.11-.29.23-.6.37-.89.27-.59.59-1.14.93-1.63.68-.99,1.42-1.74,2.23-2.22,1.59-.98,3.9-1.16,6.16-.26,1.16.47,2.09,1.08,2.94,1.95.86.86,1.58,1.97,2.08,3.23.13.31.24.64.34.97.1.34.18.63.27,1.08.17.82.32,1.65.43,2.49.23,1.67.29,3.36.19,5.03-.18,3.34-1.03,6.62-2.59,9.66-1.17,2.27-2.73,4.4-4.62,6.28-2.43-2.04-4.47-4.38-5.95-6.98-1.49-2.61-2.47-5.55-2.92-8.73-.43-3.08-.38-6.34.01-9.63Z"/>
          <path class="cls-8" d="M156.1,145.68h0s0,.03,0,.03c-.03.11,0,0,0-.03Z"/>
          <g class="cls-26">
            <rect class="cls-20" x="194.24" y="121.77" width="12.51" height="20.13" transform="translate(257.54 364.92) rotate(-137.08)"/>
          </g>
          <g class="cls-13">
            <polygon class="cls-21" points="205.95 143.97 183.24 143.14 184.07 120.62 206.78 121.46 205.95 143.97"/>
          </g>
          <g class="cls-15">
            <rect class="cls-22" x="121.19" y="165.96" width="12.51" height="20.13" transform="translate(343.14 202.57) rotate(132.92)"/>
          </g>
          <g class="cls-14">
            <polygon class="cls-23" points="139.59 170.57 138.75 193.29 116.24 192.46 117.07 169.74 139.59 170.57"/>
          </g>
        </g>
        <g>
          <g>
            <path class="cls-3" d="M320.36,319.8h-1.39v-.55h3.37v.55h-1.39v3.77h-.59v-3.77Z"/>
            <path class="cls-3" d="M322.91,319.25h.87l1.37,3.27h.02l1.36-3.27h.87v4.32h-.59v-3.55h-.01l-1.46,3.55h-.39l-1.46-3.55h-.01v3.55h-.59v-4.32Z"/>
          </g>
          <path class="cls-3" d="M323.19,328.16c-3.72,0-6.75-3.03-6.75-6.75s3.03-6.75,6.75-6.75,6.75,3.03,6.75,6.75-3.03,6.75-6.75,6.75ZM323.19,315.38c-3.33,0-6.03,2.71-6.03,6.03s2.71,6.03,6.03,6.03,6.03-2.71,6.03-6.03-2.71-6.03-6.03-6.03Z"/>
        </g>
      </g>
    </g>
  </g>
</svg>