<svg xmlns="http://www.w3.org/2000/svg" viewBox="0 0 64 64"><g id="Atom"><circle cx="32" cy="31.63106" r="8.5"></circle><path d="M53.14,32q.51-.645.96-1.29c3.5-5.00995,4.38-9.59,2.47-12.9s-6.31-4.83-12.41-4.3c-.52.04-1.04.1-1.56994.18-.21-.54-.44-1.07-.68006-1.57a4.99974,4.99974,0,0,1-1.75,1.08c.13.27.25.55.37006.84a43.12412,43.12412,0,0,0-5.65,1.55c-.96.33-1.92.69-2.88,1.1a45.18626,45.18626,0,0,0-8.53-2.65C25.63,8.89,28.68,5.62,32,5.62a5.266,5.266,0,0,1,2.18.48,4.91564,4.91564,0,0,1,1.39-1.55A7.45585,7.45585,0,0,0,32,3.62c-4.31,0-8.09,3.88-10.59,10.07-.53-.08-1.05-.14-1.56994-.18-6.09-.53-10.5.99-12.41,4.3S6.4,25.7,9.9,30.71q.45.64508.96,1.29-.51.645-.96,1.29c-.17.24-.33.48-.49005.72A4.94409,4.94409,0,0,1,11.22,34.9c.11-.15.21-.31.32-.46.2-.29.41-.58.63-.86a41.918,41.918,0,0,0,4.18,4.13c.76.66,1.55,1.31,2.37,1.94a45.87605,45.87605,0,0,0,1.97,8.74c-.35.04-.69.08-1.03.11-5.2.46-9.02-.75-10.5-3.31a4.92422,4.92422,0,0,1-.56-1.47,3.10422,3.10422,0,0,1-.43.03,4.82949,4.82949,0,0,1-1.66-.29,7.42084,7.42084,0,0,0,.92,2.73c1.66,2.87,5.21,4.41,10.11,4.41.74005,0,1.5-.04,2.3-.11.52-.04,1.04-.1,1.56994-.18C23.91,56.5,27.69,60.38,32,60.38s8.09-3.88,10.59-10.07c.53.08,1.05.14,1.56994.18.05,0,.11005.01.16.01a4.93935,4.93935,0,0,1-.22-1.45,3.64,3.64,0,0,1,.04-.57c-.27-.02-.55-.05-.83-.09a45.87605,45.87605,0,0,0,1.97-8.74,46.38947,46.38947,0,0,0,6.55-6.07c.22.28.43.57.63.86,2.99,4.27,3.86,8.19,2.38,10.75a5.08835,5.08835,0,0,1-1.41,1.56,4.79143,4.79143,0,0,1,.56,2.06,7.51556,7.51556,0,0,0,2.58-2.62c1.91-3.31,1.03-7.89-2.47-12.9Q53.65,32.645,53.14,32Zm-8.8-16.5c5.2-.45,9.02.75,10.5,3.31s.61,6.48-2.38,10.75c-.2.29-.41.58-.63.86a46.393,46.393,0,0,0-6.55-6.07,45.87435,45.87435,0,0,0-1.97-8.74C43.66,15.57,44,15.53,44.34,15.5ZM43.77,32a56.07434,56.07434,0,0,1-.39,6.58,56.72978,56.72978,0,0,1-5.5,3.61A55.784,55.784,0,0,1,32,45.15a55.784,55.784,0,0,1-5.88-2.96,56.72978,56.72978,0,0,1-5.5-3.61,55.7002,55.7002,0,0,1,0-13.16,56.74053,56.74053,0,0,1,5.5-3.61A55.79612,55.79612,0,0,1,32,18.85a55.79612,55.79612,0,0,1,5.88,2.96,56.74053,56.74053,0,0,1,5.5,3.61A56.07537,56.07537,0,0,1,43.77,32ZM41.26,15.94a42.64549,42.64549,0,0,1,1.71,6.73c-1.3-.91-2.67-1.77-4.09-2.59S36.02,18.51,34.58,17.82A41.661,41.661,0,0,1,41.26,15.94ZM29.42,17.82c-1.44.69-2.88,1.44-4.3,2.26S22.33,21.76,21.03,22.67a42.64549,42.64549,0,0,1,1.71-6.73A41.661,41.661,0,0,1,29.42,17.82ZM11.54,29.56c-2.99-4.27-3.86-8.19-2.38-10.75s5.31-3.76,10.5-3.31c.34.03.68006.07,1.03.11a45.87435,45.87435,0,0,0-1.97,8.74,46.393,46.393,0,0,0-6.55,6.07C11.95,30.14,11.74,29.85,11.54,29.56ZM13.45,32a41.1232,41.1232,0,0,1,4.98-4.86c-.13,1.56995-.2,3.2-.2,4.86s.07,3.29.2,4.86A41.12767,41.12767,0,0,1,13.45,32Zm7.58,9.33c1.3.91,2.67,1.77,4.09,2.59s2.86,1.57,4.3,2.26a41.67346,41.67346,0,0,1-6.68,1.88A42.64628,42.64628,0,0,1,21.03,41.33ZM32,58.38c-3.32,0-6.37-3.27-8.53-8.42A45.19028,45.19028,0,0,0,32,47.31a45.19028,45.19028,0,0,0,8.53,2.65C38.37,55.11,35.32,58.38,32,58.38Zm9.26-10.32a41.67346,41.67346,0,0,1-6.68-1.88c1.44-.69,2.88-1.44,4.3-2.26s2.79-1.68,4.09-2.59A42.64628,42.64628,0,0,1,41.26,48.06Zm4.31-11.2c.13-1.57.2-3.2.2-4.86s-.07-3.29-.2-4.86A41.1232,41.1232,0,0,1,50.55,32,41.12767,41.12767,0,0,1,45.57,36.86Z"></path><path d="M52,49.05a2.91966,2.91966,0,0,1-.09.73H51.9a2.9458,2.9458,0,0,1-5.8-.73,2.31525,2.31525,0,0,1,.04-.46,2.94773,2.94773,0,0,1,5.86.46Z"></path><path d="M41.43,8.55a2.92894,2.92894,0,0,1-2.18,2.85,3.24867,3.24867,0,0,1-.77.1,2.94708,2.94708,0,0,1-2.6-4.34V7.15a2.9491,2.9491,0,0,1,1.51-1.34,2.82189,2.82189,0,0,1,1.09-.21A2.949,2.949,0,0,1,41.43,8.55Z"></path><path d="M11.12,38.8a2.94116,2.94116,0,0,1-2.64,2.93c-.1.01-.21.02-.31.02a2.99349,2.99349,0,0,1-1.67-.51,2.95092,2.95092,0,0,1,1.67-5.39.65974.65974,0,0,1,.14.01,2.93432,2.93432,0,0,1,2.81,2.94Z"></path></g></svg>