<svg xmlns="http://www.w3.org/2000/svg" id="Layer_1" viewBox="0 0 96 96"><path d="m33.73 75.355c-3.029 0-5.494 2.464-5.494 5.494 0 3.029 2.465 5.494 5.494 5.494s5.494-2.464 5.494-5.494c-.001-3.03-2.465-5.494-5.494-5.494zm0 8.649c-1.74 0-3.156-1.416-3.156-3.156s1.416-3.156 3.156-3.156 3.156 1.416 3.156 3.156c-.001 1.74-1.416 3.156-3.156 3.156zm22.267-7.369c0 3.029 2.465 5.494 5.494 5.494s5.494-2.464 5.494-5.494-2.464-5.494-5.494-5.494c-3.029.001-5.494 2.465-5.494 5.494zm8.65 0c0 1.74-1.416 3.156-3.156 3.156s-3.156-1.416-3.156-3.156 1.416-3.156 3.156-3.156 3.156 1.416 3.156 3.156zm-14.025-5.372c0-2.551-2.076-4.626-4.627-4.626s-4.626 2.075-4.626 4.626 2.075 4.627 4.626 4.627 4.627-2.076 4.627-4.627zm-6.916 0c0-1.262 1.027-2.289 2.289-2.289s2.289 1.027 2.289 2.289-1.027 2.289-2.289 2.289-2.289-1.027-2.289-2.289zm6.509 8.229c-2.551 0-4.627 2.076-4.627 4.627s2.076 4.626 4.627 4.626 4.626-2.075 4.626-4.626-2.075-4.627-4.626-4.627zm0 6.915c-1.262 0-2.289-1.027-2.289-2.289s1.027-2.289 2.289-2.289 2.289 1.027 2.289 2.289-1.027 2.289-2.289 2.289zm32.544-53.91c.362-.209.584-.595.584-1.012v-7.585c0-.418-.223-.803-.584-1.012l-6.569-3.792c-.362-.209-.807-.209-1.169 0l-5.984 3.455-13.3-7.679v-6.91c0-.418-.223-.803-.584-1.012l-6.568-3.792c-.361-.209-.807-.209-1.169 0l-6.568 3.792c-.362.209-.584.595-.584 1.012v6.91l-13.3 7.679-5.984-3.455c-.362-.209-.807-.209-1.169 0l-6.569 3.792c-.362.209-.584.595-.584 1.012v7.585c0 .418.223.804.584 1.012l5.984 3.455v15.358l-5.984 3.455c-.362.209-.584.595-.584 1.012v7.585c0 .418.223.803.584 1.012l6.569 3.792c.181.104.383.157.584.157.202 0 .404-.052.584-.157l5.984-3.455 2.647 1.528-9.106 13.132c-1.317 1.9-1.415 4.145-.275 6.322 2.072 3.961 8.039 7.307 13.028 7.307h29.485c4.99 0 10.957-3.346 13.03-7.307 1.14-2.177 1.042-4.422-.275-6.322l-9.106-13.132 2.647-1.528 5.984 3.455c.181.104.383.157.584.157s.404-.052.584-.157l6.569-3.792c.362-.209.584-.595.584-1.012v-7.585c0-.418-.223-.803-.584-1.012l-5.984-3.455v-15.359zm-12.553-7.923 5.4-3.117 5.4 3.117v6.235l-5.4 3.117-5.4-3.117zm-27.606-15.938 5.4-3.118 5.4 3.117v6.235l-5.4 3.118-5.4-3.117zm-27.606 15.938 5.4-3.117 5.4 3.117v6.235l-5.4 3.117-5.4-3.117zm10.8 38.112-5.4 3.117-5.4-3.117v-6.235l5.4-3.117 5.4 3.117zm47.908 21.923c-1.659 3.168-6.882 6.053-10.959 6.053h-29.486c-4.077 0-9.301-2.885-10.959-6.053-.748-1.428-.707-2.706.126-3.906l12.759-18.399h25.635l12.759 18.399c.831 1.2.872 2.478.125 3.906zm-17.192-46.142h-17.02c-.819 0-1.486-.666-1.486-1.486v-1.101c0-.819.666-1.485 1.486-1.485h17.02c.819 0 1.485.666 1.485 1.485v1.101c.001.82-.666 1.486-1.485 1.486zm-15.53 15.477c.136-.196.208-.428.208-.666v-12.473h13.624v12.473c0 .238.073.47.208.666l4.176 6.023h-22.393zm16.17-1.032v-12.165c1.804-.306 3.183-1.875 3.183-3.765v-1.101c0-2.108-1.715-3.823-3.823-3.823h-17.02c-2.108 0-3.823 1.715-3.823 3.823v1.101c0 1.89 1.379 3.459 3.183 3.765v12.165l-7.905 11.399-2.814-1.625v-6.91c0-.418-.223-.803-.584-1.012l-5.984-3.455v-15.358l5.984-3.455c.362-.209.584-.595.584-1.012v-6.91l13.3-7.679 5.984 3.455c.181.104.383.157.584.157s.404-.052.584-.157l5.984-3.455 13.3 7.679v6.91c0 .418.223.804.584 1.012l5.984 3.455v15.358l-5.984 3.455c-.362.209-.584.595-.584 1.012v6.91l-2.815 1.625zm23.856 9.774-5.4 3.117-5.4-3.117v-6.235l5.4-3.117 5.4 3.117z"></path></svg>