<svg xmlns="http://www.w3.org/2000/svg" viewBox="0 0 64 64" width="512" height="512"><g id="Layer_7" data-name="Layer 7"><path d="M61,50H55a10.92,10.92,0,0,0-4.035.777,14.235,14.235,0,0,0-5.34-10.558,1,1,0,0,0-1.25,0,14.235,14.235,0,0,0-5.34,10.558A10.92,10.92,0,0,0,35,50H29a1,1,0,0,0-1,1,10.99,10.99,0,0,0,4.7,9H17a1,1,0,0,1-1-1V58H27a1,1,0,0,0,0-2H15.351l-2.22-1.776A18.905,18.905,0,0,1,6,39.388V36H58v3.388a18.884,18.884,0,0,1-1.431,7.231,1,1,0,0,0,1.85.762A20.893,20.893,0,0,0,60,39.388V35.816A2.993,2.993,0,0,0,59,30H46.675l6.068-8.5a3,3,0,0,1,1.854-1.2l1.6-.319A7,7,0,0,0,59.771,8.173L55.827,4.229A7,7,0,0,0,44.014,7.805l-.321,1.6a2.987,2.987,0,0,1-1.2,1.852L19.712,27.53a12.064,12.064,0,0,0-2.5,2.394c-.018.024-.022.052-.038.076H5a2.993,2.993,0,0,0-1,5.816v3.572a20.9,20.9,0,0,0,7.881,16.4L14,57.481V59a3,3,0,0,0,3,3H51A11.013,11.013,0,0,0,62,51,1,1,0,0,0,61,50ZM20.875,29.157,43.659,12.884a4.988,4.988,0,0,0,2-3.088l.321-1.6a5,5,0,0,1,8.438-2.555l3.943,3.944A5,5,0,0,1,55.8,18.026l-1.6.319a4.981,4.981,0,0,0-3.088,2L44.218,30H19.857A10.211,10.211,0,0,1,20.875,29.157ZM5,32H59a1,1,0,0,1,0,2H5a1,1,0,0,1,0-2ZM58.056,52,46.2,59.112A9.013,9.013,0,0,1,55,52ZM49,51.4v.389a11.1,11.1,0,0,0-3,2.9V43.351A12.252,12.252,0,0,1,49,51.4Zm-8,0a12.252,12.252,0,0,1,3-8.052V54.7a11.1,11.1,0,0,0-3-2.9Zm2.8,7.709L31.944,52H35A9.013,9.013,0,0,1,43.8,59.112ZM30.323,53.36,41.39,60H39A9.01,9.01,0,0,1,30.323,53.36ZM51,60H48.61l11.067-6.64A9.01,9.01,0,0,1,51,60Z"></path></g></svg>