<svg xmlns="http://www.w3.org/2000/svg" id="Layer_1" viewBox="0 0 500 500"><path clip-rule="evenodd" d="m398.16 335.587.188.377c.114.228.126.467.037.705-.09.238-.256.41-.491.507l-72.895 29.998c-.021.009-.04.016-.062.023-11.066 3.618-22.569 5.335-33.871 3.491-.38-.062-.665-.346-.729-.725-.064-.38.113-.742.452-.925l78.07-42.201c10.455-5.652 23.632-1.725 29.288 8.725.005.008.009.016.013.025zm-174.415-92.842c1.229-23.466 7.964-46.537 20.204-65.052.208-.314.199-.705-.024-1.009-.222-.304-.591-.431-.953-.329-29.592 8.324-50.69 35.107-53.755 66.258-.025.258.052.488.225.68.174.192.396.291.655.291h32.765c.471-.001.859-.368.883-.839zm110.163 14.9h-32.765c-.471 0-.858.368-.883.838-1.229 23.466-7.964 46.537-20.204 65.052-.208.314-.199.705.024 1.009.222.304.591.431.953.329 29.592-8.325 50.689-35.107 53.755-66.258.025-.258-.052-.488-.225-.68-.174-.191-.397-.29-.655-.29zm-53.852-79.952c12.239 18.515 18.974 41.586 20.204 65.052.025.47.412.838.883.838h32.765c.259 0 .482-.099.655-.291.174-.192.251-.423.225-.68-3.066-31.151-24.163-57.934-53.755-66.258-.362-.102-.731.026-.953.329-.222.305-.231.696-.024 1.01zm-41.343 65.89c-.252 0-.47-.094-.643-.278s-.254-.406-.24-.658c1.403-24.261 9.235-47.804 23.493-64.868.174-.208.407-.317.679-.317s.505.109.679.317c14.258 17.064 22.09 40.606 23.494 64.868.014.252-.067.474-.24.658s-.391.278-.643.278zm-.883 14.997c-.014-.252.067-.474.24-.658s.391-.277.643-.277h46.578c.252 0 .47.094.643.277.173.184.254.406.24.658-1.404 24.261-9.235 47.804-23.493 64.868-.174.208-.407.317-.679.317-.271 0-.505-.109-.679-.317-14.257-17.064-22.089-40.606-23.493-64.868zm-14.968-.935h-32.765c-.259 0-.482.099-.655.291-.174.192-.251.423-.225.68 3.066 31.152 24.163 57.934 53.756 66.258.362.102.731-.026.953-.329.223-.304.232-.695.024-1.009-12.24-18.515-18.975-41.586-20.204-65.052-.025-.471-.413-.839-.884-.839zm-121.022-93.232-.188-.377c-.114-.228-.126-.467-.037-.705.09-.238.256-.41.491-.507l72.895-29.998c.021-.009.04-.016.062-.023 11.066-3.618 22.569-5.335 33.87-3.491.38.062.665.346.73.725.064.38-.113.742-.451.925l-78.07 42.201c-10.455 5.652-23.632 1.725-29.288-8.725-.006-.008-.01-.016-.014-.025zm319.736 2.601h-12.514c-4.276 0-7.775-3.499-7.775-7.775v-94.049c0-4.276 3.499-7.774 7.775-7.774h12.514c4.276 0 7.775 3.498 7.775 7.774v94.049c-.001 4.277-3.499 7.775-7.775 7.775zm-348.706-17.323c3.206 5.17 9.555 7.223 15.181 4.908l82.454-33.931c.02-.008.038-.015.058-.022 18.524-6.146 26.992-6.091 48.624-2.192.352.064.69-.078.89-.375 2.856-4.233 12.064-8.191 15.183-8.697 3.357-.545 6.866-.39 10.318.582l42.425 11.947c3.52.987 5.573 4.641 4.586 8.161s-4.641 5.573-8.161 4.586l-42.425-11.947c-3.119-.878-6.373-.305-9.007 1.468-12.313 8.288-9.177 27.235 5.019 31.233l48.135 13.555c14.576 4.105 27.956 4.463 42.732 1.145l58.252-13.083c.408-.092.69-.444.69-.863v-82.03c0-.487-.397-.884-.884-.884h-60.005c-8.807 0-16.331-1.205-24.697-3.956-24.477-8.047-54.257-18.525-77.059-16.863-29.305 2.136-64.622 24.341-89.426 39.42-20.759 12.62-40.802 26.287-60.186 40.913-5.109 3.855-6.427 10.91-3.055 16.349zm5.554 183.295h12.514c4.276 0 7.775 3.499 7.775 7.775v94.049c0 4.276-3.499 7.774-7.775 7.774h-12.514c-4.276 0-7.775-3.498-7.775-7.774v-94.049c.001-4.277 3.499-7.775 7.775-7.775zm348.706 17.323c-3.205-5.17-9.555-7.223-15.181-4.908l-82.454 33.931c-.02.008-.038.015-.058.022-18.524 6.146-26.992 6.091-48.624 2.192-.352-.064-.69.078-.89.375-2.856 4.233-12.064 8.191-15.183 8.697-3.357.545-6.866.39-10.318-.582l-42.425-11.947c-3.52-.987-5.573-4.641-4.586-8.161s4.641-5.573 8.161-4.586l42.425 11.947c3.12.878 6.373.305 9.007-1.468 12.313-8.288 9.177-27.235-5.019-31.233l-48.135-13.555c-14.576-4.105-27.956-4.463-42.732-1.145l-58.252 13.083c-.408.092-.69.444-.69.863v82.03c0 .487.397.884.884.884h60.005c8.807 0 16.331 1.205 24.697 3.956 24.477 8.047 54.257 18.525 77.059 16.863 29.305-2.136 64.622-24.341 89.426-39.42 20.759-12.62 40.802-26.287 60.186-40.913 5.109-3.855 6.427-10.91 3.055-16.349z" fill-rule="evenodd"></path></svg>