<svg xmlns="http://www.w3.org/2000/svg" height="480pt" viewBox="0 0 480 480" width="480pt"><path d="m359.359375 463.953125c-3.992187-27.515625-27.554687-47.945313-55.359375-48h-56v-104h56c2.121094 0 4.15625-.84375 5.65625-2.34375l51.664062-51.65625 22.398438 12.929687c26.792969 15.453126 61.035156 6.261719 76.488281-20.527343l16-27.714844c2.210938-3.824219.898438-8.71875-2.925781-10.925781l-27.714844-16c-26.78125-15.464844-61.03125-6.289063-76.496094 20.496094l-1.070312 1.886718v-2.144531c-.035156-30.914063-25.085938-55.964844-56-56h-32c-4.417969 0-8 3.582031-8 8v32c.035156 30.914063 25.085938 55.964844 56 56h12.6875l-40 40h-52.6875v-152.503906c17.910156-2.820313 35.296875-8.3125 51.574219-16.296875 2.726562-1.359375 4.441406-4.152344 4.425781-7.199219v-48l42.871094-16.488281c3.097656-1.183594 5.144531-4.15625 5.144531-7.472656 0-3.3125-2.046875-6.285157-5.144531-7.46875l-104-40c-1.851563-.699219-3.890625-.699219-5.742188 0l-104 40c-3.078125 1.183593-5.113281 4.132812-5.128906 7.429687v36.6875l-21.65625 21.65625 11.3125 11.3125 10.34375-10.34375v12.6875h16v-12.6875l10.34375 10.34375 11.3125-11.3125-21.65625-21.65625v-25.039063l32 12.351563v48c0 3.03125 1.710938 5.804687 4.425781 7.160156 16.273438 8 33.660157 13.503907 51.574219 16.335938v184.503906h-52.6875l-32-32h12.6875c30.914062-.035156 55.964844-25.085937 56-56v-32c0-4.417969-3.582031-8-8-8h-32c-30.914062.035156-55.964844 25.085937-56 56v2.144531l-1.070312-1.855468c-15.46875-26.800782-49.738282-35.980469-76.53125-20.496094l-27.710938 16c-3.824219 2.210937-5.136719 7.101562-2.925781 10.929687l16 27.710938c7.410156 12.875 19.640625 22.273437 33.992187 26.117187 14.351563 3.847656 29.644532 1.824219 42.503906-5.621094l22.398438-12.929687 43.65625 43.65625c1.507812 1.507813 3.554688 2.351563 5.6875 2.34375h56v72h-56c-27.804688.054687-51.367188 20.484375-55.359375 48h-120.640625v16h480v-16zm23.570313-239.710937c11.042968-19.128907 35.507812-25.683594 54.636718-14.640626l20.800782 12-12 20.800782c-11.046876 19.128906-35.507813 25.683594-54.640626 14.640625l-20.796874-12zm-94.929688-24.289063v-24h24c22.082031.027344 39.972656 17.921875 40 40v24h-24c-22.082031-.027344-39.972656-17.917969-40-40zm-191.710938 97.074219c-19.132812 11.042968-43.59375 4.488281-54.640624-14.640625l-12-20.800781 20.800781-12c19.128906-11.046876 43.59375-4.492188 54.640625 14.640624l12 20.800782zm39.710938-41.074219c.027344-22.078125 17.917969-39.972656 40-40h24v24c-.027344 22.082031-17.917969 39.972656-40 40h-24zm104-239.429687 81.710938 31.429687-81.710938 31.433594-81.710938-31.433594zm-48 61.542968 45.128906 17.359375c1.847656.703125 3.894532.703125 5.742188 0l45.128906-17.359375v36.800782c-15.066406 7.253906-31.335938 11.6875-48 13.085937-16.664062-1.40625-32.929688-5.84375-48-13.09375zm-16 353.886719h128c19 .023437 35.371094 13.390625 39.199219 32h-206.398438c3.828125-18.609375 20.199219-31.976563 39.199219-32zm0 0"></path><path d="m40 67.265625v76.6875h16v-76.6875l10.34375 10.34375 11.3125-11.3125-24-24c-3.125-3.121094-8.1875-3.121094-11.3125 0l-24 24 11.3125 11.3125zm0 0"></path><path d="m424 67.265625v76.6875h16v-76.6875l10.34375 10.34375 11.3125-11.3125-24-24c-3.125-3.121094-8.1875-3.121094-11.3125 0l-24 24 11.3125 11.3125zm0 0"></path><path d="m40 159.953125h16v16h-16zm0 0"></path><path d="m40 191.953125h16v16h-16zm0 0"></path><path d="m424 159.953125h16v16h-16zm0 0"></path></svg>