<svg xmlns="http://www.w3.org/2000/svg" xmlns:svg="http://www.w3.org/2000/svg" id="svg4704" xml:space="preserve" width="682.66669" height="682.66669" viewBox="0 0 682.66669 682.66669"><defs id="defs4708"><clipPath clipPathUnits="userSpaceOnUse" id="clipPath4726"><path d="M 0,512 H 512 V 0 H 0 Z" id="path4724"></path></clipPath></defs><g id="g4710" transform="matrix(1.3333333,0,0,-1.3333333,0,682.66667)"><g id="g4712" transform="translate(287.98,112.4697)"><path d="M 0,0 -12.92,-53.779" style="fill:none;stroke:#000000;stroke-width:15;stroke-linecap:round;stroke-linejoin:round;stroke-miterlimit:10;stroke-dasharray:none;stroke-opacity:1" id="path4714"></path></g><g id="g4716" transform="translate(236.9399,58.6904)"><path d="M 0,0 -12.92,53.779" style="fill:none;stroke:#000000;stroke-width:15;stroke-linecap:round;stroke-linejoin:round;stroke-miterlimit:10;stroke-dasharray:none;stroke-opacity:1" id="path4718"></path></g><g id="g4720"><g id="g4722" clip-path="url(#clipPath4726)"><g id="g4728" transform="translate(156.7798,180.4004)"><path d="m 0,0 c 5.37,-2.4 11.55,-2.75 17.29,-0.75 12.92,4.51 27.28,7.989 42.65,10.199 12.51,1.79 25.68,2.75 39.28,2.75 13.6,0 26.77,-0.96 39.28,-2.75 15.37,-2.21 29.73,-5.689 42.65,-10.199 5.74,-2 11.92,-1.65 17.29,0.75" style="fill:none;stroke:#000000;stroke-width:15;stroke-linecap:round;stroke-linejoin:round;stroke-miterlimit:10;stroke-dasharray:none;stroke-opacity:1" id="path4730"></path></g><g id="g4732" transform="translate(354.0801,131.9297)"><path d="M 0,0 -52.98,-7.27" style="fill:none;stroke:#000000;stroke-width:15;stroke-linecap:round;stroke-linejoin:round;stroke-miterlimit:10;stroke-dasharray:none;stroke-opacity:1" id="path4734"></path></g><g id="g4736" transform="translate(210.8999,124.6602)"><path d="M 0,0 -52.98,7.27" style="fill:none;stroke:#000000;stroke-width:15;stroke-linecap:round;stroke-linejoin:round;stroke-miterlimit:10;stroke-dasharray:none;stroke-opacity:1" id="path4738"></path></g><g id="g4740" transform="translate(308.8174,158.9883)"><path d="m 0,0 -3.112,-21.6 c -0.669,-4.64 -2.275,-8.943 -4.601,-12.729 -5.921,-9.629 -16.55,-15.915 -28.471,-15.915 h -33.267 c -11.921,0 -22.549,6.286 -28.471,15.915 -2.326,3.786 -3.932,8.089 -4.6,12.729 L -105.635,0 c -1.359,9.465 1.562,18.441 7.2,25.117 3.109,3.681 7.56,5.957 12.343,6.531 10.694,1.283 21.833,1.963 33.275,1.963 11.441,0 22.58,-0.68 33.274,-1.963 4.783,-0.574 9.234,-2.85 12.343,-6.531 C -1.562,18.441 1.359,9.465 0,0 Z" style="fill:none;stroke:#000000;stroke-width:15;stroke-linecap:round;stroke-linejoin:round;stroke-miterlimit:10;stroke-dasharray:none;stroke-opacity:1" id="path4742"></path></g><g id="g4744" transform="translate(268.1699,259.3398)"><path d="m 0,0 c 50.37,-6 89.42,-48.87 89.42,-100.85 0,-56.11 -45.48,-101.589 -101.59,-101.589 -56.11,0 -101.59,45.479 -101.59,101.589 0,51.98 39.05,94.85 89.42,100.85 m -113.64,-178.03 c -13.8,22.45 -21.77,48.881 -21.77,77.18 0,68.54 46.73,126.161 110.07,142.75 m 75.02,0 c 63.34,-16.589 110.07,-74.21 110.07,-142.75 0,-81.509 -66.08,-147.58 -147.58,-147.58 -40.75,0 -77.65,16.52 -104.35,43.22" style="fill:none;stroke:#000000;stroke-width:15;stroke-linecap:round;stroke-linejoin:round;stroke-miterlimit:10;stroke-dasharray:none;stroke-opacity:1" id="path4746"></path></g><g id="g4748" transform="translate(309.1753,423.5771)"><path d="m 0,0 -32.055,4.658 c -1.34,0.195 -2.498,1.036 -3.096,2.25 l -14.336,29.046 c -1.509,3.058 -5.868,3.058 -7.376,0 L -71.199,6.908 c -0.599,-1.214 -1.757,-2.055 -3.097,-2.25 L -106.351,0 c -3.373,-0.49 -4.72,-4.636 -2.279,-7.016 l 23.195,-22.609 c 0.97,-0.945 1.412,-2.307 1.183,-3.641 l -5.476,-31.925 c -0.576,-3.36 2.951,-5.922 5.968,-4.336 l 28.671,15.073 c 1.198,0.63 2.63,0.63 3.828,0 l 28.671,-15.073 c 3.017,-1.586 6.544,0.976 5.967,4.336 l -5.476,31.925 c -0.228,1.334 0.214,2.696 1.183,3.641 L 2.279,-7.016 C 4.721,-4.636 3.374,-0.49 0,0 Z" style="fill:none;stroke:#000000;stroke-width:15;stroke-linecap:round;stroke-linejoin:round;stroke-miterlimit:10;stroke-dasharray:none;stroke-opacity:1" id="path4750"></path></g><g id="g4752" transform="translate(444.79,418.9512)"><path d="m 0,0 -25.026,3.637 c -0.766,0.111 -1.428,0.592 -1.77,1.286 L -37.988,27.6 c -0.863,1.747 -3.353,1.747 -4.216,0 L -53.396,4.923 C -53.738,4.229 -54.4,3.748 -55.166,3.637 L -80.192,0 c -1.928,-0.28 -2.698,-2.649 -1.303,-4.009 l 18.11,-17.652 c 0.553,-0.54 0.806,-1.318 0.676,-2.08 l -4.275,-24.926 c -0.329,-1.92 1.686,-3.384 3.41,-2.478 l 22.384,11.768 c 0.685,0.36 1.503,0.36 2.188,0 l 22.384,-11.768 c 1.724,-0.906 3.74,0.558 3.41,2.478 l -4.274,24.926 c -0.131,0.762 0.121,1.54 0.675,2.08 L 1.303,-4.009 C 2.698,-2.649 1.928,-0.28 0,0 Z" style="fill:none;stroke:#000000;stroke-width:15;stroke-linecap:round;stroke-linejoin:round;stroke-miterlimit:10;stroke-dasharray:none;stroke-opacity:1" id="path4754"></path></g><g id="g4756" transform="translate(147.4019,418.9512)"><path d="m 0,0 -25.026,3.637 c -0.766,0.111 -1.428,0.592 -1.77,1.286 L -37.988,27.6 c -0.862,1.747 -3.353,1.747 -4.216,0 L -53.396,4.923 C -53.738,4.229 -54.4,3.748 -55.166,3.637 L -80.192,0 c -1.928,-0.28 -2.698,-2.649 -1.303,-4.009 l 18.11,-17.652 c 0.554,-0.54 0.806,-1.318 0.676,-2.08 l -4.275,-24.926 c -0.329,-1.92 1.686,-3.384 3.41,-2.478 l 22.385,11.768 c 0.684,0.36 1.502,0.36 2.187,0 l 22.384,-11.768 c 1.724,-0.906 3.74,0.558 3.41,2.478 l -4.274,24.926 c -0.131,0.762 0.122,1.54 0.675,2.08 L 1.303,-4.009 C 2.698,-2.649 1.928,-0.28 0,0 Z" style="fill:none;stroke:#000000;stroke-width:15;stroke-linecap:round;stroke-linejoin:round;stroke-miterlimit:10;stroke-dasharray:none;stroke-opacity:1" id="path4758"></path></g><g id="g4760" transform="translate(407.1201,501.0898)"><path d="m 0,0 h -379.62 c -11.046,0 -20,-8.954 -20,-20 v -146.787 c 0,-11.046 8.954,-20 20,-20 h 169.103 c 8.684,0 16.736,-4.541 21.229,-11.973 l 31.644,-52.342 c 2.966,-4.906 10.082,-4.906 13.047,0 l 31.645,52.342 c 4.493,7.432 12.545,11.973 21.229,11.973 H 77.38 c 11.046,0 20,8.954 20,20 V -20 c 0,11.046 -8.954,20 -20,20 L 35,0" style="fill:none;stroke:#000000;stroke-width:15;stroke-linecap:round;stroke-linejoin:round;stroke-miterlimit:10;stroke-dasharray:none;stroke-opacity:1" id="path4762"></path></g></g></g></g></svg>