<svg xmlns="http://www.w3.org/2000/svg" id="Layer_1" viewBox="0 0 500 500"><path clip-rule="evenodd" d="m303.84 349.684c0 3.783-3.073 6.856-6.856 6.856l-91.201.002c-3.783 0-6.856-3.072-6.856-6.856 0-3.783 3.072-6.856 6.856-6.856l91.201-.002c3.784.001 6.856 3.073 6.856 6.856zm167.848 10.324c3.564-1.277 5.418-5.21 4.141-8.762-1.282-3.57-5.204-5.424-8.768-4.153l-24.68 8.849c17.852-32.328 27.202-68.583 27.202-105.947-.004-121.345-98.249-219.579-219.587-219.576-44.012.001-86.476 12.969-122.8 37.517-3.136 2.12-3.962 6.388-1.836 9.524 2.108 3.131 6.377 3.956 9.513 1.837 34.048-23.006 73.855-35.165 115.124-35.166 113.513-.003 205.871 92.345 205.874 205.864.001 36.607-9.569 72.066-27.791 103.377l-10.64-29.717c-1.282-3.564-5.21-5.418-8.768-4.135-3.564 1.271-5.423 5.198-4.141 8.762l15.376 42.914c1.285 3.656 5.212 5.509 8.866 4.187zm-97.045 62.531c-2.12-3.136-6.377-3.956-9.513-1.837-34.048 23.006-73.867 35.165-115.124 35.166-113.524.004-205.883-92.35-205.886-205.863-.001-36.607 9.569-72.066 27.797-103.377l10.646 29.711c1.282 3.569 5.204 5.423 8.768 4.141 3.564-1.276 5.418-5.198 4.141-8.762l-15.388-42.914c-1.252-3.648-5.264-5.525-8.866-4.187l-42.903 15.376c-3.564 1.277-5.424 5.198-4.141 8.762 1.271 3.564 5.204 5.423 8.768 4.141l24.668-8.838c-17.852 32.328-27.203 68.578-27.202 105.947.003 121.334 98.263 219.579 219.598 219.576 44.012-.001 86.47-12.975 122.794-37.523 3.143-2.125 3.963-6.382 1.843-9.519zm-63.464-173.811c.001 34.99-28.473 63.466-63.469 63.467-34.99.001-63.466-28.474-63.467-63.464-.001-35.002 28.473-63.472 63.464-63.473 19.366 0 36.723 8.726 48.379 22.449l-47.136 51.223-25.987-27.331c-2.605-2.743-6.948-2.847-9.692-.248-2.738 2.611-2.847 6.948-.248 9.692l31.034 32.65c2.727 2.877 7.333 2.832 10.01-.087l49.897-54.208c4.598 8.773 7.215 18.743 7.215 29.33zm22.94-82.336c2.559-2.79 6.89-2.975 9.68-.404 2.79 2.559 2.969 6.902.399 9.68l-30.473 33.114c7.076 11.667 11.165 25.338 11.166 39.946.001 42.551-34.624 77.172-77.181 77.173-42.551.001-77.178-34.619-77.179-77.17-.001-42.556 34.624-77.184 77.175-77.185 22.942-.001 43.567 10.072 57.713 26.013zm23.65 140.55c15.299-48.483 14.293-106.288 12.882-158.045-42.369-7.015-85.625-21.758-120.653-42.328-35.05 20.576-78.285 35.316-120.663 42.334-1.408 51.758-2.4 109.563 12.902 158.051 16.855 53.409 52.124 88.462 107.769 107.111 55.643-18.653 90.899-53.708 107.763-107.123zm20.586-170.718c-43.722-6.503-89.146-21.818-124.794-43.506-2.195-1.334-4.944-1.334-7.128 0-35.427 21.608-81.26 37.053-124.804 43.513-3.281.485-5.747 3.264-5.839 6.591-1.5 54.27-3.191 115.783 13.375 168.257 18.501 58.619 57.334 96.796 118.72 116.722 1.402.453 2.827.453 4.234 0 61.385-19.928 100.221-58.108 118.72-116.727 16.558-52.474 14.858-113.987 13.355-168.257-.086-3.33-2.546-6.108-5.839-6.593z" fill-rule="evenodd"></path></svg>