<svg xmlns="http://www.w3.org/2000/svg" clip-rule="evenodd" fill-rule="evenodd" stroke-linejoin="round" stroke-miterlimit="2" viewBox="0 0 510 510"><path d="m128.796 376.069c3.195 6.941 1.863 15.477-3.933 21.063l-63.505 61.662c-.011.01-.021.02-.031.03-7.349 7.06-19.094 6.859-26.157-.427l-.007-.008-22.931-23.621-.006-.006c-7.126-7.358-6.921-19.12.373-26.182l63.546-61.67.007-.007c5.762-5.579 14.339-6.642 21.17-3.255l26.522-25.752c-11.77-18.935-18.568-41.284-18.568-65.222 0-68.327 55.38-123.707 123.707-123.707 31.284 0 59.854 11.61 81.637 30.756l59.512-59.512c-3.404-5.442-5.372-11.872-5.372-18.759 0-19.562 15.882-35.445 35.445-35.445 19.562 0 35.445 15.883 35.445 35.445 0 19.563-15.883 35.445-35.445 35.445-6.887 0-13.317-1.968-18.759-5.372l-59.512 59.512c17.501 19.911 28.705 45.494 30.501 73.637h80.581c3.631-15.715 17.725-27.445 34.537-27.445 19.562 0 35.444 15.882 35.444 35.445s-15.882 35.445-35.444 35.445c-16.812 0-30.906-11.73-34.537-27.445h-80.581c-1.796 28.143-13 53.726-30.501 73.637l59.512 59.512c5.442-3.404 11.872-5.372 18.759-5.372 19.562 0 35.445 15.882 35.445 35.445 0 19.562-15.883 35.445-35.445 35.445-19.563 0-35.445-15.883-35.445-35.445 0-6.887 1.968-13.317 5.372-18.759l-59.512-59.512c-21.783 19.146-50.353 30.756-81.637 30.756-28.053 0-53.923-9.335-74.675-25.069zm271.409-314.062c-10.732 0-19.445 8.713-19.445 19.445s8.713 19.445 19.445 19.445 19.445-8.713 19.445-19.445-8.713-19.445-19.445-19.445zm47.903 190.667c0 10.732 8.713 19.445 19.445 19.445 10.731 0 19.444-8.713 19.444-19.445s-8.713-19.445-19.444-19.445c-10.732 0-19.445 8.713-19.445 19.445zm-47.903 151.777c-10.732 0-19.445 8.713-19.445 19.445s8.713 19.445 19.445 19.445 19.445-8.713 19.445-19.445-8.713-19.445-19.445-19.445zm-290.989-50.05 9.185 9.461 23.763-23.06c-3.136-3.089-6.107-6.344-8.9-9.751zm227.474-101.727c0-59.49-48.217-107.707-107.707-107.707s-107.707 48.217-107.707 107.707 48.217 107.707 107.707 107.707 107.707-48.217 107.707-107.707zm-107.707-96.722c53.419 0 96.722 43.303 96.722 96.722s-43.303 96.722-96.722 96.722-96.722-43.303-96.722-96.722 43.303-96.722 96.722-96.722zm0 16c-44.583 0-80.722 36.139-80.722 80.722s36.139 80.722 80.722 80.722 80.722-36.139 80.722-80.722-36.139-80.722-80.722-80.722zm18.1 23.519c3.295 1.04 6.492 2.365 9.559 3.961l6.165-2.741c3.025-1.345 6.566-.688 8.907 1.653l11.599 11.599c2.338 2.338 2.996 5.873 1.657 8.896 0 0-2.732 6.169-2.733 6.169 1.6 3.074 2.928 6.279 3.97 9.586l6.284 2.419c3.089 1.189 5.126 4.157 5.126 7.466v16.406c0 3.31-2.037 6.278-5.126 7.466 0 0-6.29 2.421-6.29 2.421-1.043 3.295-2.372 6.493-3.966 9.561l2.735 6.176c1.339 3.023.681 6.558-1.657 8.896l-11.599 11.599c-2.338 2.338-5.873 2.996-8.896 1.657 0 0-6.166-2.731-6.165-2.731-3.068 1.598-6.273 2.924-9.573 3.965l-2.42 6.287c-1.188 3.089-4.156 5.126-7.466 5.126h-16.406c-3.309 0-6.277-2.037-7.466-5.126 0 0-2.42-6.287-2.419-6.286-3.305-1.044-6.507-2.375-9.579-3.97l-6.176 2.735c-3.023 1.339-6.558.681-8.897-1.657l-11.598-11.599c-2.341-2.341-2.998-5.882-1.653-8.907 0 0 2.74-6.161 2.74-6.16-1.596-3.065-2.922-6.266-3.968-9.563l-6.297-2.424c-3.089-1.188-5.127-4.156-5.127-7.466v-16.406c0-3.309 2.038-6.277 5.127-7.466 0 0 6.294-2.422 6.294-2.422 1.047-3.304 2.374-6.506 3.972-9.576l-2.741-6.165c-1.345-3.025-.688-6.567 1.653-8.907l11.598-11.599c2.341-2.341 5.882-2.998 8.908-1.653 0 0 6.165 2.741 6.164 2.742 3.07-1.598 6.27-2.924 9.567-3.964l2.435-6.31c1.19-3.085 4.156-5.12 7.463-5.12h16.406c3.311 0 6.28 2.04 7.468 5.131zm-13.49 9.5-1.895-4.932h-5.422l-1.907 4.942c-.949 2.46-3.049 4.294-5.614 4.903-4.523 1.075-8.838 2.863-12.803 5.306-2.248 1.385-5.034 1.572-7.447.499l-4.826-2.145s-3.826 3.826-3.826 3.826l2.145 4.826c1.073 2.413.886 5.199-.499 7.447-2.447 3.971-4.236 8.293-5.326 12.837-.615 2.56-2.449 4.654-4.906 5.599l-4.919 1.893v5.42l4.919 1.893c2.455.945 4.289 3.036 4.904 5.594 1.09 4.527 2.876 8.861 5.322 12.815 1.391 2.25 1.58 5.041.505 7.458 0 0-2.145 4.826-2.145 4.826l3.832 3.832 4.83-2.139c2.404-1.065 5.178-.881 7.42.493 3.97 2.432 8.288 4.238 12.831 5.315 2.57.609 4.674 2.446 5.622 4.911l1.893 4.918h5.42l1.893-4.918c.948-2.463 3.049-4.3 5.617-4.91 4.519-1.074 8.844-2.858 12.792-5.299 2.246-1.389 5.033-1.58 7.448-.51l4.83 2.139 3.838-3.838-2.14-4.83c-1.064-2.404-.88-5.178.494-7.42 2.432-3.971 4.239-8.29 5.316-12.82.61-2.568 2.447-4.669 4.91-5.617l4.918-1.893v-5.42l-4.918-1.893c-2.465-.948-4.302-3.052-4.911-5.622-1.075-4.536-2.862-8.85-5.305-12.814-1.383-2.244-1.571-5.026-.504-7.437l2.14-4.83s-3.833-3.832-3.833-3.832l-4.825 2.145c-2.413 1.073-5.199.886-7.447-.499-3.965-2.443-8.28-4.231-12.803-5.306-2.569-.61-4.671-2.449-5.618-4.913zm-4.61 11.087c20.23 0 36.632 16.386 36.632 36.616 0 20.229-16.403 36.632-36.632 36.632-20.23 0-36.616-16.402-36.616-36.632 0-20.232 16.384-36.616 36.616-36.616zm0 16c-11.391 0-20.616 9.225-20.616 20.616 0 11.392 9.224 20.632 20.616 20.632 11.393 0 20.632-9.239 20.632-20.632 0-11.392-9.24-20.616-20.632-20.616zm-182.326 215.202c.966.997 2.571.993 3.578.032l63.49-61.648c.011-.009.021-.019.031-.029.988-.95 1.005-2.537.048-3.517-.005-.006-.01-.011-.015-.016l-22.938-23.629-.007-.007c-.961-.993-2.569-1.01-3.562-.049l-63.54 61.665-.007.007c-.993.961-.985 2.56-.016 3.561l22.931 23.622z"></path></svg>