<svg xmlns="http://www.w3.org/2000/svg" id="Layer_1" viewBox="0 0 512 512" data-name="Layer 1"><path d="m484.26 431.392c11.929-46.764 17.262-87.617 15.841-121.526-1.618-38.633-12.066-67.153-31.074-84.874 4.146-15.034 2.854-27.732-3.912-38.705-2.005-3.253-6.248-4.297-9.53-2.346-11.04 6.551-19.739 13.727-25.449 26.13-18.49-5.038-34.739-.835-47.893 5.906v-134.517c0-1.856-.737-3.637-2.05-4.95l-49.854-49.854c-1.313-1.312-3.094-2.05-4.95-2.05h-229.8c-3.866 0-7 3.134-7 7v272.611h-7.083c-3.344 0-6.221 2.365-6.868 5.646l-2.629 13.334-11.082 4.597-11.294-7.573c-2.774-1.862-6.482-1.501-8.849.864l-19.917 19.918c-2.364 2.364-2.726 6.07-.863 8.848l7.572 11.294-4.597 11.082-13.334 2.628c-3.28.647-5.646 3.524-5.646 6.868v28.168c0 3.344 2.365 6.221 5.646 6.868l13.334 2.628 4.597 11.082-7.572 11.294c-1.862 2.777-1.501 6.483.863 8.848l19.917 19.918c2.365 2.364 6.072 2.726 8.849.864l11.294-7.573 11.082 4.597 2.629 13.334c.647 3.28 3.524 5.646 6.868 5.646h28.167c3.344 0 6.221-2.365 6.868-5.646l2.629-13.334 11.082-4.597 11.292 7.573c2.778 1.862 6.483 1.501 8.85-.863l19.918-19.918c2.364-2.365 2.726-6.071.863-8.849l-7.573-11.294 4.597-11.082 13.334-2.628c3.28-.647 5.646-3.524 5.646-6.868v-7.084h148.609c-1.825 8.406-2.992 17.798-3.32 28.358-14.324 1.315-25.583 13.392-25.583 28.053v21.178c0 3.866 3.134 7 7 7h187.115c3.866 0 7-3.134 7-7v-21.178c0-14.027-10.304-25.69-23.74-27.825zm-52.541-206.085c1.784.688 3.773.61 5.504-.207 1.729-.817 3.048-2.308 3.65-4.124 3.267-9.852 8.099-15.612 15.297-20.768 2.085 6.908 1.505 14.891-1.705 24.551-1.544 3.642-3.503 6.971-5.837 9.892-2.414 3.02-1.923 7.425 1.098 9.838 1.29 1.031 2.833 1.532 4.365 1.532 2.055 0 4.091-.9 5.473-2.63 1.192-1.491 2.284-3.078 3.324-4.71 14.069 15.395 21.873 39.48 23.226 71.771 1.394 33.289-4.079 73.849-16.23 120.588h-123.413c1.712-50.513 24.45-70.251 44.577-87.696 18.125-15.71 35.245-30.548 32.127-62.389-.294-3.004-2.48-5.48-5.425-6.146-2.942-.663-5.982.633-7.539 3.219-9.579 15.911-23.958 10.947-31.675 6.573-9.357-5.301-19.84-2.438-26.089 7.124-.402.615-.796 1.231-1.188 1.844-1.428 2.232-2.775 4.341-4.212 5.864-2.233 2.37-4.712 3.4-7.599 3.156-4.103-.353-8.612-3.387-11.488-7.733-2.647-4-4.233-8.834-4.356-13.277.026-5.123 2.552-7.202 9.779-12.406 1.709-1.23 3.644-2.623 5.609-4.171 2.003-1.521 4.4-3.258 6.938-5.096 5.902-4.277 12.593-9.125 18.643-14.307 19.288-16.524 40.769-30.421 67.146-20.292zm-23.427 73.688c-3.398 13.714-13.415 22.5-26.05 33.452v-31.158c9.366 2.696 18.381 1.867 26.05-2.294zm-75.904-250.491 25.956 25.956h-25.956zm-159.21 355.631-11.363 2.24c-2.297.453-4.216 2.023-5.112 4.187l-7.47 18.008c-.897 2.164-.653 4.634.652 6.58l6.458 9.63-11.78 11.78-9.628-6.458c-1.946-1.306-4.417-1.549-6.581-.652l-18.008 7.47c-2.162.896-3.733 2.815-4.187 5.111l-2.24 11.364h-16.659l-2.24-11.364c-.453-2.296-2.024-4.215-4.187-5.111l-18.008-7.47c-2.163-.896-4.635-.653-6.58.652l-9.63 6.458-11.779-11.78 6.457-9.63c1.306-1.946 1.55-4.416.652-6.58l-7.47-18.008c-.896-2.163-2.815-3.733-5.112-4.187l-11.363-2.24v-16.658l11.363-2.24c2.297-.453 4.216-2.023 5.112-4.187l7.47-18.008c.897-2.164.653-4.634-.652-6.58l-6.457-9.63 11.779-11.78 9.63 6.458c1.945 1.305 4.417 1.549 6.58.652l18.008-7.47c2.162-.896 3.733-2.815 4.187-5.111l2.24-11.364h16.659l2.24 11.364c.453 2.296 2.024 4.215 4.187 5.111l18.008 7.47c2.164.896 4.635.652 6.581-.652l9.628-6.458 11.78 11.78-6.458 9.63c-1.306 1.946-1.55 4.416-.652 6.58l7.47 18.008c.896 2.163 2.815 3.733 5.112 4.187l11.363 2.24zm14-15.329v-7.084c0-3.344-2.365-6.221-5.646-6.868l-13.334-2.628-4.597-11.082 7.573-11.294c1.862-2.777 1.501-6.483-.863-8.849l-19.918-19.918c-2.365-2.364-6.071-2.727-8.85-.863l-11.292 7.573-11.082-4.597-2.629-13.334c-.647-3.28-3.524-5.646-6.868-5.646h-7.084v-265.611h215.799v42.854c0 3.866 3.134 7 7 7h42.855v136.221c-5.08 3.696-9.375 7.371-12.777 10.286-5.616 4.811-12.062 9.48-17.749 13.602-2.622 1.9-5.1 3.695-7.238 5.319-.033.025-.066.051-.099.076-1.746 1.376-3.489 2.632-5.176 3.846-7.669 5.522-15.6 11.231-15.6 23.851 0 .055 0 .11.002.165.168 7.133 2.541 14.505 6.68 20.758 5.304 8.013 13.516 13.229 21.967 13.954 7.112.612 13.85-2.055 18.983-7.503 2.336-2.479 4.106-5.247 5.818-7.924.367-.574.736-1.152 1.112-1.728 1.464-2.239 2.863-3.13 4.076-3.373v49.077c-11.003 10.726-21.738 24.076-28.557 43.719h-152.506zm306.822 84.589h-173.115v-14.178c0-7.817 6.36-14.178 14.178-14.178h144.76c7.817 0 14.178 6.36 14.178 14.178v14.178zm-72.945-62.594c3.866 0 7 3.134 7 7s-3.134 7-7 7h-1.203c-3.866 0-7-3.134-7-7s3.134-7 7-7zm-14.023 7c0 3.866-3.134 7-7 7h-39.001c-3.866 0-7-3.134-7-7s3.134-7 7-7h39.001c3.866 0 7 3.134 7 7zm-311.443-71.752c-27.436 0-49.756 22.321-49.756 49.757s22.32 49.756 49.756 49.756 49.757-22.32 49.757-49.756-22.321-49.757-49.757-49.757zm0 85.513c-19.716 0-35.756-16.04-35.756-35.756s16.04-35.757 35.756-35.757 35.757 16.04 35.757 35.757-16.04 35.756-35.757 35.756zm76.093-152.442c0 3.866-3.134 7-7 7h-12.585c-3.866 0-7-3.134-7-7v-12.586c0-3.866 3.134-7 7-7s7 3.134 7 7v5.586h5.585c3.866 0 7 3.134 7 7zm59.714-73.714v-5.586h-5.585c-3.866 0-7-3.134-7-7s3.134-7 7-7h12.585c3.866 0 7 3.134 7 7v12.586c0 3.866-3.134 7-7 7s-7-3.134-7-7zm14 61.128v12.586c0 3.866-3.134 7-7 7h-12.585c-3.866 0-7-3.134-7-7s3.134-7 7-7h5.585v-5.586c0-3.866 3.134-7 7-7s7 3.134 7 7zm-100.3-61.128v-12.586c0-3.866 3.134-7 7-7h12.585c3.866 0 7 3.134 7 7s-3.134 7-7 7h-5.585v5.586c0 3.866-3.134 7-7 7s-7-3.134-7-7zm14.001 24.271v12.585c0 3.866-3.134 7-7 7s-7-3.134-7-7v-12.585c0-3.866 3.134-7 7-7s7 3.134 7 7zm49.442 49.442c0 3.866-3.134 7-7 7h-12.586c-3.866 0-7-3.134-7-7s3.134-7 7-7h12.586c3.866 0 7 3.134 7 7zm0-86.299c0 3.866-3.134 7-7 7h-12.586c-3.866 0-7-3.134-7-7v-80.342c0-3.866 3.134-7 7-7h129.784c3.866 0 7 3.134 7 7v129.784c0 3.866-3.134 7-7 7h-80.342c-3.866 0-7-3.134-7-7v-12.585c0-3.866 3.134-7 7-7s7 3.134 7 7v5.585h66.342v-115.784h-115.784v66.343h5.586c3.866 0 7 3.134 7 7zm48.945-28.989 23.863-23.864h-10.2c-3.866 0-7-3.134-7-7s3.134-7 7-7h27.101c3.866 0 7 3.134 7 7v27.101c0 3.866-3.134 7-7 7s-7-3.134-7-7v-10.202l-23.863 23.864c-1.367 1.367-3.159 2.051-4.95 2.051s-3.583-.684-4.949-2.05c-2.734-2.734-2.734-7.166 0-9.899z"></path></svg>