<svg xmlns="http://www.w3.org/2000/svg" id="Layer_1" viewBox="0 0 512 512"><g><path d="m164.34 450.45h-91.76v33.93h91.76zm-99.76-16.02h6.26c-3.29-25.82-9.89-40.25-18.28-58.56-4.25-9.33-8.93-19.59-13.72-32.17-12.02-31.52 19.84-83.65 37.98-105.17-13.34-108.57 71.22-204.15 180.41-204.15s193.75 95.58 180.4 204.15c18.14 21.51 50 73.64 37.98 105.17-4.79 12.59-9.47 22.85-13.72 32.17-8.39 18.31-15 32.74-18.31 58.56h6.29c4.42 0 7.99 3.6 7.99 7.99v49.95c0 4.42-3.57 8.02-7.99 8.02h-107.74c-4.42 0-7.99-3.6-7.99-8.02v-49.95c0-4.39 3.57-7.99 7.99-7.99h1.76c-4.62-20.38-11.06-38.95-15.45-51.02-45.35 19.33-97.06 19.33-142.41 0-4.39 12.08-10.83 30.64-15.45 51.02h1.76c4.42 0 7.99 3.6 7.99 7.99v49.95c0 4.42-3.57 8.02-7.99 8.02h-107.76c-4.42 0-7.99-3.6-7.99-8.02v-49.95c0-4.39 3.57-7.99 7.99-7.99zm22.34 0h67.29c5.81-26.93 14.85-51.25 19.33-63.21l2.1-4.82c0-24.86-5.56-51.53-8.59-76.59-2.3-19.05-21.49-17.49-21.49.08v54.4c0 6.94-8.59 11.05-14.03 5.24-6.29-6.24-12.84-14.4-19.16-23.58-8.87-11.68-16.38-24.49-22.22-38.13-1.25-2.89-2.41-5.81-3.51-8.76-2.66-6.43-4.9-12.67-6.58-18.48-12.22 17.46-34.27 56.44-26.31 77.41 4.85 12.73 9.3 22.42 13.32 31.24 9.19 20.07 16.37 35.8 19.85 65.2zm15.17-159.76c1.96 4.59 4.2 9.3 6.63 14.03 4.79 9.38 10.32 18.74 16.04 27.16 1.56 2.07 3.17 4.08 4.82 6.07v-32.03c0-14.71 8.05-25.54 19.53-28.77-2.04-4.9-3.71-9.89-5.1-15.17l-17.86-6.72c-3.4-.94-5.87-4.02-5.87-7.71v-30.76h.03c0-3.23 1.98-6.26 5.19-7.46l18.51-6.97c2.69-10.29 6.75-20.07 12.08-29.17l-7.99-17.58c-1.59-3.03-1.11-6.86 1.42-9.41l21.74-21.74h.03c2.27-2.27 5.81-3.03 8.93-1.62l18.03 8.19c9.13-5.33 18.88-9.38 29.2-12.08l6.72-17.89c.94-3.37 4.03-5.87 7.71-5.87h30.73v.03c3.23 0 6.29 1.98 7.48 5.19l6.94 18.54c10.32 2.69 20.07 6.75 29.2 12.08l17.57-7.99c3.03-1.59 6.86-1.13 9.41 1.42l21.74 21.74h-.03c2.3 2.3 3.03 5.81 1.64 8.93l-8.19 18.06c5.3 9.1 9.35 18.88 12.08 29.17l17.86 6.72c3.4.94 5.87 4.03 5.87 7.71v30.76h-.03c0 3.23-1.98 6.26-5.19 7.46l-18.51 6.97c-1.39 5.27-3.06 10.26-5.1 15.17 11.48 3.23 19.53 14.06 19.53 28.77v32.03c1.64-1.98 3.26-4 4.82-6.07 6.6-9.24 18.14-29.96 22.68-41.19 6.86-18.2 10.63-37.9 10.63-58.51 0-91.56-74.21-165.77-165.77-165.77s-165.77 74.21-165.77 165.77c-.01 20.61 3.76 40.31 10.62 58.51zm65.62-11.48c7.57 4.05 13.72 12.25 15.22 24.75.71 5.87 1.56 11.74 2.41 17.66l10.18-4.62c2.55-1.13 5.36-.85 7.57.54 9.78 6.21 20.72 10.8 32.03 13.32 2.75.6 4.85 2.55 5.75 4.99l6.49 17.26h19.73l6.49-17.26c.99-2.66 3.26-4.51 5.87-5.02 11.06-2.38 22.37-7.23 31.92-13.29 2.47-1.56 5.47-1.62 7.91-.37l9.84 4.45c.85-5.92 1.7-11.79 2.41-17.66 1.5-12.5 7.65-20.69 15.22-24.75 1.81-3.51 3.49-7.17 4.93-11 1.76-4.59 3.17-9.27 4.22-13.95.6-2.75 2.55-4.85 4.99-5.75l17.29-6.46v-19.73l-17.29-6.49c-2.66-.99-4.48-3.29-5.02-5.9-2.35-10.97-7.26-22.42-13.29-31.92-1.56-2.47-1.59-5.47-.37-7.88l7.51-16.53-13.95-13.92-16.84 7.65c-2.55 1.13-5.36.85-7.57-.54-9.78-6.21-20.72-10.8-32.06-13.29-2.72-.62-4.82-2.58-5.73-5.02l-6.49-17.26h-19.73l-6.49 17.26c-.99 2.69-3.26 4.51-5.87 5.05-11 2.35-22.42 7.26-31.92 13.27-2.47 1.56-5.47 1.62-7.91.37l-16.5-7.48-13.95 13.92 7.65 16.87c1.16 2.52.85 5.36-.54 7.54h.03c-6.24 9.78-10.83 20.75-13.32 32.06-.6 2.75-2.55 4.85-4.99 5.75l-17.29 6.49v19.73l17.29 6.46c2.66.99 4.48 3.29 5.02 5.9 1.78 8.16 5.27 17.37 9.15 24.8zm20.04 58.85c2.13 14.8 3.88 29.71 3.88 44.36 0 .54-.09 1.19-.28 1.93 41.84 18.14 89.91 18.14 131.75 0-.2-.74-.28-1.39-.28-1.93 0-14.65 1.76-29.56 3.86-44.36l-10.46-4.76c-9.13 5.33-18.94 9.38-29.2 12.08l-6.72 17.89c-.94 3.37-4.03 5.87-7.71 5.87h-30.73v-.03c-3.23 0-6.29-1.98-7.48-5.19l-6.94-18.54c-10.32-2.69-20.07-6.75-29.2-12.08zm172.49 112.39h67.29c3.49-29.4 10.66-45.13 19.84-65.2 4.03-8.82 8.48-18.51 13.29-31.24 7.99-20.98-14.06-59.95-26.28-77.41-1.67 5.81-3.91 12.05-6.6 18.48-1.08 2.95-2.24 5.87-3.49 8.76-5.87 13.63-13.35 26.45-22.22 38.13-6.32 9.18-12.87 17.35-19.16 23.58-5.44 5.81-14.03 1.7-14.03-5.24v-54.4c0-17.57-19.19-19.13-21.49-.08-3.03 25.06-8.59 51.73-8.59 76.59l2.1 4.82c4.46 11.96 13.53 36.28 19.34 63.21zm81.61 16.02h-91.73v33.93h91.73zm-177.73-258.58 10.54-14.71c2.58-3.6 7.57-4.42 11.17-1.84 3.57 2.55 4.39 7.57 1.84 11.14l-10.35 14.43c12.56 16.53.77 40.51-20.1 40.51-22.39 0-33.7-27.21-17.83-43.09 6.39-6.38 15.8-8.96 24.73-6.44zm-.37 17.74c-5.78-5.78-15.76-1.67-15.76 6.55 0 8.19 9.98 12.3 15.76 6.52 3.6-3.6 3.63-9.47 0-13.07zm-6.52-75.09c45.07 0 81.61 36.54 81.61 81.64 0 45.07-36.54 81.61-81.61 81.61s-81.61-36.54-81.61-81.61c0-45.1 36.54-81.64 81.61-81.64zm46.4 35.24c-25.63-25.63-67.18-25.63-92.81 0s-25.63 67.15 0 92.78 67.18 25.63 92.81 0 25.63-67.16 0-92.78z"></path></g></svg>