<svg xmlns="http://www.w3.org/2000/svg" id="Layer_1" viewBox="0 0 492 492"><g clip-rule="evenodd" fill-rule="evenodd"><path d="m228.08 298.31h-189.19c-4.76 0-8.63-3.87-8.63-8.63s3.87-8.63 8.63-8.63h206.52c.14-.01.27-.01.41-.01s.28 0 .41.01h206.52c4.76 0 8.63 3.87 8.63 8.63 0 4.77-3.87 8.63-8.64 8.63h-189.18l91.78 117.07c2.04 2.6 2.42 6.14.96 9.11-1.45 2.96-4.47 4.84-7.77 4.84h-205.43c-3.3 0-6.31-1.88-7.76-4.85s-1.07-6.5.96-9.1zm80.01 84.79-62.28-79.44-62.28 79.44zm13.53 17.26h-151.62l-9.18 11.71h169.98zm-142.39-300.14v-.65c0-9.97-8.11-18.08-18.08-18.08h-63.94c-9.97 0-18.08 8.11-18.08 18.08v.65h-17.25v-.65c0-19.48 15.85-35.33 35.33-35.33h63.94c19.48 0 35.33 15.85 35.33 35.33v.65z"></path><path d="m262.65 117.39c0 36.61 22.17 55.23 52.87 80.97 14.41 12.08 30.6 25.67 46.93 43.22 16.34-17.55 32.52-31.14 46.93-43.22 30.69-25.75 52.87-44.36 52.87-80.97 0-29.35-21.26-53.23-47.4-53.23-22.06 0-34.14 10.28-47.84 40.73-.81 1.8-2.6 2.96-4.57 2.96-1.98 0-3.76-1.15-4.57-2.96-13.7-30.46-25.77-40.73-47.84-40.73-26.12 0-47.38 23.88-47.38 53.23z"></path><path d="m362.44 254.02h-76.81c-4.66 0-8.45 3.79-8.45 8.45v8.45h170.56v-8.45c0-4.66-3.79-8.45-8.45-8.45h-76.8-.02z"></path><path d="m199.01 254.02h-139.65-7c-4.66 0-8.45 3.79-8.45 8.45v8.45h170.56v-8.45c0-4.66-3.79-8.45-8.45-8.45h-6.98z"></path><path d="m151.18 186.59h-44c-1.15 0-2.14.97-2.14 2.14v15.12.02.02c0 6.92 5.64 12.55 12.56 12.55h23.16c6.92 0 12.55-5.63 12.56-12.55v-.02-.02-15.12c0-1.16-.98-2.14-2.14-2.14z"></path><path d="m162.79 208.88c-2.29 10.05-11.3 17.57-22.03 17.57h-23.16c-10.73 0-19.74-7.52-22.02-17.57h-46.65v24.68c0 5.75 4.68 10.43 10.43 10.43h69.78 69.87c5.75 0 10.43-4.68 10.43-10.43v-24.68z"></path><path d="m182.75 148.46h-143.71v41.74c0 3.94 2.64 7.26 6.24 8.31h.01l.04.01h.01c.75.21 1.54.33 2.36.33h47.33v-10.14c0-6.71 5.46-12.16 12.16-12.16h44.01c6.71 0 12.16 5.46 12.16 12.16v10.14h47.32c.82 0 1.61-.11 2.36-.33l.04-.01c3.6-1.05 6.24-4.38 6.24-8.31v-71.2c0-4.77-3.88-8.65-8.66-8.65h-162.98c-4.77 0-8.65 3.88-8.65 8.65v19.44h143.71c2.77 0 5.01 2.25 5.01 5.01.01 2.76-2.23 5.01-5 5.01z"></path></g></svg>