<svg xmlns="http://www.w3.org/2000/svg" width="50" height="50" viewBox="0 0 50 50" fill="none"><rect width="50" height="50" rx="25" fill="#273A2B"></rect><g clip-path="url(#clip0_1452_3705)"><path fill-rule="evenodd" clip-rule="evenodd" d="M10.5134 25.5216C10.2839 26.3691 9.50874 26.9933 8.58906 26.9933C7.48885 26.9933 6.5957 26.1001 6.5957 25C6.5957 23.8999 7.48885 23.0066 8.58906 23.0066C9.50874 23.0066 10.2839 23.6309 10.5134 24.4784H13.9912V23.9509C13.9912 23.2826 14.5332 22.7406 15.2015 22.7406C15.8704 22.7406 16.3999 22.4024 16.7074 21.9259H12.2994C11.78 21.9259 11.379 21.5157 11.379 21.0357V19.4027C10.5356 19.1704 9.91549 18.3974 9.91549 17.4807C9.91549 16.3805 10.8086 15.4873 11.9088 15.4873C13.009 15.4873 13.9021 16.3805 13.9021 17.4807C13.9021 18.4033 13.2739 19.1805 12.4221 19.4071V20.8827H17.0031C16.9925 20.455 16.8277 20.0224 16.4738 19.6687C16.0014 19.1962 16.0014 18.4299 16.4738 17.9575L17.9578 16.4736C18.4302 16.0012 19.1965 16.0012 19.6689 16.4736C20.0225 16.8272 20.4549 16.9921 20.8824 17.0028V12.4225H19.4046C19.175 13.27 18.4 13.8942 17.4803 13.8942C16.3801 13.8942 15.487 13.0011 15.487 11.9009C15.487 10.8007 16.3801 9.90758 17.4803 9.90758C18.4 9.90758 19.175 10.5318 19.4046 11.3794H21.0353C21.5153 11.3794 21.9255 11.7804 21.9255 12.2998V16.7076C22.4023 16.4001 22.7409 15.8705 22.7409 15.2013C22.7409 14.533 23.2829 13.991 23.9511 13.991H24.4781V10.5137C23.6305 10.2842 23.0063 9.5091 23.0063 8.58943C23.0063 7.48922 23.8995 6.59607 24.9996 6.59607C26.0998 6.59607 26.993 7.48922 26.993 8.58943C26.993 9.5091 26.3687 10.2842 25.5212 10.5137V13.991H26.0481C26.7163 13.991 27.2584 14.533 27.2584 15.2013C27.2584 15.8705 27.597 16.4001 28.0737 16.7076V12.2998C28.0737 11.7804 28.4839 11.3794 28.9639 11.3794H30.5946C30.8242 10.5318 31.5993 9.90758 32.5189 9.90758C33.6191 9.90758 34.5123 10.8007 34.5123 11.9009C34.5123 13.0011 33.6191 13.8942 32.5189 13.8942C31.5993 13.8942 30.8242 13.27 30.5946 12.4225H29.1169V17.0028C29.5443 16.9921 29.9767 16.8272 30.3304 16.4736C30.8025 16.0014 31.5706 16.0014 32.0427 16.4736L33.5254 17.9575C33.9978 18.4299 33.9978 19.1962 33.5254 19.6687C33.1716 20.0224 33.0068 20.455 32.9964 20.8827H37.5771V19.4067C36.7263 19.1794 36.0989 18.4027 36.0989 17.4807C36.0989 16.3805 36.9921 15.4873 38.0923 15.4873C39.1924 15.4873 40.0855 16.3805 40.0855 17.4807C40.0855 18.398 39.4645 19.1715 38.6202 19.4032V21.0357C38.6202 21.5157 38.2192 21.9259 37.6998 21.9259H33.2922C33.5998 22.4024 34.1292 22.7406 34.7977 22.7406C35.4682 22.7406 36.008 23.2826 36.008 23.9509V24.4784H39.4859C39.7154 23.6309 40.4905 23.0066 41.4102 23.0066C42.5104 23.0066 43.4035 23.8999 43.4035 25C43.4035 26.1001 42.5104 26.9933 41.4102 26.9933C40.4905 26.9933 39.7154 26.3691 39.4859 25.5216H36.008V26.0479C36.008 26.7161 35.4682 27.2581 34.7977 27.2581C34.1286 27.2581 33.5988 27.597 33.2914 28.0741H37.6998C38.2192 28.0741 38.6202 28.4843 38.6202 28.9643V30.5968C39.4645 30.8284 40.0855 31.6019 40.0855 32.5193C40.0855 33.6195 39.1924 34.5127 38.0923 34.5127C36.9921 34.5127 36.0989 33.6195 36.0989 32.5193C36.0989 31.5972 36.7263 30.8206 37.5771 30.5933V29.1173H32.9964C33.0072 29.5445 33.1719 29.9766 33.5254 30.3301C33.9975 30.8022 33.9975 31.5703 33.5254 32.0425L32.0427 33.5251C31.5706 33.9973 30.8025 33.9973 30.3304 33.5251C29.9767 33.1715 29.5443 33.0067 29.1169 32.9962V37.5775H30.5896C30.8124 36.7202 31.5923 36.0865 32.5189 36.0865C33.6191 36.0865 34.5123 36.9796 34.5123 38.0798C34.5123 39.18 33.6191 40.0731 32.5189 40.0731C31.6063 40.0731 30.836 39.4583 30.6 38.6206H28.9639C28.4839 38.6206 28.0737 38.2196 28.0737 37.7002V33.2915C27.597 33.599 27.2584 34.1287 27.2584 34.7975C27.2584 35.4679 26.7163 36.0078 26.0481 36.0078H25.5212V39.4863C26.3687 39.7157 26.993 40.4909 26.993 41.4105C26.993 42.5108 26.0998 43.4039 24.9996 43.4039C23.8995 43.4039 23.0063 42.5108 23.0063 41.4105C23.0063 40.4909 23.6305 39.7157 24.4781 39.4863V36.0078H23.9511C23.2829 36.0078 22.7409 35.4679 22.7409 34.7975C22.7409 34.1277 22.4024 33.5977 21.9255 33.2902V37.7002C21.9255 38.2196 21.5153 38.6206 21.0353 38.6206H19.3992C19.1633 39.4583 18.393 40.0731 17.4803 40.0731C16.3801 40.0731 15.487 39.18 15.487 38.0798C15.487 36.9796 16.3801 36.0865 17.4803 36.0865C18.407 36.0865 19.1868 36.7202 19.4097 37.5775H20.8824V32.9953C20.455 33.0063 20.0227 33.1713 19.6689 33.5251C19.1965 33.9976 18.4302 33.9976 17.9579 33.5253L16.4738 32.0425C16.0017 31.5703 16.0017 30.8022 16.4738 30.3301C16.8273 29.9766 16.9922 29.5445 17.003 29.1173H12.4221V30.5928C13.2739 30.8195 13.9021 31.5966 13.9021 32.5193C13.9021 33.6195 13.009 34.5127 11.9088 34.5127C10.8086 34.5127 9.91549 33.6195 9.91549 32.5193C9.91549 31.6026 10.5356 30.8296 11.379 30.5973V28.9643C11.379 28.4843 11.78 28.0741 12.2994 28.0741H16.7082C16.4009 27.597 15.871 27.2581 15.2015 27.2581C14.5332 27.2581 13.9912 26.7161 13.9912 26.0479V25.5216H10.5134ZM9.53921 25C9.53921 24.4756 9.11346 24.0498 8.58906 24.0498C8.06459 24.0498 7.63884 24.4756 7.63884 25C7.63884 25.5244 8.06459 25.9502 8.58906 25.9502C9.11346 25.9502 9.53921 25.5244 9.53921 25ZM11.9088 18.4309C12.4332 18.4309 12.859 18.0051 12.859 17.4807C12.859 16.9562 12.4332 16.5305 11.9088 16.5305C11.3844 16.5305 10.9586 16.9562 10.9586 17.4807C10.9586 18.0023 11.3799 18.4264 11.9006 18.4308C11.9033 18.4308 11.906 18.4308 11.9088 18.4309ZM18.4305 11.9009C18.4305 11.3765 18.0047 10.9507 17.4803 10.9507C16.9558 10.9507 16.5301 11.3765 16.5301 11.9009C16.5301 12.4253 16.9558 12.8511 17.4803 12.8511C18.0047 12.8511 18.4305 12.4253 18.4305 11.9009ZM24.9996 9.53958C25.524 9.53958 25.9498 9.11383 25.9498 8.58943C25.9498 8.06496 25.524 7.63921 24.9996 7.63921C24.4752 7.63921 24.0494 8.06496 24.0494 8.58943C24.0494 9.11383 24.4752 9.53958 24.9996 9.53958ZM31.5688 11.9009C31.5688 12.4253 31.9945 12.8511 32.5189 12.8511C33.0434 12.8511 33.4692 12.4253 33.4692 11.9009C33.4692 11.3765 33.0434 10.9507 32.5189 10.9507C31.9945 10.9507 31.5688 11.3765 31.5688 11.9009ZM38.0987 18.4308C38.6202 18.4273 39.0424 18.0029 39.0424 17.4807C39.0424 16.9562 38.6167 16.5305 38.0923 16.5305C37.5678 16.5305 37.142 16.9562 37.142 17.4807C37.142 18.0051 37.5678 18.4308 38.0923 18.4308H38.0987ZM40.46 25C40.46 25.5244 40.8858 25.9502 41.4102 25.9502C41.9347 25.9502 42.3604 25.5244 42.3604 25C42.3604 24.4756 41.9347 24.0498 41.4102 24.0498C40.8858 24.0498 40.46 24.4756 40.46 25ZM38.0923 31.5691C37.5678 31.5691 37.142 31.9949 37.142 32.5193C37.142 33.0438 37.5678 33.4695 38.0923 33.4695C38.6167 33.4695 39.0424 33.0438 39.0424 32.5193C39.0424 31.9971 38.6202 31.5726 38.0987 31.5691C38.0965 31.5691 38.0944 31.5691 38.0923 31.5691ZM31.5689 38.099C31.5792 38.6146 32.001 39.03 32.5189 39.03C33.0434 39.03 33.4692 38.6042 33.4692 38.0798C33.4692 37.5553 33.0434 37.1296 32.5189 37.1296C31.9945 37.1296 31.5688 37.5553 31.5688 38.0798V38.0867C31.5689 38.0908 31.5689 38.0949 31.5689 38.099ZM24.9996 40.4604C24.4752 40.4604 24.0494 40.8862 24.0494 41.4105C24.0494 41.935 24.4752 42.3608 24.9996 42.3608C25.524 42.3608 25.9498 41.935 25.9498 41.4105C25.9498 40.8862 25.524 40.4604 24.9996 40.4604ZM18.4305 38.0867C18.4305 38.0844 18.4305 38.0821 18.4305 38.0798C18.4305 37.5553 18.0047 37.1296 17.4803 37.1296C16.9558 37.1296 16.5301 37.5553 16.5301 38.0798C16.5301 38.6042 16.9558 39.03 17.4803 39.03C17.9982 39.03 18.42 38.6146 18.4303 38.099C18.4304 38.0949 18.4304 38.0908 18.4305 38.0867ZM11.9006 31.5691C11.3799 31.5736 10.9586 31.9977 10.9586 32.5193C10.9586 33.0438 11.3844 33.4695 11.9088 33.4695C12.4332 33.4695 12.859 33.0438 12.859 32.5193C12.859 31.9949 12.4332 31.5691 11.9088 31.5691C11.906 31.5691 11.9033 31.5691 11.9006 31.5691ZM34.7977 26.2149C34.8903 26.2149 34.9649 26.1401 34.9649 26.0479V23.9509C34.9649 23.8586 34.8903 23.7838 34.7977 23.7838C32.2689 23.7838 30.9993 20.7196 32.7878 18.931C32.8529 18.8659 32.8529 18.7602 32.7878 18.6951L31.3052 17.2113C31.2397 17.1458 31.1333 17.1458 31.0679 17.2113C29.2795 18.9997 26.2153 17.7316 26.2153 15.2013C26.2153 15.109 26.1404 15.0342 26.0481 15.0342H23.9511C23.8589 15.0342 23.784 15.109 23.784 15.2013C23.784 17.7316 20.7198 18.9997 18.9313 17.2113C18.8661 17.1461 18.7605 17.1461 18.6953 17.2113L17.2115 18.6951C17.1464 18.7602 17.1464 18.8659 17.2115 18.931C18.9999 20.7196 17.7318 23.7838 15.2015 23.7838C15.1093 23.7838 15.0344 23.8586 15.0344 23.9509V26.0479C15.0344 26.1401 15.1093 26.2149 15.2015 26.2149C17.7318 26.2149 18.9999 29.2792 17.2115 31.0677C17.1461 31.1331 17.1461 31.2394 17.2115 31.3049L18.6953 32.7875C18.7605 32.8527 18.8661 32.8527 18.9313 32.7875C20.7213 30.9975 23.784 32.2657 23.784 34.7975C23.784 34.89 23.8589 34.9646 23.9511 34.9646H26.0481C26.1404 34.9646 26.2153 34.89 26.2153 34.7975C26.2153 32.2687 29.2795 30.999 31.0679 32.7875C31.1333 32.8529 31.2397 32.8529 31.3052 32.7875L32.7878 31.3049C32.8532 31.2395 32.8532 31.1331 32.7878 31.0677C30.9993 29.2792 32.2689 26.2149 34.7977 26.2149ZM19.7029 25.9468C19.4919 24.1988 20.41 22.9423 21.8298 22.2638C23.1527 21.6316 24.9303 21.5216 26.5546 22.0186C26.7312 22.0727 26.866 22.2161 26.9091 22.3956C26.9522 22.5753 26.8971 22.7642 26.7642 22.8926C25.7592 23.8633 25.218 24.7218 24.6749 25.3481C24.2895 25.7925 23.8989 26.1319 23.3956 26.35C22.8104 26.6035 22.0572 26.695 20.9297 26.5387C21.5313 28.2588 23.0734 29.5171 25.0002 29.5171C27.4876 29.5171 29.5174 27.4873 29.5174 25C29.5174 22.5116 27.4876 20.4828 25.0002 20.4828C24.0809 20.4828 23.2244 20.7599 22.5097 21.2346C22.27 21.394 21.946 21.3287 21.7867 21.0889C21.6273 20.8491 21.6927 20.5252 21.9324 20.3659C22.8127 19.781 23.8678 19.4397 25.0002 19.4397C28.062 19.4397 30.5605 21.9369 30.5605 25C30.5605 28.0617 28.062 30.5603 25.0002 30.5603C22.2852 30.5603 20.1696 28.5606 19.7073 25.977C19.7056 25.9672 19.7041 25.9574 19.7029 25.9477C19.7029 25.9474 19.7029 25.9471 19.7029 25.9468ZM21.4667 25.5548C22.0967 25.6126 22.5608 25.5631 22.9384 25.4106C23.4983 25.1845 23.8473 24.7357 24.2898 24.1675C24.6002 23.769 24.9437 23.3142 25.3874 22.8195C24.2811 22.6495 23.1601 22.7841 22.2796 23.205C21.6015 23.5291 21.0736 24.032 20.8435 24.7031C21.0639 24.5789 21.2767 24.4903 21.4942 24.4012C21.9087 24.2313 22.3451 24.0596 22.9364 23.4825C23.1425 23.2815 23.473 23.2855 23.674 23.4915C23.875 23.6976 23.871 24.0281 23.665 24.2291C22.9359 24.9406 22.4008 25.157 21.8897 25.3664C21.7483 25.4243 21.6092 25.4814 21.4667 25.5548Z" fill="white"></path></g><defs><clipPath id="clip0_1452_3705"><rect width="38" height="38" fill="white" transform="translate(6 6)"></rect></clipPath></defs></svg>