<svg xmlns="http://www.w3.org/2000/svg" id="Layer_1" height="512" viewBox="0 0 52 52" width="512"><linearGradient id="SVGID_1_" gradientUnits="userSpaceOnUse" x1="-124" x2="-123.293" y1="-1240" y2="-1239.293"><stop offset="0" stop-color="#dedfe3"></stop><stop offset=".1783311" stop-color="#dadbdf"></stop><stop offset=".3611409" stop-color="#cecfd3"></stop><stop offset=".546043" stop-color="#b9bcbf"></stop><stop offset=".7323959" stop-color="#9ca0a2"></stop><stop offset=".9181451" stop-color="#787d7e"></stop><stop offset="1" stop-color="#656b6c"></stop></linearGradient><g id="_x37_1"><path d="m50.0008545 14.2041016-6.5898438-11.4101563c-.1787109-.3095703-.5087891-.5-.8662109-.5h-13.1904297c-.3574219 0-.6875.1904297-.8662109.5l-4.7033691 8.144043c-.3283691-.0889893-.6690674-.1342773-1.0202637-.1342773-1.8026123 0-3.309082 1.2359619-3.7541504 2.9003906h-8.8122559l-2.1904297-4.5776368c.9997559-.7070313 1.6582031-1.8665771 1.6582031-3.1811523 0-2.1503906-1.75-3.8994141-3.9003906-3.8994141s-3.9003906 1.7490235-3.9003906 3.8994141 1.75 3.9003906 3.9003906 3.9003906c.1203613 0 .2338867-.0249023.3515625-.0356445l2.3199463 4.8481445-6.3189697 10.9667969c-.1787109.3085938-.1787109.6894531 0 .9990234l6.3128662 10.9467773-1.9432373 3.8417969c-.1860352-.0273438-.371582-.0571289-.5649414-.0571289-2.1503906 0-3.9003906 1.75-3.9003906 3.9003906s1.75 3.8994141 3.9003906 3.8994141 3.8994141-1.7490234 3.8994141-3.8994141c0-1.2392578-.5917969-2.3323975-1.4954834-3.0473633l1.8585205-3.6743164h8.8251953c.4450684 1.6641846 1.9516602 2.8994141 3.7541504 2.8994141.3515625 0 .692627-.0455322 1.0198975-.1339111l4.7037354 8.1544189c.1787109.3095703.5087891.5.8662109.5h13.1904297c.3574219 0 .6875-.1904297.8662109-.5l6.5898438-11.4199219c.1787109-.3095703.1787109-.6904297 0-1l-4.822998-8.3537598c.7226563-.7175293 1.1462402-1.7106934 1.1462402-2.7663574 0-.9741211-.364624-1.8984375-1.0046387-2.6074219l4.6813965-8.1025391c.1787108-.3095701.1787108-.6904295-.0000001-.9999998zm-46.1357422-8.2587891c0-1.046875.8525391-1.8994141 1.9003906-1.8994141s1.9003906.8525391 1.9003906 1.8994141c0 1.0478516-.8525391 1.9003906-1.9003906 1.9003906s-1.9003906-.852539-1.9003906-1.9003906zm2.0576172 41.2099609c-1.0478516 0-1.9003906-.8525391-1.9003906-1.8994141 0-1.0478516.8525391-1.9003906 1.9003906-1.9003906 1.046875 0 1.8994141.8525391 1.8994141 1.9003906 0 1.0468751-.8525391 1.8994141-1.8994141 1.8994141zm16.8417969-34.3515625c1.0504131 0 1.9003906.8541441 1.9003906 1.9003906 0 1.0725574-.8685741 1.8994141-1.9003906 1.8994141-1.0478516 0-1.9003906-.8525391-1.9003906-1.8994141-.0000001-1.0478515.852539-1.9003906 1.9003906-1.9003906zm-12.6220703 2.9003907h8.8515625c.5428905 2.0442905 2.7001476 3.3279285 4.7888184 2.7661133.0004883-.0002441.0012207-.0002441.001709-.0003662l4.4150391 7.6539307-4.3791504 7.5826416-.0354004.0611572c-.0014648-.0004883-.0031738-.0004883-.0047607-.0009766-2.1184578-.5720634-4.2534122.7606697-4.7862549 2.7675781h-8.8515625l-6.0039064-10.4101563zm10.7216796 21.8300781c0-1.0478516.8525391-1.9003906 1.9003906-1.9003906 1.0504131 0 1.9003906.8541451 1.9003906 1.9003906 0 1.0725594-.8685741 1.8994141-1.9003906 1.8994141-1.0478515 0-1.9003906-.8525391-1.9003906-1.8994141zm21.1035157 10.4199219h-12.0361328l-4.4140625-7.6533203c.7480469-.7423973 1.1474609-1.8042336 1.1474609-2.7666016 0-1.0501366-.4660645-2.0816154-1.1484375-2.7624512-.0003662-.0003662-.0004883-.0007324-.0007324-.0009766l4.4160156-7.6467285h8.7849121c.6057205 1.8718681 2.6709671 3.1089554 4.7236328 2.5566406.001709-.0004883.0032959-.0004883.0048828-.0009766l4.5351563 7.8544922zm2.3564453-22.0400391c0 1.0671368-.8632393 1.8994141-1.8994141 1.8994141-.9960938 0-1.8271484-.7714844-1.8916016-1.7548828-.0019531-.0292969-.0048828-.1162109-.0087891-.1445313 0-1.0478516.8525391-1.9003906 1.9003906-1.9003906 1.0049516 0 1.8994142.8236885 1.8994142 1.9003906zm-.6816406-3.703125c-.0128174-.0042725-.0263672-.0056152-.0391846-.0096436-.2100258-.0673904-.7041359-.1876221-1.1785889-.1876221-1.7792702 0-3.4463959 1.2972221-3.8203125 3.1103516h-8.6721191l-4.4147949-7.6533203c.7358341-.7302761 1.1474609-1.7848635 1.1474609-2.7666016 0-1.0509777-.457098-2.0726681-1.1484375-2.7624512-.0004883-.0004883-.0006104-.0008545-.0009766-.0012207l4.4160156-7.6464844h12.0361328l6.0117188 10.4101563z"></path><path d="m41.2733154 31.9169922c-.4785156.2763672-.6425781.8876953-.3662109 1.3662109l2.4550781 4.2509766-3.7041016 6.4199219h-7.415039l-2.3359375-4.0488281c-.2763672-.4785156-.8896484-.6435547-1.3662109-.3662109-.4785156.2763672-.6425781.8876953-.3662109 1.3662109l2.625 4.5488281c.1787109.3095703.5087891.5.8662109.5h8.5693359c.3574219 0 .6875-.1904297.8662109-.5l4.28125-7.4199219c.1787109-.3095703.1787109-.6904297 0-1l-2.7431641-4.7509766c-.2773437-.4794922-.8906249-.6425781-1.3662109-.3662109z"></path><path d="m40.2362061 6.2939453h-8.5722656c-.3574219 0-.6875.1904297-.8662109.5l-2.625 4.5449219c-.2763672.4785156-.1123047 1.0898438.3662109 1.3662109.4765625.2753906 1.0888672.1123047 1.3662109-.3662109l2.3359375-4.0449219h7.4179688l3.7011719 6.4091797-2.2080078 3.8222656c-.2763672.4775391-.1123047 1.0898438.3662109 1.3662109.47686.2754536 1.0896263.1127205 1.3662109-.3662109l2.4970703-4.3222656c.1787109-.3095703.1787109-.6904297 0-1l-4.2792969-7.4091797c-.1787109-.3095703-.5087891-.5-.8662109-.5z"></path><path d="m11.8758545 34.5341797h5.2695313c.5527344 0 1-.4472656 1-1s-.4472656-1-1-1h-4.6914063l-3.6972656-6.4111328 3.6982422-6.4189453h4.6904297c.5527344 0 1-.4472656 1-1s-.4472656-1-1-1h-5.2685547c-.3574219 0-.6875.1914063-.8662109.5009766l-4.2744141 7.4189453c-.1787109.3085938-.1787109.6894531 0 .9990234l4.2734375 7.4111328c.1787109.3095703.508789.5.8662109.5z"></path></g></svg>