<svg xmlns="http://www.w3.org/2000/svg" width="60" height="60" viewBox="0 0 60 60" fill="none"><path d="M42.0552 24.3046C42.542 24.3046 42.9369 23.9097 42.9369 23.4229V9.86697H43.1383C45.6301 9.86697 47.657 7.85674 47.657 5.38561C47.657 2.91448 45.6301 0.904358 43.1383 0.904358H16.861C14.3693 0.904358 12.3418 2.91459 12.3418 5.38573C12.3418 7.85686 14.3693 9.86709 16.861 9.86709H17.0625V46.2821C17.0625 53.3775 22.8645 59.0958 29.9996 59.0958C37.1335 59.0958 42.9368 53.3476 42.9368 46.2821V28.7131C42.9368 28.2263 42.5418 27.8314 42.055 27.8314C41.5682 27.8314 41.1733 28.2263 41.1733 28.7131V46.2819C41.1733 52.3751 36.161 57.3322 29.9995 57.3322C23.8385 57.3322 18.8257 52.4009 18.8257 46.2819V9.86697H41.1732V23.4229C41.1734 23.9097 41.5684 24.3046 42.0552 24.3046ZM14.1052 5.38573C14.1052 3.88701 15.3417 2.6678 16.8611 2.6678H43.1384C44.6579 2.6678 45.8937 3.88701 45.8937 5.38573C45.8937 6.88444 44.6579 8.10366 43.1384 8.10366H16.861C15.3416 8.10366 14.1052 6.88444 14.1052 5.38573Z" fill="black"></path><path d="M36.043 14.7806C35.9765 14.2979 35.5316 13.966 35.0494 14.0269C34.5672 14.0935 34.2297 14.5383 34.2958 15.0206C34.6452 17.5647 32.5628 18.9557 30.0004 20.1607C27.438 18.9557 25.3555 17.5648 25.705 15.0206C25.771 14.5383 25.4335 14.0935 24.9514 14.0269C24.4697 13.9667 24.0237 14.2979 23.9577 14.7806C23.5128 18.023 25.7358 19.8959 27.9473 21.1076C27.8297 21.1676 27.7184 21.2274 27.6142 21.2876C22.3511 24.33 23.1184 29.2004 27.1733 31.6073C27.4714 31.7841 27.7743 31.9464 28.0771 32.1043C22.3719 35.4272 23.2499 40.4187 27.0132 42.9022C27.2799 43.0778 27.5925 43.2449 27.9305 43.4099C25.8955 44.5226 23.9154 46.1836 23.9146 49.0791C23.9146 49.5659 24.3089 49.9608 24.7963 49.9608C25.2831 49.9608 25.678 49.5665 25.678 49.0791C25.6785 46.7161 27.4983 45.5095 30.0001 44.3501C32.5023 45.5095 34.3221 46.7161 34.3227 49.0791C34.3227 49.5665 34.7176 49.9608 35.2044 49.9608C35.6918 49.9608 36.0862 49.5659 36.0862 49.0791C36.0853 46.1838 34.1053 44.5227 32.0703 43.4098C32.4082 43.2448 32.7208 43.0778 32.987 42.9022C36.6585 40.4806 37.7564 35.5019 31.9231 32.1043C32.2259 31.9463 32.5288 31.7841 32.8268 31.6073C36.8786 29.2022 37.6545 24.3313 32.386 21.2876C32.2819 21.2274 32.1708 21.1677 32.0534 21.1077C34.2649 19.8961 36.488 18.0231 36.043 14.7806ZM32.0158 41.4304C31.5773 41.7197 30.8844 42.0245 30.1513 42.3476C29.9691 42.4278 30.0398 42.4312 29.8489 42.347C29.1158 42.0244 28.423 41.7196 27.9844 41.4303C24.81 39.3363 24.4927 35.8568 30 33.0679C35.498 35.8522 35.0984 39.3968 32.0158 41.4304ZM30.1324 22.1602C30.6904 22.4082 31.172 22.6229 31.5038 22.8146C35.4755 25.1104 34.9266 28.3107 31.9268 30.0908C31.319 30.4518 30.6904 30.76 30.0245 31.0866C30.0164 31.0906 30.0082 31.0947 30.0001 31.0987C29.9921 31.0947 29.9839 31.0906 29.9758 31.0866C29.3099 30.76 28.6813 30.4518 28.0735 30.0908C25.1012 28.327 24.4869 25.1328 28.4965 22.8146C28.8289 22.6229 29.3105 22.4082 29.8684 22.1602C30.0282 22.0891 29.966 22.0861 30.1324 22.1602Z" fill="black"></path></svg>