<svg xmlns="http://www.w3.org/2000/svg" width="50" height="50" viewBox="0 0 50 50" fill="none"><rect width="50" height="50" rx="25" fill="#E3C577"></rect><path fill-rule="evenodd" clip-rule="evenodd" d="M25.2486 39.9827C23.3444 39.9827 21.5201 39.5042 19.8254 38.5571C17.1537 37.0717 15.0303 34.5296 13.8539 31.4093C13.7642 31.16 13.8838 30.8909 14.133 30.8012C14.3823 30.7114 14.6514 30.8311 14.7411 31.0803C15.8378 34.0012 17.8116 36.3639 20.2839 37.7397C21.8391 38.607 23.5139 39.0456 25.2485 39.0456C27.5713 39.0456 29.8144 38.2381 31.7284 36.7228C33.2338 35.5266 34.4799 33.9215 35.3373 32.0872C35.4469 31.8479 35.7261 31.7483 35.9653 31.8579C36.2046 31.9676 36.3043 32.2467 36.1946 32.486C35.2774 34.4598 33.9316 36.1745 32.3166 37.4605C30.2331 39.1054 27.7807 39.9827 25.2486 39.9827Z" fill="#273A2B"></path><path fill-rule="evenodd" clip-rule="evenodd" d="M37.0215 24.082C36.7922 24.082 36.5829 23.9125 36.553 23.6732C36.1542 20.8619 34.938 18.2201 33.1435 16.2463C32.9641 16.0568 32.984 15.7578 33.1734 15.5783C33.3628 15.3989 33.6619 15.4188 33.8413 15.6082C35.7654 17.7217 37.0614 20.533 37.4801 23.5337C37.5199 23.7929 37.3405 24.0321 37.0813 24.072C37.0614 24.082 37.0414 24.082 37.0215 24.082Z" fill="#273A2B"></path><path fill-rule="evenodd" clip-rule="evenodd" d="M25.1586 37.5503C21.4402 37.5503 18.0906 35.2075 16.4157 31.4292C16.306 31.19 16.4157 30.9109 16.655 30.8012C16.8942 30.6915 17.1733 30.8012 17.283 31.0405C18.8083 34.4698 21.8289 36.6032 25.1586 36.6032C28.3188 36.6032 31.2497 34.6393 32.8248 31.4791C32.9445 31.2498 33.2236 31.1501 33.4629 31.2698C33.6922 31.3894 33.7919 31.6685 33.6722 31.9078C31.9376 35.387 28.6677 37.5503 25.1586 37.5503Z" fill="#273A2B"></path><path fill-rule="evenodd" clip-rule="evenodd" d="M34.1501 24.0121C33.9407 24.0121 33.7413 23.8625 33.6915 23.6532C33.2229 21.7292 32.2958 20.0145 30.9998 18.7085C30.8204 18.5191 30.8204 18.22 30.9998 18.0406C31.1892 17.8611 31.4883 17.8611 31.6677 18.0406C33.0833 19.4761 34.1002 21.3403 34.6086 23.4339C34.6684 23.6831 34.5189 23.9423 34.2597 24.0021C34.2198 24.0021 34.1899 24.0121 34.1501 24.0121Z" fill="#273A2B"></path><path fill-rule="evenodd" clip-rule="evenodd" d="M30.8701 18.8782C29.1554 18.8782 27.7598 17.4825 27.7598 15.7678C27.7598 14.0531 29.1554 12.6575 30.8701 12.6575C32.5848 12.6575 33.9805 14.0531 33.9805 15.7678C33.9805 17.4825 32.5848 18.8782 30.8701 18.8782ZM30.8701 13.6045C29.6739 13.6045 28.7068 14.5715 28.7068 15.7678C28.7068 16.9641 29.6738 17.9311 30.8701 17.9311C32.0664 17.9311 33.0334 16.9642 33.0334 15.7678C33.0334 14.5815 32.0565 13.6045 30.8701 13.6045Z" fill="#273A2B"></path><path fill-rule="evenodd" clip-rule="evenodd" d="M20.2539 31.7082H10.4642C9.42745 31.7082 8.58008 30.8609 8.58008 29.8241V29.216C8.58008 28.1792 9.42745 27.3318 10.4642 27.3318L20.2539 27.3318C21.2907 27.3318 22.138 28.1792 22.138 29.2159V29.824C22.138 30.8708 21.3006 31.7082 20.2539 31.7082ZM10.4642 28.2888C9.93588 28.2888 9.52715 28.6976 9.52715 29.2259V29.834C9.52715 30.3624 9.93588 30.7711 10.4642 30.7711L20.2539 30.7711C20.7723 30.7711 21.191 30.3524 21.191 29.834V29.2259C21.191 28.6976 20.7822 28.2889 20.2539 28.2889L10.4642 28.2888Z" fill="#273A2B"></path><path fill-rule="evenodd" clip-rule="evenodd" d="M20.8315 22.6963C20.8216 22.6963 20.8016 22.6963 20.7917 22.6963C20.6621 22.6863 20.5524 22.6266 20.4727 22.5269L19.9642 21.9287L17.7212 19.3068L17.2427 18.7585C17.1629 18.6588 17.123 18.5392 17.123 18.4096C17.133 18.28 17.1928 18.1703 17.2825 18.0806L30.342 6.88534C30.4417 6.8056 30.5613 6.76572 30.6909 6.77567C30.8205 6.78564 30.9302 6.84544 31.0099 6.93516L34.2399 10.7135C34.3197 10.8132 34.3595 10.9328 34.3496 11.0624C34.3396 11.192 34.2798 11.3016 34.1901 11.3814L31.6779 13.5447C31.4785 13.7141 31.1794 13.6942 31.01 13.4948C30.8405 13.2954 30.8604 12.9964 31.0598 12.8269L33.2131 10.9726L33.0137 10.7434L30.5913 7.91213L18.2496 18.4893L18.419 18.6787L20.8714 21.5498L27.9096 15.5185C28.109 15.3491 28.408 15.369 28.5775 15.5684C28.747 15.7678 28.727 16.0668 28.5277 16.2363L21.1207 22.5766C21.0509 22.6564 20.9412 22.6963 20.8315 22.6963Z" fill="#273A2B"></path><path fill-rule="evenodd" clip-rule="evenodd" d="M18.809 23.3941C18.6794 23.3941 18.5399 23.3342 18.4501 23.2246L16.1971 20.6127C16.1174 20.513 16.0775 20.3934 16.0874 20.2638C16.0974 20.1342 16.1572 20.0245 16.2469 19.9448L17.7722 18.6388C17.9716 18.4693 18.2707 18.4893 18.4401 18.6887C18.6096 18.888 18.5897 19.1871 18.3903 19.3566L17.2239 20.3535L18.8588 22.2476L20.0152 21.2507C20.2146 21.0812 20.5137 21.1012 20.6832 21.3006C20.8526 21.5 20.8327 21.799 20.6333 21.9685L19.118 23.2645C19.0283 23.3542 18.9187 23.3941 18.809 23.3941Z" fill="#273A2B"></path><path fill-rule="evenodd" clip-rule="evenodd" d="M33.3826 10.9128C33.253 10.9128 33.1134 10.853 33.0237 10.7433C32.8542 10.5439 32.8742 10.2449 33.0735 10.0754L34.2399 9.07847L32.605 7.17436L31.4486 8.17128C31.2492 8.34074 30.9501 8.32082 30.7806 8.12143C30.6112 7.92203 30.6311 7.62297 30.8305 7.4535L32.3458 6.14755C32.4455 6.0678 32.5651 6.02793 32.6947 6.03788C32.8243 6.04785 32.934 6.10765 33.0137 6.19737L35.2667 8.81926C35.3465 8.91895 35.3864 9.03857 35.3764 9.16817C35.3664 9.29776 35.3066 9.40743 35.2169 9.48718L33.6916 10.7931C33.6019 10.8729 33.4923 10.9128 33.3826 10.9128Z" fill="#273A2B"></path><path fill-rule="evenodd" clip-rule="evenodd" d="M36.295 42.9634H15.0908C14.8914 42.9634 14.7119 42.8437 14.6521 42.6543C14.5824 42.4649 14.6322 42.2655 14.7817 42.1359L19.7463 37.7894C19.9457 37.62 20.2448 37.6399 20.4142 37.8293C20.5837 38.0287 20.5638 38.3278 20.3744 38.4972L16.3668 42.0063L35.2682 42.0063L31.4201 37.6199C31.2506 37.4205 31.2705 37.1215 31.46 36.952C31.6594 36.7825 31.9584 36.8025 32.1279 36.9919L36.6738 42.1658C36.7934 42.3054 36.8234 42.5048 36.7536 42.6743C36.6539 42.8537 36.4845 42.9634 36.295 42.9634Z" fill="#273A2B"></path><path fill-rule="evenodd" clip-rule="evenodd" d="M35.4664 32.755C32.7348 32.755 30.5117 30.5319 30.5117 27.8004C30.5117 25.0688 32.7348 22.8457 35.4664 22.8457C38.1979 22.8457 40.421 25.0688 40.421 27.8004C40.421 30.5319 38.1979 32.755 35.4664 32.755ZM35.4664 23.8028C33.2532 23.8028 31.4588 25.5972 31.4588 27.8104C31.4588 30.0235 33.2532 31.818 35.4664 31.818C37.6795 31.818 39.474 30.0235 39.474 27.8104C39.474 25.5972 37.6795 23.8028 35.4664 23.8028Z" fill="#273A2B"></path><path fill-rule="evenodd" clip-rule="evenodd" d="M34.0806 29.9039C34.0407 29.9039 33.9909 29.8939 33.951 29.8839C33.8015 29.8441 33.6918 29.7344 33.642 29.5849L32.8644 27.3418C32.7747 27.0926 32.9043 26.8234 33.1535 26.7437C33.4027 26.6539 33.6719 26.7835 33.7517 27.0328L34.3199 28.6478L37.9386 25.8066C38.148 25.6471 38.4371 25.677 38.6066 25.8863C38.7661 26.0957 38.7362 26.3848 38.5268 26.5542L34.3797 29.8042C34.29 29.874 34.1903 29.9039 34.0806 29.9039Z" fill="#273A2B"></path><path fill-rule="evenodd" clip-rule="evenodd" d="M20.3231 18.8783C20.1935 18.8783 20.054 18.8184 19.9642 18.7088C19.7948 18.5094 19.8147 18.2103 20.0141 18.0409L25.4373 13.4252C25.6367 13.2557 25.9357 13.2756 26.1052 13.475C26.2747 13.6744 26.2547 13.9735 26.0553 14.143L20.6322 18.7586C20.5424 18.8384 20.4328 18.8783 20.3231 18.8783Z" fill="#273A2B"></path></svg>