<svg xmlns="http://www.w3.org/2000/svg" width="50" height="50" viewBox="0 0 50 50" fill="none"><rect width="50" height="50" rx="25" fill="#273A2B"></rect><path d="M25.0416 18.5336C23.7809 18.9322 22.334 17.9112 22.334 17.9112C22.334 17.9112 22.9313 16.2441 24.192 15.8456C25.4528 15.4471 26.8997 16.4681 26.8997 16.4681C26.8997 16.4681 26.3024 18.1351 25.0416 18.5336Z" stroke="white" stroke-miterlimit="10" stroke-linecap="round" stroke-linejoin="round"></path><path d="M20.2202 16.028C20.6187 17.2888 22.2858 17.886 22.2858 17.886C22.2858 17.886 23.3067 16.4391 22.9082 15.1784C22.5097 13.9176 20.8427 13.3203 20.8427 13.3203C20.8427 13.3203 19.8217 14.7672 20.2202 16.028Z" stroke="white" stroke-miterlimit="10" stroke-linecap="round" stroke-linejoin="round"></path><path d="M22.3089 17.8986L20.8896 20.6298" stroke="white" stroke-miterlimit="10" stroke-linecap="round" stroke-linejoin="round"></path><path d="M21.6856 24.9691C22.0841 26.2299 21.0631 27.6768 21.0631 27.6768C21.0631 27.6768 19.396 27.0795 18.9976 25.8188C18.5991 24.558 19.62 23.1111 19.62 23.1111C19.62 23.1111 21.2871 23.7083 21.6856 24.9691Z" stroke="white" stroke-miterlimit="10" stroke-linecap="round" stroke-linejoin="round"></path><path d="M19.1813 29.7908C20.4421 29.3923 21.0393 27.7253 21.0393 27.7253C21.0393 27.7253 19.5924 26.7043 18.3317 27.1028C17.0709 27.5013 16.4736 29.1683 16.4736 29.1683C16.4736 29.1683 17.9205 30.1893 19.1813 29.7908Z" stroke="white" stroke-miterlimit="10" stroke-linecap="round" stroke-linejoin="round"></path><path d="M21.0518 27.701L23.783 29.1203" stroke="white" stroke-miterlimit="10" stroke-linecap="round" stroke-linejoin="round"></path><path d="M29.7686 22.0413L35.9223 15.8875L39.5029 19.4681L33.3491 25.6218L29.7686 22.0413Z" stroke="white" stroke-miterlimit="10" stroke-linecap="round" stroke-linejoin="round"></path><path d="M30.8436 23.1111L28.5459 25.4089L29.9852 26.8481L32.2829 24.5504" stroke="white" stroke-miterlimit="10" stroke-linecap="round" stroke-linejoin="round"></path><path d="M38.5066 18.3258L39.822 17.0104L38.3828 15.5711L37.0674 16.8865" stroke="white" stroke-miterlimit="10" stroke-linecap="round" stroke-linejoin="round"></path><path d="M23.5156 35.7243V32.4116C23.5156 31.8299 23.9871 31.3584 24.5688 31.3584H30.1854C33.0004 30.9641 35.1668 28.5468 35.1668 25.6232C35.1668 25.1914 35.1196 24.7707 35.03 24.366" stroke="white" stroke-miterlimit="10" stroke-linecap="round" stroke-linejoin="round"></path><path d="M37.8746 21.5203C38.4745 22.7609 38.8108 24.1528 38.8108 25.6232C38.8108 27.9139 37.9942 30.0137 36.6367 31.6482V35.7243" stroke="white" stroke-miterlimit="10" stroke-linecap="round" stroke-linejoin="round"></path><path d="M36.6369 35.8556H38.0148C39.1114 35.8556 40.0003 36.7445 40.0003 37.8411V38.1692H19.7578V37.8411C19.7578 36.7445 20.6468 35.8556 21.7433 35.8556H32.2821" stroke="white" stroke-miterlimit="10" stroke-linecap="round" stroke-linejoin="round"></path><path d="M16.7119 34.4595C12.678 31.8984 10.001 27.3918 10.001 22.2598C10.001 14.2847 16.4662 7.81949 24.4413 7.81949C28.9274 7.81949 32.9357 9.8651 35.5843 13.0745" stroke="white" stroke-miterlimit="10" stroke-linecap="round" stroke-linejoin="round"></path><path d="M14.4033 16.5089C14.0631 17.0979 13.8294 17.9698 13.8027 18.6018" stroke="white" stroke-miterlimit="10" stroke-linecap="round" stroke-linejoin="round"></path><path d="M26.3387 23.7034C25.8902 23.1919 25.1397 22.6903 24.5498 22.462" stroke="white" stroke-miterlimit="10" stroke-linecap="round" stroke-linejoin="round"></path><path d="M28.8633 13.7743C29.5266 13.6235 30.325 13.2024 30.8067 12.7924" stroke="white" stroke-miterlimit="10" stroke-linecap="round" stroke-linejoin="round"></path><path d="M18.4844 32.795C19.153 32.9202 20.053 32.8512 20.658 32.6664" stroke="white" stroke-miterlimit="10" stroke-linecap="round" stroke-linejoin="round"></path><path d="M14.6924 22.1015C15.3609 21.9759 16.1747 21.5853 16.6716 21.1939" stroke="white" stroke-miterlimit="10" stroke-linecap="round" stroke-linejoin="round"></path><path d="M25.1081 27.3942C25.5108 27.3942 25.8373 27.0677 25.8373 26.665C25.8373 26.2622 25.5108 25.9358 25.1081 25.9358C24.7054 25.9358 24.3789 26.2622 24.3789 26.665C24.3789 27.0677 24.7054 27.3942 25.1081 27.3942Z" fill="white"></path><path d="M13.3249 26.6649C13.7276 26.6649 14.0541 26.3384 14.0541 25.9357C14.0541 25.533 13.7276 25.2065 13.3249 25.2065C12.9222 25.2065 12.5957 25.533 12.5957 25.9357C12.5957 26.3384 12.9222 26.6649 13.3249 26.6649Z" fill="white"></path><path d="M17.2898 17.8969C17.6925 17.8969 18.019 17.5704 18.019 17.1677C18.019 16.7649 17.6925 16.4384 17.2898 16.4384C16.887 16.4384 16.5605 16.7649 16.5605 17.1677C16.5605 17.5704 16.887 17.8969 17.2898 17.8969Z" fill="white"></path><path d="M17.2898 13.3204C17.6925 13.3204 18.019 12.9939 18.019 12.5911C18.019 12.1884 17.6925 11.8619 17.2898 11.8619C16.887 11.8619 16.5605 12.1884 16.5605 12.5911C16.5605 12.9939 16.887 13.3204 17.2898 13.3204Z" fill="white"></path><path d="M24.6706 10.6678C25.0733 10.6678 25.3998 10.3414 25.3998 9.93862C25.3998 9.53589 25.0733 9.20941 24.6706 9.20941C24.2679 9.20941 23.9414 9.53589 23.9414 9.93862C23.9414 10.3414 24.2679 10.6678 24.6706 10.6678Z" fill="white"></path><path d="M30.7985 17.505C31.2013 17.505 31.5278 17.1785 31.5278 16.7758C31.5278 16.3731 31.2013 16.0466 30.7985 16.0466C30.3958 16.0466 30.0693 16.3731 30.0693 16.7758C30.0693 17.1785 30.3958 17.505 30.7985 17.505Z" fill="white"></path></svg>