<svg xmlns="http://www.w3.org/2000/svg" id="Layer_1" height="512" viewBox="0 0 66 66" width="512"><g><path d="m34.27 14.15c0-2.23-1.81-4.04-4.04-4.04s-4.04 1.81-4.04 4.04 1.81 4.04 4.04 4.04 4.04-1.81 4.04-4.04zm-4.04 2.54c-1.4 0-2.54-1.14-2.54-2.54s1.14-2.54 2.54-2.54 2.54 1.14 2.54 2.54-1.14 2.54-2.54 2.54z"></path><path d="m32.53 22.48.19-1.41c.22-.08.43-.17.64-.26l1.13.86c.51.39 1.24.34 1.7-.12l1.44-1.44c.46-.46.5-1.19.11-1.7l-.86-1.13c.1-.21.18-.42.26-.64l1.41-.19c.64-.09 1.12-.64 1.12-1.28v-2.03c0-.64-.48-1.2-1.12-1.28l-1.41-.19c-.08-.22-.17-.43-.26-.64l.86-1.13c.39-.51.34-1.24-.11-1.7l-1.44-1.44c-.46-.46-1.18-.51-1.7-.11l-1.13.85c-.21-.1-.42-.18-.64-.26l-.19-1.41c-.09-.64-.64-1.12-1.28-1.12h-2.03c-.64 0-1.19.48-1.28 1.12l-.19 1.41c-.22.08-.43.17-.64.26l-1.13-.86c-.51-.39-1.24-.34-1.7.11l-1.44 1.44c-.46.46-.5 1.19-.12 1.7l.86 1.13c-.1.21-.19.42-.26.64l-1.41.19c-.64.08-1.12.64-1.12 1.28v2.03c0 .65.48 1.2 1.12 1.28l1.41.19c.08.22.17.43.26.64l-.86 1.13c-.39.51-.34 1.24.12 1.7l1.44 1.44c.45.45 1.18.5 1.7.12l1.13-.86c.21.1.42.19.64.26l.19 1.41c.09.64.64 1.12 1.28 1.12h2.03c.64.01 1.2-.47 1.28-1.11zm-3.13-.38-.23-1.7c-.04-.3-.25-.54-.54-.62-.44-.12-.85-.29-1.24-.51-.26-.14-.58-.12-.82.06l-1.36 1.04-1.18-1.18 1.04-1.36c.18-.24.2-.56.06-.82-.22-.39-.39-.8-.51-1.24-.08-.29-.33-.5-.62-.54l-1.7-.23v-1.67l1.7-.23c.3-.04.54-.25.62-.54.12-.44.3-.85.51-1.24.15-.26.12-.58-.06-.82l-1.04-1.36 1.18-1.18 1.36 1.04c.24.18.56.2.82.06.38-.21.8-.39 1.24-.51.29-.08.5-.33.54-.62l.23-1.7h1.67l.23 1.7c.04.3.25.54.54.62.44.12.86.3 1.24.51.26.14.58.12.82-.06l1.36-1.04 1.18 1.18-1.04 1.36c-.18.24-.2.56-.06.82.21.38.38.8.51 1.24.08.29.33.5.62.54l1.7.23v1.67l-1.7.23c-.29.04-.54.25-.62.54-.13.44-.3.86-.51 1.24-.15.26-.12.58.06.82l1.04 1.36-1.18 1.18-1.36-1.04c-.24-.18-.56-.2-.82-.06-.38.21-.8.39-1.24.51-.29.08-.5.33-.54.62l-.23 1.7z"></path><path d="m26.44 46.21h-18.83c-.41 0-.75.34-.75.75v5.87c0 .41.34.75.75.75h18.83c.41 0 .75-.34.75-.75v-5.87c0-.41-.34-.75-.75-.75zm-.75 5.87h-17.33v-4.37h17.33z"></path><path d="m55.63 34.74c-1.92-1.23-3.07-3.25-3.07-5.41v-3.57c1.39-.13 2.48-1.29 2.48-2.71 0-1.51-1.23-2.73-2.73-2.73h-5.88v-16.32c0-1.52-1.23-2.75-2.75-2.75h-28.9c-.2 0-.39.08-.53.22l-11.17 11.17c-.14.14-.22.33-.22.53v41.66c0 1.52 1.23 2.75 2.75 2.75h27.81c2.81 4.08 7.42 6.88 12.58 7.15.29.01.58.02.86.02 4.2 0 8.15-1.57 11.21-4.48 3.27-3.11 5.07-7.3 5.07-11.81 0-5.58-2.81-10.71-7.51-13.72zm-.81 1.26c3.25 2.08 5.5 5.28 6.39 8.92-2.02.38-3.29 1.39-4.42 2.29-1.36 1.09-2.65 2.12-5.24 2.12s-3.88-1.03-5.24-2.12c-1.44-1.15-3.06-2.45-6.18-2.45s-4.75 1.3-6.18 2.45c-.61.49-1.2.95-1.88 1.32-.02-5.1 2.57-9.86 6.9-12.59 2.3-1.45 3.67-3.86 3.67-6.44v-3.71h8.44v3.54c-.02 2.67 1.39 5.16 3.74 6.67zm-1.27-12.95c0 .68-.55 1.23-1.23 1.23h-10.94c-.68 0-1.23-.55-1.23-1.23s.55-1.23 1.23-1.23h10.94c.67 0 1.23.55 1.23 1.23zm-39.52-19.24v7.36c0 .69-.56 1.25-1.25 1.25h-7.36zm-8.42 52.27c-.69 0-1.25-.56-1.25-1.25v-40.91h8.42c1.52 0 2.75-1.23 2.75-2.75v-8.42h28.16c.69 0 1.25.56 1.25 1.25v16.32h-3.56c-1.51 0-2.73 1.23-2.73 2.73 0 1.42 1.09 2.58 2.48 2.71v3.74c0 2.07-1.11 4-2.97 5.18-5.06 3.19-7.96 8.9-7.56 14.89.15 2.33.84 4.54 1.91 6.52h-26.9zm51.43 3.1c-2.97 2.82-6.87 4.26-10.97 4.05-7.13-.36-13.1-6.06-13.9-13.09 1.08-.48 1.92-1.12 2.71-1.76 1.36-1.09 2.65-2.12 5.25-2.12s3.88 1.03 5.24 2.12c1.44 1.15 3.06 2.45 6.18 2.45s4.74-1.3 6.18-2.44c1.08-.86 2.11-1.68 3.77-1.99.09.68.15 1.36.15 2.06-.01 4.09-1.64 7.9-4.61 10.72z"></path><path d="m52.73 39.27c1.34.86 2.3 1.76 2.92 2.74.14.23.39.35.64.35.14 0 .27-.04.4-.11.35-.22.46-.68.24-1.03-.74-1.18-1.84-2.23-3.38-3.21-.35-.22-.81-.12-1.04.23-.23.34-.13.81.22 1.03z"></path><path d="m26.44 26.83h-18.83c-.41 0-.75.34-.75.75s.34.75.75.75h18.83c.41 0 .75-.34.75-.75s-.34-.75-.75-.75z"></path><path d="m26.44 31.55h-18.83c-.41 0-.75.34-.75.75s.34.75.75.75h18.83c.41 0 .75-.34.75-.75s-.34-.75-.75-.75z"></path><path d="m7.61 37.78h11.59c.41 0 .75-.34.75-.75s-.34-.75-.75-.75h-11.59c-.41 0-.75.34-.75.75s.33.75.75.75z"></path><path d="m7.61 42.51h11.59c.41 0 .75-.34.75-.75s-.34-.75-.75-.75h-11.59c-.41 0-.75.34-.75.75s.33.75.75.75z"></path></g></svg>