<svg xmlns="http://www.w3.org/2000/svg" id="Layer_5" height="512" viewBox="0 0 64 64" width="512"><g><path d="m53.57 17.595c-.869-2.358-2.977-4.126-5.571-4.512.001-.028.001-.056.001-.083 0-4.411-3.589-8-8-8-1.383 0-2.685.353-3.821.973-2.024-3.083-5.441-4.973-9.179-4.973-6.065 0-11 4.935-11 11 0 .358.025.715.06 1.071-2.597.351-4.742 2.129-5.623 4.519-5.828 3.402-9.437 9.65-9.437 16.41v7.721l3.05 1.017.688 9.619c.185 2.603 2.375 4.643 4.987 4.643h1.275v6h42v-6h1.275c2.611 0 4.802-2.04 4.987-4.644l.688-9.619 3.05-1.016v-7.721c0-6.774-3.602-13-9.43-16.405zm-36.57-2.595c2.757 0 5 2.243 5 5h2c0-3.495-2.578-6.392-5.93-6.909-.044-.362-.07-.726-.07-1.091 0-4.962 4.037-9 9-9 3.091 0 5.912 1.58 7.56 4.151-1.57 1.461-2.56 3.539-2.56 5.849h2c0-3.309 2.691-6 6-6s6 2.691 6 6c0 .253-.022.528-.07.863l-.082 1.137h1.152c2.757 0 5 2.243 5 5s-2.243 5-5 5h-30c-2.757 0-5-2.243-5-5s2.243-5 5-5zm-10.783 30h5.783c2.415 0 4.435 1.721 4.899 4h-10.397zm51.281 4h-10.397c.465-2.279 2.484-4 4.899-4h5.783zm3.502-8.721-2.95.983-.124 1.738h-5.926c-3.859 0-7 3.141-7 7v1h12.355l-.087 1.214c-.112 1.562-1.426 2.786-2.993 2.786h-6.275c-3.859 0-7-3.141-7-7v-1h-2v1c0 4.963 4.037 9 9 9h3v4h-18v-16h-2v16h-18v-4h3c4.963 0 9-4.037 9-9v-1h-2v1c0 3.859-3.141 7-7 7h-6.275c-1.566 0-2.881-1.224-2.993-2.786l-.087-1.214h12.355v-1c0-3.859-3.141-7-7-7h-5.926l-.124-1.737-2.95-.984v-6.279c0-5.475 2.645-10.574 7.013-13.751.132 3.744 3.212 6.751 6.987 6.751h14v3c0 .551-.448 1-1 1h-5c-1.654 0-3 1.346-3 3s1.346 3 3 3h5c.552 0 1 .448 1 1v1h2v-1c0-1.654-1.346-3-3-3h-5c-.552 0-1-.448-1-1s.448-1 1-1h5c1.654 0 3-1.346 3-3v-3h14c3.777 0 6.858-3.01 6.988-6.756 4.371 3.175 7.012 8.267 7.012 13.756z"></path><path d="m50 32c-2.71 0-5-1.374-5-3h-2c0 2.804 3.075 5 7 5s7-2.196 7-5h-2c0 1.626-2.29 3-5 3z"></path><path d="m14 32c-2.71 0-5-1.374-5-3h-2c0 2.804 3.075 5 7 5s7-2.196 7-5h-2c0 1.626-2.29 3-5 3z"></path><path d="m31 41h2v2h-2z"></path></g></svg>