<svg xmlns="http://www.w3.org/2000/svg" width="72" height="73" viewBox="0 0 72 73" fill="none"><path d="M14.5957 27.8813V29.7255H18.2942V27.8813C18.2942 23.4553 21.068 19.5825 24.1008 19.5825H25.95V15.8941H24.1008C18.9414 15.8941 14.5957 21.3898 14.5957 27.8813Z" fill="#273A2B"></path><path d="M47.6227 9.32422C45.6651 9.3492 43.7319 9.76143 41.9352 10.537C40.1386 11.3126 38.5141 12.4361 37.1561 13.8425C36.8104 14.1804 36.3456 14.3696 35.8616 14.3696C35.3776 14.3696 34.9128 14.1804 34.5671 13.8425C33.2091 12.4361 31.5846 11.3126 29.788 10.537C27.9913 9.76143 26.0581 9.3492 24.1005 9.32422C15.2796 9.32422 8.12308 17.5862 8.12308 27.766C8.11923 29.8404 8.42461 31.9039 9.02921 33.8887C10.5754 39.7815 14.191 44.9251 19.2185 48.384C19.2185 52.786 20.972 57.0076 24.0931 60.1203C27.2143 63.233 31.4476 64.9816 35.8616 64.9816C40.2756 64.9816 44.5089 63.233 47.6301 60.1203C50.7513 57.0076 52.5047 52.786 52.5047 48.384C57.5261 44.9435 61.1419 39.8193 62.694 33.9441C63.3035 31.9414 63.6089 29.8589 63.6001 27.766C63.6001 17.5862 56.4436 9.32422 47.6227 9.32422ZM35.8616 60.9613C32.4285 60.9613 29.136 59.6012 26.7084 57.1803C24.2808 54.7593 22.917 51.4758 22.917 48.052C22.9295 46.7206 23.2741 45.4132 23.9198 44.2477C24.5654 43.0822 25.4918 42.0954 26.6154 41.3761C30.58 38.6679 33.7671 34.9746 35.8616 30.6614C37.9561 34.9746 41.1432 38.6679 45.1078 41.3761C46.2314 42.0954 47.1578 43.0822 47.8035 44.2477C48.4491 45.4132 48.7937 46.7206 48.8062 48.052C48.8062 51.4758 47.4424 54.7593 45.0149 57.1803C42.5873 59.6012 39.2947 60.9613 35.8616 60.9613ZM59.125 32.9298C57.9745 37.4155 55.4228 41.42 51.839 44.3637C50.9408 41.8983 49.2588 39.7935 47.0495 38.3701C40.3922 33.9994 37.7108 25.4608 37.7108 25.3686C37.7108 24.8795 37.516 24.4104 37.1692 24.0646C36.8224 23.7187 36.3521 23.5244 35.8616 23.5244C35.3712 23.5244 34.9008 23.7187 34.554 24.0646C34.2072 24.4104 34.0124 24.8795 34.0124 25.3686C34.0124 25.4608 31.257 33.9994 24.5998 38.2779C22.4022 39.7369 20.7456 41.8749 19.8842 44.3637C16.3036 41.4215 13.747 37.4261 12.5797 32.9482C12.0656 31.269 11.81 29.5217 11.8216 27.766C11.8216 19.6332 17.3693 13.0126 24.1005 13.0126C25.5701 13.0379 27.02 13.3542 28.366 13.943C29.712 14.5319 30.9273 15.3816 31.9412 16.4428C32.9995 17.4442 34.4027 18.0024 35.8616 18.0024C37.3205 18.0024 38.7237 17.4442 39.782 16.4428C40.7959 15.3816 42.0112 14.5319 43.3572 13.943C44.7032 13.3542 46.1531 13.0379 47.6227 13.0126C54.354 13.0126 59.9017 19.6332 59.9017 27.766C59.9015 29.5162 59.6397 31.2566 59.125 32.9298Z" fill="#273A2B"></path><path d="M35.8618 42.6348C34.3988 42.6348 32.9687 43.0674 31.7523 43.878C30.5358 44.6885 29.5878 45.8406 29.0279 47.1885C28.468 48.5365 28.3216 50.0197 28.607 51.4506C28.8924 52.8816 29.5969 54.196 30.6314 55.2276C31.6658 56.2593 32.9839 56.9618 34.4187 57.2465C35.8536 57.5311 37.3409 57.385 38.6925 56.8267C40.0441 56.2684 41.1993 55.3229 42.0121 54.1098C42.8249 52.8967 43.2587 51.4705 43.2587 50.0115C43.2587 48.0551 42.4794 46.1788 41.0922 44.7954C39.705 43.412 37.8236 42.6348 35.8618 42.6348ZM35.8618 53.6999C35.1303 53.6999 34.4152 53.4835 33.807 53.0783C33.1988 52.673 32.7248 52.0969 32.4448 51.423C32.1649 50.749 32.0917 50.0074 32.2344 49.2919C32.3771 48.5765 32.7293 47.9193 33.2466 47.4034C33.7638 46.8876 34.4228 46.5363 35.1403 46.394C35.8577 46.2517 36.6013 46.3247 37.2771 46.6039C37.9529 46.8831 38.5306 47.3558 38.937 47.9623C39.3433 48.5689 39.5603 49.282 39.5603 50.0115C39.5603 50.9897 39.1706 51.9279 38.477 52.6196C37.7834 53.3113 36.8427 53.6999 35.8618 53.6999Z" fill="#273A2B"></path></svg>