<svg xmlns="http://www.w3.org/2000/svg" width="50" height="50" viewBox="0 0 50 50" fill="none"><rect width="50" height="50" rx="5" fill="#273A2B"></rect><path d="M13.5336 15.2711C13.5336 17.9586 11.5371 19.904 9.07445 19.904C6.61179 19.904 4.61523 17.9586 4.61523 15.2711C4.61523 12.5836 7.0733 7.16357 9.07437 7.16357C11.0754 7.16357 13.5336 12.5836 13.5336 15.2711Z" stroke="white" stroke-miterlimit="10" stroke-linecap="round" stroke-linejoin="round"></path><path d="M9.07422 7.16333C9.93186 7.16333 10.9853 12.5834 10.9853 15.2709C10.9853 17.9584 10.1297 19.9038 9.07422 19.9038" stroke="white" stroke-miterlimit="10" stroke-linecap="round" stroke-linejoin="round"></path><path d="M7.20483 14.2361C7.17834 14.6095 7.16406 14.9587 7.16406 15.2711C7.16406 17.9586 8.01965 19.904 9.07514 19.904" stroke="white" stroke-miterlimit="10" stroke-linecap="round" stroke-linejoin="round"></path><path d="M9.07491 7.16333C8.55262 7.16333 7.95765 9.17383 7.57227 11.3531" stroke="white" stroke-miterlimit="10" stroke-linecap="round" stroke-linejoin="round"></path><path d="M7.16406 39.6516L8.85727 38.8051C10.1738 38.1469 11.742 38.2445 12.9667 39.0609C14.1676 39.8615 15.5785 40.2887 17.0218 40.2887H19.8198" stroke="white" stroke-miterlimit="10" stroke-linecap="round" stroke-linejoin="round"></path><path d="M33.7515 19.6672C32.1137 16.5789 29.8944 14.022 27.5479 12.8886C26.7079 12.4829 25.8516 12.2595 24.9998 12.2595C24.148 12.2595 23.2917 12.4828 22.4517 12.8886C20.1051 14.022 17.8859 16.5789 16.248 19.6672" stroke="white" stroke-miterlimit="10" stroke-linecap="round" stroke-linejoin="round"></path><path d="M11.0039 38.3839C11.0721 37.2195 11.3285 36.0743 11.7626 34.9929" stroke="white" stroke-miterlimit="10" stroke-linecap="round" stroke-linejoin="round"></path><path d="M42.8373 39.6516L41.1441 38.8051C39.8276 38.1469 38.2594 38.2445 37.0347 39.0609C35.8338 39.8615 34.4229 40.2887 32.9796 40.2887H30.1816" stroke="white" stroke-miterlimit="10" stroke-linecap="round" stroke-linejoin="round"></path><path d="M38.997 38.3839C38.9288 37.2195 38.6724 36.0743 38.2383 34.9929" stroke="white" stroke-miterlimit="10" stroke-linecap="round" stroke-linejoin="round"></path><path d="M16.2482 19.6672L12.9914 22.2303C7.70256 26.3926 4.61523 32.751 4.61523 39.4813V42.4266C4.61523 42.6531 4.7989 42.8368 5.02539 42.8368H5.52266C6.42878 42.8368 7.16329 42.1023 7.16329 41.1962V38.6441C7.16329 34.9671 9.24073 31.6057 12.5296 29.9613L15.4278 28.5122C17.8708 27.2906 19.9251 25.4303 21.3809 23.1418C19.3627 22.4707 17.5933 21.2548 16.2482 19.6672Z" stroke="white" stroke-miterlimit="10" stroke-linecap="round" stroke-linejoin="round"></path><path d="M33.7518 19.6672L37.0086 22.2303C42.2974 26.3926 45.3848 32.751 45.3848 39.4813V42.4266C45.3848 42.6531 45.2011 42.8368 44.9746 42.8368H44.4773C43.5712 42.8368 42.8367 42.1023 42.8367 41.1962V38.6441C42.8367 34.9671 40.7593 31.6057 37.4704 29.9613L34.5722 28.5122C32.1292 27.2906 30.0749 25.4303 28.6191 23.1418C30.6373 22.4707 32.4067 21.2548 33.7518 19.6672Z" stroke="white" stroke-miterlimit="10" stroke-linecap="round" stroke-linejoin="round"></path><path d="M25.8065 27.7235V30.6928C25.8065 31.0326 26.082 31.3081 26.4218 31.3081H27.5882C27.7257 31.3081 27.8095 31.4593 27.7367 31.5759L24.7317 36.3838C24.6385 36.5329 24.4082 36.4669 24.4082 36.291V33.3216C24.4082 32.9818 24.1327 32.7064 23.7929 32.7064H22.6265C22.489 32.7064 22.4052 32.5551 22.478 32.4385L25.483 27.6306C25.5762 27.4816 25.8065 27.5476 25.8065 27.7235Z" stroke="white" stroke-miterlimit="10" stroke-linecap="round" stroke-linejoin="round"></path><path d="M43.0102 17.5432C42.0663 18.2268 40.9058 18.6298 39.6512 18.6298C36.4848 18.6298 33.918 16.063 33.918 12.8966C33.918 9.73017 36.4848 7.16333 39.6512 7.16333C42.8176 7.16333 45.3844 9.73025 45.3844 12.8966C45.3844 13.748 45.1987 14.5561 44.8659 15.2826" stroke="white" stroke-miterlimit="10" stroke-linecap="round" stroke-linejoin="round"></path><path d="M42.837 12.8965C42.837 12.657 42.4034 12.436 41.8504 12.2584C41.1108 12.0209 40.5275 11.4376 40.29 10.698C40.1124 10.145 39.8915 9.71143 39.6519 9.71143C39.4123 9.71143 39.1914 10.145 39.0138 10.698C38.7762 11.4376 38.193 12.0209 37.4534 12.2584C36.9004 12.436 36.4668 12.6569 36.4668 12.8965C36.4668 13.1361 36.9004 13.3571 37.4534 13.5347C38.193 13.7721 38.7763 14.3555 39.0138 15.0951C39.1914 15.648 39.4123 16.0816 39.6519 16.0816C39.8915 16.0816 40.1124 15.648 40.29 15.0951C40.5276 14.3555 41.1108 13.7721 41.8504 13.5347C42.4033 13.3571 42.837 13.1361 42.837 12.8965Z" stroke="white" stroke-miterlimit="10" stroke-linecap="round" stroke-linejoin="round"></path><path d="M28.62 23.1429C27.4823 23.5212 26.2654 23.7261 25.0006 23.7261C23.7357 23.7261 22.5188 23.5212 21.3811 23.1429L21.3809 23.1428" stroke="white" stroke-miterlimit="10" stroke-linecap="round" stroke-linejoin="round"></path><path d="M16.4883 37.6572C18.5867 40.0555 21.6232 41.5627 25.0008 41.5627C31.3336 41.5627 36.4672 36.2644 36.4672 29.7288" stroke="white" stroke-miterlimit="10" stroke-linecap="round" stroke-linejoin="round"></path><path d="M13.5356 29.458C13.534 29.5485 13.5332 29.6387 13.5332 29.7287C13.5332 31.7165 14.0081 33.5898 14.8471 35.2344" stroke="white" stroke-miterlimit="10" stroke-linecap="round" stroke-linejoin="round"></path></svg>