<svg xmlns="http://www.w3.org/2000/svg" width="50" height="50" viewBox="0 0 50 50" fill="none"><rect width="50" height="50" rx="5" fill="#273A2B"></rect><path d="M30.625 40C30.9688 40 31.25 39.7188 31.25 39.375C31.25 39.0312 30.9688 38.75 30.625 38.75H11.25V19.375C11.25 18.875 11.4437 18.4062 11.7937 18.05C12.1562 17.6937 12.625 17.5 13.125 17.5C14.5062 17.5 15.625 16.3813 15.625 15V13.75H28.125V15C28.125 15.6687 28.3875 16.2937 28.8562 16.7688C29.3312 17.2437 29.9562 17.5 30.625 17.5C31.6562 17.5 32.5 18.3438 32.5 19.375V20H13.125C12.7812 20 12.5 20.2812 12.5 20.625C12.5 20.9688 12.7812 21.25 13.125 21.25H32.5V28.9625C32.5 29.3062 32.7812 29.5875 33.125 29.5875C33.4688 29.5875 33.75 29.3062 33.75 28.9625V19.375C33.75 17.65 32.35 16.25 30.625 16.25C30.2938 16.25 29.9813 16.1187 29.7437 15.8813C29.5063 15.6438 29.375 15.3313 29.375 15V13.75H30C31.0312 13.75 31.875 12.9062 31.875 11.875V8.125C31.875 7.09375 31.0312 6.25 30 6.25H19.375C19.0312 6.25 18.75 6.53125 18.75 6.875C18.75 7.21875 19.0312 7.5 19.375 7.5H30C30.3438 7.5 30.625 7.78125 30.625 8.125V11.875C30.625 12.2188 30.3438 12.5 30 12.5H28.75V10.625C28.75 10.2812 28.4688 10 28.125 10C27.7812 10 27.5 10.2812 27.5 10.625V12.5H25.625V10.625C25.625 10.2812 25.3438 10 25 10C24.6562 10 24.375 10.2812 24.375 10.625V12.5H22.5V10.625C22.5 10.2812 22.2188 10 21.875 10C21.5312 10 21.25 10.2812 21.25 10.625V12.5H19.375V10.625C19.375 10.2812 19.0938 10 18.75 10C18.4062 10 18.125 10.2812 18.125 10.625V12.5H16.25V10.625C16.25 10.2812 15.9688 10 15.625 10C15.2812 10 15 10.2812 15 10.625V12.5H13.75C13.4062 12.5 13.125 12.2188 13.125 11.875V8.125C13.125 7.78125 13.4062 7.5 13.75 7.5H16.875C17.2188 7.5 17.5 7.21875 17.5 6.875C17.5 6.53125 17.2188 6.25 16.875 6.25H13.75C12.7188 6.25 11.875 7.09375 11.875 8.125V11.875C11.875 12.9062 12.7188 13.75 13.75 13.75H14.375V15C14.375 15.6875 13.8125 16.25 13.125 16.25C12.3 16.25 11.5125 16.575 10.9125 17.1687C10.325 17.7625 10 18.55 10 19.375V40.625C10 42.35 11.4 43.75 13.125 43.75H30.625C30.9688 43.75 31.25 43.4688 31.25 43.125C31.25 42.7812 30.9688 42.5 30.625 42.5H13.125C12.0938 42.5 11.25 41.6562 11.25 40.625V40H30.625Z" fill="white"></path><path d="M19.4633 35.4063C19.5633 35.425 20.6196 35.625 22.0258 35.625C23.9008 35.625 26.3883 35.2688 28.0196 33.6375C30.8696 30.7875 29.8321 25.3188 29.7883 25.0813C29.7383 24.8313 29.5446 24.6375 29.2946 24.5875C29.0633 24.5438 23.5946 23.5063 20.7383 26.3563C17.8883 29.2063 18.9258 34.675 18.9696 34.9125C19.0196 35.1625 19.2133 35.3563 19.4633 35.4063ZM21.6258 27.2438C23.5946 25.275 27.3633 25.5813 28.6258 25.75C28.7946 27.0188 29.1008 30.7813 27.1321 32.75C25.4821 34.4 22.5758 34.45 20.9321 34.325L27.3196 27.9375C27.5633 27.6938 27.5633 27.3 27.3196 27.0563C27.0758 26.8125 26.6821 26.8125 26.4383 27.0563L20.0508 33.4438C19.9258 31.8 19.9758 28.8938 21.6258 27.2438Z" fill="white"></path><path d="M18.2567 26.9937C18.6005 27.05 18.9192 26.8125 18.9692 26.475C19.0255 26.1312 18.788 25.8125 18.4505 25.7625C16.413 25.4437 14.513 25.8062 14.4317 25.825C14.1817 25.875 13.988 26.0687 13.938 26.3187C13.9005 26.525 12.9817 31.35 15.5005 33.875C15.8317 34.2062 16.2255 34.5 16.6567 34.7312C16.7505 34.7812 16.8505 34.8062 16.9567 34.8062C17.1755 34.8062 17.3942 34.6875 17.5067 34.4812C17.6692 34.175 17.5567 33.8 17.2567 33.6312C16.9317 33.4562 16.638 33.2375 16.388 32.9875C14.7192 31.3187 14.9505 28.1312 15.1005 26.9812C15.7317 26.9 16.9817 26.7937 18.2567 26.9937Z" fill="white"></path><path d="M39.819 34.5563L35.444 30.1813C35.2002 29.9376 34.8065 29.9376 34.5627 30.1813L30.1877 34.5563C30.0065 34.7376 29.9565 35.0063 30.0502 35.2376C30.144 35.4688 30.3752 35.6251 30.6252 35.6251H32.5002V43.1251C32.5002 43.4688 32.7815 43.7501 33.1252 43.7501H36.8752C37.219 43.7501 37.5002 43.4688 37.5002 43.1251V35.6251H39.3752C39.6252 35.6251 39.8565 35.4751 39.9502 35.2376C40.0502 35.0063 39.994 34.7376 39.8127 34.5563H39.819ZM36.8752 34.3751C36.5315 34.3751 36.2502 34.6563 36.2502 35.0001V42.5001H33.7502V35.0001C33.7502 34.6563 33.469 34.3751 33.1252 34.3751H32.1315L35.0002 31.5063L37.869 34.3751H36.8752Z" fill="white"></path></svg>