<svg xmlns="http://www.w3.org/2000/svg" width="50" height="50" viewBox="0 0 50 50" fill="none"><rect width="50" height="50" rx="5" fill="#273A2B"></rect><g clip-path="url(#clip0_1453_7283)"><path d="M23.3002 20.1C23.1002 20.1 22.9002 20 22.8002 19.8C22.7002 19.5 22.8002 19.3 23.1002 19.2C23.9002 18.9 24.5002 18.1 24.5002 17.2V12.9C24.5002 11.3 23.2002 10 21.6002 10C20.6002 10 19.6002 10.5 18.9002 11.3C18.7002 11.5 18.4002 11.6 18.2002 11.4C18.0002 11.2 17.9002 10.9 18.1002 10.7C18.9002 9.6 20.2002 9 21.6002 9C23.8002 9 25.5002 10.8 25.5002 12.9V17.1C25.5002 18.4 24.7002 19.5 23.5002 20C23.5002 20.1 23.4002 20.1 23.3002 20.1Z" fill="white"></path><path d="M13.7 15C13.5 15 13.3 14.9 13.2 14.7C13.1 14.3 13 13.9 13 13.5C13 11.6 14.6 10 16.5 10C18.4 10 20 11.6 20 13.5C20 13.8 19.8 14 19.5 14C19.2 14 19 13.8 19 13.5C19 12.1 17.9 11 16.5 11C15.1 11 14 12.1 14 13.5C14 13.8 14 14.1 14.1 14.3C14.2 14.6 14.1 14.8 13.8 14.9C13.8 15 13.7 15 13.7 15Z" fill="white"></path><path d="M11.6 21.7C11.5 21.7 11.3 21.6 11.2 21.5C10.4 20.7 10 19.6 10 18.5C10 16 12 14 14.5 14C15.3 14 16.1 14.2 16.8 14.6C17.1 14.8 17.1 15.1 17 15.3C16.8 15.6 16.5 15.6 16.3 15.5C15.8 15.2 15.1 15 14.5 15C12.6 15 11 16.6 11 18.5C11 19.4 11.3 20.2 11.9 20.9C12.1 21.1 12.1 21.4 11.9 21.6C11.8 21.7 11.7 21.7 11.6 21.7Z" fill="white"></path><path d="M14 30C11.2 30 9 27.8 9 25C9 22.2 11.2 20 14 20C14.3 20 14.5 20.2 14.5 20.5C14.5 20.8 14.3 21 14 21C11.8 21 10 22.8 10 25C10 27.2 11.8 29 14 29C14.3 29 14.5 29.2 14.5 29.5C14.5 29.8 14.3 30 14 30Z" fill="white"></path><path d="M16.5 39.9999C14.6 39.9999 13 38.3999 13 36.4999C13 36.0999 13.1 35.6999 13.2 35.2999C13.3 34.9999 13.6 34.8999 13.8 34.9999C14.1 35.0999 14.2 35.3999 14.1 35.5999C14 35.8999 14 36.1999 14 36.4999C14 37.8999 15.1 38.9999 16.5 38.9999C17.9 38.9999 19 37.8999 19 36.4999C19 36.1999 19.2 35.9999 19.5 35.9999C19.8 35.9999 20 36.1999 20 36.4999C20 38.3999 18.4 39.9999 16.5 39.9999Z" fill="white"></path><path d="M14.5 36C12 36 10 34 10 31.5C10 30.4 10.4 29.3 11.2 28.4C11.4 28.2 11.7 28.2 11.9 28.4C12.1 28.6 12.1 28.9 11.9 29.1C11.3 29.8 11 30.6 11 31.5C11 33.4 12.6 35 14.5 35C15.1 35 15.8 34.8 16.3 34.5C16.5 34.4 16.8 34.4 17 34.7C17.1 34.9 17.1 35.2 16.8 35.4C16.1 35.8 15.3 36 14.5 36Z" fill="white"></path><path d="M14 30C11.2 30 9 27.8 9 25C9 22.2 11.2 20 14 20C14.3 20 14.5 20.2 14.5 20.5C14.5 20.8 14.3 21 14 21C11.8 21 10 22.8 10 25C10 27.2 11.8 29 14 29C14.3 29 14.5 29.2 14.5 29.5C14.5 29.8 14.3 30 14 30Z" fill="white"></path><path d="M17.5 23C17.2 23 17 22.8 17 22.5V21.5C17 19.6 15.4 18 13.5 18C13.2 18 13 17.8 13 17.5C13 17.2 13.2 17 13.5 17C16 17 18 19 18 21.5V22.5C18 22.8 17.8 23 17.5 23Z" fill="white"></path><path d="M17.9002 25.9999C16.9002 25.9999 15.9002 25.4999 15.3002 24.5999L14.1002 22.7999C13.9002 22.5999 14.0002 22.2999 14.2002 22.0999C14.4002 21.8999 14.7002 21.9999 14.9002 22.1999L16.1002 23.9999C16.5002 24.5999 17.1002 24.8999 17.9002 24.8999C19.1002 24.8999 20.0002 23.9999 20.0002 22.7999V21.3999C20.0002 21.0999 20.2002 20.8999 20.5002 20.8999C20.8002 20.8999 21.0002 21.0999 21.0002 21.3999V22.7999C21.0002 24.5999 19.6002 25.9999 17.9002 25.9999Z" fill="white"></path><path d="M20.6002 16.5C20.1002 16.5 19.5002 16.3 19.1002 15.9C18.9002 15.7 18.9002 15.4 19.1002 15.2C19.3002 15 19.6002 15 19.8002 15.2C20.1002 15.5 20.5002 15.6 20.9002 15.5C21.3002 15.4 21.6002 15.1 21.7002 14.7L22.0002 13.4C22.1002 13.1 22.3002 13 22.6002 13C22.9002 13.1 23.0002 13.3 23.0002 13.6L22.7002 14.9C22.5002 15.6 22.0002 16.2 21.2002 16.4C21.0002 16.4 20.8002 16.5 20.6002 16.5Z" fill="white"></path><path d="M20.5 28.9999C20.2 28.9999 20 28.7999 20 28.4999C20 28.1999 20.2 27.9999 20.5 27.9999C21.5 27.9999 22.3 27.3999 22.7 26.3999L23.1 25.2999C23.2 24.9999 23.5 24.8999 23.7 24.9999C24 25.0999 24.1 25.3999 24 25.5999L23.6 26.6999C23.2 28.0999 21.9 28.9999 20.5 28.9999Z" fill="white"></path><path d="M17.5 22C17.2 22 17 21.8 17 21.5V20.5C17 19.1 18.1 18 19.5 18C19.8 18 20 18.2 20 18.5C20 18.8 19.8 19 19.5 19C18.7 19 18 19.7 18 20.5V21.5C18 21.8 17.8 22 17.5 22Z" fill="white"></path><path d="M13.5 33C13.2 33 13 32.8 13 32.5C13 32.2 13.2 32 13.5 32C15.4 32 17 30.4 17 28.5V27.5C17 27.2 17.2 27 17.5 27C17.8 27 18 27.2 18 27.5V28.5C18 31 16 33 13.5 33Z" fill="white"></path><path d="M22.5002 37.0001C22.3002 37.0001 22.1002 36.8001 22.0002 36.6001L21.7002 35.3001C21.6002 34.9001 21.3002 34.6001 20.9002 34.5001C20.5002 34.4001 20.1002 34.5001 19.8002 34.8001C19.6002 35.0001 19.3002 35.0001 19.1002 34.8001C18.9002 34.6001 18.9002 34.3001 19.1002 34.1001C19.6002 33.6001 20.4002 33.4001 21.1002 33.6001C21.8002 33.8001 22.4002 34.4001 22.6002 35.1001L22.9002 36.4001C23.0002 36.7001 22.8002 36.9001 22.5002 37.0001Z" fill="white"></path><path d="M19.5 32C18.1 32 17 30.9 17 29.5V28.5C17 28.2 17.2 28 17.5 28C17.8 28 18 28.2 18 28.5V29.5C18 30.3 18.7 31 19.5 31C19.8 31 20 31.2 20 31.5C20 31.8 19.8 32 19.5 32Z" fill="white"></path><path d="M12.4998 27C12.2998 27 12.0998 26.9 12.0998 26.7C11.9998 26.5 12.0998 26.2 12.2998 26C13.6998 25.4 15.1998 25 16.6998 25H17.4998C17.7998 25 17.9998 25.2 17.9998 25.5C17.9998 25.8 17.7998 26 17.4998 26H16.6998C15.2998 26 13.8998 26.3 12.6998 26.9C12.6998 27 12.5998 27 12.4998 27Z" fill="white"></path><path d="M21.6002 41C20.2002 41 18.9002 40.4 18.1002 39.3C17.9002 39.1 18.0002 38.8 18.2002 38.6C18.4002 38.4 18.7002 38.5 18.9002 38.7C19.5002 39.5 20.5002 40 21.6002 40C23.2002 40 24.5002 38.6 24.5002 36.9V34C24.5002 32.9 23.6002 32 22.5002 32C22.2002 32 22.0002 31.8 22.0002 31.5C22.0002 31.2 22.2002 31 22.5002 31C24.2002 31 25.5002 32.3 25.5002 34V36.9C25.5002 39.2 23.8002 41 21.6002 41Z" fill="white"></path><path d="M24.5 33C24.4 33 24.4 33 24.3 33C24 32.9 23.9 32.6 24 32.4C24.3 31.5 24.5 30.6 24.5 29.7V22C24.5 20.9 23.6 20 22.5 20C22.2 20 22 19.8 22 19.5C22 19.2 22.2 19 22.5 19C24.2 19 25.5 20.3 25.5 22V29.6C25.5 30.6 25.3 31.7 25 32.7C24.9 32.9 24.7 33 24.5 33Z" fill="white"></path><path d="M28.4 40.9999C26.2 40.9999 24.5 39.1999 24.5 37.0999V32.8999C24.5 31.5999 25.3 30.4999 26.5 29.9999C26.8 29.8999 27 29.9999 27.1 30.2999C27.2 30.5999 27.1 30.7999 26.8 30.8999C26 31.1999 25.4 31.9999 25.4 32.8999V37.0999C25.4 38.6999 26.7 39.9999 28.3 39.9999C29.3 39.9999 30.3 39.4999 31 38.6999C31.2 38.4999 31.5 38.3999 31.7 38.5999C31.9 38.7999 32 39.0999 31.8 39.2999C31.1 40.3999 29.8 40.9999 28.4 40.9999Z" fill="white"></path><path d="M33.5 40C31.6 40 30 38.4 30 36.5C30 36.2 30.2 36 30.5 36C30.8 36 31 36.2 31 36.5C31 37.9 32.1 39 33.5 39C34.9 39 36 37.9 36 36.5C36 36.2 36 35.9 35.9 35.7C35.8 35.4 35.9 35.2 36.2 35.1C36.5 35 36.7 35.1 36.8 35.4C36.9 35.8 37 36.2 37 36.6C37 38.4 35.4 40 33.5 40Z" fill="white"></path><path d="M35.5002 36C34.7002 36 33.9002 35.8 33.2002 35.4C33.0002 35.3 32.9002 35 33.0002 34.7C33.1002 34.5 33.4002 34.4 33.7002 34.5C34.2002 34.8 34.9002 35 35.5002 35C37.4002 35 39.0002 33.4 39.0002 31.5C39.0002 30.6 38.7002 29.8 38.1002 29.1C37.9002 28.9 37.9002 28.6 38.1002 28.4C38.3002 28.2 38.6002 28.2 38.8002 28.4C39.6002 29.2 40.0002 30.3 40.0002 31.5C40.0002 34 38.0002 36 35.5002 36Z" fill="white"></path><path d="M36 30C35.7 30 35.5 29.8 35.5 29.5C35.5 29.2 35.7 29 36 29C38.2 29 40 27.2 40 25C40 22.8 38.2 21 36 21C35.7 21 35.5 20.8 35.5 20.5C35.5 20.2 35.7 20 36 20C38.8 20 41 22.2 41 25C41 27.8 38.8 30 36 30Z" fill="white"></path><path d="M36.3 15C36.2 15 36.2 15 36.1 15C35.8 14.9 35.7 14.6 35.8 14.4C36 14.1 36 13.8 36 13.5C36 12.1 34.9 11 33.5 11C32.1 11 31 12.1 31 13.5C31 13.8 30.8 14 30.5 14C30.2 14 30 13.8 30 13.5C30 11.6 31.6 10 33.5 10C35.4 10 37 11.6 37 13.5C37 13.9 36.9 14.3 36.8 14.7C36.7 14.9 36.5 15 36.3 15Z" fill="white"></path><path d="M38.4002 21.7C38.3002 21.7 38.2002 21.7 38.1002 21.6C37.9002 21.4 37.9002 21.1 38.1002 20.9C38.7002 20.3 39.0002 19.4 39.0002 18.5C39.0002 16.6 37.4002 15 35.5002 15C34.9002 15 34.2002 15.2 33.7002 15.5C33.5002 15.6 33.2002 15.6 33.0002 15.3C32.9002 15.1 32.9002 14.8 33.2002 14.6C33.9002 14.2 34.7002 14 35.5002 14C38.0002 14 40.0002 16 40.0002 18.5C40.0002 19.6 39.6002 20.7 38.8002 21.6C38.7002 21.7 38.6002 21.7 38.4002 21.7Z" fill="white"></path><path d="M36 30C35.7 30 35.5 29.8 35.5 29.5C35.5 29.2 35.7 29 36 29C38.2 29 40 27.2 40 25C40 22.8 38.2 21 36 21C35.7 21 35.5 20.8 35.5 20.5C35.5 20.2 35.7 20 36 20C38.8 20 41 22.2 41 25C41 27.8 38.8 30 36 30Z" fill="white"></path><path d="M36.5 33C34 33 32 31 32 28.5V27.5C32 27.2 32.2 27 32.5 27C32.8 27 33 27.2 33 27.5V28.5C33 30.4 34.6 32 36.5 32C36.8 32 37 32.2 37 32.5C37 32.8 36.8 33 36.5 33Z" fill="white"></path><path d="M29.5 29C29.2 29 29 28.8 29 28.5V27.1C29 25.4 30.4 24 32.1 24C33.1 24 34.1 24.5 34.7 25.4L35.9 27.2C36.1 27.4 36 27.7 35.8 27.9C35.6 28.1 35.3 28 35.1 27.8L33.9 26C33.5 25.4 32.9 25.1 32.1 25.1C30.9 25.1 30 26 30 27.2V28.6C30 28.8 29.8 29 29.5 29Z" fill="white"></path><path d="M27.5 37.0001H27.4C27.1 36.9001 27 36.7001 27 36.4001L27.3 35.1001C27.5 34.4001 28 33.8001 28.8 33.6001C29.5 33.4001 30.3 33.6001 30.8 34.1001C31 34.3001 31 34.6001 30.8 34.8001C30.6 35.0001 30.3 35.0001 30.1 34.8001C29.8 34.5001 29.4 34.4001 29 34.5001C28.6 34.6001 28.3 34.9001 28.2 35.3001L28 36.6001C27.9 36.8001 27.7 37.0001 27.5 37.0001Z" fill="white"></path><path d="M26.5004 25.0001C26.4004 25.0001 26.4004 25.0001 26.3004 25.0001C26.0004 24.9001 25.9004 24.6001 26.0004 24.4001L26.4004 23.3001C26.8004 22.0001 28.1004 21.1001 29.5004 21.1001C29.8004 21.1001 30.0004 21.3001 30.0004 21.6001C30.0004 21.9001 29.8004 22.0001 29.5004 22.0001C28.5004 22.0001 27.7004 22.6001 27.3004 23.6001L27.0004 24.7001C26.9004 24.9001 26.7004 25.0001 26.5004 25.0001Z" fill="white"></path><path d="M30.5 32C30.2 32 30 31.8 30 31.5C30 31.2 30.2 31 30.5 31C31.3 31 32 30.3 32 29.5V28.5C32 28.2 32.2 28 32.5 28C32.8 28 33 28.2 33 28.5V29.5C33 30.9 31.9 32 30.5 32Z" fill="white"></path><path d="M32.5 23C32.2 23 32 22.8 32 22.5V21.5C32 19 34 17 36.5 17C36.8 17 37 17.2 37 17.5C37 17.8 36.8 18 36.5 18C34.6 18 33 19.6 33 21.5V22.5C33 22.8 32.8 23 32.5 23Z" fill="white"></path><path d="M29.3996 16.4999C29.1996 16.4999 28.9996 16.4999 28.7996 16.3999C28.0996 16.1999 27.4996 15.5999 27.2996 14.8999L26.9996 13.5999C26.8996 13.2999 27.0996 13.0999 27.3996 12.9999C27.6996 12.8999 27.8996 13.0999 27.9996 13.3999L28.2996 14.6999C28.3996 15.0999 28.6996 15.3999 29.0996 15.4999C29.4996 15.5999 29.8996 15.4999 30.1996 15.1999C30.3996 14.9999 30.6996 14.9999 30.8996 15.1999C31.0996 15.3999 31.0996 15.6999 30.8996 15.8999C30.4996 16.2999 29.8996 16.4999 29.3996 16.4999Z" fill="white"></path><path d="M32.5 22C32.2 22 32 21.8 32 21.5V20.5C32 19.7 31.3 19 30.5 19C30.2 19 30 18.8 30 18.5C30 18.2 30.2 18 30.5 18C31.9 18 33 19.1 33 20.5V21.5C33 21.8 32.8 22 32.5 22Z" fill="white"></path><path d="M33.3 25H32.5C32.2 25 32 24.8 32 24.5C32 24.2 32.2 24 32.5 24H33.3C34.7 24 36.1 23.7 37.3 23.1C37.5 23 37.8 23.1 38 23.3C38.1 23.5 38 23.8 37.8 24C36.3 24.6 34.8 25 33.3 25Z" fill="white"></path><path d="M27.5 19C25.8 19 24.5 17.7 24.5 16V13.1C24.5 10.9 26.2 9.1 28.4 9C29.8 9 31.1 9.6 31.9 10.7C32.1 10.9 32 11.2 31.8 11.4C31.6 11.6 31.3 11.5 31.1 11.3C30.5 10.5 29.5 10 28.4 10C26.8 10 25.5 11.4 25.5 13.1V16C25.5 17.1 26.4 18 27.5 18C27.8 18 28 18.2 28 18.5C28 18.8 27.8 19 27.5 19Z" fill="white"></path><path d="M27.5 30.9999C25.8 30.9999 24.5 29.6999 24.5 27.9999V20.3999C24.5 19.3999 24.7 18.2999 25 17.2999C25.1 16.9999 25.4 16.8999 25.6 16.9999C25.9 17.0999 26 17.3999 25.9 17.5999C25.6 18.4999 25.4 19.3999 25.4 20.2999V27.9999C25.4 29.0999 26.3 29.9999 27.4 29.9999C27.7 29.9999 27.9 30.1999 27.9 30.4999C27.9 30.7999 27.8 30.9999 27.5 30.9999Z" fill="white"></path></g><defs><clipPath id="clip0_1453_7283"><rect width="32" height="32" fill="white" transform="translate(9 9)"></rect></clipPath></defs></svg>