<svg xmlns="http://www.w3.org/2000/svg" width="50" height="50" viewBox="0 0 50 50" fill="none"><rect width="50" height="50" rx="5" fill="#273A2B"></rect><g clip-path="url(#clip0_1467_5182)"><path d="M7.95605 10.6476C8.20774 10.8509 8.57669 10.8116 8.77995 10.5598C9.04243 10.2349 9.32638 9.91919 9.62393 9.62156C11.8474 7.39812 14.8036 6.17363 17.948 6.17363C21.0925 6.17363 24.0486 7.39812 26.2721 9.62156L37.7141 21.0637C37.8285 21.178 37.9785 21.2353 38.1284 21.2353C38.2783 21.2353 38.4283 21.1781 38.5426 21.0637C38.7714 20.8349 38.7714 20.4639 38.5426 20.2352L27.1006 8.79305C24.6558 6.34838 21.4055 5.00195 17.948 5.00195C14.4906 5.00195 11.2402 6.34838 8.79542 8.79313C8.46866 9.11982 8.15673 9.46658 7.8684 9.82365C7.66507 10.0754 7.70436 10.4443 7.95605 10.6476Z" fill="white"></path><path d="M41.2088 22.9015L40.4738 22.1664C40.2449 21.9376 39.874 21.9377 39.6452 22.1664C39.4164 22.3952 39.4164 22.7662 39.6452 22.995L40.3802 23.7301C42.6037 25.9535 43.8282 28.9097 43.8282 32.0541C43.8282 35.1985 42.6037 38.1548 40.3802 40.3782C38.1568 42.6017 35.2006 43.8261 32.0562 43.8261C28.9117 43.8261 25.9555 42.6017 23.7321 40.3782L9.62369 26.2696C6.05374 22.6997 5.15484 17.2613 7.38712 12.7368C7.53031 12.4466 7.4111 12.0954 7.12089 11.9522C6.83061 11.809 6.4794 11.9283 6.33629 12.2184C3.88185 17.1934 4.87003 23.1731 8.79518 27.0982L22.9036 41.2066C25.3483 43.6514 28.5988 44.9978 32.0562 44.9978C35.5136 44.9978 38.764 43.6514 41.2088 41.2066C43.6535 38.7619 44.9999 35.5114 44.9999 32.0541C44.9999 28.5967 43.6535 25.3462 41.2088 22.9015Z" fill="white"></path><path d="M26.4567 37.7783C26.0206 38.2143 25.8149 38.8155 25.8923 39.4275C25.9695 40.0379 26.3171 40.5675 26.846 40.8802C28.094 41.6181 29.4605 42.0746 30.9077 42.237C31.1955 42.2768 31.4745 42.0944 31.5553 41.7201C31.5914 41.3986 31.36 41.1086 31.0384 41.0725C29.7568 40.9287 28.5469 40.5246 27.4424 39.8714C27.2275 39.7444 27.0862 39.529 27.0548 39.2805C27.0233 39.0304 27.1072 38.7848 27.2853 38.6067L29.5789 36.3131C30.3504 35.5416 30.3504 34.2861 29.5789 33.5145C29.2051 33.1407 28.7082 32.9349 28.1795 32.9349C27.6509 32.9349 27.154 33.1407 26.7802 33.5145L24.3017 35.993C24.1492 36.1455 23.9465 36.2294 23.7309 36.2294C23.5153 36.2294 23.3125 36.1454 23.1601 35.993L22.5229 35.3559C23.071 34.882 23.4005 34.1879 23.4005 33.4365C23.4005 32.0366 22.2616 30.8977 20.8617 30.8977C20.1103 30.8977 19.4161 31.2272 18.9423 31.7752L18.5844 31.4173C18.4319 31.2649 18.348 31.0622 18.348 30.8466C18.348 30.631 18.432 30.4283 18.5844 30.2758L19.2199 29.6403C19.5937 29.2665 19.7995 28.7696 19.7995 28.241C19.7995 27.7124 19.5937 27.2155 19.2199 26.8417C18.8461 26.4679 18.3492 26.2621 17.8206 26.2621C17.292 26.2621 16.7951 26.4679 16.4213 26.8417L15.7857 27.4772C15.6332 27.6296 15.4306 27.7135 15.2149 27.7135C14.9993 27.7135 14.7966 27.6296 14.6441 27.4772L11.5301 24.3631C11.3231 24.1559 11.1243 23.9372 10.9392 23.7129C10.6701 23.3866 10.6903 22.9175 10.9862 22.6216L14.5171 19.0907C14.8909 18.717 15.0967 18.2201 15.0967 17.6914C15.0967 17.1628 14.8909 16.6658 14.5171 16.2921C14.1433 15.9183 13.6464 15.7125 13.1178 15.7125C12.5892 15.7125 12.0923 15.9183 11.7185 16.2921L10.2889 17.7217C9.91648 18.0941 9.49488 17.9379 9.37458 17.8811C9.25374 17.8242 8.86354 17.5973 8.91408 17.0708C9.03251 15.8397 9.40583 14.6512 9.99538 13.5776C10.452 13.9847 11.0472 14.2197 11.6829 14.2197C13.0827 14.2197 14.2217 13.0807 14.2217 11.6809C14.2217 11.0427 13.9851 10.4455 13.5755 9.98839C14.8996 9.25839 16.3936 8.86983 17.9476 8.86983C20.3718 8.86983 22.6509 9.81388 24.3651 11.5281L24.8735 12.0365C25.1882 12.3512 25.1882 12.8633 24.8735 13.178L23.3905 14.661C23.1617 14.8898 23.1617 15.2607 23.3905 15.4895C23.6193 15.7183 23.9903 15.7183 24.219 15.4895L25.7021 14.0065C26.4736 13.2349 26.4736 11.9794 25.7021 11.2078L25.1936 10.6994C23.2581 8.76391 20.6848 7.698 17.9475 7.698C15.2103 7.698 12.6371 8.76414 10.7016 10.6996C9.02368 12.3776 7.97457 14.6004 7.7478 16.9587C7.66671 17.8018 8.10909 18.5799 8.87479 18.941C9.63932 19.3015 10.5195 19.1482 11.1174 18.5503L12.547 17.1207C12.6995 16.9682 12.9022 16.8843 13.1178 16.8843C13.3334 16.8843 13.5361 16.9683 13.6886 17.1208C13.8411 17.2732 13.925 17.4759 13.925 17.6915C13.925 17.9071 13.841 18.1098 13.6886 18.2623L10.1577 21.7931C9.43263 22.5182 9.37997 23.664 10.0353 24.4585C10.2439 24.7115 10.4682 24.9582 10.7017 25.1918L13.8157 28.3058C14.1895 28.6796 14.6864 28.8855 15.215 28.8855C15.7436 28.8855 16.2406 28.6796 16.6143 28.3058L17.2499 27.6703C17.4024 27.5179 17.6051 27.434 17.8207 27.434C18.0363 27.434 18.239 27.5179 18.3915 27.6703C18.7062 27.9851 18.7062 28.4971 18.3915 28.8119L17.756 29.4474C17.3822 29.8211 17.1764 30.318 17.1764 30.8467C17.1764 31.3753 17.3822 31.8723 17.756 32.246L22.3317 36.8217C22.7055 37.1955 23.2024 37.4013 23.731 37.4013C24.2596 37.4013 24.7566 37.1955 25.1303 36.8217L27.6089 34.3432C27.7613 34.1907 27.964 34.1068 28.1796 34.1068C28.3952 34.1068 28.5979 34.1908 28.7504 34.3432C29.0652 34.6579 29.0652 35.17 28.7504 35.4847L26.4567 37.7783ZM11.5302 11.5282C11.8557 11.2027 12.2016 10.9052 12.5649 10.6364C12.8694 10.8929 13.0501 11.2713 13.0501 11.6809C13.0501 12.4346 12.4368 13.0479 11.683 13.0479C11.2751 13.0479 10.8979 12.8685 10.6414 12.566C10.9106 12.2 11.2063 11.8521 11.5302 11.5282ZM21.6904 34.5234L19.7749 32.6078C20.0296 32.2735 20.4279 32.0695 20.8618 32.0695C21.6155 32.0695 22.2288 32.6828 22.2288 33.4366C22.2287 33.8704 22.0248 34.2687 21.6904 34.5234Z" fill="white"></path><path d="M39.4914 27.7994C40.2486 27.0422 40.261 25.7993 39.5191 25.0289C39.438 24.9446 34.6 20.1052 34.6 20.1052C34.2262 19.7314 33.7293 19.5256 33.2006 19.5256C32.672 19.5256 32.1751 19.7314 31.8013 20.1052L29.3228 22.5837C29.0081 22.8984 28.496 22.8984 28.1813 22.5837C28.0288 22.4312 27.9449 22.2285 27.9449 22.0129C27.9449 21.7973 28.0289 21.5946 28.1813 21.4421L30.6598 18.9635C31.0336 18.5898 31.2394 18.0928 31.2394 17.5642C31.2394 17.0356 31.0336 16.5387 30.6598 16.1649L29.643 15.1481C28.8714 14.3764 27.6159 14.3764 26.8443 15.1481L21.3154 20.677C21.1629 20.8295 20.9602 20.9134 20.7446 20.9134C20.529 20.9134 20.3262 20.8294 20.1738 20.677C20.0213 20.5246 19.9374 20.3218 19.9374 20.1062C19.9374 19.8906 20.0214 19.6879 20.1738 19.5354L22.2776 17.4315C22.5064 17.2027 22.5064 16.8317 22.2776 16.603C22.0488 16.3742 21.6778 16.3742 21.4491 16.603L19.3453 18.7068C18.9715 19.0806 18.7656 19.5775 18.7656 20.1062C18.7656 20.6349 18.9715 21.1318 19.3453 21.5055C20.1168 22.2772 21.3723 22.2772 22.1439 21.5055L27.6728 15.9766C27.9876 15.6619 28.4996 15.6619 28.8144 15.9766L29.8312 16.9934C29.9837 17.1459 30.0676 17.3486 30.0676 17.5642C30.0676 17.7798 29.9836 17.9825 29.8312 18.135L27.3527 20.6135C26.9789 20.9873 26.7731 21.4842 26.7731 22.0129C26.7731 22.5415 26.9789 23.0384 27.3527 23.4122C28.1243 24.1839 29.3798 24.1839 30.1513 23.4122L32.6298 20.9337C32.7823 20.7812 32.985 20.6973 33.2006 20.6973C33.4162 20.6973 33.619 20.7813 33.7714 20.9337C33.7714 20.9337 38.5998 25.7635 38.6749 25.8417C38.9771 26.1555 38.9717 26.662 38.6628 26.9708L36.3135 29.3202C35.9397 29.694 35.7338 30.1909 35.7338 30.7195C35.7338 31.2481 35.9397 31.7451 36.3135 32.1188C37.085 32.8905 38.3405 32.8905 39.1121 32.1188L39.7374 31.4935C39.9677 31.2633 40.2874 31.1942 40.5926 31.3086C40.8972 31.4228 41.0922 31.6845 41.1141 32.0085C41.1616 32.7083 41.1127 33.3985 40.9714 34.0726C40.5976 33.8623 40.172 33.749 39.7275 33.749C38.3276 33.749 37.1887 34.8879 37.1887 36.2878C37.1887 37.2126 37.6965 38.0415 38.4598 38.4854C37.1255 39.814 35.4435 40.6834 33.5937 40.9993C33.2748 41.0539 33.0603 41.3566 33.1149 41.6755C33.1512 41.8976 33.3783 42.2088 33.7911 42.1544C35.8878 41.7962 37.7937 40.8092 39.3027 39.3001C41.435 37.1679 42.4657 34.619 42.2832 31.9292C42.23 31.1456 41.7399 30.4874 41.0041 30.2115C40.2676 29.9351 39.4647 30.109 38.9088 30.6649L38.2835 31.2903C38.131 31.4427 37.9284 31.5266 37.7127 31.5266C37.4971 31.5266 37.2944 31.4427 37.1419 31.2903C36.9894 31.1378 36.9055 30.9351 36.9055 30.7195C36.9055 30.5038 36.9895 30.3011 37.1419 30.1487L39.4914 27.7994ZM39.2749 37.5774C38.7392 37.3885 38.3606 36.8741 38.3606 36.2878C38.3606 35.534 38.9739 34.9207 39.7276 34.9207C40.0619 34.9207 40.3762 35.0403 40.6225 35.2546C40.312 36.0634 39.8613 36.8417 39.2749 37.5774Z" fill="white"></path><path d="M20.9391 12.8528C20.9391 11.8837 20.1507 11.0952 19.1815 11.0952C18.2123 11.0952 17.4238 11.8837 17.4238 12.8528C17.4238 13.822 18.2123 14.6105 19.1815 14.6105C20.1507 14.6105 20.9391 13.822 20.9391 12.8528ZM18.5956 12.8528C18.5956 12.5298 18.8584 12.267 19.1815 12.267C19.5046 12.267 19.7673 12.5298 19.7673 12.8528C19.7673 13.1759 19.5046 13.4387 19.1815 13.4387C18.8584 13.4387 18.5956 13.1759 18.5956 12.8528Z" fill="white"></path><path d="M13.4414 23.1641C13.4414 24.1333 14.2298 24.9218 15.199 24.9218C16.1682 24.9218 16.9567 24.1333 16.9567 23.1641C16.9567 22.1949 16.1682 21.4065 15.199 21.4065C14.2298 21.4065 13.4414 22.1949 13.4414 23.1641ZM15.7849 23.1641C15.7849 23.4872 15.5221 23.75 15.199 23.75C14.8759 23.75 14.6132 23.4872 14.6132 23.1641C14.6132 22.841 14.8759 22.5783 15.199 22.5783C15.5221 22.5783 15.7849 22.841 15.7849 23.1641Z" fill="white"></path><path d="M25.7828 24.2579C25.7828 23.2887 24.9944 22.5002 24.0252 22.5002C23.056 22.5002 22.2676 23.2887 22.2676 24.2579C22.2676 25.2271 23.056 26.0155 24.0252 26.0155C24.9944 26.0155 25.7828 25.227 25.7828 24.2579ZM24.0252 24.8438C23.7021 24.8438 23.4393 24.581 23.4393 24.2579C23.4393 23.9348 23.7021 23.672 24.0252 23.672C24.3483 23.672 24.6111 23.9348 24.6111 24.2579C24.6111 24.581 24.3483 24.8438 24.0252 24.8438Z" fill="white"></path><path d="M34.6507 34.5302C34.9743 34.5302 35.2366 34.2678 35.2366 33.9443C35.2366 33.6207 34.9743 33.3584 34.6507 33.3584H34.6499C34.3264 33.3584 34.0645 33.6207 34.0645 33.9443C34.0645 34.2678 34.3271 34.5302 34.6507 34.5302Z" fill="white"></path><path d="M32.307 33.3584H32.3062C31.9826 33.3584 31.7207 33.6207 31.7207 33.9443C31.7207 34.2678 31.9834 34.5302 32.307 34.5302C32.6305 34.5302 32.8929 34.2678 32.8929 33.9443C32.8929 33.6207 32.6305 33.3584 32.307 33.3584Z" fill="white"></path><path d="M33.4788 32.8116C33.8024 32.8116 34.0647 32.5493 34.0647 32.2258C34.0647 31.9022 33.8024 31.6399 33.4788 31.6399H33.4781C33.1545 31.6399 32.8926 31.9022 32.8926 32.2258C32.8926 32.5493 33.1552 32.8116 33.4788 32.8116Z" fill="white"></path><path d="M24.8499 28.028C24.8499 27.7045 24.5876 27.4421 24.264 27.4421H24.2632C23.9397 27.4421 23.6777 27.7045 23.6777 28.028C23.6777 28.3516 23.9404 28.6139 24.264 28.6139C24.5876 28.6139 24.8499 28.3516 24.8499 28.028Z" fill="white"></path><path d="M21.8359 29.1381C21.8359 29.4617 22.0986 29.724 22.4222 29.724C22.7458 29.724 23.0081 29.4617 23.0081 29.1381C23.0081 28.8146 22.7458 28.5522 22.4222 28.5522H22.4214C22.0979 28.5522 21.8359 28.8146 21.8359 29.1381Z" fill="white"></path><path d="M24.3011 30.6818C24.6247 30.6818 24.887 30.4194 24.887 30.0959C24.887 29.7723 24.6247 29.51 24.3011 29.51H24.3003C23.9768 29.51 23.7148 29.7723 23.7148 30.0959C23.7148 30.4194 23.9776 30.6818 24.3011 30.6818Z" fill="white"></path><path d="M19.7308 24.8436C20.0544 24.8436 20.3167 24.5813 20.3167 24.2578C20.3167 23.9342 20.0544 23.6719 19.7308 23.6719H19.73C19.4065 23.6719 19.1445 23.9342 19.1445 24.2578C19.1445 24.5813 19.4072 24.8436 19.7308 24.8436Z" fill="white"></path><path d="M17.6988 16.0166C17.3752 16.0166 17.1133 16.2789 17.1133 16.6025C17.1133 16.926 17.376 17.1884 17.6996 17.1884C18.0231 17.1884 18.2854 16.926 18.2854 16.6025C18.2854 16.2789 18.0231 16.0166 17.6996 16.0166H17.6988Z" fill="white"></path><path d="M16.8011 15.2744C16.8011 14.9508 16.5387 14.6885 16.2152 14.6885H16.2144C15.8908 14.6885 15.6289 14.9508 15.6289 15.2744C15.6289 15.5979 15.8916 15.8602 16.2152 15.8602C16.5387 15.8602 16.8011 15.5979 16.8011 15.2744Z" fill="white"></path><path d="M34.2991 29.101C34.2991 28.7775 34.0368 28.5151 33.7132 28.5151H33.7124C33.3889 28.5151 33.127 28.7775 33.127 29.101C33.127 29.4246 33.3897 29.6869 33.7132 29.6869C34.0368 29.6869 34.2991 29.4246 34.2991 29.101Z" fill="white"></path><path d="M33.1658 39.5297C34.135 39.5297 34.9235 38.7412 34.9235 37.772C34.9235 36.8028 34.135 36.0144 33.1658 36.0144C32.1966 36.0144 31.4082 36.8028 31.4082 37.772C31.4082 38.7412 32.1967 39.5297 33.1658 39.5297ZM33.1658 37.1862C33.4889 37.1862 33.7517 37.4489 33.7517 37.772C33.7517 38.0951 33.4889 38.3579 33.1658 38.3579C32.8427 38.3579 32.58 38.0951 32.58 37.772C32.58 37.4489 32.8428 37.1862 33.1658 37.1862Z" fill="white"></path><path d="M33.1658 23.2815C32.1966 23.2815 31.4082 24.0699 31.4082 25.0391C31.4082 26.0083 32.1966 26.7968 33.1658 26.7968C34.135 26.7968 34.9235 26.0083 34.9235 25.0391C34.9235 24.0699 34.135 23.2815 33.1658 23.2815ZM33.1658 25.625C32.8427 25.625 32.58 25.3622 32.58 25.0391C32.58 24.716 32.8427 24.4533 33.1658 24.4533C33.4889 24.4533 33.7517 24.716 33.7517 25.0391C33.7517 25.3621 33.4889 25.625 33.1658 25.625Z" fill="white"></path><path d="M28.7908 31.5227C30.1906 31.5227 31.3296 30.3837 31.3296 28.9839C31.3296 27.584 30.1906 26.4451 28.7908 26.4451C27.3909 26.4451 26.252 27.584 26.252 28.9839C26.252 30.3837 27.3909 31.5227 28.7908 31.5227ZM28.7908 27.6168C29.5445 27.6168 30.1578 28.2301 30.1578 28.9839C30.1578 29.7376 29.5445 30.3509 28.7908 30.3509C28.037 30.3509 27.4237 29.7376 27.4237 28.9839C27.4237 28.2301 28.037 27.6168 28.7908 27.6168Z" fill="white"></path></g><defs><clipPath id="clip0_1467_5182"><rect width="40" height="40" fill="white" transform="translate(5 5)"></rect></clipPath></defs></svg>