<svg xmlns="http://www.w3.org/2000/svg" width="60" height="60" viewBox="0 0 60 60" fill="none"><path d="M18.3072 18.5793C15.6666 21.4887 14.2122 25.2562 14.2122 29.1881V29.6025C12.0735 30.5006 10.5679 32.6156 10.5679 35.0768C10.5679 38.3493 13.2297 41.0112 16.5022 41.0112C19.7747 41.0112 22.4366 38.3493 22.4366 35.0768C22.4366 32.6156 20.9304 30.5006 18.7922 29.6025V29.1881C18.7922 23.8575 22.5716 19.2787 27.7116 18.2125V38.69C25.5729 39.5881 24.0672 41.7031 24.0672 44.1643C24.0672 47.4362 26.7291 50.0987 30.0016 50.0987C33.2741 50.0987 35.936 47.4368 35.936 44.1643C35.936 41.7037 34.4297 39.5881 32.2916 38.69V18.2125C37.4316 19.2787 41.211 23.8568 41.211 29.1881V29.6025C39.0722 30.5006 37.5666 32.6156 37.5666 35.0768C37.5666 38.3493 40.2285 41.0112 43.501 41.0112C46.7729 41.0112 49.4354 38.3493 49.4354 35.0768C49.4354 32.6156 47.9291 30.5006 45.7904 29.6025V29.1881C45.7904 25.2562 44.336 21.4887 41.6954 18.5793C39.2222 15.8543 35.9035 14.09 32.2916 13.5643V11.3625H33.3135C33.7166 11.3625 34.0441 11.0356 34.0441 10.6318C34.0441 10.2287 33.7172 9.90122 33.3135 9.90122H26.6891C26.286 9.90122 25.9585 10.2281 25.9585 10.6318C25.9585 11.035 26.2854 11.3625 26.6891 11.3625H27.711V13.565C24.0991 14.09 20.7804 15.855 18.3072 18.5793ZM20.9747 35.0768C20.9747 37.5437 18.9679 39.5506 16.5016 39.5506C14.0347 39.5506 12.0279 37.5437 12.0279 35.0768C12.0279 32.61 14.0347 30.6031 16.5016 30.6031C18.9679 30.6031 20.9747 32.61 20.9747 35.0768ZM34.4741 44.1643C34.4741 46.6312 32.4672 48.6375 30.0004 48.6375C27.5335 48.6375 25.5272 46.6306 25.5272 44.1643C25.5272 41.6975 27.5341 39.6912 30.0004 39.6912C32.4672 39.6906 34.4741 41.6975 34.4741 44.1643ZM47.9729 35.0768C47.9729 37.5437 45.966 39.5506 43.4991 39.5506C41.0322 39.5506 39.0254 37.5437 39.0254 35.0768C39.0254 32.61 41.0322 30.6031 43.4991 30.6031C45.966 30.6031 47.9729 32.61 47.9729 35.0768ZM30.8291 11.3625V14.21C30.8291 14.5843 31.1122 14.8981 31.4847 14.9362C38.8066 15.6893 44.3279 21.8162 44.3279 29.1881V29.2012C44.0566 29.1631 43.7804 29.1418 43.4991 29.1418C43.2179 29.1418 42.9416 29.1631 42.6704 29.2012V29.1881C42.6704 22.845 37.9341 17.4437 31.6541 16.625C31.4454 16.5975 31.236 16.6618 31.0779 16.8006C30.9197 16.9393 30.8291 17.1393 30.8291 17.3493V38.2893C30.5579 38.2512 30.2816 38.23 30.0004 38.23C29.7191 38.23 29.4429 38.2512 29.1716 38.2893V17.3493C29.1716 17.1393 29.081 16.9393 28.9229 16.8006C28.7647 16.6618 28.5547 16.5981 28.3466 16.625C22.066 17.4437 17.3304 22.845 17.3304 29.1881V29.2012C17.0591 29.1631 16.7829 29.1418 16.5016 29.1418C16.2204 29.1418 15.9441 29.1631 15.6729 29.2012V29.1881C15.6729 21.8162 21.1941 15.6893 28.516 14.9362C28.8885 14.8981 29.1716 14.5843 29.1716 14.21V11.3625H30.8291ZM16.5016 36.9231C16.9047 36.9231 17.2322 37.25 17.2322 37.6537C17.2322 38.0575 16.9054 38.3843 16.5016 38.3843C14.6779 38.3843 13.1941 36.9006 13.1941 35.0775C13.1941 34.6743 13.521 34.3468 13.9247 34.3468C14.3279 34.3468 14.6554 34.6737 14.6554 35.0775C14.6554 36.095 15.4835 36.9231 16.5016 36.9231ZM43.4991 36.9231C44.5172 36.9231 45.3454 36.095 45.3454 35.0768C45.3454 34.6737 45.6722 34.3462 46.076 34.3462C46.4797 34.3462 46.8066 34.6731 46.8066 35.0768C46.8066 36.9006 45.3229 38.3837 43.4997 38.3837C43.0966 38.3837 42.7691 38.0568 42.7691 37.6531C42.7691 37.2493 43.096 36.9231 43.4991 36.9231ZM30.0004 46.0106C31.0185 46.0106 31.8466 45.1825 31.8466 44.1643C31.8466 43.7612 32.1735 43.4337 32.5772 43.4337C32.981 43.4337 33.3079 43.7606 33.3079 44.1643C33.3079 45.9881 31.8241 47.4712 30.001 47.4712C29.5979 47.4712 29.2704 47.1443 29.2704 46.7406C29.2697 46.3375 29.5972 46.0106 30.0004 46.0106ZM49.8847 48.8518C50.1704 49.1368 50.1704 49.5993 49.8847 49.885C44.5735 55.1956 37.5116 58.1212 30.0004 58.1212C22.4891 58.1212 15.4272 55.1962 10.116 49.885C6.06349 45.8325 3.376 40.7218 2.34412 35.1068C1.336 29.6225 1.95975 24.0237 4.14725 18.9168C4.306 18.5462 4.73537 18.3737 5.10599 18.5331C5.47662 18.6918 5.6485 19.1212 5.48975 19.4918C1.17162 29.5718 3.39287 41.0962 11.1479 48.8518C16.1841 53.8868 22.8791 56.66 30.0004 56.66C37.1216 56.66 43.8166 53.8868 48.8522 48.8512C49.1372 48.5662 49.5997 48.5662 49.8847 48.8518ZM55.8529 41.0831C55.7341 41.36 55.4647 41.5262 55.181 41.5262C55.0847 41.5262 54.9879 41.5075 54.8935 41.4668C54.5229 41.3081 54.351 40.8787 54.5097 40.5081C58.8279 30.4281 56.6066 18.9037 48.8516 11.1487C43.8166 6.1131 37.1216 3.33997 30.0004 3.33997C22.8791 3.33997 16.1841 6.1131 11.1485 11.1481C10.8635 11.4331 10.401 11.4331 10.1154 11.1481C9.82975 10.8631 9.82975 10.4006 10.1154 10.115C15.4272 4.80435 22.4891 1.87872 30.0004 1.87872C37.5116 1.87872 44.5735 4.80372 49.8847 10.115C53.9372 14.1675 56.6247 19.2775 57.656 24.8931C58.6641 30.3781 58.0404 35.9762 55.8529 41.0831ZM4.92662 16.3375C4.74225 16.1531 4.66975 15.8837 4.73725 15.6318L6.93037 7.44622C7.03475 7.05685 7.436 6.8256 7.82475 6.92997C8.21475 7.03435 8.44537 7.43497 8.341 7.82435L6.47537 14.7875L13.4391 12.9218C13.8285 12.8168 14.2291 13.0487 14.3335 13.4381C14.4379 13.8275 14.2066 14.2281 13.8172 14.3325L5.63224 16.5268C5.56974 16.5437 5.50599 16.5518 5.44349 16.5518C5.25162 16.5518 5.06537 16.4762 4.92662 16.3375ZM55.0741 43.6625C55.2585 43.8468 55.331 44.1162 55.2635 44.3681L53.0704 52.5537C52.9829 52.88 52.6879 53.0956 52.3654 53.0956C52.3029 53.0956 52.2391 53.0875 52.176 53.0706C51.786 52.9662 51.5554 52.5656 51.6597 52.1762L53.5254 45.2125L46.5616 47.0781C46.1716 47.1825 45.7716 46.9512 45.6672 46.5618C45.5629 46.1718 45.7941 45.7718 46.1835 45.6675L54.3691 43.4743C54.621 43.4056 54.8897 43.4775 55.0741 43.6625Z" fill="#273A2B"></path></svg>