<svg xmlns="http://www.w3.org/2000/svg" width="51" height="51" viewBox="0 0 51 51" fill="none"><path d="M17.7589 0.000389092C12.8912 0.000389092 8.90286 3.86198 8.67359 8.67444C3.85377 8.90291 0 12.8839 0 17.759C0 21.029 1.73819 23.8937 4.33349 25.5C1.73819 27.1065 0 29.971 0 33.2408C0 38.1161 3.85377 42.0975 8.67359 42.326C8.90286 47.1388 12.8913 50.9994 17.7589 50.9994C21.6536 50.9994 24.3583 49.8151 26.0892 47.7613C26.2968 47.5151 26.4106 47.2034 26.4107 46.8814V26.8665H33.2411V43.7144C33.2411 45.6958 34.8763 47.3313 36.8578 47.3313H41.1675C41.7589 49.4383 43.7044 51 45.9911 51C48.7412 51 51 48.7416 51 45.9913C51 43.2412 48.7412 40.9823 45.9911 40.9823C43.7234 40.9823 41.7914 42.5186 41.1827 44.5989H36.8578C36.353 44.5989 35.9731 44.2189 35.9731 43.7142V26.8663H41.175C41.7752 28.9601 43.714 30.5091 45.9911 30.5091C48.7412 30.5091 51 28.2503 51 25.5001C51 22.75 48.7412 20.4913 45.9911 20.4913C43.714 20.4913 41.7752 22.0404 41.175 24.1341H35.9731V7.28617C35.9731 6.78129 36.353 6.40131 36.8578 6.40131H41.1824C41.791 8.48191 43.7233 10.0183 45.9911 10.0183C48.7412 10.0183 51 7.75949 51 5.0093C51 2.25911 48.7412 0.000354352 45.9911 0.000354352C43.7046 0.000354352 41.7593 1.5622 41.1678 3.66898H36.8578C34.8763 3.66898 33.2411 5.30459 33.2411 7.28604V24.1339H26.4107V4.1191C26.4107 3.79704 26.2969 3.48534 26.0895 3.23901C24.3585 1.1847 21.6536 0.000113837 17.7589 0V0.000389092ZM17.7589 2.73248C20.8641 2.7326 22.4952 3.43532 23.6786 4.65598V46.3443C22.4952 47.5646 20.864 48.2672 17.7589 48.2672C14.2212 48.2672 11.3841 45.4301 11.3841 41.8922C11.3841 41.6467 11.3991 41.3994 11.4277 41.1513C11.7918 37.967 14.4722 35.5172 17.7589 35.5172C17.9383 35.5172 18.1159 35.4819 18.2817 35.4133C18.4474 35.3446 18.598 35.244 18.7249 35.1172C18.8517 34.9903 18.9524 34.8397 19.021 34.674C19.0897 34.5082 19.125 34.3306 19.125 34.1512C19.125 33.9718 19.0897 33.7941 19.021 33.6284C18.9524 33.4627 18.8517 33.3121 18.7249 33.1852C18.598 33.0584 18.4474 32.9577 18.2817 32.8891C18.1159 32.8204 17.9383 32.7851 17.7589 32.7851C13.5336 32.7851 9.96215 35.6923 8.94329 39.6075C5.46643 39.5217 2.73224 36.7403 2.73224 33.2405C2.73224 29.6856 5.55192 26.8657 9.10721 26.8657C9.46646 26.8611 9.80943 26.7151 10.0618 26.4594C10.3142 26.2038 10.4558 25.859 10.4558 25.4997C10.4558 25.1404 10.3142 24.7956 10.0618 24.5399C9.80943 24.2842 9.46646 24.1383 9.10721 24.1336C5.55192 24.1336 2.73224 21.3138 2.73224 17.7586C2.73224 14.2589 5.46643 11.478 8.94329 11.3922C9.96226 15.3073 13.5336 18.214 17.7589 18.214C17.9383 18.214 18.1159 18.1787 18.2817 18.11C18.4474 18.0414 18.598 17.9408 18.7249 17.8139C18.8517 17.6871 18.9524 17.5365 19.021 17.3707C19.0897 17.205 19.125 17.0273 19.125 16.8479C19.125 16.6685 19.0897 16.4909 19.021 16.3251C18.9524 16.1594 18.8517 16.0088 18.7249 15.882C18.598 15.7551 18.4474 15.6545 18.2817 15.5858C18.1159 15.5172 17.9383 15.4819 17.7589 15.4819C14.4722 15.4819 11.7918 13.0328 11.4277 9.84843C11.3991 9.60014 11.3841 9.35277 11.3841 9.10711C11.3841 5.57019 14.2213 2.73212 17.7589 2.73212V2.73248ZM45.9909 2.73248C47.2645 2.73248 48.2676 3.73575 48.2676 5.00922C48.2676 6.28284 47.2645 7.28597 45.9909 7.28597C44.7171 7.28597 43.714 6.28281 43.714 5.00922C43.714 3.73573 44.7171 2.73248 45.9909 2.73248ZM45.9909 23.2232C47.2645 23.2232 48.2676 24.2264 48.2676 25.4999C48.2676 26.7735 47.2645 27.7767 45.9909 27.7767C44.7171 27.7767 43.714 26.7735 43.714 25.4999C43.714 24.2264 44.7171 23.2232 45.9909 23.2232ZM45.9909 43.7139C47.2645 43.7139 48.2676 44.7171 48.2676 45.9906C48.2676 47.2642 47.2645 48.2674 45.9909 48.2674C44.7171 48.2674 43.714 47.2642 43.714 45.9906C43.714 44.7171 44.7171 43.7139 45.9909 43.7139Z" fill="#273A2B"></path></svg>