<svg xmlns="http://www.w3.org/2000/svg" id="Icons" viewBox="0 0 60 60"><path d="m30 21c-4.963 0-9 4.037-9 9s4.037 9 9 9 9-4.037 9-9-4.037-9-9-9zm0 16c-3.859 0-7-3.141-7-7s3.141-7 7-7 7 3.141 7 7-3.141 7-7 7z"></path><path d="m59 24c.553 0 1-.447 1-1s-.447-1-1-1c-3.618 0-4.88 2.524-5.895 4.553-.244.488-.503.89-.776 1.229-.015.018-.03.033-.044.052-.652.784-1.396 1.167-2.286 1.167h-2.643c-2.807-2.168-4.483-5.54-4.483-9.096 0-.531.037-1.006.096-1.46l1.88-1.88c.648-.648 1.058-1.41 1.256-2.268 1.084.544 2.14.781 3.128.781 1.965 0 3.666-.906 4.808-2.048.391-.391.391-1.023 0-1.414s-1.023-.391-1.414 0c-.692.693-3.164 2.697-6.488.371-.075-.448-.18-.91-.342-1.395-.756-2.267-1.138-3.737.466-5.34.391-.391.391-1.023 0-1.414s-1.023-.391-1.414 0c-2.559 2.558-1.666 5.234-.949 7.387.173.519.275.989.32 1.423.002.02.002.039.005.059.094 1.017-.161 1.816-.79 2.444l-1.881 1.881c-4.062.526-8.052-1.134-10.554-4.376v-2.656c0-.916-.248-1.744-.713-2.49 3.44-1.141 4.713-4.082 4.713-6.51 0-.553-.447-1-1-1s-1 .447-1 1c0 .98-.331 4.143-4.324 4.85-.37-.264-.77-.516-1.228-.745-2.138-1.068-3.447-1.839-3.447-4.105-.001-.553-.448-1-1.001-1s-1 .447-1 1c0 3.618 2.524 4.88 4.553 5.895.467.234.857.481 1.187.741.019.018.039.034.06.05.807.659 1.201 1.412 1.201 2.314v2.643c-2.168 2.807-5.54 4.483-9.096 4.483-.531 0-1.006-.037-1.46-.096l-1.88-1.88c-.647-.647-1.408-1.057-2.265-1.256 1.626-3.24.447-6.22-1.27-7.937-.391-.391-1.023-.391-1.414 0s-.391 1.023 0 1.414c.693.693 2.696 3.164.371 6.488-.448.075-.91.18-1.395.342-2.266.756-3.737 1.137-5.34-.466-.391-.391-1.023-.391-1.414 0s-.391 1.023 0 1.414c2.559 2.559 5.236 1.666 7.387.949.478-.159.915-.26 1.32-.311.004 0 .007.002.011.002.006 0 .012-.004.019-.004 1.083-.131 1.92.122 2.577.779l1.88 1.88c.059.454.096.929.096 1.46 0 3.556-1.676 6.927-4.483 9.096h-2.643c-.916 0-1.744.248-2.49.713-1.141-3.44-4.082-4.713-6.51-4.713-.553 0-1 .447-1 1s.447 1 1 1c.98 0 4.143.331 4.85 4.325-.264.37-.516.77-.745 1.228-1.068 2.138-1.839 3.447-4.105 3.447-.553 0-1 .447-1 1s.447 1 1 1c3.618 0 4.88-2.524 5.895-4.553.244-.488.503-.89.776-1.229.015-.018.03-.033.044-.052.652-.784 1.396-1.167 2.286-1.167h2.643c2.807 2.168 4.483 5.54 4.483 9.096 0 .531-.037 1.006-.096 1.46l-1.88 1.88c-.647.647-1.057 1.408-1.256 2.266-3.239-1.625-6.221-.447-7.937 1.269-.391.391-.391 1.023 0 1.414.195.195.451.293.707.293s.512-.098.707-.293c.693-.693 3.165-2.697 6.488-.371.075.448.18.91.342 1.396.756 2.267 1.138 3.737-.466 5.34-.391.391-.391 1.023 0 1.414.195.195.451.293.707.293s.512-.098.707-.293c2.559-2.558 1.666-5.234.949-7.387-.173-.519-.275-.989-.32-1.423-.002-.02-.002-.039-.005-.059-.094-1.017.161-1.816.79-2.444l1.88-1.88c.454-.059.929-.096 1.46-.096 3.556 0 6.927 1.676 9.096 4.483v2.643c0 .916.248 1.744.713 2.49-3.44 1.141-4.713 4.082-4.713 6.51 0 .553.447 1 1 1s1-.447 1-1c0-.98.331-4.143 4.325-4.85.37.264.77.516 1.228.745 2.138 1.068 3.447 1.839 3.447 4.105 0 .553.447 1 1 1s1-.447 1-1c0-3.618-2.524-4.88-4.553-5.895-.478-.239-.875-.493-1.21-.76-.024-.021-.047-.043-.074-.062-.782-.652-1.164-1.395-1.164-2.283v-2.643c2.168-2.807 5.54-4.483 9.096-4.483.531 0 1.006.037 1.46.096l1.88 1.88c.647.647 1.408 1.057 2.265 1.256-1.626 3.24-.447 6.22 1.27 7.937.195.195.451.293.707.293s.512-.098.707-.293c.391-.391.391-1.023 0-1.414-.693-.693-2.696-3.163-.371-6.488.448-.075.91-.18 1.396-.342 2.268-.755 3.737-1.137 5.34.466.195.195.451.293.707.293s.512-.098.707-.293c.391-.391.391-1.023 0-1.414-2.558-2.558-5.235-1.666-7.387-.949-.518.173-.986.275-1.419.321-.023.002-.045.002-.067.006-1.015.093-1.811-.163-2.44-.791l-1.88-1.88c-.059-.454-.096-.929-.096-1.46 0-3.556 1.676-6.927 4.483-9.096h2.643c.916 0 1.744-.248 2.49-.713 1.141 3.44 4.082 4.713 6.51 4.713.553 0 1-.447 1-1s-.447-1-1-1c-.98 0-4.143-.331-4.85-4.325.264-.37.516-.77.745-1.228 1.068-2.138 1.839-3.447 4.105-3.447zm-18.126 16.096c0 .275.007.541.021.799-.258-.014-.523-.021-.799-.021-3.863 0-7.55 1.676-10.096 4.536-2.546-2.86-6.232-4.536-10.096-4.536-.275 0-.541.007-.799.021.014-.258.021-.523.021-.799 0-3.863-1.676-7.55-4.536-10.096 2.86-2.546 4.536-6.232 4.536-10.096 0-.275-.007-.541-.021-.799.258.014.523.021.799.021 3.862 0 7.548-1.675 10.094-4.534 2.752 3.109 6.749 4.77 10.896 4.517-.014.257-.021.521-.021.796 0 3.863 1.676 7.55 4.536 10.096-2.86 2.546-4.536 6.232-4.536 10.096z"></path></svg>