<svg xmlns="http://www.w3.org/2000/svg" width="50" height="50" viewBox="0 0 50 50" fill="none"><rect width="50" height="50" rx="25" fill="#273A2B"></rect><path d="M31.4117 39.5887C35.0504 39.5887 38.0002 36.639 38.0002 33.0002C38.0002 29.3615 35.0504 26.4118 31.4117 26.4118C27.773 26.4118 24.8232 29.3615 24.8232 33.0002C24.8232 36.639 27.773 39.5887 31.4117 39.5887Z" stroke="white" stroke-miterlimit="10" stroke-linecap="round" stroke-linejoin="round"></path><path d="M30.4917 34.3906C29.7944 33.6932 28.8977 33.3854 28.1375 33.4912C28.0317 34.2514 28.3396 35.1481 29.0369 35.8454C29.7342 36.5427 30.6309 36.8506 31.391 36.7447C31.4969 35.9846 31.189 35.0879 30.4917 34.3906Z" stroke="white" stroke-miterlimit="10" stroke-linecap="round" stroke-linejoin="round"></path><path d="M32.3308 34.3906C33.0282 33.6932 33.9248 33.3854 34.685 33.4912C34.7908 34.2514 34.483 35.1481 33.7857 35.8454C33.0883 36.5427 32.1916 36.8506 31.4315 36.7447C31.3256 35.9846 31.6335 35.0879 32.3308 34.3906Z" stroke="white" stroke-miterlimit="10" stroke-linecap="round" stroke-linejoin="round"></path><path d="M30.4707 31.1179C30.4707 30.311 30.8517 29.614 31.4119 29.2354C31.9722 29.614 32.3531 30.3109 32.3531 31.1179C32.3531 31.9248 31.9721 32.6217 31.4119 33.0003C30.8517 32.6217 30.4707 31.9247 30.4707 31.1179Z" stroke="white" stroke-miterlimit="10" stroke-linecap="round" stroke-linejoin="round"></path><path d="M23.1128 34.8827H14V33.9415C14 33.4217 14.4214 33.0003 14.9412 33.0003H22.9415" stroke="white" stroke-miterlimit="10" stroke-linecap="round" stroke-linejoin="round"></path><path d="M21.0596 33.0003V28.4469C21.0596 27.8428 21.5494 27.353 22.1535 27.353C22.631 27.353 23.0616 27.6401 23.2452 28.0808L23.7263 29.2354" stroke="white" stroke-miterlimit="10" stroke-linecap="round" stroke-linejoin="round"></path><path d="M20.4775 14.1761L20.6171 13.8342C20.7153 13.5935 20.99 13.4781 21.2306 13.5763L23.8449 14.6433C24.0856 14.7415 24.201 15.0162 24.1028 15.2568L23.7472 16.1283" stroke="white" stroke-miterlimit="10" stroke-linecap="round" stroke-linejoin="round"></path><path d="M22.6791 18.7425L22.1457 20.0496L19.0957 18.8048C18.855 18.7066 18.7395 18.4319 18.8378 18.1913L19.7917 15.8539" stroke="white" stroke-miterlimit="10" stroke-linecap="round" stroke-linejoin="round"></path><path d="M21.666 13.7542L22.9108 10.7041C23.0091 10.4635 23.2838 10.348 23.5244 10.4462L24.3958 10.8019C24.6365 10.9001 24.752 11.1748 24.6537 11.4154L23.4089 14.4655" stroke="white" stroke-miterlimit="10" stroke-linecap="round" stroke-linejoin="round"></path><path d="M22.377 12.0113L24.1198 12.7226" stroke="white" stroke-miterlimit="10" stroke-linecap="round" stroke-linejoin="round"></path><path d="M21.2737 19.694L20.0289 22.744C19.9307 22.9846 19.656 23.1001 19.4153 23.0019L18.5439 22.6462C18.3033 22.548 18.1878 22.2733 18.286 22.0327L19.5308 18.9827" stroke="white" stroke-miterlimit="10" stroke-linecap="round" stroke-linejoin="round"></path><path d="M20.5632 21.4369L18.8203 20.7255" stroke="white" stroke-miterlimit="10" stroke-linecap="round" stroke-linejoin="round"></path><path d="M23.2135 18.8472C23.9933 18.8472 24.6253 18.2151 24.6253 17.4354C24.6253 16.6557 23.9933 16.0236 23.2135 16.0236C22.4338 16.0236 21.8018 16.6557 21.8018 17.4354C21.8018 18.2151 22.4338 18.8472 23.2135 18.8472Z" stroke="white" stroke-miterlimit="10" stroke-linecap="round" stroke-linejoin="round"></path><path d="M21.0435 27.7324L14.5078 25.0649C14.2671 24.9667 14.1516 24.692 14.2499 24.4514L14.6055 23.5799C14.7037 23.3393 14.9784 23.2238 15.2191 23.322L21.319 25.8116C21.5597 25.9098 21.6751 26.1845 21.5769 26.4252L21.0435 27.7324Z" stroke="white" stroke-miterlimit="10" stroke-linecap="round" stroke-linejoin="round"></path><path d="M23.7471 16.1283L26.3614 17.1953C27.8052 17.7846 28.498 19.4327 27.9086 20.8765L25.3669 27.1042" stroke="white" stroke-miterlimit="10" stroke-linecap="round" stroke-linejoin="round"></path><path d="M22.1455 20.0497L24.7598 21.1167C25.2411 21.3131 25.472 21.8625 25.2755 22.3438L23.1416 27.5723" stroke="white" stroke-miterlimit="10" stroke-linecap="round" stroke-linejoin="round"></path><path d="M17.4424 30.329L14.8281 29.262C14.5874 29.1637 14.472 28.889 14.5702 28.6484L14.9258 27.777C15.024 27.5363 15.2987 27.4208 15.5394 27.5191L18.1537 28.5861C18.3943 28.6843 18.5098 28.959 18.4116 29.1996L18.0559 30.0711C17.9577 30.3117 17.683 30.4271 17.4424 30.329Z" stroke="white" stroke-miterlimit="10" stroke-linecap="round" stroke-linejoin="round"></path><path d="M21.0442 27.7323L18.9346 32.9012" stroke="white" stroke-miterlimit="10" stroke-linecap="round" stroke-linejoin="round"></path><path d="M18.2334 29.6353L19.9762 30.3466" stroke="white" stroke-miterlimit="10" stroke-linecap="round" stroke-linejoin="round"></path></svg>