<svg xmlns="http://www.w3.org/2000/svg" width="50" height="50" viewBox="0 0 50 50" fill="none"><rect width="50" height="50" rx="25" fill="#E3C577"></rect><path d="M7 24.5C7 22.7731 8.89625 21.2005 12.3394 20.0719C12.8433 19.9068 13.3727 19.7531 13.9245 19.6113C13.7406 19.3413 13.5655 19.0749 13.4 18.8129C11.5136 15.826 11.0848 13.814 12.1255 12.8328C12.4887 12.4904 12.9982 12.3168 13.6401 12.3168C14.9969 12.3168 16.9919 13.1166 19.3165 14.5229C19.4664 14.0048 19.6287 13.5076 19.8032 13.0343C21.0004 9.78789 22.6683 8 24.5 8C26.3316 8 27.9995 9.78789 29.1966 13.0343C29.3711 13.5075 29.5335 14.0047 29.6834 14.5229C32.0079 13.1166 34.0029 12.3168 35.3598 12.3168C36.0017 12.3168 36.5112 12.4903 36.8743 12.8328C37.915 13.814 37.4862 15.826 35.5999 18.8129C35.4345 19.0749 35.2593 19.3412 35.0754 19.6113C35.6272 19.7532 36.1567 19.9068 36.6606 20.072C40.1038 21.2005 42 22.7731 42 24.5C42 26.2269 40.1038 27.7994 36.6606 28.9281C36.1567 29.0933 35.6272 29.2469 35.0754 29.3888C35.2593 29.6588 35.4345 29.9251 35.5999 30.1871C37.4863 33.1741 37.915 35.186 36.8743 36.1673C36.5112 36.5097 36.0017 36.6833 35.3598 36.6833C34.003 36.6833 32.008 35.8834 29.6834 34.4772C29.5335 34.9953 29.3712 35.4925 29.1966 35.9658C27.9995 39.2121 26.3315 41 24.5 41C22.6684 41 21.0004 39.2121 19.8033 35.9657C19.6288 35.4925 19.4665 34.9953 19.3165 34.4771C16.992 35.8834 14.997 36.6832 13.6401 36.6832C12.9983 36.6832 12.4888 36.5097 12.1257 36.1672C11.0849 35.186 11.5137 33.174 13.4001 30.1871C13.5655 29.9251 13.7407 29.6587 13.9246 29.3887C13.3728 29.2469 12.8434 29.0932 12.3395 28.9281C8.89625 27.7994 7 26.2269 7 24.5ZM13.6401 13.3813C13.3087 13.3813 13.0677 13.45 12.9239 13.5855C12.4869 13.9975 12.6035 15.471 14.3702 18.2682C14.5906 18.6172 14.8289 18.9745 15.0831 19.3383C16.1376 19.1106 17.2593 18.9231 18.4309 18.7779C18.5848 17.6736 18.7836 16.6164 19.0249 15.6226C16.6337 14.1401 14.7312 13.3813 13.6401 13.3813ZM21.0643 21.2607C21.711 20.6509 22.3587 20.0642 23.0028 19.5028C21.7835 19.5379 20.5922 19.6159 19.4452 19.7344C19.3195 20.8163 19.2368 21.94 19.1996 23.0902C19.7985 22.4785 20.4211 21.8671 21.0643 21.2607ZM19.3658 24.5C20.1528 25.3293 20.9883 26.1621 21.8627 26.9866C22.7598 27.8324 23.6415 28.6175 24.5 29.3421C25.3584 28.6175 26.2402 27.8324 27.1373 26.9866C28.0117 26.1621 28.8473 25.3293 29.6342 24.5C28.8473 23.6707 28.0117 22.8379 27.1373 22.0134C26.2401 21.1676 25.3584 20.3825 24.5 19.6579C23.6416 20.3825 22.7599 21.1676 21.8627 22.0134C20.9883 22.8379 20.1527 23.6707 19.3658 24.5ZM23.005 18.4378C21.9625 17.6166 20.9651 16.8931 20.029 16.2689C19.8567 17.0285 19.7093 17.8246 19.5879 18.6499C20.6942 18.542 21.8377 18.4707 23.005 18.4378ZM25.997 19.5027C26.6412 20.0642 27.2889 20.6509 27.9356 21.2607C28.5787 21.8671 29.2014 22.4785 29.8003 23.0902C29.763 21.94 29.6804 20.8163 29.5546 19.7344C28.4077 19.6159 27.2164 19.5379 25.997 19.5027ZM29.412 18.6499C29.2906 17.8246 29.1432 17.0285 28.9709 16.2689C28.0348 16.893 27.0374 17.6166 25.9949 18.4378C27.1622 18.4707 28.3057 18.542 29.412 18.6499ZM30.9297 23.0884C31.776 22.1334 32.5483 21.1927 33.2304 20.2848C32.4247 20.1223 31.5802 19.9833 30.7048 19.8688C30.8192 20.9112 30.8947 21.9887 30.9297 23.0884ZM29.8003 25.9098C29.2014 26.5215 28.5787 27.1329 27.9356 27.7393C27.2889 28.3491 26.6412 28.9358 25.997 29.4973C27.2164 29.4621 28.4077 29.3841 29.5547 29.2656C29.6804 28.1837 29.7631 27.06 29.8003 25.9098ZM30.7047 29.1312C31.5802 29.0167 32.4246 28.8777 33.2303 28.7152C32.5482 27.8073 31.7759 26.8665 30.9296 25.9116C30.8947 27.0113 30.8192 28.0888 30.7047 29.1312ZM25.9949 30.5622C27.0374 31.3834 28.0348 32.107 28.9709 32.7311C29.1433 31.9715 29.2906 31.1754 29.412 30.3501C28.3057 30.458 27.1622 30.5293 25.9949 30.5622ZM23.0029 29.4973C22.3587 28.9358 21.7111 28.3491 21.0644 27.7394C20.4212 27.133 19.7986 26.5216 19.1996 25.9099C19.2369 27.0601 19.3195 28.1838 19.4453 29.2656C20.5923 29.3841 21.7835 29.4621 23.0029 29.4973ZM19.5879 30.35C19.7093 31.1753 19.8567 31.9715 20.029 32.7311C20.9651 32.1069 21.9625 31.3834 23.005 30.5622C21.8377 30.5293 20.6942 30.458 19.5879 30.35ZM18.0702 25.9116C17.2239 26.8666 16.4517 27.8073 15.7696 28.7152C16.5752 28.8777 17.4198 29.0167 18.2951 29.1312C18.1807 28.0888 18.1052 27.0113 18.0702 25.9116ZM18.2951 19.8688C17.4197 19.9833 16.5752 20.1223 15.7696 20.2848C16.4517 21.1927 17.2239 22.1335 18.0702 23.0884C18.1052 21.9887 18.1807 20.9112 18.2951 19.8688ZM28.1301 13.3839C27.118 10.6389 25.7948 9.06452 24.5 9.06452C23.2051 9.06452 21.8819 10.6389 20.8698 13.3839C20.6653 13.9385 20.4779 14.5278 20.3086 15.1469C21.636 16.0125 23.0502 17.0534 24.5 18.2384C25.9498 17.0534 27.364 16.0125 28.6914 15.1469C28.522 14.5278 28.3347 13.9386 28.1301 13.3839ZM34.6298 18.2683C36.3963 15.4711 36.5129 13.9975 36.076 13.5856C35.9322 13.45 35.6913 13.3813 35.3597 13.3813C34.2686 13.3813 32.3661 14.1401 29.9749 15.6227C30.2162 16.6165 30.4151 17.6738 30.5689 18.778C31.7406 18.9231 32.8623 19.1108 33.9167 19.3384C34.171 18.9745 34.4094 18.6172 34.6298 18.2683ZM36.2898 27.9227C39.2012 26.9683 40.871 25.7208 40.871 24.5C40.871 23.2792 39.2012 22.0317 36.2898 21.0773C35.6996 20.8838 35.0724 20.7067 34.4134 20.5466C33.4835 21.8151 32.3774 23.1495 31.1377 24.4999C32.3774 25.8504 33.4835 27.1848 34.4134 28.4533C35.0724 28.2932 35.6996 28.1162 36.2898 27.9227ZM35.3597 35.6187C35.6913 35.6187 35.9322 35.55 36.076 35.4145C36.5129 35.0025 36.3963 33.529 34.6298 30.7318C34.4094 30.3828 34.171 30.0255 33.9168 29.6617C32.8624 29.8893 31.7406 30.0769 30.569 30.2221C30.4151 31.3263 30.2162 32.3835 29.975 33.3774C32.3661 34.8599 34.2686 35.6187 35.3597 35.6187ZM20.8698 35.6161C21.8819 38.3611 23.2051 39.9355 24.5 39.9355C25.7948 39.9355 27.118 38.3611 28.1302 35.6161C28.3347 35.0615 28.5221 34.4722 28.6914 33.8531C27.364 32.9875 25.9498 31.9466 24.5 30.7616C23.0502 31.9466 21.6361 32.9875 20.3086 33.8531C20.4779 34.4722 20.6652 35.0614 20.8698 35.6161ZM14.3702 30.7318C12.6035 33.529 12.4869 35.0026 12.924 35.4145C13.0676 35.55 13.3086 35.6187 13.6401 35.6187C14.7313 35.6187 16.6338 34.8599 19.025 33.3774C18.7837 32.3835 18.5848 31.3263 18.431 30.2221C17.2594 30.0769 16.1376 29.8894 15.0832 29.6617C14.8289 30.0255 14.5906 30.3828 14.3702 30.7318ZM14.5865 28.4533C15.5164 27.1848 16.6224 25.8504 17.8621 24.5C16.6224 23.1496 15.5163 21.8151 14.5865 20.5467C13.9275 20.7068 13.3004 20.8838 12.7102 21.0774C9.7988 22.0317 8.12903 23.2792 8.12903 24.5C8.12903 25.7208 9.7988 26.9683 12.7102 27.9227C13.3004 28.1162 13.9276 28.2932 14.5865 28.4533Z" fill="#273A2B"></path></svg>