<svg xmlns="http://www.w3.org/2000/svg" id="Layer_1" height="512" viewBox="0 0 50 50" width="512"><g><g><g><g><g><path d="m11.5 48.2v-.6c0-4.6-1-9.1-3-13.2l-2.5-5.2c-.8-1.7-1.3-3.5-1.3-5.4 0-4.4 1.8-8.4 4.8-11.3s7.1-4.7 11.6-4.7c8.7 0 15.9 6.6 16.4 15l.1 2.1c0 .4.2.8.4 1.1l3 4.3c.2.3.4.7.4 1.1 0 1.1-1 1.9-2.1 1.9h-1.7c-.6 0-1.1.5-1.1 1.1v6.4c0 1.2-1.1 2.1-2.4 2.1h-3.7c-1.3 0-2.4 1.1-2.4 2.3v3" style="fill:none;stroke:#000;stroke-linecap:round;stroke-linejoin:round;stroke-miterlimit:10;stroke-width:1.59"></path></g></g></g><g style="fill:none;stroke:#000;stroke-linecap:round;stroke-linejoin:round;stroke-miterlimit:10;stroke-width:1.59"><path d="m23.4 18.9-4.1 5.2 4.1-.4-4.1 5.2"></path><path d="m30.7 22.3c1.1 6.5-4.5 12-11 10.9-3.9-.6-7.1-3.8-7.7-7.7-1.1-6.5 4.5-12 11-10.9 3.9.6 7.1 3.8 7.7 7.7z"></path></g></g><g style="fill:none;stroke:#000;stroke-linecap:round;stroke-linejoin:round;stroke-miterlimit:10;stroke-width:1.59"><path d="m34.2 4 2.2-2.2 2.2 2.2"></path><path d="m36.4 1.8v9.9"></path><g><path d="m40.8 7.8 2.2-2.2 2.2 2.2"></path><path d="m43 5.6v9.9"></path></g></g></g></svg>