<svg xmlns="http://www.w3.org/2000/svg" clip-rule="evenodd" fill-rule="evenodd" stroke-linejoin="round" stroke-miterlimit="2" viewBox="0 0 510 510"><path d="m74.085 341.143-35.506 36.89c-2.1 2.181-5.25 2.991-8.141 2.091-2.891-.899-5.026-3.354-5.517-6.341l-17.815-108.352c-.527-3.207.938-6.414 3.708-8.115l46.758-28.711c6.927-74.606 35.74-137.795 75.305-172.825 3.026-2.68 7.577-2.681 10.604-.002 26.007 23.014 47.368 58.2 60.921 100.793 6.575-12.608 14.233-27.291 14.233-27.291 2.581-4.999 7.341-7.802 12.755-7.802h214.872c5.526 0 10.245 2.825 12.815 7.802l43.016 82.483c.596 1.142.907 2.411.907 3.699 0 18.63-10.865 34.724-26.595 42.325v135.963c0 4.418-3.582 8-8 8h-259.097c-4.419 0-8-3.582-8-8v-52.618l-13.027.001-.01 36.745c-.001 4.418-3.583 7.998-8 7.998h-84.182c-2.123 0-4.158-.843-5.658-2.344s-2.343-3.536-2.342-5.658l.009-36.732zm-17.811-92.966-32.508 19.962 14.353 87.299 23.928-24.86c-3.938-21.291-6.066-43.849-6.077-67.19v-.005c0-5.109.103-10.179.304-15.206zm154.403-69.036c2.199 9.18 4.051 18.634 5.528 28.321h38.442l18.414-69.984h-40.656zm7.601 44.321c.182 1.703.353 3.412.512 5.126l20.391 12.529c6.09-4.129 10.639-10.362 12.588-17.655zm1.808 24.702c.202 5.032.304 10.107.304 15.22 0 23.361-2.118 45.917-6.067 67.203l23.927 24.844 14.344-87.294zm-47.805 92.97-68.183.006-.007 28.736h68.182zm288.124-78.889c-1.467.138-2.953.208-4.456.208-16.244 0-30.584-8.237-39.041-20.763-8.438 12.527-22.754 20.763-39.001 20.763-16.29 0-30.619-8.237-39.06-20.765-8.457 12.528-22.797 20.765-39.042 20.765-16.247 0-30.562-8.236-39.001-20.763-2.056 3.045-4.459 5.837-7.153 8.318l11.896 7.309c2.769 1.701 4.233 4.907 3.706 8.114l-1.62 9.86h60.941c4.418 0 8 3.582 8 8v42.63c0 4.418-3.582 8-8 8h-70.575l-6.548 39.85c-.491 2.987-2.626 5.441-5.516 6.341s-6.041.091-8.141-2.089l-20.486-21.272v28.999h138.657v-81.716c0-7.237 6.227-13.716 14.438-13.716h58.487c8.236 0 14.378 6.457 14.378 13.716v81.715h17.137zm-190.549-38.783c3.525 13.242 15.594 22.991 29.949 22.991 14.358 0 26.468-9.747 30.006-22.991zm78.042 0c3.528 13.244 15.611 22.991 30.009 22.991 14.355 0 26.424-9.749 29.95-22.991zm78.045 0c3.538 13.244 15.648 22.991 30.006 22.991s26.467-9.747 30.006-22.991zm55.862-16-36.497-69.984h-40.657l18.414 69.984zm-93.699-69.984h-41.25v69.984h59.665zm-57.25 0h-41.25l-18.415 69.984h59.665zm41.109 248.272c13.15 0 30.334-.001 55.303-.001v-79.431h-55.303zm-106.961-94.459-4.376 26.63h59.946v-26.63zm-187.681 33.851 121.729-.01c3.481-19.614 5.338-40.327 5.338-61.748 0-80.68-26.274-151.506-66.209-190.679-39.925 39.182-66.2 109.987-66.211 190.677.01 21.412 1.878 42.135 5.353 61.76zm23.712-140.364c20.524-20.523 53.78-20.509 74.29 0 20.509 20.51 20.523 53.766 0 74.29-20.511 20.51-53.768 20.499-74.278-.012-20.511-20.51-20.523-53.767-.012-74.278zm11.314 11.314c-14.263 14.262-14.251 37.388.011 51.651 14.263 14.262 37.389 14.274 51.651.011 14.273-14.272 14.263-37.399 0-51.662s-37.39-14.273-51.662 0zm-7.088 204.787c0-4.415 3.584-8 8-8 4.415 0 8 3.585 8 8v25.086c0 4.415-3.585 8-8 8-4.416 0-8-3.585-8-8zm49.862 0c0-4.415 3.584-8 8-8 4.415 0 8 3.585 8 8v25.086c0 4.415-3.585 8-8 8-4.416 0-8-3.585-8-8zm-24.943.002c-.001-4.415 3.582-8.001 7.998-8.002 4.415-.001 8.001 3.583 8.002 7.998l.012 47.351c.001 4.416-3.583 8.001-7.998 8.002-4.416.002-8.001-3.582-8.002-7.998z"></path></svg>