<svg xmlns="http://www.w3.org/2000/svg" width="50" height="50" viewBox="0 0 50 50" fill="none"><rect width="50" height="50" rx="25" fill="#E3C577"></rect><g clip-path="url(#clip0_1557_48137)"><path d="M18.7813 24.8058C18.7709 24.7574 18.7516 24.7113 18.7245 24.6699C18.7152 24.6529 18.7078 24.6352 18.6968 24.6189C18.6717 24.581 18.6428 24.5457 18.6107 24.5135L16.5486 22.4514C16.4196 22.3229 16.2449 22.2508 16.0628 22.251C15.8807 22.2512 15.7061 22.3236 15.5774 22.4523C15.4486 22.5811 15.3762 22.7557 15.376 22.9378C15.3758 23.1198 15.4479 23.2946 15.5764 23.4236L16.4652 24.3125H11.9375C11.7552 24.3125 11.5803 24.3849 11.4514 24.5138C11.3224 24.6428 11.25 24.8176 11.25 25C11.25 25.1823 11.3224 25.3572 11.4514 25.4861C11.5803 25.615 11.7552 25.6875 11.9375 25.6875H16.4652L15.5764 26.5764C15.5126 26.6402 15.4619 26.716 15.4273 26.7994C15.3927 26.8828 15.3749 26.9722 15.3749 27.0625C15.3749 27.1528 15.3927 27.2422 15.4272 27.3257C15.4618 27.4091 15.5124 27.4849 15.5763 27.5487C15.6401 27.6126 15.7159 27.6632 15.7993 27.6978C15.8828 27.7323 15.9722 27.7501 16.0625 27.7501C16.1527 27.75 16.2422 27.7322 16.3256 27.6977C16.409 27.6631 16.4848 27.6124 16.5486 27.5486L18.6106 25.4865C18.6428 25.4543 18.6716 25.419 18.6968 25.3811C18.7077 25.3648 18.7152 25.3471 18.7245 25.3301C18.7516 25.2886 18.7709 25.2426 18.7812 25.1942C18.7871 25.1743 18.7948 25.1552 18.7989 25.1346C18.8166 25.0457 18.8166 24.9542 18.7989 24.8654C18.7948 24.8448 18.7872 24.8257 18.7813 24.8058Z" fill="#273A2B"></path><path d="M38.0622 24.3126H33.5345L34.4233 23.4237C34.5516 23.2946 34.6235 23.12 34.6233 22.938C34.6231 22.756 34.5507 22.5815 34.422 22.4528C34.2933 22.3241 34.1188 22.2517 33.9368 22.2515C33.7548 22.2512 33.5801 22.3232 33.4511 22.4515L31.389 24.5136C31.3569 24.5458 31.328 24.5811 31.3028 24.619C31.2919 24.6353 31.2845 24.653 31.2752 24.67C31.2481 24.7114 31.2288 24.7575 31.2184 24.8059C31.2125 24.8258 31.2049 24.8449 31.2008 24.8655C31.1831 24.9544 31.1831 25.0458 31.2008 25.1347C31.2049 25.1553 31.2125 25.1744 31.2184 25.1943C31.2288 25.2427 31.2481 25.2888 31.2752 25.3302C31.2845 25.3472 31.2919 25.3649 31.3028 25.3812C31.328 25.4191 31.3569 25.4544 31.389 25.4866L33.4511 27.5487C33.5801 27.6772 33.7548 27.7493 33.9369 27.7491C34.119 27.7489 34.2936 27.6765 34.4223 27.5478C34.5511 27.419 34.6235 27.2444 34.6237 27.0623C34.6239 26.8802 34.5518 26.7055 34.4233 26.5765L33.5345 25.6876H38.0622C38.2445 25.6876 38.4194 25.6152 38.5483 25.4862C38.6772 25.3573 38.7497 25.1824 38.7497 25.0001C38.7497 24.8178 38.6772 24.6429 38.5483 24.514C38.4194 24.385 38.2445 24.3126 38.0622 24.3126Z" fill="#273A2B"></path><path d="M40.3771 13.3132C40.3168 13.2085 40.23 13.1215 40.1254 13.061C40.0208 13.0006 39.9021 12.9687 39.7812 12.9688H26.7188C26.5979 12.9687 26.4792 13.0006 26.3746 13.061C26.27 13.1215 26.1832 13.2085 26.1229 13.3132L25 15.2635L23.8771 13.3132C23.8168 13.2085 23.73 13.1215 23.6254 13.061C23.5208 13.0006 23.4021 12.9687 23.2812 12.9688H10.2188C10.0979 12.9687 9.97922 13.0006 9.87461 13.061C9.77001 13.1215 9.68318 13.2085 9.62289 13.3132L3.09164 24.6569C3.0316 24.7613 3 24.8796 3 25C3 25.1204 3.0316 25.2387 3.09164 25.3431L9.62289 36.6868C9.68319 36.7916 9.77001 36.8785 9.87462 36.939C9.97923 36.9994 10.0979 37.0313 10.2188 37.0312H23.2812C23.4021 37.0313 23.5208 36.9994 23.6254 36.939C23.73 36.8785 23.8168 36.7915 23.8771 36.6868L25 34.7365L26.1229 36.6868C26.1832 36.7915 26.27 36.8785 26.3746 36.939C26.4792 36.9994 26.5979 37.0313 26.7188 37.0312H39.7812C39.9021 37.0313 40.0208 36.9994 40.1254 36.939C40.23 36.8785 40.3168 36.7915 40.3771 36.6868L46.9084 25.3431C46.9684 25.2387 47 25.1204 47 25C47 24.8796 46.9684 24.7613 46.9084 24.6569L40.3771 13.3132ZM26.2484 20.1875H23.7516L25 18.0192L26.2484 20.1875ZM21.3766 25.6875L20.9807 25L21.3766 24.3125H28.6234L29.0193 25L28.6234 25.6875H21.3766ZM27.8317 27.0625L27.0401 28.4375H22.9599L22.1683 27.0625H27.8317ZM22.1683 22.9375L22.9599 21.5625H27.0401L27.8317 22.9375H22.1683ZM22.8838 35.6562H10.6162L4.48074 25L10.6162 14.3438H22.8838L24.2067 16.6414L19.5916 24.6569C19.5316 24.7613 19.5 24.8796 19.5 25C19.5 25.1204 19.5316 25.2387 19.5916 25.3431L24.2067 33.3586L22.8838 35.6562ZM23.7516 29.8125H26.2484L25 31.9808L23.7516 29.8125ZM39.3838 35.6562H27.1162L25.7933 33.3586L30.4084 25.3431C30.4684 25.2387 30.5 25.1204 30.5 25C30.5 24.8796 30.4684 24.7613 30.4084 24.6569L25.7933 16.6414L27.1162 14.3438H39.3838L45.5193 25L39.3838 35.6562Z" fill="#273A2B"></path></g><defs><clipPath id="clip0_1557_48137"><rect width="44" height="44" fill="white" transform="translate(3 3)"></rect></clipPath></defs></svg>