<svg xmlns="http://www.w3.org/2000/svg" id="Layer_1" height="512" viewBox="0 0 470 470" width="512"><g><g><path d="m436.136 459.996h-81.606c1.804-2.264 3.28-4.852 4.31-7.731 4.929-13.784-2.188-29.051-15.869-34.122l27.723-7.068c2.676-.683 4.292-3.405 3.609-6.081-.682-2.676-3.406-4.289-6.08-3.61l-227.84 58.093c-8.377 2.135-16.898-2.412-19.819-10.579-3.102-8.673 1.396-18.281 10.026-21.418l213.572-77.639 25.392 24.038c9.074 8.588 23.719 8.673 32.893.203 9.59-8.857 10.422-23.538 1.893-33.422l-48.921-56.694-4.897-45.216c-3.012-27.815-19.679-51.911-44.594-64.493-.016-.009-.03-.02-.046-.029l-39.813-21.1v-1.822c10.945-8.235 18.492-20.755 20.077-35.062 23.598-24.007 26.878-58.872 6.94-86.161-13.324-18.238-35.943-29.188-62.058-30.043-15.751-.512-34.205 4.388-36.485 22.819-16.862 2.737-27.762 18.158-30.901 44.008-2.055 16.911 5.414 40.997 21.344 49.952 1.654 13.507 8.625 25.382 18.736 33.498v3.309s-39.667 21.213-39.771 21.278c-24.852 12.599-41.467 36.644-44.476 64.428l-4.896 45.217-48.922 56.694c-8.529 9.884-7.697 24.565 1.894 33.422 9.173 8.471 23.818 8.386 32.892-.204l25.835-24.457 94.081 34.201-76.663 27.869-41.932-10.691c-2.681-.683-5.398.933-6.08 3.61-.683 2.676.934 5.398 3.609 6.081l27.723 7.068c-13.681 5.072-20.798 20.338-15.869 34.122 1.03 2.88 2.505 5.467 4.309 7.731h-110.456c-2.762 0-5 2.239-5 5s2.238 5 5 5h431.136c2.762 0 5-2.239 5-5s-2.239-4.999-5-4.999zm-127.599-272.693c17.905 11.749 29.693 30.847 32.041 52.522l5.064 46.765c.109 1.009.522 1.96 1.186 2.729l49.939 57.874c4.986 5.779 4.5 14.363-1.106 19.542-5.424 5.008-13.871 4.957-19.233-.119l-49.165-46.543c-7.563-7.131-13.848-15.413-18.726-24.611zm0 126.783c7.866 10.462 18.034 19.102 27.503 28.066l-27.503 9.998zm-147.285 37.993-26.854-9.762c9.267-8.772 19.187-17.23 26.91-27.45zm.099-55.827c-4.862 9.113-11.112 17.325-18.625 24.411l-49.16 46.537c-5.362 5.075-13.809 5.126-19.231.119-5.608-5.179-6.095-13.763-1.108-19.542l49.939-57.874c.663-.768 1.076-1.72 1.186-2.728l5.064-46.765c2.355-21.744 14.196-40.876 32.183-52.616zm26.343-252.068c-1.877.77-3.103 2.597-3.103 4.626v54.462c-7.916-9.621-12.54-22.715-11.022-35.198 1.942-16.001 8.007-35.175 25.861-35.645 2.734-.072 4.903-2.328 4.868-5.063-.195-14.888 14.357-17.731 26.402-17.329 23.019.753 42.813 10.21 54.309 25.946 20.013 27.392 10.187 51.289 1.454 64.14v-22.86c-.445-3.51-2.433-5.145-5.964-4.906-.51.098-51.304 9.498-87.348-27.056-1.424-1.446-3.579-1.887-5.457-1.117zm6.898 66.413v-50.508c31.132 25.217 67.688 24.414 81.872 22.921v27.586c0 22.572-18.364 40.936-40.937 40.936s-40.935-18.363-40.935-40.935zm62.687 96.641c-18.634 23.628-57.065 3.965-50.187-24.729l6.251-26.08c13.423 6.528 29.649 6.73 43.23.539l6.123 25.54c2.086 8.706.112 17.72-5.417 24.73zm-85.667-25.118 29.005-15.497-3.249 13.555c-5.719 23.863 12.998 47.949 37.526 47.949 24.55 0 43.243-24.097 37.526-47.949l-3.396-14.165 29.512 15.641v152.599h-127.272zm-.36 173.594v-11.463h127.285v11.534l-63.545 23.1zm154.522 66.813 13.622 4.952c8.63 3.137 13.129 12.746 10.027 21.418-2.922 8.167-11.441 12.717-19.82 10.579l-74.372-18.963zm-90.781 23.147 56.171 14.322h-112.343z"></path></g><g><g><circle cx="460.5" cy="462.996" r="6.5"></circle></g></g><g><path d="m148.536 108.635c-1.088-.979-2.273-1.467-3.556-1.465-.611.002-7.351.078-16.484 1.937 1.995-18.207-1.971-33.418-2.164-34.14-1.064-2.871-3.105-4.051-6.124-3.538-.689.185-8.791 2.423-18.825 7.655-7.199-20.686-21.503-35.182-22.165-35.846-1.952-1.954-5.12-1.955-7.073-.001-.678.678-15.269 15.478-22.055 36.65-10.724-5.816-19.604-8.272-20.294-8.458-3.02-.514-5.062.665-6.127 3.538-.193.723-4.162 15.932-2.167 34.14-9.132-1.858-15.87-1.933-16.482-1.936-2.539 0-5.03 2.527-5.02 5.021.006 1.365.378 33.67 21.348 54.308 27.997 27.555 79.312 27.551 107.305 0 20.969-20.637 21.342-52.942 21.348-54.308.005-1.335-.522-2.615-1.465-3.557zm-72.844-54.332c4.622 5.569 12.6 16.511 16.863 29.945-6.065 3.972-12.256 8.991-17.574 15.241-4.884-5.731-10.498-10.432-16.073-14.236 3.916-13.881 12.086-25.24 16.784-30.95zm-43.419 28.472c8.429 3.12 25.487 10.816 36.652 25.087-3.926 6.467-6.59 13.593-8.176 20.98-7.864-8.001-18.178-13.588-28.794-17.008-1.884-11.782-.717-22.833.318-29.059zm-3.912 76.596c-13.286-13.076-16.962-32.497-17.977-41.831 9.478.987 29.336 4.593 42.688 17.734 13.29 13.081 16.965 32.511 17.978 41.842-9.459-.971-29.284-4.553-42.689-17.745zm46.651-8.078c-1.535-3.861-3.444-7.79-5.799-11.606.927-9.907 3.547-18.645 7.842-25.965 10.565-18.011 31.141-27.398 40.673-30.939 1.036 6.23 2.201 17.276.317 29.052-19.949 6.426-35.237 19.8-43.033 39.458zm46.627 8.078c-12.482 12.285-30.697 16.231-40.539 17.492-.196-2.036-.508-4.535-1.002-7.365 6.048-30.975 28.812-48.761 59.518-51.959-1.016 9.338-4.693 28.757-17.977 41.832z"></path></g><g><path d="m468.536 108.635c-1.088-.979-2.273-1.467-3.556-1.465-.611.002-7.351.078-16.484 1.937 1.995-18.207-1.971-33.418-2.164-34.14-1.064-2.871-3.105-4.051-6.124-3.538-.689.185-8.791 2.423-18.825 7.655-7.199-20.685-21.503-35.182-22.165-35.845-1.952-1.954-5.12-1.955-7.073-.001-.678.678-15.269 15.478-22.055 36.65-10.724-5.816-19.604-8.272-20.294-8.458-3.02-.514-5.062.665-6.127 3.538-.193.723-4.162 15.932-2.167 34.14-9.132-1.858-15.87-1.933-16.482-1.936-2.539 0-5.031 2.527-5.02 5.021.006 1.365.378 33.67 21.348 54.308 27.997 27.555 79.312 27.551 107.305 0 20.969-20.637 21.342-52.942 21.348-54.308.005-1.336-.522-2.616-1.465-3.558zm-72.844-54.332c4.622 5.569 12.6 16.511 16.863 29.945-6.065 3.972-12.256 8.991-17.574 15.241-4.884-5.731-10.498-10.432-16.073-14.236 3.916-13.881 12.086-25.24 16.784-30.95zm-43.419 28.472c8.429 3.12 25.487 10.816 36.652 25.087-3.926 6.467-6.59 13.593-8.176 20.98-7.864-8.001-18.178-13.588-28.794-17.008-1.884-11.782-.717-22.833.318-29.059zm-3.912 76.596c-13.286-13.076-16.962-32.497-17.977-41.831 9.478.987 29.336 4.593 42.688 17.734 13.29 13.081 16.965 32.511 17.978 41.842-9.459-.971-29.284-4.553-42.689-17.745zm46.651-8.078c-1.535-3.861-3.444-7.79-5.799-11.606.927-9.907 3.547-18.645 7.842-25.965 10.565-18.011 31.141-27.398 40.673-30.939 1.036 6.23 2.201 17.276.317 29.052-19.949 6.426-35.238 19.8-43.033 39.458zm46.627 8.078c-12.482 12.285-30.697 16.231-40.539 17.492-.196-2.036-.508-4.535-1.002-7.365 6.048-30.975 28.812-48.761 59.518-51.959-1.016 9.338-4.693 28.757-17.977 41.832z"></path></g></g></svg>