<svg xmlns="http://www.w3.org/2000/svg" xmlns:xlink="http://www.w3.org/1999/xlink" xmlns:svgjs="http://svgjs.dev/svgjs" id="Layer_1" viewBox="0 0 512 512" data-name="Layer 1" width="300" height="300"><g width="100%" height="100%" transform="matrix(1,0,0,1,0,0)"><path d="m333.79 374.562c9.464.817 18.457 1.137 24.536-3.851 7.676-6.301 6.379-16.608 5.682-22.148-.355-2.815-.357-4.006-.303-4.506 2.551-4.871 2.269-10.271 1.414-12.807-.076-.226-.165-.445-.268-.66-.498-1.047-1.101-2.057-1.806-3.026.866-.856 1.641-1.864 2.273-3.079 2.021-3.872 1.848-8.336-.554-14.005-.54-2.724-.298-3.218-.216-3.385.82-1.673 2.587-2.321 6.424-3.402 4.446-1.252 11.887-3.348 13.018-11.983.896-6.844-2.033-11.279-4.866-15.568-.343-.519-.699-1.057-1.082-1.649-11.447-17.522-13.955-25.348-14.043-28.828-.067-2.637.832-3.923 2.874-6.581 3.043-3.96 7.211-9.384 5.287-20.51-.837-4.822-2.745-11.663-4.767-18.904-2.287-8.196-5.743-20.584-5.397-23.729.239-2.177 1.177-3.905 2.262-5.906 2.509-4.624 5.943-10.957-.923-21.195-.093-.139-.192-.273-.296-.403-18.312-22.917-51.092-37.868-89.933-41.021-37.499-3.046-73.843 5.794-97.21 23.64-22.035 16.823-37.121 41.104-42.479 68.37-7.522 38.299 9.38 69.205 24.291 96.474 4.891 8.941 9.511 17.391 13.296 25.938 2.557 6.952 8.15 28.847 6.419 84.426-.051 1.623.559 3.196 1.688 4.362 1.131 1.166 2.685 1.824 4.309 1.824h111.3c1.648 0 3.225-.679 4.357-1.876 1.133-1.196 1.724-2.808 1.634-4.453-.187-3.395-.275-24.715-.2-26.8.42-5.146 1.648-8.494 3.657-9.984 9.246 2.097 19.038 3.832 29.35 5.198.091.012.181.021.271.029zm-76.286-34.534c-2.917-1.568-6.557-.475-8.126 2.444-1.568 2.919-.475 6.557 2.444 8.126 11.575 6.222 24.896 11.43 39.845 15.589-1.557 3.064-2.712 7.078-3.13 12.332-.088 1.294-.052 13.844.053 21.929h-99.006c.861-38.496-1.739-67.816-7.396-82.969-.041-.109-.085-.218-.132-.324-4.004-9.069-8.993-18.192-13.817-27.015-14.617-26.728-29.73-54.364-23.045-88.402 4.792-24.388 18.282-46.103 37.986-61.146 21.076-16.096 54.331-24.031 88.957-21.216 34.919 2.834 65.312 16.418 81.37 36.353 2.671 4.036 2.178 4.946.204 8.585-1.401 2.583-3.145 5.798-3.642 10.315-.559 5.083 1.807 14.069 5.768 28.265 1.852 6.638 3.767 13.502 4.5 17.728 1.027 5.939-.48 7.9-2.978 11.151-2.336 3.039-5.535 7.202-5.355 14.196.192 7.63 5.125 18.451 15.976 35.059.389.602.768 1.176 1.133 1.729 2.504 3.79 3.281 5.099 2.98 7.396-.036.274-.087.385-.085.385-.44.522-2.848 1.2-4.287 1.605-4.253 1.198-10.68 3.008-13.947 9.674-1.811 3.698-1.56 7.366-.626 11.737.087.407.216.805.386 1.186 1.387 3.116 1.172 4.141 1.146 4.199-.256.489-2.591 1.493-3.846 2.033-1.973.848-3.342 2.687-3.59 4.82s.664 4.236 2.391 5.515c.097.071.248.177.449.313.657.447 2.541 1.727 3.642 3.582.046.741-.05 2.261-.742 3.453-.085.147-.165.298-.237.452-1.331 2.823-1.233 6.286-.645 10.956.615 4.888.972 9.436-1.388 11.372-2.447 2.011-9.004 1.763-15.755 1.184-31.231-4.15-57.291-11.751-77.455-22.591zm-18.511-209.628c-46.314 0-83.994 37.68-83.994 83.994s37.68 83.993 83.994 83.993 83.993-37.68 83.993-83.993-37.679-83.994-83.993-83.994zm0 155.987c-39.697 0-71.994-32.296-71.994-71.993s32.297-71.994 71.994-71.994 71.993 32.297 71.993 71.994-32.296 71.993-71.993 71.993zm41.683-60.889v-49.432c0-3.313-2.687-6-6-6s-6 2.687-6 6v49.432c-7.542 2.519-13 9.635-13 18.014 0 10.476 8.523 18.999 19 18.999s19-8.523 19-18.999c0-8.379-5.458-15.494-13-18.014zm-6 25.013c-3.859 0-7-3.14-7-6.999s3.141-7 7-7 7 3.141 7 7-3.141 6.999-7 6.999zm-65.366-54.067v-20.377c0-3.313-2.687-6-6-6s-6 2.687-6 6v20.377c-7.509 2.517-12.941 9.605-12.941 17.95s5.432 15.434 12.941 17.951v20.375c0 3.313 2.687 6 6 6s6-2.687 6-6v-20.375c7.509-2.517 12.94-9.606 12.94-17.951s-5.432-15.433-12.94-17.95zm-6 24.892c-3.827 0-6.941-3.114-6.941-6.941s3.114-6.94 6.941-6.94 6.94 3.113 6.94 6.94-3.113 6.941-6.94 6.941zm54.684-53.003c0-10.477-8.523-19-19-19s-19 8.523-19 19c0 8.379 5.458 15.494 13 18.014v81.377c0 3.313 2.687 6 6 6s6-2.687 6-6v-81.377c7.542-2.519 13-9.635 13-18.014zm-19 7c-3.859 0-7-3.141-7-7s3.141-7 7-7 7 3.141 7 7-3.141 7-7 7zm66.518-120.193c.842-3.205 4.126-5.123 7.327-4.278 34.906 9.169 67.269 27.221 93.589 52.204 23.174 21.997 41.23 48.963 52.723 78.558l.241-.713c1.062-3.14 4.47-4.821 7.606-3.761 3.14 1.062 4.822 4.468 3.761 7.606l-5.927 17.515c-.606 1.792-2.021 3.192-3.819 3.78-.609.199-1.238.297-1.864.297-1.22 0-2.428-.372-3.45-1.092l-15.041-10.572c-2.711-1.905-3.364-5.647-1.458-8.358 1.897-2.703 5.624-3.36 8.332-1.475-23.643-59.691-75.375-106.002-137.741-122.385-3.205-.842-5.12-4.122-4.278-7.327zm-253.408 139.073c20.059-63.138 68.227-113.555 129.925-136.701l-.719-.252c-3.127-1.096-4.773-4.52-3.678-7.646s4.521-4.775 7.646-3.678l17.449 6.115c1.785.625 3.17 2.056 3.738 3.859.568 1.805.253 3.771-.852 5.306l-10.734 14.926c-1.172 1.63-3.011 2.497-4.876 2.497-1.214 0-2.438-.366-3.498-1.129-2.681-1.928-3.297-5.657-1.387-8.345-57.731 22.046-102.757 69.437-121.578 128.681-.812 2.554-3.173 4.186-5.717 4.186-.603 0-1.215-.092-1.818-.283-3.158-1.004-4.905-4.377-3.902-7.535zm413.956 122.532c-9.583 35.015-28.112 67.344-53.585 93.493-23.023 23.633-51.254 41.711-82.126 52.733l.727.268c3.108 1.146 4.699 4.597 3.552 7.706-.895 2.424-3.188 3.925-5.63 3.925-.689 0-1.391-.12-2.076-.373l-17.348-6.4c-1.774-.654-3.136-2.107-3.675-3.921-.538-1.812-.19-3.773.938-5.291l10.978-14.747c1.979-2.658 5.737-3.21 8.396-1.231 2.641 1.968 3.2 5.692 1.263 8.346 61.496-22.416 109.661-74.275 127.011-137.676.876-3.196 4.175-5.077 7.371-4.203 3.196.875 5.078 4.175 4.203 7.371zm-256.224 147.304c-.712 2.689-3.141 4.467-5.797 4.467-.508 0-1.024-.064-1.538-.2-64.381-17.033-117.111-62.899-143.153-123.812l-.217.72c-.781 2.598-3.164 4.274-5.744 4.274-.571 0-1.153-.083-1.729-.256-3.173-.954-4.973-4.3-4.019-7.474l5.323-17.707c.545-1.812 1.911-3.26 3.688-3.908s3.756-.422 5.339.612l15.394 10.051c2.774 1.812 3.556 5.529 1.743 8.304-1.808 2.772-5.516 3.554-8.292 1.75 24.752 56.991 74.318 99.86 134.736 115.844 3.204.848 5.113 4.132 4.267 7.335zm24.813-377.522h46.407c7.461 0 13.53-6.069 13.53-13.53v-46.408c0-7.461-6.069-13.53-13.53-13.53h-46.407c-7.461 0-13.53 6.069-13.53 13.53v46.407c0 7.461 6.069 13.53 13.53 13.53zm-1.53-59.938c0-.829.701-1.53 1.53-1.53h46.407c.829 0 1.53.701 1.53 1.53v46.407c0 .829-.701 1.53-1.53 1.53h-46.407c-.829 0-1.53-.701-1.53-1.53zm34.77 396.735c-2.094-3.629-5.846-5.796-10.036-5.796s-7.938 2.165-10.035 5.794l-33.621 58.234c-2.096 3.628-2.097 7.961 0 11.59 2.095 3.628 5.846 5.794 10.035 5.794h67.245c4.189 0 7.94-2.166 10.036-5.796 2.093-3.628 2.093-7.959 0-11.586l-33.622-58.234zm-42.944 63.616 32.908-56.999 32.909 56.999zm242.752-266.607c-21.672 0-39.304 17.632-39.304 39.304s17.632 39.303 39.304 39.303 39.303-17.631 39.303-39.303-17.631-39.304-39.303-39.304zm0 66.606c-15.056 0-27.304-12.248-27.304-27.303s12.248-27.304 27.304-27.304 27.303 12.248 27.303 27.304-12.248 27.303-27.303 27.303zm-416.688 20.627 37.009-21.367c1.856-1.072 3-3.053 3-5.196v-42.733c0-2.144-1.144-4.124-3-5.196l-37.009-21.367c-1.855-1.072-4.145-1.072-6 0l-37.009 21.367c-1.856 1.072-3 3.053-3 5.196v42.733c0 2.144 1.144 4.124 3 5.196l37.009 21.367c.928.536 1.964.804 3 .804s2.072-.268 3-.804zm-34.009-30.027v-35.806l31.009-17.903 31.009 17.903v35.806l-31.009 17.903z" fill="#ffffff" fill-opacity="1" data-original-color="#000000ff" stroke="none" stroke-opacity="1"></path></g></svg>