<svg xmlns="http://www.w3.org/2000/svg" xmlns:xlink="http://www.w3.org/1999/xlink" xmlns:svgjs="http://svgjs.dev/svgjs" height="300" viewBox="0 0 512 512" width="300"><g width="100%" height="100%" transform="matrix(1,0,0,1,0,0)"><g id="_x33_0_x2C__Medicine_x2C__bottle_x2C__gene_x2C__genetics_x2C__health_and_medical"><g><g id="XMLID_344_"><path d="m127.906 156.532c-68.902 0-124.975-56.056-124.996-124.958l-.007-20.571c-.002-5.523 4.474-10.001 9.997-10.003h.003c5.521 0 9.998 4.475 10 9.997l.007 20.571c.018 57.877 47.119 104.964 104.996 104.964 57.896 0 104.997-47.102 104.997-104.997v-20.535c0-5.522 4.478-10 10-10s10 4.478 10 10v20.535c0 68.924-56.073 124.997-124.997 124.997z" fill="#ffffff" fill-opacity="1" data-original-color="#000000ff" stroke="none" stroke-opacity="1"></path></g><g id="XMLID_345_"><path d="m126.072 375.299c-59.319-11.051-102.373-61.224-102.373-119.299s43.054-108.248 102.373-119.299c1.209-.225 2.453-.225 3.662 0 59.32 11.051 102.373 61.224 102.373 119.299s-43.054 108.248-102.373 119.299c-1.173.218-2.411.232-3.662 0zm1.831-218.579c-48.906 9.961-84.204 51.429-84.204 99.28s35.298 89.319 84.204 99.28c48.906-9.961 84.204-51.429 84.204-99.28s-35.297-89.319-84.204-99.28z" fill="#ffffff" fill-opacity="1" data-original-color="#000000ff" stroke="none" stroke-opacity="1"></path></g><g id="XMLID_346_"><path d="m203.804 206h-151.801c-5.522 0-10-4.478-10-10s4.478-10 10-10h151.801c5.522 0 10 4.478 10 10s-4.478 10-10 10z" fill="#ffffff" fill-opacity="1" data-original-color="#000000ff" stroke="none" stroke-opacity="1"></path></g><g id="XMLID_347_"><path d="m203.313 326.72h-150.82c-5.522 0-10-4.478-10-10s4.478-10 10-10h150.82c5.522 0 10 4.478 10 10s-4.477 10-10 10z" fill="#ffffff" fill-opacity="1" data-original-color="#000000ff" stroke="none" stroke-opacity="1"></path></g><g id="XMLID_348_"><path d="m102.903 66h-87.38c-5.522 0-10-4.478-10-10s4.478-10 10-10h87.38c5.522 0 10 4.478 10 10s-4.477 10-10 10z" fill="#ffffff" fill-opacity="1" data-original-color="#000000ff" stroke="none" stroke-opacity="1"></path></g><g id="XMLID_349_"><path d="m240.283 66h-87.06c-5.522 0-10-4.478-10-10s4.478-10 10-10h87.06c5.522 0 10 4.478 10 10s-4.477 10-10 10z" fill="#ffffff" fill-opacity="1" data-original-color="#000000ff" stroke="none" stroke-opacity="1"></path></g><g id="XMLID_350_"><path d="m222.107 266h-188.408c-5.522 0-10-4.478-10-10s4.478-10 10-10h188.408c5.522 0 10 4.478 10 10s-4.477 10-10 10z" fill="#ffffff" fill-opacity="1" data-original-color="#000000ff" stroke="none" stroke-opacity="1"></path></g><g id="XMLID_351_"><path d="m127.903 91c-19.299 0-35-15.701-35-35s15.701-35 35-35 35 15.701 35 35-15.701 35-35 35zm0-50c-8.271 0-15 6.729-15 15s6.729 15 15 15 15-6.729 15-15-6.728-15-15-15z" fill="#ffffff" fill-opacity="1" data-original-color="#000000ff" stroke="none" stroke-opacity="1"></path></g><g id="XMLID_352_"><path d="m12.903 511c-.001 0-.002 0-.003 0-5.523-.002-9.999-4.48-9.997-10.003l.007-20.571c.021-68.902 56.094-124.958 124.996-124.958 68.924 0 124.997 56.073 124.997 124.997v20.535c0 5.522-4.478 10-10 10s-10-4.478-10-10v-20.535c0-57.896-47.102-104.997-104.997-104.997-57.877 0-104.979 47.087-104.996 104.964l-.007 20.571c-.002 5.521-4.478 9.997-10 9.997z" fill="#ffffff" fill-opacity="1" data-original-color="#000000ff" stroke="none" stroke-opacity="1"></path></g><g id="XMLID_353_"><path d="m102.903 466h-87.38c-5.522 0-10-4.478-10-10s4.478-10 10-10h87.38c5.522 0 10 4.478 10 10s-4.477 10-10 10z" fill="#ffffff" fill-opacity="1" data-original-color="#000000ff" stroke="none" stroke-opacity="1"></path></g><g id="XMLID_354_"><path d="m240.283 466h-87.06c-5.522 0-10-4.478-10-10s4.478-10 10-10h87.06c5.522 0 10 4.478 10 10s-4.477 10-10 10z" fill="#ffffff" fill-opacity="1" data-original-color="#000000ff" stroke="none" stroke-opacity="1"></path></g><g id="XMLID_355_"><path d="m127.903 491c-19.299 0-35-15.701-35-35s15.701-35 35-35 35 15.701 35 35-15.701 35-35 35zm0-50c-8.271 0-15 6.729-15 15s6.729 15 15 15 15-6.729 15-15-6.728-15-15-15z" fill="#ffffff" fill-opacity="1" data-original-color="#000000ff" stroke="none" stroke-opacity="1"></path></g><g id="XMLID_356_"><path d="m377.903 375.468h-249.997c-5.522 0-10-4.478-10-10s4.478-10 10-10h240.157l.893-55.296c.09-5.527 4.655-9.936 10.16-9.838 5.522.09 9.927 4.639 9.838 10.16l-1.052 65.135c-.089 5.46-4.539 9.839-9.999 9.839z" fill="#ffffff" fill-opacity="1" data-original-color="#000000ff" stroke="none" stroke-opacity="1"></path></g><g id="XMLID_357_"><path d="m378.903 252.136c-42.458 0-77-35.201-77-78.469 0-43.269 34.542-78.47 77-78.47s77 35.201 77 78.47c0 43.268-34.542 78.469-77 78.469zm0-136.939c-31.43 0-57 26.229-57 58.47s25.57 58.469 57 58.469 57-26.229 57-58.469-25.57-58.47-57-58.47z" fill="#ffffff" fill-opacity="1" data-original-color="#000000ff" stroke="none" stroke-opacity="1"></path></g><g id="XMLID_358_"><path d="m378.955 306.333c-14.136 0-24.309-12.273-31.445-14.246-7.648-2.112-22.327 3.253-34.3-3.905-7.583-4.531-11.181-12.199-14.354-18.965-1.698-3.619-3.454-7.362-5.352-9.322-1.871-1.933-5.542-3.794-9.092-5.594-6.665-3.381-14.219-7.212-18.547-14.938-6.786-12.117-1.084-26.584-3.077-34.285-.644-2.489-2.892-5.852-5.066-9.103-4.176-6.245-8.909-13.323-8.909-22.308s4.733-16.063 8.909-22.308c2.175-3.252 4.423-6.614 5.066-9.104 1.991-7.695-3.705-22.175 3.078-34.285 4.327-7.727 11.882-11.558 18.547-14.938 3.55-1.8 7.221-3.661 9.092-5.595 1.896-1.959 3.651-5.701 5.35-9.32 3.174-6.766 6.771-14.434 14.355-18.967 11.914-7.123 26.737-1.816 34.299-3.904 7.142-1.974 17.311-14.246 31.446-14.246 10.605 0 18.89 6.873 25.509 11.173 7.355-14.106 22.166-23.506 38.667-23.506 24.02 0 43.562 19.541 43.562 43.561 0 8.714-2.528 16.989-7.173 24 4.816 2.783 9.473 6.296 12.523 11.745 6.781 12.104 1.086 26.59 3.077 34.282.645 2.49 2.893 5.853 5.067 9.104 4.176 6.245 8.909 13.323 8.909 22.308s-4.733 16.063-8.909 22.308c-2.175 3.251-4.423 6.613-5.066 9.103 0 0-.001 0-.001.001-1.999 7.724 3.706 22.176-3.077 34.284-4.328 7.727-11.882 11.558-18.546 14.938-3.55 1.801-7.221 3.662-9.092 5.596-1.898 1.96-3.654 5.703-5.353 9.323-3.174 6.765-6.771 14.432-14.353 18.964-11.919 7.127-26.734 1.814-34.3 3.904-7.138 1.972-17.31 14.245-31.444 14.245zm-26.121-33.523c5.683 1.569 10.61 4.929 14.958 7.893 4.061 2.769 8.26 5.631 11.163 5.631 2.902 0 7.102-2.862 11.162-5.631 4.349-2.964 9.276-6.323 14.959-7.893 5.866-1.622 11.951-1.281 17.322-.979 4.799.269 9.761.547 12.041-.815 2.333-1.395 4.455-5.917 6.507-10.291 2.283-4.867 4.871-10.384 9.089-14.74 4.203-4.342 9.628-7.094 14.415-9.521 4.321-2.191 8.79-4.458 10.144-6.874 1.28-2.287.896-7.206.523-11.963-.425-5.427-.906-11.578.642-17.56 1.494-5.774 4.846-10.787 7.804-15.21 2.721-4.068 5.534-8.276 5.534-11.189 0-2.914-2.813-7.121-5.534-11.19-2.958-4.423-6.31-9.436-7.805-15.211-1.547-5.98-1.065-12.132-.641-17.559.372-4.757.757-9.676-.523-11.962-1.922-3.433-9.837-6.403-16.229-10.116-6.178-3.59-6.692-12.315-1.019-16.614 5.939-4.505 9.347-11.353 9.347-18.787 0-12.991-10.569-23.561-23.562-23.561-11.126 0-20.829 7.892-23.072 18.765-1.073 5.203-6.032 8.65-11.283 7.867-7.333-1.107-12.393-4.397-18.659-8.669-4.061-2.768-8.259-5.63-11.161-5.63-2.903 0-7.102 2.862-11.162 5.631-4.348 2.964-9.276 6.324-14.96 7.894-5.867 1.619-11.953 1.278-17.32.978-4.801-.27-9.762-.547-12.041.815-2.336 1.396-4.457 5.919-6.51 10.294-2.282 4.865-4.87 10.381-9.086 14.737-4.204 4.343-9.629 7.094-14.415 9.521-4.322 2.192-8.791 4.459-10.145 6.875-1.281 2.287-.896 7.207-.523 11.965.425 5.426.906 11.576-.641 17.557-1.495 5.775-4.847 10.788-7.805 15.211-2.721 4.069-5.534 8.276-5.534 11.19 0 2.913 2.813 7.121 5.534 11.189 2.958 4.423 6.31 9.436 7.805 15.211 1.547 5.98 1.065 12.131.64 17.558-.372 4.758-.758 9.677.523 11.964 1.354 2.416 5.822 4.683 10.145 6.874 4.786 2.428 10.211 5.179 14.414 9.521 4.218 4.357 6.806 9.873 9.088 14.739 2.053 4.374 4.175 8.896 6.509 10.292 2.281 1.364 7.242 1.086 12.042.816 5.789-.327 11.59-.606 17.32.977z" fill="#ffffff" fill-opacity="1" data-original-color="#000000ff" stroke="none" stroke-opacity="1"></path></g><g id="XMLID_359_"><path d="m352.903 191c-5.596 0-10-4.577-10-10 0-5.468 4.433-9.998 9.996-9.998 5.562 0 10.004 4.539 10.004 9.998 0 5.387-4.371 10-10 10z" fill="#ffffff" fill-opacity="1" data-original-color="#000000ff" stroke="none" stroke-opacity="1"></path></g><g id="XMLID_360_"><circle cx="382.903" cy="151" r="10" fill="#ffffff" fill-opacity="1" data-original-color="#000000ff" stroke="none" stroke-opacity="1"></circle></g><g id="XMLID_361_"><path d="m402.903 191c-5.386 0-10-4.368-10-10 0-5.418 4.399-9.998 10-9.998 5.412 0 10 4.382 10 9.998 0 5.39-4.369 10-10 10z" fill="#ffffff" fill-opacity="1" data-original-color="#000000ff" stroke="none" stroke-opacity="1"></path></g></g></g></g></svg>