<svg xmlns="http://www.w3.org/2000/svg" xmlns:xlink="http://www.w3.org/1999/xlink" xmlns:svgjs="http://svgjs.dev/svgjs" id="Layer_2" height="300" viewBox="0 0 64 64" width="300"><g width="100%" height="100%" transform="matrix(1,0,0,1,0,0)"><g><path d="m12.653 43.197c-.027 0-.056-.002-.083-.007-2.82-.469-4.97-2.979-5.001-5.838-.028-2.684 1.834-5.138 4.428-5.835.271-.07.541.086.612.353.072.267-.086.541-.353.613-2.16.581-3.711 2.624-3.688 4.858.025 2.381 1.816 4.472 4.165 4.862.272.045.456.303.411.575-.04.245-.251.419-.491.419z" fill="#ffffff" fill-opacity="1" data-original-color="#000000ff" stroke="none" stroke-opacity="1"></path></g><g><path d="m12.127 32.5c-.069 0-.139-.014-.206-.044-2.913-1.316-4.531-4.536-3.847-7.656.628-2.871 3.113-5.058 6.043-5.319.257-.028.517.178.542.454.024.275-.179.518-.454.542-2.499.223-4.618 2.088-5.154 4.537-.583 2.662.797 5.409 3.282 6.531.251.113.363.41.25.661-.084.185-.266.294-.456.294z" fill="#ffffff" fill-opacity="1" data-original-color="#000000ff" stroke="none" stroke-opacity="1"></path></g><g><path d="m51.347 43.197c-.24 0-.451-.173-.492-.418-.045-.272.139-.53.411-.575 2.207-.367 3.951-2.248 4.146-4.474.208-2.374-1.369-4.629-3.669-5.247-.267-.072-.425-.346-.353-.613.071-.267.344-.423.612-.353 2.762.742 4.655 3.451 4.405 6.3-.234 2.673-2.328 4.933-4.979 5.373-.027.005-.054.007-.081.007z" fill="#ffffff" fill-opacity="1" data-original-color="#000000ff" stroke="none" stroke-opacity="1"></path></g><g><path d="m51.873 32.5c-.19 0-.372-.109-.456-.294-.113-.251-.001-.548.25-.661 2.287-1.033 3.675-3.492 3.375-5.98-.326-2.707-2.533-4.846-5.247-5.087-.275-.024-.479-.267-.454-.542.024-.276.284-.482.542-.454 3.183.283 5.77 2.792 6.151 5.964.353 2.917-1.274 5.8-3.955 7.011-.067.029-.137.043-.206.043z" fill="#ffffff" fill-opacity="1" data-original-color="#000000ff" stroke="none" stroke-opacity="1"></path></g><g><path d="m32 56.71c-.276 0-.5-.224-.5-.5v-9.886c0-.276.224-.5.5-.5s.5.224.5.5v9.886c0 .277-.224.5-.5.5z" fill="#ffffff" fill-opacity="1" data-original-color="#000000ff" stroke="none" stroke-opacity="1"></path></g><g><path d="m31.838 46.782c-1.953 0-3.923-.386-5.792-1.206-.253-.111-.367-.406-.257-.659s.408-.366.659-.257c6.859 3.011 15.202-.246 18.213-7.108 3.001-6.843-.237-15.177-7.072-18.197-.253-.112-.367-.407-.255-.66.111-.253.408-.367.659-.255 7.329 3.239 10.802 12.175 7.584 19.514-2.408 5.491-8 8.828-13.739 8.828z" fill="#ffffff" fill-opacity="1" data-original-color="#000000ff" stroke="none" stroke-opacity="1"></path></g><g><path d="m24.371 44.624c-.092 0-.184-.025-.267-.077-5.25-3.303-7.946-9.826-6.557-15.864 1.305-5.673 5.836-10.077 11.542-11.219.266-.054.534.12.589.392.055.271-.121.534-.392.588-5.24 1.049-9.566 5.254-10.765 10.463-1.296 5.63 1.219 11.713 6.115 14.793.233.147.304.456.156.689-.093.153-.255.235-.421.235z" fill="#ffffff" fill-opacity="1" data-original-color="#000000ff" stroke="none" stroke-opacity="1"></path></g><g><path d="m32 15.45c-.276 0-.5-.224-.5-.5v-7.444c0-.276.224-.5.5-.5s.5.224.5.5v7.444c0 .277-.224.5-.5.5z" fill="#ffffff" fill-opacity="1" data-original-color="#000000ff" stroke="none" stroke-opacity="1"></path></g><g><path d="m22.391 50.56c-.107 0-.216-.035-.308-.106-.218-.17-.257-.484-.087-.702l18.208-23.333c.17-.219.483-.257.702-.086.218.17.257.484.087.702l-18.208 23.332c-.098.127-.246.193-.394.193z" fill="#ffffff" fill-opacity="1" data-original-color="#000000ff" stroke="none" stroke-opacity="1"></path></g><g><path d="m22.246 33.159c-.072 0-.145-.015-.214-.048-.249-.118-.356-.416-.238-.666l8.287-17.555c.118-.25.416-.356.666-.239.249.118.356.416.238.666l-8.287 17.555c-.085.181-.264.287-.452.287z" fill="#ffffff" fill-opacity="1" data-original-color="#000000ff" stroke="none" stroke-opacity="1"></path></g><g><path d="m22.245 33.159c-.252 0-.47-.191-.496-.448-.029-.274.17-.521.444-.549l6.165-.648c.282-.033.521.17.55.445.029.274-.17.521-.444.549l-6.165.648c-.019.002-.036.003-.054.003z" fill="#ffffff" fill-opacity="1" data-original-color="#000000ff" stroke="none" stroke-opacity="1"></path></g><g><path d="m33.518 27.971c-.075 0-.151-.017-.223-.053-.247-.123-.348-.423-.225-.67l6.669-13.381c.123-.247.424-.348.67-.224.247.123.348.423.225.67l-6.669 13.381c-.087.176-.264.277-.447.277z" fill="#ffffff" fill-opacity="1" data-original-color="#000000ff" stroke="none" stroke-opacity="1"></path></g><g><path d="m33.517 27.971c-.252 0-.47-.191-.496-.448-.029-.274.17-.521.444-.549l7.081-.744c.284-.034.521.17.55.445.029.274-.17.521-.444.549l-7.081.744c-.019.002-.037.003-.054.003z" fill="#ffffff" fill-opacity="1" data-original-color="#000000ff" stroke="none" stroke-opacity="1"></path></g><g><path d="m30.532 15.604c-.252 0-.47-.191-.496-.448-.029-.274.17-.521.444-.549l9.653-1.015c.284-.035.521.17.55.445.029.274-.17.521-.444.549l-9.653 1.015c-.019.003-.036.003-.054.003z" fill="#ffffff" fill-opacity="1" data-original-color="#000000ff" stroke="none" stroke-opacity="1"></path></g><g><path d="m22.391 50.56c-.053 0-.105-.008-.158-.026-.262-.087-.403-.371-.316-.632l6.021-18.048c.089-.262.372-.402.633-.316.262.087.403.371.316.632l-6.021 18.048c-.071.209-.266.342-.475.342z" fill="#ffffff" fill-opacity="1" data-original-color="#000000ff" stroke="none" stroke-opacity="1"></path></g><g><path d="m41.526 11.344c-.242 0-.455-.176-.493-.423-.295-1.897-1.586-3.42-3.453-4.075-1.864-.654-3.825-.269-5.242 1.03-.202.186-.52.173-.706-.031s-.173-.52.03-.707c1.693-1.552 4.031-2.014 6.249-1.236 2.221.778 3.757 2.597 4.11 4.865.042.272-.145.528-.417.571-.026.004-.051.006-.078.006z" fill="#ffffff" fill-opacity="1" data-original-color="#000000ff" stroke="none" stroke-opacity="1"></path></g><g><path d="m22.474 11.344c-.026 0-.052-.002-.078-.006-.272-.042-.459-.298-.417-.571.354-2.268 1.889-4.086 4.108-4.864 2.223-.778 4.56-.316 6.251 1.235.203.187.217.503.03.707-.188.204-.504.217-.706.031-1.416-1.299-3.376-1.683-5.245-1.028-1.865.654-3.155 2.177-3.45 4.074-.038.245-.251.422-.493.422z" fill="#ffffff" fill-opacity="1" data-original-color="#000000ff" stroke="none" stroke-opacity="1"></path></g><g><path d="m36.46 58.459c-1.777 0-3.487-.655-4.802-1.884-.201-.188-.212-.505-.023-.707.188-.202.505-.213.707-.024 1.525 1.427 3.677 1.949 5.752 1.4 2.072-.548 3.679-2.064 4.299-4.055.082-.263.365-.41.626-.329.264.082.411.362.329.626-.723 2.322-2.592 4.088-4.998 4.725-.629.167-1.264.248-1.89.248z" fill="#ffffff" fill-opacity="1" data-original-color="#000000ff" stroke="none" stroke-opacity="1"></path></g><g><path d="m27.541 58.46c-.624 0-1.257-.081-1.884-.247-2.41-.637-4.281-2.403-5.005-4.726-.082-.264.065-.544.329-.626.264-.081.543.066.626.329.62 1.992 2.23 3.508 4.306 4.057 2.071.548 4.221.024 5.745-1.401.203-.189.518-.178.707.024.188.202.178.518-.023.707-1.316 1.228-3.025 1.883-4.801 1.883z" fill="#ffffff" fill-opacity="1" data-original-color="#000000ff" stroke="none" stroke-opacity="1"></path></g><g><path d="m49.839 20.479c-.082 0-.164-.02-.24-.062-.242-.133-.331-.437-.198-.679 1.228-2.239.872-4.948-.904-6.901-1.406-1.546-3.925-2.76-6.771-1.535-.254.108-.549-.007-.657-.261-.109-.253.008-.548.261-.657 2.746-1.185 5.848-.484 7.907 1.78 2.068 2.274 2.477 5.436 1.041 8.055-.091.166-.263.26-.439.26z" fill="#ffffff" fill-opacity="1" data-original-color="#000000ff" stroke="none" stroke-opacity="1"></path></g><g><path d="m44.643 54.057c-.628 0-1.263-.076-1.893-.233-.269-.067-.432-.338-.365-.606.066-.267.335-.433.605-.365 2.634.656 5.344-.298 7.085-2.483 1.734-2.178 2.052-5.032.826-7.447-.125-.246-.026-.547.22-.672.248-.125.547-.026.673.22 1.403 2.769 1.045 6.034-.937 8.522-1.571 1.973-3.842 3.064-6.214 3.064z" fill="#ffffff" fill-opacity="1" data-original-color="#000000ff" stroke="none" stroke-opacity="1"></path></g><g><path d="m14.161 20.479c-.177 0-.348-.094-.438-.26-1.436-2.62-1.033-5.774 1.026-8.038 2.068-2.273 5.177-2.98 7.922-1.797.253.109.37.403.261.657s-.405.369-.657.261c-2.344-1.011-5.009-.402-6.786 1.552-1.406 1.546-2.378 4.166-.889 6.884.133.242.044.546-.198.679-.077.042-.159.062-.241.062z" fill="#ffffff" fill-opacity="1" data-original-color="#000000ff" stroke="none" stroke-opacity="1"></path></g><g><path d="m19.354 54.058c-2.369 0-4.636-1.087-6.202-3.054-1.986-2.494-2.349-5.764-.945-8.533.126-.246.429-.344.672-.22.247.125.346.426.221.672-1.225 2.416-.905 5.274.835 7.458 1.735 2.179 4.444 3.126 7.076 2.472.271-.068.538.098.605.365.066.268-.097.539-.365.606-.633.157-1.269.234-1.897.234z" fill="#ffffff" fill-opacity="1" data-original-color="#000000ff" stroke="none" stroke-opacity="1"></path></g></g></svg>