<svg xmlns="http://www.w3.org/2000/svg" xmlns:xlink="http://www.w3.org/1999/xlink" xmlns:svgjs="http://svgjs.dev/svgjs" id="Capa_1" x="0px" y="0px" viewBox="0 0 448 448" style="enable-background:new 0 0 448 448;" xml:space="preserve" width="300" height="300"><g width="100%" height="100%" transform="matrix(1,0,0,1,0,0)"><g>	<g>		<g>			<path d="M119.832,377.92c-1.387,4.404-6.082,6.849-10.486,5.462c-1.124-0.354-2.161-0.942-3.042-1.726&#10;&#9;&#9;&#9;&#9;c-1.111-1.104-1.842-2.533-2.088-4.08l-15.824,2.312c0.729,4.955,3.041,9.54,6.592,13.072c4.491,4.544,10.627,7.082,17.016,7.04&#10;&#9;&#9;&#9;&#9;c11.559,0.044,21.501-8.175,23.632-19.536c0.233-1.477,0.356-2.969,0.368-4.464h-16&#10;&#9;&#9;&#9;&#9;C119.991,376.643,119.935,377.285,119.832,377.92z" fill="#ffffff" fill-opacity="1" data-original-color="#000000ff" stroke="none" stroke-opacity="1"></path>			<path d="M432,112.048c0.073-25.506-17.153-47.817-41.848-54.2C383.8,33.271,361.664,16.076,336.28,16H336&#10;&#9;&#9;&#9;&#9;c-27.37-0.057-50.753,19.72-55.24,46.72c-0.483,3.07-0.737,6.172-0.76,9.28v5.488l-3.928,3.928&#10;&#9;&#9;&#9;&#9;C259.412,75.208,241.779,72.02,224,72c-83.909,0.093-151.907,68.091-152,152c0.021,17.779,3.209,35.412,9.416,52.072L77.488,280&#10;&#9;&#9;&#9;&#9;H72c-3.153,0.012-6.301,0.263-9.416,0.752c-30.491,5.181-51.008,34.099-45.827,64.59c3.691,21.719,19.773,39.256,41.091,44.81&#10;&#9;&#9;&#9;&#9;c6.348,24.559,28.458,41.75,53.824,41.848H112c27.38,0.066,50.777-19.711,55.272-46.72c0.473-3.071,0.716-6.173,0.728-9.28&#10;&#9;&#9;&#9;&#9;v-5.488l3.928-3.928c16.66,6.208,34.293,9.396,52.072,9.416c83.909-0.093,151.907-68.091,152-152&#10;&#9;&#9;&#9;&#9;c-0.02-17.776-3.209-35.407-9.416-52.064l3.928-3.936H376c3.153-0.012,6.301-0.263,9.416-0.752&#10;&#9;&#9;&#9;&#9;C412.358,162.723,432.068,139.367,432,112.048z M152,363.888V376c-0.008,2.258-0.185,4.512-0.528,6.744&#10;&#9;&#9;&#9;&#9;c-3.255,19.266-19.981,33.341-39.52,33.256h-0.232c-19.615-0.055-36.26-14.406-39.2-33.8l-0.856-5.896l-5.904-0.856&#10;&#9;&#9;&#9;&#9;c-21.818-3.467-36.694-23.964-33.227-45.782c2.678-16.852,15.751-30.149,32.555-33.114c2.287-0.358,4.597-0.542,6.912-0.552&#10;&#9;&#9;&#9;&#9;h12.112l63.248-63.248l32.192-10.736l-16.288,38.04l45.736-11.4l-21.976,54.904l29.528-4.232L152,363.888z M224,360&#10;&#9;&#9;&#9;&#9;c-13.415,0.021-26.758-1.966-39.584-5.896l77.424-77.432l-49.664,7.128l23.296-58.2l-44.8,11.2l17.6-41.168l-69.6,23.2&#10;&#9;&#9;&#9;&#9;l-44.8,44.8C89.942,250.79,87.962,237.43,88,224c0.084-75.076,60.924-135.916,136-136c13.415-0.021,26.758,1.966,39.584,5.896&#10;&#9;&#9;&#9;&#9;L162.352,195.144l69.088-22.968l-10.984,44.104l42.104-10.56l-27.896,61.312l45.912-9.096l73.52-73.512&#10;&#9;&#9;&#9;&#9;c3.936,12.823,5.926,26.163,5.904,39.576C359.916,299.076,299.076,359.916,224,360z M382.92,151.448h-0.024&#10;&#9;&#9;&#9;&#9;c-2.282,0.356-4.587,0.541-6.896,0.552h-12.12l-91.2,91.2l-10.568,2.096l28.744-63.152L242.4,194.28l11.576-46.456l-32.504,10.8&#10;&#9;&#9;&#9;&#9;L296,84.112V72c0.008-2.258,0.185-4.512,0.528-6.744C299.777,46.006,316.478,31.935,336,32h0.28&#10;&#9;&#9;&#9;&#9;c19.615,0.055,36.26,14.406,39.2,33.8l0.856,5.896l5.904,0.856c21.818,3.465,36.696,23.96,33.232,45.778&#10;&#9;&#9;&#9;&#9;C412.796,135.183,399.724,148.482,382.92,151.448z" fill="#ffffff" fill-opacity="1" data-original-color="#000000ff" stroke="none" stroke-opacity="1"></path>			<path d="M336,48c-11.559-0.044-21.501,8.175-23.632,19.536c-0.233,1.477-0.356,2.969-0.368,4.464h16&#10;&#9;&#9;&#9;&#9;c0.009-0.643,0.065-1.285,0.168-1.92c0.914-3.579,4.139-6.082,7.832-6.08c2.148-0.035,4.215,0.819,5.712,2.36&#10;&#9;&#9;&#9;&#9;c1.108,1.098,1.834,2.523,2.072,4.064l15.824-2.312c-0.726-4.946-3.029-9.525-6.568-13.056C348.542,50.505,342.399,47.961,336,48&#10;&#9;&#9;&#9;&#9;z" fill="#ffffff" fill-opacity="1" data-original-color="#000000ff" stroke="none" stroke-opacity="1"></path>			<rect x="63.264" y="79.264" transform="matrix(0.7071 0.7071 -0.7071 0.7071 87.2578 -36.1463)" width="48" height="16" fill="#ffffff" fill-opacity="1" data-original-color="#000000ff" stroke="none" stroke-opacity="1"></rect>			<rect x="216" y="400" width="16" height="48" fill="#ffffff" fill-opacity="1" data-original-color="#000000ff" stroke="none" stroke-opacity="1"></rect>			<rect y="216" width="48" height="16" fill="#ffffff" fill-opacity="1" data-original-color="#000000ff" stroke="none" stroke-opacity="1"></rect>			<rect x="400" y="216" width="48" height="16" fill="#ffffff" fill-opacity="1" data-original-color="#000000ff" stroke="none" stroke-opacity="1"></rect>			<rect x="216" width="16" height="48" fill="#ffffff" fill-opacity="1" data-original-color="#000000ff" stroke="none" stroke-opacity="1"></rect>			<rect x="336.717" y="352.772" transform="matrix(-0.7071 -0.7071 0.7071 -0.7071 360.7022 870.9423)" width="48" height="16" fill="#ffffff" fill-opacity="1" data-original-color="#000000ff" stroke="none" stroke-opacity="1"></rect>		</g>	</g></g><g></g><g></g><g></g><g></g><g></g><g></g><g></g><g></g><g></g><g></g><g></g><g></g><g></g><g></g><g></g></g></svg>