<svg xmlns="http://www.w3.org/2000/svg" viewBox="0 0 96 96" width="512" height="512"><g id="Broken_Bone" data-name="Broken Bone"><path d="M30,64.37H31.8l.7,2.54a1,1,0,0,0,1.67.44l6.64-6.64a9.4,9.4,0,0,0,7,3.15c9,0,12.93-11.56,5.69-17a9.45,9.45,0,0,0-7.18-1.79,9.45,9.45,0,1,0-15.65,5.54L22.9,58.43a1,1,0,0,0,.71,1.71H29v3.23A1,1,0,0,0,30,64.37Zm-4-6.23,6.91-6.91a1,1,0,0,0,.29-.8c-.07-.71-.58-.7-1.47-1.58a7.46,7.46,0,1,1,12.4-3.15,9.49,9.49,0,0,0-3,2,1,1,0,0,0,1.42,1.42,7.45,7.45,0,1,1,0,10.54c-.89-.88-.87-1.4-1.58-1.46a1,1,0,0,0-.8.29L34,64.73l-.45-1.63a1,1,0,0,0-1-.73H31V59.14a1,1,0,0,0-1-1Z"></path><path d="M45.86,21.37a9.45,9.45,0,0,0,8.18,16,9.44,9.44,0,0,0,9.33,10.94c8.67,0,12.77-10.81,6.31-16.49L81.51,20a1,1,0,0,0,0-1.41,1,1,0,0,0-1.41,0L67.47,31.23a1,1,0,0,0-.29.8c.06.71.57.68,1.46,1.58a7.46,7.46,0,1,1-12.28,2.73,1,1,0,0,0-1.28-1.28,7.45,7.45,0,1,1,2.74-12.27c.88.87.87,1.39,1.58,1.46a1,1,0,0,0,.8-.29L72.83,11.33a1,1,0,0,0,0-1.42,1,1,0,0,0-1.41,0L59.58,21.74A9.45,9.45,0,0,0,45.86,21.37Z"></path><path d="M28.62,72.19l-.9-3.28a1,1,0,0,0-1-.73H25.23V64.94a1,1,0,0,0-1-1H17.8a1.05,1.05,0,0,0-.71.29L5,76.33a1,1,0,0,0,1.42,1.42l11.8-11.81h5v3.24a1,1,0,0,0,1,1H26l.55,2L13.68,85a1,1,0,0,0,1.41,1.41L28.37,73.16A1,1,0,0,0,28.62,72.19Z"></path><path d="M21.45,46.24c-.71-18.5,16.87-35.92,35.34-34.94a13.23,13.23,0,0,0,10-3.92l1.09-1.1a1,1,0,0,0-1.41-1.41L65.39,6a11.26,11.26,0,0,1-8.5,3.34c-19.64-1-38.2,17.34-37.43,37a12.34,12.34,0,0,1-3.6,9.17L.29,71.06A1,1,0,0,0,1,72.76a1,1,0,0,0,.71-.29L17.27,56.9A14.3,14.3,0,0,0,21.45,46.24Z"></path><path d="M77,53.71a34,34,0,0,0,5.12-19.18A11.22,11.22,0,0,1,85.47,26L86.56,25a1,1,0,0,0,0-1.41,1,1,0,0,0-1.42,0l-1.09,1.09a13.25,13.25,0,0,0-3.92,10A32.23,32.23,0,0,1,74.51,53.9,19,19,0,0,0,59.1,67.09,30.79,30.79,0,0,1,45.19,70a14.44,14.44,0,0,0-10.67,4.18L19,89.71a1,1,0,0,0,1.42,1.42L35.94,75.57A12.33,12.33,0,0,1,45.11,72a32.36,32.36,0,0,0,13.43-2.46A18.85,18.85,0,1,0,77,53.71Zm.13,35.7A16.86,16.86,0,1,1,94,72.55,16.89,16.89,0,0,1,77.14,89.41Z"></path><path d="M87.13,68.39H81.31V62.56a1,1,0,0,0-1-1H74a1,1,0,0,0-1,1v5.83H67.15a1,1,0,0,0-1,1v6.33a1,1,0,0,0,1,1H73v5.82a1,1,0,0,0,1,1h6.33a1,1,0,0,0,1-1V76.72h5.82a1,1,0,0,0,1-1V69.39A1,1,0,0,0,87.13,68.39Zm-1,6.33H80.31a1,1,0,0,0-1,1v5.82H75V75.72a1,1,0,0,0-1-1H68.15V70.39H74a1,1,0,0,0,1-1V63.56h4.33v5.83a1,1,0,0,0,1,1h5.82Z"></path><path d="M36.56,83.53a1,1,0,0,0-1,1v2.9a1,1,0,0,0,2,0v-2.9A1,1,0,0,0,36.56,83.53Z"></path><path d="M48.53,75H45.64a1,1,0,0,0,0,2h2.89a1,1,0,0,0,0-2Z"></path><path d="M44.57,82.05a1,1,0,1,0-1.41,1.41c2.17,2.17,2.2,2.34,2.75,2.34a1,1,0,0,0,.71-1.7Z"></path><path d="M15.15,46.22a1,1,0,0,0,1-1v-2.9a1,1,0,1,0-2,0v2.9A1,1,0,0,0,15.15,46.22Z"></path><path d="M3.18,54.79h2.9a1,1,0,0,0,0-2H3.18a1,1,0,1,0,0,2Z"></path><path d="M7.14,47.71a1,1,0,0,0,1.42-1.42l-2.05-2a1,1,0,0,0-1.42,1.42Z"></path></g></svg>