<svg xmlns="http://www.w3.org/2000/svg" xmlns:xlink="http://www.w3.org/1999/xlink" xmlns:svgjs="http://svgjs.dev/svgjs" height="300" viewBox="0 0 496 496" width="300"><g width="100%" height="100%" transform="matrix(1,0,0,1,0,0)"><path d="m368 416c0-13.113281-4.488281-25.59375-12.230469-34.558594 2.773438-6.65625 4.230469-13.953125 4.230469-21.441406 0-14.59375-5.527344-28.167969-14.816406-37.160156 4.433594-7.863282 6.816406-17.144532 6.816406-26.839844 0-20.03125-10.199219-37.414062-25.199219-44.496094.800781-3.777344 1.199219-7.632812 1.199219-11.503906 0-26.472656-17.945312-48-40-48 20.03125 0 36.671875-17.769531 39.558594-40.855469 18.449218-4.257812 32.441406-23.777343 32.441406-47.144531 0-5.328125-.769531-10.574219-2.289062-15.6875 11.289062-8.71875 18.289062-23.792969 18.289062-40.3125 0-26.472656-17.945312-48-40-48s-40 21.527344-40 48c0 5.328125.769531 10.574219 2.289062 15.6875-9.640624 7.449219-16.152343 19.511719-17.847656 33.167969-18.457031 4.257812-32.441406 23.777343-32.441406 47.144531 0-23.367188-13.984375-42.886719-32.441406-47.144531-1.695313-13.65625-8.207032-25.726563-17.847656-33.167969 1.519531-5.113281 2.289062-10.359375 2.289062-15.6875 0-26.472656-17.945312-48-40-48s-40 21.527344-40 48c0 16.519531 7 31.59375 18.289062 40.3125-1.519531 5.113281-2.289062 10.359375-2.289062 15.6875 0 23.367188 13.992188 42.886719 32.441406 47.144531 2.886719 23.085938 19.527344 40.855469 39.558594 40.855469-22.054688 0-40 21.527344-40 48 0 3.871094.398438 7.726562 1.199219 11.503906-15 7.082032-25.199219 24.464844-25.199219 44.496094 0 9.695312 2.382812 18.976562 6.816406 26.839844-9.289062 8.992187-14.816406 22.566406-14.816406 37.160156 0 7.488281 1.457031 14.785156 4.230469 21.441406-7.742188 8.964844-12.230469 21.445313-12.230469 34.558594 0 1.054688.0625 2.078125.160156 3.105469-5.28125 8.351562-8.160156 18.488281-8.160156 28.894531 0 26.472656 17.945312 48 40 48s40-21.527344 40-48c0-1.054688-.0625-2.078125-.160156-3.105469 5.28125-8.351562 8.160156-18.488281 8.160156-28.894531 0-7.488281-1.457031-14.785156-4.230469-21.441406 7.742188-8.964844 12.230469-21.445313 12.230469-34.558594 0-9.695312-2.382812-18.976562-6.816406-26.839844 9.289062-8.992187 14.816406-22.566406 14.816406-37.160156 0-3.871094-.398438-7.726562-1.199219-11.503906 15-7.082032 25.199219-24.464844 25.199219-44.496094 0 20.03125 10.199219 37.414062 25.199219 44.496094-.800781 3.777344-1.199219 7.632812-1.199219 11.503906 0 14.59375 5.527344 28.167969 14.816406 37.160156-4.433594 7.863282-6.816406 17.144532-6.816406 26.839844 0 13.113281 4.488281 25.59375 12.230469 34.558594-2.773438 6.65625-4.230469 13.953125-4.230469 21.441406 0 10.40625 2.878906 20.542969 8.160156 28.894531-.097656 1.027344-.160156 2.050781-.160156 3.105469 0 26.472656 17.945312 48 40 48s40-21.527344 40-48c0-10.40625-2.878906-20.542969-8.160156-28.894531.097656-1.027344.160156-2.050781.160156-3.105469zm-80-304c4.414062 0 8-3.574219 8-8 0-13.144531 6.273438-25.160156 15.617188-29.894531 3.773437-1.914063 5.398437-6.449219 3.710937-10.328125-2.207031-5.074219-3.328125-10.386719-3.328125-15.777344 0-17.648438 10.769531-32 24-32s24 14.351562 24 32c0 13.144531-6.273438 25.160156-15.617188 29.894531-3.773437 1.914063-5.398437 6.449219-3.710937 10.328125 2.207031 5.074219 3.328125 10.386719 3.328125 15.777344 0 17.078125-10.113281 30.945312-22.753906 31.832031l-45.238282-19.390625c3.542969-2.753906 7.609376-4.441406 11.992188-4.441406zm-24 32c0-5.121094.992188-9.886719 2.601562-14.183594l45.015626 19.289063c-1.847657 15.214843-11.695313 26.894531-23.617188 26.894531-.761719 0-1.574219-.121094-2.414062-.273438-3.707032-12.277343-11.441407-22.230468-21.304688-27.535156-.175781-1.457031-.28125-2.847656-.28125-4.191406zm-112-40c0-5.390625 1.121094-10.703125 3.328125-15.777344 1.6875-3.878906.0625-8.414062-3.710937-10.328125-9.34375-4.734375-15.617188-16.75-15.617188-29.894531 0-17.648438 10.769531-32 24-32s24 14.351562 24 32c0 5.390625-1.121094 10.703125-3.328125 15.777344-1.6875 3.878906-.0625 8.414062 3.710937 10.328125 9.34375 4.734375 15.617188 16.75 15.617188 29.894531 0 4.425781 3.585938 8 8 8 4.382812 0 8.449219 1.6875 11.992188 4.441406l-45.238282 19.390625c-12.640625-.886719-22.753906-14.753906-22.753906-31.832031zm40.222656 232.558594c5.015625 6.175781 7.777344 14.496094 7.777344 23.441406 0 10.855469-4.160156 20.902344-11.121094 26.886719-2.902344 2.496093-3.632812 6.6875-1.75 10.015625 3.191406 5.625 4.871094 12.234375 4.871094 19.097656 0 8.167969-2.449219 16.03125-6.878906 22.128906-1.167969 1.597656-1.695313 3.574219-1.496094 5.542969l.117188 1.070313c.121093 1.082031.257812 2.144531.257812 3.257812 0 17.648438-10.769531 32-24 32s-24-14.351562-24-32c0-8.167969 2.449219-16.03125 6.878906-22.128906 1.167969-1.597656 1.695313-3.574219 1.496094-5.542969l-.117188-1.070313c-.121093-1.082031-.257812-2.144531-.257812-3.257812 0-10.847656 4.160156-20.902344 11.128906-26.886719 2.894532-2.496093 3.632813-6.6875 1.742188-10.015625-3.191406-5.625-4.871094-12.234375-4.871094-19.097656 0-12.304688 5.3125-23.320312 13.863281-28.769531 1.929688-1.222657 3.234375-3.214844 3.601563-5.46875.359375-2.25-.25-4.554688-1.6875-6.328125-4.578125-5.632813-7.167969-13.097656-7.601563-21.152344l45.457031 11.359375c-2.34375 6.4375-6.3125 11.816406-11.496093 15.113281-1.929688 1.222656-3.234375 3.214844-3.601563 5.46875-.367187 2.265625.25 4.570313 1.6875 6.335938zm39.777344-96.558594c0 15.648438-8.832031 29.191406-20.535156 31.519531-2.296875.457031-4.273438 1.886719-5.417969 3.929688-1.144531 2.039062-1.335937 4.480469-.527344 6.671875 1.375 3.75 2.054688 7.648437 2.28125 11.582031l-45.34375-11.335937c3.382813-9.289063 10.007813-16.289063 18.078125-17.894532 2.296875-.457031 4.273438-1.886718 5.417969-3.929687 1.144531-2.039063 1.335937-4.480469.527344-6.671875-1.648438-4.480469-2.480469-9.152344-2.480469-13.871094 0-17.648438 10.769531-32 24-32 .769531 0 1.574219.121094 2.414062.265625 3.707032 12.277344 11.441407 22.238281 21.3125 27.535156.167969 1.472657.273438 2.855469.273438 4.199219zm32 0c0-2.503906.296875-5.128906.929688-8.238281.574218-2.839844-.433594-5.785157-2.640626-7.671875-1.480468-1.257813-3.328124-1.921875-5.199218-1.921875-.9375 0-1.882813.167969-2.792969.496093-2.441406.910157-4.449219 1.335938-6.296875 1.335938-13.230469 0-24-14.351562-24-32 0-2.503906.296875-5.128906.929688-8.238281.574218-2.839844-.433594-5.785157-2.640626-7.671875-2.21875-1.882813-5.273437-2.433594-7.992187-1.425782-2.441406.910157-4.449219 1.335938-6.296875 1.335938-11.921875 0-21.769531-11.679688-23.617188-26.894531l45.015626-19.289063c1.609374 4.296875 2.601562 9.0625 2.601562 14.183594 0 2.503906-.296875 5.128906-.929688 8.238281-.574218 2.839844.433594 5.785157 2.640626 7.671875 2.210937 1.882813 5.273437 2.433594 7.992187 1.425782 2.441406-.910157 4.449219-1.335938 6.296875-1.335938 13.230469 0 24 14.351562 24 32 0 2.503906-.296875 5.128906-.929688 8.238281-.574218 2.839844.433594 5.785157 2.640626 7.671875 2.21875 1.890625 5.265624 2.441406 7.992187 1.425782 2.441406-.910157 4.449219-1.335938 6.296875-1.335938 13.230469 0 24 14.351562 24 32 0 4.71875-.832031 9.390625-2.488281 13.871094-.808594 2.191406-.617188 4.632812.527343 6.671875 1.144532 2.042969 3.128907 3.480469 5.417969 3.929687 8.070313 1.605469 14.695313 8.605469 18.078125 17.894532l-45.34375 11.335937c.234375-3.933594.90625-7.832031 2.28125-11.582031.808594-2.191406.617188-4.632813-.527344-6.671875-1.144531-2.042969-3.128906-3.480469-5.417968-3.929688-11.695313-2.328125-20.527344-15.871093-20.527344-31.519531zm72 240c-13.230469 0-24-14.351562-24-32 0-1.113281.136719-2.175781.257812-3.257812l.117188-1.070313c.210938-1.96875-.328125-3.945313-1.496094-5.542969-4.429687-6.097656-6.878906-13.960937-6.878906-22.128906 0-6.863281 1.679688-13.472656 4.871094-19.097656 1.882812-3.328125 1.152344-7.519532-1.75-10.015625-6.960938-5.984375-11.121094-16.03125-11.121094-26.886719 0-8.945312 2.761719-17.265625 7.777344-23.441406 1.4375-1.773438 2.046875-4.078125 1.6875-6.328125-.367188-2.246094-1.671875-4.238281-3.601563-5.46875-5.183593-3.304688-9.152343-8.671875-11.496093-15.113281l45.457031-11.359376c-.433594 8.054688-3.023438 15.511719-7.601563 21.152344-1.4375 1.773438-2.046875 4.078125-1.6875 6.328125.367188 2.246094 1.671875 4.238281 3.601563 5.46875 8.550781 5.441407 13.863281 16.457031 13.863281 28.761719 0 6.863281-1.679688 13.472656-4.871094 19.097656-1.882812 3.328125-1.152344 7.519532 1.75 10.015625 6.960938 5.984375 11.121094 16.03125 11.121094 26.886719 0 1.113281-.136719 2.175781-.257812 3.257812l-.117188 1.070313c-.210938 1.96875.328125 3.945313 1.496094 5.542969 4.429687 6.097656 6.878906 13.960937 6.878906 22.128906 0 17.648438-10.769531 32-24 32zm0 0" fill="#ffffff" fill-opacity="1" data-original-color="#000000ff" stroke="none" stroke-opacity="1"></path><path d="m40 243.078125c0-9.300781 1.351562-18.390625 3.894531-27.078125h40.21875c2.535157 8.6875 3.886719 17.777344 3.886719 27.078125v12.921875h16v-12.921875c0-28.054687-10.351562-54.445313-29.070312-75.078125 18.71875-20.625 29.070312-47.023438 29.070312-75.078125v-12.921875h-16v12.921875c0 9.300781-1.351562 18.390625-3.894531 27.078125h-40.210938c-2.542969-8.6875-3.894531-17.777344-3.894531-27.078125v-12.921875h-16v12.921875c0 28.054687 10.351562 54.453125 29.070312 75.078125-18.71875 20.625-29.070312 47.023438-29.070312 75.078125v12.921875h16zm10.246094-43.078125c3.65625-7.257812 8.273437-14.046875 13.753906-20.265625 5.480469 6.21875 10.097656 13.007813 13.753906 20.265625zm27.507812-64c-3.65625 7.257812-8.273437 14.046875-13.753906 20.265625-5.480469-6.21875-10.097656-13.007813-13.753906-20.265625zm0 0" fill="#ffffff" fill-opacity="1" data-original-color="#000000ff" stroke="none" stroke-opacity="1"></path><path d="m456 252.921875c0 9.300781-1.351562 18.390625-3.894531 27.078125h-40.21875c-2.535157-8.6875-3.886719-17.777344-3.886719-27.078125v-12.921875h-16v12.921875c0 28.054687 10.351562 54.445313 29.070312 75.078125-18.71875 20.625-29.070312 47.023438-29.070312 75.078125v12.921875h16v-12.921875c0-9.300781 1.351562-18.390625 3.894531-27.078125h40.21875c2.535157 8.6875 3.886719 17.777344 3.886719 27.078125v12.921875h16v-12.921875c0-28.054687-10.351562-54.445313-29.070312-75.078125 18.71875-20.625 29.070312-47.023438 29.070312-75.078125v-12.921875h-16zm-10.246094 43.078125c-3.65625 7.257812-8.265625 14.046875-13.753906 20.265625-5.480469-6.21875-10.097656-13.007813-13.753906-20.265625zm-27.507812 64c3.65625-7.257812 8.265625-14.046875 13.753906-20.265625 5.480469 6.21875 10.097656 13.007813 13.753906 20.265625zm0 0" fill="#ffffff" fill-opacity="1" data-original-color="#000000ff" stroke="none" stroke-opacity="1"></path><path d="m88 352c-3.640625 0-7.089844.742188-10.351562 1.863281l-19.160157-31.933593c3.472657-5.121094 5.511719-11.289063 5.511719-17.929688 0-17.648438-14.351562-32-32-32s-32 14.351562-32 32 14.351562 32 32 32c5.121094 0 9.894531-1.320312 14.191406-3.464844l18.105469 30.167969c-5.105469 5.671875-8.296875 13.089844-8.296875 21.296875 0 8.128906 3.144531 15.480469 8.152344 21.128906l-21.601563 28.800782c-3.320312-1.167969-6.832031-1.929688-10.550781-1.929688-17.648438 0-32 14.351562-32 32s14.351562 32 32 32 32-14.351562 32-32c0-8.128906-3.144531-15.480469-8.152344-21.128906l21.601563-28.800782c3.320312 1.167969 6.832031 1.929688 10.550781 1.929688 17.648438 0 32-14.351562 32-32s-14.351562-32-32-32zm-72-48c0-8.824219 7.175781-16 16-16s16 7.175781 16 16-7.175781 16-16 16-16-7.175781-16-16zm16 176c-8.824219 0-16-7.175781-16-16s7.175781-16 16-16 16 7.175781 16 16-7.175781 16-16 16zm56-80c-8.824219 0-16-7.175781-16-16s7.175781-16 16-16 16 7.175781 16 16-7.175781 16-16 16zm0 0" fill="#ffffff" fill-opacity="1" data-original-color="#000000ff" stroke="none" stroke-opacity="1"></path><path d="m464 160c-3.71875 0-7.230469.761719-10.550781 1.929688l-21.601563-28.800782c5.007813-5.648437 8.152344-13 8.152344-21.128906 0-8.207031-3.191406-15.625-8.296875-21.296875l18.105469-30.167969c4.296875 2.144532 9.070312 3.464844 14.191406 3.464844 17.648438 0 32-14.351562 32-32s-14.351562-32-32-32-32 14.351562-32 32c0 6.640625 2.039062 12.808594 5.511719 17.929688l-19.160157 31.933593c-3.261718-1.121093-6.710937-1.863281-10.351562-1.863281-17.648438 0-32 14.351562-32 32s14.351562 32 32 32c3.71875 0 7.230469-.761719 10.550781-1.929688l21.601563 28.800782c-5.007813 5.648437-8.152344 13-8.152344 21.128906 0 17.648438 14.351562 32 32 32s32-14.351562 32-32-14.351562-32-32-32zm0-144c8.824219 0 16 7.175781 16 16s-7.175781 16-16 16-16-7.175781-16-16 7.175781-16 16-16zm-72 96c0-8.824219 7.175781-16 16-16s16 7.175781 16 16-7.175781 16-16 16-16-7.175781-16-16zm72 96c-8.824219 0-16-7.175781-16-16s7.175781-16 16-16 16 7.175781 16 16-7.175781 16-16 16zm0 0" fill="#ffffff" fill-opacity="1" data-original-color="#000000ff" stroke="none" stroke-opacity="1"></path></g></svg>