<svg xmlns="http://www.w3.org/2000/svg" xmlns:xlink="http://www.w3.org/1999/xlink" xmlns:svgjs="http://svgjs.dev/svgjs" id="Capa_1" x="0px" y="0px" viewBox="0 0 490.667 490.667" style="enable-background:new 0 0 490.667 490.667;" xml:space="preserve" width="300" height="300"><g width="100%" height="100%" transform="matrix(1,0,0,1,0,0)"><g>	<g>		<path d="M436.053,94.544c-4.971,4.971-7.979,11.307-8.939,18.133l-25.92,5.163c-1.28-3.051-2.837-5.973-4.693-8.747l48.469-48.469&#10;&#9;&#9;&#9;c4.224,2.048,8.853,3.221,13.696,3.221c8.533,0,16.576-3.328,22.635-9.365c6.059-6.037,9.365-14.101,9.365-22.635&#10;&#9;&#9;&#9;c0-8.533-3.328-16.576-9.365-22.635c-12.075-12.075-33.173-12.075-45.248,0c-6.059,6.059-9.387,14.101-9.387,22.635&#10;&#9;&#9;&#9;c0,4.843,1.173,9.472,3.2,13.717l-48.555,48.555c-2.773-1.771-5.696-3.243-8.725-4.459l5.227-26.24&#10;&#9;&#9;&#9;c6.827-0.96,13.163-3.968,18.133-8.939c6.059-6.059,9.387-14.101,9.387-22.635c0-8.533-3.328-16.576-9.365-22.635&#10;&#9;&#9;&#9;c-12.075-12.075-33.173-12.075-45.248,0c-6.059,6.059-9.387,14.101-9.387,22.635c0,8.533,3.328,16.576,9.365,22.635&#10;&#9;&#9;&#9;c1.877,1.877,3.989,3.392,6.208,4.715l-5.291,26.539c-13.696,0.085-27.349,5.099-37.333,15.061&#10;&#9;&#9;&#9;c-10.069,10.069-15.616,23.467-15.616,37.717c0,10.624,3.093,20.757,8.832,29.419L155.584,319.824&#10;&#9;&#9;&#9;c-14.144-11.328-30.891-18.261-48.917-20.267v-44.779c10.176-2.048,19.541-7.04,27.051-14.528&#10;&#9;&#9;&#9;c10.069-10.091,15.616-23.488,15.616-37.739c0-13.163-4.907-25.472-13.568-35.221l14.763-19.691&#10;&#9;&#9;&#9;c3.051,0.939,6.187,1.579,9.472,1.579c8.555,0,16.597-3.328,22.656-9.387c6.016-6.059,9.344-14.08,9.344-22.613&#10;&#9;&#9;&#9;s-3.328-16.555-9.344-22.613c-12.075-12.096-33.216-12.096-45.291,0c-6.037,6.059-9.365,14.08-9.365,22.613&#10;&#9;&#9;&#9;c0,6.4,1.877,12.523,5.355,17.749l-14.784,19.712c-3.84-1.707-7.787-3.115-11.904-3.904v-46.165&#10;&#9;&#9;&#9;c4.437-1.557,8.555-4.011,11.989-7.445c6.016-6.059,9.344-14.08,9.344-22.613s-3.328-16.555-9.344-22.613&#10;&#9;&#9;&#9;c-12.075-12.096-33.216-12.096-45.291,0C67.328,57.957,64,65.979,64,74.512s3.328,16.555,9.344,22.613&#10;&#9;&#9;&#9;c3.435,3.435,7.552,5.888,11.989,7.445v46.165c-4.117,0.789-8.064,2.197-11.904,3.904l-14.784-19.712&#10;&#9;&#9;&#9;C62.123,129.701,64,123.579,64,117.179c0-8.533-3.328-16.555-9.344-22.613c-12.075-12.096-33.216-12.096-45.291,0&#10;&#9;&#9;&#9;C3.328,100.624,0,108.645,0,117.179s3.328,16.555,9.344,22.613c6.059,6.059,14.101,9.387,22.656,9.387&#10;&#9;&#9;&#9;c3.285,0,6.421-0.64,9.472-1.579l14.763,19.691c-8.661,9.749-13.568,22.059-13.568,35.221c0,14.251,5.547,27.648,15.616,37.717&#10;&#9;&#9;&#9;c7.509,7.509,16.875,12.48,27.051,14.528v44.779c-21.568,2.411-41.643,11.52-57.216,27.093C9.984,344.741,0,368.848,0,394.512&#10;&#9;&#9;&#9;c0,25.664,9.984,49.771,28.117,67.883c18.133,18.133,42.24,28.117,67.883,28.117s49.749-9.984,67.883-28.117&#10;&#9;&#9;&#9;c15.573-15.573,24.704-35.648,27.093-57.216h44.779c2.048,10.176,7.04,19.541,14.549,27.051&#10;&#9;&#9;&#9;c10.048,10.069,23.445,15.616,37.696,15.616c13.163,0,25.472-4.928,35.221-13.568l19.691,14.763&#10;&#9;&#9;&#9;c-0.939,3.029-1.579,6.187-1.579,9.472c0,8.533,3.328,16.555,9.344,22.613c6.059,6.059,14.101,9.387,22.656,9.387&#10;&#9;&#9;&#9;c8.555,0,16.597-3.328,22.656-9.387c6.016-6.059,9.344-14.08,9.344-22.613s-3.328-16.555-9.344-22.613&#10;&#9;&#9;&#9;c-10.496-10.517-27.499-11.328-39.787-3.584l-20.117-15.083c1.835-3.861,3.328-7.851,4.181-12.075h45.696&#10;&#9;&#9;&#9;c1.579,4.416,4.011,8.533,7.403,11.947c6.037,6.08,14.08,9.408,22.635,9.408c8.555,0,16.597-3.328,22.656-9.387&#10;&#9;&#9;&#9;c6.016-6.059,9.344-14.08,9.344-22.613s-3.328-16.555-9.344-22.613c-12.075-12.096-33.216-12.096-45.291,0&#10;&#9;&#9;&#9;c-3.413,3.435-5.845,7.531-7.403,11.947h-45.696c-0.853-4.224-2.368-8.213-4.181-12.053l19.52-14.635&#10;&#9;&#9;&#9;c5.184,3.477,11.307,5.355,17.728,5.355c8.555,0,16.597-3.328,22.656-9.387c6.016-6.059,9.344-14.08,9.344-22.613&#10;&#9;&#9;&#9;s-3.328-16.555-9.344-22.613c-12.075-12.096-33.216-12.096-45.291,0c-6.037,6.059-9.365,14.08-9.365,22.613&#10;&#9;&#9;&#9;c0,3.285,0.64,6.443,1.579,9.493L323.2,354.789c-20.416-17.899-53.547-17.344-72.896,2.005&#10;&#9;&#9;&#9;c-7.531,7.509-12.501,16.875-14.571,27.051h-44.779c-2.005-18.027-8.939-34.795-20.267-48.939l151.915-151.893&#10;&#9;&#9;&#9;c8.64,5.739,18.773,8.832,29.397,8.832c14.251,0,27.627-5.547,37.717-15.616c10.027-10.005,15.531-23.317,15.595-37.461&#10;&#9;&#9;&#9;l26.005-5.184c1.344,2.219,2.837,4.331,4.715,6.208c6.059,6.059,14.101,9.387,22.635,9.387s16.576-3.328,22.635-9.365&#10;&#9;&#9;&#9;c6.059-6.037,9.365-14.101,9.365-22.635s-3.328-16.576-9.365-22.635C469.227,82.469,448.128,82.469,436.053,94.544z&#10;&#9;&#9;&#9; M451.115,24.293c2.027-2.005,4.693-3.115,7.552-3.115s5.525,1.109,7.552,3.115c2.005,2.027,3.115,4.715,3.115,7.552&#10;&#9;&#9;&#9;c0,2.837-1.109,5.525-3.115,7.552c-4.032,4.011-11.051,4.011-15.083,0c-2.027-2.027-3.136-4.715-3.136-7.552&#10;&#9;&#9;&#9;C448,29.008,449.109,26.32,451.115,24.293z M152.469,109.627c2.005-2.005,4.672-3.115,7.531-3.115s5.525,1.109,7.531,3.115&#10;&#9;&#9;&#9;c2.027,2.027,3.136,4.715,3.136,7.552s-1.109,5.525-3.136,7.552c-4.011,4.011-11.051,4.011-15.04,0&#10;&#9;&#9;&#9;c-2.048-2.027-3.157-4.715-3.157-7.552S150.443,111.653,152.469,109.627z M39.531,124.731c-4.011,4.011-11.051,4.011-15.061,0&#10;&#9;&#9;&#9;c-2.027-2.027-3.136-4.715-3.136-7.552s1.109-5.525,3.136-7.552c2.005-2.005,4.672-3.115,7.531-3.115s5.525,1.109,7.531,3.115&#10;&#9;&#9;&#9;c2.027,2.027,3.136,4.715,3.136,7.552S41.557,122.704,39.531,124.731z M365.803,450.96c2.005-2.005,4.672-3.115,7.531-3.115&#10;&#9;&#9;&#9;c2.859,0,5.525,1.109,7.531,3.115c2.027,2.027,3.136,4.715,3.136,7.552c0,2.837-1.109,5.525-3.136,7.552&#10;&#9;&#9;&#9;c-4.011,4.011-11.051,4.011-15.04,0c-2.048-2.027-3.157-4.715-3.157-7.552C362.667,455.675,363.776,452.987,365.803,450.96z&#10;&#9;&#9;&#9; M408.469,386.96c2.005-2.005,4.672-3.115,7.531-3.115c2.859,0,5.525,1.109,7.531,3.115c2.027,2.027,3.136,4.715,3.136,7.552&#10;&#9;&#9;&#9;c0,2.837-1.109,5.525-3.136,7.552c-4.011,4.011-11.051,4.011-15.04,0c-2.048-2.027-3.157-4.715-3.157-7.552&#10;&#9;&#9;&#9;C405.333,391.675,406.443,388.987,408.469,386.96z M365.803,322.96c2.005-2.005,4.672-3.115,7.531-3.115&#10;&#9;&#9;&#9;c2.859,0,5.525,1.109,7.531,3.115c2.027,2.027,3.136,4.715,3.136,7.552c0,2.837-1.109,5.525-3.136,7.552&#10;&#9;&#9;&#9;c-4.011,4.011-11.051,4.011-15.04,0c-2.048-2.027-3.157-4.715-3.157-7.552C362.667,327.675,363.776,324.987,365.803,322.96z&#10;&#9;&#9;&#9; M265.365,371.877c6.059-6.037,14.101-9.365,22.635-9.365s16.576,3.328,22.635,9.387c6.037,6.037,9.365,14.059,9.365,22.613&#10;&#9;&#9;&#9;c0,8.555-3.328,16.576-9.365,22.635c-12.075,12.096-33.173,12.117-45.248,0c-6.059-6.059-9.387-14.08-9.387-22.635&#10;&#9;&#9;&#9;C256,385.957,259.328,377.936,265.365,371.877z M88.469,66.96c2.005-2.005,4.672-3.115,7.531-3.115s5.525,1.109,7.531,3.115&#10;&#9;&#9;&#9;c2.027,2.027,3.136,4.715,3.136,7.552s-1.109,5.525-3.136,7.552c-4.011,4.011-11.051,4.011-15.04,0&#10;&#9;&#9;&#9;c-2.048-2.027-3.157-4.715-3.157-7.552S86.443,68.987,88.469,66.96z M73.387,225.147C67.328,219.088,64,211.067,64,202.512&#10;&#9;&#9;&#9;s3.328-16.576,9.365-22.635c6.059-6.037,14.101-9.365,22.635-9.365s16.576,3.328,22.635,9.387&#10;&#9;&#9;&#9;c6.037,6.037,9.365,14.059,9.365,22.613s-3.328,16.576-9.365,22.635C106.56,237.243,85.461,237.264,73.387,225.147z&#10;&#9;&#9;&#9; M148.8,447.312c-28.203,28.203-77.376,28.203-105.579,0c-14.123-14.101-21.888-32.853-21.888-52.8s7.765-38.699,21.867-52.8&#10;&#9;&#9;&#9;s32.853-21.867,52.8-21.867s38.677,7.765,52.8,21.867s21.867,32.853,21.867,52.8S162.901,433.211,148.8,447.312z M365.781,24.293&#10;&#9;&#9;&#9;c2.027-2.005,4.693-3.115,7.552-3.115c2.859,0,5.525,1.109,7.552,3.115c2.005,2.027,3.115,4.715,3.115,7.552&#10;&#9;&#9;&#9;c0,2.837-1.109,5.525-3.115,7.552c-4.032,4.011-11.051,4.011-15.083,0c-2.027-2.027-3.136-4.715-3.136-7.552&#10;&#9;&#9;&#9;C362.667,29.008,363.776,26.32,365.781,24.293z M374.635,161.147c-12.075,12.075-33.173,12.096-45.248,0&#10;&#9;&#9;&#9;c-6.059-6.059-9.387-14.08-9.387-22.635s3.328-16.576,9.365-22.635c6.059-6.037,14.101-9.365,22.635-9.365&#10;&#9;&#9;&#9;c2.069,0,4.117,0.213,6.123,0.597c0.043,0,0.064,0.043,0.107,0.043c0.085,0.021,0.149,0,0.235,0.021&#10;&#9;&#9;&#9;c6.08,1.237,11.669,4.224,16.171,8.725c4.501,4.501,7.488,10.112,8.725,16.213c0,0.043,0,0.107,0,0.149s0.043,0.085,0.043,0.128&#10;&#9;&#9;&#9;c0.384,2.005,0.597,4.053,0.597,6.123C384,147.067,380.672,155.088,374.635,161.147z M466.219,124.731&#10;&#9;&#9;&#9;c-4.032,4.011-11.051,4.011-15.083,0c-2.027-2.027-3.136-4.715-3.136-7.552s1.109-5.525,3.115-7.552&#10;&#9;&#9;&#9;c2.027-2.005,4.693-3.115,7.552-3.115s5.525,1.109,7.552,3.115c2.005,2.027,3.115,4.715,3.115,7.552&#10;&#9;&#9;&#9;S468.224,122.704,466.219,124.731z" fill="#ffffff" fill-opacity="1" data-original-color="#000000ff" stroke="none" stroke-opacity="1"></path>	</g></g><g></g><g></g><g></g><g></g><g></g><g></g><g></g><g></g><g></g><g></g><g></g><g></g><g></g><g></g><g></g></g></svg>