<svg xmlns="http://www.w3.org/2000/svg" xmlns:xodm="http://www.corel.com/coreldraw/odm/2003" xmlns:xlink="http://www.w3.org/1999/xlink" xmlns:svgjs="http://svgjs.dev/svgjs" clip-rule="evenodd" fill-rule="evenodd" height="300" viewBox="0 0 512 512" width="300"><g width="100%" height="100%" transform="matrix(1,0,0,1,0,0)"><g id="Layer_x0020_1"><path d="m314.18 257.59 23.94 6.42c2.42-4.6 6.08-8.31 10.44-10.83v-.01c21.73-12.55 46.44 8.77 39.65 30.85-1.99 7.04-6.62 12.66-12.54 16.08l.01.01c-12.98 7.5-29.52 3.07-37.02-9.91h-.01c-2.52-4.36-3.84-9.41-3.63-14.61l-23.94-6.42c-4.05 10.57-11.02 19.35-19.7 25.66l12.4 21.48c30.48-9.53 49.5 33.16 21.6 49.36-12.89 7.47-29.49 3.11-37.03-9.92l-.01.01c-6.4-11.1-4.14-24.99 5.07-33.48l-12.4-21.48c-35.58 15.86-75.83-7.91-79.9-46.1h-24.78c-4.66 20.62-30.44 28.36-45.64 13.14-17.05-17.07-4.85-46.26 19.19-46.26 7.08 0 14.87 3.19 19.16 7.95l.02-.01c3.55 3.56 6.13 8.1 7.27 13.18h24.78c1.18-11.06 5.53-21.42 12.38-29.87l-17.53-17.52c-27.02 17.07-56.39-19.37-33.64-42.12s59.2 6.61 42.13 33.64l17.53 17.53c2.32-1.87 4.77-3.55 7.34-5.03v-.01c6.85-3.96 14.51-6.5 22.52-7.35v-24.77c-22.44-5.08-27.18-33.01-13.17-45.62l-.01-.01c17.05-17.06 46.3-4.9 46.3 19.17 0 12.8-8.94 23.69-21.12 26.46v24.77c32.52 3.47 55.42 33.63 50.34 65.62zm-153.69 40.45c71.52 0 119.96 72.46 93.6 138.26.74.31 1.38.58 1.9.8 19.28-7.79 166.57-73.91 169.08-280.15-20.75-2.85-96.19-17.13-169.07-80.48-72.92 63.38-148.4 77.65-169.1 80.48.65 54.08 11.33 104.43 33.69 149.3 12.24-5.28 25.73-8.21 39.9-8.21zm88.5 149.07c-7.32 13.39-17.59 24.94-29.97 33.79 18.39 10.91 32.04 16.72 37 18.69 22.71-9.01 224.86-97.01 227.43-377.41-24.77-3.18-128.05-21.17-227.45-108.21-99.46 87.08-202.79 105.06-227.49 108.22.72 78.61 17.24 151.34 52.17 215.08 7.99-10.34 17.91-19.06 29.24-25.64-23.93-47.99-35.06-102.12-35.06-160.02 0-3.2 2.52-5.83 5.69-5.99 4.27-.37 89.89-8.53 171.47-81.57 2.3-2.07 5.77-2.01 8.01.03 83.55 74.79 171.34 81.54 171.6 81.56 3.13.25 5.51 2.88 5.5 5.97h.01c0 233.13-178.54 297.3-179.05 297.49-2.77 1.03-5.32-.38-9.1-1.99zm-41.4 40.86c-66.59 35.26-147.89-12.97-147.89-89.14 0-18.36 4.91-35.58 13.49-50.41-38.71-68.12-56.7-146.67-56.7-231.6 0-3.21 2.52-5.83 5.69-5.99 4.91-.42 120.16-11.08 229.84-109.28 2.3-2.06 5.77-2.01 8.01.03 111.91 100.18 229.63 109.23 229.97 109.26 3.14.26 5.51 2.89 5.51 5.98 0 309.44-236.74 394.53-237.42 394.78-1.39.52-2.86.49-4.15.01v.02c-.06-.02-19.11-6.87-46.35-23.66zm15.69-151.92c-55.79-55.79-151.58-16.08-151.58 62.78 0 78.87 95.79 118.58 151.58 62.79 34.67-34.67 34.67-90.9 0-125.57zm-80.87-9.13h36.16c3.31 0 6 2.68 6 6v41.83h41.84c3.31 0 6 2.69 6 6v36.17c0 3.31-2.69 6-6 6h-41.84v41.83c0 3.32-2.69 6-6 6h-36.16c-3.31 0-6-2.68-6-6v-41.83h-41.84c-3.31 0-6-2.69-6-6v-36.17c0-3.31 2.69-6 6-6h41.84v-41.83c0-3.32 2.69-6 6-6zm30.16 12h-24.16v41.83c0 3.32-2.69 6-6 6h-41.84v24.17h41.84c3.31 0 6 2.68 6 6v41.83h24.16v-41.83c0-3.32 2.69-6 6-6h41.84v-24.17h-41.84c-3.31 0-6-2.68-6-6zm107.82-51.21c37.81-21.87 26.31-82.56-23.01-84.07-7.87.07-15.45 2.21-22.06 6.03l-.01-.01c-35.5 21.3-26.88 72.45 10.86 82.56 11.68 3.13 24.73 1.32 34.22-4.51zm-11.86-157.66c-5.9-5.91-15.48-5.91-21.39 0l-.01-.01c-14.07 14.1 7.32 35.48 21.4 21.4 5.91-5.91 5.9-15.49 0-21.39zm-87.03 27.19c-19.92 0-19.92 30.25 0 30.25s19.92-30.25 0-30.25zm-42.31 80.77c-14.09 14.08 7.3 35.47 21.38 21.38 5.91-5.9 5.91-15.48 0-21.38l.01-.01c-5.89-5.89-15.49-5.9-21.39.01zm168.71 118.8c19.24 5.15 27.08-24.07 7.84-29.23-19.24-5.15-27.05 24.09-7.84 29.23zm61.8-67.06c17.23-9.94 2.11-36.19-15.14-26.22l-.01-.01c-7.35 4.41-9.69 13.51-5.55 20.68l-.01.01c4.41 7.35 13.51 9.69 20.69 5.54v.02z" fill-rule="nonzero" fill="#ffffff" fill-opacity="1" data-original-color="#000000ff" stroke="none" stroke-opacity="1"></path></g></g></svg>