<svg xmlns="http://www.w3.org/2000/svg" xmlns:xlink="http://www.w3.org/1999/xlink" id="Layer_1" x="0px" y="0px" viewBox="0 0 512 512" style="enable-background:new 0 0 512 512;" xml:space="preserve" width="512" height="512"><g id="Layer_2_00000080899803185567522450000018241729106008636584_">	<g id="Layer_1-2">		<g id="mental_health">			<path d="M497.836,249.433c-40.537-63.108-43.179-80.848-43.293-81.773C435.472-29.784,201.766-40.018,108.371,63.104     c-6.264,7.791,5.53,17.75,11.934,9.952c85.643-93.896,301.366-85.325,318.761,95.751c0.115,3.249,3.116,22.819,45.861,89.362     c1.407,2.251,2.012,4.911,1.717,7.549c-0.566,2.548-2.529,4.624-6.115,6.907c-12.131,6.752-24.703,12.679-37.631,17.74     c-11.574,3.065,3.226,52.37-4.154,84.075c0.584,10.982-38.563,18.941-66.372,16.776c-17.38,0.001-23.608,8.984-23.608,17.269     c0,0,0,58.277,0,58.277c-12.993,41.724-141.635,33.282-171.809,13.118c-4.159-2.566-6.34-7.399-5.513-12.212     c3.114-21.873,5.982-64.712-11.059-106.646c-3.633-9.446-18.223-3.475-14.361,5.813c15.663,38.668,13.002,78.3,10.002,98.55     c-1.671,11.113,3.551,22.131,13.21,27.874c43.105,25.062,137.657,24.993,180.474-0.132c9.139-5.603,14.713-15.55,14.72-26.27     c0,0-0.094-58.277-0.094-58.277c0.138-0.827,5.874-2.222,9.663-1.887c92.767,3.747,85.479-33.773,80.169-104.099     C476.683,292.775,516.445,279.506,497.836,249.433L497.836,249.433z"></path>			<path d="M285.167,324.6c77.317,6.652,124.859-90.967,127.761-113.406c3.947-15.106-54.067-27.962-66.068-30.022     c0.614-11.63,2.513-70.095-12.624-69.714c-2.191,0.001-37.878,0.926-71.716,18.665c-11.346-22.31-27.048-42.12-46.18-58.258     c-15.261-8.791-49.445,45.664-55.918,58.353c-33.97-17.74-69.563-18.664-71.714-18.664c-15.2,0.29-13.296,57.464-12.814,69.619     c-12.199,2.118-69.362,14.774-65.959,29.948c0.926,3.002,20.761,74.395,76.943,102.27c33.181,21.44,105.379,6.117,124.556-5.152     C221.341,312.541,251.386,324.6,285.167,324.6z M344.708,196.987c17.783,2.815,35.05,8.253,51.238,16.136     c-18.716,61.815-76.451,117.558-155.921,88.906c42.015-7.669,100.002-50.932,104.759-105.118L344.708,196.987z M328.195,127.349     c16.189,65.484-11.43,144.132-94.587,160.073c26.628-27.168,57.189-94.94,35.064-142.862     C291.923,132.199,316.796,128.519,328.195,127.349L328.195,127.349z M211.434,88.435c66.682,56.717,60.974,142.555,0,200.384     C150.225,230.695,145.023,145.237,211.434,88.435L211.434,88.435z M94.672,127.349c11.323,1.17,36.272,4.85,59.636,17.287     c-22.466,47.967,8.451,115.923,35.027,143.107C105.087,270.206,79.034,194.231,94.672,127.349L94.672,127.349z M93.747,299.632     c-40.99-20.325-61.032-69.544-66.92-86.585c16.184-7.855,33.405-13.364,51.143-16.362c5.188,55.007,62.271,97.14,104.891,105.269     C159.498,308.861,123.905,314.617,93.747,299.632z"></path>		</g>	</g></g></svg>