<svg xmlns="http://www.w3.org/2000/svg" xmlns:svg="http://www.w3.org/2000/svg" xmlns:xlink="http://www.w3.org/1999/xlink" xmlns:svgjs="http://svgjs.dev/svgjs" id="svg4929" xml:space="preserve" width="300" height="300" viewBox="0 0 682.66669 682.66669"><g width="100%" height="100%" transform="matrix(1,0,0,1,0,0)"><defs id="defs4933"><clipPath clipPathUnits="userSpaceOnUse" id="clipPath4943"><path d="M 0,512 H 512 V 0 H 0 Z" id="path4941" fill="#ffffff" fill-opacity="1" data-original-color="#000000ff" stroke="none" stroke-opacity="1"></path></clipPath></defs><g id="g4935" transform="matrix(1.3333333,0,0,-1.3333333,0,682.66667)"><g id="g4937"><g id="g4939" clip-path="url(#clipPath4943)"><g id="g4945" transform="translate(460.1191,159.9399)"><path d="m 0,0 c 10.69,6.19 19.95,15.18 26.58,26.65 18.67,32.34 9.8,73.01 -19.32,94.9 22.96,13.63 35.77,37.92 35.77,62.9 0,12.4 -3.15,24.95 -9.8,36.46 -16.89,29.26 -50.95,42.41 -82.1,34.09 1.25,5.42 1.88,10.96 1.88,16.49 0,18.7 -7.13,37.39 -21.4,51.66 -28.54,28.54 -74.82,28.54 -103.36,0 l -32.37,-32.36 -32.359,32.36 c -14.281,14.27 -32.991,21.41 -51.691,21.41 -18.71,0 -37.42,-7.14 -51.68,-21.41 -18.49,-18.49 -24.99,-44.42 -19.52,-68.15 -6.19,1.65 -12.49,2.45 -18.74,2.45 -25.27,0 -49.829,-13.1 -63.36,-36.54 -20.03,-34.69 -8.37,-78.97 25.96,-99.36 -18.75,-14.1 -29.1,-36 -29.1,-58.44 0,-12.39 3.15,-24.95 9.79,-36.46 13.51,-23.4 38.01,-36.49 63.22,-36.54 -4.12,-9.42 -6.1,-19.34 -6.1,-29.16 0,-25.25 13.1,-49.81 36.54,-63.35 19.08,-11.02 41.05,-12.43 60.36,-5.79 15.31,-26.45 43.91,-44.25 76.68,-44.25 32.76,0 61.36,17.8 76.681,44.25 1.109,-0.38 2.239,-0.74 3.369,-1.07" style="stroke-linecap: round; stroke-linejoin: round; stroke-miterlimit: 10; stroke-dasharray: none;" id="path4947" fill="none" fill-opacity="1" stroke="#ffffff" stroke-opacity="1" data-original-stroke-color="#000000ff" stroke-width="15" data-original-stroke-width="15"></path></g><g id="g4949" transform="translate(155.6143,338.0645)"><path d="M 0,0 C 0.552,6.632 0.199,13.451 -1.161,20.303 -6.826,48.845 -28.419,70.171 -54.864,76.876" style="stroke-linecap: round; stroke-linejoin: round; stroke-miterlimit: 10; stroke-dasharray: none;" id="path4951" fill="none" fill-opacity="1" stroke="#ffffff" stroke-opacity="1" data-original-stroke-color="#000000ff" stroke-width="15" data-original-stroke-width="15"></path></g><g id="g4953" transform="translate(149.1504,374.7407)"><path d="M 0,0 C 22.048,8.73 38.134,27.604 43.789,49.929" style="stroke-linecap: round; stroke-linejoin: round; stroke-miterlimit: 10; stroke-dasharray: none;" id="path4955" fill="none" fill-opacity="1" stroke="#ffffff" stroke-opacity="1" data-original-stroke-color="#000000ff" stroke-width="15" data-original-stroke-width="15"></path></g><g id="g4957" transform="translate(79.1816,223.5127)"><path d="M 0,0 C 22.048,8.73 38.134,27.604 43.789,49.929" style="stroke-linecap: round; stroke-linejoin: round; stroke-miterlimit: 10; stroke-dasharray: none;" id="path4959" fill="none" fill-opacity="1" stroke="#ffffff" stroke-opacity="1" data-original-stroke-color="#000000ff" stroke-width="15" data-original-stroke-width="15"></path></g><g id="g4961" transform="translate(171.7002,267.1401)"><path d="M 0,0 C 33.16,6.88 58.08,36.26 58.08,71.47" style="stroke-linecap: round; stroke-linejoin: round; stroke-miterlimit: 10; stroke-dasharray: none;" id="path4963" fill="none" fill-opacity="1" stroke="#ffffff" stroke-opacity="1" data-original-stroke-color="#000000ff" stroke-width="15" data-original-stroke-width="15"></path></g><g id="g4965" transform="translate(83.79,338.6099)"><path d="M 0,0 C 0,-35.21 24.92,-64.59 58.07,-71.47" style="stroke-linecap: round; stroke-linejoin: round; stroke-miterlimit: 10; stroke-dasharray: none;" id="path4967" fill="none" fill-opacity="1" stroke="#ffffff" stroke-opacity="1" data-original-stroke-color="#000000ff" stroke-width="15" data-original-stroke-width="15"></path></g><g id="g4969" transform="translate(255.9951,91.0298)"><path d="M 0,0 C 0,40.313 -32.681,72.993 -72.993,72.993" style="stroke-linecap: round; stroke-linejoin: round; stroke-miterlimit: 10; stroke-dasharray: none;" id="path4971" fill="none" fill-opacity="1" stroke="#ffffff" stroke-opacity="1" data-original-stroke-color="#000000ff" stroke-width="15" data-original-stroke-width="15"></path></g><g id="g4973" transform="translate(193.2949,218.2378)"><path d="M 0,0 C -38.934,-10.454 -62.021,-50.49 -51.568,-89.424" style="stroke-linecap: round; stroke-linejoin: round; stroke-miterlimit: 10; stroke-dasharray: none;" id="path4975" fill="none" fill-opacity="1" stroke="#ffffff" stroke-opacity="1" data-original-stroke-color="#000000ff" stroke-width="15" data-original-stroke-width="15"></path></g><g id="g4977" transform="translate(255.9951,450.7314)"><path d="M 0,0 V -383.374" style="stroke-linecap: round; stroke-linejoin: round; stroke-miterlimit: 10; stroke-dasharray: none;" id="path4979" fill="none" fill-opacity="1" stroke="#ffffff" stroke-opacity="1" data-original-stroke-color="#000000ff" stroke-width="15" data-original-stroke-width="15"></path></g><g id="g4981" transform="translate(356.376,338.0645)"><path d="M 0,0 C -0.553,6.632 -0.199,13.451 1.16,20.303 6.825,48.845 28.418,70.171 54.863,76.876" style="stroke-linecap: round; stroke-linejoin: round; stroke-miterlimit: 10; stroke-dasharray: none;" id="path4983" fill="none" fill-opacity="1" stroke="#ffffff" stroke-opacity="1" data-original-stroke-color="#000000ff" stroke-width="15" data-original-stroke-width="15"></path></g><g id="g4985" transform="translate(319.0498,424.6699)"><path d="M 0,0 C 5.655,-22.325 21.742,-41.199 43.79,-49.929" style="stroke-linecap: round; stroke-linejoin: round; stroke-miterlimit: 10; stroke-dasharray: none;" id="path4987" fill="none" fill-opacity="1" stroke="#ffffff" stroke-opacity="1" data-original-stroke-color="#000000ff" stroke-width="15" data-original-stroke-width="15"></path></g><g id="g4989" transform="translate(389.0186,273.4419)"><path d="M 0,0 C 5.655,-22.325 21.741,-41.199 43.789,-49.929" style="stroke-linecap: round; stroke-linejoin: round; stroke-miterlimit: 10; stroke-dasharray: none;" id="path4991" fill="none" fill-opacity="1" stroke="#ffffff" stroke-opacity="1" data-original-stroke-color="#000000ff" stroke-width="15" data-original-stroke-width="15"></path></g><g id="g4993" transform="translate(428.2002,338.6079)"><path d="m 0,0 c 0,-40.313 -32.681,-72.993 -72.993,-72.993 -40.313,0 -72.993,32.68 -72.993,72.993" style="stroke-linecap: round; stroke-linejoin: round; stroke-miterlimit: 10; stroke-dasharray: none;" id="path4995" fill="none" fill-opacity="1" stroke="#ffffff" stroke-opacity="1" data-original-stroke-color="#000000ff" stroke-width="15" data-original-stroke-width="15"></path></g><g id="g4997" transform="translate(255.9951,91.0298)"><path d="M 0,0 C 0,40.313 32.68,72.993 72.992,72.993" style="stroke-linecap: round; stroke-linejoin: round; stroke-miterlimit: 10; stroke-dasharray: none;" id="path4999" fill="none" fill-opacity="1" stroke="#ffffff" stroke-opacity="1" data-original-stroke-color="#000000ff" stroke-width="15" data-original-stroke-width="15"></path></g><g id="g5001" transform="translate(370.1797,167.02)"><path d="M 0,0 C -6.64,24.16 -25.54,44.25 -51.489,51.22" style="stroke-linecap: round; stroke-linejoin: round; stroke-miterlimit: 10; stroke-dasharray: none;" id="path5003" fill="none" fill-opacity="1" stroke="#ffffff" stroke-opacity="1" data-original-stroke-color="#000000ff" stroke-width="15" data-original-stroke-width="15"></path></g><g id="g5005" transform="translate(424.5,175.4302)"><path d="m 0,0 c 39.51,-7.05 69.51,-41.59 69.51,-83.14 0,-46.64 -37.81,-84.45 -84.45,-84.45 -46.64,0 -84.46,37.81 -84.46,84.45 0,41.55 30,76.09 69.52,83.14" style="stroke-linecap: round; stroke-linejoin: round; stroke-miterlimit: 10; stroke-dasharray: none;" id="path5007" fill="none" fill-opacity="1" stroke="#ffffff" stroke-opacity="1" data-original-stroke-color="#000000ff" stroke-width="15" data-original-stroke-width="15"></path></g><g id="g5009" transform="translate(436.5459,92.2925)"><path d="m 0,0 c 0,14.905 -12.083,26.987 -26.987,26.987 -14.906,0 -26.988,-12.082 -26.988,-26.987 0,-14.905 12.082,-26.988 26.988,-26.988 C -12.083,-26.988 0,-14.905 0,0 Z" style="stroke-linecap: round; stroke-linejoin: round; stroke-miterlimit: 10; stroke-dasharray: none;" id="path5011" fill="none" fill-opacity="1" stroke="#ffffff" stroke-opacity="1" data-original-stroke-color="#000000ff" stroke-width="15" data-original-stroke-width="15"></path></g><g id="g5013" transform="translate(409.5586,119.2798)"><path d="M 0,0 V 22.346" style="stroke-linecap: round; stroke-linejoin: round; stroke-miterlimit: 10; stroke-dasharray: none;" id="path5015" fill="none" fill-opacity="1" stroke="#ffffff" stroke-opacity="1" data-original-stroke-color="#000000ff" stroke-width="15" data-original-stroke-width="15"></path></g><g id="g5017" transform="translate(409.5586,42.959)"><path d="M 0,0 V 22.346" style="stroke-linecap: round; stroke-linejoin: round; stroke-miterlimit: 10; stroke-dasharray: none;" id="path5019" fill="none" fill-opacity="1" stroke="#ffffff" stroke-opacity="1" data-original-stroke-color="#000000ff" stroke-width="15" data-original-stroke-width="15"></path></g><g id="g5021" transform="translate(386.1865,105.7861)"><path d="M 0,0 -19.352,11.173" style="stroke-linecap: round; stroke-linejoin: round; stroke-miterlimit: 10; stroke-dasharray: none;" id="path5023" fill="none" fill-opacity="1" stroke="#ffffff" stroke-opacity="1" data-original-stroke-color="#000000ff" stroke-width="15" data-original-stroke-width="15"></path></g><g id="g5025" transform="translate(452.2822,67.6255)"><path d="M 0,0 -19.352,11.173" style="stroke-linecap: round; stroke-linejoin: round; stroke-miterlimit: 10; stroke-dasharray: none;" id="path5027" fill="none" fill-opacity="1" stroke="#ffffff" stroke-opacity="1" data-original-stroke-color="#000000ff" stroke-width="15" data-original-stroke-width="15"></path></g><g id="g5029" transform="translate(386.1865,78.7983)"><path d="M 0,0 -19.352,-11.173" style="stroke-linecap: round; stroke-linejoin: round; stroke-miterlimit: 10; stroke-dasharray: none;" id="path5031" fill="none" fill-opacity="1" stroke="#ffffff" stroke-opacity="1" data-original-stroke-color="#000000ff" stroke-width="15" data-original-stroke-width="15"></path></g><g id="g5033" transform="translate(452.2822,116.959)"><path d="M 0,0 -19.352,-11.173" style="stroke-linecap: round; stroke-linejoin: round; stroke-miterlimit: 10; stroke-dasharray: none;" id="path5035" fill="none" fill-opacity="1" stroke="#ffffff" stroke-opacity="1" data-original-stroke-color="#000000ff" stroke-width="15" data-original-stroke-width="15"></path></g></g></g></g></g></svg>