<svg xmlns="http://www.w3.org/2000/svg" xmlns:xlink="http://www.w3.org/1999/xlink" xmlns:svgjs="http://svgjs.dev/svgjs" id="_x33_0" height="300" viewBox="0 0 62 62" width="300"><g width="100%" height="100%" transform="matrix(1,0,0,1,0,0)"><g><g><g><path d="m54 62c-4.411 0-8-3.589-8-8s3.589-8 8-8 8 3.589 8 8-3.589 8-8 8z" fill="#ffffff" fill-opacity="1" data-original-color="#f0bc5eff" stroke="none" stroke-opacity="1"></path></g></g><g><path d="m34 28v4h2v-4h4v-2h-4v-4h-2v4h-4v2z" fill="#ffffff" fill-opacity="1" data-original-color="#000000ff" stroke="none" stroke-opacity="1"></path><path d="m44.293 34.293 1.414 1.414 2.271-2.271c-.235 10.274-8.649 18.564-18.978 18.564-3.244 0-6.412-.833-9.224-2.398.142-.511.224-1.046.224-1.602 0-1.013-.255-1.967-.7-2.805 1.13.513 2.38.805 3.7.805 2.74 0 5.193-1.234 6.845-3.172 1.246.757 2.687 1.172 4.155 1.172 4.411 0 8-3.589 8-8 0-.965-.175-1.897-.506-2.785 1.548-1.618 2.506-3.805 2.506-6.215 0-4.962-4.037-9-9-9-3.024 0-5.699 1.504-7.332 3.799-1.273-1.139-2.935-1.799-4.668-1.799-3.859 0-7 3.14-7 7 0 1.234.324 2.393.887 3.401-1.842 1.7-2.887 4.055-2.887 6.599 0 1.96.637 3.771 1.705 5.25-.541-.16-1.112-.25-1.705-.25-.556 0-1.091.082-1.602.224-1.565-2.812-2.398-5.98-2.398-9.224 0-10.477 8.523-19 19-19 2.288 0 4.525.402 6.65 1.196l.699-1.873c-2.348-.878-4.821-1.323-7.349-1.323-11.579 0-21 9.42-21 21 0 3.538.896 6.997 2.582 10.075-1.558 1.085-2.582 2.886-2.582 4.925 0 3.309 2.691 6 6 6 2.039 0 3.84-1.024 4.925-2.582 3.079 1.686 6.538 2.582 10.075 2.582 11.446 0 20.767-9.209 20.98-20.606l2.313 2.313 1.414-1.414-4.707-4.707zm-10.293 7.707c-1.086 0-2.116-.292-3.031-.832.655-1.247 1.031-2.664 1.031-4.168 0-.533-.064-1.061-.157-1.583.984.371 2.045.583 3.157.583 1.777 0 3.431-.525 4.828-1.417.112.459.172.932.172 1.417 0 3.309-2.691 6-6 6zm1-22c3.859 0 7 3.14 7 7s-3.141 7-7 7-7-3.14-7-7 3.141-7 7-7zm-12 2c1.394 0 2.728.593 3.669 1.606-.428 1.049-.669 2.193-.669 3.394s.241 2.345.669 3.394c-.944 1.025-2.253 1.606-3.669 1.606-2.757 0-5-2.243-5-5s2.243-5 5-5zm-4.892 9.998c1.037 1.015 2.388 1.706 3.892 1.922v2.08h-4v2h4v4h2v-4h4v-2h-4v-2.081c1.364-.2 2.642-.801 3.668-1.718.463.651 1.004 1.242 1.62 1.749.459.945.712 1.99.712 3.05 0 3.86-3.141 7-7 7s-7-3.14-7-7c0-1.914.761-3.691 2.108-5.002zm-4.108 20.002c-2.206 0-4-1.794-4-4s1.794-4 4-4 4 1.794 4 4-1.794 4-4 4z" fill="#ffffff" fill-opacity="1" data-original-color="#000000ff" stroke="none" stroke-opacity="1"></path><path d="m54 4c-.77 0-1.518.119-2.241.33-.726-2.497-3.03-4.33-5.759-4.33-3.309 0-6 2.691-6 6 0 1.826.845 3.541 2.245 4.67-.149.418-.245.861-.245 1.33 0 2.206 1.794 4 4 4 .349 0 .681-.059 1.003-.143 1.395 2.54 4.039 4.143 6.997 4.143 4.411 0 8-3.589 8-8s-3.589-8-8-8zm-8-2c2.206 0 4 1.794 4 4 0 1.162-.517 2.254-1.375 3.006-.704-.618-1.616-1.006-2.625-1.006s-1.921.388-2.625 1.006c-.858-.752-1.375-1.844-1.375-3.006 0-2.206 1.794-4 4-4zm-2 10c0-1.103.897-2 2-2s2 .897 2 2-.897 2-2 2-2-.897-2-2zm10 6c-2.219 0-4.203-1.203-5.249-3.11.766-.729 1.249-1.752 1.249-2.89 0-.469-.096-.912-.245-1.33 1.309-1.056 2.12-2.625 2.221-4.317.647-.232 1.324-.353 2.024-.353 3.309 0 6 2.691 6 6s-2.691 6-6 6z" fill="#ffffff" fill-opacity="1" data-original-color="#000000ff" stroke="none" stroke-opacity="1"></path></g><g><g><path d="m5 10c-2.757 0-5-2.243-5-5s2.243-5 5-5 5 2.243 5 5-2.243 5-5 5z" fill="#ffffff" fill-opacity="1" data-original-color="#f0bc5eff" stroke="none" stroke-opacity="1"></path></g></g></g></g></svg>