<svg xmlns="http://www.w3.org/2000/svg" xmlns:xlink="http://www.w3.org/1999/xlink" xmlns:svgjs="http://svgjs.dev/svgjs" id="Layer_1" height="300" viewBox="0 0 510 510" width="300"><g width="100%" height="100%" transform="matrix(1,0,0,1,0,0)"><g><path d="m495 420h-31.51c-5.98-29.344-29.146-52.511-58.49-58.491v-361.509h-390v510h375c36.22 0 66.522-25.808 73.49-60h31.51zm-450-390h330v331.509c-25.226 5.141-45.869 22.991-54.971 46.539-12.384-5.437-27.675-5.437-40.059 0-27.23-69.403-127.996-61.128-143.461 11.952h-31.509v30h31.509c2.259 11.078 6.967 21.274 13.532 30h-105.041zm120 405c0-24.813 20.186-45 45-45 59.699 2.472 59.681 87.538 0 90-24.814 0-45-20.187-45-45zm119.781 5.437c7.735-8.601 22.702-8.6 30.438 0 1.064 14.774 6.408 28.38 14.822 39.563h-60.082c8.414-11.183 13.758-24.789 14.822-39.563zm105.219 39.563c-24.814 0-45-20.187-45-45 2.472-59.699 87.537-59.681 90 0 0 24.813-20.186 45-45 45z" fill="#ffffff" fill-opacity="1" data-original-color="#000000ff" stroke="none" stroke-opacity="1"></path><path d="m177.426 162.426-21.213-21.213c-18.726 18.726-51.213 5.598-51.213-21.213 0-26.859 32.51-39.916 51.213-21.213l21.213-21.213c-37.983-37.984-102.426-10.473-102.426 42.426 0 52.963 64.51 80.344 102.426 42.426z" fill="#ffffff" fill-opacity="1" data-original-color="#000000ff" stroke="none" stroke-opacity="1"></path><path d="m75 240h75v30h-75z" fill="#ffffff" fill-opacity="1" data-original-color="#000000ff" stroke="none" stroke-opacity="1"></path><path d="m180 240h165v30h-165z" fill="#ffffff" fill-opacity="1" data-original-color="#000000ff" stroke="none" stroke-opacity="1"></path><path d="m225 180h120v30h-120z" fill="#ffffff" fill-opacity="1" data-original-color="#000000ff" stroke="none" stroke-opacity="1"></path><path d="m225 120h120v30h-120z" fill="#ffffff" fill-opacity="1" data-original-color="#000000ff" stroke="none" stroke-opacity="1"></path><path d="m225 60h120v30h-120z" fill="#ffffff" fill-opacity="1" data-original-color="#000000ff" stroke="none" stroke-opacity="1"></path><path d="m75 300h75v30h-75z" fill="#ffffff" fill-opacity="1" data-original-color="#000000ff" stroke="none" stroke-opacity="1"></path><path d="m180 300h165v30h-165z" fill="#ffffff" fill-opacity="1" data-original-color="#000000ff" stroke="none" stroke-opacity="1"></path></g></g></svg>