<svg xmlns="http://www.w3.org/2000/svg" xmlns:xlink="http://www.w3.org/1999/xlink" xmlns:svgjs="http://svgjs.dev/svgjs" height="300" viewBox="-1 0 512 512" width="300"><g width="100%" height="100%" transform="matrix(1,0,0,1,0,0)"><path d="m193.660156 427.285156h-141.660156c-4.136719 0-7.492188-3.355468-7.492188-7.492187 0-4.140625 3.355469-7.496094 7.492188-7.496094h141.660156c4.136719 0 7.492188 3.355469 7.492188 7.496094 0 4.136719-3.355469 7.492187-7.492188 7.492187zm0 0" fill="#ffffff" fill-opacity="1" data-original-color="#000000ff" stroke="none" stroke-opacity="1"></path><path d="m462.457031 45.433594h-62.433593c-4.140626 0-7.496094-3.355469-7.496094-7.492188 0-4.140625 3.355468-7.496094 7.496094-7.496094h62.433593c4.140625 0 7.496094 3.355469 7.496094 7.496094 0 4.136719-3.355469 7.492188-7.496094 7.492188zm0 0" fill="#ffffff" fill-opacity="1" data-original-color="#000000ff" stroke="none" stroke-opacity="1"></path><path d="m503.089844 75.554688h-70.671875c-4.136719 0-7.492188-3.355469-7.492188-7.492188 0-4.140625 3.355469-7.496094 7.492188-7.496094h70.671875c4.136718 0 7.492187 3.355469 7.492187 7.496094 0 4.136719-3.355469 7.492188-7.492187 7.492188zm0 0" fill="#ffffff" fill-opacity="1" data-original-color="#000000ff" stroke="none" stroke-opacity="1"></path><path d="m86.15625 367.039062h-78.664062c-4.136719 0-7.492188-3.351562-7.492188-7.492187 0-4.136719 3.355469-7.492187 7.492188-7.492187h78.664062c4.140625 0 7.492188 3.355468 7.492188 7.492187 0 4.140625-3.351563 7.492187-7.492188 7.492187zm0 0" fill="#ffffff" fill-opacity="1" data-original-color="#000000ff" stroke="none" stroke-opacity="1"></path><path d="m86.15625 336.917969h-78.664062c-4.136719 0-7.492188-3.351563-7.492188-7.492188 0-4.136719 3.355469-7.492187 7.492188-7.492187h78.664062c4.140625 0 7.492188 3.355468 7.492188 7.492187 0 4.140625-3.351563 7.492188-7.492188 7.492188zm0 0" fill="#ffffff" fill-opacity="1" data-original-color="#000000ff" stroke="none" stroke-opacity="1"></path><path d="m193.660156 397.164062h-141.660156c-4.136719 0-7.492188-3.355468-7.492188-7.496093 0-4.136719 3.355469-7.492188 7.492188-7.492188h141.660156c4.136719 0 7.492188 3.355469 7.492188 7.492188 0 4.140625-3.355469 7.496093-7.492188 7.496093zm0 0" fill="#ffffff" fill-opacity="1" data-original-color="#000000ff" stroke="none" stroke-opacity="1"></path><path d="m502.273438 329.363281h-69.855469c-4.140625 0-7.492188-3.355469-7.492188-7.496093 0-4.136719 3.351563-7.492188 7.492188-7.492188h69.855469c4.136718 0 7.492187 3.355469 7.492187 7.492188 0 4.140624-3.355469 7.496093-7.492187 7.496093zm0 0" fill="#ffffff" fill-opacity="1" data-original-color="#000000ff" stroke="none" stroke-opacity="1"></path><path d="m503.089844 359.484375h-70.671875c-4.136719 0-7.492188-3.355469-7.492188-7.492187 0-4.140626 3.355469-7.492188 7.492188-7.492188h70.671875c4.136718 0 7.492187 3.351562 7.492187 7.492188 0 4.136718-3.355469 7.492187-7.492187 7.492187zm0 0" fill="#ffffff" fill-opacity="1" data-original-color="#000000ff" stroke="none" stroke-opacity="1"></path><path d="m503.089844 390.125h-103.066406c-4.140626 0-7.496094-3.355469-7.496094-7.496094 0-4.136718 3.355468-7.492187 7.496094-7.492187h103.066406c4.136718 0 7.492187 3.355469 7.492187 7.492187 0 4.140625-3.355469 7.496094-7.492187 7.496094zm0 0" fill="#ffffff" fill-opacity="1" data-original-color="#000000ff" stroke="none" stroke-opacity="1"></path><path d="m193.660156 427.285156h-141.660156c-4.136719 0-7.492188-3.355468-7.492188-7.492187 0-4.140625 3.355469-7.496094 7.492188-7.496094h141.660156c4.136719 0 7.492188 3.355469 7.492188 7.496094 0 4.136719-3.355469 7.492187-7.492188 7.492187zm0 0" fill="#ffffff" fill-opacity="1" data-original-color="#000000ff" stroke="none" stroke-opacity="1"></path><path d="m462.457031 45.433594h-62.433593c-4.140626 0-7.496094-3.355469-7.496094-7.492188 0-4.140625 3.355468-7.496094 7.496094-7.496094h62.433593c4.140625 0 7.496094 3.355469 7.496094 7.496094 0 4.136719-3.355469 7.492188-7.496094 7.492188zm0 0" fill="#ffffff" fill-opacity="1" data-original-color="#000000ff" stroke="none" stroke-opacity="1"></path><path d="m503.089844 75.554688h-70.671875c-4.136719 0-7.492188-3.355469-7.492188-7.492188 0-4.140625 3.355469-7.496094 7.492188-7.496094h70.671875c4.136718 0 7.492187 3.355469 7.492187 7.496094 0 4.136719-3.355469 7.492188-7.492187 7.492188zm0 0" fill="#ffffff" fill-opacity="1" data-original-color="#000000ff" stroke="none" stroke-opacity="1"></path><path d="m86.15625 367.039062h-78.664062c-4.136719 0-7.492188-3.351562-7.492188-7.492187 0-4.136719 3.355469-7.492187 7.492188-7.492187h78.664062c4.140625 0 7.492188 3.355468 7.492188 7.492187 0 4.140625-3.351563 7.492187-7.492188 7.492187zm0 0" fill="#ffffff" fill-opacity="1" data-original-color="#000000ff" stroke="none" stroke-opacity="1"></path><path d="m86.15625 336.917969h-78.664062c-4.136719 0-7.492188-3.351563-7.492188-7.492188 0-4.136719 3.355469-7.492187 7.492188-7.492187h78.664062c4.140625 0 7.492188 3.355468 7.492188 7.492187 0 4.140625-3.351563 7.492188-7.492188 7.492188zm0 0" fill="#ffffff" fill-opacity="1" data-original-color="#000000ff" stroke="none" stroke-opacity="1"></path><path d="m193.660156 397.164062h-141.660156c-4.136719 0-7.492188-3.355468-7.492188-7.496093 0-4.136719 3.355469-7.492188 7.492188-7.492188h141.660156c4.136719 0 7.492188 3.355469 7.492188 7.492188 0 4.140625-3.355469 7.496093-7.492188 7.496093zm0 0" fill="#ffffff" fill-opacity="1" data-original-color="#000000ff" stroke="none" stroke-opacity="1"></path><path d="m502.273438 329.363281h-69.855469c-4.140625 0-7.492188-3.355469-7.492188-7.496093 0-4.136719 3.351563-7.492188 7.492188-7.492188h69.855469c4.136718 0 7.492187 3.355469 7.492187 7.492188 0 4.140624-3.355469 7.496093-7.492187 7.496093zm0 0" fill="#ffffff" fill-opacity="1" data-original-color="#000000ff" stroke="none" stroke-opacity="1"></path><path d="m503.089844 359.484375h-70.671875c-4.136719 0-7.492188-3.355469-7.492188-7.492187 0-4.140626 3.355469-7.492188 7.492188-7.492188h70.671875c4.136718 0 7.492187 3.351562 7.492187 7.492188 0 4.136718-3.355469 7.492187-7.492187 7.492187zm0 0" fill="#ffffff" fill-opacity="1" data-original-color="#000000ff" stroke="none" stroke-opacity="1"></path><path d="m503.089844 390.125h-103.066406c-4.140626 0-7.496094-3.355469-7.496094-7.496094 0-4.136718 3.355468-7.492187 7.496094-7.492187h103.066406c4.136718 0 7.492187 3.355469 7.492187 7.492187 0 4.140625-3.355469 7.496094-7.492187 7.496094zm0 0" fill="#ffffff" fill-opacity="1" data-original-color="#000000ff" stroke="none" stroke-opacity="1"></path><path d="m254.449219 372.5c102.699219 0 186.25-83.550781 186.25-186.25s-83.550781-186.25-186.25-186.25-186.25 83.550781-186.25 186.25c0 88.722656 62.371093 163.148438 145.5625 181.757812v103.304688c0 22.433594 18.253906 40.6875 40.6875 40.6875 22.433593 0 40.6875-18.25 40.6875-40.6875v-71.558594c0-4.136718-3.355469-7.492187-7.496094-7.492187-4.136719 0-7.492187 3.355469-7.492187 7.492187v71.558594c0 14.171875-11.527344 25.699219-25.699219 25.699219-14.167969 0-25.699219-11.527344-25.699219-25.699219v-100.597656c8.402344 1.167968 16.980469 1.785156 25.699219 1.785156zm-171.261719-186.25c0-94.4375 76.828125-171.261719 171.261719-171.261719 94.433593 0 171.261719 76.824219 171.261719 171.261719 0 94.433594-76.828126 171.261719-171.261719 171.261719-94.433594 0-171.261719-76.828125-171.261719-171.261719zm0 0" fill="#ffffff" fill-opacity="1" data-original-color="#000000ff" stroke="none" stroke-opacity="1"></path><path d="m413.882812 186.25c0-87.914062-71.519531-159.4375-159.433593-159.4375-87.914063 0-159.4375 71.523438-159.4375 159.4375 0 49.035156 22.082031 94.632812 60.582031 125.09375 3.242188 2.570312 7.957031 2.019531 10.523438-1.226562 2.570312-3.242188 2.019531-7.957032-1.226563-10.523438-34.882813-27.605469-54.890625-68.917969-54.890625-113.34375 0-79.652344 64.796875-144.449219 144.449219-144.449219 79.648437 0 144.449219 64.796875 144.449219 144.449219 0 79.648438-64.800782 144.449219-144.449219 144.449219-20.886719 0-41.03125-4.359375-59.875-12.953125-3.761719-1.71875-8.210938-.058594-9.929688 3.707031-1.714843 3.765625-.054687 8.207031 3.710938 9.925781 20.804687 9.492188 43.042969 14.304688 66.09375 14.304688 87.914062 0 159.433593-71.523438 159.433593-159.433594zm0 0" fill="#ffffff" fill-opacity="1" data-original-color="#000000ff" stroke="none" stroke-opacity="1"></path><path d="m339.425781 230.953125c17.9375-18.453125 26.558594-36.800781 26.914063-37.574219.925781-1.992187.929687-4.289062.011718-6.285156-.300781-.648438-7.476562-16.070312-22.398437-32.835938-2.753906-3.09375-7.492187-3.367187-10.582031-.617187-3.089844 2.753906-3.367188 7.488281-.613282 10.578125 9.578126 10.761719 15.664063 21.011719 18.359376 25.992188-7.214844 13.214843-38.527344 63.53125-96.667969 63.53125-28.234375 0-53.261719-11.054688-74.390625-32.851563-12.039063-12.414063-19.367188-25.015625-22.332032-30.652344 6.925782-13.0625 37.53125-63.53125 96.722657-63.53125 19.640625 0 38.0625 5.652344 54.75 16.796875 3.441406 2.296875 8.09375 1.371094 10.390625-2.070312 2.300781-3.441406 1.375-8.097656-2.070313-10.394532-19.191406-12.820312-40.414062-19.316406-63.070312-19.316406-32.046875 0-61.585938 13.070313-85.421875 37.796875-17.820313 18.480469-26.164063 36.867188-26.511719 37.640625-.871094 1.941406-.875 4.160156-.011719 6.105469.34375.773437 8.625 19.167969 26.410156 37.65625 23.789063 24.734375 53.367188 37.804687 85.535157 37.804687 31.570312.003907 60.953125-13.0625 84.976562-37.773437zm0 0" fill="#ffffff" fill-opacity="1" data-original-color="#000000ff" stroke="none" stroke-opacity="1"></path><path d="m209.910156 191.789062c0 24.558594 19.980469 44.539063 44.539063 44.539063 24.558593 0 44.539062-19.980469 44.539062-44.539063 0-24.558593-19.980469-44.542968-44.539062-44.542968-24.558594.003906-44.539063 19.984375-44.539063 44.542968zm74.089844 0c0 16.292969-13.257812 29.550782-29.550781 29.550782s-29.550781-13.257813-29.550781-29.550782c0-16.296874 13.257812-29.554687 29.550781-29.554687s29.550781 13.257813 29.550781 29.554687zm0 0" fill="#ffffff" fill-opacity="1" data-original-color="#000000ff" stroke="none" stroke-opacity="1"></path><path d="m473.105469 259.222656c-11.191407 0-20.296875-9.101562-20.296875-20.296875 0-11.191406 9.105468-20.296875 20.296875-20.296875 11.191406 0 20.296875 9.105469 20.296875 20.296875 0 11.195313-9.105469 20.296875-20.296875 20.296875zm0-25.605468c-2.929688 0-5.3125 2.382812-5.3125 5.308593 0 2.929688 2.382812 5.3125 5.3125 5.3125 2.925781 0 5.308593-2.382812 5.308593-5.3125 0-2.925781-2.382812-5.308593-5.308593-5.308593zm0 0" fill="#ffffff" fill-opacity="1" data-original-color="#000000ff" stroke="none" stroke-opacity="1"></path><path d="m344.039062 447.519531c-15.261718 0-27.675781-12.414062-27.675781-27.675781s12.414063-27.675781 27.675781-27.675781c15.261719 0 27.675782 12.414062 27.675782 27.675781s-12.414063 27.675781-27.675782 27.675781zm0-40.367187c-7 0-12.691406 5.695312-12.691406 12.691406s5.691406 12.691406 12.691406 12.691406c6.996094 0 12.6875-5.691406 12.6875-12.691406 0-6.996094-5.691406-12.691406-12.6875-12.691406zm0 0" fill="#ffffff" fill-opacity="1" data-original-color="#000000ff" stroke="none" stroke-opacity="1"></path><path d="m53.992188 117.515625c-4.386719 0-8.175782-2.976563-9.21875-7.234375l-2.417969-9.867188c-3.957031-16.160156-16.238281-24.617187-25.847657-28.871093-.390624-.171875-.769531-.378907-1.125-.617188-2.761718-1.839843-4.40625-4.917969-4.40625-8.234375 0-3.3125 1.644532-6.390625 4.40625-8.230468.355469-.238282.730469-.445313 1.125-.621094 9.609376-4.25 21.890626-12.707032 25.847657-28.863282l2.417969-9.871093c1.039062-4.257813 4.832031-7.234375 9.21875-7.234375 4.382812 0 8.175781 2.976562 9.21875 7.234375l2.414062 9.871093c3.957031 16.15625 16.242188 24.617188 25.851562 28.867188.390626.171875.765626.378906 1.125.617188 2.757813 1.839843 4.40625 4.917968 4.40625 8.234374 0 3.3125-1.648437 6.390626-4.40625 8.230469-.359374.238281-.734374.445313-1.125.621094-9.609374 4.25-21.894531 12.707031-25.851562 28.867187l-2.414062 9.867188c-1.042969 4.257812-4.835938 7.234375-9.21875 7.234375zm-22.238282-54.824219c10.257813 6.433594 17.789063 15.027344 22.238282 25.394532 4.449218-10.367188 11.976562-18.960938 22.238281-25.394532-10.261719-6.429687-17.789063-15.027344-22.238281-25.390625-4.449219 10.363281-11.980469 18.960938-22.238282 25.390625zm0 0" fill="#ffffff" fill-opacity="1" data-original-color="#000000ff" stroke="none" stroke-opacity="1"></path><path d="m34.070312 197.71875c-3.953124 0-7.371093-2.683594-8.3125-6.523438l-1.285156-5.253906c-1.417968-5.792968-5.378906-10.167968-11.773437-12.996094-.394531-.175781-.769531-.378906-1.125-.617187-2.445313-1.632813-3.90625-4.359375-3.90625-7.300781 0-2.9375 1.460937-5.667969 3.90625-7.296875.355469-.238281.730469-.445313 1.125-.617188 6.394531-2.832031 10.355469-7.203125 11.773437-13l1.285156-5.253906c.941407-3.839844 4.363282-6.523437 8.3125-6.523437 3.953126 0 7.371094 2.683593 8.3125 6.523437l1.285157 5.253906c1.417969 5.796875 5.382812 10.167969 11.777343 13 .394532.171875.769532.378907 1.125.617188 2.445313 1.628906 3.90625 4.359375 3.90625 7.296875 0 2.941406-1.460937 5.667968-3.90625 7.300781-.355468.238281-.730468.441406-1.125.617187-6.394531 2.828126-10.355468 7.203126-11.777343 12.996094l-1.285157 5.253906c-.941406 3.84375-4.359374 6.523438-8.3125 6.523438zm-5.867187-32.691406c2.265625 1.894531 4.230469 4.015625 5.871094 6.347656 1.636719-2.332031 3.597656-4.453125 5.863281-6.347656-2.265625-1.890625-4.226562-4.011719-5.867188-6.347656-1.636718 2.335937-3.597656 4.457031-5.867187 6.347656zm0 0" fill="#ffffff" fill-opacity="1" data-original-color="#000000ff" stroke="none" stroke-opacity="1"></path><path d="m473.105469 163.621094c-3.957031 0-7.375-2.683594-8.3125-6.527344l-1.289063-5.25c-1.417968-5.796875-5.378906-10.167969-11.773437-13-.390625-.171875-.769531-.378906-1.125-.617188-2.445313-1.628906-3.90625-4.359374-3.90625-7.296874 0-2.941407 1.460937-5.667969 3.90625-7.300782.355469-.238281.730469-.441406 1.125-.617187 6.394531-2.828125 10.355469-7.203125 11.773437-12.996094l1.289063-5.253906c.9375-3.839844 4.355469-6.523438 8.3125-6.523438 3.953125 0 7.371093 2.683594 8.308593 6.523438l1.289063 5.253906c1.417969 5.792969 5.378906 10.167969 11.777344 12.996094.390625.175781.765625.378906 1.121093.617187 2.445313 1.632813 3.90625 4.359375 3.90625 7.300782 0 2.9375-1.460937 5.667968-3.90625 7.296874-.355468.238282-.730468.445313-1.121093.617188-6.398438 2.832031-10.359375 7.203125-11.777344 13l-1.289063 5.253906c-.9375 3.839844-4.355468 6.523438-8.308593 6.523438zm-5.871094-32.691406c2.269531 1.890624 4.230469 4.011718 5.867187 6.34375 1.640626-2.332032 3.601563-4.453126 5.867188-6.34375-2.265625-1.894532-4.226562-4.015626-5.867188-6.347657-1.636718 2.332031-3.597656 4.453125-5.867187 6.347657zm-.375-22.609376c0 .003907 0 .011719.003906.015626l-.003906-.011719s0 0 0-.003907zm0 0" fill="#ffffff" fill-opacity="1" data-original-color="#000000ff" stroke="none" stroke-opacity="1"></path></g></svg>