<svg xmlns="http://www.w3.org/2000/svg" id="Layer_1" viewBox="0 0 512 512" data-name="Layer 1"><path d="m47.4 369.79a40.857 40.857 0 0 1 -.412-5.661c0-58.768 57.444-96.158 109.463-107.774-51.529-24.386-63.78-92.761-23.165-133.376a82.763 82.763 0 0 1 117.048 0c40.615 40.615 28.364 108.99-23.165 133.376 52.019 11.616 109.463 49.006 109.463 107.774a40.863 40.863 0 0 1 -.411 5.661q3.441.5 6.851 1.168a5.987 5.987 0 0 1 4.425 8.089 137.867 137.867 0 0 1 -23.877 42.7q-3.365 4.089-7.066 7.939a137.716 137.716 0 0 1 55.015 29.322 5.993 5.993 0 0 1 -.094 9.082 137.684 137.684 0 0 1 -179.13 1.621h-1.07a137.688 137.688 0 0 1 -179.13-1.621 5.985 5.985 0 0 1 -.094-9.082 137.716 137.716 0 0 1 55.015-29.322 137.927 137.927 0 0 1 -31.042-50.923 6 6 0 0 1 4.525-7.8q3.408-.669 6.852-1.168zm148.991-83.461a137.692 137.692 0 0 1 29.237 54.879 138 138 0 0 1 53.413-33.485 6 6 0 0 1 7.8 4.524 137.972 137.972 0 0 1 -1.445 59.671 138.21 138.21 0 0 1 38.915-3.327 29.751 29.751 0 0 0 .316-4.462c0-27.935-15.431-50.943-37.509-67.779-27.131-20.689-64.094-32.081-95.313-32.081s-68.176 11.392-95.305 32.081c-22.078 16.836-37.509 39.844-37.509 67.779a29.624 29.624 0 0 0 .317 4.462 138.13 138.13 0 0 1 38.914 3.328 137.976 137.976 0 0 1 -1.445-59.672 6 6 0 0 1 7.8-4.524 138 138 0 0 1 53.413 33.485 137.759 137.759 0 0 1 29.318-54.973 5.994 5.994 0 0 1 9.081.094zm32.266 69.237a138.543 138.543 0 0 1 -.363 44.764 139.264 139.264 0 0 1 43.618-24.541 125.394 125.394 0 0 0 4.342-54.245 125.021 125.021 0 0 0 -47.6 34.022zm-6.117 66.905a137.63 137.63 0 0 1 -19.557 36.711 125.841 125.841 0 0 0 130.791-77.632 126.013 126.013 0 0 0 -111.234 40.921zm-41.9 36.711a137.679 137.679 0 0 1 -18.571-33.991q-.507-1.353-.986-2.719a126.108 126.108 0 0 0 -111.238-40.921 125.842 125.842 0 0 0 130.793 77.631zm-25.314-58.852a138.543 138.543 0 0 1 -.363-44.764 125.021 125.021 0 0 0 -47.6-34.022 125.376 125.376 0 0 0 4.347 54.256 139.11 139.11 0 0 1 43.616 24.535zm36.484-100.764a125.958 125.958 0 0 0 0 154.549 125.958 125.958 0 0 0 0-154.549zm114.258 139.934a138.021 138.021 0 0 1 -90.068 32.477 125.924 125.924 0 0 0 142.241-8.469 125.264 125.264 0 0 0 -52.17-24.008zm-138.445 32.478a137.88 137.88 0 0 1 -90.071-32.478 125.264 125.264 0 0 0 -52.17 24.008 125.925 125.925 0 0 0 142.241 8.47zm154.216-273.345 11.315-11.315a6 6 0 1 0 -8.484-8.484l-11.315 11.314a6 6 0 1 0 8.484 8.485zm-48.105-65.507h32a6 6 0 0 0 0-12h-32a6 6 0 0 0 0 12zm28.307-80.337a6 6 0 0 1 8.484-8.484l11.314 11.315a6 6 0 0 1 -8.484 8.484zm154.327 137.359a6 6 0 0 1 -8.484 8.485l-11.314-11.315a6 6 0 0 1 8.484-8.484zm39.621-69.022a6 6 0 0 1 0 12h-32a6 6 0 0 1 0-12zm-36.789-76.821a6 6 0 1 1 8.484 8.484l-11.316 11.311a6 6 0 1 1 -8.484-8.484zm-68.338 193.949a6 6 0 0 1 -12 0v-32a6 6 0 1 1 12 0zm-12-222.254a6 6 0 0 1 12 0v32a6 6 0 0 1 -12 0zm6 160.68c26.75-10.946 45.754-32.05 54.4-52.445 9.038-21.322 8.448-47.109-20.857-47.109a33.453 33.453 0 0 0 -28.411 16.041 5.972 5.972 0 0 1 -10.3-.05 33.5 33.5 0 0 0 -28.381-15.991c-29.305 0-29.895 25.787-20.856 47.109 8.645 20.395 27.65 41.5 54.4 52.445zm65.415-47.805c4.139-9.764 6.228-19.477 6.05-28.231-.444-21.839-14.574-35.518-37.922-35.518a45.247 45.247 0 0 0 -33.543 15.033 45.249 45.249 0 0 0 -33.544-15.033c-13.426 0-23.161 4.384-29.5 11.626-12.109 13.839-9.575 35.136-2.374 52.123 9.99 23.565 32.151 47.93 63.283 59.855a5.975 5.975 0 0 0 4.265 0c31.184-12.014 53.258-36.206 63.283-59.855zm-208.427 2.588a70.767 70.767 0 1 0 0 100.079 70.77 70.77 0 0 0 0-100.079z" fill-rule="evenodd"></path></svg>