<svg xmlns="http://www.w3.org/2000/svg" xmlns:xlink="http://www.w3.org/1999/xlink" xmlns:svgjs="http://svgjs.dev/svgjs" viewBox="0 0 64 64" width="300" height="300"><g width="100%" height="100%" transform="matrix(1,0,0,1,0,0)"><g id="Main"><path d="M37.40137,16.53809a24.39281,24.39281,0,0,0-12.95948-3.57178c-3.62361,0-7.4538.261-9.82373,4.49853a8.62264,8.62264,0,0,0-.75781,1.81348A6.93634,6.93634,0,0,0,18.34277,27.478c4.81641,1.82324,8.27051,4.52832,10.26563,8.04052a21.252,21.252,0,0,1,1.792,4.48291,28.24418,28.24418,0,0,0,2.24414,5.58106c1.61253,3.01967,3.80651,5.1958,7.52344,5.1958h.001c4.37714,0,7.9031-3.99675,8.83886-8.12842a1.06038,1.06038,0,0,0,.02149-.14648C49.84668,31.521,45.39063,21.57129,37.40137,16.53809ZM47.041,42.2793c-.77,3.24776-3.51866,6.499-6.87305,6.499-2.94458,0-4.51661-1.8076-5.75977-4.13916a26.55007,26.55007,0,0,1-2.09668-5.22852,22.896,22.896,0,0,0-1.96386-4.88037c-2.23194-3.92822-6.03272-6.93017-11.29688-8.92236a4.93288,4.93288,0,0,1-3.26953-5.77344,6.66517,6.66517,0,0,1,.582-1.39306c1.79028-3.20053,4.58161-3.4751,8.07861-3.4751A22.39479,22.39479,0,0,1,36.335,18.23047C43.67871,22.85693,47.77734,32.06641,47.041,42.2793Z" fill="#ffffff" fill-opacity="1" data-original-color="#000000ff" stroke="none" stroke-opacity="1"></path><path d="M37.21582,35.49023A4.36992,4.36992,0,0,1,37.8584,34.061c.62988-1.09327,1.415-2.45411.501-3.62745-.91309-1.1748-2.42481-.74853-3.63868-.40625a6.62422,6.62422,0,0,1-1.50488.3208,4.36733,4.36733,0,0,1,.64258-1.42968c.63086-1.09326,1.415-2.45362.50195-3.62744-.91308-1.17286-2.42431-.74707-3.63818-.40479a6.68209,6.68209,0,0,1-1.50293.32373,4.3838,4.3838,0,0,1,.644-1.42725c.63086-1.09228,1.417-2.45166.50488-3.62451a1.0102,1.0102,0,0,0-1.41064-.1914.98257.98257,0,0,0-.18213,1.38769,4.38106,4.38106,0,0,1-.644,1.42774c-.63135,1.09228-1.417,2.45166-.5044,3.62451.91309,1.17285,2.42334.74756,3.63819.40478a6.71481,6.71481,0,0,1,1.50341-.32226A4.35689,4.35689,0,0,1,32.126,27.919c-.63037,1.09277-1.415,2.45312-.50244,3.627.91162,1.17285,2.42236.74853,3.63916.40625a6.76763,6.76763,0,0,1,1.50488-.31983A4.34531,4.34531,0,0,1,36.126,33.062c-.63086,1.09326-1.415,2.45362-.501,3.627.91211,1.17432,2.42285.74952,3.64063.40967a6.3632,6.3632,0,0,1,1.50781-.31738,4.35649,4.35649,0,0,1-.6416,1.43164c-.62989,1.09375-1.41407,2.45459-.5,3.62891a1.00921,1.00921,0,0,0,1.40918.18994.98387.98387,0,0,0,.18164-1.38916,4.35619,4.35619,0,0,1,.6416-1.43164c.62988-1.09375,1.41406-2.45459.5-3.62891-.91309-1.17432-2.42481-.75-3.63965-.40918A6.354,6.354,0,0,1,37.21582,35.49023Z" fill="#ffffff" fill-opacity="1" data-original-color="#000000ff" stroke="none" stroke-opacity="1"></path><path d="M59,32a3.99577,3.99577,0,0,0-3.858,3H52.783a33.76925,33.76925,0,0,0-2.80756-9.74121l4.07294-1.5824a4.04287,4.04287,0,1,0-.93884-1.781L49.07031,23.4646A28.86549,28.86549,0,0,0,44.41974,17.134l1.86444-3.20636a4.0507,4.0507,0,1,0-1.81512-.85589l-1.53718,2.64343a25.91113,25.91113,0,0,0-9.66809-5.43445l.4206-1.31262C33.79034,8.97656,33.89191,9,34,9a4.00978,4.00978,0,1,0-2.21075-.671l-.45673,1.4256c-4.07024-.95142-10.58084-1.36614-14.475.46069l-1.34448-2.129a4.1123,4.1123,0,1,0-1.83258.84485l1.437,2.27539c-4.29176,2.88893-6.82869,8.36888-4.73089,13.62671L8.34247,25.814A3.99132,3.99132,0,1,0,9,28c0-.09265-.02112-.17944-.02734-.27051l2.32049-1.11334a11.38828,11.38828,0,0,0,4.44519,4.066l-1.237,6.36829a3.97241,3.97241,0,1,0,1.98957.24432l1.12481-5.79065c8.30105,3.42609,8.348,8.32034,9.842,12.31134l-4.34954,2.7998A3.96255,3.96255,0,0,0,21,46a4,4,0,1,0,4,4,3.94937,3.94937,0,0,0-.50244-1.9007l3.73871-2.4068c1.43155,3.13326,2.87631,5.56454,5.76941,7.33326l-.74537,2.00055C33.17261,55.02051,33.08917,55,33,55a4.021,4.021,0,1,0,2.16437.64563l.64209-1.72284a11.50416,11.50416,0,0,0,12.07159-2.09894l3.5824,3.35254A3.94912,3.94912,0,0,0,51,57a4.00785,4.00785,0,1,0,1.78278-3.32562l-3.46167-3.2395C52.87993,46.49093,53.38619,41.974,52.99469,37H55.142A3.99345,3.99345,0,1,0,59,32ZM57,19a2,2,0,1,1-2,2A2.00229,2.00229,0,0,1,57,19ZM47,8a2,2,0,1,1-2,2A2.00229,2.00229,0,0,1,47,8ZM34,3a2,2,0,1,1-2,2A2.00229,2.00229,0,0,1,34,3ZM11,5a2,2,0,1,1,2,2A2.002,2.002,0,0,1,11,5ZM5,30a2,2,0,1,1,2-2A2.002,2.002,0,0,1,5,30ZM21,52a2,2,0,1,1,2-2A2.002,2.002,0,0,1,21,52Zm12,9a2,2,0,1,1,2-2A2.002,2.002,0,0,1,33,61ZM15,43a2,2,0,1,1,2-2A2.002,2.002,0,0,1,15,43ZM57,57a2,2,0,1,1-2-2A2.00229,2.00229,0,0,1,57,57Zm-8.61914-8.53955c-2.59386,3.28038-6.3265,5.00344-10.39551,4.07031-3.549-.81428-5.49527-2.99771-7.10351-6.00244a30.37835,30.37835,0,0,1-2.39209-5.936,19.42818,19.42818,0,0,0-1.62012-4.08643c-1.75879-3.0957-4.86572-5.50391-9.23438-7.15674A8.94431,8.94431,0,0,1,11.939,18.72266a10.828,10.828,0,0,1,11.00538-7.72412A27.05718,27.05718,0,0,1,38.4668,14.84619c8.37548,5.276,12.639,15.03528,12.65722,25.05176A13.5714,13.5714,0,0,1,48.38086,48.46045ZM59,38a2,2,0,1,1,2-2A2.00229,2.00229,0,0,1,59,38Z" fill="#ffffff" fill-opacity="1" data-original-color="#000000ff" stroke="none" stroke-opacity="1"></path></g></g></svg>