<svg xmlns="http://www.w3.org/2000/svg" xmlns:xlink="http://www.w3.org/1999/xlink" id="Capa_1" x="0px" y="0px" viewBox="0 0 512.001 512.001" style="enable-background:new 0 0 512.001 512.001;" xml:space="preserve"><g>	<g>		<path d="M507.422,162.367L258.965,56.831c-0.691-0.297-1.436-0.494-2.214-0.571c-0.102-0.01-0.204-0.01-0.307-0.015   c-0.147-0.009-0.294-0.022-0.444-0.022c-0.15,0-0.296,0.014-0.444,0.022c-0.102,0.006-0.205,0.005-0.307,0.015   c-0.779,0.077-1.524,0.275-2.214,0.571L4.578,162.367C1.802,163.547,0,166.272,0,169.287v173.425c0,0.341,0.031,0.674,0.074,1.003   c0.011,0.078,0.022,0.155,0.035,0.233c0.052,0.317,0.119,0.63,0.211,0.931c0.003,0.009,0.004,0.018,0.007,0.027   c0.097,0.321,0.221,0.629,0.358,0.929c0.027,0.06,0.057,0.118,0.085,0.177c0.134,0.275,0.282,0.54,0.447,0.795   c0.015,0.022,0.027,0.046,0.042,0.069c0.178,0.268,0.377,0.52,0.586,0.762c0.052,0.059,0.105,0.116,0.158,0.174   c0.198,0.214,0.406,0.418,0.627,0.607c0.027,0.023,0.051,0.049,0.079,0.071c0.25,0.208,0.517,0.396,0.793,0.57   c0.059,0.037,0.119,0.073,0.179,0.109c0.304,0.18,0.617,0.346,0.945,0.482L253.059,455.18c0.94,0.399,1.94,0.598,2.94,0.598   c1,0,2-0.199,2.94-0.598l248.431-105.526c0.329-0.137,0.643-0.303,0.946-0.483c0.06-0.036,0.12-0.072,0.179-0.109   c0.276-0.174,0.542-0.362,0.793-0.57c0.028-0.023,0.052-0.049,0.08-0.072c0.221-0.189,0.428-0.393,0.627-0.607   c0.053-0.058,0.107-0.115,0.158-0.174c0.21-0.242,0.408-0.494,0.586-0.762c0.015-0.022,0.027-0.046,0.042-0.069   c0.165-0.255,0.313-0.52,0.447-0.795c0.029-0.059,0.058-0.116,0.085-0.176c0.137-0.301,0.261-0.609,0.358-0.929   c0.003-0.01,0.005-0.019,0.008-0.029c0.09-0.302,0.157-0.613,0.21-0.929c0.013-0.077,0.025-0.154,0.036-0.233   c0.044-0.329,0.074-0.662,0.074-1.003V169.287C512,166.272,510.198,163.547,507.422,162.367z M256,440.091L26.75,342.712   L256,245.334l229.25,97.378L256,440.091z M496.963,331.35l-233.445-99.159v-31.176c0-4.152-3.366-7.518-7.518-7.518   c-4.152,0-7.518,3.366-7.518,7.518v31.176L15.037,331.35V174.262l233.445-99.16v82.144c0,4.152,3.366,7.518,7.518,7.518   s7.518-3.366,7.518-7.518V75.102l233.445,99.16V331.35z"></path>	</g></g><g>	<g>		<path d="M149.922,142.429c-2.104-1.391-4.765-1.638-7.088-0.65L32.692,188.565c-2.777,1.179-4.578,3.904-4.578,6.92v99.3   c0,2.502,1.244,4.84,3.32,6.237c1.259,0.848,2.725,1.281,4.199,1.281c0.955,0,1.917-0.182,2.828-0.552l110.141-44.736   c2.835-1.151,4.69-3.906,4.69-6.966V148.7C153.291,146.177,152.025,143.822,149.922,142.429z M138.254,244.986l-95.104,38.63   V200.46l95.104-40.397V244.986z"></path>	</g></g><g>	<g>		<path d="M233.198,107.057c-2.104-1.392-4.766-1.637-7.088-0.65l-55.794,23.699c-2.777,1.18-4.578,3.905-4.578,6.92v42.513   c0,2.523,1.266,4.878,3.369,6.27c1.249,0.826,2.695,1.248,4.15,1.248c0.995,0,1.995-0.197,2.939-0.598l55.794-23.7   c2.777-1.179,4.578-3.904,4.578-6.92v-42.513C236.567,110.804,235.302,108.449,233.198,107.057z M221.53,150.864l-40.757,17.313   V142l40.757-17.312V150.864z"></path>	</g></g><g>	<g>		<path d="M233.198,174.465c-2.104-1.392-4.766-1.637-7.088-0.65l-55.794,23.7c-2.777,1.179-4.578,3.904-4.578,6.92v33.939   c0,2.523,1.266,4.878,3.369,6.27c1.249,0.826,2.695,1.248,4.15,1.248c0.995,0,1.995-0.197,2.939-0.598l55.794-23.7   c2.777-1.179,4.578-3.904,4.578-6.92v-33.939C236.567,178.212,235.302,175.857,233.198,174.465z M221.53,209.699l-40.757,17.313   V209.41l40.757-17.313V209.699z"></path>	</g></g><g>	<g>		<path d="M408.089,159.708l-115.874-49.22c-2.323-0.986-4.985-0.742-7.088,0.65c-2.104,1.392-3.369,3.747-3.369,6.27v99.952   c-0.002,3.016,1.8,5.741,4.577,6.92l115.874,49.22c0.943,0.4,1.943,0.598,2.939,0.598c1.455,0,2.901-0.422,4.15-1.248   c2.104-1.392,3.369-3.747,3.369-6.27v-99.952C412.667,163.611,410.865,160.887,408.089,159.708z M397.629,255.217l-100.837-42.832   v-83.614l100.837,42.832V255.217z"></path>	</g></g><g>	<g>		<path d="M478.931,189.8l-47.979-20.38c-2.322-0.986-4.985-0.743-7.088,0.65c-2.104,1.392-3.369,3.747-3.369,6.27v99.952   c-0.001,3.016,1.801,5.741,4.577,6.92l47.979,20.38c0.943,0.401,1.943,0.598,2.939,0.598c1.455,0,2.901-0.422,4.15-1.248   c2.104-1.392,3.369-3.747,3.369-6.27V196.72C483.509,193.703,481.707,190.978,478.931,189.8z M468.472,285.309l-32.942-13.992   v-83.614l32.942,13.992V285.309z"></path>	</g></g><g>	<g>		<path d="M315.653,301.445c-0.011-0.078-0.023-0.155-0.036-0.233c-0.052-0.317-0.119-0.628-0.21-0.929   c-0.003-0.01-0.005-0.019-0.008-0.029c-0.097-0.321-0.221-0.629-0.358-0.929c-0.027-0.06-0.056-0.117-0.085-0.176   c-0.134-0.275-0.282-0.54-0.447-0.795c-0.015-0.022-0.027-0.046-0.042-0.069c-0.178-0.268-0.377-0.52-0.586-0.762   c-0.052-0.06-0.105-0.116-0.158-0.174c-0.197-0.214-0.405-0.417-0.627-0.607c-0.027-0.023-0.052-0.049-0.08-0.072   c-0.25-0.208-0.516-0.396-0.793-0.57c-0.059-0.037-0.119-0.073-0.179-0.109c-0.304-0.18-0.617-0.346-0.946-0.483l-52.159-22.155   c-1.878-0.797-3.999-0.797-5.878,0l-52.159,22.155c-0.329,0.137-0.643,0.303-0.945,0.482c-0.06,0.036-0.12,0.072-0.179,0.109   c-0.276,0.175-0.543,0.362-0.793,0.57c-0.027,0.023-0.052,0.048-0.079,0.071c-0.222,0.189-0.429,0.394-0.627,0.607   c-0.053,0.058-0.107,0.115-0.158,0.174c-0.21,0.242-0.408,0.494-0.586,0.762c-0.015,0.022-0.027,0.046-0.042,0.069   c-0.165,0.254-0.313,0.52-0.447,0.795c-0.029,0.059-0.058,0.117-0.085,0.177c-0.137,0.301-0.261,0.609-0.358,0.929   c-0.002,0.009-0.004,0.018-0.007,0.027c-0.091,0.303-0.157,0.615-0.211,0.931c-0.013,0.077-0.025,0.154-0.035,0.233   c-0.044,0.329-0.074,0.662-0.074,1.003v40.265c0,3.016,1.802,5.741,4.578,6.92l52.184,22.166c0.691,0.297,1.433,0.494,2.212,0.571   c0.251,0.025,0.501,0.038,0.753,0.038s0.502-0.013,0.753-0.038c0.779-0.077,1.523-0.275,2.212-0.571l52.183-22.166   c2.777-1.179,4.578-3.904,4.578-6.92v-40.265C315.727,302.107,315.696,301.774,315.653,301.445z M248.482,353.527l-37.172-15.79   v-23.927l37.172,15.79V353.527z M256.001,316.456l-32.978-14.008l32.978-14.008l32.978,14.008L256.001,316.456z M300.691,337.737   l-37.172,15.79V329.6l37.172-15.79V337.737z"></path>	</g></g><g></g><g></g><g></g><g></g><g></g><g></g><g></g><g></g><g></g><g></g><g></g><g></g><g></g><g></g><g></g></svg>