<svg xmlns="http://www.w3.org/2000/svg" xmlns:xlink="http://www.w3.org/1999/xlink" id="Layer_1" x="0px" y="0px" viewBox="0 0 3873 3873" style="enable-background:new 0 0 3873 3873;" xml:space="preserve"><g id="Layer_1_1_">	<g>		<path style="fill-rule:evenodd;clip-rule:evenodd;" d="M1938.5,2118.3c-0.6,0-1.3,0-1.9-0.1c-98-5-182.1-71.9-221.4-175.5   c-29.8-28.4-67.1-90.5-38.1-167.7c7.2-19.2,28.6-28.9,47.8-21.6s28.8,28.6,21.6,47.8c-20.2,53.6,18.7,87.2,23.3,90.8   c5.7,4.4,9.7,10.2,12,16.9c27.8,80.3,86.3,130.7,156.7,135.1c70.4-4.4,128.9-54.7,156.7-135.1c2.4-6.8,6.7-12.8,12.4-17.2   c4.2-3.4,43.1-37,23-90.6c-7.2-19.2,2.4-40.5,21.6-47.8c19.2-7.2,40.5,2.4,47.8,21.6c29,77.1-8.3,139.3-38.1,167.7   c-39.4,103.6-123.4,170.5-221.4,175.5C1939.8,2118.3,1939.2,2118.3,1938.5,2118.3z"></path>		<path style="fill-rule:evenodd;clip-rule:evenodd;" d="M1830.7,2187.8c-20.5,0-37.1-16.6-37.1-37.1v-109.3   c0-20.5,16.6-37.1,37.1-37.1s37.1,16.6,37.1,37.1v109.2C1867.8,2171.2,1851.2,2187.8,1830.7,2187.8z"></path>		<path style="fill-rule:evenodd;clip-rule:evenodd;" d="M2046.4,2187.8c-20.5,0-37.1-16.6-37.1-37.1v-109.3   c0-20.5,16.6-37.1,37.1-37.1c20.5,0,37.1,16.6,37.1,37.1v109.2C2083.5,2171.2,2066.9,2187.8,2046.4,2187.8z"></path>		<path style="fill-rule:evenodd;clip-rule:evenodd;" d="M1572.7,2350.9h731.7v-39.8c0-67.9-55.3-123.3-123.3-123.3h-121.4   l-97.5,80.7c-13.7,11.3-33.5,11.3-47.3,0l-97.5-80.7H1696c-68,0-123.3,55.3-123.3,123.3V2350.9L1572.7,2350.9z M2341.5,2425   h-805.9c-20.5,0-37.1-16.6-37.1-37.1v-76.8c0-108.9,88.6-197.4,197.4-197.4h134.7c8.7,0,17,3,23.7,8.5l84.2,69.7l84.2-69.7   c6.7-5.5,15-8.5,23.7-8.5h134.8c108.9,0,197.4,88.6,197.4,197.4v76.8C2378.6,2408.4,2362,2425,2341.5,2425z"></path>		<path style="fill-rule:evenodd;clip-rule:evenodd;" d="M2123.8,1673.7c9.1,10,20.4,24.1,31.3,38.3c5.1-22.8,8.3-49.2,9.1-76   c1.6-60.4-10.2-92.8-16.7-100.2c-13.8-2.5-25-12.6-29-26.2c-11.1-38.6-65.2-75.2-134.6-91.1c-69.5-15.8-170.7-11.7-227.7,52   c-36.9,41.4-50.5,102.9-40.5,180.8c43.4-64.2,104.4-60.6,108-60.3c4.2,0.3,8.2,1.3,12,3c33.2,14.5,144.4,1,232.3-19.1   c12.9-2.9,26.3,1.2,35.3,10.9c9.1,9.7,12.2,23.4,8.4,36.1C2106.7,1639.2,2118.6,1664.6,2123.8,1673.7L2123.8,1673.7z    M1711.7,1825.3c-15.6,0-29.7-9.8-35-24.8c-73.4-208.8-27.4-321.6,24.2-379.3c78.3-87.8,206.1-96.3,299.4-74.9   c88.5,20.2,156.3,66.8,182.5,124.1c12.3,6.8,25.6,19,35.9,41.1c34,72.7,21.8,231.2-22.8,297.5c-6.8,10.1-18.2,16.2-30.3,16.4   c-12.1-0.1-23.7-5.7-30.7-15.7c-12.7-17.9-49.5-68.6-67.6-87.8c-1.6-1.6-2.9-3.3-4.1-5.1c-2.6-3.9-17.9-28.3-24.2-59.8   c-65,12.4-167.8,26.8-223.8,8.7c-13.5,2.4-56.8,18.2-66.4,126c-1.6,17.4-15,31.3-32.4,33.5   C1714.9,1825.2,1713.3,1825.3,1711.7,1825.3z"></path>		<path style="fill-rule:evenodd;clip-rule:evenodd;" d="M1043.3,1060.3h1790.3V792.5H1043.3V1060.3L1043.3,1060.3z M2870.8,1134.4   H1006.3c-20.5,0-37.1-16.6-37.1-37.1v-342c0-20.5,16.6-37.1,37.1-37.1h1864.5c20.5,0,37.1,16.6,37.1,37.1v342   C2907.9,1117.8,2891.3,1134.4,2870.8,1134.4z"></path>		<path style="fill-rule:evenodd;clip-rule:evenodd;" d="M1218.3,2350.9h1440.5V1134.4H1218.3V2350.9L1218.3,2350.9z M2695.9,2425   H1181.2c-20.5,0-37.1-16.6-37.1-37.1V1097.3c0-20.5,16.6-37.1,37.1-37.1h1514.7c20.5,0,37.1,16.6,37.1,37.1v1290.6   C2733,2408.4,2716.4,2425,2695.9,2425z"></path>		<path style="fill-rule:evenodd;clip-rule:evenodd;" d="M1121.7,2425c-38.6,0-70.1,31.4-70.1,70v527.1c0,38.6,31.4,70,70.1,70   h1633.7c38.6,0,70.1-31.4,70.1-70V2495c0-38.6-31.4-70-70.1-70H1121.7L1121.7,2425z M2755.4,3166.3H1121.7   c-79.5,0-144.2-64.6-144.2-144.1v-527.1c0-79.5,64.7-144.2,144.2-144.2h1633.7c79.5,0,144.2,64.7,144.2,144.2v527.1   C2899.6,3101.6,2834.8,3166.3,2755.4,3166.3z"></path>		<path style="fill-rule:evenodd;clip-rule:evenodd;" d="M1279.3,3166.3c-12.4,0-24.6-6.2-31.6-17.6l-264.6-427   c-10.8-17.4-5.4-40.3,12-51c17.5-10.8,40.3-5.4,51,12l264.6,427c10.8,17.4,5.4,40.3-12,51   C1292.6,3164.5,1285.9,3166.3,1279.3,3166.3z"></path>		<path style="fill-rule:evenodd;clip-rule:evenodd;" d="M1484.2,3166.3c-12.4,0-24.6-6.2-31.6-17.6L1013.4,2440   c-10.8-17.4-5.4-40.3,12-51.1s40.3-5.4,51,12l439.3,708.8c10.8,17.4,5.4,40.3-12,51C1497.7,3164.5,1490.9,3166.3,1484.2,3166.3z"></path>		<path style="fill-rule:evenodd;clip-rule:evenodd;" d="M1689.4,3166.3c-12.4,0-24.6-6.2-31.6-17.6l-459.3-741.3   c-10.8-17.4-5.4-40.3,12-51.1c17.5-10.8,40.3-5.4,51,12l459.4,741.3c10.8,17.4,5.4,40.3-12,51   C1702.8,3164.5,1696,3166.3,1689.4,3166.3z"></path>		<path style="fill-rule:evenodd;clip-rule:evenodd;" d="M2597.9,3166.3c-6.7,0-13.5-1.8-19.5-5.5c-17.4-10.8-22.8-33.7-12-51   l264.6-427c10.8-17.4,33.7-22.8,51-12c17.5,10.8,22.8,33.6,12,51l-264.6,426.9C2622.4,3160,2610.2,3166.3,2597.9,3166.3z"></path>		<path style="fill-rule:evenodd;clip-rule:evenodd;" d="M2392.8,3166.3c-6.7,0-13.5-1.8-19.5-5.5c-17.4-10.8-22.8-33.7-12-51   l439.3-708.8c10.8-17.4,33.7-22.8,51-12c17.5,10.8,22.8,33.7,12,51.1l-439.3,708.6C2417.3,3160,2405.2,3166.3,2392.8,3166.3z"></path>		<path style="fill-rule:evenodd;clip-rule:evenodd;" d="M2187.8,3166.3c-6.7,0-13.5-1.8-19.5-5.5c-17.4-10.8-22.8-33.7-12-51   l459.4-741.3c10.8-17.4,33.7-22.7,51-12c17.4,10.8,22.8,33.7,12,51.1l-459.3,741.1C2212.3,3160,2200.1,3166.3,2187.8,3166.3z"></path>		<path style="fill-rule:evenodd;clip-rule:evenodd;" d="M1429.4,963.4h-193.6c-20.5,0-37.1-16.6-37.1-37.1s16.6-37.1,37.1-37.1   h193.6c20.5,0,37.1,16.6,37.1,37.1C1466.5,946.8,1449.9,963.5,1429.4,963.4z"></path>		<path style="fill-rule:evenodd;clip-rule:evenodd;" d="M1833.4,963.4h-193.6c-20.5,0-37.1-16.6-37.1-37.1s16.6-37.1,37.1-37.1   h193.6c20.5,0,37.1,16.6,37.1,37.1S1853.8,963.5,1833.4,963.4z"></path>		<path style="fill-rule:evenodd;clip-rule:evenodd;" d="M2237.4,963.4h-193.6c-20.5,0-37.1-16.6-37.1-37.1s16.6-37.1,37.1-37.1   h193.6c20.5,0,37.1,16.6,37.1,37.1S2257.8,963.5,2237.4,963.4z"></path>		<path style="fill-rule:evenodd;clip-rule:evenodd;" d="M2641.3,963.4h-193.6c-20.5,0-37.1-16.6-37.1-37.1s16.6-37.1,37.1-37.1   h193.6c20.5,0,37.1,16.6,37.1,37.1S2661.8,963.5,2641.3,963.4z"></path>		<path style="fill-rule:evenodd;clip-rule:evenodd;" d="M1938.5,2864c5.7,0,11.6,1.3,16.8,4.1l73.5,37.4l-12.9-81.5   c-1.9-11.7,2-23.7,10.4-32l58.3-58.4l-81.5-12.9c-11.7-1.8-21.9-9.2-27.2-19.8l-37.5-73.5l-37.5,73.5   c-5.4,10.5-15.6,17.9-27.2,19.8l-81.6,12.9l58.3,58.4c8.4,8.3,12.3,20.3,10.4,32l-12.9,81.5l73.5-37.4   C1927,2865.3,1932.8,2864,1938.5,2864L1938.5,2864z M1800.2,3008.6c-7.7,0-15.4-2.4-21.8-7.1c-11.3-8.2-17-22-14.8-35.8L1785,2831   l-96.4-96.4c-9.8-9.9-13.4-24.4-9.1-37.7c4.3-13.2,15.7-23,29.5-25.2l134.7-21.3l61.9-121.5c6.3-12.4,19.1-20.2,33.1-20.2   c13.9,0,26.7,7.8,33.1,20.2l61.9,121.5l134.8,21.3c13.8,2.2,25.2,12,29.4,25.2c4.3,13.3,0.8,27.8-9.1,37.7l-96.4,96.4l21.3,134.7   c2.2,13.8-3.5,27.6-14.8,35.8s-26.2,9.4-38.7,3.1l-121.5-61.9l-121.5,61.9C1811.7,3007.2,1806,3008.6,1800.2,3008.6z"></path>	</g></g><g id="Master_Layer_2">	<path d="M1938.5,13.7c532.5,0,1014.7,215.8,1363.7,564.9s564.9,831.2,564.9,1363.7S3651.3,2957,3302.3,3306  s-831.2,564.9-1363.7,564.9S923.8,3655.1,574.8,3306S9.9,2474.9,9.9,1942.3S225.8,927.6,574.8,578.6S1406,13.7,1938.5,13.7  L1938.5,13.7z M3241.3,639.5C2908,306.1,2447.3,99.9,1938.5,99.9S969.2,306.1,635.7,639.5c-333.4,333.4-539.6,794-539.6,1302.8  s206.2,969.3,539.6,1302.8c333.4,333.4,794,539.6,1302.8,539.6s969.3-206.2,1302.8-539.6c333.4-333.4,539.6-794,539.6-1302.8  S3574.7,973,3241.3,639.5z"></path></g></svg>