<svg xmlns="http://www.w3.org/2000/svg" id="Layer_1" height="512" viewBox="0 0 512 512" width="512" data-name="Layer 1"><path d="m480.81 390.875h-59.232q-1.753-6.435-3.519-13.269a81.428 81.428 0 0 0 47.459-25.106h-119.518a81.445 81.445 0 0 0 47.461 25.111q-1.77 6.825-3.52 13.269h-20.853a23.276 23.276 0 0 0 0 46.551h6.681a300.666 300.666 0 0 1 -12.328 30.769h-16.21a4 4 0 1 0 0 8h117.048a4 4 0 1 0 0-8h-16.2a302.817 302.817 0 0 1 -12.337-30.778h26.188a4 4 0 0 0 0-8h-28.892q-4.557-13.876-9.251-30.551h57.023a31.19 31.19 0 1 0 0-62.38h-157.319a34.3 34.3 0 1 1 0-68.609h114.878c1.151 6.8 5.3 11.649 11.79 13.569a22.919 22.919 0 0 0 6.492.881c10.916 0 23.669-6.6 29.915-16.28a4 4 0 0 0 0-4.34c-7.548-11.691-24.566-18.891-36.407-15.4-6.492 1.921-10.639 6.771-11.79 13.571h-114.878a42.3 42.3 0 1 0 0 84.609h157.319a23.19 23.19 0 0 1 0 46.38zm.19-62.375h-150.482a81.153 81.153 0 0 1 -6.211-27.19 4 4 0 0 1 4-4.209h154.9a4.015 4.015 0 0 1 4 4.209 81.175 81.175 0 0 1 -6.207 27.19zm-351.849-89.52a4 4 0 0 0 4 4h26.849v26.849a4 4 0 1 0 8 0v-26.853h26.84a4 4 0 1 0 0-8h-26.84v-26.84a4 4 0 1 0 -8 0v26.84h-26.853a4.009 4.009 0 0 0 -4 4zm93.4 0a58.55 58.55 0 1 1 -58.551-58.544 58.615 58.615 0 0 1 58.552 58.539zm164.34 190.451q7.182-22.186 14.62-51.011c1.411.07 2.821.12 4.251.12s2.84-.05 4.25-.12q7.41 28.785 14.616 51.011zm52.356 38.769h-66.988q5.866-12.867 11.969-30.778h43.059q6.093 17.88 11.96 30.778zm-70.159-38.778a15.276 15.276 0 0 1 0-30.551h18.64q-4.677 16.666-9.251 30.551zm-318.549-285.016 36.048 5.55a4.112 4.112 0 0 0 .609.05 4.045 4.045 0 0 0 .6-.05l46.026-7.08c26.972-4.15 52.151-28.521 56.123-54.321l7.407-48.149a4 4 0 0 0 -4.567-4.562l-46.022 7.081c-26.967 4.15-52.15 28.52-56.118 54.321l-3.445 22.459-1.859-12.03c-3.161-20.56-23.2-39.97-44.677-43.27l-36.053-5.55a3.988 3.988 0 0 0 -4.562 4.561l5.8 37.72c3.161 20.56 23.211 39.969 44.692 43.27zm164.811 169.079h-102.711c-14.271 0-24.971-10.7-35.308-21.039-8.752-8.75-25.783-36.73-38.771-63.7-18.031-37.429-20.791-56.479-17.682-61.42a5.831 5.831 0 0 1 5.152-2.85h275.929a5.838 5.838 0 0 1 5.152 2.85c3.118 4.941.358 23.991-17.673 61.42-12.988 26.971-30.029 54.951-38.78 63.7-10.342 10.339-21.027 21.039-35.308 21.039zm22.579 20.08a1.214 1.214 0 0 1 -1.132.621h-145.61a1.206 1.206 0 0 1 -1.118-.621c-.019-.03-1.779-3.1 3.609-17.209a38.727 38.727 0 0 0 18.961 5.129h102.711a38.764 38.764 0 0 0 18.97-5.129c5.378 14.109 3.618 17.179 3.609 17.209zm58.708-101.35c-13.54 28.121-30.878 56.441-40.318 65.891a145.937 145.937 0 0 1 -15.163 13.779c6.864 17.32 5.322 23.1 3.534 25.94a9.155 9.155 0 0 1 -7.893 4.361h-145.61a9.164 9.164 0 0 1 -7.888-4.361c-1.788-2.839-3.322-8.62 3.538-25.94a144.865 144.865 0 0 1 -15.158-13.779c-9.45-9.45-26.783-37.77-40.328-65.891-12.021-24.951-24.773-57.215-17.243-69.16a13.855 13.855 0 0 1 11.922-6.58h170.09l51.971-46.049a36.127 36.127 0 1 1 30.468 30.46l-13.824 15.589h37.224a13.818 13.818 0 0 1 11.917 6.58c7.534 11.945-5.208 44.209-17.239 69.16z" fill-rule="evenodd"></path></svg>