<svg xmlns="http://www.w3.org/2000/svg" id="object" height="512" viewBox="0 0 100 100" width="512"><g id="_12"><path d="m91.549 20.129h-83.098c-1.879 0-3.409 1.534-3.409 3.419v52.903c0 1.885 1.529 3.419 3.409 3.419h83.098c1.879 0 3.409-1.534 3.409-3.419v-52.903c0-1.885-1.529-3.419-3.409-3.419zm-83.098 2h83.098c.777 0 1.409.637 1.409 1.419v36.64h-85.916v-36.64c0-.782.632-1.419 1.409-1.419zm83.098 55.741h-83.098c-.777 0-1.409-.637-1.409-1.419v-14.264h85.916v14.264c0 .782-.632 1.419-1.409 1.419z"></path><path d="m10.261 42.408c0 .552.448 1 1 1h7.221c1.948 5.022 4.048 10 8.411 10s6.465-4.977 8.413-10h14.09c1.949 5.023 4.05 10 8.416 10s6.466-4.977 8.414-10h14.093c1.949 5.023 4.052 10 8.419 10 .552 0 1-.448 1-1s-.448-1-1-1c-2.868 0-4.645-3.867-6.272-8h6.272c.552 0 1-.448 1-1s-.448-1-1-1h-7.05c-1.949-5.023-4.052-10-8.419-10s-6.466 4.977-8.413 10h-14.09c-1.949-5.023-4.05-10-8.416-10s-6.465 4.977-8.413 10h-14.085c-1.947-5.023-4.047-10-8.411-10-.552 0-1 .448-1 1s.448 1 1 1c2.864 0 4.64 3.867 6.264 8h-6.444c-.552 0-1 .448-1 1zm16.632 9c-2.864 0-4.64-3.867-6.264-8h12.531c-1.625 4.133-3.401 8-6.266 8zm30.919 0c-2.866 0-4.643-3.867-6.269-8h12.535c-1.625 4.133-3.401 8-6.267 8zm15.458-18c2.868 0 4.645 3.867 6.271 8h-12.538c1.625-4.133 3.401-8 6.266-8zm-30.92 0c2.866 0 4.643 3.867 6.269 8h-12.535c1.625-4.133 3.401-8 6.266-8z"></path><path d="m82.101 63.656c-3.514 0-6.373 2.859-6.373 6.373s2.859 6.374 6.373 6.374 6.373-2.859 6.373-6.374-2.859-6.373-6.373-6.373zm0 10.747c-2.411 0-4.373-1.962-4.373-4.374s1.962-4.373 4.373-4.373 4.373 1.962 4.373 4.373-1.962 4.374-4.373 4.374z"></path><path d="m15.638 67.096v-2.44c0-.552-.448-1-1-1s-1 .448-1 1v2.44c-1.224.419-2.112 1.568-2.112 2.933s.888 2.514 2.112 2.933v2.441c0 .552.448 1 1 1s1-.448 1-1v-2.441c1.224-.419 2.112-1.568 2.112-2.933s-.888-2.514-2.112-2.933zm-1 4.045c-.613 0-1.112-.499-1.112-1.112s.499-1.112 1.112-1.112 1.112.499 1.112 1.112-.499 1.112-1.112 1.112z"></path><path d="m25.867 67.096v-2.44c0-.552-.448-1-1-1s-1 .448-1 1v2.44c-1.224.419-2.112 1.568-2.112 2.933s.888 2.514 2.112 2.933v2.441c0 .552.448 1 1 1s1-.448 1-1v-2.441c1.224-.419 2.112-1.568 2.112-2.933s-.888-2.514-2.112-2.933zm-1 4.045c-.613 0-1.112-.499-1.112-1.112s.499-1.112 1.112-1.112 1.112.499 1.112 1.112-.499 1.112-1.112 1.112z"></path><path d="m36.095 67.096v-2.44c0-.552-.448-1-1-1s-1 .448-1 1v2.44c-1.224.419-2.113 1.568-2.113 2.933s.888 2.514 2.113 2.933v2.441c0 .552.448 1 1 1s1-.448 1-1v-2.441c1.224-.419 2.112-1.568 2.112-2.933s-.888-2.514-2.112-2.933zm-1 4.045c-.614 0-1.113-.499-1.113-1.112s.499-1.112 1.113-1.112 1.112.499 1.112 1.112-.499 1.112-1.112 1.112z"></path><path d="m46.323 67.096v-2.44c0-.552-.448-1-1-1s-1 .448-1 1v2.44c-1.224.419-2.112 1.568-2.112 2.933s.888 2.514 2.112 2.933v2.441c0 .552.448 1 1 1s1-.448 1-1v-2.441c1.224-.419 2.113-1.568 2.113-2.933s-.888-2.514-2.113-2.933zm-1 4.045c-.613 0-1.112-.499-1.112-1.112s.499-1.112 1.112-1.112 1.113.499 1.113 1.112-.499 1.112-1.113 1.112z"></path><path d="m56.552 67.096v-2.44c0-.552-.448-1-1-1s-1 .448-1 1v2.44c-1.224.419-2.112 1.568-2.112 2.933s.888 2.514 2.112 2.933v2.441c0 .552.448 1 1 1s1-.448 1-1v-2.441c1.224-.419 2.112-1.568 2.112-2.933s-.888-2.514-2.112-2.933zm-1 4.045c-.613 0-1.112-.499-1.112-1.112s.499-1.112 1.112-1.112 1.112.499 1.112 1.112-.499 1.112-1.112 1.112z"></path><path d="m66.78 67.096v-2.44c0-.552-.448-1-1-1s-1 .448-1 1v2.44c-1.224.419-2.112 1.568-2.112 2.933s.888 2.514 2.112 2.933v2.441c0 .552.448 1 1 1s1-.448 1-1v-2.441c1.224-.419 2.112-1.568 2.112-2.933s-.888-2.514-2.112-2.933zm-1 4.045c-.613 0-1.112-.499-1.112-1.112s.499-1.112 1.112-1.112 1.112.499 1.112 1.112-.499 1.112-1.112 1.112z"></path></g></svg>