<svg xmlns="http://www.w3.org/2000/svg" id="Layer_1" height="512" viewBox="0 0 64 64" width="512" data-name="Layer 1"><path d="m52.42 31.59-.82-.36v-8.65h.4a2.21 2.21 0 0 0 2.21-2.21v-.16a2.21 2.21 0 0 0 -2.21-2.21h-2v-6a1 1 0 0 0 -.41-.79l-12-9a1 1 0 0 0 -.59-.21h-30a1 1 0 0 0 -1 1v58a1 1 0 0 0 1 1h42a1 1 0 0 0 1-1v-3.15a13.73 13.73 0 0 0 12-13.4 13.57 13.57 0 0 0 -9.58-12.86zm-2.22 1.21 1.47.64h.1a11.75 11.75 0 0 1 7.68 7.56h-2.63a3 3 0 0 0 -5.64 0h-14.63a11.75 11.75 0 0 1 7.68-7.52h.1l1.47-.64a1 1 0 0 0 .6-.92v-9.3h3.2v9.3a1 1 0 0 0 .6.88zm3.8 8.2a1 1 0 1 1 -1 1 1 1 0 0 1 1-1zm-1.8-20.79v.16a.21.21 0 0 1 -.21.21h-7.99a.21.21 0 0 1 -.21-.21v-.16a.21.21 0 0 1 .21-.21h8a.21.21 0 0 1 .2.21zm-14.2-15.21 8 6h-8zm10 55h-40v-56h28v8a1 1 0 0 0 1 1h11v5h-4a2.21 2.21 0 0 0 -2.21 2.21v.16a2.21 2.21 0 0 0 2.21 2.21h.39v8.65l-.82.36a13.57 13.57 0 0 0 -9.57 12.86 13.8 13.8 0 0 0 14 13.55zm0-4a11.79 11.79 0 0 1 -12-11.55 11.64 11.64 0 0 1 .1-1.45h15.08a3 3 0 0 0 5.64 0h3.08a11.64 11.64 0 0 1 .1 1.45 11.79 11.79 0 0 1 -12 11.55z"></path><path d="m43 45a3 3 0 1 0 3 3 3 3 0 0 0 -3-3zm0 4a1 1 0 1 1 1-1 1 1 0 0 1 -1 1z"></path><circle cx="51" cy="52" r="2"></circle><path d="m12 7h20v2h-20z"></path><path d="m12 55h20v2h-20z"></path><path d="m16 11h12v2h-12z"></path><path d="m32.76 27h-18.76v-2h25a1 1 0 0 0 1-1v-4a1 1 0 0 0 -1-1h-25v-2h-2v34h2v-2h9.4a1 1 0 0 0 1-1v-4a1 1 0 0 0 -1-1h-9.4v-2h13.56a1 1 0 0 0 1-1v-4a1 1 0 0 0 -1-1h-13.56v-2h18.76a1 1 0 0 0 1-1v-4a1 1 0 0 0 -1-1zm5.24-6v2h-24v-2zm-15.6 24v2h-8.4v-2zm4.16-8v2h-12.56v-2zm5.2-6h-17.76v-2h17.76z"></path></svg>