<svg xmlns="http://www.w3.org/2000/svg" height="512" viewBox="0 0 96 96" width="512"><g id="Water_Madicine" data-name="Water &amp; Madicine"><path d="m51.4 42.86a2.89 2.89 0 1 0 -2.89-2.86 2.9 2.9 0 0 0 2.89 2.86zm0-3.78a.89.89 0 1 1 -.89.89.89.89 0 0 1 .89-.89z"></path><path d="m49.36 63a4.24 4.24 0 1 0 4.24-4.23 4.24 4.24 0 0 0 -4.24 4.23zm6.48 0a2.24 2.24 0 1 1 -2.24-2.23 2.24 2.24 0 0 1 2.24 2.23z"></path><path d="m65.47 50.76a2.89 2.89 0 1 0 -2.89-2.89 2.89 2.89 0 0 0 2.89 2.89zm0-3.78a.89.89 0 1 1 -.89.89.88.88 0 0 1 .89-.87z"></path><path d="m93.73 82.17c-1.46-1.45-2-2-10.68-10.68a8 8 0 0 0 -4.26-2.22c4.56-70.35 4.47-68.27 4.36-68.61a1 1 0 0 0 -.94-.66h-60.63a1 1 0 0 0 -1 1.06l2 30.48h-12.8a2.75 2.75 0 0 0 -2.78 2.75v4.53a2.74 2.74 0 0 0 2.52 2.73v2.15a1.56 1.56 0 0 1 -.66 1.3l-4.71 3.25a9.82 9.82 0 0 0 -4.25 8.08v29.85a9.84 9.84 0 0 0 9.82 9.82c23.72 0 22.27.1 23.82-.26 26.1 0 21.78.06 40.77.06a8.08 8.08 0 0 0 6.69-3.48l1.31 1.31a8.1 8.1 0 0 0 11.46 0 8.13 8.13 0 0 0 -.04-11.46zm-7.59-4.75-8.62 8.58-4.52-4.48a6.09 6.09 0 0 1 8.62-8.61zm-20.56 16.32c-7.58 0-7.4.13-8.78-.46-6.17-2.66-4.08-11.67 2.41-11.67h6.37zm-54.23-9.34a.89.89 0 0 1 -.9-.89v-2.16h20.15c0 2.22 0 2.35-.14 2.65-.36.56.05.4-19.11.4zm-9.45-12.52h6.55c0 12.89 0 12 .08 12.52h-6.63zm28.7 7.47h-20.15v-20a.62.62 0 0 1 .63-.62h18.92a.61.61 0 0 1 .62.62zm2-7.47h6.55v12.52h-6.63c.11-.4.08.39.08-12.52zm-1.09-30.32a2.79 2.79 0 0 0 2.31-1.7c.28-.67.21-.76.21-5.57a2.75 2.75 0 0 0 -2.75-2.75h-2.53a4.09 4.09 0 0 1 3.25-3.14c14.76-2.85 24.23 8.4 40 1.27a2.26 2.26 0 0 1 3.2 2.22c-2.69 41.59-2.45 38.68-2.62 38.8a8.13 8.13 0 0 0 -3 8.78c-.29 0 1.7 0-28.4 0v-23.14a9.8 9.8 0 0 0 -4.24-8.08l-4.74-3.25a1.59 1.59 0 0 1 -.69-1.3zm9.64 39.93h12.85a9.2 9.2 0 0 0 -1.74 2h-11.11zm-18.5-79.49h58.5l-4.37 67.14h-.4a3.59 3.59 0 0 0 -.86.14l-.64.16c-.21.07-.33 3 2.29-37.48a4.27 4.27 0 0 0 -6-4.16 22.92 22.92 0 0 1 -6.92 2.06c-11.31 1.36-19.93-5.86-32.63-3.42a6 6 0 0 0 -4.89 5.1h-2.16zm-13.65 36.82v-4.53a.76.76 0 0 1 .75-.75h21.5a.76.76 0 0 1 .75.75v4.53a.75.75 0 0 1 -.75.75h-21.47a.76.76 0 0 1 -.78-.75zm-7.1 17.51a7.84 7.84 0 0 1 3.39-6.44l4.71-3.25a3.55 3.55 0 0 0 1.55-2.94v-2.13h18v2.13a3.55 3.55 0 0 0 1.55 2.94l4.71 3.25a7.82 7.82 0 0 1 3.38 6.44v13.55h-6.59v-10.54a2.62 2.62 0 0 0 -2.6-2.62h-18.92a2.63 2.63 0 0 0 -2.63 2.62v10.54h-6.55zm7.82 37.67a7.83 7.83 0 0 1 -7.82-7.6h37.24a7.77 7.77 0 0 1 -5.92 7.37c-1.42.35-.58.23-23.5.23zm27.9-.26a9.76 9.76 0 0 0 2.5-3.17 10.28 10.28 0 0 0 1-5.06h10.3a8.09 8.09 0 0 0 2.32 8.16c.12.11 1.44.07-16.12.07zm36.69.06h-6.73v-12.19h3c.68 1.06 1.38 1.64 9 9.27a6.1 6.1 0 0 1 -5.27 2.92zm18-1.59a6.1 6.1 0 0 1 -8.64 0l-4.76-4.76 8.62-8.62 4.76 4.76a6.11 6.11 0 0 1 .04 8.62z"></path></g></svg>