<svg xmlns="http://www.w3.org/2000/svg" xmlns:xlink="http://www.w3.org/1999/xlink" xmlns:svgjs="http://svgjs.dev/svgjs" id="&#x421;&#x43B;&#x43E;&#x439;_1" height="300" viewBox="0 0 512 512" width="300"><g width="100%" height="100%" transform="matrix(1,0,0,1,0,0)"><g><g><g><g><g><path d="m5.5 374.4h501.1v118.1h-501.1z" fill="#000000" fill-opacity="0" data-original-color="#f7931eff" stroke="none" stroke-opacity="1"></path><path d="m506.5 498h-501c-3 0-5.5-2.4-5.5-5.5v-118.1c0-3 2.4-5.5 5.5-5.5h501.1c3 0 5.5 2.4 5.5 5.5v118.1c-.1 3-2.5 5.5-5.6 5.5zm-495.6-10.9h490.2v-107.2h-490.2z" fill="#262626" fill-opacity="1" data-original-color="#262626ff" stroke="none" stroke-opacity="1" style=""></path></g><g><path d="m5.5 258.1h501.1v116.3h-501.1z" fill="#000000" fill-opacity="0" data-original-color="#935434ff" stroke="none" stroke-opacity="1" style=""></path><path d="m506.5 379.9h-501c-3 0-5.5-2.4-5.5-5.5v-116.3c0-3 2.4-5.5 5.5-5.5h501.1c3 0 5.5 2.4 5.5 5.5v116.3c-.1 3.1-2.5 5.5-5.6 5.5zm-495.6-10.9h490.2v-105.4h-490.2z" fill="#262626" fill-opacity="1" data-original-color="#262626ff" stroke="none" stroke-opacity="1" style=""></path></g></g><g><path d="m228 379.9c-1.6 0-3.3-.7-4.3-2.1-.3-.3-26.8-33.9-83-56.6-55.9-22.5-132.4 6.4-133.2 6.7-2.8 1.1-6-.3-7.1-3.1s.3-6 3.1-7.1c3.3-1.3 81.3-30.8 141.2-6.7 59.2 23.8 86.5 58.6 87.6 60 1.8 2.4 1.4 5.8-1 7.7-1 .8-2.2 1.2-3.3 1.2z" fill="#262626" fill-opacity="1" data-original-color="#262626ff" stroke="none" stroke-opacity="1" style=""></path></g><g><path d="m154.8 326.8c-1.8 0-3.6-.9-4.6-2.6-27.2-43.9-75.3-60.8-75.7-61-2.9-1-4.4-4.1-3.4-6.9 1-2.9 4.1-4.4 6.9-3.4 2.1.7 52.2 18.3 81.5 65.6 1.6 2.6.8 5.9-1.8 7.5-1 .6-2 .8-2.9.8z" fill="#262626" fill-opacity="1" data-original-color="#262626ff" stroke="none" stroke-opacity="1" style=""></path></g><g><path d="m506.5 340.2c-.5 0-.9-.1-1.4-.2-18.3-4.8-67.9-17.5-77.3-18.5-2.7-.3-8.9-.9-50.2-30.5-19.9-14.2-38.6-28.5-38.8-28.7-2.4-1.8-2.9-5.3-1-7.6 1.8-2.4 5.3-2.9 7.6-1 35.6 27.2 76.6 55.9 83.6 57 12.2 1.3 76.2 18 78.9 18.8 2.9.8 4.7 3.7 3.9 6.7-.6 2.4-2.8 4-5.3 4z" fill="#262626" fill-opacity="1" data-original-color="#262626ff" stroke="none" stroke-opacity="1" style=""></path></g><g><path d="m380.8 379.9c-1.8 0-3.6-.9-4.6-2.5-1.6-2.5-.9-5.9 1.7-7.5l80.3-51.2c2.5-1.6 5.9-.9 7.5 1.7 1.6 2.5.9 5.9-1.7 7.5l-80.3 51.1c-.9.6-1.9.9-2.9.9z" fill="#262626" fill-opacity="1" data-original-color="#262626ff" stroke="none" stroke-opacity="1" style=""></path></g><g><path d="m333.1 379.9c-2.3 0-4.4-1.4-5.2-3.7-5.5-15.8-24.6-58.1-45.9-63.8-4.8-1.3-11.4-1-19.6.9-30 6.8-69.8 31.8-70.2 32-2.5 1.6-5.9.8-7.5-1.7s-.8-5.9 1.7-7.5c1.7-1.1 41.7-26.2 73.6-33.4 10.1-2.3 18.3-2.6 24.9-.8 31.2 8.3 52.5 68.2 53.4 70.7 1 2.8-.5 6-3.3 7-.6.2-1.3.3-1.9.3z" fill="#262626" fill-opacity="1" data-original-color="#262626ff" stroke="none" stroke-opacity="1" style=""></path></g><g><path d="m256 314.9c-1.9 0-3.7-1-4.7-2.7-11.2-19.4-61.4-41.9-79.8-48.9-2.8-1.1-4.2-4.2-3.1-7s4.2-4.2 7-3.1 70 27 85.4 53.7c1.5 2.6.6 5.9-2 7.5-.9.2-1.9.5-2.8.5z" fill="#262626" fill-opacity="1" data-original-color="#262626ff" stroke="none" stroke-opacity="1" style=""></path></g><g><path d="m309.7 334.3c-1.8 0-3.5-.8-4.5-2.4-1.7-2.5-1-5.9 1.5-7.6l67-45c2.5-1.7 5.9-1 7.6 1.5s1 5.9-1.5 7.6l-67 45c-1 .6-2 .9-3.1.9z" fill="#262626" fill-opacity="1" data-original-color="#262626ff" stroke="none" stroke-opacity="1" style=""></path></g></g><g><path d="m461 412.5h-3c-3 0-5.5-2.4-5.5-5.5 0-3 2.4-5.5 5.5-5.5h3c3 0 5.5 2.4 5.5 5.5s-2.5 5.5-5.5 5.5zm-22.8 0h-3c-3 0-5.5-2.4-5.5-5.5 0-3 2.4-5.5 5.5-5.5h3c3 0 5.5 2.4 5.5 5.5s-2.5 5.5-5.5 5.5zm-22.8 0h-3c-3 0-5.5-2.4-5.5-5.5 0-3 2.4-5.5 5.5-5.5h3c3 0 5.5 2.4 5.5 5.5-.1 3.1-2.5 5.5-5.5 5.5zm-22.8 0h-3c-3 0-5.5-2.4-5.5-5.5 0-3 2.4-5.5 5.5-5.5h3c3 0 5.5 2.4 5.5 5.5-.1 3.1-2.5 5.5-5.5 5.5zm-22.9 0h-3c-3 0-5.5-2.4-5.5-5.5 0-3 2.4-5.5 5.5-5.5h3c3 0 5.5 2.4 5.5 5.5s-2.5 5.5-5.5 5.5zm-22.8 0h-3c-3 0-5.5-2.4-5.5-5.5 0-3 2.4-5.5 5.5-5.5h3c3 0 5.5 2.4 5.5 5.5s-2.5 5.5-5.5 5.5zm-22.8 0h-3c-3 0-5.5-2.4-5.5-5.5 0-3 2.4-5.5 5.5-5.5h3c3 0 5.5 2.4 5.5 5.5-.1 3.1-2.5 5.5-5.5 5.5zm-22.8 0h-3c-3 0-5.5-2.4-5.5-5.5 0-3 2.4-5.5 5.5-5.5h3c3 0 5.5 2.4 5.5 5.5-.1 3.1-2.5 5.5-5.5 5.5zm-22.9 0h-3c-3 0-5.5-2.4-5.5-5.5 0-3 2.4-5.5 5.5-5.5h3c3 0 5.5 2.4 5.5 5.5s-2.4 5.5-5.5 5.5zm-22.8 0h-3c-3 0-5.5-2.4-5.5-5.5 0-3 2.4-5.5 5.5-5.5h3c3 0 5.5 2.4 5.5 5.5s-2.5 5.5-5.5 5.5zm-22.8 0h-3c-3 0-5.5-2.4-5.5-5.5 0-3 2.4-5.5 5.5-5.5h3c3 0 5.5 2.4 5.5 5.5s-2.5 5.5-5.5 5.5zm-22.8 0h-3c-3 0-5.5-2.4-5.5-5.5 0-3 2.4-5.5 5.5-5.5h3c3 0 5.5 2.4 5.5 5.5-.1 3.1-2.5 5.5-5.5 5.5zm-22.8 0h-3c-3 0-5.5-2.4-5.5-5.5 0-3 2.4-5.5 5.5-5.5h3c3 0 5.5 2.4 5.5 5.5-.1 3.1-2.5 5.5-5.5 5.5zm-22.9 0h-3c-3 0-5.5-2.4-5.5-5.5 0-3 2.4-5.5 5.5-5.5h3c3 0 5.5 2.4 5.5 5.5s-2.4 5.5-5.5 5.5zm-22.8 0h-3c-3 0-5.5-2.4-5.5-5.5 0-3 2.4-5.5 5.5-5.5h3c3 0 5.5 2.4 5.5 5.5s-2.5 5.5-5.5 5.5zm-22.8 0h-3c-3 0-5.5-2.4-5.5-5.5 0-3 2.4-5.5 5.5-5.5h3c3 0 5.5 2.4 5.5 5.5s-2.5 5.5-5.5 5.5zm-22.8 0h-3c-3 0-5.5-2.4-5.5-5.5 0-3 2.4-5.5 5.5-5.5h3c3 0 5.5 2.4 5.5 5.5-.1 3.1-2.5 5.5-5.5 5.5zm-22.8 0h-3c-3 0-5.5-2.4-5.5-5.5 0-3 2.4-5.5 5.5-5.5h3c3 0 5.5 2.4 5.5 5.5-.1 3.1-2.5 5.5-5.5 5.5zm-22.9 0h-3c-3 0-5.5-2.4-5.5-5.5 0-3 2.4-5.5 5.5-5.5h3c3 0 5.5 2.4 5.5 5.5s-2.5 5.5-5.5 5.5z" fill="#262626" fill-opacity="1" data-original-color="#262626ff" stroke="none" stroke-opacity="1" style=""></path></g><g><path d="m461 440.1h-3c-3 0-5.5-2.4-5.5-5.5 0-3 2.4-5.5 5.5-5.5h3c3 0 5.5 2.4 5.5 5.5 0 3-2.5 5.5-5.5 5.5zm-22.8 0h-3c-3 0-5.5-2.4-5.5-5.5 0-3 2.4-5.5 5.5-5.5h3c3 0 5.5 2.4 5.5 5.5 0 3-2.5 5.5-5.5 5.5zm-22.8 0h-3c-3 0-5.5-2.4-5.5-5.5 0-3 2.4-5.5 5.5-5.5h3c3 0 5.5 2.4 5.5 5.5-.1 3-2.5 5.5-5.5 5.5zm-22.8 0h-3c-3 0-5.5-2.4-5.5-5.5 0-3 2.4-5.5 5.5-5.5h3c3 0 5.5 2.4 5.5 5.5-.1 3-2.5 5.5-5.5 5.5zm-22.9 0h-3c-3 0-5.5-2.4-5.5-5.5 0-3 2.4-5.5 5.5-5.5h3c3 0 5.5 2.4 5.5 5.5 0 3-2.5 5.5-5.5 5.5zm-22.8 0h-3c-3 0-5.5-2.4-5.5-5.5 0-3 2.4-5.5 5.5-5.5h3c3 0 5.5 2.4 5.5 5.5 0 3-2.5 5.5-5.5 5.5zm-22.8 0h-3c-3 0-5.5-2.4-5.5-5.5 0-3 2.4-5.5 5.5-5.5h3c3 0 5.5 2.4 5.5 5.5-.1 3-2.5 5.5-5.5 5.5zm-22.8 0h-3c-3 0-5.5-2.4-5.5-5.5 0-3 2.4-5.5 5.5-5.5h3c3 0 5.5 2.4 5.5 5.5-.1 3-2.5 5.5-5.5 5.5zm-22.9 0h-3c-3 0-5.5-2.4-5.5-5.5 0-3 2.4-5.5 5.5-5.5h3c3 0 5.5 2.4 5.5 5.5 0 3-2.4 5.5-5.5 5.5zm-22.8 0h-3c-3 0-5.5-2.4-5.5-5.5 0-3 2.4-5.5 5.5-5.5h3c3 0 5.5 2.4 5.5 5.5 0 3-2.5 5.5-5.5 5.5zm-22.8 0h-3c-3 0-5.5-2.4-5.5-5.5 0-3 2.4-5.5 5.5-5.5h3c3 0 5.5 2.4 5.5 5.5 0 3-2.5 5.5-5.5 5.5zm-22.8 0h-3c-3 0-5.5-2.4-5.5-5.5 0-3 2.4-5.5 5.5-5.5h3c3 0 5.5 2.4 5.5 5.5-.1 3-2.5 5.5-5.5 5.5zm-22.8 0h-3c-3 0-5.5-2.4-5.5-5.5 0-3 2.4-5.5 5.5-5.5h3c3 0 5.5 2.4 5.5 5.5-.1 3-2.5 5.5-5.5 5.5zm-22.9 0h-3c-3 0-5.5-2.4-5.5-5.5 0-3 2.4-5.5 5.5-5.5h3c3 0 5.5 2.4 5.5 5.5 0 3-2.4 5.5-5.5 5.5zm-22.8 0h-3c-3 0-5.5-2.4-5.5-5.5 0-3 2.4-5.5 5.5-5.5h3c3 0 5.5 2.4 5.5 5.5 0 3-2.5 5.5-5.5 5.5zm-22.8 0h-3c-3 0-5.5-2.4-5.5-5.5 0-3 2.4-5.5 5.5-5.5h3c3 0 5.5 2.4 5.5 5.5 0 3-2.5 5.5-5.5 5.5zm-22.8 0h-3c-3 0-5.5-2.4-5.5-5.5 0-3 2.4-5.5 5.5-5.5h3c3 0 5.5 2.4 5.5 5.5-.1 3-2.5 5.5-5.5 5.5zm-22.8 0h-3c-3 0-5.5-2.4-5.5-5.5 0-3 2.4-5.5 5.5-5.5h3c3 0 5.5 2.4 5.5 5.5-.1 3-2.5 5.5-5.5 5.5zm-22.9 0h-3c-3 0-5.5-2.4-5.5-5.5 0-3 2.4-5.5 5.5-5.5h3c3 0 5.5 2.4 5.5 5.5 0 3-2.5 5.5-5.5 5.5z" fill="#262626" fill-opacity="1" data-original-color="#262626ff" stroke="none" stroke-opacity="1" style=""></path></g><g><path d="m461 467.6h-3c-3 0-5.5-2.4-5.5-5.5s2.4-5.5 5.5-5.5h3c3 0 5.5 2.4 5.5 5.5s-2.5 5.5-5.5 5.5zm-22.8 0h-3c-3 0-5.5-2.4-5.5-5.5s2.4-5.5 5.5-5.5h3c3 0 5.5 2.4 5.5 5.5s-2.5 5.5-5.5 5.5zm-22.8 0h-3c-3 0-5.5-2.4-5.5-5.5s2.4-5.5 5.5-5.5h3c3 0 5.5 2.4 5.5 5.5s-2.5 5.5-5.5 5.5zm-22.8 0h-3c-3 0-5.5-2.4-5.5-5.5s2.4-5.5 5.5-5.5h3c3 0 5.5 2.4 5.5 5.5s-2.5 5.5-5.5 5.5zm-22.9 0h-3c-3 0-5.5-2.4-5.5-5.5s2.4-5.5 5.5-5.5h3c3 0 5.5 2.4 5.5 5.5s-2.5 5.5-5.5 5.5zm-22.8 0h-3c-3 0-5.5-2.4-5.5-5.5s2.4-5.5 5.5-5.5h3c3 0 5.5 2.4 5.5 5.5s-2.5 5.5-5.5 5.5zm-22.8 0h-3c-3 0-5.5-2.4-5.5-5.5s2.4-5.5 5.5-5.5h3c3 0 5.5 2.4 5.5 5.5s-2.5 5.5-5.5 5.5zm-22.8 0h-3c-3 0-5.5-2.4-5.5-5.5s2.4-5.5 5.5-5.5h3c3 0 5.5 2.4 5.5 5.5s-2.5 5.5-5.5 5.5zm-22.9 0h-3c-3 0-5.5-2.4-5.5-5.5s2.4-5.5 5.5-5.5h3c3 0 5.5 2.4 5.5 5.5s-2.4 5.5-5.5 5.5zm-22.8 0h-3c-3 0-5.5-2.4-5.5-5.5s2.4-5.5 5.5-5.5h3c3 0 5.5 2.4 5.5 5.5s-2.5 5.5-5.5 5.5zm-22.8 0h-3c-3 0-5.5-2.4-5.5-5.5s2.4-5.5 5.5-5.5h3c3 0 5.5 2.4 5.5 5.5s-2.5 5.5-5.5 5.5zm-22.8 0h-3c-3 0-5.5-2.4-5.5-5.5s2.4-5.5 5.5-5.5h3c3 0 5.5 2.4 5.5 5.5s-2.5 5.5-5.5 5.5zm-22.8 0h-3c-3 0-5.5-2.4-5.5-5.5s2.4-5.5 5.5-5.5h3c3 0 5.5 2.4 5.5 5.5s-2.5 5.5-5.5 5.5zm-22.9 0h-3c-3 0-5.5-2.4-5.5-5.5s2.4-5.5 5.5-5.5h3c3 0 5.5 2.4 5.5 5.5s-2.4 5.5-5.5 5.5zm-22.8 0h-3c-3 0-5.5-2.4-5.5-5.5s2.4-5.5 5.5-5.5h3c3 0 5.5 2.4 5.5 5.5s-2.5 5.5-5.5 5.5zm-22.8 0h-3c-3 0-5.5-2.4-5.5-5.5s2.4-5.5 5.5-5.5h3c3 0 5.5 2.4 5.5 5.5s-2.5 5.5-5.5 5.5zm-22.8 0h-3c-3 0-5.5-2.4-5.5-5.5s2.4-5.5 5.5-5.5h3c3 0 5.5 2.4 5.5 5.5s-2.5 5.5-5.5 5.5zm-22.8 0h-3c-3 0-5.5-2.4-5.5-5.5s2.4-5.5 5.5-5.5h3c3 0 5.5 2.4 5.5 5.5s-2.5 5.5-5.5 5.5zm-22.9 0h-3c-3 0-5.5-2.4-5.5-5.5s2.4-5.5 5.5-5.5h3c3 0 5.5 2.4 5.5 5.5s-2.5 5.5-5.5 5.5z" fill="#262626" fill-opacity="1" data-original-color="#262626ff" stroke="none" stroke-opacity="1" style=""></path></g></g><g><g><path d="m178.9 19.5c0 41.9 34 75.9 75.9 75.9s75.9-34 75.9-75.9" fill="#000000" fill-opacity="0" data-original-color="#f7931eff" stroke="none" stroke-opacity="1"></path><path d="m254.9 100.8c-44.9 0-81.4-36.5-81.4-81.4 0-3 2.4-5.5 5.5-5.5 3 0 5.5 2.4 5.5 5.5 0 38.8 31.6 70.4 70.4 70.4s70.4-31.6 70.4-70.4c0-3 2.4-5.5 5.5-5.5 3 0 5.5 2.4 5.5 5.5-.1 44.9-36.6 81.4-81.4 81.4z" fill="#262626" fill-opacity="1" data-original-color="#262626ff" stroke="none" stroke-opacity="1" style=""></path></g><g><path d="m254.9 195.3c-3 0-5.5-2.4-5.5-5.5v-68.5c0-3 2.4-5.5 5.5-5.5 3 0 5.5 2.4 5.5 5.5v68.5c-.1 3.1-2.5 5.5-5.5 5.5z" fill="#262626" fill-opacity="1" data-original-color="#262626ff" stroke="none" stroke-opacity="1" style=""></path></g><g><path d="m211.6 114.4-27.6 62.7" fill="#000000" fill-opacity="0" data-original-color="#f7931eff" stroke="none" stroke-opacity="1"></path><path d="m184 182.5c-.7 0-1.5-.1-2.2-.5-2.8-1.2-4-4.4-2.8-7.2l27.6-62.6c1.2-2.8 4.4-4 7.2-2.8s4 4.4 2.8 7.2l-27.6 62.7c-.9 2-2.9 3.2-5 3.2z" fill="#262626" fill-opacity="1" data-original-color="#262626ff" stroke="none" stroke-opacity="1" style=""></path></g><g><path d="m173.5 85.5-49.7 47.1" fill="#000000" fill-opacity="0" data-original-color="#f7931eff" stroke="none" stroke-opacity="1"></path><path d="m123.8 138c-1.4 0-2.9-.6-4-1.7-2.1-2.2-2-5.6.2-7.7l49.7-47.1c2.2-2.1 5.6-2 7.7.2s2 5.6-.2 7.7l-49.7 47.1c-1 1-2.3 1.5-3.7 1.5z" fill="#262626" fill-opacity="1" data-original-color="#262626ff" stroke="none" stroke-opacity="1" style=""></path></g><g><path d="m153.4 39.7-68.5 2.2" fill="#000000" fill-opacity="0" data-original-color="#f7931eff" stroke="none" stroke-opacity="1"></path><path d="m84.9 47.4c-2.9 0-5.4-2.3-5.5-5.3s2.3-5.5 5.3-5.6l68.4-2.2c3-.1 5.5 2.3 5.6 5.3s-2.3 5.5-5.3 5.6l-68.4 2.2c.1 0 0 0-.1 0z" fill="#262626" fill-opacity="1" data-original-color="#262626ff" stroke="none" stroke-opacity="1" style=""></path></g><g><path d="m338.5 85.5 49.7 47.1" fill="#000000" fill-opacity="0" data-original-color="#f7931eff" stroke="none" stroke-opacity="1"></path><path d="m388.2 138c-1.3 0-2.7-.5-3.8-1.5l-49.7-47.1c-2.2-2.1-2.3-5.5-.2-7.7s5.5-2.3 7.7-.2l49.7 47.1c2.2 2.1 2.3 5.5.2 7.7-1 1.2-2.5 1.7-3.9 1.7z" fill="#262626" fill-opacity="1" data-original-color="#262626ff" stroke="none" stroke-opacity="1" style=""></path></g><g><path d="m358.6 39.7 68.5 2.2" fill="#000000" fill-opacity="0" data-original-color="#f7931eff" stroke="none" stroke-opacity="1"></path><path d="m427.1 47.4c-.1 0-.1 0-.2 0l-68.4-2.2c-3-.1-5.4-2.6-5.3-5.6s2.6-5.4 5.6-5.3l68.4 2.2c3 .1 5.4 2.6 5.3 5.6-.1 2.9-2.5 5.3-5.4 5.3z" fill="#262626" fill-opacity="1" data-original-color="#262626ff" stroke="none" stroke-opacity="1" style=""></path></g><g><path d="m299.8 114.9 27.7 62.7" fill="#000000" fill-opacity="0" data-original-color="#f7931eff" stroke="none" stroke-opacity="1"></path><path d="m327.5 183c-2.1 0-4.1-1.2-5-3.3l-27.6-62.6c-1.2-2.8 0-6 2.8-7.2s6 0 7.2 2.8l27.6 62.6c1.2 2.8 0 6-2.8 7.2-.8.4-1.5.5-2.2.5z" fill="#262626" fill-opacity="1" data-original-color="#262626ff" stroke="none" stroke-opacity="1" style=""></path></g></g></g></g></svg>