<svg xmlns="http://www.w3.org/2000/svg" id="Line_Expand" data-name="Line Expand" viewBox="0 0 64 64" width="512" height="512"><path d="M18.5664,48.1885h-3a1,1,0,1,0,0,2h3a1,1,0,0,0,0-2Z"></path><path d="M19,42a1,1,0,0,0-1-1H13a1,1,0,0,0,0,2h5A1,1,0,0,0,19,42Z"></path><path d="M57.7256,14.147,52.5,11.3965V11a1,1,0,0,0,0-2V8a1,1,0,0,0,1-1V2a1,1,0,0,0-1-1h-12a1,1,0,0,0-1,1V7a1,1,0,0,0,1,1V9a1,1,0,0,0,0,2v.3965L35.2744,14.147A7.9668,7.9668,0,0,0,32,17.3773a7.9668,7.9668,0,0,0-3.2744-3.23L23.5,11.3965V11a1,1,0,0,0,0-2V8a1,1,0,0,0,1-1V2a1,1,0,0,0-1-1h-12a1,1,0,0,0-1,1V7a1,1,0,0,0,1,1V9a1,1,0,0,0,0,2v.3965L6.2744,14.147A7.9774,7.9774,0,0,0,2,21.2261V60a3.0033,3.0033,0,0,0,3,3H30a2.9769,2.9769,0,0,0,2-.78A2.9769,2.9769,0,0,0,34,63H59a3.0033,3.0033,0,0,0,3-3V21.2261A7.9774,7.9774,0,0,0,57.7256,14.147ZM12.5,3h10V6h-10Zm9,5V9h-8V8ZM4,27H14.1843A2.9635,2.9635,0,0,0,14,28v1.08l-.2578-.3072A3,3,0,0,0,9.1465,32.63l1.6694,1.9895a4.8075,4.8075,0,0,0-2.3794,5.157L11.2827,54H4Zm14.6582,5.7676a1.0008,1.0008,0,0,0,1.1074-.2974l2.0235-2.4111a1.0029,1.0029,0,0,1,1.4091-.1231,1,1,0,0,1,.1241,1.4087l-2.24,2.6693C20.998,34.01,20.9144,34,20.8291,34H13.1709c-.0853,0-.1689.01-.2534.014l-2.24-2.6693a1.0006,1.0006,0,0,1,1.5332-1.2861L14.2344,32.47A1,1,0,0,0,16,31.8276V28a1,1,0,0,1,2,0v3.8276A1,1,0,0,0,18.6582,32.7676Zm4.3584,4.268a2.8189,2.8189,0,0,1,.5859,2.3482L20.68,54H13.3222L10.3975,39.3838A2.8287,2.8287,0,0,1,13.1709,36h7.6582A2.8179,2.8179,0,0,1,23.0166,37.0356ZM31,60a1.0009,1.0009,0,0,1-1,1H5a1.0009,1.0009,0,0,1-1-1V56H31Zm0-6H22.7173l2.8462-14.2236a4.8075,4.8075,0,0,0-2.3794-5.157L24.8535,32.63a3,3,0,0,0-4.5957-3.8565L20,29.08V28a2.9635,2.9635,0,0,0-.1843-1H31Zm0-29H4V21.2261a5.9844,5.9844,0,0,1,3.2061-5.31l5.76-3.0317A1.0008,1.0008,0,0,0,13.5,12V11h8v1a1.0008,1.0008,0,0,0,.5342.8848l5.76,3.0317A5.9844,5.9844,0,0,1,31,21.2261ZM41.5,3h10V6h-10Zm9,5V9h-8V8ZM33,32.2443a.9792.9792,0,0,1,.3785-.7767,1.0349,1.0349,0,0,1,.8912-.1891,9.4233,9.4233,0,0,1,4.5817,2.6453,1.0348,1.0348,0,0,1,.2814.8661.9756.9756,0,0,1-.4848.7172l-.0005,0H38.647L33,38.7678ZM34,40.5,39.6473,37.24l.0008-.0006a.9788.9788,0,0,1,.8636-.0613,1.0349,1.0349,0,0,1,.6094.6773,9.4232,9.4232,0,0,1,0,5.2905,1.0352,1.0352,0,0,1-.6094.6768.9749.9749,0,0,1-.8642-.0615h0v0Zm-1,1.7327,5.647,3.2605h.0005l.0005,0a.9756.9756,0,0,1,.4848.7173,1.0347,1.0347,0,0,1-.2814.866A9.4233,9.4233,0,0,1,34.27,49.7221a1.0349,1.0349,0,0,1-.8912-.1891A.9792.9792,0,0,1,33,48.7563Zm0,9.3263a3.0239,3.0239,0,0,0,1.7417.107,11.4413,11.4413,0,0,0,5.5568-3.2082,3.0262,3.0262,0,0,0,.814-2.5324c-.0094-.0656-.0325-.1265-.046-.1908.0625-.02.1268-.0308.1884-.0555a3.0268,3.0268,0,0,0,1.7861-1.9707,11.4418,11.4418,0,0,0,0-6.4165,3.0265,3.0265,0,0,0-1.7861-1.9712c-.0617-.0247-.1266-.0316-.1892-.0521.0138-.0653.0373-.1272.0468-.1939a3.0269,3.0269,0,0,0-.8135-2.5323,11.4429,11.4429,0,0,0-5.5569-3.2082A3.0234,3.0234,0,0,0,33,29.4412v-2.39a13.4854,13.4854,0,0,1,0,26.8986h0ZM60,60a1.0009,1.0009,0,0,1-1,1H34a1.0009,1.0009,0,0,1-1-1V56H60Zm0-6-20.347-.0381A15.4731,15.4731,0,0,0,39.59,27H60Zm0-29H33V21.2261a5.9844,5.9844,0,0,1,3.2061-5.31l5.76-3.0317A1.0008,1.0008,0,0,0,42.5,12V11h8v1a1.0008,1.0008,0,0,0,.5342.8848l5.76,3.0317A5.9844,5.9844,0,0,1,60,21.2261Z"></path></svg>