<svg xmlns="http://www.w3.org/2000/svg" xmlns:xlink="http://www.w3.org/1999/xlink" xmlns:svgjs="http://svgjs.dev/svgjs" id="Capa_1" x="0px" y="0px" viewBox="0 0 512 512" style="enable-background:new 0 0 512 512;" xml:space="preserve" width="300" height="300"><g width="100%" height="100%" transform="matrix(1,0,0,1,0,0)"><g>	<path style="stroke-linecap: round; stroke-linejoin: round; stroke-miterlimit: 10;" d="&#10;&#9;&#9;M82.425,82.425L82.425,82.425c14.704-14.704,14.704-38.543,0-53.247l-10.65-10.65c-14.704-14.704-38.543-14.704-53.247,0l0,0&#10;&#9;&#9;c-14.704,14.704-14.704,38.543,0,53.247l10.65,10.65C43.881,97.128,67.721,97.128,82.425,82.425z" fill="none" fill-opacity="1" stroke="#ffffff" stroke-opacity="1" data-original-stroke-color="#000000ff" stroke-width="15" data-original-stroke-width="15"></path>	<path style="stroke-linecap: round; stroke-linejoin: round; stroke-miterlimit: 10;" d="&#10;&#9;&#9;M213.08,138.534l-44.476-44.476c-1.181-1.181-3.164-0.894-3.963,0.572l-24.692,45.32" fill="none" fill-opacity="1" stroke="#ffffff" stroke-opacity="1" data-original-stroke-color="#000000ff" stroke-width="15" data-original-stroke-width="15"></path>	<path style="stroke-linecap: round; stroke-linejoin: round; stroke-miterlimit: 10;" d="&#10;&#9;&#9;M138.545,213.091l-44.487-44.487c-1.181-1.181-0.894-3.164,0.572-3.963l45.32-24.692L167.5,167.5" fill="none" fill-opacity="1" stroke="#ffffff" stroke-opacity="1" data-original-stroke-color="#000000ff" stroke-width="15" data-original-stroke-width="15"></path>			<circle style="stroke-linecap: round; stroke-linejoin: round; stroke-miterlimit: 10;" cx="256" cy="256" r="124.25" fill="none" fill-opacity="1" stroke="#ffffff" stroke-opacity="1" data-original-stroke-color="#000000ff" stroke-width="15" data-original-stroke-width="15"></circle>			<ellipse style="stroke-linecap: round; stroke-linejoin: round; stroke-miterlimit: 10;" cx="256" cy="256" rx="62.125" ry="124.25" fill="none" fill-opacity="1" stroke="#ffffff" stroke-opacity="1" data-original-stroke-color="#000000ff" stroke-width="15" data-original-stroke-width="15"></ellipse>			<line style="stroke-linecap: round; stroke-linejoin: round; stroke-miterlimit: 10;" x1="256" y1="131.75" x2="256" y2="380.25" fill="none" fill-opacity="1" stroke="#ffffff" stroke-opacity="1" data-original-stroke-color="#000000ff" stroke-width="15" data-original-stroke-width="15"></line>			<line style="stroke-linecap: round; stroke-linejoin: round; stroke-miterlimit: 10;" x1="380.25" y1="256" x2="131.75" y2="256" fill="none" fill-opacity="1" stroke="#ffffff" stroke-opacity="1" data-original-stroke-color="#000000ff" stroke-width="15" data-original-stroke-width="15"></line>			<line style="stroke-linecap: round; stroke-linejoin: round; stroke-miterlimit: 10;" x1="363.012" y1="193.875" x2="148.988" y2="193.875" fill="none" fill-opacity="1" stroke="#ffffff" stroke-opacity="1" data-original-stroke-color="#000000ff" stroke-width="15" data-original-stroke-width="15"></line>			<line style="stroke-linecap: round; stroke-linejoin: round; stroke-miterlimit: 10;" x1="363.012" y1="318.125" x2="148.988" y2="318.125" fill="none" fill-opacity="1" stroke="#ffffff" stroke-opacity="1" data-original-stroke-color="#000000ff" stroke-width="15" data-original-stroke-width="15"></line>	<path style="stroke-linecap: round; stroke-linejoin: round; stroke-miterlimit: 10;" d="&#10;&#9;&#9;M103.591,105.187l-33.775,33.775c-13.254,13.254-13.254,34.743,0,47.998l61.719,61.719" fill="none" fill-opacity="1" stroke="#ffffff" stroke-opacity="1" data-original-stroke-color="#000000ff" stroke-width="15" data-original-stroke-width="15"></path>	<path style="stroke-linecap: round; stroke-linejoin: round; stroke-miterlimit: 10;" d="&#10;&#9;&#9;M248.679,131.534L186.96,69.816c-13.254-13.254-34.743-13.254-47.998,0l-10.183,10.183" fill="none" fill-opacity="1" stroke="#ffffff" stroke-opacity="1" data-original-stroke-color="#000000ff" stroke-width="15" data-original-stroke-width="15"></path>	<path style="stroke-linecap: round; stroke-linejoin: round; stroke-miterlimit: 10;" d="&#10;&#9;&#9;M429.575,82.425L429.575,82.425c-14.704-14.704-14.704-38.543,0-53.247l10.65-10.65c14.704-14.704,38.543-14.704,53.247,0l0,0&#10;&#9;&#9;c14.704,14.704,14.704,38.543,0,53.247l-10.65,10.65C468.119,97.128,444.279,97.128,429.575,82.425z" fill="none" fill-opacity="1" stroke="#ffffff" stroke-opacity="1" data-original-stroke-color="#000000ff" stroke-width="15" data-original-stroke-width="15"></path>	<path style="stroke-linecap: round; stroke-linejoin: round; stroke-miterlimit: 10;" d="&#10;&#9;&#9;M298.92,138.534l44.476-44.476c1.181-1.181,3.164-0.894,3.963,0.572l24.692,45.32" fill="none" fill-opacity="1" stroke="#ffffff" stroke-opacity="1" data-original-stroke-color="#000000ff" stroke-width="15" data-original-stroke-width="15"></path>	<path style="stroke-linecap: round; stroke-linejoin: round; stroke-miterlimit: 10;" d="&#10;&#9;&#9;M373.455,213.091l44.487-44.487c1.181-1.181,0.894-3.164-0.572-3.963l-45.32-24.692L344.5,167.5" fill="none" fill-opacity="1" stroke="#ffffff" stroke-opacity="1" data-original-stroke-color="#000000ff" stroke-width="15" data-original-stroke-width="15"></path>	<path style="stroke-linecap: round; stroke-linejoin: round; stroke-miterlimit: 10;" d="&#10;&#9;&#9;M263.321,131.534l61.719-61.719c13.254-13.254,34.743-13.254,47.998,0l69.146,69.146c13.254,13.254,13.254,34.743,0,47.998&#10;&#9;&#9;l-61.719,61.719" fill="none" fill-opacity="1" stroke="#ffffff" stroke-opacity="1" data-original-stroke-color="#000000ff" stroke-width="15" data-original-stroke-width="15"></path>	<path style="stroke-linecap: round; stroke-linejoin: round; stroke-miterlimit: 10;" d="&#10;&#9;&#9;M82.425,429.575L82.425,429.575c14.704,14.704,14.704,38.543,0,53.247l-10.65,10.65c-14.704,14.704-38.543,14.704-53.247,0l0,0&#10;&#9;&#9;c-14.704-14.704-14.704-38.543,0-53.247l10.65-10.65C43.881,414.872,67.721,414.872,82.425,429.575z" fill="none" fill-opacity="1" stroke="#ffffff" stroke-opacity="1" data-original-stroke-color="#000000ff" stroke-width="15" data-original-stroke-width="15"></path>	<path style="stroke-linecap: round; stroke-linejoin: round; stroke-miterlimit: 10;" d="&#10;&#9;&#9;M213.08,373.466l-44.476,44.476c-1.181,1.181-3.164,0.894-3.963-0.572l-24.692-45.32" fill="none" fill-opacity="1" stroke="#ffffff" stroke-opacity="1" data-original-stroke-color="#000000ff" stroke-width="15" data-original-stroke-width="15"></path>	<path style="stroke-linecap: round; stroke-linejoin: round; stroke-miterlimit: 10;" d="&#10;&#9;&#9;M138.545,298.909l-44.487,44.487c-1.181,1.181-0.894,3.164,0.572,3.963l45.32,24.692L167.5,344.5" fill="none" fill-opacity="1" stroke="#ffffff" stroke-opacity="1" data-original-stroke-color="#000000ff" stroke-width="15" data-original-stroke-width="15"></path>	<path style="stroke-linecap: round; stroke-linejoin: round; stroke-miterlimit: 10;" d="&#10;&#9;&#9;M94.703,397.925l-24.887-24.887c-13.254-13.254-13.254-34.743,0-47.998l61.719-61.719" fill="none" fill-opacity="1" stroke="#ffffff" stroke-opacity="1" data-original-stroke-color="#000000ff" stroke-width="15" data-original-stroke-width="15"></path>	<path style="stroke-linecap: round; stroke-linejoin: round; stroke-miterlimit: 10;" d="&#10;&#9;&#9;M248.679,380.466l-61.719,61.719c-13.254,13.254-34.743,13.254-47.998,0l-18.899-18.899" fill="none" fill-opacity="1" stroke="#ffffff" stroke-opacity="1" data-original-stroke-color="#000000ff" stroke-width="15" data-original-stroke-width="15"></path>	<path style="stroke-linecap: round; stroke-linejoin: round; stroke-miterlimit: 10;" d="&#10;&#9;&#9;M429.575,429.575L429.575,429.575c-14.704,14.704-14.704,38.543,0,53.247l10.65,10.65c14.704,14.704,38.543,14.704,53.247,0l0,0&#10;&#9;&#9;c14.704-14.704,14.704-38.543,0-53.247l-10.65-10.65C468.119,414.872,444.279,414.872,429.575,429.575z" fill="none" fill-opacity="1" stroke="#ffffff" stroke-opacity="1" data-original-stroke-color="#000000ff" stroke-width="15" data-original-stroke-width="15"></path>	<path style="stroke-linecap: round; stroke-linejoin: round; stroke-miterlimit: 10;" d="&#10;&#9;&#9;M298.92,373.466l44.476,44.476c1.181,1.181,3.164,0.894,3.963-0.572l24.692-45.32" fill="none" fill-opacity="1" stroke="#ffffff" stroke-opacity="1" data-original-stroke-color="#000000ff" stroke-width="15" data-original-stroke-width="15"></path>	<path style="stroke-linecap: round; stroke-linejoin: round; stroke-miterlimit: 10;" d="&#10;&#9;&#9;M373.455,298.909l44.487,44.487c1.181,1.181,0.894,3.164-0.572,3.963l-45.32,24.692L344.5,344.5" fill="none" fill-opacity="1" stroke="#ffffff" stroke-opacity="1" data-original-stroke-color="#000000ff" stroke-width="15" data-original-stroke-width="15"></path>			<line style="stroke-linecap: round; stroke-linejoin: round; stroke-miterlimit: 10;" x1="398.039" y1="280.895" x2="380.466" y2="263.321" fill="none" fill-opacity="1" stroke="#ffffff" stroke-opacity="1" data-original-stroke-color="#000000ff" stroke-width="15" data-original-stroke-width="15"></line>	<path style="stroke-linecap: round; stroke-linejoin: round; stroke-miterlimit: 10;" d="&#10;&#9;&#9;M263.321,380.466l61.719,61.719c13.254,13.254,34.743,13.254,47.998,0l69.146-69.146c13.254-13.254,13.254-34.743,0-47.998&#10;&#9;&#9;l-18.659-18.659" fill="none" fill-opacity="1" stroke="#ffffff" stroke-opacity="1" data-original-stroke-color="#000000ff" stroke-width="15" data-original-stroke-width="15"></path></g><g></g><g></g><g></g><g></g><g></g><g></g><g></g><g></g><g></g><g></g><g></g><g></g><g></g><g></g><g></g></g></svg>