<svg xmlns="http://www.w3.org/2000/svg" viewBox="0 0 512 512"><g id="_x31_5_Antioxidant"><g><path d="m489.968 190.02c0-20-16.274-36.274-36.323-36.274-2.059 0-4.118.196-6.127.539-31.029-55.931-84.95-97.45-149.116-111.764 0-.098.049-.147.049-.196 0-20.049-16.323-36.323-36.323-36.323-18.627 0-34.019 14.167-36.029 32.254-55.833 5.637-105.685 31.568-142.156 70.294-5.245-2.892-11.226-4.608-17.647-4.608-20 0-36.274 16.323-36.274 36.323 0 11.274 5.147 21.323 13.235 27.99-13.578 29.068-21.225 61.47-21.225 95.636 0 28.774 5.539 56.225 15.343 81.568-9.265 6.617-15.343 17.402-15.343 29.657 0 19.951 16.274 36.225 36.274 36.225 5.539 0 10.784-1.275 15.49-3.53 41.666 50.637 104.656 83.038 175.145 83.038 15 0 29.607-1.569 43.774-4.412 6.078 11.618 18.186 19.559 32.157 19.559 20.049 0 36.323-16.274 36.323-36.274 0-2.794-.343-5.539-.98-8.137 68.97-39.018 115.685-112.988 115.685-197.693 0-14.559-1.47-28.725-4.117-42.5 10.882-6.274 18.185-17.941 18.185-31.372zm-133.283 262.204c-6.176-11.176-18.137-18.774-31.813-18.774-20 0-36.225 16.274-36.225 36.274 0 2.549.245 5 .735 7.402-13.088 2.5-26.617 3.921-40.441 3.921-67.058 0-127.008-30.686-166.861-78.627 7.647-6.618 12.5-16.422 12.5-27.304 0-20.049-16.274-36.323-36.274-36.323-4.265 0-8.382.784-12.157 2.157-9.167-23.97-14.314-49.901-14.314-77.058 0-32.304 7.157-62.892 19.853-90.489 4.461 2.01 9.412 3.137 14.608 3.137 20.049 0 36.323-16.274 36.323-36.274 0-10.098-4.167-19.216-10.833-25.784 34.706-36.47 81.813-60.882 134.558-66.421 2.794 17.255 17.745 30.49 35.784 30.49 16.569 0 30.539-11.127 34.902-26.323 60.392 13.725 111.224 52.647 140.93 105.097-12.108 5.882-20.539 18.333-20.539 32.696 0 20 16.274 36.274 36.225 36.274 3.088 0 6.078-.441 8.922-1.128 2.255 12.549 3.529 25.49 3.529 38.725-.001 80.538-44.118 150.881-109.412 188.332z"></path><path d="m411.783 294.382c1.862-9.902 2.892-20.049 2.892-30.49 0-91.372-74.362-165.685-165.734-165.685-11.618 0-22.892 1.275-33.823 3.578-3.088-10.294-12.549-17.892-23.823-17.892-13.774 0-25 11.225-25 25 0 3.676.882 7.108 2.304 10.294-50.833 28.284-85.342 82.499-85.342 144.705 0 57.45 29.411 108.038 73.921 137.793-.294 1.569-.49 3.137-.49 4.804 0 13.725 11.226 24.951 24.951 24.951 7.696 0 14.509-3.578 19.068-9.019 15.294 4.657 31.471 7.206 48.235 7.206 63.774 0 119.067-36.372 146.714-89.313 1.079.098 2.108.294 3.186.294 13.774 0 25-11.177 25-24.951 0-9.02-4.853-16.912-12.059-21.275zm-9.363-3.333c-1.176-.196-2.353-.392-3.578-.392-13.774 0-24.951 11.225-24.951 25 0 9.167 5 17.108 12.402 21.421-26.275 49.117-77.892 82.744-137.352 82.744-15.098 0-29.607-2.304-43.431-6.323.686-2.255 1.127-4.559 1.127-7.01 0-13.823-11.225-25-25-25-8.578 0-16.128 4.363-20.637 10.98-40.98-28.137-67.94-75.244-67.94-128.577 0-58.97 32.892-110.293 81.274-136.764 4.461 4.118 10.392 6.716 16.96 6.716 12.843 0 23.333-9.804 24.706-22.255 10.637-2.304 21.617-3.578 32.941-3.578 85.979 0 155.93 69.901 155.93 155.881 0 9.265-.882 18.333-2.451 27.157z"></path><path d="m360.313 206.393c-.049-2.598-2.157-4.706-4.755-4.755-2.647-.098-64.019-1.323-92.009 26.715-5.735 5.735-10.588 11.912-14.608 18.235-4.02-6.323-8.823-12.5-14.559-18.235-28.039-28.039-89.411-26.765-92.009-26.715-2.598.049-4.706 2.157-4.804 4.755-.049 2.598-1.275 64.019 26.715 92.009 17.941 17.99 40 27.696 58.676 27.696 10 0 19.019-2.794 25.98-8.578 6.961 5.784 16.029 8.578 25.98 8.578 18.725 0 40.735-9.706 58.725-27.696 27.991-27.99 26.766-89.412 26.668-92.009zm-123.97 87.058-13.529-13.529v-19.363c0-2.696-2.206-4.902-4.902-4.902s-4.902 2.206-4.902 4.902v9.559l-12.059-12.059c-1.912-1.912-5.049-1.912-6.961 0s-1.912 5 0 6.912l46.568 46.568c-16.617 11.127-46.372 2.941-69.362-20.049-20.784-20.833-23.48-65.343-23.774-80.048 14.657.343 59.166 2.99 79.999 23.823 6.667 6.667 12.01 13.872 16.078 21.176-6.126 12.794-8.626 25.735-7.156 37.01zm90.343-1.961c-22.941 22.99-52.696 31.176-69.362 20.049l26.127-26.127h.049l20.441-20.441c1.911-1.911 1.911-5 0-6.912-1.961-1.912-5.049-1.912-6.961 0l-12.059 12.059v-9.559c0-2.696-2.206-4.902-4.902-4.902s-4.902 2.206-4.902 4.902v19.363l-24.706 24.706c-11.127-16.618-2.892-46.372 20.098-69.362 20.784-20.833 65.342-23.48 79.999-23.823-.293 14.704-2.94 59.165-23.822 80.047z"></path></g></g><g id="Layer_1"></g></svg>