<svg xmlns="http://www.w3.org/2000/svg" viewBox="0 0 64 64"><g id="Layer_23" data-name="Layer 23"><path d="m60 25.28h-5.41a1 1 0 0 0 0 2h3l-11.75 11.72-6.27-6.26a1 1 0 0 0 -1.39 0l-13.62 12.85-5.91-5.86a1 1 0 0 0 -1.41 0l-13.95 13.95a1 1 0 0 0 0 1.42 1 1 0 0 0 1.42 0l13.29-13.24 5.89 5.83a1 1 0 0 0 1.39 0l13.56-12.82 6.29 6.28a1 1 0 0 0 1.41 0l12.46-12.45v3a1 1 0 0 0 2 0v-5.42a1 1 0 0 0 -1-1z"></path><path d="m8.67 55.33a1 1 0 0 0 -1 1v3.67a1 1 0 0 0 2 0v-3.67a1 1 0 0 0 -1-1z"></path><path d="m4 57.33a1 1 0 0 0 -1 1v1.67a1 1 0 0 0 2 0v-1.67a1 1 0 0 0 -1-1z"></path><path d="m13.33 50.68a1 1 0 0 0 -1 1v8.32a1 1 0 0 0 2 0v-8.32a1 1 0 0 0 -1-1z"></path><path d="m18 46.11a1 1 0 0 0 -1 1v12.89a1 1 0 0 0 2 0v-12.89a1 1 0 0 0 -1-1z"></path><path d="m22.67 50.74a1 1 0 0 0 -1 1v8.26a1 1 0 0 0 2 0v-8.26a1 1 0 0 0 -1-1z"></path><path d="m27.33 50a1 1 0 0 0 -1 1v9a1 1 0 0 0 2 0v-9a1 1 0 0 0 -1-1z"></path><path d="m32 45.57a1 1 0 0 0 -1 1v13.43a1 1 0 0 0 2 0v-13.43a1 1 0 0 0 -1-1z"></path><path d="m36.67 41.16a1 1 0 0 0 -1 1v17.84a1 1 0 0 0 2 0v-17.84a1 1 0 0 0 -1-1z"></path><path d="m41.33 41.56a1 1 0 0 0 -1 1v17.44a1 1 0 0 0 2 0v-17.44a1 1 0 0 0 -1-1z"></path><path d="m46 45.9a1 1 0 0 0 -1 1v13.1a1 1 0 0 0 2 0v-13.1a1 1 0 0 0 -1-1z"></path><path d="m50.67 41.23a1 1 0 0 0 -1 1v17.77a1 1 0 0 0 2 0v-17.77a1 1 0 0 0 -1-1z"></path><path d="m55.33 36.57a1 1 0 0 0 -1 1v22.43a1 1 0 0 0 2 0v-22.43a1 1 0 0 0 -1-1z"></path><path d="m60 33.9a1 1 0 0 0 -1 1v25.1a1 1 0 0 0 2 0v-25.1a1 1 0 0 0 -1-1z"></path><path d="m14.12 19.61c2 0 3.5-2.61 3.5-6.07s-1.5-6.06-3.5-6.06-3.5 2.61-3.5 6.06 1.51 6.07 3.5 6.07zm0-10.13c.53 0 1.5 1.54 1.5 4.06s-1 4.07-1.5 4.07-1.5-1.54-1.5-4.07.98-4.06 1.5-4.06z"></path><path d="m3.51 34.39a1.05 1.05 0 0 0 .49.13 1 1 0 0 0 .52-.15l5.54-3.37a5.5 5.5 0 0 0 4.06 2.08 5.51 5.51 0 0 0 4.07-2.08l5.54 3.35a1 1 0 0 0 .52.15 1.05 1.05 0 0 0 .49-.13 1 1 0 0 0 .51-.87v-9.1a1 1 0 0 0 -.48-.85l-2.95-1.79a29.53 29.53 0 0 0 .24-3.71c0-8.44-3.49-15-7.94-15s-7.93 6.56-7.93 15a29.53 29.53 0 0 0 .24 3.71l-2.95 1.79a1 1 0 0 0 -.48.85v9.12a1 1 0 0 0 .51.87zm19.74-9.39v6.78l-3.87-2.38a18.16 18.16 0 0 0 2.08-5.52zm-9.13-20c2.87 0 5.94 5.24 5.94 13.05s-3.06 13.05-5.94 13.05-5.93-5.24-5.93-13 3.07-13.1 5.93-13.1zm-9.12 20 1.79-1.08a18.16 18.16 0 0 0 2.08 5.48l-3.87 2.34z"></path><path d="m10.66 34.66v3a1 1 0 0 0 2 0v-3a1 1 0 0 0 -2 0z"></path><path d="m13.36 35.31v4.44a1 1 0 0 0 2 0v-4.44a1 1 0 0 0 -2 0z"></path><path d="m17.06 33.66a1 1 0 0 0 -1 1v3a1 1 0 0 0 2 0v-3a1 1 0 0 0 -1-1z"></path></g></svg>