<svg xmlns="http://www.w3.org/2000/svg" xmlns:xlink="http://www.w3.org/1999/xlink" id="Capa_1" x="0px" y="0px" viewBox="0 0 512 512" style="enable-background:new 0 0 512 512;" xml:space="preserve" width="512" height="512"><g>	<path style="fill:none;stroke:#000000;stroke-width:15;stroke-linecap:round;stroke-linejoin:round;stroke-miterlimit:10;" d="&#10;&#9;&#9;M334.453,28.074C317.087,15.149,295.563,7.5,272.251,7.5c-48.867,0-89.871,33.611-101.187,78.973&#10;&#9;&#9;c-6.016-2.974-12.787-4.652-19.952-4.652c-24.907,0-45.099,20.191-45.099,45.099c0,3.53,0.419,6.96,1.186,10.257&#10;&#9;&#9;c-0.594-0.027-1.191-0.044-1.793-0.044c-17.438,0-32.225,11.31-37.453,26.99H54.05c-14.352,0-25.987,11.635-25.987,25.987v0&#10;&#9;&#9;c0,14.352,11.634,25.987,25.987,25.987h104.129"></path>	<path style="fill:none;stroke:#000000;stroke-width:15;stroke-linecap:round;stroke-linejoin:round;stroke-miterlimit:10;" d="&#10;&#9;&#9;M193.179,216.096h261.392c16.218,0,29.365-13.147,29.365-29.365v0c0-16.218-13.147-29.365-29.365-29.365h-23.626&#10;&#9;&#9;c0.102-1.467,0.172-2.943,0.172-4.437c0-32.751-24.926-59.677-56.841-62.851c-2.896-13.67-8.469-26.352-16.145-37.47"></path>			<line style="fill:none;stroke:#000000;stroke-width:15;stroke-linecap:round;stroke-linejoin:round;stroke-miterlimit:10;" x1="60.312" y1="250.425" x2="60.312" y2="370.997"></line>			<line style="fill:none;stroke:#000000;stroke-width:15;stroke-linecap:round;stroke-linejoin:round;stroke-miterlimit:10;" x1="60.312" y1="451.184" x2="60.312" y2="504.5"></line>			<line style="fill:none;stroke:#000000;stroke-width:15;stroke-linecap:round;stroke-linejoin:round;stroke-miterlimit:10;" x1="60.312" y1="401.328" x2="60.312" y2="416.691"></line>			<line style="fill:none;stroke:#000000;stroke-width:15;stroke-linecap:round;stroke-linejoin:round;stroke-miterlimit:10;" x1="100.325" y1="338.234" x2="100.325" y2="458.806"></line>			<line style="fill:none;stroke:#000000;stroke-width:15;stroke-linecap:round;stroke-linejoin:round;stroke-miterlimit:10;" x1="100.325" y1="489.136" x2="100.325" y2="504.5"></line>			<line style="fill:none;stroke:#000000;stroke-width:15;stroke-linecap:round;stroke-linejoin:round;stroke-miterlimit:10;" x1="100.325" y1="250.425" x2="100.325" y2="308.833"></line>			<line style="fill:none;stroke:#000000;stroke-width:15;stroke-linecap:round;stroke-linejoin:round;stroke-miterlimit:10;" x1="145.387" y1="250.425" x2="145.387" y2="370.997"></line>			<line style="fill:none;stroke:#000000;stroke-width:15;stroke-linecap:round;stroke-linejoin:round;stroke-miterlimit:10;" x1="145.387" y1="451.184" x2="145.387" y2="504.5"></line>			<line style="fill:none;stroke:#000000;stroke-width:15;stroke-linecap:round;stroke-linejoin:round;stroke-miterlimit:10;" x1="145.387" y1="401.328" x2="145.387" y2="416.691"></line>			<line style="fill:none;stroke:#000000;stroke-width:15;stroke-linecap:round;stroke-linejoin:round;stroke-miterlimit:10;" x1="185.4" y1="338.234" x2="185.4" y2="458.806"></line>			<line style="fill:none;stroke:#000000;stroke-width:15;stroke-linecap:round;stroke-linejoin:round;stroke-miterlimit:10;" x1="185.4" y1="489.136" x2="185.4" y2="504.5"></line>			<line style="fill:none;stroke:#000000;stroke-width:15;stroke-linecap:round;stroke-linejoin:round;stroke-miterlimit:10;" x1="185.4" y1="250.425" x2="185.4" y2="308.833"></line>			<line style="fill:none;stroke:#000000;stroke-width:15;stroke-linecap:round;stroke-linejoin:round;stroke-miterlimit:10;" x1="230.462" y1="250.425" x2="230.462" y2="370.997"></line>			<line style="fill:none;stroke:#000000;stroke-width:15;stroke-linecap:round;stroke-linejoin:round;stroke-miterlimit:10;" x1="230.462" y1="451.184" x2="230.462" y2="504.5"></line>			<line style="fill:none;stroke:#000000;stroke-width:15;stroke-linecap:round;stroke-linejoin:round;stroke-miterlimit:10;" x1="230.462" y1="401.328" x2="230.462" y2="416.691"></line>			<line style="fill:none;stroke:#000000;stroke-width:15;stroke-linecap:round;stroke-linejoin:round;stroke-miterlimit:10;" x1="270.475" y1="338.234" x2="270.475" y2="458.806"></line>			<line style="fill:none;stroke:#000000;stroke-width:15;stroke-linecap:round;stroke-linejoin:round;stroke-miterlimit:10;" x1="270.475" y1="489.136" x2="270.475" y2="504.5"></line>			<line style="fill:none;stroke:#000000;stroke-width:15;stroke-linecap:round;stroke-linejoin:round;stroke-miterlimit:10;" x1="270.474" y1="250.425" x2="270.474" y2="308.833"></line>			<line style="fill:none;stroke:#000000;stroke-width:15;stroke-linecap:round;stroke-linejoin:round;stroke-miterlimit:10;" x1="315.536" y1="250.425" x2="315.536" y2="370.997"></line>			<line style="fill:none;stroke:#000000;stroke-width:15;stroke-linecap:round;stroke-linejoin:round;stroke-miterlimit:10;" x1="315.536" y1="451.184" x2="315.536" y2="504.5"></line>			<line style="fill:none;stroke:#000000;stroke-width:15;stroke-linecap:round;stroke-linejoin:round;stroke-miterlimit:10;" x1="315.536" y1="401.328" x2="315.536" y2="416.691"></line>			<line style="fill:none;stroke:#000000;stroke-width:15;stroke-linecap:round;stroke-linejoin:round;stroke-miterlimit:10;" x1="355.549" y1="338.234" x2="355.549" y2="458.806"></line>			<line style="fill:none;stroke:#000000;stroke-width:15;stroke-linecap:round;stroke-linejoin:round;stroke-miterlimit:10;" x1="355.549" y1="489.136" x2="355.549" y2="504.5"></line>			<line style="fill:none;stroke:#000000;stroke-width:15;stroke-linecap:round;stroke-linejoin:round;stroke-miterlimit:10;" x1="355.549" y1="250.425" x2="355.549" y2="308.833"></line>			<line style="fill:none;stroke:#000000;stroke-width:15;stroke-linecap:round;stroke-linejoin:round;stroke-miterlimit:10;" x1="400.611" y1="250.425" x2="400.611" y2="370.997"></line>			<line style="fill:none;stroke:#000000;stroke-width:15;stroke-linecap:round;stroke-linejoin:round;stroke-miterlimit:10;" x1="400.611" y1="451.184" x2="400.611" y2="504.5"></line>			<line style="fill:none;stroke:#000000;stroke-width:15;stroke-linecap:round;stroke-linejoin:round;stroke-miterlimit:10;" x1="400.611" y1="401.328" x2="400.611" y2="416.691"></line>			<line style="fill:none;stroke:#000000;stroke-width:15;stroke-linecap:round;stroke-linejoin:round;stroke-miterlimit:10;" x1="440.624" y1="338.234" x2="440.624" y2="458.806"></line>			<line style="fill:none;stroke:#000000;stroke-width:15;stroke-linecap:round;stroke-linejoin:round;stroke-miterlimit:10;" x1="440.624" y1="489.136" x2="440.624" y2="504.5"></line>			<line style="fill:none;stroke:#000000;stroke-width:15;stroke-linecap:round;stroke-linejoin:round;stroke-miterlimit:10;" x1="440.624" y1="250.425" x2="440.624" y2="308.833"></line></g></svg>