<svg xmlns="http://www.w3.org/2000/svg" viewBox="0 0 128 128"><g id="Layer_1"></g><g id="Broken_Bone"></g><g id="Bandage"></g><g id="Ointment_00000003106513104078622570000012790501110927058582_"></g><g id="Herbal_Drugs"><g><path d="m41.383 21.099 3.082 9.514c1.059 3.268 4.896 4.634 9.688 4.634 3.452 0 7.4-.709 11.161-1.928 8.982-2.909 17.122-8.796 15.302-14.417l-3.082-9.514c-.043-.132-.098-.257-.164-.373-.99-2.376-3.74-3.861-7.847-4.179-3.716-.292-8.275.367-12.838 1.846-4.563 1.478-8.641 3.62-11.482 6.033-3.14 2.665-4.497 5.481-3.905 7.986.014.133.042.266.085.398zm34.113-5.021 1.314 4.056c.613 1.894-4.15 6.601-12.729 9.38-8.579 2.777-15.198 1.759-15.811-.134l-1.314-4.056c1.245.277 2.634.408 4.115.408 3.452 0 7.4-.709 11.161-1.928 5.375-1.74 10.446-4.548 13.264-7.726zm-7.772-7.309c.513 0 1.011.018 1.491.056 2.977.23 4.292 1.111 4.514 1.796.567 1.749-3.464 5.897-10.843 8.71l-3.044-9.396c2.794-.753 5.506-1.166 7.882-1.166zm-19.932 6.995c2.066-1.754 4.948-3.355 8.24-4.608l3.047 9.407c-7.628 2.047-13.325 1.053-13.891-.697-.222-.684.327-2.17 2.604-4.102z"></path><path d="m99.961 61.402c.02-.397.039-.794.039-1.189 0-12.8-10.414-23.213-23.213-23.213-6.2 0-12.029 2.414-16.414 6.799l-6.029 6.029c-2.532-3.485-5.755-6.866-9.423-9.864-6.027-4.925-12.687-8.39-18.752-9.755-6.544-1.473-11.731-.351-14.603 3.162l-7.593 9.292c-5.677 6.947.08 20.728 13.107 31.373 2.494 2.037 5.09 3.813 7.74 5.317l-.02.02c-4.385 4.383-6.8 10.213-6.8 16.414 0 12.8 10.414 23.213 23.213 23.213 6.2 0 12.029-2.414 16.414-6.799l8.624-8.624c4.597 11.374 15.748 19.423 28.749 19.423 17.093 0 31-13.906 31-31 0-15.405-11.296-28.216-26.039-30.598zm-48.487-8.704-8.888 8.888-6.105 6.105c-2.618-1.31-5.195-2.928-7.694-4.823l15.127-18.511c2.95 2.598 5.523 5.441 7.56 8.341zm-36.811-16.796c3.506-4.292 14.648-2.809 26.146 5.932l-15.124 18.509c-4.819-4.238-8.578-9.033-10.659-13.67-2.066-4.6-2.198-8.526-.363-10.771zm4.947 35.036c-12.043-9.841-16.207-21.256-12.54-25.744l2.456-3.006c.27 1.912.881 3.965 1.85 6.122 2.547 5.672 7.269 11.508 13.296 16.433 2.846 2.325 5.815 4.294 8.844 5.913l-5.745 5.745c-2.792-1.496-5.534-3.316-8.161-5.463zm35.189 38.435c-3.63 3.629-8.455 5.627-13.586 5.627-10.594 0-19.213-8.619-19.213-19.213 0-5.133 1.999-9.958 5.627-13.586l16.373-16.373 20.525 20.525c-.339 1.832-.525 3.718-.525 5.647 0 2.513.308 4.955.875 7.296zm10.907-27.495-18.877-18.878 16.372-16.373c3.63-3.629 8.454-5.627 13.586-5.627 10.594 0 19.213 8.619 19.213 19.213 0 .27-.015.541-.027.812-.324-.01-.647-.025-.973-.025-13.549 0-25.088 8.741-29.294 20.878zm29.294 37.122c-5.535 0-10.684-1.676-14.972-4.545.063-1.88.447-3.722 1.121-5.455h8.851c12.131 0 22-9.869 22-22v-10c0-1.104-.896-2-2-2h-2c-16.542 0-30 13.458-30 30v1.218c-.787 1.668-1.35 3.434-1.67 5.258-5.128-4.917-8.33-11.827-8.33-19.476 0-14.888 12.112-27 27-27s27 12.112 27 27-12.112 27-27 27zm3.452-31.376c-.76-.802-2.025-.836-2.828-.076l-13.135 12.444c2.341-11.948 12.888-20.992 25.511-20.992v8c0 9.925-8.075 18-18 18h-6.621c.547-.725 1.139-1.419 1.804-2.05l13.192-12.498c.802-.76.836-2.025.077-2.828z"></path></g></g><g id="Cadaceus_Symbol"></g><g id="Test_Tube"></g><g id="Schedule_00000063601236324266969800000003231432406316557483_"></g><g id="Medicine_00000055681093969373596880000013934456668198088868_"></g><g id="Health"></g><g id="First_Aid_Kit"></g><g id="Drugs_00000169551332131357038490000003242399892492981133_"></g><g id="Schedule"></g><g id="Medicine"></g><g id="Pills"></g><g id="Band_aid"></g><g id="Syrup"></g><g id="Blood_Bag"></g><g id="Pestle"></g><g id="Nasal_Spray"></g><g id="Eye_Dropper"></g><g id="Drugs"></g><g id="Recipe"></g><g id="Inhaler"></g><g id="Ampoule"></g><g id="Ampoles"></g><g id="Medical_History"></g><g id="Syringe"></g><g id="Thermometer"></g><g id="Ointment"></g><g id="Hospital"></g></svg>