<svg xmlns="http://www.w3.org/2000/svg" id="Layer_1" data-name="Layer 1" viewBox="0 0 128 128"><title></title><path d="M6.73193,53.59912A1.9995,1.9995,0,0,0,9.1001,52.05176C14.56683,25.94678,37.675,7,64.0459,7,93.806,7,118.22137,30.58313,120.0882,60.27722l-.285-.433a2.00024,2.00024,0,0,0-3.34174,2.19922l3.93353,5.97607a2.00058,2.00058,0,0,0,3.3418,0l3.93353-5.97607a2.00024,2.00024,0,0,0-3.34174-2.19922l-.23578.35828C122.18213,28.33612,95.98676,3,64.0459,3,35.79224,3,11.03754,23.28418,5.18408,51.23145A2.00115,2.00115,0,0,0,6.73193,53.59912Z"></path><path d="M.90094,68.72656a1.99784,1.99784,0,0,0,2.77045-.5708l.23578-.35828C5.81787,99.66388,32.01324,125,63.9541,125c28.18335,0,52.92438-20.22314,58.82959-48.08643a1.9995,1.9995,0,1,0-3.91211-.8291C113.355,102.11035,90.25952,121,63.9541,121,34.194,121,9.77863,97.41687,7.9118,67.72278l.285.433a2.00024,2.00024,0,0,0,3.34174-2.19922L7.605,59.98047a2.00058,2.00058,0,0,0-3.3418,0L.32965,65.95654A1.99946,1.99946,0,0,0,.90094,68.72656Z"></path><path d="M42.00018,43.89014V98.10986a8.00915,8.00915,0,0,0,7.99994,8H77.99988a8.00915,8.00915,0,0,0,7.99994-8V43.89014a21.99982,21.99982,0,1,0-43.99963,0ZM64,94.10986a2,2,0,1,1,2-2A2.00229,2.00229,0,0,1,64,94.10986Zm17.99982,4a4.00422,4.00422,0,0,1-3.99994,4H66v-4.35a5.99994,5.99994,0,1,0-4,0v4.35H50.00012a4.00422,4.00422,0,0,1-3.99994-4v-18H81.99982Zm0-22H46.00018v-4H81.99982Zm-27.99976-8V43.89014a9.99994,9.99994,0,1,1,19.99988,0V68.10986ZM81.99982,43.89014V68.10986H77.99988V43.89014a13.99988,13.99988,0,1,0-27.99976,0V68.10986H46.00018V43.89014a17.99982,17.99982,0,1,1,35.99963,0Z"></path><path d="M108.99963,46a3.983,3.983,0,0,0-3.44525,2H100.2829a1.99969,1.99969,0,0,0-1.88184,1.32373L96.72137,54H91.99976a2,2,0,0,0,0,4h6.12787a1.99969,1.99969,0,0,0,1.88184-1.32373L101.68915,52h3.8653a3.99307,3.99307,0,1,0,3.44519-6Z"></path><path d="M91.99976,74h4.72162l1.67969,4.67627A1.99969,1.99969,0,0,0,100.2829,80h5.27148a4,4,0,1,0,0-4h-3.86523l-1.67969-4.67627A1.99969,1.99969,0,0,0,98.12762,70H91.99976a2,2,0,0,0,0,4Z"></path><path d="M91.99976,66h9.55469a4,4,0,1,0,0-4H91.99976a2,2,0,0,0,0,4Z"></path><path d="M36.00024,54H31.27863L29.598,49.32373A1.99969,1.99969,0,0,0,27.71613,48H22.44556a4.0001,4.0001,0,1,0-.00006,4h3.86438l1.68066,4.67627A1.99969,1.99969,0,0,0,29.87238,58h6.12787a2,2,0,1,0,0-4Z"></path><path d="M36.00024,70H29.87238a1.99969,1.99969,0,0,0-1.88184,1.32373L26.30988,76H22.44556a4,4,0,1,0,0,4h5.27057A1.99969,1.99969,0,0,0,29.598,78.67627L31.27863,74h4.72162a2,2,0,1,0,0-4Z"></path><path d="M36.00024,62H26.4455a4,4,0,1,0,0,4h9.55475a2,2,0,1,0,0-4Z"></path></svg>