<svg xmlns="http://www.w3.org/2000/svg" id="Layer_1" height="512" viewBox="0 0 66 66" width="512"><g><path d="m56.29 33.79c-.03-.02-.05-.06-.09-.08-.03-.02-.06-.02-.09-.03-2.16-1.23-4.61-1.99-7.23-2.15v-5.4c0-4.84-3.94-8.78-8.78-8.78h-1.66v-2.98h1.2c2.19 0 3.97-1.78 3.97-3.97v-5.19c0-2.19-1.78-3.97-3.97-3.97h-28.93c-2.19 0-3.97 1.78-3.97 3.97v5.18c0 2.19 1.78 3.97 3.97 3.97h1.2v2.98h-1.66c-4.84 0-8.78 3.94-8.78 8.78v29.85c0 4.84 3.94 8.78 8.78 8.78h29.85c1.12 0 2.21-.22 3.25-.64 1.44.41 2.96.64 4.53.64 9.17 0 16.63-7.47 16.63-16.64.01-6.1-3.3-11.43-8.22-14.32zm-26.49-21.42v-9.13h5.23v9.13zm-2 0h-5.23v-9.13h5.23zm-7.23 0h-5.23v-9.13h5.23zm21.06-7.16v5.18c0 1.09-.88 1.97-1.97 1.97h-2.62v-9.12h2.62c1.08 0 1.97.89 1.97 1.97zm-32.89 5.19v-5.19c0-1.09.89-1.97 1.97-1.97h2.62v9.13h-2.62c-1.09 0-1.97-.89-1.97-1.97zm1.52 52.36c-3.74 0-6.78-3.04-6.78-6.78v-.41h20.29c1.86 0 3.38-1.51 3.38-3.37v-22.29c0-1.86-1.52-3.38-3.38-3.38h-20.29v-.4c0-3.74 3.04-6.78 6.78-6.78h29.85c3.74 0 6.78 3.04 6.78 6.78v5.4c-8.71.52-15.63 7.75-15.63 16.58 0 6.32 3.54 11.83 8.74 14.64h-29.74zm-2.39-25.26h12.95c.52 0 .95.43.95.95 0 .53-.43.95-.95.95h-12.95c-.52 0-.95-.43-.95-.95 0-.53.42-.95.95-.95zm-.95-4.25c0-.53.43-.95.95-.95h12.95c.52 0 .95.43.95.95s-.43.95-.95.95h-12.95c-.53 0-.95-.42-.95-.95zm.95 9.45h12.95c.52 0 .95.43.95.95 0 .53-.43.95-.95.95h-12.95c-.52 0-.95-.43-.95-.95 0-.53.42-.95.95-.95zm0 5.2h12.95c.52 0 .95.43.95.95 0 .53-.43.95-.95.95h-12.95c-.52 0-.95-.43-.95-.95 0-.53.42-.95.95-.95zm48.18 12.36-.57-.99c-.28-.48-.89-.64-1.37-.37-.48.28-.64.89-.37 1.37l.57.98c-1.66.82-3.49 1.33-5.43 1.46v-1.14c0-.55-.45-1-1-1s-1 .45-1 1v1.14c-1.94-.13-3.77-.64-5.43-1.46l.57-.98c.28-.48.11-1.09-.37-1.37s-1.09-.11-1.37.37l-.57.99c-1.57-1.06-2.92-2.41-3.97-3.98l.99-.57c.48-.28.64-.89.37-1.37-.28-.48-.89-.64-1.37-.37l-.98.56c-.81-1.66-1.32-3.49-1.46-5.42h1.13c.55 0 1-.45 1-1s-.45-1-1-1h-1.12c.13-1.94.64-3.77 1.45-5.43l.98.57c.16.09.33.13.5.13.35 0 .68-.18.87-.5.28-.48.11-1.09-.37-1.37l-.99-.57c1.06-1.57 2.41-2.92 3.98-3.98l.57.99c.19.32.52.5.87.5.17 0 .34-.04.5-.13.48-.28.64-.89.37-1.37l-.57-.98c1.66-.82 3.49-1.32 5.43-1.46v1.13c0 .55.45 1 1 1s1-.45 1-1v-1.13c1.94.13 3.77.64 5.43 1.46l-.57.98c-.28.48-.11 1.09.37 1.37.16.09.33.13.5.13.35 0 .68-.18.87-.5l.57-.99c1.57 1.06 2.92 2.41 3.98 3.98l-.99.57c-.48.28-.64.89-.37 1.37.19.32.52.5.87.5.17 0 .34-.04.5-.13l.98-.57c.81 1.66 1.32 3.49 1.45 5.43h-1.13c-.55 0-1 .45-1 1s.45 1 1 1h1.13c-.13 1.94-.64 3.77-1.46 5.42l-.98-.56c-.48-.28-1.09-.11-1.37.37s-.11 1.09.37 1.37l.99.57c-1.06 1.57-2.41 2.92-3.98 3.98z"></path><path d="m53.26 47.12h-2.74c-.29-.75-.88-1.34-1.63-1.63v-5.14c0-.55-.45-1-1-1s-1 .45-1 1v5.14c-1.06.41-1.82 1.42-1.82 2.62 0 1.56 1.27 2.82 2.82 2.82 1.2 0 2.22-.76 2.63-1.82h2.74c.55 0 1-.45 1-1s-.45-.99-1-.99z"></path></g></svg>