<svg xmlns="http://www.w3.org/2000/svg" id="Layer_1" viewBox="0 0 512 512"><path d="m310.44 314.19c-22.15-18.54-51.22-30.71-85.37-35.96 31.68-15.1 53.63-47.44 53.63-84.81 0-23.32-8.55-44.68-22.68-61.12l25.29-21.44c1.59-1.35 2.37-3.43 2.05-5.49s-1.68-3.81-3.6-4.62l-18.14-7.64 31.51-27.04c2.51-2.16 2.8-5.95.64-8.46s-5.95-2.8-8.46-.65l-38.87 33.36c-1.58 1.35-2.34 3.43-2.02 5.48s1.68 3.79 3.6 4.6l18.08 7.61-18.48 15.67c-14.01-12.63-31.83-21.11-51.51-23.48l15.54-30.67c.94-1.86.85-4.08-.24-5.85-1.09-1.78-3.03-2.86-5.11-2.86h-19.68l18.54-37.15c1.48-2.96.28-6.57-2.69-8.05-2.96-1.48-6.57-.28-8.05 2.69l-22.87 45.83c-.93 1.86-.83 4.07.27 5.84 1.09 1.77 3.02 2.84 5.1 2.84h19.62l-13.54 26.74c-23.68.45-45.25 9.71-61.55 24.64l-19.07-16.17 18.08-7.61c1.92-.81 3.28-2.55 3.6-4.6s-.44-4.13-2.02-5.48l-38.87-33.37c-2.52-2.16-6.3-1.87-8.46.65-2.16 2.51-1.87 6.3.64 8.46l31.51 27.04-18.14 7.64c-1.92.81-3.29 2.56-3.6 4.62s.46 4.14 2.05 5.49l25.95 22c-13.84 16.36-22.2 37.5-22.2 60.56 0 37.37 21.95 69.71 53.63 84.81-34.15 5.25-63.22 17.41-85.37 35.96-28.49 23.83-44.18 57.5-44.18 94.79v82.01c0 3.31 2.69 6 6 6h327.62c3.31 0 6-2.69 6-6v-82.01c0-37.29-15.69-70.96-44.18-94.8zm-207.52-120.76c0-20.1 7.29-38.53 19.36-52.79l10.44 8.85c1.13.96 2.51 1.42 3.88 1.42 1.7 0 3.39-.72 4.58-2.12 2.14-2.53 1.83-6.31-.7-8.46l-9.78-8.29c12.54-11.07 28.47-18.37 46.03-20.1l-2.76 5.45c-1.5 2.96-.32 6.57 2.64 8.06.87.44 1.79.65 2.71.65 2.19 0 4.3-1.2 5.36-3.29l5.61-11.07c18.32 1.21 35.01 8.48 48.09 19.81l-10.36 8.78c-2.53 2.14-2.84 5.93-.7 8.46 1.19 1.4 2.88 2.12 4.58 2.12 1.37 0 2.75-.47 3.88-1.42l11.1-9.41c12.35 14.34 19.84 32.98 19.84 53.35 0 44.73-36.05 81.18-80.62 81.86-.42 0-.84-.01-1.27-.01s-.84.01-1.27.01c-44.59-.69-80.64-37.13-80.64-81.86zm239.7 291.57h-67.36v-67.93c0-3.31-2.69-6-6-6s-6 2.69-6 6v67.93h-156.9v-67.93c0-3.31-2.69-6-6-6s-6 2.69-6 6v67.93h-67.36v-76.01c0-72.27 62.51-121 155.77-121.7.68.01 1.36.03 2.04.03s1.36-.01 2.04-.03c93.26.7 155.77 49.43 155.77 121.7zm152.62-345.32-19.35 19.35c-1.17 1.17-2.71 1.76-4.24 1.76s-3.07-.59-4.24-1.76l-19.35-19.35c-2.34-2.34-2.34-6.14 0-8.49 2.34-2.34 6.14-2.34 8.48 0l9.11 9.11v-61.17c0-3.31 2.69-6 6-6s6 2.69 6 6v61.17l9.11-9.11c2.34-2.34 6.14-2.34 8.48 0 2.35 2.35 2.35 6.15 0 8.49zm-67.42 50.76h-11.87v-160.04c0-8.49-6.91-15.4-15.4-15.4h-41.32c-8.49 0-15.4 6.91-15.4 15.4v160.05h-11.87c-5.32 0-10.05 2.99-12.32 7.8-2.28 4.81-1.59 10.36 1.79 14.48l46.75 56.96c2.93 3.57 7.09 5.54 11.72 5.54 4.62 0 8.78-1.97 11.72-5.54l46.75-56.96c3.38-4.12 4.06-9.66 1.79-14.48s-7.01-7.81-12.34-7.81zm1.26 14.67-46.74 56.96c-.67.81-1.4 1.16-2.44 1.16s-1.78-.35-2.44-1.15l-46.75-56.96c-.45-.54-.51-1.1-.21-1.73.3-.64.77-.93 1.48-.93h17.87c3.31 0 6-2.69 6-6v-166.06c0-1.87 1.52-3.4 3.4-3.4h41.32c1.87 0 3.4 1.52 3.4 3.4v166.05c0 3.31 2.69 6 6 6h17.87c.71 0 1.17.3 1.47.93s.22 1.19-.23 1.73z"></path></svg>