<svg xmlns="http://www.w3.org/2000/svg" id="Layer_1" height="512" viewBox="0 0 68 68" width="512"><g><g><g><g><g><path d="m35.8158455 40.1772461c-.0078125 0-.015625 0-.0244141-.0004883-.1835938-.0087891-.3466797-.1176758-.4267578-.2836914l-9.3701191-19.5600586c-.3369141-.7036133-.96875-1.1474609-1.7353516-1.2177734-.1914063-.0175781-.3564453-.144043-.4228516-.324707-.0673828-.1806641-.0244141-.3837891.1103516-.5219727 2.6660156-2.7416992 6.234375-4.2514648 10.04883-4.2514648 7.7304688 0 14.0195313 6.2895508 14.0195313 14.0200195 0 .7373047-.0595703 1.4873047-.1757813 2.2280273-.0332031.2075195-.1914063.3720703-.3974609.4130859-.2041016.0415039-.4140625-.0517578-.5234375-.230957l-.6201172-1.0200195c-.3974609-.6577148-1.0898438-1.0498047-1.8525391-1.0498047-.7626953 0-1.4550781.3920898-1.8525391 1.0488281l-6.3496094 10.5097656c-.0908201.1499024-.2529295.241211-.4277342.241211zm-10.5205097-21.8208008c.6923828.2949219 1.2617188.8344727 1.6015625 1.5449219l8.9697285 18.7246094 5.8710938-9.7172852c.5800781-.9589844 1.5917969-1.53125 2.7080078-1.53125h.0009766c1.0224609 0 1.9580078.480957 2.5527344 1.2998047.0107422-.2143555.015625-.4277344.015625-.6401367 0-7.1791992-5.8408203-13.0200195-13.0195313-13.0200195-3.2480489-.0000001-6.3056661 1.1796874-8.7001973 3.3393554z"></path></g><g><path d="m26.9857655 21.7470703c-.125 0-.2509766-.046875-.3476563-.140625-.1982422-.1918945-.2041016-.5083008-.0117188-.7070313 1.9472656-2.0131836 4.5644531-3.1220703 7.3691425-3.1220703.2763672 0 .5.2236328.5.5s-.2236328.5-.5.5c-2.5312519 0-4.8935566 1.0004883-6.6503925 2.8173828-.0976562.1015626-.2285156.1523438-.3593749.1523438z"></path></g><g><g><path d="m33.9984627 12.8037109c-.2763672 0-.5-.2236328-.5-.5v-2.6845703c0-.2763672.2236328-.5.5-.5s.5.2236328.5.5v2.6845703c0 .2763672-.2236328.5-.5.5z"></path></g></g><g><g><path d="m26.134203 14.9106445c-.171875 0-.3408203-.0893555-.4326172-.25l-1.3417969-2.3242188c-.1386719-.2392578-.0566406-.5449219.1826172-.6831055.2382813-.1386719.5449219-.0571289.6826172.1831055l1.3417969 2.3242188c.1386719.2392578.0566406.5449219-.1826172.6831055-.0791016.0454102-.1650391.0668945-.25.0668945z"></path></g></g><g><g><path d="m20.377367 20.6679688c-.0849609 0-.1708984-.0214844-.25-.0668945l-2.3251953-1.3422852c-.2392578-.1381836-.3212891-.4438477-.1826172-.6831055.1367188-.2382813.4433594-.3198242.6826172-.1831055l2.3251953 1.3422852c.2392578.1381836.3212891.4438477.1826172.6831055-.0917969.1601562-.2607422.25-.4326172.25z"></path></g></g><g><g><path d="m17.8558826 28.5371094h-2.2705069c-.2763672 0-.5-.2236328-.5-.5s.2236328-.5.5-.5h2.2705069c.2763672 0 .5.2236328.5.5s-.2236328.5-.5.5z"></path></g><g><path d="m52.4115486 28.5322266h-2.6845703c-.2763672 0-.5-.2236328-.5-.5s.2236328-.5.5-.5h2.6845703c.2763672 0 .5.2236328.5.5s-.2236328.5-.5.5z"></path></g></g><g><g><path d="m47.620533 20.6679688c-.171875 0-.3408203-.0893555-.4326172-.25-.1386719-.2392578-.0566406-.5449219.1826172-.6831055l2.3242188-1.3422852c.2382813-.1381836.5449219-.0576172.6826172.1831055.1386719.2392578.0566406.5449219-.1826172.6831055l-2.3242188 1.3422852c-.0791016.0454101-.1650391.0668945-.25.0668945z"></path></g></g><g><g><path d="m41.8627205 14.9106445c-.0849609 0-.1708984-.0214844-.25-.0668945-.2392578-.1381836-.3212891-.4443359-.1826172-.6831055l1.3427734-2.3242188c.1396484-.2397461.4443359-.3203125.6826172-.1831055.2392578.1381836.3212891.4443359.1826172.6831055l-1.3427734 2.3242188c-.0927735.1606446-.2607422.25-.4326172.25z"></path></g></g></g></g></g><g><path d="m63.3158455 64.9174805h-19.9101563c-.2763672 0-.5-.2236328-.5-.5s.2236328-.5.5-.5c.7460938 0 1.4306641-.3774414 1.8300781-1.0102539.4013672-.6352539.4492188-1.418457.1279297-2.0957031l-10.0097656-20.9082032c-.0722656-.1518555-.0634766-.3300781.0234375-.4746094l6.3603516-10.5200195c.5800781-.9589844 1.5917969-1.53125 2.7080078-1.53125h.0009766c1.1152344 0 2.1269531.5727539 2.7060547 1.5317383l18.8701134 31.2094727c.5976563.987793.6142578 2.1791992.0458984 3.1879883-.569336 1.008789-1.5976563 1.6108398-2.7529259 1.6108398zm-17.6015625-1h17.6015625c.7890587 0 1.4921837-.4121094 1.8818321-1.1020508.3886719-.6899414.3779297-1.5043945-.0302734-2.1791992l-18.8701134-31.209961c-.3964844-.6567383-1.0888672-1.0488281-1.8515625-1.0488281-.7626953 0-1.4550781.3920898-1.8525391 1.0488281l-6.2207031 10.2890625 9.8945313 20.6660156c.4697266.9902344.4003906 2.1337891-.1855469 3.0605469-.109375.171875-.2324219.3305664-.3671875.475586z"></path></g><g><path d="m43.4095955 64.9140625h-38.72754c-1.0927734 0-2.09375-.5522461-2.6757813-1.4765625-.5830078-.9248047-.6494141-2.0654297-.1777344-3.0517578l19.3632813-40.4868164c.53125-1.109375 1.6240234-1.7983398 2.8544922-1.7983398 1.2294922 0 2.3222656.6889648 2.8535156 1.7983398l19.3632832 40.4868164c.4716797.9863281.4052734 2.1269531-.1777344 3.0517578-.5820322.9248047-1.5830088 1.4765625-2.6757822 1.4765625zm-19.3632832-45.8134766c-.8544922 0-1.5839844.4594727-1.9521484 1.2299805l-19.3632803 40.4868164c-.3222656.6743164-.2773438 1.4545898.1210938 2.0869141s1.0830078 1.0097656 1.8300781 1.0097656h38.7275391c.7480469 0 1.4316406-.3774414 1.8300781-1.0097656s.4443359-1.4125977.1210938-2.0869141l-19.3632823-40.4868164c-.3681641-.7705078-1.0976562-1.2299805-1.9511719-1.2299805z"></path></g><g><path d="m24.0463123 36.7036133c-3.0576172 0-6.1142578-.8520508-9.1503897-2.5566406-.2294922-.1289063-.3193359-.4140625-.2060547-.6518555l6.5029287-13.5961914c.5302734-1.1088867 1.6230469-1.7983398 2.8525391-1.7983398h.0009766c1.2294922 0 2.3222656.6889648 2.8535156 1.7983398l6.5029316 13.5961914c.1132813.237793.0234375.5229492-.2060547.6518555-3.0361347 1.7041015-6.0937518 2.5566406-9.1503925 2.5566406zm-8.249999-3.2036133c5.4746084 2.9257813 11.0214834 2.9267578 16.5 0l-6.29883-13.1694336c-.3681641-.7700195-1.0976563-1.2299805-1.9511719-1.2299805-.0009766 0-.0009766 0-.0009766 0-.8535156 0-1.5820313.4599609-1.9501953 1.2299805z"></path></g><g><path d="m44.4418221 40.3935547c-2.6259766 0-5.2509766-.6289063-7.859375-1.8876953-.1269531-.0610352-.2226563-.1728516-.2626953-.3076172-.0400391-.1352539-.0214844-.2807617.0517578-.4008789l5.3701172-8.8896484c.5712891-.9560547 1.5800781-1.5292969 2.6962891-1.5317383h.0078125c1.1181641 0 2.1308594.5717773 2.7109375 1.53125l5.3701172 8.8798828c.0732422.1206055.0917969.2661133.0517578.4008789s-.1347656.246582-.2617188.3081055c-2.6113282 1.2651367-5.2431641 1.8974609-7.875 1.8974609zm-6.9267579-2.5556641c4.6064453 2.0712891 9.2675781 2.0688477 13.8681641-.0092773l-5.0820313-8.4038086c-.3974609-.6572266-1.0908203-1.0488281-1.8564453-1.0488281-.0009766 0-.0029297 0-.0048828 0-.7617188.0014648-1.4501953.3930664-1.8417969 1.046875z"></path></g><g><path d="m17.2982655 13.3886719h-15.0996085c-.1435547 0-.2792969-.0615234-.3740234-.168457-.0957031-.1074219-.1396484-.25-.1220703-.3920898.2470703-2.0307617 1.9697266-3.5620117 4.0048828-3.5620117.7978516 0 1.5791016.2421875 2.2392578.6811523.4082031-1.09375 1.4589844-1.8618164 2.6914063-1.8618164 1.2529297 0 2.3330078.8046875 2.7167969 1.9477539.265625-.0625.5419922-.09375.8251953-.09375 1.7109375 0 3.1923819 1.1635742 3.6035147 2.8295898.0371094.1489258.0029297.3071289-.0917969.4277344-.0947266.1210937-.2402344.1918945-.3935547.1918945zm-14.4814444-1h13.7607412c-.4609375-.8774414-1.3730459-1.4492188-2.39746-1.4492188-.3535156 0-.6884766.0664063-.9941406.1977539-.1464844.0634766-.3125.0517578-.4482422-.0268555-.1367188-.0795898-.2275391-.21875-.2460938-.3759766-.1074219-.9399414-.9042969-1.6489258-1.8535156-1.6489258-1.0087891 0-1.8310547.7900391-1.8720703 1.7988281-.0087891.2001953-.1357422.3764648-.3232422.4472656-.1875.0703125-.3994141.0224609-.5380859-.1225586-.5722656-.5991211-1.3730469-.9428711-2.1972656-.9428711-1.3369141.0000002-2.4951172.8803713-2.890625 2.1225588z"></path></g><g><path d="m65.4027557 8.3862305h-15.0996055c-.1435547 0-.2792969-.0615234-.3740234-.168457-.0957031-.1074219-.1396484-.25-.1220703-.3920898.2470703-2.0307617 1.9697266-3.5625 4.0058594-3.5625.7988281 0 1.5800781.2421875 2.2382813.6811523.4091797-1.09375 1.4599609-1.8618164 2.6914063-1.8618164 1.2529297 0 2.3339844.8046875 2.7177734 1.9477539.265625-.0625.5410156-.09375.8242188-.09375 1.7119141 0 3.1943321 1.1640625 3.6035118 2.8300781.0371094.1494141.0029297.3071289-.0917969.4282227-.0947267.1206054-.2402346.1914062-.3935549.1914062zm-14.4814415-1h13.7617149c-.4609375-.8774414-1.3730431-1.449707-2.3984337-1.449707-.3525391 0-.6875.0664063-.9931641.1977539-.1464844.0629883-.3115234.0507813-.4482422-.0268555-.1367188-.0795898-.2275391-.21875-.2460938-.3759766-.1074219-.9399414-.9042969-1.6489258-1.8544922-1.6489258-1.0078125 0-1.8310547.7905273-1.8720703 1.7993164-.0087891.2006836-.1357422.3769531-.3242188.4472656-.1845703.0708008-.3984375.0229492-.5380859-.1230469-.5703125-.5991211-1.3710938-.9428711-2.1953125-.9428711-1.3378904.0000001-2.495117.8803712-2.8916014 2.123047z"></path></g></g></svg>