<svg xmlns="http://www.w3.org/2000/svg" xmlns:xlink="http://www.w3.org/1999/xlink" id="Capa_1" x="0px" y="0px" viewBox="0 0 512 512" style="enable-background:new 0 0 512 512;" xml:space="preserve"><g>	<g>		<path style="fill:none;stroke:#000000;stroke-width:15;stroke-linecap:round;stroke-linejoin:round;stroke-miterlimit:10;" d="&#10;&#9;&#9;&#9;M35.01,270.08c-2.15-12.45-3.27-25.26-3.27-38.32c0-13.07,1.12-25.88,3.27-38.33"></path>		<path style="fill:none;stroke:#000000;stroke-width:15;stroke-linecap:round;stroke-linejoin:round;stroke-miterlimit:10;" d="&#10;&#9;&#9;&#9;M476.99,193.43c2.15,12.45,3.27,25.26,3.27,38.33c0,13.06-1.12,25.87-3.27,38.32"></path>		<path style="fill:none;stroke:#000000;stroke-width:15;stroke-linecap:round;stroke-linejoin:round;stroke-miterlimit:10;" d="&#10;&#9;&#9;&#9;M112.34,59.55C151.25,27.06,201.35,7.5,256,7.5s104.75,19.56,143.66,52.05"></path>		<path style="fill:none;stroke:#000000;stroke-width:15;stroke-linecap:round;stroke-linejoin:round;stroke-miterlimit:10;" d="&#10;&#9;&#9;&#9;M428.21,88.1c16.34,19.56,29.41,41.95,38.36,66.33"></path>		<path style="fill:none;stroke:#000000;stroke-width:15;stroke-linecap:round;stroke-linejoin:round;stroke-miterlimit:10;" d="&#10;&#9;&#9;&#9;M45.43,309.08C61.24,352.13,89.87,388.97,126.7,415"></path>		<path style="fill:none;stroke:#000000;stroke-width:15;stroke-linecap:round;stroke-linejoin:round;stroke-miterlimit:10;" d="&#10;&#9;&#9;&#9;M385.3,415c36.83-26.03,65.46-62.87,81.27-105.92"></path>		<path style="fill:none;stroke:#000000;stroke-width:15;stroke-linecap:round;stroke-linejoin:round;stroke-miterlimit:10;" d="&#10;&#9;&#9;&#9;M45.43,154.43c8.95-24.38,22.02-46.77,38.36-66.33"></path>		<path style="fill:none;stroke:#000000;stroke-width:15;stroke-linecap:round;stroke-linejoin:round;stroke-miterlimit:10;" d="&#10;&#9;&#9;&#9;M133.38,211.62c3.14-19.3,10.73-37.11,21.68-52.33"></path>		<path style="fill:none;stroke:#000000;stroke-width:15;stroke-linecap:round;stroke-linejoin:round;stroke-miterlimit:10;" d="&#10;&#9;&#9;&#9;M356.94,304.22c10.95-15.23,18.54-33.03,21.68-52.33"></path>		<path style="fill:none;stroke:#000000;stroke-width:15;stroke-linecap:round;stroke-linejoin:round;stroke-miterlimit:10;" d="&#10;&#9;&#9;&#9;M133.38,251.89c9.61,59.05,60.85,104.12,122.62,104.12c27.04,0,52.06-8.64,72.46-23.31"></path>		<path style="fill:none;stroke:#000000;stroke-width:15;stroke-linecap:round;stroke-linejoin:round;stroke-miterlimit:10;" d="&#10;&#9;&#9;&#9;M183.54,130.82c20.4-14.67,45.42-23.31,72.46-23.31c61.77,0,113.01,45.06,122.62,104.11"></path>		<path style="fill:none;stroke:#000000;stroke-width:15;stroke-linecap:round;stroke-linejoin:round;stroke-miterlimit:10;" d="&#10;&#9;&#9;&#9;M238.21,189.91c5.46-2.32,11.48-3.61,17.79-3.61c25.11,0,45.46,20.35,45.46,45.46c0,25.1-20.35,45.45-45.46,45.45&#10;&#9;&#9;&#9;s-45.46-20.35-45.46-45.45c0-6.01,1.17-11.75,3.28-17"></path>					<line style="fill:none;stroke:#000000;stroke-width:15;stroke-linecap:round;stroke-linejoin:round;stroke-miterlimit:10;" x1="256" y1="504.5" x2="320.65" y2="439.85"></line>					<line style="fill:none;stroke:#000000;stroke-width:15;stroke-linecap:round;stroke-linejoin:round;stroke-miterlimit:10;" x1="256" y1="504.5" x2="191.35" y2="439.85"></line>		<path style="fill:none;stroke:#000000;stroke-width:15;stroke-linecap:round;stroke-linejoin:round;stroke-miterlimit:10;" d="&#10;&#9;&#9;&#9;M377.78,457.75c4.83-10.35,7.52-21.89,7.52-34.06V375.2h-48.49c-44.63,0-80.81,36.18-80.81,80.81v48.49h48.49&#10;&#9;&#9;&#9;c19.79,0,37.92-7.11,51.97-18.93"></path>		<path style="fill:none;stroke:#000000;stroke-width:15;stroke-linecap:round;stroke-linejoin:round;stroke-miterlimit:10;" d="&#10;&#9;&#9;&#9;M183.35,375.61c40.8,4.09,72.65,38.53,72.65,80.4v48.49h-48.49c-44.63,0-80.81-36.18-80.81-80.81V375.2h21.56"></path>					<circle style="fill:none;stroke:#000000;stroke-width:15;stroke-linecap:round;stroke-linejoin:round;stroke-miterlimit:10;" cx="168.142" cy="143.898" r="20.203"></circle>					<circle style="fill:none;stroke:#000000;stroke-width:15;stroke-linecap:round;stroke-linejoin:round;stroke-miterlimit:10;" cx="97.427" cy="73.183" r="20.203"></circle>					<circle style="fill:none;stroke:#000000;stroke-width:15;stroke-linecap:round;stroke-linejoin:round;stroke-miterlimit:10;" cx="39.385" cy="173.714" r="20.203"></circle>					<circle style="fill:none;stroke:#000000;stroke-width:15;stroke-linecap:round;stroke-linejoin:round;stroke-miterlimit:10;" cx="39.385" cy="289.798" r="20.203"></circle>					<circle style="fill:none;stroke:#000000;stroke-width:15;stroke-linecap:round;stroke-linejoin:round;stroke-miterlimit:10;" cx="414.573" cy="73.183" r="20.203"></circle>					<circle style="fill:none;stroke:#000000;stroke-width:15;stroke-linecap:round;stroke-linejoin:round;stroke-miterlimit:10;" cx="472.615" cy="173.714" r="20.203"></circle>					<circle style="fill:none;stroke:#000000;stroke-width:15;stroke-linecap:round;stroke-linejoin:round;stroke-miterlimit:10;" cx="472.615" cy="289.798" r="20.203"></circle>					<circle style="fill:none;stroke:#000000;stroke-width:15;stroke-linecap:round;stroke-linejoin:round;stroke-miterlimit:10;" cx="131.75" cy="231.756" r="20.203"></circle>					<circle style="fill:none;stroke:#000000;stroke-width:15;stroke-linecap:round;stroke-linejoin:round;stroke-miterlimit:10;" cx="343.858" cy="319.614" r="20.203"></circle>					<circle style="fill:none;stroke:#000000;stroke-width:15;stroke-linecap:round;stroke-linejoin:round;stroke-miterlimit:10;" cx="380.25" cy="231.756" r="20.203"></circle>	</g></g><g></g><g></g><g></g><g></g><g></g><g></g><g></g><g></g><g></g><g></g><g></g><g></g><g></g><g></g><g></g></svg>