<svg xmlns="http://www.w3.org/2000/svg" xmlns:svg="http://www.w3.org/2000/svg" id="svg2682" xml:space="preserve" width="682.66669" height="682.66669" viewBox="0 0 682.66669 682.66669"><defs id="defs2686"><clipPath clipPathUnits="userSpaceOnUse" id="clipPath2696"><path d="M 0,512 H 512 V 0 H 0 Z" id="path2694"></path></clipPath></defs><g id="g2688" transform="matrix(1.3333333,0,0,-1.3333333,0,682.66667)"><g id="g2690"><g id="g2692" clip-path="url(#clipPath2696)"><g id="g2698" transform="translate(339.6479,462.6387)"><path d="m 0,0 c -23.174,17.788 -52.176,28.361 -83.648,28.361 -75.939,0 -137.5,-61.56 -137.5,-137.5 0,-51.862 28.713,-97.019 71.11,-120.439" style="fill:none;stroke:#000000;stroke-width:15;stroke-linecap:round;stroke-linejoin:round;stroke-miterlimit:10;stroke-dasharray:none;stroke-opacity:1" id="path2700"></path></g><g id="g2702" transform="translate(334.7974,240.8037)"><path d="m 0,0 c 35.495,24.863 58.703,66.069 58.703,112.696 0,31.846 -10.827,61.163 -28.999,84.472" style="fill:none;stroke:#000000;stroke-width:15;stroke-linecap:round;stroke-linejoin:round;stroke-miterlimit:10;stroke-dasharray:none;stroke-opacity:1" id="path2704"></path></g><g id="g2706" transform="translate(204.5078,297.9258)"><path d="M 0,0 C 0,-10.452 9.833,-18.926 34.068,-18.926 H 91.5 109.32 c 6.929,0 12.546,5.617 12.546,12.546 0,6.929 -5.617,12.546 -12.546,12.546 h -10.957 19.3 c 7.777,0 14.082,6.305 14.082,14.082 0,7.777 -6.305,14.082 -14.082,14.082 h -19.3 22.976 c 7.777,0 14.082,6.305 14.082,14.082 0,7.777 -6.305,14.082 -14.082,14.082 h -22.976 19.3 c 7.777,0 14.082,6.305 14.082,14.082 0,7.778 -6.305,14.082 -14.082,14.082 H 86.174 c -14.755,0 -25.476,13.239 -22.757,27.812 l 3.327,17.834 c 2.054,11.015 -3.457,22.055 -13.473,26.985 -4.134,2.036 -9.107,-0.045 -10.582,-4.428 L 27.363,110.342 C 22.642,97.229 12.563,83.896 -0.13,77.341" style="fill:none;stroke:#000000;stroke-width:15;stroke-linecap:round;stroke-linejoin:round;stroke-miterlimit:10;stroke-dasharray:none;stroke-opacity:1" id="path2708"></path></g><g id="g2710" transform="translate(172.0713,345.2764)"><path d="m 0,0 v 33.469 c 0,5.433 4.405,9.839 9.838,9.839 h 12.629 c 5.434,0 9.839,-4.406 9.839,-9.839 v -89.907 c 0,-5.433 -4.405,-9.838 -9.839,-9.838 H 9.838 C 4.405,-66.276 0,-61.871 0,-56.438 V -35" style="fill:none;stroke:#000000;stroke-width:15;stroke-linecap:round;stroke-linejoin:round;stroke-miterlimit:10;stroke-dasharray:none;stroke-opacity:1" id="path2712"></path></g><g id="g2714" transform="translate(270.4272,219.7578)"><path d="m 0,0 c -25.645,31.684 -65.18,36.242 -65.18,36.242 0,0 -14.194,-15.998 -21.771,-40.169" style="fill:none;stroke:#000000;stroke-width:15;stroke-linecap:round;stroke-linejoin:round;stroke-miterlimit:10;stroke-dasharray:none;stroke-opacity:1" id="path2716"></path></g><g id="g2718" transform="translate(348.895,203.8896)"><path d="m 0,0 c -4.516,21.827 -14.639,36.609 -14.639,36.609 0,0 -60.829,0.701 -88.313,-48.987 -0.93,-1.683 -1.792,-3.367 -2.588,-5.052" style="fill:none;stroke:#000000;stroke-width:15;stroke-linecap:round;stroke-linejoin:round;stroke-miterlimit:10;stroke-dasharray:none;stroke-opacity:1" id="path2720"></path></g><g id="g2722" transform="translate(369.7852,178.6592)"><path d="m 0,0 c -1.357,14.051 -5.553,23.744 -5.553,23.744 0,0 -48.133,9.933 -77.588,-25.235 -15.735,-18.787 -17.892,-40.598 -16.488,-56.841" style="fill:none;stroke:#000000;stroke-width:15;stroke-linecap:round;stroke-linejoin:round;stroke-miterlimit:10;stroke-dasharray:none;stroke-opacity:1" id="path2724"></path></g><g id="g2726" transform="translate(474.9429,120.3506)"><path d="m 0,0 c 20.72,38.148 -3.581,75.021 -3.581,75.021 0,0 -31.831,0.908 -54.927,-20.202" style="fill:none;stroke:#000000;stroke-width:15;stroke-linecap:round;stroke-linejoin:round;stroke-miterlimit:10;stroke-dasharray:none;stroke-opacity:1" id="path2728"></path></g><g id="g2730" transform="translate(29.5898,154.8291)"><path d="m 0,0 c 1.458,-10.472 4.822,-21.374 11.033,-32.149 0.414,-0.72 0.836,-1.428 1.263,-2.126" style="fill:none;stroke:#000000;stroke-width:15;stroke-linecap:round;stroke-linejoin:round;stroke-miterlimit:10;stroke-dasharray:none;stroke-opacity:1" id="path2732"></path></g><g id="g2734" transform="translate(117.6753,198.6523)"><path d="m 0,0 c -31.332,29.191 -73.466,26.658 -73.466,26.658 0,0 -8.959,-14.571 -13.262,-35.657" style="fill:none;stroke:#000000;stroke-width:15;stroke-linecap:round;stroke-linejoin:round;stroke-miterlimit:10;stroke-dasharray:none;stroke-opacity:1" id="path2736"></path></g><g id="g2738" transform="translate(269.7651,128.0732)"><path d="m 0,0 c -4.51,49.378 -45.958,88.053 -96.424,88.053 -53.001,0 -96.056,-42.658 -96.821,-95.573" style="fill:none;stroke:#000000;stroke-width:15;stroke-linecap:round;stroke-linejoin:round;stroke-miterlimit:10;stroke-dasharray:none;stroke-opacity:1" id="path2740"></path></g><g id="g2742" transform="translate(237.8794,120.5537)"><path d="M 0,0 C -0.761,35.055 -29.364,63.237 -64.539,63.237 -99.712,63.237 -128.316,35.055 -129.077,0" style="fill:none;stroke:#000000;stroke-width:15;stroke-linecap:round;stroke-linejoin:round;stroke-miterlimit:10;stroke-dasharray:none;stroke-opacity:1" id="path2744"></path></g><g id="g2746" transform="translate(173.3408,161.6953)"><path d="M 0,0 V 21.557" style="fill:none;stroke:#000000;stroke-width:15;stroke-linecap:round;stroke-linejoin:round;stroke-miterlimit:10;stroke-dasharray:none;stroke-opacity:1" id="path2748"></path></g><g id="g2750" transform="translate(206.1558,151.4561)"><path d="M 0,0 12.911,12.935" style="fill:none;stroke:#000000;stroke-width:15;stroke-linecap:round;stroke-linejoin:round;stroke-miterlimit:10;stroke-dasharray:none;stroke-opacity:1" id="path2752"></path></g><g id="g2754" transform="translate(141.6021,151.4561)"><path d="M 0,0 -13.449,13.474" style="fill:none;stroke:#000000;stroke-width:15;stroke-linecap:round;stroke-linejoin:round;stroke-miterlimit:10;stroke-dasharray:none;stroke-opacity:1" id="path2756"></path></g><g id="g2758" transform="translate(415.6851,120.3242)"><path d="M 0,0 C 10.761,28.767 4.593,62.442 -18.504,85.58 L -103.927,0.003" style="fill:none;stroke:#000000;stroke-width:15;stroke-linecap:round;stroke-linejoin:round;stroke-miterlimit:10;stroke-dasharray:none;stroke-opacity:1" id="path2760"></path></g><g id="g2762" transform="translate(368.7944,120.3066)"><path d="M 0,0 C 15.562,15.744 15.566,41.113 0.012,56.861" style="fill:none;stroke:#000000;stroke-width:15;stroke-linecap:round;stroke-linejoin:round;stroke-miterlimit:10;stroke-dasharray:none;stroke-opacity:1" id="path2764"></path></g><g id="g2766" transform="translate(425.8647,21)"><path d="m 0,0 h -339.729 c -43.43,0 -78.636,35.206 -78.636,78.636 v 11.328 c 0,5.124 4.154,9.277 9.278,9.277 H 69.357 c 5.124,0 9.278,-4.153 9.278,-9.277 V 78.636 C 78.635,35.206 43.429,0 0,0 Z" style="fill:none;stroke:#000000;stroke-width:15;stroke-linecap:round;stroke-linejoin:round;stroke-miterlimit:10;stroke-dasharray:none;stroke-opacity:1" id="path2768"></path></g><g id="g2770" transform="translate(369.7974,67.584)"><path d="M 0,0 H 126.203" style="fill:none;stroke:#000000;stroke-width:15;stroke-linecap:round;stroke-linejoin:round;stroke-miterlimit:10;stroke-dasharray:none;stroke-opacity:1" id="path2772"></path></g><g id="g2774" transform="translate(16,67.584)"><path d="M 0,0 H 318.797" style="fill:none;stroke:#000000;stroke-width:15;stroke-linecap:round;stroke-linejoin:round;stroke-miterlimit:10;stroke-dasharray:none;stroke-opacity:1" id="path2776"></path></g></g></g></g></svg>