<svg xmlns="http://www.w3.org/2000/svg" id="Capa_1" height="512" viewBox="0 0 512 512" width="512"><g><path d="m487.861 31.089c-12.307.022-21.921 10.886-21.921 23.441v46.16c0 4.428-3.607 8.029-8.04 8.029h-8.026v-70.155c0-4.143-3.358-7.5-7.5-7.5s-7.5 3.357-7.5 7.5v70.155h-8.034c-4.428 0-8.03-3.602-8.03-8.029v-46.16c0-12.556-9.629-22.853-21.928-23.442-14.615.78-22.659 8.45-24.132 23.012v28.189c-34.552-23.397-74.678-35.689-116.94-35.689-44.107 0-85.805 13.353-121.3 38.729-10.132-31.732-35.395-54.269-64.88-54.269-38.394 0-69.63 38.203-69.63 85.16 0 32.454 14.706 61.635 38.378 76.153 4.537 2.784 7.271 7.949 7.134 13.479l-1.74 69.53c-.104 4.141 3.169 7.582 7.31 7.686.064.001.127.002.191.002 4.055 0 7.392-3.235 7.494-7.312l1.74-69.532c.269-10.86-5.206-21.067-14.286-26.639-18.966-11.632-31.221-36.505-31.221-63.367 0-38.687 24.507-70.16 54.63-70.16 25.591 0 47.128 22.725 53.024 53.29.018.109.039.219.063.327 1.002 5.306 1.534 10.847 1.534 16.543 0 26.862-12.255 51.735-31.222 63.368-9.08 5.57-14.554 15.777-14.286 26.64l6.098 244.038c.001.122.004.246.007.371l.002.094c0 8.387-6.828 15.21-15.22 15.21-9.457-.926-14.531-6.127-15.222-15.603l3.55-141.9c.104-4.141-3.169-7.582-7.31-7.686-4.146-.091-7.581 3.169-7.685 7.311l-3.55 141.899c-.421 16.774 13.44 30.979 30.217 30.979 16.664 0 30.22-13.552 30.22-30.21 0-.16-.003-.324-.008-.488l-.002-.092c0-.062-.001-.125-.002-.188l-1.407-56.308c39.5 45.055 96.808 71.376 157.38 71.376 60.794 0 118.242-26.477 157.77-71.802l-1.418 56.733c-.421 16.772 13.429 30.979 30.208 30.979 16.669 0 30.23-13.552 30.23-30.21 0-.16-.003-.324-.008-.488l-.002-.092c0-.062-.001-.125-.002-.188l-3.65-145.881c-.103-4.141-3.523-7.399-7.685-7.311-4.141.104-7.414 3.545-7.31 7.686l3.648 145.809c.001.122.004.247.007.371l.002.094c0 8.387-6.832 15.21-15.23 15.21-9.454-.927-14.525-6.127-15.212-15.603l6.1-244.112c.269-10.86-5.206-21.067-14.286-26.639-18.966-11.632-31.221-36.505-31.221-63.367v-62.12c.513-5.083 3.32-7.759 8.42-8.028 4.212.202 7.64 3.997 7.64 8.459v46.16c0 12.698 10.331 23.029 23.03 23.029h31.06c12.704 0 23.04-10.331 23.04-23.029v-46.161c0-4.463 3.427-8.257 7.633-8.458 5.105.266 7.914 2.942 8.427 8.027v62.12c0 26.862-12.255 51.735-31.222 63.368-9.08 5.57-14.554 15.777-14.286 26.64l1.64 65.55c.102 4.077 3.438 7.312 7.494 7.312.063 0 .127-.001.191-.002 4.141-.104 7.414-3.545 7.31-7.686l-1.64-65.548c-.137-5.532 2.597-10.697 7.134-13.48 23.672-14.52 38.378-43.7 38.378-76.154v-62.119c-.001-10.433-7.503-23.04-24.14-23.011zm-76.733 161.284c4.537 2.784 7.271 7.949 7.134 13.479l-4.058 162.389c-36.457 51.256-95.498 81.789-158.395 81.789-62.653 0-121.547-30.338-158.002-81.271l-4.071-162.905c-.137-5.532 2.597-10.697 7.134-13.48 29.992-18.396 42.161-57.691 37.304-91.104 34.008-25.97 74.584-39.67 117.636-39.67 42.704 0 83.056 13.517 116.94 39.131-1.097 34.542 6.441 72.054 38.378 91.642z"></path><path d="m273.229 109.742c-4.106-.486-7.841 2.456-8.327 6.569-.485 4.113 2.456 7.842 6.569 8.327 66.381 7.835 116.439 64.227 116.439 131.171 0 72.841-59.26 132.101-132.1 132.101-72.834 0-132.09-59.26-132.09-132.101 0-67.141 50.216-123.553 116.808-131.219 4.115-.474 7.066-4.194 6.593-8.309-.474-4.116-4.188-7.061-8.309-6.594-74.165 8.539-130.092 71.356-130.092 146.121 0 81.111 65.984 147.101 147.09 147.101 81.111 0 147.1-65.989 147.1-147.101 0-74.544-55.75-137.339-129.681-146.066z"></path><path d="m206.932 206.932c-8.995 10.857-8.995 21.714 0 32.571l16.497 16.497-16.498 16.497c-8.995 10.857-8.995 21.714 0 32.571 8.98 8.979 23.592 8.979 32.571 0l16.498-16.498 16.498 16.499c10.857 8.978 21.713 8.978 32.57-.001 8.995-10.857 8.995-21.714 0-32.571l-16.497-16.497 16.498-16.497c8.995-10.857 8.995-21.714 0-32.571-8.979-8.978-23.59-8.979-32.571 0l-16.498 16.498-16.498-16.498c-8.98-8.98-23.591-8.981-32.57 0zm54.371 32.408 21.801-21.801c3.132-3.133 8.227-3.131 11.358 0 3.136 3.786 3.136 7.571 0 11.356l-21.801 21.801c-2.929 2.93-2.929 7.678 0 10.607l21.801 21.801c3.137 3.786 3.137 7.571 0 11.356-3.131 3.133-8.227 3.131-11.358.002l-21.801-21.802c-3.535-2.929-7.071-2.93-10.606-.001l-21.801 21.801c-3.132 3.133-8.227 3.131-11.358 0-3.136-3.785-3.136-7.571 0-11.356l21.801-21.801c2.929-2.93 2.929-7.678 0-10.607l-21.801-21.801c-3.131-3.131-3.131-8.227 0-11.357 3.132-3.131 8.227-3.132 11.358.001l21.801 21.801c2.928 2.928 7.678 2.928 10.606 0z"></path></g></svg>