<svg xmlns="http://www.w3.org/2000/svg" xmlns:xlink="http://www.w3.org/1999/xlink" xmlns:svgjs="http://svgjs.dev/svgjs" height="300" viewBox="0 0 60 60" width="300"><g width="100%" height="100%" transform="matrix(1,0,0,1,0,0)"><g id="Page-1" fill="none" fill-rule="evenodd"><g id="042---Back-Pain" fill="rgb(0,0,0)" fill-rule="nonzero"><path id="Shape" d="m59 58h-.184c.1185543-.320225.1808059-.6585488.184-1-.0042226-1.3054174-.8540325-2.4575168-2.1-2.847l-2.681-20.541c-.1982094-1.4925165-1.4693836-2.608586-2.975-2.612h-3.427c.03-.084.066-.165.089-.253.007-.025.012-.052.017-.079.1825311-.7904435.0371599-1.6211142-.4029639-2.3025902s-1.1374762-1.1556558-1.9330361-1.3144098l-5.135-.877.778-3.74c.3541768-1.6631017-.1698852-3.3916001-1.388-4.578l1.07-1.777c.388588.1343173.7959209.2065371 1.207.214 1.5655729-.0032287 2.9866338-.9157364 3.641-2.338l.416-.911c.6953068.3051243 1.5031679.1928216 2.0888874-.2903812.5857196-.4832028.8495213-1.254993.6821126-1.9956188l-.52-2.4c-.022885-.14541381-.0091367-.29423946.04-.433.4402771-1.31268459.4183999-2.73646212-.062-4.035-.7281701-1.94114457-2.40775-3.3681704-4.441022-3.7732371-2.033272-.40506669-4.131499.2693477-5.547978 1.7832371-1.3071184-.27894521-2.6403952.34469298-3.2641156 1.52678504-.6237205 1.18209206-.3859466 2.63468126.5821156 3.55621496l-.483 1.068c-.7356233 1.57330881-.5834451 3.41847.4 4.85l-1.831 2.912c-.8458529-.1150355-1.7052343.0707862-2.428.525l-2.617-.481c-3.2408352-.6016359-6.3601554 1.5237526-6.986 4.76l-1.525 7.8c-.3568904 1.5747665.6018658 3.1481894 2.165 3.553.0226425.0062822.0456996.0109605.069.014.2313019.05726.4687161.0861392.707.086.5448234-.0006378 1.078974-.1511272 1.544-.435.7134143-.4328204 1.2153055-1.1422033 1.386-1.959l1.256-7.126 1.5.32-.623 2.983c-.2861702 1.3361409.1363651 2.7254429 1.118 3.676l-1.363 7.288c0 .029.006.056 0 .085-.0096519.0321687-.0173328.0648961-.023.098v2.146c-.0012109 1.2204027.5589512 2.3735476 1.519 3.127l-2.708 8.637-1.572 3.63c-.5055608 1.2116619-.1686213 2.6111944.833 3.46h-8.072c-.5522847 0-1 .4477153-1 1s.4477153 1 1 1h12.866.02.027 28.087c.5522847 0 1-.4477153 1-1s-.4477153-1-1-1zm-2.995 0h-.005c-.5513018-.0027565-.9963752-.4511805-.9949969-1.0024875s.4486882-.9975.9999969-.9975.9986186.446193.9999969.9975-.4436951.999731-.9949969 1.0024875zm-3.77-24.13 2.655 20.349c-1.1391153.4536658-1.8875078 1.5548719-1.89 2.781.0031941.3414512.0654457.679775.184 1h-8.854c.4638743-.7890305.5008115-1.7581936.0983395-2.5802427s-1.1906278-1.3872499-2.0983395-1.5047573c-.6206084-.0758161-1.1433557-.4995288-1.346-1.091l-2.962-15.808 1.117-5.025 3.827.69c-.0129915.0581173-.0230046.1168606-.03.176l-.936 13.072c-.0392122.5522847.3767153 1.0317878.929 1.071s1.0317878-.3767153 1.071-.929l.931-13.071h6.313c.5018375.000258.9257612.372421.991.87zm-16.035 2.13h-5.995l1.02-5.456c.055.015.1.038.159.051l5.785 1.042zm-6.2000102 2h6.1700102l2.652 14.132-2.091.229-2.521-8.861c-.2470051-.7713216-.7941366-1.4107229-1.518-1.774l-1.586-.793c-.6794407-.3363531-1.1084258-1.029866-1.106-1.788zm9.3830102 16.083c.5600078.9923598 1.5527283 1.6649076 2.682 1.817.3610847.0477609.6343102.3502287.6452371.7142944.010927.3640657-.2436668.6823753-.6012371.7517056l-3.2.614c-.2604433.0501321-.5301343-.0052529-.7497409-.1539702-.2196066-.1487174-.3711387-.3785843-.4212591-.6390298l-.551-2.861zm-7.583-10.568c.2338543.1141054.4134478.3156094.5.561l.912 3.2-2.232 4.29-2-.867 2.329-7.43zm.918 11.7c-.347647-.312309-.5461517-.7576721-.546-1.225-.0031063-.2050084.0332193-.4087031.107-.6l1.728-3.318 1.014 3.559.753 3.928c.0312865.149852.0733969.2972384.126.441h-2.378c.2918266-1.0066983-.0218873-2.0914632-.806-2.787zm4.636-38.695-1.428-.3 1.192-1.891c.1971481.1339995.4036812.2536417.618.358l1.317.6-.892 1.483c-.2614654-.1059509-.5314288-.1895827-.807-.25zm7.091-14.16c1.8774564.85104318 2.7969571 2.99264307 2.121 4.94-.160303.47663137-.1923767.98705091-.093 1.48l.5 2.428-.88-.4c-.5020507-.227953-1.0938813-.0065198-1.323.495l-.83 1.817c-.4593805 1.0030164-1.6441854 1.4446337-2.648.987l-2.728-1.237c-.7273224-.3300137-1.2934732-.9358239-1.5735627-1.6837923s-.2511039-1.5766376.0805627-2.3032077l.409-.9 1.819.83c1.5085658.68704223 3.2884578.02106579 3.9755-1.4875s.0210658-3.28845777-1.4875-3.9755l-1.326-.6c1.1655747-.8254257 2.6804816-.9737223 3.984-.39zm-7.545 2.062c.2291256-.50208461.8216866-.72362366 1.324-.495l2.734 1.243c.3251117.14826521.5464287.45871295.5805831.81440055.0341544.35568759-.1240427.70257764-.415.91000001s-.6704714.24386467-.9955831.09559944l-2.728-1.244c-.2420139-.1091141-.4307083-.3099828-.5244979-.55833764-.0937896-.24835483-.0849762-.5238111.0244979-.76566236zm-3.543 13.344c.1075367-.0004109.2148104.0106517.32.033l3.271.68c1.6202577.3384705 2.6602281 1.9252755 2.324 3.546l-.793 3.812-2.959-.5.61-2.939c.0775626-.3517014-.039987-.7179422-.307742-.9588095-.267755-.2408674-.6443482-.319148-.9859117-.2049367-.3415635.1142112-.5953269.403269-.6643463.7567462l-.611 2.943c-.1069743.5250414.0012064 1.0710505.3002932 1.5156391.2990869.4445886.7640641.7505709 1.2907068.8493609l3.826.654c.025.008.052.015.079.021.0505138.0097726.1016302.0161204.153.019l6 1.026c.2659571.0566376.4973815.219139.6409563.450066.1435747.230927.1869178.5103646.1200437.773934l-.011.05c-.1588628.5073061-.6825441.8058045-1.2.684l-12.98-2.343c-.2659803-.0577699-.5182789-.1664314-.743-.32-.6644738-.4535948-.9875958-1.2647617-.817-2.051l1.5-7.179c.1729341-.7664576.8512936-1.3126261 1.637-1.318zm-5.557 2.825c-1.0892892-.2134339-2.1477687.4885052-2.375 1.575l-1.251 7.114c-.0589897.268224-.2256952.5003823-.461.642-.2292465.1406479-.5062593.1807894-.766.111-.0184246-.0050561-.0371214-.0090626-.056-.012-.5059719-.1592581-.7995608-.6858749-.669-1.2l1.53-7.821c.4159757-2.1584268 2.4956971-3.5767637 4.657-3.176l1.534.282c-.076038.1846511-.1365802.3753088-.181.57l-.462 2.235zm2.8 37.35-2.993-1.3c-.2447559-.103937-.4380368-.3010759-.5371169-.5478378-.0990801-.246762-.0957994-.5228245.0091169-.7671622l1.193-2.754 1.957.848c-.0339582.1875535-.0533494.3774539-.058.568.0009883 1.0352104.4419921 2.0211974 1.213 2.712.237327.2061575.3144974.5419094.191.831-.009.021-.017.042-.025.064-.1300886.2475258-.3873775.401822-.667.4h-.019c-.0906508-.0008834-.1802831-.0192173-.264-.054z" fill="#ffffff" fill-opacity="1" data-original-color="#000000ff" stroke="none" stroke-opacity="1"></path><path id="Shape" d="m20 14c0-.5522847-.4477153-1-1-1s-1 .4477153-1 1v1.442l-10.265-11.121c-.37500135-.40592929-1.00807071-.43100135-1.414-.056s-.43100135 1.00807071-.056 1.414l10.451 11.321h-1.716c-.5522847 0-1 .4477153-1 1s.4477153 1 1 1h4c.5522847 0 1-.4477153 1-1z" fill="#ffffff" fill-opacity="1" data-original-color="#000000ff" stroke="none" stroke-opacity="1"></path><path id="Shape" d="m19 39c.5522847 0 1-.4477153 1-1v-4c0-.5522847-.4477153-1-1-1h-4c-.5522847 0-1 .4477153-1 1s.4477153 1 1 1h1.715l-10.45 11.321c-.37500135.4059293-.34992929 1.0389987.056 1.414s1.03899865.3499293 1.414-.056l10.265-11.121v1.442c0 .5522847.4477153 1 1 1z" fill="#ffffff" fill-opacity="1" data-original-color="#000000ff" stroke="none" stroke-opacity="1"></path><path id="Shape" d="m0 26c0 .5522847.44771525 1 1 1h13.586l-1.293 1.293c-.2599566.2510745-.3642126.6228779-.2726972.9725073.0915155.3496295.3645604.6226744.7141899.7141899.3496294.0915154.7214328-.0127406.9725073-.2726972l3-3c.3903819-.3904999.3903819-1.0235001 0-1.414l-3-3c-.3923789-.3789722-1.0160848-.3735524-1.4018186.0121814s-.3911536 1.0094397-.0121814 1.4018186l1.293 1.293h-13.586c-.55228475 0-1 .4477153-1 1z" fill="#ffffff" fill-opacity="1" data-original-color="#000000ff" stroke="none" stroke-opacity="1"></path></g></g></g></svg>