<svg xmlns="http://www.w3.org/2000/svg" xmlns:svg="http://www.w3.org/2000/svg" id="svg456" xml:space="preserve" width="682.66669" height="682.66669" viewBox="0 0 682.66669 682.66669"><defs id="defs460"><clipPath clipPathUnits="userSpaceOnUse" id="clipPath470"><path d="M 0,512 H 512 V 0 H 0 Z" id="path468"></path></clipPath></defs><g id="g462" transform="matrix(1.3333333,0,0,-1.3333333,0,682.66667)"><g id="g464"><g id="g466" clip-path="url(#clipPath470)"><g id="g472" transform="translate(134.7803,114.2407)"><path d="m 0,0 v 319.548 c 0,11.158 9.046,20.203 20.203,20.203 h 202.033 c 11.158,0 20.203,-9.045 20.203,-20.203 v -90.097" style="fill:none;stroke:#000000;stroke-width:15;stroke-linecap:round;stroke-linejoin:round;stroke-miterlimit:10;stroke-dasharray:none;stroke-opacity:1" id="path474"></path></g><g id="g476" transform="translate(377.2197,308.6431)"><path d="m 0,0 v -280.94 c 0,-11.158 -9.046,-20.203 -20.203,-20.203 h -202.033 c -11.158,0 -20.203,9.045 -20.203,20.203 v 51.506" style="fill:none;stroke:#000000;stroke-width:15;stroke-linecap:round;stroke-linejoin:round;stroke-miterlimit:10;stroke-dasharray:none;stroke-opacity:1" id="path478"></path></g><path d="M 205.492,299.437 H 306.508 V 77.201 H 205.492 Z" style="fill:none;stroke:#000000;stroke-width:15;stroke-linecap:round;stroke-linejoin:round;stroke-miterlimit:10;stroke-dasharray:none;stroke-opacity:1" id="path480"></path><g id="g482" transform="translate(215.5937,453.9917)"><path d="m 0,0 v 40.407 c 0,5.579 4.522,10.101 10.102,10.101 h 60.609 c 5.579,0 10.102,-4.522 10.102,-10.101 V 0" style="fill:none;stroke:#000000;stroke-width:15;stroke-linecap:round;stroke-linejoin:round;stroke-miterlimit:10;stroke-dasharray:none;stroke-opacity:1" id="path484"></path></g><g id="g486" transform="translate(205.4922,114.2407)"><path d="M 0,0 H 101.016" style="fill:none;stroke:#000000;stroke-width:15;stroke-linecap:round;stroke-linejoin:round;stroke-miterlimit:10;stroke-dasharray:none;stroke-opacity:1" id="path488"></path></g><g id="g490" transform="translate(205.4922,151.2798)"><path d="M 0,0 H 101.016" style="fill:none;stroke:#000000;stroke-width:15;stroke-linecap:round;stroke-linejoin:round;stroke-miterlimit:10;stroke-dasharray:none;stroke-opacity:1" id="path492"></path></g><g id="g494" transform="translate(205.4922,188.3193)"><path d="M 0,0 H 101.016" style="fill:none;stroke:#000000;stroke-width:15;stroke-linecap:round;stroke-linejoin:round;stroke-miterlimit:10;stroke-dasharray:none;stroke-opacity:1" id="path496"></path></g><g id="g498" transform="translate(205.4922,225.3584)"><path d="M 0,0 H 101.016" style="fill:none;stroke:#000000;stroke-width:15;stroke-linecap:round;stroke-linejoin:round;stroke-miterlimit:10;stroke-dasharray:none;stroke-opacity:1" id="path500"></path></g><g id="g502" transform="translate(205.4922,262.3975)"><path d="M 0,0 H 101.016" style="fill:none;stroke:#000000;stroke-width:15;stroke-linecap:round;stroke-linejoin:round;stroke-miterlimit:10;stroke-dasharray:none;stroke-opacity:1" id="path504"></path></g><g id="g506" transform="translate(242.8682,346.9146)"><path d="M 0,0 H 26.264" style="fill:none;stroke:#000000;stroke-width:15;stroke-linecap:round;stroke-linejoin:round;stroke-miterlimit:10;stroke-dasharray:none;stroke-opacity:1" id="path508"></path></g><g id="g510" transform="translate(256,360.0469)"><path d="M 0,0 V -26.264" style="fill:none;stroke:#000000;stroke-width:15;stroke-linecap:round;stroke-linejoin:round;stroke-miterlimit:10;stroke-dasharray:none;stroke-opacity:1" id="path512"></path></g><g id="g514" transform="translate(274.1826,38.8149)"><path d="M 0,0 H -36.365" style="fill:none;stroke:#000000;stroke-width:15;stroke-linecap:round;stroke-linejoin:round;stroke-miterlimit:10;stroke-dasharray:none;stroke-opacity:1" id="path516"></path></g><g id="g518" transform="translate(134.7803,391.3618)"><path d="M 0,0 H 242.439" style="fill:none;stroke:#000000;stroke-width:15;stroke-linecap:round;stroke-linejoin:round;stroke-miterlimit:10;stroke-dasharray:none;stroke-opacity:1" id="path520"></path></g></g></g></g></svg>