<svg xmlns="http://www.w3.org/2000/svg" width="50" height="50" viewBox="0 0 50 50" fill="none"><rect width="50" height="50" rx="25" fill="#273A2B"></rect><path fill-rule="evenodd" clip-rule="evenodd" d="M13.4789 13.1627C11.5328 15.075 10.3625 17.6395 10.1934 20.3627C10.0243 23.0859 10.8682 25.7754 12.5628 27.9139C14.2574 30.0523 16.6829 31.4885 19.3727 31.9461C22.0626 32.4037 24.8266 31.8505 27.133 30.3928C27.2274 30.3329 27.3401 30.309 27.4507 30.3253C27.5613 30.3416 27.6623 30.3971 27.7354 30.4817L28.1716 30.9258C28.269 31.0237 28.401 31.0792 28.539 31.0805C28.677 31.0817 28.81 31.0285 28.9091 30.9325L30.9712 28.9071C31.069 28.8097 31.1246 28.6777 31.1258 28.5397C31.1271 28.4017 31.0739 28.2687 30.9778 28.1696L30.5205 27.704C30.443 27.6251 30.3961 27.5213 30.3881 27.4111C30.3802 27.3008 30.4118 27.1914 30.4772 27.1023C31.9701 24.8206 32.5671 22.0676 32.1534 19.3725C31.7398 16.6773 30.3447 14.2301 28.2363 12.5011C26.1279 10.772 23.4549 9.8832 20.7309 10.0053C18.0069 10.1274 15.4242 11.2519 13.4789 13.1627ZM34.8837 32.184C35.1263 32.0698 35.3982 32.0336 35.6622 32.0802C35.9262 32.1268 36.1692 32.254 36.358 32.4444C37.6671 33.7793 38.973 35.1179 40.2754 36.4602C40.59 36.7853 40.7639 37.2213 40.7594 37.6737C40.755 38.1261 40.5726 38.5585 40.2517 38.8774C39.7193 39.4032 39.187 39.929 38.6546 40.4548C38.3328 40.7672 37.9007 40.94 37.4522 40.9356C37.0037 40.9312 36.5751 40.75 36.2594 40.4313C34.9459 39.1009 33.6459 37.7521 32.3402 36.4137C32.1005 36.1676 31.9683 35.8365 31.9724 35.493C31.9741 35.2873 32.0242 35.0848 32.1185 34.902L29.1316 31.8879C28.8615 32.0065 28.5618 32.0404 28.272 31.9852C27.9821 31.93 27.7159 31.7882 27.5083 31.5785L27.3104 31.377C24.7893 32.8633 21.8115 33.3761 18.9385 32.8186C16.0655 32.261 13.4957 30.6718 11.7135 28.3504C9.93126 26.029 9.05983 23.1358 9.26344 20.2163C9.46705 17.2968 10.7316 14.5526 12.8188 12.501C14.906 10.4495 17.6715 9.2323 20.5941 9.07897C23.5167 8.92565 26.3945 9.84675 28.6849 11.6686C30.9752 13.4905 32.52 16.0873 33.028 18.9695C33.536 21.8517 32.9721 24.8202 31.4426 27.3153L31.6411 27.5173C31.8517 27.7329 31.9903 28.0085 32.0379 28.3062C32.0854 28.6038 32.0396 28.9089 31.9067 29.1794L34.8841 32.184H34.8837ZM32.7368 34.204L29.8614 31.302L31.3 29.8888L34.1731 32.788C33.6959 33.2613 33.2171 33.7333 32.7368 34.204ZM35.1826 33.095L33.0111 35.2399C32.9421 35.3097 32.9031 35.4036 32.9024 35.5017C32.9018 35.5998 32.9394 35.6943 33.0074 35.765C34.3122 37.1026 35.6121 38.4478 36.9229 39.779C37.0663 39.9223 37.2601 40.0036 37.4628 40.0052C37.6655 40.0069 37.8607 39.9288 38.0063 39.7879C38.5435 39.2798 39.0722 38.7352 39.5997 38.2141C39.7453 38.0675 39.8277 37.8699 39.8294 37.6634C39.8311 37.4568 39.7519 37.2578 39.6088 37.1089C38.3043 35.7716 36.9997 34.4342 35.695 33.0967C35.6273 33.0287 35.5353 32.9903 35.4393 32.99C35.3433 32.9896 35.251 33.0274 35.1828 33.095H35.1826ZM21.3111 11.3853C23.2223 11.4022 25.0857 11.9854 26.6655 13.0612C28.2452 14.1371 29.4705 15.6572 30.1863 17.4294C30.9022 19.2016 31.0764 21.1463 30.687 23.0175C30.2976 24.8887 29.3621 26.6025 27.9987 27.942C26.6353 29.2815 24.9053 30.1867 23.0275 30.543C21.1497 30.8993 19.2084 30.6907 17.4491 29.9437C15.6898 29.1967 14.1915 27.9448 13.1438 26.3463C12.096 24.7478 11.5458 22.8744 11.5627 20.9632C11.5737 19.6941 11.8346 18.4397 12.3305 17.2715C12.8264 16.1033 13.5476 15.0443 14.4528 14.1549C15.3581 13.2655 16.4297 12.5631 17.6065 12.0879C18.7832 11.6127 20.0421 11.374 21.3111 11.3853ZM12.4916 20.9705C12.5071 19.2431 13.0344 17.559 14.007 16.1313C14.9795 14.7036 16.3536 13.5963 17.9554 12.9495C19.5573 12.3028 21.3149 12.1455 23.0062 12.4977C24.6974 12.8498 26.2462 13.6956 27.4567 14.928C28.6673 16.1604 29.4852 17.7241 29.807 19.4213C30.1289 21.1186 29.9402 22.8731 29.2649 24.4631C28.5895 26.0532 27.4579 27.4072 26.013 28.3541C24.5681 29.3009 22.8749 29.7981 21.1475 29.7826C18.8313 29.7612 16.6184 28.821 14.9952 27.1685C13.3721 25.5161 12.4715 23.2867 12.4916 20.9705ZM16.4959 23.6799C16.5634 23.6799 16.6294 23.6999 16.6855 23.7374C16.7417 23.7749 16.7854 23.8282 16.8113 23.8906C16.8371 23.9529 16.8439 24.0216 16.8307 24.0878C16.8175 24.154 16.785 24.2148 16.7373 24.2625C16.6895 24.3103 16.6287 24.3428 16.5625 24.356C16.4963 24.3691 16.4277 24.3624 16.3653 24.3365C16.3029 24.3107 16.2496 24.267 16.2121 24.2108C16.1746 24.1547 16.1546 24.0887 16.1546 24.0212C16.1546 23.9764 16.1634 23.932 16.1805 23.8906C16.1977 23.8491 16.2228 23.8115 16.2545 23.7798C16.2862 23.7481 16.3239 23.723 16.3653 23.7058C16.4067 23.6887 16.4511 23.6798 16.4959 23.6799ZM21.44 21.0647C21.4877 21.1125 21.5203 21.1733 21.5334 21.2395C21.5466 21.3057 21.5399 21.3744 21.514 21.4368C21.4882 21.4992 21.4444 21.5525 21.3883 21.59C21.3321 21.6275 21.2661 21.6475 21.1986 21.6475C21.1311 21.6475 21.0651 21.6275 21.0089 21.59C20.9528 21.5525 20.909 21.4992 20.8832 21.4368C20.8574 21.3744 20.8506 21.3057 20.8638 21.2395C20.877 21.1733 20.9095 21.1125 20.9572 21.0647C21.0214 21.0011 21.1082 20.9654 21.1986 20.9654C21.289 20.9654 21.3758 21.0011 21.44 21.0647ZM20.7321 22.4925V23.7542C20.103 24.1172 19.4744 24.4797 18.8462 24.8418C18.4824 24.6318 18.1189 24.4215 17.7558 24.211C17.7986 23.9258 17.7435 23.6345 17.5994 23.3846C17.4554 23.1348 17.2309 22.9411 16.9627 22.8352V21.5743C17.5911 21.2112 18.2194 20.8482 18.8476 20.4852C19.2117 20.6954 19.5755 20.9057 19.9387 21.1161C19.8959 21.4014 19.951 21.6929 20.0952 21.9429C20.2393 22.1928 20.4639 22.3866 20.7324 22.4925H20.7321ZM22.4587 21.1161C22.8225 20.9059 23.1862 20.6957 23.5499 20.4852C24.1789 20.8482 24.8072 21.2112 25.4347 21.5743V23.7544C24.8056 24.1174 24.177 24.4799 23.5488 24.842L21.6648 23.7544V22.4927C21.9332 22.3868 22.1579 22.1931 22.302 21.9431C22.4462 21.6931 22.5013 21.4016 22.4585 21.1163L22.4587 21.1161ZM23.6034 16.7629C23.6709 16.7629 23.7369 16.7829 23.793 16.8204C23.8491 16.858 23.8929 16.9113 23.9187 16.9736C23.9446 17.036 23.9513 17.1046 23.9381 17.1708C23.925 17.2371 23.8925 17.2979 23.8447 17.3456C23.797 17.3933 23.7362 17.4258 23.67 17.439C23.6038 17.4522 23.5351 17.4454 23.4728 17.4196C23.4104 17.3938 23.3571 17.35 23.3196 17.2939C23.2821 17.2378 23.2621 17.1718 23.2621 17.1043C23.262 17.0594 23.2709 17.015 23.288 16.9736C23.3051 16.9322 23.3303 16.8946 23.362 16.8629C23.3937 16.8312 23.4313 16.806 23.4727 16.7889C23.5142 16.7717 23.5585 16.7629 23.6034 16.7629ZM23.1369 18.2903V19.6507C22.7558 19.8708 22.3745 20.0906 21.9931 20.3101C21.7674 20.13 21.4872 20.0319 21.1985 20.0319C20.9098 20.0319 20.6296 20.13 20.4039 20.3101C20.0412 20.1005 19.6778 19.8911 19.3137 19.6816V17.5006C19.9423 17.1375 20.5706 16.7751 21.1985 16.4134C21.5754 16.631 21.9525 16.8484 22.3297 17.0655C22.3218 17.3279 22.395 17.5864 22.5395 17.8056C22.684 18.0248 22.8926 18.1941 23.1369 18.2903V18.2903ZM23.6034 15.8298C23.8925 15.8294 24.1732 15.9278 24.3987 16.1088L25.7236 15.344C25.8304 15.2826 25.9572 15.2661 26.0761 15.2983C26.195 15.3304 26.2963 15.4084 26.3577 15.5152C26.4191 15.622 26.4355 15.7488 26.4034 15.8677C26.3713 15.9867 26.2932 16.088 26.1864 16.1493L24.8637 16.913C24.9068 17.1985 24.8518 17.4902 24.7076 17.7404C24.5635 17.9905 24.3388 18.1844 24.0701 18.2903V19.7126C24.653 20.049 25.2353 20.3849 25.8171 20.7201L28.0749 19.4166C28.1817 19.3552 28.3085 19.3388 28.4274 19.3709C28.5464 19.403 28.6476 19.481 28.709 19.5878C28.7704 19.6946 28.7868 19.8215 28.7547 19.9404C28.7226 20.0593 28.6446 20.1606 28.5378 20.222L26.3679 21.4747V24.0213C26.368 24.1108 26.3423 24.1983 26.2939 24.2736C26.2456 24.3488 26.1766 24.4086 26.0953 24.4457C25.4015 24.8463 24.7087 25.2467 24.0168 25.6469V28.094C24.0153 28.2167 23.9655 28.3339 23.8782 28.4202C23.7909 28.5065 23.673 28.5549 23.5503 28.5549C23.4275 28.5549 23.3097 28.5065 23.2224 28.4202C23.1351 28.3339 23.0853 28.2167 23.0838 28.094V25.6458L21.1989 24.5576C20.5699 24.9206 19.9416 25.2837 19.3141 25.6467V28.0938C19.3126 28.2165 19.2628 28.3337 19.1755 28.42C19.0882 28.5063 18.9704 28.5547 18.8476 28.5547C18.7248 28.5547 18.607 28.5063 18.5197 28.42C18.4324 28.3337 18.3826 28.2165 18.3811 28.0938V25.6458C18.0176 25.4359 17.6542 25.2264 17.2909 25.0174C17.1475 25.1317 16.9812 25.2136 16.8033 25.2577C16.6253 25.3018 16.44 25.307 16.2598 25.273C16.0797 25.2389 15.9091 25.1664 15.7595 25.0603C15.61 24.9543 15.4851 24.8172 15.3934 24.6585C15.3017 24.4998 15.2453 24.3231 15.2281 24.1406C15.2108 23.9581 15.2332 23.774 15.2936 23.601C15.354 23.4279 15.4511 23.2699 15.5781 23.1377C15.7052 23.0056 15.8592 22.9024 16.0298 22.8352V21.4448C15.3237 21.0372 14.6183 20.6296 13.9135 20.222C13.8067 20.1606 13.7287 20.0593 13.6966 19.9404C13.6644 19.8215 13.6809 19.6946 13.7422 19.5878C13.8036 19.481 13.9049 19.403 14.0238 19.3709C14.1428 19.3388 14.2696 19.3552 14.3764 19.4166C15.1208 19.8464 15.8648 20.2756 16.6083 20.7041C17.1991 20.3632 17.7901 20.0224 18.3814 19.6815V17.3722C17.6758 16.9649 16.9704 16.5573 16.2651 16.1493C16.1583 16.088 16.0802 15.9867 16.0481 15.8677C16.016 15.7488 16.0324 15.622 16.0938 15.5152C16.1552 15.4084 16.2565 15.3304 16.3754 15.2983C16.4943 15.2661 16.6211 15.2826 16.7279 15.344C17.4721 15.7734 18.2164 16.2028 18.9609 16.6322C19.6298 16.246 20.2983 15.8598 20.9663 15.4736C21.038 15.432 21.1195 15.4103 21.2024 15.4108C21.2853 15.4112 21.3666 15.4339 21.4378 15.4764C21.8589 15.7194 22.2798 15.9628 22.7006 16.2064C22.8188 16.0872 22.9595 15.9925 23.1145 15.9279C23.2695 15.8633 23.4358 15.83 23.6037 15.8299L23.6034 15.8298Z" fill="white"></path></svg>