<svg xmlns="http://www.w3.org/2000/svg" id="outline" viewBox="0 0 512 512"><g><path d="m103.751 495.998c-2.646 0-5.33-.272-8.019-.838-9.068-1.909-16.924-6.826-22.507-13.905-7.963 4.228-17.135 5.559-26.202 3.651-21.104-4.443-34.637-25.331-30.167-46.564 3.837-18.226 20.821-31.106 39.192-31.106h.05l26.974-128.726c-16.847-7.389-27.226-26.044-23.385-44.292 2.163-10.274 8.17-19.101 16.916-24.853 8.765-5.765 19.228-7.753 29.462-5.599 9.068 1.909 16.924 6.826 22.507 13.904 7.964-4.227 17.136-5.558 26.203-3.651 10.234 2.154 19.008 8.192 24.705 17.001 5.685 8.79 7.624 19.289 5.461 29.563-3.836 18.226-20.821 31.105-39.192 31.106-.017 0-.033 0-.05 0l-26.97 128.705c6.986 3.027 13.008 8.02 17.398 14.529 6.021 8.926 8.146 19.504 5.981 29.784-3.898 18.529-20.236 31.29-38.357 31.291zm-28.143-34.064c.549 0 1.101.056 1.648.171 2.472.521 4.553 2.178 5.613 4.471 3.101 6.706 8.991 11.418 16.159 12.927 12.468 2.624 24.773-5.49 27.425-18.09 1.265-6.006-.01-12.235-3.589-17.541-3.536-5.243-9.035-8.98-15.086-10.253-4.321-.91-7.087-5.148-6.182-9.469l29.916-142.765c.436-2.078 1.679-3.897 3.457-5.058s3.946-1.567 6.021-1.13c12.73 2.684 25.688-5.521 28.295-17.907 1.288-6.115.137-12.358-3.239-17.578-3.363-5.201-8.537-8.764-14.566-10.033-7.169-1.512-14.458.428-20 5.316-1.895 1.671-4.467 2.349-6.939 1.828s-4.553-2.178-5.613-4.471c-3.101-6.707-8.991-11.418-16.158-12.927-6.03-1.271-12.2-.094-17.375 3.309-5.194 3.417-8.764 8.666-10.051 14.781-2.607 12.386 5.945 25.114 18.675 27.794 4.321.91 7.087 5.148 6.182 9.469l-29.915 142.766c-.436 2.078-1.679 3.897-3.457 5.058s-3.945 1.565-6.021 1.13c-12.733-2.681-25.688 5.521-28.295 17.907-2.652 12.6 5.335 24.986 17.806 27.611 7.168 1.51 14.457-.429 19.999-5.316 1.474-1.301 3.36-2 5.29-2z"></path></g><g><path d="m224.918 209.917c-6.475 0-12.879-1.607-18.715-4.769-9.224-4.997-15.924-13.277-18.865-23.313-2.606-8.893-1.988-18.14 1.608-26.407-7.49-5.018-13.001-12.469-15.607-21.361-2.941-10.037-1.771-20.623 3.297-29.808 5.057-9.165 13.391-15.839 23.467-18.792 17.891-5.243 37.294 3.655 45.968 19.874l157.621-46.192c-1.452-18.336 10.077-36.299 27.969-41.543 20.825-6.101 42.698 5.771 48.763 26.466 2.606 8.893 1.988 18.14-1.608 26.407 7.49 5.018 13.002 12.469 15.608 21.361 6.065 20.696-5.941 42.498-26.764 48.6-17.89 5.244-37.294-3.655-45.969-19.875l-157.601 46.187c.636 7.585-.917 15.25-4.575 22.194-5.018 9.526-13.333 16.4-23.415 19.354-3.686 1.081-7.446 1.617-11.182 1.617zm-14.136-109.979c-2.06 0-4.137.285-6.18.884-5.997 1.757-10.954 5.723-13.957 11.166-2.992 5.423-3.685 11.666-1.952 17.579 2.06 7.029 7.214 12.536 14.141 15.108 2.368.879 4.182 2.825 4.893 5.25s.234 5.042-1.285 7.06c-4.442 5.904-5.809 13.322-3.749 20.351 1.732 5.913 5.686 10.794 11.132 13.745 5.467 2.961 11.78 3.625 17.776 1.867 5.89-1.726 10.776-5.795 13.758-11.457 2.947-5.595 3.64-12.208 1.901-18.142-.597-2.036-.36-4.226.658-6.087 1.018-1.862 2.733-3.243 4.77-3.84l171.386-50.227c4.241-1.245 8.685 1.188 9.927 5.427 3.658 12.484 17.01 20.025 29.159 16.464 12.356-3.621 19.493-16.517 15.909-28.746-2.06-7.029-7.214-12.536-14.141-15.107-2.368-.879-4.182-2.826-4.893-5.25s-.234-5.042 1.285-7.06c4.442-5.904 5.809-13.322 3.749-20.351-3.584-12.229-16.555-19.234-28.909-15.611-12.146 3.56-19.317 17.114-15.659 29.599 1.242 4.24-1.188 8.685-5.427 9.927l-171.386 50.227c-4.241 1.244-8.685-1.188-9.927-5.427-3.044-10.386-12.794-17.349-22.979-17.349z"></path></g><g><g><path d="m88.804 120.804c-6.411 0-12.438-2.497-16.971-7.03l-11.313-11.313c-4.533-4.533-7.03-10.56-7.03-16.971s2.497-12.438 7.03-16.971 10.56-7.029 16.97-7.029 12.438 2.497 16.971 7.03l11.313 11.313c4.533 4.533 7.03 10.56 7.03 16.971 0 6.41-2.497 12.438-7.03 16.97-4.532 4.534-10.56 7.03-16.97 7.03zm-11.314-43.314c-2.137 0-4.146.832-5.656 2.343-1.512 1.511-2.344 3.52-2.344 5.657s.833 4.146 2.343 5.657l11.313 11.313c3.12 3.119 8.195 3.119 11.314 0s3.119-8.195 0-11.314l-11.313-11.313c-1.511-1.51-3.52-2.343-5.657-2.343z"></path></g><g><path d="m56 200h-16c-13.234 0-24-10.766-24-24s10.766-24 24-24h16c13.234 0 24 10.766 24 24s-10.766 24-24 24zm-16-32c-4.411 0-8 3.589-8 8s3.589 8 8 8h16c4.411 0 8-3.589 8-8s-3.589-8-8-8z"></path></g><g><path d="m168 88c-13.234 0-24-10.766-24-24v-16c0-13.234 10.766-24 24-24s24 10.766 24 24v16c0 13.234-10.766 24-24 24zm0-48c-4.411 0-8 3.589-8 8v16c0 4.411 3.589 8 8 8s8-3.589 8-8v-16c0-4.411-3.589-8-8-8z"></path></g></g><g><g><path d="m274.51 322.51c-6.411 0-12.438-2.497-16.971-7.03l-11.313-11.313c-4.533-4.533-7.03-10.56-7.03-16.971 0-6.41 2.497-12.438 7.03-16.97 4.533-4.533 10.56-7.03 16.97-7.03 6.411 0 12.438 2.497 16.971 7.03l11.313 11.313c4.533 4.533 7.03 10.56 7.03 16.971s-2.497 12.438-7.03 16.971c-4.533 4.532-10.56 7.029-16.97 7.029zm-11.314-43.31c-2.049 0-4.098.78-5.657 2.339-3.119 3.119-3.119 8.195 0 11.314l11.313 11.313c1.511 1.511 3.52 2.343 5.657 2.343s4.146-.832 5.656-2.343c1.512-1.511 2.344-3.52 2.344-5.657s-.833-4.146-2.343-5.657l-11.313-11.313c-1.56-1.56-3.608-2.339-5.657-2.339z"></path></g><g><path d="m312 232h-16c-13.234 0-24-10.766-24-24s10.766-24 24-24h16c13.234 0 24 10.766 24 24s-10.766 24-24 24zm-16-32c-4.411 0-8 3.589-8 8s3.589 8 8 8h16c4.411 0 8-3.589 8-8s-3.589-8-8-8z"></path></g><g><path d="m184 360c-13.234 0-24-10.766-24-24v-16c0-13.234 10.766-24 24-24s24 10.766 24 24v16c0 13.234-10.766 24-24 24zm0-48c-4.411 0-8 3.589-8 8v16c0 4.411 3.589 8 8 8s8-3.589 8-8v-16c0-4.411-3.589-8-8-8z"></path></g></g><g><path d="m157.274 174.07c-.254 0-.51-.012-.768-.037-4.398-.419-7.625-4.324-7.206-8.722l1.317-13.834-7.974 4.285c-2.599 1.396-5.756 1.249-8.213-.384-2.458-1.632-3.817-4.485-3.537-7.422l2.735-28.714c.418-4.398 4.322-7.632 8.722-7.206 4.398.419 7.625 4.324 7.206 8.722l-1.317 13.834 7.974-4.285c2.599-1.396 5.756-1.249 8.213.384s3.817 4.485 3.537 7.422l-2.735 28.714c-.393 4.141-3.877 7.243-7.954 7.243z"></path></g><g><path d="m114.227 200c-2.377 0-4.664-1.061-6.2-2.944l-18.227-22.355c-2.792-3.424-2.279-8.464 1.145-11.256 3.425-2.792 8.464-2.279 11.256 1.145l8.781 10.77 2.665-8.651c.868-2.82 3.218-4.933 6.114-5.498 2.896-.564 5.868.51 7.732 2.796l18.228 22.355c2.792 3.424 2.279 8.464-1.145 11.256-3.425 2.792-8.464 2.279-11.256-1.145l-8.781-10.77-2.665 8.651c-.868 2.82-3.218 4.933-6.114 5.498-.511.1-1.024.148-1.533.148z"></path></g><g><path d="m222.708 256c-2.377 0-4.664-1.061-6.2-2.944l-18.228-22.355c-2.792-3.424-2.279-8.464 1.145-11.256 3.425-2.792 8.464-2.279 11.256 1.145l8.781 10.77 2.665-8.651c.868-2.82 3.218-4.933 6.114-5.498 2.896-.567 5.868.51 7.732 2.796l18.228 22.355c2.792 3.424 2.279 8.464-1.145 11.256-3.425 2.792-8.464 2.279-11.256-1.145l-8.781-10.77-2.665 8.651c-.868 2.82-3.218 4.933-6.114 5.498-.511.1-1.023.148-1.532.148z"></path></g><g><path d="m392 496c-57.346 0-104-46.654-104-104s46.654-104 104-104 104 46.654 104 104-46.654 104-104 104zm0-192c-48.523 0-88 39.477-88 88s39.477 88 88 88 88-39.477 88-88-39.477-88-88-88z"></path></g><g><path d="m416 464h-48c-4.418 0-8-3.582-8-8v-32h-32c-4.418 0-8-3.582-8-8v-48c0-4.418 3.582-8 8-8h32v-32c0-4.418 3.582-8 8-8h48c4.418 0 8 3.582 8 8v32h32c4.418 0 8 3.582 8 8v48c0 4.418-3.582 8-8 8h-32v32c0 4.418-3.582 8-8 8zm-40-16h32v-32c0-4.418 3.582-8 8-8h32v-32h-32c-4.418 0-8-3.582-8-8v-32h-32v32c0 4.418-3.582 8-8 8h-32v32h32c4.418 0 8 3.582 8 8z"></path></g></svg>