<svg xmlns="http://www.w3.org/2000/svg" id="Layer_1" viewBox="0 0 64 64" data-name="Layer 1"><path d="m4.42 15h11.47c1.72 0 3.11-1.5 3.11-3.33 0-1.73-1.24-3.16-2.82-3.32-.41-1.92-2.01-3.35-3.91-3.35-.55 0-1.07.12-1.56.34-.67-1.4-2.02-2.34-3.57-2.34-2.22 0-4.02 1.94-4.02 4.33 0 .2.01.4.04.6-1.26.54-2.15 1.87-2.15 3.4 0 2.02 1.53 3.67 3.42 3.67zm-.03-5.33c.33 0 .63-.17.81-.45s.22-.62.1-.92c-.12-.31-.18-.63-.18-.97 0-1.29.91-2.33 2.02-2.33 1.03 0 1.89.89 2.01 2.07.04.39.31.73.68.85.37.13.79.02 1.05-.28.38-.42.87-.65 1.39-.65 1.11 0 2.02 1.05 2.01 2.4 0 .33.14.64.4.83s.6.25.91.15c.7-.23 1.41.43 1.41 1.28 0 .74-.5 1.33-1.11 1.33h-11.47c-.78 0-1.42-.75-1.42-1.67s.62-1.65 1.39-1.66z"></path><path d="m51.75 63c1.57 0 3.04-.78 3.92-2.07s1.07-2.95.5-4.41l-3.49-8.88c-.15-.38-.52-.63-.93-.63s-.78.25-.93.63l-3.49 8.88c-.57 1.46-.39 3.11.5 4.41s2.35 2.07 3.92 2.07zm-2.56-5.75 2.56-6.51 2.56 6.51c.34.86.23 1.79-.29 2.55s-1.35 1.2-2.27 1.2-1.75-.44-2.27-1.2-.62-1.69-.29-2.55z"></path><path d="m62.42 48.98-2.49-6.34c-.15-.38-.52-.63-.93-.63s-.78.25-.93.63l-2.49 6.34c-.45 1.13-.3 2.41.38 3.42.69 1.01 1.82 1.61 3.04 1.61s2.35-.6 3.04-1.61.83-2.28.38-3.42zm-2.04 2.29c-.63.93-2.14.93-2.77 0-.32-.47-.38-1.03-.18-1.56l1.56-3.97 1.56 3.97c.21.52.14 1.09-.18 1.56z"></path><path d="m48 11c0 2.76 2.24 5 5 5s5-2.24 5-5-2.24-5-5-5-5 2.24-5 5zm5-3c1.65 0 3 1.35 3 3s-1.35 3-3 3-3-1.35-3-3 1.35-3 3-3z"></path><rect height="3" rx="1" width="2" x="52" y="1"></rect><rect height="3" rx="1" width="2" x="52" y="18"></rect><rect height="2" rx="1" width="3" x="60" y="10"></rect><rect height="2" rx="1" width="3" x="43" y="10"></rect><path d="m47.34 3.93c-.39-.39-1.02-.39-1.41 0s-.39 1.02 0 1.41l.71.71c.39.39 1.02.39 1.41 0s.39-1.02 0-1.41z"></path><path d="m59.36 15.95c-.39-.39-1.02-.39-1.41 0s-.39 1.02 0 1.41l.71.71c.39.39 1.02.39 1.41 0s.39-1.02 0-1.41z"></path><path d="m60.07 3.93c-.39-.39-1.02-.39-1.41 0l-.71.71c-.39.39-.39 1.02 0 1.41s1.02.39 1.41 0l.71-.71c.39-.39.39-1.02 0-1.41z"></path><path d="m47.02 16.98c-.39-.39-1.02-.39-1.41 0l-.56.56c-.39.39-.39 1.02 0 1.41s1.02.39 1.41 0l.56-.56c.39-.39.39-1.02 0-1.41z"></path><path d="m2 54h15.4c1.67 0 3.19-1.13 3.53-2.76.46-2.25-1.25-4.24-3.42-4.24h-.5c-1.13 0-2.11.63-2.62 1.55-.36.65.15 1.45.9 1.45.34 0 .68-.16.84-.46.17-.32.5-.54.89-.54h.5c.83 0 1.5.67 1.5 1.5s-.67 1.5-1.5 1.5h-15.52c-.55 0-1 .45-1 1s.45 1 1 1z"></path><path d="m4 50h4.4c1.67 0 3.19-1.13 3.53-2.76.46-2.25-1.25-4.24-3.42-4.24h-.5c-1.13 0-2.11.63-2.62 1.55-.36.65.15 1.45.9 1.45.34 0 .68-.16.84-.46.17-.32.5-.54.89-.54h.5c.83 0 1.5.67 1.5 1.5s-.67 1.5-1.5 1.5h-4.52c-.55 0-1 .45-1 1s.45 1 1 1z"></path><path d="m13.5 61h-.5c-.38 0-.72-.22-.89-.54-.16-.3-.5-.46-.84-.46-.74 0-1.26.8-.9 1.45.51.92 1.5 1.55 2.62 1.55h.4c1.67 0 3.19-1.13 3.53-2.76.46-2.25-1.25-4.24-3.42-4.24h-7.5c-.55 0-1 .45-1 1s.45 1 1 1h7.5c.83 0 1.5.67 1.5 1.5s-.67 1.5-1.5 1.5z"></path><path d="m6.62 18.01c-.49-.27-1.12-.09-1.37.41-2.12 4.18-3.24 8.86-3.24 13.58 0 2.47.3 4.91.89 7.29.14.54.71.86 1.25.71.52-.15.82-.69.69-1.21-.55-2.21-.83-4.48-.83-6.78 0-4.4 1.04-8.76 3.02-12.66.25-.48.08-1.07-.4-1.33z"></path><path d="m21.57 60.14c3.33 1.24 6.83 1.86 10.43 1.86 3.98 0 7.84-.76 11.47-2.27.52-.22.75-.83.52-1.34-.22-.49-.8-.71-1.3-.5-3.39 1.4-6.98 2.11-10.69 2.11-3.35 0-6.61-.58-9.71-1.73-.51-.19-1.07.05-1.28.55-.21.52.04 1.13.57 1.32z"></path><path d="m59.21 22.01c-.51.19-.76.74-.59 1.26.92 2.81 1.39 5.74 1.39 8.73 0 1.96-.2 3.91-.6 5.81-.11.53.2 1.05.73 1.19.55.14 1.11-.2 1.22-.75.43-2.04.65-4.14.65-6.24 0-3.21-.5-6.36-1.49-9.38-.18-.53-.77-.81-1.3-.61z"></path><path d="m20.33 6.54c3.67-1.69 7.59-2.54 11.67-2.54 2.99 0 5.93.47 8.73 1.39.52.17 1.07-.09 1.26-.59.19-.53-.08-1.12-.61-1.3-3.02-.99-6.17-1.49-9.38-1.49-4.38 0-8.59.92-12.53 2.73-.51.23-.72.86-.46 1.36.24.49.82.68 1.32.45z"></path><path d="m32 46c7.72 0 14-6.28 14-14s-6.28-14-14-14-14 6.28-14 14 6.28 14 14 14zm2.98-23.42c-.21-1.09-.84-1.99-1.74-2.51 6.04.62 10.76 5.74 10.76 11.94 0 .18-.02.35-.03.52-.24-.24-.41-.56-.48-.94-.17-.85-.62-1.62-1.28-2.18-.93-.75-2.13-.97-3.22-.59l-4.09 1.49c-.68.25-1.45-.17-1.75-.95l-.31-.82c-.26-.69-.1-1.49.4-1.93l.64-.57c.95-.85 1.37-2.14 1.12-3.46zm-5.44-2.32c.76.63 1.58 1.1 2.46 1.42.52.19.9.67 1.02 1.28.12.62-.06 1.21-.49 1.59l-.64.57c-1.12 1-1.49 2.66-.93 4.14l.32.83c.7 1.81 2.59 2.74 4.31 2.11l4.07-1.48c.59-.21 1.06.07 1.28.25.3.25.51.61.59 1.01.23 1.26 1.07 2.28 2.16 2.73-1.22 5.33-5.99 9.31-11.69 9.31-1.91 0-3.71-.46-5.32-1.26l2.09-.03c.76 0 1.52-.21 2.21-.61 1.41-.86 2.22-2.41 2.11-4.07-.18-2.39-2.21-4.17-4.61-4.05l-1.4.09c-.75.05-1.46-.26-1.94-.84-.49-.58-.67-1.34-.5-2.09l.3-1.33c.48-1.95-.22-4.03-1.77-5.31l-.3-.25c1.69-1.99 4.02-3.43 6.67-3.99zm-7.65 5.78c.97.79 1.4 2.08 1.1 3.31l-.3 1.34c-.32 1.36.02 2.76.92 3.83.9 1.06 2.21 1.62 3.59 1.54l1.39-.09c1.33-.07 2.41.91 2.51 2.2.06.9-.38 1.75-1.14 2.21-.37.21-.77.33-1.2.33l-2.67.04c-.86 0-1.69-.06-2.48-.19-2.22-2.18-3.6-5.21-3.6-8.56 0-2.24.63-4.33 1.7-6.12l.19.16z"></path></svg>