<svg xmlns="http://www.w3.org/2000/svg" xmlns:xlink="http://www.w3.org/1999/xlink" xmlns:svgjs="http://svgjs.dev/svgjs" id="Capa_1" x="0px" y="0px" viewBox="0 0 512 512" style="enable-background:new 0 0 512 512;" xml:space="preserve" width="300" height="300"><g width="100%" height="100%" transform="matrix(1,0,0,1,0,0)"><g>	<g>		<path style="stroke-linecap: round; stroke-linejoin: round; stroke-miterlimit: 10;" d="&#10;&#9;&#9;&#9;M98.554,224.266c0-15.022,6.85-28.445,17.597-37.314c8.359-6.898,19.075-11.042,30.759-11.042&#10;&#9;&#9;&#9;c16.122,0,30.401,7.889,39.187,20.018" fill="none" fill-opacity="1" stroke="#ffffff" stroke-opacity="1" data-original-stroke-color="#000000ff" stroke-width="15" data-original-stroke-width="15"></path>		<path style="stroke-linecap: round; stroke-linejoin: round; stroke-miterlimit: 10;" d="&#10;&#9;&#9;&#9;M205.132,223.847c-6.936,5.724-15.827,9.162-25.522,9.162c-13.377,0-25.224-6.546-32.514-16.609" fill="none" fill-opacity="1" stroke="#ffffff" stroke-opacity="1" data-original-stroke-color="#000000ff" stroke-width="15" data-original-stroke-width="15"></path>		<path style="stroke-linecap: round; stroke-linejoin: round; stroke-miterlimit: 10;" d="&#10;&#9;&#9;&#9;M178.941,233.009c0,12.464-5.684,23.601-14.601,30.96c-6.936,5.724-15.827,9.162-25.522,9.162" fill="none" fill-opacity="1" stroke="#ffffff" stroke-opacity="1" data-original-stroke-color="#000000ff" stroke-width="15" data-original-stroke-width="15"></path>		<path style="stroke-linecap: round; stroke-linejoin: round; stroke-miterlimit: 10;" d="&#10;&#9;&#9;&#9;M159.134,267.613c9.435,0,17.865,4.302,23.436,11.052c4.333,5.25,6.935,11.98,6.935,19.319" fill="none" fill-opacity="1" stroke="#ffffff" stroke-opacity="1" data-original-stroke-color="#000000ff" stroke-width="15" data-original-stroke-width="15"></path>		<path style="stroke-linecap: round; stroke-linejoin: round; stroke-miterlimit: 10;" d="&#10;&#9;&#9;&#9;M166.843,118.486c29.21,0,52.89,23.68,52.89,52.89" fill="none" fill-opacity="1" stroke="#ffffff" stroke-opacity="1" data-original-stroke-color="#000000ff" stroke-width="15" data-original-stroke-width="15"></path>		<path style="stroke-linecap: round; stroke-linejoin: round; stroke-miterlimit: 10;" d="&#10;&#9;&#9;&#9;M136.579,333.824c-29.21,0-52.89-23.68-52.89-52.89c0-15.81,6.937-29.999,17.932-39.691" fill="none" fill-opacity="1" stroke="#ffffff" stroke-opacity="1" data-original-stroke-color="#000000ff" stroke-width="15" data-original-stroke-width="15"></path>		<path style="stroke-linecap: round; stroke-linejoin: round; stroke-miterlimit: 10;" d="&#10;&#9;&#9;&#9;M210.666,329.884c25.037,0,45.334,20.297,45.334,45.334" fill="none" fill-opacity="1" stroke="#ffffff" stroke-opacity="1" data-original-stroke-color="#000000ff" stroke-width="15" data-original-stroke-width="15"></path>		<path style="stroke-linecap: round; stroke-linejoin: round; stroke-miterlimit: 10;" d="&#10;&#9;&#9;&#9;M235.437,113.757C247.818,121.85,256,135.835,256,151.732" fill="none" fill-opacity="1" stroke="#ffffff" stroke-opacity="1" data-original-stroke-color="#000000ff" stroke-width="15" data-original-stroke-width="15"></path>		<path style="stroke-linecap: round; stroke-linejoin: round; stroke-miterlimit: 10;" d="&#10;&#9;&#9;&#9;M235.437,234.083C247.818,242.176,256,256.161,256,272.057" fill="none" fill-opacity="1" stroke="#ffffff" stroke-opacity="1" data-original-stroke-color="#000000ff" stroke-width="15" data-original-stroke-width="15"></path>		<path style="stroke-linecap: round; stroke-linejoin: round; stroke-miterlimit: 10;" d="&#10;&#9;&#9;&#9;M413.446,224.266c0-15.022-6.85-28.445-17.597-37.314c-8.359-6.898-19.075-11.042-30.759-11.042&#10;&#9;&#9;&#9;c-16.122,0-30.401,7.889-39.187,20.018" fill="none" fill-opacity="1" stroke="#ffffff" stroke-opacity="1" data-original-stroke-color="#000000ff" stroke-width="15" data-original-stroke-width="15"></path>		<path style="stroke-linecap: round; stroke-linejoin: round; stroke-miterlimit: 10;" d="&#10;&#9;&#9;&#9;M306.868,223.847c6.936,5.724,15.827,9.162,25.522,9.162c13.377,0,25.224-6.546,32.514-16.609" fill="none" fill-opacity="1" stroke="#ffffff" stroke-opacity="1" data-original-stroke-color="#000000ff" stroke-width="15" data-original-stroke-width="15"></path>		<path style="stroke-linecap: round; stroke-linejoin: round; stroke-miterlimit: 10;" d="&#10;&#9;&#9;&#9;M333.059,233.009c0,12.464,5.684,23.601,14.601,30.96c6.936,5.724,15.827,9.162,25.522,9.162" fill="none" fill-opacity="1" stroke="#ffffff" stroke-opacity="1" data-original-stroke-color="#000000ff" stroke-width="15" data-original-stroke-width="15"></path>		<path style="stroke-linecap: round; stroke-linejoin: round; stroke-miterlimit: 10;" d="&#10;&#9;&#9;&#9;M352.866,267.613c-9.435,0-17.865,4.302-23.436,11.052c-4.333,5.25-6.935,11.98-6.935,19.319" fill="none" fill-opacity="1" stroke="#ffffff" stroke-opacity="1" data-original-stroke-color="#000000ff" stroke-width="15" data-original-stroke-width="15"></path>		<path style="stroke-linecap: round; stroke-linejoin: round; stroke-miterlimit: 10;" d="&#10;&#9;&#9;&#9;M398.047,171.376c0-29.21-23.68-52.89-52.89-52.89s-52.89,23.68-52.89,52.89" fill="none" fill-opacity="1" stroke="#ffffff" stroke-opacity="1" data-original-stroke-color="#000000ff" stroke-width="15" data-original-stroke-width="15"></path>		<path style="stroke-linecap: round; stroke-linejoin: round; stroke-miterlimit: 10;" d="&#10;&#9;&#9;&#9;M375.421,333.824c29.21,0,52.89-23.68,52.89-52.89c0-15.81-6.937-29.999-17.932-39.691" fill="none" fill-opacity="1" stroke="#ffffff" stroke-opacity="1" data-original-stroke-color="#000000ff" stroke-width="15" data-original-stroke-width="15"></path>		<path style="stroke-linecap: round; stroke-linejoin: round; stroke-miterlimit: 10;" d="&#10;&#9;&#9;&#9;M301.334,329.884c-25.037,0-45.334,20.297-45.334,45.334" fill="none" fill-opacity="1" stroke="#ffffff" stroke-opacity="1" data-original-stroke-color="#000000ff" stroke-width="15" data-original-stroke-width="15"></path>		<path style="stroke-linecap: round; stroke-linejoin: round; stroke-miterlimit: 10;" d="&#10;&#9;&#9;&#9;M276.563,113.757C264.182,121.85,256,135.835,256,151.732" fill="none" fill-opacity="1" stroke="#ffffff" stroke-opacity="1" data-original-stroke-color="#000000ff" stroke-width="15" data-original-stroke-width="15"></path>		<path style="stroke-linecap: round; stroke-linejoin: round; stroke-miterlimit: 10;" d="&#10;&#9;&#9;&#9;M276.563,234.083C264.182,242.176,256,256.161,256,272.057" fill="none" fill-opacity="1" stroke="#ffffff" stroke-opacity="1" data-original-stroke-color="#000000ff" stroke-width="15" data-original-stroke-width="15"></path>		<path style="stroke-linecap: round; stroke-linejoin: round; stroke-miterlimit: 10;" d="&#10;&#9;&#9;&#9;M143.65,123.84c7-3.43,14.87-5.35,23.19-5.35c0-26.71,21.65-48.36,48.36-48.36c17.16,0,32.22,8.94,40.8,22.42&#10;&#9;&#9;&#9;c8.58-13.48,23.64-22.42,40.8-22.42c26.71,0,48.36,21.65,48.36,48.36c29.21,0,52.89,23.68,52.89,52.89&#10;&#9;&#9;&#9;c0,5.39-0.81,10.59-2.31,15.48c10.81,8.87,17.71,22.33,17.71,37.41c0,5.97-1.1,11.7-3.08,16.98c11,9.69,17.94,23.87,17.94,39.68&#10;&#9;&#9;&#9;c0,13-4.69,24.89-12.46,34.09c3.08,6.37,4.82,13.52,4.82,21.07c0,21.2-13.65,39.2-32.63,45.73c0,0.14,0.01,0.29,0.01,0.44&#10;&#9;&#9;&#9;c0,20.03-16.23,36.27-36.26,36.27c-2.13,0-4.21-0.2-6.24-0.55c-9.45,14.39-25.72,23.89-44.22,23.89&#10;&#9;&#9;&#9;c-19.24,0-36.08-10.28-45.33-25.64c-9.25,15.36-26.09,25.64-45.33,25.64c-18.5,0-34.77-9.5-44.22-23.89&#10;&#9;&#9;&#9;c-2.03,0.35-4.11,0.55-6.24,0.55c-20.03,0-36.26-16.24-36.26-36.27c0-0.15,0.01-0.3,0.01-0.44&#10;&#9;&#9;&#9;c-18.98-6.53-32.63-24.53-32.63-45.73c0-7.55,1.74-14.7,4.82-21.07c-7.77-9.2-12.46-21.09-12.46-34.09&#10;&#9;&#9;&#9;c0-15.81,6.94-29.99,17.94-39.68c-1.98-5.28-3.08-11.01-3.08-16.98c0-15.08,6.9-28.54,17.71-37.41&#10;&#9;&#9;&#9;c-1.5-4.89-2.31-10.09-2.31-15.48c0-8.27,1.9-16.1,5.29-23.07" fill="none" fill-opacity="1" stroke="#ffffff" stroke-opacity="1" data-original-stroke-color="#000000ff" stroke-width="15" data-original-stroke-width="15"></path>					<line style="stroke-linecap: round; stroke-linejoin: round; stroke-miterlimit: 10;" x1="256" y1="92.546" x2="256" y2="416.229" fill="none" fill-opacity="1" stroke="#ffffff" stroke-opacity="1" data-original-stroke-color="#000000ff" stroke-width="15" data-original-stroke-width="15"></line>		<path style="stroke-linecap: round; stroke-linejoin: round; stroke-miterlimit: 10;" d="&#10;&#9;&#9;&#9;M33.76,317.992V47.91c0-22.32,18.09-40.41,40.41-40.41h363.66c22.32,0,40.41,18.09,40.41,40.41v105.65" fill="none" fill-opacity="1" stroke="#ffffff" stroke-opacity="1" data-original-stroke-color="#000000ff" stroke-width="15" data-original-stroke-width="15"></path>		<path style="stroke-linecap: round; stroke-linejoin: round; stroke-miterlimit: 10;" d="&#10;&#9;&#9;&#9;M478.24,188.56v275.53c0,22.32-18.09,40.41-40.41,40.41H74.17c-22.32,0-40.41-18.09-40.41-40.41V352.992" fill="none" fill-opacity="1" stroke="#ffffff" stroke-opacity="1" data-original-stroke-color="#000000ff" stroke-width="15" data-original-stroke-width="15"></path>		<path style="stroke-linecap: round; stroke-linejoin: round; stroke-miterlimit: 10;" d="&#10;&#9;&#9;&#9;M136.76,80.232H80.191c-5.579,0-10.102-4.523-10.102-10.102V49.927c0-5.579,4.523-10.102,10.102-10.102h56.569&#10;&#9;&#9;&#9;c5.579,0,10.102,4.523,10.102,10.102V70.13C146.862,75.709,142.339,80.232,136.76,80.232z" fill="none" fill-opacity="1" stroke="#ffffff" stroke-opacity="1" data-original-stroke-color="#000000ff" stroke-width="15" data-original-stroke-width="15"></path>					<line style="stroke-linecap: round; stroke-linejoin: round; stroke-miterlimit: 10;" x1="70.089" y1="439.85" x2="112.557" y2="439.85" fill="none" fill-opacity="1" stroke="#ffffff" stroke-opacity="1" data-original-stroke-color="#000000ff" stroke-width="15" data-original-stroke-width="15"></line>					<line style="stroke-linecap: round; stroke-linejoin: round; stroke-miterlimit: 10;" x1="70.089" y1="472.175" x2="89.323" y2="472.175" fill="none" fill-opacity="1" stroke="#ffffff" stroke-opacity="1" data-original-stroke-color="#000000ff" stroke-width="15" data-original-stroke-width="15"></line>					<line style="stroke-linecap: round; stroke-linejoin: round; stroke-miterlimit: 10;" x1="441.911" y1="439.85" x2="399.443" y2="439.85" fill="none" fill-opacity="1" stroke="#ffffff" stroke-opacity="1" data-original-stroke-color="#000000ff" stroke-width="15" data-original-stroke-width="15"></line>					<line style="stroke-linecap: round; stroke-linejoin: round; stroke-miterlimit: 10;" x1="441.911" y1="472.175" x2="422.677" y2="472.175" fill="none" fill-opacity="1" stroke="#ffffff" stroke-opacity="1" data-original-stroke-color="#000000ff" stroke-width="15" data-original-stroke-width="15"></line>	</g></g><g></g><g></g><g></g><g></g><g></g><g></g><g></g><g></g><g></g><g></g><g></g><g></g><g></g><g></g><g></g></g></svg>