<svg xmlns="http://www.w3.org/2000/svg" clip-rule="evenodd" fill-rule="evenodd" height="512" viewBox="0 0 6.82666 6.82666" width="512"><g id="Layer_x0020_1"><g id="_208835776"><path id="_208836424" d="m3.11925 2.70207c-.407791 0-.804996.211571-1.02314.589402-.157476.272709-.199264.590488-.117783.894748.0814921.304256.276614.558461.549323.715949.27285.157488.590614.199386.894874.11778.304138-.0814921.558461-.276606.715949-.549323.157504-.272835.199268-.590614.117783-.894748-.0814606-.304264-.27661-.558579-.549445-.716071-.185114-.106945-.387697-.157732-.587559-.157736zm-.0041378 2.49899c-.228614 0-.454213-.0599213-.657622-.177339-.305098-.176248-.523496-.460772-.614724-.801205-.0912283-.340437-.0443346-.695972.131787-1.0012.363839-.630083 1.17233-.846764 1.80241-.482941l.00000787-.00000394c.30524.176122.523614.460776.614843.801209.0912283.340433.0443307.695972-.131791 1.0012-.17622.305232-.460772.523504-.801209.614732-.113614.0304449-.229106.0455512-.343705.0455472z"></path><path id="_208836808" d="m3.11851 3.11083c-.0668701 0-.134106.00877559-.200484.0265591-.198646.0532244-.364677.180626-.467476.358701-.102787.178071-.130205.385504-.0769764.584161.0532283.198654.180626.364673.358823.467472.178083.102917.3855.130205.584161.0769764.198673-.0532283.364669-.18063.467472-.358705.102811-.178075.130205-.385622.0769764-.58428-.0532008-.198535-.18063-.364673-.358827-.467472l.00000394-.00000394c-.1185-.0684528-.250303-.103406-.383673-.103409zm-.00265748 1.68074c-.157748.00011811-.313417-.0412913-.453614-.122291-.210583-.121555-.36126-.31778-.42411-.552732-.0629606-.234839-.0306929-.480142.0908622-.690614.121571-.210594.317902-.361138.552736-.42411.234839-.0628504.480138-.0305709.69061.0909882l.00000394-.00000394c.21061.121555.36126.31778.42411.552614.0629921.234827.0306929.480138-.0908622.690732-.121539.210591-.317906.361142-.552736.424114-.0784331.0209488-.157976.0313031-.237.0313031z"></path><path id="_208836328" d="m2.3257 4.93676-.659783 1.14274c-.0227717.0394646-.0287598.0856299-.016815.130087.011937.0444528.040189.0814843.0796496.104264.0394724.0227717.085748.0288622.130209.0169252.0444803-.011937.0814843-.0401929.10426-.0796575l.661528-1.14591c-.0574961-.0231417-.113421-.0504252-.16726-.0814843-.0455433-.026311-.0896417-.0554173-.131787-.0869646zm-.511685 1.5403c-.0528622 0-.106335-.0133976-.155421-.0416575-.0718465-.0415394-.123382-.10889-.145059-.189524-.0215551-.0806299-.0105984-.164673.0309331-.236535l.700496-1.21339c.0104685-.0180315.0283661-.0305709.0488268-.0341024.0205906-.00341732.0415354.00231496.0574882.0158307.0545827.0465276.114008.0884291.176492.124484.0702795.0405551.144701.0740551.221433.0992677.0199961.00669685.0360512.0219252.0436024.0416575.00744094.0197283.00572441.0417756-.00487008.0600433l-.703154 1.21801c-.0577165.100004-.16285.155913-.270768.155913z"></path><path id="_208836880" d="m.979203 3.59987c-.0252087 0-.0495787-.0136417-.062126-.0375157-.0180039-.0343504-.00487008-.0767323.0294764-.0947598l.0042874-.0023189c.179283-.0940276.210815-.135803.216295-.147256.00733071-.033374.0294764-.0580945.059685-.0662559.0590748-.0162087.102189.0319094.161752.0984173.0213307.0237441.0565157.0630866.0716181.0721024.040563.0109646.137508.00146457.220091-.0457953.0296024-.016937.0344724-.026189.0344724-.0263071.00074803-.00572835-.00645669-.0282598-.0116929-.0447047-.00279528-.00852756-.00560236-.0175394-.00840157-.0270394-.0144843-.0489646-.0345945-.104016-.0471417-.137268-.16137-.0544488-.182579-.0917165-.190862-.106213-.0154528-.0229055-.0822126-.0654055-.101949-.0559094-.0834173.0393465-.148843.0499409-.255657-.00645276-.0227756-.0119409-.119244.0186339-.191106.0606575-.0334803.0194843-.0764921.00816142-.0959803-.0253346-.0194724-.033374-.00816142-.0763701.0252126-.0958543.0499449-.0291142.221071-.119736.327402-.0635827.0587283.0309331.0781969.0281378.130209.00365354.107311-.0506772.239335.0473819.278921.105602.0192677.0132717.0861142.0405591.148354.0601693.0201063.00632677.0362992.021437.0440945.0409252.0016063.00401575.0387283.097685.0630906.179776.00245276.00852756.00499606.0165669.00743307.0242402.0211929.0663819.0501772.157244-.0867244.235441-.105213.0601732-.245185.0842874-.332882.0574921-.0419961-.0127913-.0781969-.0507913-.133008-.111937-.00594882-.00669685-.0129094-.0144961-.0199764-.0221654-.0434685.0490787-.122531.102071-.24811.167839l-.00424409.00231496c-.0103583.00548031-.0215748.00803937-.0325315.00803937z"></path><path id="_208836976" d="m4.9307961 5.353929c-.0180039 0-.0360551-.00694094-.0498189-.0207047-.0272717-.0275276-.0270394-.0719843.00048425-.0992638.12865-.127531.131425-.326673.111091-.47137-.0185079-.131429-.0605394-.24872-.0866063-.306335-.0321535.011937-.0777087.0299685-.119732.0465315-.301079.119118-.559795.215713-.675508.193055l-.0018189-.00037008c-.00011024 0-.00135039-.00024016-.00135039-.00024016-.0381102-.00694882-.0634528-.0434843-.0565118-.0816063.00708268-.038126.0434843-.0634567.0816063-.0565157l-.0125354.0690551.0136496-.068815.0041378.00073228c.0847638.0169331.443465-.125209.596689-.185744.174795-.069063.191835-.0751496.223748-.0655276.0281378.00864173.0490866.0286181.0851417.114.0236535.0560315.0456732.12339.0621142.18965.0446024.179524.0874567.512291-.125331.72313-.0137638.0136417-.0315472.0203425-.0494488.0203386zm-.235189.0186378c.00035433.00012205.00084252.00024803.00120866.00048819-.0004685-.00024803-.00085827-.00036614-.00120866-.00048819zm-.0195984.137638c-.0065748 0-.0131772-.00097244-.0197559-.00292126-.0362874-.0104843-.367839-.180268-.574169-.286724-.0582047.00170472-.20024-.00170472-.268815-.0662559-.0277638-.0260748-.0423858-.0594409-.0423858-.0964685.00001575-.0498189-.0144961-.0766142-.0274055-.100244-.018374-.0341063-.00584646-.0766102.0282559-.095126.0341063-.0183937.0766142-.00584646.0951299.0282598.0210827.0388504.0436024.0866024.0443346.163091.0205984.0175354.107913.0302047.182335.0259409.0125591-.00085433.0252126.00182677.0362953.00767717.199535.102917.52874.270886.567594.285748.0360551.0115669.0565157.049811.0459173.0863504-.00901181.0306929-.0370276.0506732-.0673307.0506732z"></path><path id="_208836736" d="m4.43556 3.94152c.0699055.0176575.144693.028626.198402.0350787l.00000787-.0527362c0-.0708937-.106094-.240799-.185752-.345551l-.0550551-.033626c.034122.129118.0484764.262858.0423976.396835zm.268567.182583c-.00158661 0-.00317323 0-.00475591-.00011811-.00839764-.00061417-.206449-.0146181-.359071-.0637047-.0312992-.0101142-.0513976-.040437-.0484764-.0730787.0193661-.214984-.0208268-.431421-.115957-.625819-.015815-.0324016-.00462598-.0714961.0260709-.0904961.0305748-.0190039.0706417-.0116929.0925669.0168071.0163307.0211929.0275276.0399528.0349528.0537165l.203063.123866c.00731496.00438976.013626.0102362.0188622.016937.0372913.0479843.222894.294882.222894.44165l.00000787.130079c0 .0194921-.00804331.038126-.0222953.0512835-.0130276.0121772-.0300866.018878-.0478622.018878z"></path><path id="_208837024" d="m5.63165 2.98234c-.0381457 0-.0741969-.0065748-.105382-.0230197-.100346-.0531063-.141654-.0487205-.231421-.00633465-.149555.0705236-.337756-.0823386-.382335-.153346-.0237362-.0208307-.135075-.0674803-.24226-.101217-.0200945-.00633858-.0362992-.0214409-.0440945-.0410472-.00241339-.00585039-.0583425-.147138-.095-.270886-.00388189-.0131535-.00779528-.0255787-.0116969-.0375118-.0315433-.0990315-.0673543-.211331.115591-.315835.172606-.0986614.371374-.117173.478437-.0844055.054685.0166811.106815.0716181.185988.160043.0180276.0202165.0412874.0461654.0612677.0666299.0599409-.0819803.19415-.137028.306209-.182949.0337598-.0137638.0655276-.0269173.0836772-.0364173.0343543-.0179055.0767323-.00474803.0947598.0294724.0180276.0343504.00475197.0767362-.0294764.0947638-.0239961.0126614-.057248.026185-.0957362.0420236-.0544331.0224094-.122287.0501811-.175028.0805079-.0702559.040315-.0755157.0629724-.0755157.0632165-.0110748.0551732-.0492087.071252-.0650433.0756378-.068311.0186299-.124602-.0442126-.209622-.13922-.0370197-.0414134-.0990197-.110594-.12302-.119728-.075248-.0228976-.23739-.00194882-.36735.0722283-.0290866.016685-.0650394.0411693-.0697953.0629724-.00398819.0181417.00633858.0507874.0183937.0884252.0040315.0127795.00840551.026189.0125512.040437.0249724.0844055.0606535.180268.0789252.228256.164441.0540748.260894.104752.287083.150791.0200039.0344685.144461.128012.203169.10024.119-.0561535.206815-.0701575.356874.00913386.0570079.0300827.226551-.0348307.327157-.0932953.0333937-.0194921.0763701-.00816142.0958583.0253307.0195039.0334961.00816142.076374-.0253346.0958583-.0404213.023626-.21352.119244-.357831.119244z"></path><path id="_208837048" d="m3.07993 1.76956s-.00002756.00000394 0 0zm-.683677.355047c-.0817244.107551-.190638.28222-.190638.355059.00000394.0494449.00535827.0880591.0113268.115587.183091-.0489685.346646-.125701.359189-.171618.0425118-.156638.197563-.172106.277343-.158098.0299882.00218898.0788071-.00304724.0964685-.019126.00258268-.00231102.0062126-.00572047.0062126-.0182677.00001575-.0903819.0179016-.144213.030937-.183429.00645669-.019252.0115669-.0345945.0131535-.050063.00840551-.0774685.00340945-.103287-.00243307-.111205-.0273937-.0198543-.0395866-.0477441-.0494528-.0702756-.00559449-.0127953-.0120591-.0274094-.0175394-.0303346-.00194882-.00109449-.0208307-.00974016-.0840433.0106024-.157484.0505394-.205236.161748-.207181.1665-.0056063.014248-.0154724.0257008-.028626.0336181l-.214717.131051zm-.225957.624602c-.0255709 0-.0496969-.0140079-.062-.0373937-.00437795-.0082874-.0429961-.0857441-.0429961-.23215.00000394-.149575.189768-.402071.227768-.451157.00523622-.00670079.0116929-.0124213.0190039-.0169291l.208406-.127157c.0271575-.0504252.106933-.167843.283303-.224602.179051-.0576142.239949.0215591.273079.0970748.00233071.00523622.00535827.0121811.00742913.0159528.0749252.0578583.0628504.169673.0555433.236906-.00328346.0304488-.0115748.0552992-.0194921.0791693-.011689.0351969-.0238701.0715-.0238701.13922.00001575.0489606-.0180276.0912283-.052378.122291-.0725748.0657717-.193295.0557835-.206937.0544449-.00217323-.00012992-.00426378-.00048819-.00645276-.00085433-.0160787-.00292913-.100004-.0141299-.119244.0563898-.0451811.166382-.41376.261878-.525697.287087-.0051063.00122047-.0103543.00170866-.0154646.00170866z"></path><path id="_208835896" d="m2.55859 1.45568c-.0275157 0-.0599291-.00523622-.0984213-.0176575-.15176-.0488504-.222283-.149205-.24774-.19537l-.176843-.107921c-.00646457-.0038937-.0123189-.00888583-.0171929-.0146102-.00292126-.00365748-.0745394-.0891614-.131661-.198417-.0180118-.0342244-.00475591-.0766102.0295945-.0946378.0343622-.0179094.0767362-.00474803.0946417.0295984.0405709.0774606.0900079.142142.107913.164551l.183937.112181c.0130433.00803543.023126.0200984.0287283.0343504.0013622.00315748.0411693.0947598.171622.136657.0492283.0158307.0644331.00987008.0645512.00987008.00232677-.00232283.00754724-.0142559.0105945-.0214409.00831102-.0188858.0194882-.0444528.0438504-.0629724.00512992-.0110866.00511811-.0406811 0-.087815-.00120079-.012311-.00523622-.0243622-.0108386-.0410512-.011437-.0343465-.0270433-.0813583-.0270433-.160654.00001575-.00645669-.00121654-.00755118-.00218898-.00840157-.0130315-.0116969-.0544488-.0158346-.0773465-.0136417-.0100945.00097244-.0203386-.00024409-.0299606-.00365748-.0210472-.00731102-.206945-.0760039-.247866-.226425-.0101024-.0374016.011937-.0758819.0493307-.0861181.0373898-.0101063.0758819.0119409.0861102.0493307.0157362.0577323.0984134.106457.146283.126067.0371772-.00121654.114984.00279921.167598.0504252.0316772.0286181.0483543.0674764.0483543.112421.00001575.0565118.0101142.0869646.0198583.116441.00706693.0210669.014248.042874.0172913.0700354.00597244.0555433.0170551.157488-.049815.211083-.00146063.00303937-.0035315.00767323-.00511811.0113268-.0228701.052252-.0604094.106453-.148224.106453z"></path><path id="_208836256" d="m3.62934 1.32048.209516.127764c.0131575.00804331.023248.0201024.0288504.0343543.00159449.0038937.0479843.111811.201094.16102.0621417.0200906.0800236.0108425.080752.0104764.00487402-.0026811.0113268-.0171772.0164449-.0288661.00964173-.0220512.0216772-.0494528.0485984-.069063.00535827-.00804331.00998819-.033252.00194488-.107307-.0015748-.0149843-.0065748-.0298425-.0127835-.0485984-.0127717-.0384921-.0302087-.0911063-.0302087-.179657.00000787-.0115709-.00341339-.0146142-.00572835-.016685-.0183819-.016689-.0685709-.0200984-.092685-.0182717-.0784252.0138819-.230937-.00133858-.272839-.155539-.00011024-.00036614-.0208268-.0455512-.212421-.0847756-.0534646-.0108386-.105843-.0183898-.146283-.0231378l.00002362.0527362c0 .0707677.106067.240803.185724.345551zm.667594.349319s-.00000394.00000787-.00012205.00000787c.00012205-.00000787.00011811 0 .00012205-.00000787zm-.163197.126925c-.0300906 0-.0656693-.00584646-.107933-.0194921-.172343-.0554213-.250543-.170031-.277465-.219724l-.203268-.124c-.0071811-.00450394-.0136614-.0102283-.0188937-.0169252-.0371535-.0479921-.222902-.295004-.222902-.44165l.00002362-.130209c0-.0193661.00801969-.038.0222677-.0512756.0142677-.0132835.033248-.0200984.0527441-.0186339.00487795.00024016.121067.00840157.243843.0339803.191843.0398228.292079.0984173.315587.184528.0191457.0702756.104748.0557835.114492.0539567.00222047-.00048819.00426378-.00072835.00645669-.00097638.0132756-.00134252.132031-.0110827.203406.0535945.033878.0306929.0517638.0724724.0517638.120705.00001181.0658937.0116969.101217.0230276.135445.0079252.0235039.0159528.0477441.0192441.0775866.00707087.0660157.019.175638-.054689.232764-.00193307.00365354-.00475197.0101063-.00694488.0152244-.0248307.0563937-.0654055.115102-.16076.115102z"></path><path id="_208836184" d="m3.41339 5.82713c-.346157 0-.683673-.0638228-1.00304-.18952-.0360354-.0142559-.0537165-.054937-.0395827-.0909882.0142598-.0360551.0549291-.0538346.0909803-.0395827.302925.11924.623134.179776.951634.179776 1.43275-.00000394 2.59838-1.16564 2.59838-2.59851.00002362-1.43275-1.16563-2.59838-2.59838-2.59838-1.43274-.00000394-2.59839 1.16563-2.59839 2.59838.00001575.903154.45822 1.728 1.22569 2.20655.0328858.0204567.042874.0637008.0224094.0965906-.020437.0328819-.0637008.0429921-.0965866.0224094-.387547-.241657-.711567-.579161-.936776-.975992-.23226-.409374-.355169-.875992-.355169-1.34956.00002362-.731535.284894-1.41922.802181-1.93651.517295-.517295 1.2051-.802181 1.93664-.802181.731559-.00000394 1.41923.284894 1.93652.802181.517299.517287.802181 1.20498.802181 1.93651.00002362.731539-.284894 1.41935-.802181 1.93664-.51728.517283-1.20498.802181-1.93651.802181z"></path><path id="_208835800" d="m3.01706 3.48001c-.0104685.0633386-.0292402.126681-.0475118.188795-.0690433.23398-.119732.405724.21778.534346.269201-.33398.0601693-.518996-.142024-.698043-.00947244-.00840945-.0189961-.0168071-.0282441-.0250984zm.192575.875756c-.00756299 0-.015122-.00121654-.0224291-.00377165-.514358-.173327-.424476-.478075-.352248-.722898.0330157-.111815.064189-.217531.0438465-.307299-.00754331-.0328898.00950394-.0665039.040563-.0799016.0309606-.0134016.0671102-.00280315.0859921.0252126.0255945.037878.0777087.0840433.133004.133008.198433.175756.530685.469906.123874.93178-.0135197.0154646-.0328858.0238701-.0526024.0238701z"></path><path id="_208835728" d="m3.16165 4.39816h-.00014173zm.0400709.127764c-.0222835 0-.0441102-.0104724-.057752-.0302047-.0189843-.0272874-.0158307-.0633346.00548425-.0869646.00548425-.0141299.0323976-.108768-.057248-.426669-.0104685-.0372717.0112087-.0760039.0485984-.0864764.0372913-.0106024.0760039.0112008.0864764.0484724.112917.400362.0700394.530571.014374.569299-.0121772.00852756-.026189.0125472-.0399331.0125433z"></path></g></g></svg>