<svg xmlns="http://www.w3.org/2000/svg" viewBox="0 0 64 64"><g id="_x35_0_Fauna"></g><g id="_x34_9_Eco_Food"></g><g id="_x34_8_City"></g><g id="_x34_7_Rain"></g><g id="_x34_6_Plastic_Bag"></g><g id="_x34_5_Global_Warming"></g><g id="_x34_4_Scooter"></g><g id="_x34_3_Roll_Tissue"></g><g id="_x34_2_Electric_Car"></g><g id="_x34_1_Cutting_Tree"></g><g id="_x34_0_Paperbag"></g><g id="_x33_9_Tower"></g><g id="_x33_8_Keep_Green"></g><g id="_x33_7_Bio_mass"></g><g id="_x33_6_Plant"></g><g id="_x33_5_Eco_Home"></g><g id="_x33_4_Forest"></g><g id="_x33_3_Eco_Factory"></g><g id="_x33_2_Global_Warming"></g><g id="_x33_1_Village"></g><g id="_x33_0_Solar_System"></g><g id="_x32_9_Windmill"></g><g id="_x32_8_Trash_Truck"></g><g id="_x32_7_Waste"></g><g id="_x32_6_Plastic_Polution"></g><g id="_x32_5_Bin"></g><g id="_x32_4_Paper"></g><g id="_x32_3_Tub"></g><g id="_x32_2_Radioactive"></g><g id="_x32_1_Ecotag"><g><path d="m48.313 15.899-14.192-15.022c-1.13-1.131-3.092-1.151-4.262.021l-14.152 14.981c-.973.973-1.707 2.745-1.707 4.121v41c0 1.654 1.346 3 3 3h30c1.654 0 3-1.346 3-3v-41c0-1.376-.734-3.148-1.687-4.101zm-.313 45.101c0 .552-.449 1-1 1h-30c-.551 0-1-.448-1-1v-41c0-.83.534-2.12 1.141-2.728l14.152-14.982c.187-.187.438-.29.707-.29s.52.103.687.27l14.192 15.023c.587.587 1.121 1.877 1.121 2.707z"></path><path d="m32 16c2.206 0 4-1.794 4-4s-1.794-4-4-4-4 1.794-4 4 1.794 4 4 4zm0-6c1.103 0 2 .897 2 2s-.897 2-2 2-2-.897-2-2 .897-2 2-2z"></path><path d="m26 34h3.586l1.414 1.414v3.586c0 .553.448 1 1 1s1-.447 1-1v-3.586l1.414-1.414h3.586c2.757 0 5-2.243 5-5v-4c0-.552-.448-1-1-1h-4c-2.757 0-5 2.243-5 5v3.586l-1 1-1-1v-3.586c0-2.757-2.243-5-5-5h-4c-.552 0-1 .448-1 1v4c0 2.757 2.243 5 5 5zm9-5c0-1.654 1.346-3 3-3h3v3c0 1.654-1.346 3-3 3h-1.586l2.293-2.293c.391-.391.391-1.023 0-1.414s-1.023-.391-1.414 0l-2.293 2.293zm-12-3h3c1.654 0 3 1.346 3 3v1.586l-2.293-2.293c-.391-.391-1.023-.391-1.414 0s-.391 1.023 0 1.414l2.293 2.293h-1.586c-1.654 0-3-1.346-3-3z"></path><path d="m44 43h-24c-.552 0-1 .447-1 1v14c0 .553.448 1 1 1h24c.552 0 1-.447 1-1v-14c0-.553-.448-1-1-1zm-1 14h-22v-12h22z"></path><path d="m24 55c.552 0 1-.447 1-1v-6c0-.553-.448-1-1-1s-1 .447-1 1v6c0 .553.448 1 1 1z"></path><path d="m28 55c.552 0 1-.447 1-1v-3c0-.553-.448-1-1-1s-1 .447-1 1v3c0 .553.448 1 1 1z"></path><path d="m32 55c.552 0 1-.447 1-1v-6c0-.553-.448-1-1-1s-1 .447-1 1v6c0 .553.448 1 1 1z"></path><path d="m36 51c.552 0 1-.447 1-1v-2c0-.553-.448-1-1-1s-1 .447-1 1v2c0 .553.448 1 1 1z"></path><path d="m36 55c.552 0 1-.447 1-1v-1c0-.553-.448-1-1-1s-1 .447-1 1v1c0 .553.448 1 1 1z"></path><path d="m40 52c.552 0 1-.447 1-1v-3c0-.553-.448-1-1-1s-1 .447-1 1v3c0 .553.448 1 1 1z"></path><path d="m28 49c.26 0 .52-.11.71-.29.18-.19.29-.45.29-.71 0-.271-.11-.521-.29-.71-.38-.37-1.04-.37-1.42 0-.18.189-.29.439-.29.71 0 .26.11.52.29.71.19.18.45.29.71.29z"></path><path d="m40 55c.26 0 .52-.11.71-.29.18-.19.29-.45.29-.71s-.11-.521-.29-.71c-.37-.37-1.05-.37-1.42 0-.18.189-.29.45-.29.71s.11.52.29.71c.19.18.45.29.71.29z"></path></g></g><g id="_x32_0_Go_Green"></g><g id="_x31_9_Faucet"></g><g id="_x31_8_Go_Green"></g><g id="_x31_7_Water"></g><g id="_x31_6_Ecology"></g><g id="_x31_5_World"></g><g id="_x31_4_Oil"></g><g id="_x31_3_Bicycle"></g><g id="_x31_2_Charge"></g><g id="_x31_1_Idea"></g><g id="_x31_0_World"></g><g id="_x30_9_Grow_Plant"></g><g id="_x30_8_Fuel_Station"></g><g id="_x30_7_Battery"></g><g id="_x30_6_LED"></g><g id="_x30_5_Plug"></g><g id="_x30_4_Plastic_Bottle"></g><g id="_x30_3_Bin"></g><g id="_x30_2_Battery"></g><g id="_x30_1_Recycle_Bag"></g></svg>