<svg xmlns="http://www.w3.org/2000/svg" id="Capa_1" height="512" viewBox="0 0 512 512" width="512"><g><circle cx="462" cy="401" r="10"></circle><circle cx="378.5" cy="241" r="10"></circle><path d="m267.5 251h66c5.51 0 10-4.49 10-10s-4.49-10-10-10h-66c-5.51 0-10 4.49-10 10s4.49 10 10 10z"></path><circle cx="378.5" cy="281" r="10"></circle><path d="m210.5 291h123c5.51 0 10-4.49 10-10s-4.49-10-10-10h-123c-5.51 0-10 4.49-10 10s4.49 10 10 10z"></path><circle cx="378.5" cy="321" r="10"></circle><path d="m210.5 331h123c5.51 0 10-4.49 10-10 0-5.521-4.49-10-10-10h-123c-5.51 0-10 4.479-10 10 0 5.51 4.49 10 10 10z"></path><path d="m210.5 371h123c5.51 0 10-4.49 10-10 0-5.521-4.49-10-10-10h-123c-5.51 0-10 4.479-10 10 0 5.51 4.49 10 10 10z"></path><circle cx="378.5" cy="361" r="10"></circle><path d="m508 32-40-30c-1.731-1.298-3.836-2-6-2h-335c-2.164 0-4.269.702-6 2l-40 30c-2.518 1.889-4 4.853-4 8v80c0 5.522 4.477 10 10 10h30v56.14c-8.527-2.687-17.597-4.14-27-4.14-49.626 0-90 40.374-90 90v150c0 49.626 40.374 90 90 90 21.381 0 41.041-7.5 56.499-20h315.501c2.63 0 5.21-1.07 7.07-2.931 1.86-1.859 2.93-4.439 2.93-7.069v-36c0-5.521-4.49-10-10-10s-10 4.479-10 10v26h-287.204c9.598-14.311 15.204-31.512 15.204-50v-11h238.5c5.523 0 10-4.478 10-10v-200c0-5.522-4.477-10-10-10h-248.5c-5.523 0-10 4.478-10 10v14.501c-6.449-7.975-14.228-14.83-23-20.224v-65.277h315v226c0 5.51 4.49 10 10 10s10-4.49 10-10v-226h30c5.523 0 10-4.478 10-10v-80c0-3.147-1.482-6.111-4-8zm-328 179h228.5v180h-228.5zm-20 61v129 21c0 38.598-31.402 70-70 70s-70-31.402-70-70v-150c0-38.598 31.402-70 70-70s70 31.402 70 70zm-63-227 33.333-25h328.333l33.334 25v25h-395zm395 65h-395v-20h395z"></path><path d="m50 247c-5.523 0-10 4.478-10 10v50c0 17.369 16.124 31.407 29.351 40-13.227 8.593-29.351 22.631-29.351 40v50c0 5.522 4.477 10 10 10s10-4.478 10-10h60c0 5.522 4.477 10 10 10s10-4.478 10-10v-50c0-17.369-16.124-31.407-29.351-40 13.227-8.593 29.351-22.631 29.351-40v-50c0-5.522-4.477-10-10-10s-10 4.478-10 10h-60c0-5.522-4.477-10-10-10zm10 170v-20h60v20zm55.369-40h-50.738c5.889-7.111 16.375-14.271 25.369-18.898 8.997 4.629 19.481 11.789 25.369 18.898zm-25.369-41.102c-8.997-4.629-19.481-11.789-25.37-18.898h50.738c-5.888 7.111-16.374 14.271-25.368 18.898zm30-58.898v20h-60v-20z"></path></g></svg>