<svg xmlns="http://www.w3.org/2000/svg" clip-rule="evenodd" fill-rule="evenodd" height="512" stroke-linejoin="round" stroke-miterlimit="2" viewBox="0 0 267 267" width="512"><path d="m68.342 63.026h48.611c7.857 0 14.236-6.379 14.236-14.236s-6.379-14.236-14.236-14.236h-48.611c-7.857 0-14.236 6.379-14.236 14.236s6.379 14.236 14.236 14.236zm0-4.166c-5.558 0-10.07-4.512-10.07-10.07 0-5.557 4.512-10.069 10.07-10.069h48.611c5.557 0 10.069 4.512 10.069 10.069 0 5.558-4.512 10.07-10.069 10.07z"></path><path d="m84.69 106.587c-.381-.608-1.047-.977-1.765-.977-.717 0-1.384.369-1.765.977 0 0-3.402 5.432-5.444 10.32-.975 2.333-1.618 4.569-1.618 6.156 0 4.872 3.956 8.827 8.827 8.827 4.872 0 8.827-3.955 8.827-8.827 0-1.587-.643-3.823-1.618-6.156-2.042-4.888-5.444-10.32-5.444-10.32zm-1.765 5.204c1.056 1.87 2.379 4.363 3.365 6.722.724 1.734 1.295 3.37 1.295 4.55 0 2.572-2.088 4.66-4.66 4.66s-4.66-2.088-4.66-4.66c0-1.18.571-2.816 1.296-4.55.985-2.359 2.308-4.852 3.364-6.722z"></path><path d="m110.917 124.935c-.381-.608-1.048-.977-1.765-.977-.718 0-1.385.369-1.766.977 0 0-4.95 7.903-7.921 15.014-1.374 3.286-2.301 6.43-2.301 8.665 0 6.616 5.372 11.988 11.988 11.988s11.987-5.372 11.987-11.988c0-2.235-.927-5.379-2.3-8.665-2.972-7.111-7.922-15.014-7.922-15.014zm-1.765 5.161c1.644 2.833 4.099 7.288 5.842 11.459 1.123 2.687 1.978 5.231 1.978 7.059 0 4.317-3.504 7.821-7.82 7.821-4.317 0-7.821-3.504-7.821-7.821 0-1.828.855-4.372 1.978-7.059 1.743-4.171 4.198-8.626 5.843-11.459z"></path><path d="m115.39 26.389c.001-6.52-5.285-11.806-11.805-11.806h-21.875c-6.52 0-11.806 5.286-11.806 11.806v10.248c0 1.151.933 2.084 2.084 2.084h41.319c1.151 0 2.083-.933 2.083-2.084zm-4.166 0v8.165h-37.153v-8.165c0-4.219 3.42-7.639 7.639-7.639h21.875c4.219 0 7.639 3.42 7.639 7.639z"></path><path d="m198.151 127.514c-.068-.018-.137-.033-.207-.045-6.47-1.044-13.067-1.044-19.538 0-.07.012-.139.027-.207.045-5.729 1.535-9.146 5.097-10.251 10.687-4.574 1.857-8.871 4.338-12.769 7.372-5.39-1.84-10.183-.662-14.377 3.532-.05.05-.098.103-.142.157-4.141 5.082-7.439 10.795-9.769 16.921-.026.066-.047.133-.066.202-1.535 5.729-.158 10.469 4.13 14.221-.678 4.889-.678 9.852 0 14.744-4.288 3.748-5.665 8.488-4.13 14.217.019.069.04.136.066.202 2.33 6.126 5.628 11.839 9.769 16.92.044.055.092.108.142.158 4.194 4.194 8.987 5.372 14.381 3.534 3.895 3.032 8.192 5.513 12.768 7.372 1.102 5.588 4.519 9.15 10.248 10.685.068.018.137.033.207.045 6.471 1.044 13.068 1.044 19.538 0 .07-.012.139-.027.207-.045 5.729-1.535 9.146-5.097 10.252-10.687 4.573-1.857 8.871-4.338 12.768-7.372 5.39 1.84 10.184.662 14.378-3.532.05-.05.097-.103.142-.158 4.14-5.081 7.438-10.794 9.769-16.92.025-.066.047-.133.065-.202 1.535-5.729.159-10.469-4.13-14.221.679-4.889.679-9.852.001-14.744 4.288-3.748 5.664-8.488 4.129-14.217-.018-.069-.04-.136-.065-.202-2.331-6.126-5.629-11.839-9.769-16.921-.045-.054-.092-.107-.142-.157-4.194-4.194-8.988-5.372-14.381-3.534-3.895-3.032-8.193-5.513-12.768-7.372-1.103-5.588-4.52-9.15-10.249-10.685zm-.977 4.052c4.284 1.181 6.717 3.985 7.299 8.411.1.76.609 1.403 1.325 1.676 4.954 1.884 9.574 4.551 13.683 7.899.594.484 1.405.603 2.113.31 4.114-1.704 7.751-1.007 10.91 2.092 3.823 4.704 6.857 9.956 9.014 15.585 1.128 4.326-.083 7.835-3.626 10.552-.607.467-.91 1.229-.788 1.985.845 5.233.845 10.567 0 15.8-.122.756.181 1.518.788 1.985 3.534 2.711 4.748 6.209 3.644 10.494-2.163 5.663-5.194 10.916-8.991 15.599-3.181 3.139-6.826 3.845-10.951 2.136-.708-.293-1.519-.174-2.113.31-4.109 3.348-8.729 6.015-13.683 7.899-.716.273-1.225.916-1.325 1.676-.581 4.415-3.003 7.216-7.266 8.402-5.985.959-12.051.96-18.004.013-4.31-1.185-6.743-3.989-7.326-8.415-.1-.76-.609-1.403-1.325-1.676-4.954-1.884-9.573-4.551-13.682-7.899-.594-.484-1.406-.603-2.114-.31-4.114 1.704-7.75 1.007-10.909-2.092-3.824-4.704-6.858-9.956-9.014-15.585-1.129-4.326.083-7.835 3.625-10.552.608-.467.911-1.229.789-1.985-.845-5.233-.845-10.567 0-15.8.122-.756-.181-1.518-.789-1.985-3.533-2.711-4.747-6.209-3.643-10.494 2.162-5.663 5.194-10.916 8.99-15.599 3.182-3.139 6.827-3.845 10.951-2.136.708.293 1.52.174 2.114-.31 4.109-3.348 8.728-6.015 13.682-7.899.716-.273 1.225-.916 1.325-1.676.581-4.415 3.003-7.216 7.266-8.402 5.986-.959 12.051-.96 18.004-.013zm-8.999 24.312c-17.715 0-32.098 14.382-32.098 32.098s14.383 32.098 32.098 32.098c17.716 0 32.099-14.382 32.099-32.098s-14.383-32.098-32.099-32.098zm0 4.166c15.416 0 27.932 12.516 27.932 27.932s-12.516 27.932-27.932 27.932-27.931-12.516-27.931-27.932 12.515-27.932 27.931-27.932z"></path><path d="m145.92 228.546c.406-.445.599-1.044.53-1.642-.069-.599-.393-1.138-.889-1.479-.59-.406-1.164-.886-1.725-1.437-3.813-4.695-6.847-9.947-9.003-15.575-1.129-4.326.083-7.835 3.625-10.552.608-.467.911-1.229.789-1.985-.845-5.233-.845-10.567 0-15.8.122-.756-.181-1.518-.789-1.985-3.533-2.711-4.747-6.209-3.643-10.494 2.162-5.663 5.194-10.917 8.99-15.599 2.992-2.953 6.387-3.767 10.213-2.419.808.285 1.708.046 2.269-.602.56-.648.667-1.573.268-2.331-5.344-10.177-13.066-18.905-22.446-25.439-5.066-3.55-8.359-9.116-9.031-15.271 0 0-4.941-45.269-4.941-45.269-.123-1.13-1.129-1.952-2.26-1.849-.305.028-.613.042-.924.042h-48.611c-.313 0-.623-.015-.929-.043-1.131-.103-2.137.718-2.261 1.847-1.343 12.198-3.601 32.563-5.09 45.238-.001.006-.002.012-.002.017-.667 6.11-3.936 11.636-8.969 15.163-.002.002-.005.004-.007.005-18.466 13.059-30.532 34.582-30.532 58.901 0 39.791 32.305 72.095 72.095 72.095 21.093 0 40.083-9.077 53.273-23.537zm-29.717-165.52 4.733 43.363c.802 7.347 4.734 13.992 10.787 18.234.001.001.003.002.005.003 7.629 5.314 14.094 12.171 18.958 20.117-3.601-.075-6.896 1.374-9.884 4.362-.05.05-.098.103-.142.157-4.141 5.082-7.439 10.795-9.769 16.921-.026.066-.047.133-.066.202-1.535 5.729-.158 10.469 4.13 14.221-.678 4.889-.678 9.852 0 14.744-4.288 3.748-5.665 8.488-4.13 14.217.019.069.04.136.066.202 2.33 6.126 5.628 11.839 9.769 16.92l.663.66c-12.345 12.685-29.597 20.568-48.676 20.568-37.49 0-67.928-30.438-67.928-67.929 0-22.915 11.371-43.194 28.771-55.499 6.004-4.208 9.91-10.806 10.71-18.103 1.415-12.045 3.524-31.026 4.883-43.36h47.12z"></path><path d="m135.493 165.893c.289-.688.187-1.478-.266-2.071s-1.188-.898-1.928-.8c-2.562.338-5.119 1.137-7.626 2.513-7.472 4.098-16.48 9.192-25.661 13.423-.737.339-1.209 1.075-1.212 1.886-.002.811.466 1.55 1.201 1.893 15.931 7.452 26.084 13.19 34.352 17.116.825.392 1.81.201 2.428-.472.488-.531 1.048-1.037 1.677-1.52.608-.467.911-1.229.789-1.985-.845-5.233-.845-10.567 0-15.8.122-.756-.181-1.518-.789-1.985-3.533-2.711-4.747-6.209-3.643-10.494.223-.594.446-1.151.678-1.704zm-5.018 2.054c-.905 5.034.588 9.254 4.48 12.659-.678 4.89-.678 9.853 0 14.746-.041.033-.083.07-.125.108-7.31-3.549-16.172-8.441-29.08-14.613 7.871-3.84 15.468-8.116 21.927-11.659.925-.508 1.859-.919 2.798-1.241z"></path><path d="m137.619 217.325c.543-.653.635-1.57.233-2.318-1.141-2.125-2.149-4.324-3.015-6.584-.935-3.572-.317-6.583 1.944-9.042.448-.487.637-1.158.511-1.808-.126-.649-.554-1.2-1.152-1.484-9.621-4.568-21.797-11.589-42.642-20.908-1.463-.653-2.907-1.27-4.262-2.024-.071-.04-.145-.075-.22-.106-.976-.402-1.604-1.362-1.582-2.417 0-.032 0-.064 0-.095-.191-7.724-5.414-14.731-13.252-16.831-7.952-2.13-16.093 1.457-19.908 8.316-.007.012-.014.025-.021.038-.517.978-1.573 1.549-2.674 1.445h-.001c-4.926-.458-9.42-.516-13.474-.307-.9.047-1.669.667-1.904 1.538-1.312 4.862-2.013 9.975-2.013 15.25 0 32.265 26.195 58.46 58.46 58.46 18.076 0 34.248-8.221 44.972-21.123zm-4.1-1.614c-9.953 11.378-24.579 18.571-40.872 18.571-29.965 0-54.293-24.328-54.293-54.294 0-4.369.517-8.619 1.493-12.691 3.466-.115 7.249-.022 11.345.359 2.764.259 5.413-1.164 6.725-3.609 2.909-5.228 9.125-7.938 15.187-6.314 5.981 1.603 9.978 6.931 10.162 12.819l.001.059c-.031 2.718 1.579 5.187 4.076 6.256 1.397.773 2.915 1.43 4.454 2.118 19.18 8.574 31.004 15.2 40.258 19.756-1.906 3.101-2.334 6.706-1.23 10.826.019.069.04.136.066.202.772 2.029 1.65 4.013 2.629 5.943z"></path></svg>