<svg xmlns="http://www.w3.org/2000/svg" xmlns:xlink="http://www.w3.org/1999/xlink" id="Capa_1" x="0px" y="0px" viewBox="0 0 511.999 511.999" style="enable-background:new 0 0 511.999 511.999;" xml:space="preserve"><g>	<g>		<path d="M462.43,51.952l-57.095-14.457c-5.36-1.354-10.798,1.888-12.153,7.241c-1.355,5.356,1.887,10.798,7.242,12.153   l57.096,14.457c4.443,1.125,7.547,5.113,7.547,9.697v141.3c0,127.413-85.84,237.812-209.069,269.336   C132.771,460.156,46.931,349.757,46.931,222.344V81.045c0-4.584,3.104-8.572,7.547-9.697l201.521-51.026l62.888,15.924   c5.359,1.353,10.798-1.888,12.153-7.241c1.355-5.356-1.887-10.798-7.241-12.153L258.455,0.306c-1.612-0.408-3.301-0.408-4.911,0   L49.568,51.952c-13.332,3.376-22.643,15.339-22.643,29.093v141.3c0,33.674,5.618,66.795,16.698,98.443   c10.801,30.846,26.519,59.561,46.718,85.346c20.2,25.784,44.317,47.921,71.679,65.792c28.074,18.335,58.887,31.72,91.583,39.782   c0.787,0.194,1.592,0.291,2.396,0.291s1.608-0.097,2.396-0.291c32.696-8.062,63.508-21.446,91.583-39.782   c27.363-17.87,51.48-40.006,71.68-65.792c20.2-25.785,35.918-54.5,46.718-85.346c11.081-31.648,16.698-64.769,16.698-98.443   v-141.3C485.075,67.291,475.763,55.328,462.43,51.952z"></path>	</g></g><g>	<g>		<path d="M370.636,30.16c-1.871-1.86-4.451-2.931-7.082-2.931c-2.631,0-5.202,1.07-7.071,2.931   c-1.861,1.871-2.932,4.441-2.932,7.072c0,2.642,1.07,5.212,2.932,7.082c1.87,1.862,4.45,2.931,7.071,2.931   c2.631,0,5.212-1.069,7.082-2.931c1.861-1.871,2.932-4.451,2.932-7.082S372.498,32.03,370.636,30.16z"></path>	</g></g><g>	<g>		<path d="M135.328,352.746c-0.02-0.028-0.039-0.058-0.059-0.087c-3.12-4.554-9.314-5.683-13.869-2.567   c-4.557,3.114-5.705,9.368-2.598,13.93l0.001-0.001c0.038,0.057,0.076,0.112,0.114,0.169c1.935,2.801,5.031,4.294,8.188,4.294   c1.967,0,3.956-0.579,5.701-1.785C137.353,363.56,138.467,357.292,135.328,352.746z"></path>	</g></g><g>	<g>		<path d="M429.51,93.149L258.454,49.836c-1.61-0.408-3.3-0.408-4.91,0L82.489,93.149c-4.439,1.124-7.548,5.119-7.548,9.697v119.499   c0,36.913,7.851,72.486,23.332,105.729c2.333,5.008,8.283,7.176,13.291,4.846c5.009-2.333,7.177-8.283,4.846-13.291   c-14.241-30.578-21.462-63.309-21.462-97.283V110.631l161.053-40.779l161.053,40.779v111.714   c0,101.449-64.589,189.255-161.052,219.435c-35.391-11.094-67.818-30.716-93.938-56.873c-3.903-3.908-10.237-3.912-14.148-0.01   c-3.908,3.903-3.913,10.237-0.01,14.148c29.163,29.204,65.549,50.913,105.228,62.781c0.935,0.279,1.9,0.419,2.866,0.419   s1.932-0.14,2.866-0.419c51.874-15.516,96.367-46.602,128.667-89.898c32.401-43.429,49.526-95.154,49.526-149.583V102.846   C437.059,98.267,433.95,94.273,429.51,93.149z"></path>	</g></g><g>	<g>		<path d="M272.659,267.711h-5.821v-48.272c0-4.057-2.451-7.713-6.203-9.254c-3.754-1.539-8.066-0.663-10.917,2.225l-17.245,17.459   c-3.883,3.931-3.844,10.264,0.087,14.147c3.93,3.881,10.263,3.844,14.147-0.087l0.125-0.126v23.909h-5.396   c-5.524,0-10.003,4.479-10.003,10.003s4.479,10.003,10.003,10.003h31.223c5.524,0,10.003-4.479,10.003-10.003   S278.184,267.711,272.659,267.711z"></path>	</g></g><g>	<g>		<path d="M367.402,236.339c5.597-5.459,7.571-13.468,5.154-20.903c-2.418-7.435-8.727-12.75-16.463-13.873l-56.25-8.158   c-0.124-0.018-0.23-0.096-0.287-0.209l-25.168-50.962c-3.461-7.008-10.465-11.361-18.28-11.361c-0.002,0-0.005,0-0.007,0   c-7.818,0.002-14.822,4.359-18.279,11.371l-25.14,50.975c-0.057,0.113-0.164,0.191-0.289,0.21l-56.246,8.189   c-7.736,1.126-14.042,6.445-16.454,13.882c-2.414,7.435-0.436,15.443,5.164,20.9l40.711,39.661   c0.091,0.088,0.133,0.216,0.111,0.34l-9.594,56.023c-1.319,7.706,1.791,15.346,8.118,19.94c3.572,2.595,7.752,3.912,11.96,3.912   c3.241,0,6.501-0.782,9.512-2.367l50.302-26.462c0.111-0.059,0.246-0.06,0.355-0.001l50.318,26.437   c6.921,3.635,15.147,3.037,21.471-1.557c6.323-4.596,9.43-12.238,8.107-19.945l-9.623-56.018c-0.021-0.123,0.02-0.249,0.11-0.337   L367.402,236.339z M306.884,279.75l9.623,56.016c0.027,0.161,0.04,0.234-0.152,0.375c-0.191,0.139-0.258,0.105-0.402,0.029   l-50.319-26.437c-5.941-3.122-13.034-3.121-18.974,0.006l-50.303,26.463c-0.144,0.075-0.21,0.112-0.402-0.029   c-0.192-0.14-0.18-0.213-0.152-0.374l9.594-56.024c1.132-6.615-1.062-13.36-5.868-18.045l-40.712-39.661   c-0.117-0.114-0.17-0.166-0.097-0.393c0.073-0.227,0.147-0.237,0.309-0.261l56.245-8.189c6.642-0.966,12.38-5.138,15.35-11.158   l25.141-50.976c0.072-0.146,0.104-0.213,0.342-0.213s0.271,0.066,0.344,0.213l25.167,50.961   c2.972,6.02,8.712,10.188,15.355,11.151l56.249,8.158c0.162,0.023,0.236,0.034,0.31,0.261c0.073,0.226,0.02,0.277-0.098,0.392   L312.746,261.7C307.937,266.387,305.747,273.135,306.884,279.75z"></path>	</g></g><g></g><g></g><g></g><g></g><g></g><g></g><g></g><g></g><g></g><g></g><g></g><g></g><g></g><g></g><g></g></svg>