<svg xmlns="http://www.w3.org/2000/svg" id="Layer_3" data-name="Layer 3" viewBox="0 0 64 64" width="512" height="512"><path d="M59,26a3.992,3.992,0,0,0,1-7.858V15.858a3.989,3.989,0,1,0-3.583-6.887L52.736,6.394a4,4,0,1,0-7.472,0L41.583,8.971a3.921,3.921,0,0,0-5.166,0L32.736,6.394a4,4,0,1,0-7.472,0L21.583,8.971A3.964,3.964,0,0,0,19,8a4.044,4.044,0,1,0,3.736,2.606l3.681-2.577a3.921,3.921,0,0,0,5.166,0l3.681,2.577A3.948,3.948,0,0,0,38,15.858v2.284A4,4,0,0,0,35,22a3.953,3.953,0,0,0,.181,1.125L31.8,25.152A3.993,3.993,0,1,0,28,31.858v2.284a3.989,3.989,0,1,0,3.583,6.887l3.682,2.577A3.943,3.943,0,0,0,35,45a4,4,0,0,0,8,0,3.943,3.943,0,0,0-.265-1.394l3.682-2.577a3.921,3.921,0,0,0,5.166,0l3.682,2.577A3.943,3.943,0,0,0,55,45a4,4,0,0,0,3,3.858v4.284a4,4,0,1,0,2,0V48.858a3.989,3.989,0,1,0-3.583-6.887l-3.682-2.577A3.943,3.943,0,0,0,53,38a4,4,0,0,0-3-3.858V32.9A5.009,5.009,0,0,0,54,28a4.934,4.934,0,0,0-.3-1.653l2.5-1.5A3.983,3.983,0,0,0,59,26Zm2-4a2,2,0,1,1-2-2A2,2,0,0,1,61,22ZM59,10a2,2,0,1,1-2,2A2,2,0,0,1,59,10ZM49,3a2,2,0,1,1-2,2A2,2,0,0,1,49,3ZM19,14a2,2,0,1,1,2-2A2,2,0,0,1,19,14ZM29,7a2,2,0,1,1,2-2A2,2,0,0,1,29,7Zm8,5a2,2,0,1,1,2,2A2,2,0,0,1,37,12Zm2,8a2,2,0,1,1-2,2A2,2,0,0,1,39,20Zm2.8,4.848,2.5,1.5A4.928,4.928,0,0,0,44,28a5.009,5.009,0,0,0,4,4.9v1.243A4,4,0,0,0,45,38a3.943,3.943,0,0,0,.265,1.394l-3.682,2.577a3.921,3.921,0,0,0-5.166,0l-3.682-2.577A3.943,3.943,0,0,0,33,38a4,4,0,0,0-3-3.858V31.858A4,4,0,0,0,33,28a3.953,3.953,0,0,0-.181-1.125L36.2,24.848a3.984,3.984,0,0,0,5.6,0ZM27,28a2,2,0,1,1,2,2A2,2,0,0,1,27,28Zm2,12a2,2,0,1,1,2-2A2,2,0,0,1,29,40Zm10,7a2,2,0,1,1,2-2A2,2,0,0,1,39,47ZM61,57a2,2,0,1,1-2-2A2,2,0,0,1,61,57ZM59,43a2,2,0,1,1-2,2A2,2,0,0,1,59,43Zm-8-5a2,2,0,1,1-2-2A2,2,0,0,1,51,38Zm-2-7a3,3,0,1,1,3-3A3,3,0,0,1,49,31Zm0-8a4.97,4.97,0,0,0-3.67,1.632l-2.511-1.507A3.953,3.953,0,0,0,43,22a4,4,0,0,0-3-3.858V15.858a3.948,3.948,0,0,0,2.736-5.252l3.681-2.577a3.921,3.921,0,0,0,5.166,0l3.681,2.577A3.948,3.948,0,0,0,58,15.858v2.284a3.915,3.915,0,0,0-2.819,4.984L52.67,24.632A4.97,4.97,0,0,0,49,23Z"></path><path d="M8,51.09V43.414l3.293,3.293,1.414-1.414-5-5a1,1,0,0,0-1.414,0l-5,5,1.414,1.414L6,43.414V51.09a6,6,0,1,0,2,0ZM7,61a4,4,0,1,1,4-4A4,4,0,0,1,7,61Z"></path><path d="M20,40a6,6,0,0,0-1,11.91V58H16v2h3v3h2V60h3V58H21V51.91A6,6,0,0,0,20,40Zm0,10a4,4,0,1,1,4-4A4,4,0,0,1,20,50Z"></path></svg>