<svg xmlns="http://www.w3.org/2000/svg" xmlns:xlink="http://www.w3.org/1999/xlink" id="Capa_1" x="0px" y="0px" viewBox="0 0 512 512" style="enable-background:new 0 0 512 512;" xml:space="preserve"><g>	<g>					<polyline style="fill-rule:evenodd;clip-rule:evenodd;fill:none;stroke:#000000;stroke-width:15;stroke-miterlimit:22.9256;" points="&#10;&#9;&#9;&#9;467,504.499 504.5,504.499 504.5,324.5 7.5,324.5 7.5,504.499 452,504.499 &#9;&#9;"></polyline>					<polyline style="fill-rule:evenodd;clip-rule:evenodd;fill:none;stroke:#000000;stroke-width:15;stroke-miterlimit:22.9256;" points="&#10;&#9;&#9;&#9;87.966,324.5 139.782,380.99 87.966,419.867 7.5,414.5 &#9;&#9;"></polyline>					<polyline style="fill-rule:evenodd;clip-rule:evenodd;fill:none;stroke:#000000;stroke-width:15;stroke-miterlimit:22.9256;" points="&#10;&#9;&#9;&#9;139.782,380.99 203.874,414.5 260.531,386.423 260.466,324.5 &#9;&#9;"></polyline>					<polyline style="fill-rule:evenodd;clip-rule:evenodd;fill:none;stroke:#000000;stroke-width:15;stroke-miterlimit:22.9256;" points="&#10;&#9;&#9;&#9;203.874,414.5 187.074,459.499 203.874,504.499 &#9;&#9;"></polyline>					<polyline style="fill-rule:evenodd;clip-rule:evenodd;fill:none;stroke:#000000;stroke-width:15;stroke-miterlimit:22.9256;" points="&#10;&#9;&#9;&#9;260.531,386.423 311.465,369.5 375.965,390.483 380.765,324.5 &#9;&#9;"></polyline>					<polyline style="fill-rule:evenodd;clip-rule:evenodd;fill:none;stroke:#000000;stroke-width:15;stroke-miterlimit:22.9256;" points="&#10;&#9;&#9;&#9;375.965,390.483 425.165,427.722 504.5,400.067 &#9;&#9;"></polyline>					<polyline style="fill-rule:evenodd;clip-rule:evenodd;fill:none;stroke:#000000;stroke-width:15;stroke-miterlimit:22.9256;" points="&#10;&#9;&#9;&#9;260.531,386.423 301,450.738 291.592,504.499 &#9;&#9;"></polyline>					<polyline style="fill-rule:evenodd;clip-rule:evenodd;fill:none;stroke:#000000;stroke-width:15;stroke-miterlimit:22.9256;" points="&#10;&#9;&#9;&#9;425.165,427.722 380.765,456.466 380.765,504.499 &#9;&#9;"></polyline>					<polyline style="fill-rule:evenodd;clip-rule:evenodd;fill:none;stroke:#000000;stroke-width:15;stroke-miterlimit:22.9256;" points="&#10;&#9;&#9;&#9;87.966,419.867 61.562,466.666 61.562,504.499 &#9;&#9;"></polyline>					<line style="fill-rule:evenodd;clip-rule:evenodd;fill:none;stroke:#000000;stroke-width:15;stroke-miterlimit:22.9256;" x1="187.074" y1="459.499" x2="87.966" y2="419.867"></line>					<line style="fill-rule:evenodd;clip-rule:evenodd;fill:none;stroke:#000000;stroke-width:15;stroke-miterlimit:22.9256;" x1="301" y1="450.738" x2="380.765" y2="456.466"></line>		<path style="fill-rule:evenodd;clip-rule:evenodd;fill:none;stroke:#000000;stroke-width:15;stroke-miterlimit:22.9256;" d="&#10;&#9;&#9;&#9;M208.724,76.779C221.624,66.29,238.077,60,256,60c41.421,0,75,33.579,75,75c0,41.421-33.579,75-75,75s-75-33.579-75-75&#10;&#9;&#9;&#9;c0-17.923,6.29-34.374,16.779-47.276"></path>		<path style="fill-rule:evenodd;clip-rule:evenodd;fill:none;stroke:#000000;stroke-width:15;stroke-miterlimit:22.9256;" d="&#10;&#9;&#9;&#9;M256,37.5V0 M304.749,50.563l18.75-32.477 M340.437,183.75l32.477,18.75 M139.086,67.5l32.477,18.75 M188.5,251.914l18.75-32.477&#10;&#9;&#9;&#9; M207.25,50.563L188.5,18.087 M171.563,183.75l-32.476,18.75 M372.913,67.5l-32.476,18.75 M323.5,251.913l-18.75-32.476&#10;&#9;&#9;&#9; M158.5,135H121 M391,135h-37.5 M256,270v-37.5"></path>		<path style="fill-rule:evenodd;clip-rule:evenodd;fill:none;stroke:#000000;stroke-width:15;stroke-miterlimit:22.9256;" d="&#10;&#9;&#9;&#9;M263.5,105v-15 M293.499,120v-15"></path>		<path style="fill-rule:evenodd;clip-rule:evenodd;fill:none;stroke:#000000;stroke-width:15;stroke-miterlimit:22.9256;" d="&#10;&#9;&#9;&#9;M467,285.356c-7.145-4.125-9.616-13.345-5.491-20.491c4.125-7.145,1.655-16.365-5.49-20.49"></path>		<path style="fill-rule:evenodd;clip-rule:evenodd;fill:none;stroke:#000000;stroke-width:15;stroke-miterlimit:22.9256;" d="&#10;&#9;&#9;&#9;M429.5,285.356c-7.145-4.125-9.616-13.345-5.49-20.491c4.125-7.145,1.655-16.365-5.49-20.49"></path>		<path style="fill-rule:evenodd;clip-rule:evenodd;fill:none;stroke:#000000;stroke-width:15;stroke-miterlimit:22.9256;" d="&#10;&#9;&#9;&#9;M392.001,285.356c-7.145-4.125-9.616-13.345-5.49-20.491c4.125-7.145,1.655-16.365-5.491-20.49"></path>		<path style="fill-rule:evenodd;clip-rule:evenodd;fill:none;stroke:#000000;stroke-width:15;stroke-miterlimit:22.9256;" d="&#10;&#9;&#9;&#9;M130.979,285.356c-7.145-4.125-9.616-13.345-5.49-20.491c4.125-7.145,1.655-16.365-5.49-20.49"></path>		<path style="fill-rule:evenodd;clip-rule:evenodd;fill:none;stroke:#000000;stroke-width:15;stroke-miterlimit:22.9256;" d="&#10;&#9;&#9;&#9;M93.48,285.356c-7.145-4.125-9.616-13.345-5.49-20.491c4.125-7.145,1.655-16.365-5.49-20.49"></path>		<path style="fill-rule:evenodd;clip-rule:evenodd;fill:none;stroke:#000000;stroke-width:15;stroke-miterlimit:22.9256;" d="&#10;&#9;&#9;&#9;M55.98,285.356c-7.145-4.125-9.616-13.345-5.49-20.491c4.125-7.145,1.655-16.365-5.491-20.49"></path>	</g></g><g></g><g></g><g></g><g></g><g></g><g></g><g></g><g></g><g></g><g></g><g></g><g></g><g></g><g></g><g></g></svg>