<svg xmlns="http://www.w3.org/2000/svg" id="Capa_1" height="512" viewBox="0 0 511.05 511.05" width="512"><g><path d="m484.73 256-63.828-104.017-12.785 7.845 59.014 96.172h-94.098v-16.048c11.528-3.274 20-13.889 20-26.452v-41c0-15.164-12.337-27.5-27.5-27.5-14.021 0-25.617 10.55-27.286 24.128-18.101-9.482-40.214 3.636-40.214 24.372v20c0 12.563 8.472 23.178 20 26.452v16.048h-46.749v15h216.63c-.161 5.043-.5 10.042-.979 15h-39.402v15h37.465c-.823 5.055-1.804 10.059-2.949 15h-54.516v15h50.493c-11.99 39.441-34.196 74.472-63.531 102h-72.962v15h55.321c-7.041 5.406-14.404 10.413-22.046 15h-57.275v15h27.674c-61.098 25.64-132.78 24.505-195.003-7.169l-6.805 13.367c92.855 47.27 209.27 32.184 287.143-45.689 80.743-80.742 71.789-178.807 72.491-182.509zm-171.697-42.5v-20c0-6.893 5.607-12.5 12.5-12.5s12.5 5.607 12.5 12.5v20c0 6.893-5.607 12.5-12.5 12.5s-12.5-5.607-12.5-12.5zm45 42.5h-25v-16.048c4.84-1.375 9.139-4.042 12.5-7.607 3.361 3.565 7.66 6.232 12.5 7.607zm-5-42.5c0-14.371 0-26.619 0-41 0-6.893 5.607-12.5 12.5-12.5s12.5 5.607 12.5 12.5v41c0 6.893-5.607 12.5-12.5 12.5s-12.5-5.607-12.5-12.5z"></path><path d="m164.533 442c17.921 0 32.5-14.58 32.5-32.5v-138.5h59.251v-15h-32.349l87.133-141.996-12.785-7.845-54.826 89.347-57.924-85.364-37.805 55.713 12.412 8.423 25.393-37.421 49.315 72.677-28.513 46.466h-101.649l10.179-15h45.668v-15h-35.49l26.674-39.31-12.412-8.423-52.747 77.733h-30.525v-16.048c11.528-3.274 20-13.889 20-26.452v-10c0-15.164-12.337-27.5-27.5-27.5s-27.5 12.336-27.5 27.5v10c0 12.563 8.472 23.178 20 26.452v16.048h-33c.526 4.274-5.05 65.835 33.567 132.034 21.308 36.527 51.817 67.204 88.231 88.713l7.629-12.915c-68.423-40.417-111.721-113.789-114.304-192.832h108.877v138.5c0 17.92 14.579 32.5 32.5 32.5zm-17.5-171h35v138.5c0 9.649-7.851 17.5-17.5 17.5s-17.5-7.851-17.5-17.5zm-111-57.5v-10c0-6.893 5.607-12.5 12.5-12.5s12.5 5.607 12.5 12.5v10c0 6.893-5.607 12.5-12.5 12.5s-12.5-5.607-12.5-12.5z"></path><path d="m102.033 338.5h15v15h-15z"></path><path d="m82.033 378.5h15v15h-15z"></path><path d="m232.033 368.5h15v15h-15z"></path><path d="m212.033 318.5h15v15h-15z"></path><path d="m345.533 57.84 54.738 89.203 12.785-7.845-67.523-110.038-39.405 64.214 12.786 7.845z"></path><path d="m84.533 105c20.678 0 37.5-16.822 37.5-37.5s-16.822-37.5-37.5-37.5-37.5 16.822-37.5 37.5 16.822 37.5 37.5 37.5zm0-60c12.406 0 22.5 10.093 22.5 22.5s-10.094 22.5-22.5 22.5-22.5-10.093-22.5-22.5 10.094-22.5 22.5-22.5z"></path><path d="m77.033 0h15v15h-15z"></path><path d="m77.033 120h15v15h-15z"></path><path d="m34.607 17.573h15v15h-15z" transform="matrix(.707 -.707 .707 .707 -5.397 37.12)"></path><path d="m119.459 102.426h15v15h-15z" transform="matrix(.707 -.707 .707 .707 -40.544 121.978)"></path><path d="m17.033 60h15v15h-15z"></path><path d="m137.033 60h15v15h-15z"></path><path d="m34.606 102.426h15v15h-15z" transform="matrix(.707 -.707 .707 .707 -65.397 61.971)"></path><path d="m119.459 17.574h15v15h-15z" transform="matrix(.707 -.707 .707 .707 19.456 97.118)"></path><path d="m241.033 38h15v15h-15z"></path><path d="m241.033 88h15v15h-15z"></path><path d="m266.033 63h15v15h-15z"></path><path d="m216.033 63h15v15h-15z"></path><path d="m439.033 9h15v15h-15z"></path><path d="m439.033 59h15v15h-15z"></path><path d="m464.033 34h15v15h-15z"></path><path d="m414.033 34h15v15h-15z"></path><path d="m175.533 226h15v15h-15z"></path><path d="m397.533 316h15v15h-15z"></path><path d="m287.533 463h15v15h-15z"></path></g></svg>