<svg xmlns="http://www.w3.org/2000/svg" data-name="Layer 1" id="Layer_1" viewBox="0 0 128 128"><title></title><path d="M57.041,79.3066A27.08679,27.08679,0,0,0,43.3564,76a34.91888,34.91888,0,0,0-7.8476.8506,2,2,0,0,0-1.4341,2.4805c.1367.4843,3.4502,11.9296,12.8838,17.3642A27.09966,27.09966,0,0,0,60.6411,100h.0005a34.93192,34.93192,0,0,0,7.8496-.8506,2,2,0,0,0,1.4341-2.4805C69.7886,96.1846,66.4741,84.7402,57.041,79.3066Zm-.8452,13.7569,4.7427,2.9306c-.1006.001-.1944.0059-.2964.0059h-.001a23.16931,23.16931,0,0,1-11.686-2.7715c-5.7866-3.333-8.9575-9.6299-10.2803-12.8974A33.87887,33.87887,0,0,1,43.3564,80a23.16071,23.16071,0,0,1,11.6885,2.7734c4.6148,2.6582,7.5625,7.1983,9.2398,10.587l-5.9864-3.6993a1.9998,1.9998,0,1,0-2.1025,3.4024Z"></path><path d="M115.9995,70.8838a8.85546,8.85546,0,0,0-2.7134-6.29c-1.2744-1.1797-3.0175-1.7364-4.2505-2.9454A3.57155,3.57155,0,0,1,108.1812,60H109a2.00009,2.00009,0,0,0,2-2V48a2.00009,2.00009,0,0,0-2-2h-5V35.1885A6.10338,6.10338,0,0,0,98,29H96a6.10338,6.10338,0,0,0-6,6.1885V46H85a2.00009,2.00009,0,0,0-2,2V58a2.00009,2.00009,0,0,0,2,2h.8184c-.3936,1.4863-1.4073,2.1611-2.6729,2.9023a13.39046,13.39046,0,0,0-2.4351,1.6944A8.87834,8.87834,0,0,0,78,70.9297v38.126A5.79672,5.79672,0,0,0,83.6221,115H110.376A5.79762,5.79762,0,0,0,116,109.0557ZM94,35.1885A2.10266,2.10266,0,0,1,96,33h2a2.10266,2.10266,0,0,1,2,2.1885V46H94ZM87,50h20v6H87Zm25,59.0557A1.80793,1.80793,0,0,1,110.376,111H83.6221A1.80715,1.80715,0,0,1,82,109.0557V98h30ZM112,94H82l-.0005-12H112Zm0-16H81.9995V70.9756a4.839,4.839,0,0,1,1.4287-3.4443,10.0679,10.0679,0,0,1,1.7368-1.1758,12.68171,12.68171,0,0,0,2.6001-1.8516A8.05919,8.05919,0,0,0,89.9092,60h14.1816a8.05919,8.05919,0,0,0,2.1441,4.5039,12.65474,12.65474,0,0,0,2.6001,1.8516,10.08111,10.08111,0,0,1,1.7334,1.1728A4.81194,4.81194,0,0,1,112,70.9297Z"></path><path d="M46.7402,44a47.58677,47.58677,0,0,1-.1987-15.3076c4.0811,1.6543,13.0381,6.0957,17.709,14.6504.1182.2158.2173.4385.3286.6572h4.4282c-.3725-.8672-.7846-1.7275-1.2461-2.5732-6.9487-12.7276-21.5859-17.1631-22.206-17.3457A2.00109,2.00109,0,0,0,43.043,25.543,50.87668,50.87668,0,0,0,42.6587,44Z"></path><path d="M17.501,44h5.1011l-7.4898-9.4639a1.99969,1.99969,0,0,0-1.5679-.7588c-.3798,0-.7583.0635-1.1396.0635a8.41531,8.41531,0,1,1,8.0093-5.8642,1.99882,1.99882,0,0,0,.4907,2.0195L34.8877,44H38.627c-.1187-.748-.2247-1.4912-.3052-2.2217L24.5444,27.9805A12.404,12.404,0,1,0,12.625,37.8389Z"></path><path d="M80.9629,32.3799c-.145,2.79-.8154,7.6592-3.4927,11.6201h4.6323a30.24179,30.24179,0,0,0,2.8692-14.1328,2.00013,2.00013,0,0,0-2.1826-1.8584c-.3887.0361-8.8199.9082-14.8257,6.542a34.72014,34.72014,0,0,1,2.3428,3.3174A22.28283,22.28283,0,0,1,80.9629,32.3799Z"></path><path d="M79.3521,60H12.2749C12.145,60,12,59.8291,12,59.6006V52.4014c0-.2295.145-.4014.2749-.4014H79V48H12.2749A4.34439,4.34439,0,0,0,8,52.4014v7.1992A4.34328,4.34328,0,0,0,12.2749,64h.7983A54.97948,54.97948,0,0,0,68,115a55.73527,55.73527,0,0,0,7.5654-.5244,10.06909,10.06909,0,0,1-1.4341-3.8545A50.99826,50.99826,0,0,1,17.0845,64h58.979a11.98618,11.98618,0,0,1,1.9258-2.335,13.38965,13.38965,0,0,1,1.5371-1.2158C79.4609,60.3027,79.4058,60.1514,79.3521,60Z"></path><path d="M123.7256,48H115v4h8.7256c.1294,0,.2744.1719.2744.4014v7.1992c0,.2285-.145.3994-.2744.3994h-9.0777c-.0537.1514-.1088.3027-.1743.4492a13.2431,13.2431,0,0,1,1.5279,1.2071A12.05967,12.05967,0,0,1,117.9355,64h.9771c-.04.5156-.0718,1.0342-.126,1.5459a13.3022,13.3022,0,0,1,1.2119,5.2461q.0015.06885.0015.1377v7.3008A54.62653,54.62653,0,0,0,122.9326,64h.793A4.3432,4.3432,0,0,0,128,59.6006V52.4014A4.34431,4.34431,0,0,0,123.7256,48Z"></path></svg>