<svg xmlns="http://www.w3.org/2000/svg" width="50" height="50" viewBox="0 0 50 50" fill="none"><rect width="50" height="50" rx="25" fill="#273A2B"></rect><g clip-path="url(#clip0_1682_4)"><path d="M37.5009 21C37.9871 21.0006 38.4568 20.8237 38.8218 20.5026C39.1868 20.1815 39.4221 19.7382 39.4834 19.2559C39.5448 18.7737 39.4281 18.2856 39.1551 17.8833C38.8821 17.481 38.4717 17.1921 38.0009 17.071V15.929C38.2928 15.8553 38.5642 15.7166 38.7948 15.5231C39.0254 15.3297 39.2092 15.0865 39.3325 14.8119C39.4557 14.5373 39.5153 14.2384 39.5066 13.9375C39.4979 13.6366 39.4212 13.3416 39.2823 13.0746C39.1434 12.8075 38.9458 12.5754 38.7044 12.3956C38.463 12.2158 38.1841 12.0929 37.8884 12.0363C37.5928 11.9796 37.2882 11.9906 36.9974 12.0684C36.7067 12.1462 36.4373 12.2888 36.2094 12.4855L34.3689 11.197C34.4848 10.8941 34.5253 10.5676 34.4869 10.2456C34.4485 9.92361 34.3323 9.61578 34.1485 9.34864C33.9647 9.08151 33.7187 8.86308 33.4316 8.71217C33.1446 8.56127 32.8252 8.48242 32.5009 8.48242C32.1767 8.48242 31.8572 8.56127 31.5702 8.71217C31.2832 8.86308 31.0372 9.08151 30.8533 9.34864C30.6695 9.61578 30.5534 9.92361 30.515 10.2456C30.4766 10.5676 30.5171 10.8941 30.6329 11.197L28.7924 12.4855C28.435 12.1725 27.976 12 27.5009 12C27.0258 12 26.5669 12.1725 26.2094 12.4855L24.3689 11.197C24.4848 10.8941 24.5253 10.5676 24.4869 10.2456C24.4485 9.92361 24.3323 9.61578 24.1485 9.34864C23.9647 9.08151 23.7187 8.86308 23.4316 8.71217C23.1446 8.56127 22.8252 8.48242 22.5009 8.48242C22.1766 8.48242 21.8572 8.56127 21.5702 8.71217C21.2832 8.86308 21.0372 9.08151 20.8533 9.34864C20.6695 9.61578 20.5534 9.92361 20.515 10.2456C20.4766 10.5676 20.5171 10.8941 20.6329 11.197L18.7924 12.4855C18.434 12.1742 17.9757 12.0019 17.5009 12C17.0687 11.9953 16.6464 12.1292 16.2959 12.3821C15.9455 12.635 15.6852 12.9935 15.5534 13.4051C15.4216 13.8167 15.4251 14.2597 15.5635 14.6692C15.7018 15.0786 15.9678 15.433 16.3222 15.6803C16.6767 15.9275 17.1011 16.0547 17.5331 16.0431C17.9652 16.0316 18.3822 15.8819 18.7229 15.616C19.0637 15.3501 19.3102 14.982 19.4265 14.5658C19.5428 14.1495 19.5226 13.7069 19.3689 13.303L21.2094 12.0145C21.5669 12.3275 22.0258 12.5 22.5009 12.5C22.976 12.5 23.435 12.3275 23.7924 12.0145L25.6329 13.303C25.5322 13.5643 25.4883 13.8441 25.504 14.1237C25.5198 14.4033 25.5948 14.6764 25.7242 14.9247C25.8536 15.1731 26.0344 15.3911 26.2545 15.5643C26.4746 15.7374 26.7291 15.8617 27.0009 15.929V17.071C26.5729 17.1815 26.1935 17.4307 25.9221 17.7798C25.6507 18.1288 25.5026 18.5579 25.5009 19C25.5038 19.1909 25.5343 19.3803 25.5914 19.5625L23.9009 20.576C23.6829 20.3602 23.4181 20.1976 23.1271 20.1007C22.8361 20.0038 22.5266 19.9752 22.2228 20.0173C21.919 20.0593 21.6289 20.1708 21.3751 20.3431C21.1213 20.5154 20.9107 20.7438 20.7595 21.0107C20.6082 21.2775 20.5205 21.5756 20.5032 21.8819C20.4858 22.1881 20.5392 22.4942 20.6593 22.7765C20.7794 23.0587 20.9629 23.3095 21.1955 23.5094C21.4282 23.7093 21.7038 23.8528 22.0009 23.929V25.071C21.7091 25.1446 21.4377 25.2834 21.2071 25.4768C20.9765 25.6703 20.7926 25.9134 20.6694 26.188C20.5461 26.4626 20.4866 26.7616 20.4953 27.0625C20.504 27.3633 20.5807 27.6583 20.7196 27.9254C20.8585 28.1924 21.0561 28.4245 21.2974 28.6043C21.5388 28.7841 21.8178 28.907 22.1134 28.9637C22.409 29.0203 22.7136 29.0094 23.0044 28.9316C23.2952 28.8538 23.5646 28.7112 23.7924 28.5145L25.6334 29.803C25.5475 30.0254 25.5026 30.2615 25.5009 30.5C25.5009 31.0304 25.7116 31.5391 26.0867 31.9142C26.4618 32.2893 26.9705 32.5 27.5009 32.5C28.0314 32.5 28.5401 32.2893 28.9151 31.9142C29.2902 31.5391 29.5009 31.0304 29.5009 30.5C29.4993 30.2615 29.4544 30.0254 29.3684 29.803L31.2094 28.5145C31.5669 28.8274 32.0258 29 32.5009 29C32.976 29 33.435 28.8274 33.7924 28.5145L35.6334 29.803C35.5475 30.0254 35.5026 30.2615 35.5009 30.5C35.5026 30.9421 35.6507 31.3712 35.9221 31.7202C36.1935 32.0692 36.5729 32.3184 37.0009 32.429V34.571C36.5296 34.6927 36.1188 34.9821 35.8456 35.385C35.5724 35.7879 35.4555 36.2766 35.5169 36.7595C35.5782 37.2424 35.8136 37.6863 36.1788 38.0081C36.5441 38.3299 37.0141 38.5075 37.5009 38.5075C37.9877 38.5075 38.4578 38.3299 38.823 38.0081C39.1883 37.6863 39.4236 37.2424 39.485 36.7595C39.5463 36.2766 39.4294 35.7879 39.1562 35.385C38.883 34.9821 38.4723 34.6927 38.0009 34.571V32.429C38.2928 32.3553 38.5642 32.2166 38.7948 32.0231C39.0254 31.8297 39.2092 31.5865 39.3325 31.3119C39.4557 31.0373 39.5153 30.7384 39.5066 30.4375C39.4979 30.1366 39.4212 29.8416 39.2823 29.5746C39.1434 29.3075 38.9458 29.0754 38.7044 28.8956C38.463 28.7158 38.1841 28.5929 37.8884 28.5363C37.5928 28.4796 37.2882 28.4906 36.9974 28.5684C36.7067 28.6462 36.4373 28.7887 36.2094 28.9855L34.3684 27.697C34.4544 27.4746 34.4993 27.2384 34.5009 27C34.4993 26.5579 34.3512 26.1288 34.0798 25.7797C33.8084 25.4307 33.429 25.1815 33.0009 25.071V24.45C33.5652 24.3339 34.0723 24.0269 34.4366 23.5806C34.8009 23.1343 35.0002 22.5761 35.0009 22C34.9985 21.7179 34.9478 21.4384 34.8509 21.1735L36.1009 20.4235C36.4735 20.7925 36.9766 20.9996 37.5009 21ZM38.5009 19C38.5009 19.1977 38.4423 19.3911 38.3324 19.5555C38.2225 19.72 38.0663 19.8482 37.8836 19.9238C37.7009 19.9995 37.4998 20.0193 37.3058 19.9808C37.1119 19.9422 36.9337 19.8469 36.7938 19.7071C36.654 19.5672 36.5587 19.389 36.5201 19.1951C36.4816 19.0011 36.5014 18.8 36.577 18.6173C36.6527 18.4346 36.7809 18.2784 36.9454 18.1685C37.1098 18.0586 37.3031 18 37.5009 18C37.7661 18 38.0205 18.1053 38.208 18.2929C38.3956 18.4804 38.5009 18.7348 38.5009 19ZM37.5009 13C37.6987 13 37.892 13.0586 38.0565 13.1685C38.2209 13.2784 38.3491 13.4346 38.4248 13.6173C38.5005 13.8 38.5203 14.0011 38.4817 14.1951C38.4431 14.389 38.3479 14.5672 38.208 14.7071C38.0682 14.8469 37.89 14.9422 37.696 14.9808C37.502 15.0193 37.301 14.9995 37.1182 14.9238C36.9355 14.8482 36.7793 14.72 36.6695 14.5555C36.5596 14.3911 36.5009 14.1977 36.5009 14C36.5009 13.7348 36.6063 13.4804 36.7938 13.2929C36.9814 13.1053 37.2357 13 37.5009 13ZM32.5009 9.49997C32.6987 9.49997 32.892 9.55862 33.0565 9.6685C33.2209 9.77838 33.3491 9.93456 33.4248 10.1173C33.5005 10.3 33.5203 10.5011 33.4817 10.6951C33.4431 10.889 33.3479 11.0672 33.208 11.2071C33.0682 11.3469 32.89 11.4422 32.696 11.4808C32.502 11.5193 32.301 11.4995 32.1182 11.4238C31.9355 11.3482 31.7793 11.22 31.6695 11.0555C31.5596 10.8911 31.5009 10.6977 31.5009 10.5C31.5009 10.2348 31.6063 9.9804 31.7938 9.79286C31.9814 9.60532 32.2357 9.49997 32.5009 9.49997ZM17.5009 15C17.3031 15 17.1098 14.9413 16.9454 14.8314C16.7809 14.7216 16.6527 14.5654 16.577 14.3827C16.5014 14.1999 16.4816 13.9989 16.5201 13.8049C16.5587 13.6109 16.654 13.4327 16.7938 13.2929C16.9337 13.153 17.1119 13.0578 17.3058 13.0192C17.4998 12.9806 17.7009 13.0004 17.8836 13.0761C18.0663 13.1518 18.2225 13.2799 18.3324 13.4444C18.4423 13.6088 18.5009 13.8022 18.5009 14C18.5009 14.2652 18.3956 14.5195 18.208 14.7071C18.0205 14.8946 17.7661 15 17.5009 15ZM22.5009 11.5C22.3031 11.5 22.1098 11.4413 21.9454 11.3314C21.7809 11.2216 21.6527 11.0654 21.577 10.8827C21.5014 10.6999 21.4816 10.4989 21.5201 10.3049C21.5587 10.1109 21.654 9.93271 21.7938 9.79286C21.9337 9.65301 22.1119 9.55777 22.3058 9.51918C22.4998 9.4806 22.7009 9.5004 22.8836 9.57609C23.0663 9.65178 23.2225 9.77995 23.3324 9.9444C23.4423 10.1088 23.5009 10.3022 23.5009 10.5C23.5009 10.7652 23.3956 11.0195 23.208 11.2071C23.0205 11.3946 22.7661 11.5 22.5009 11.5ZM26.5009 14C26.5009 13.8022 26.5596 13.6088 26.6695 13.4444C26.7793 13.2799 26.9355 13.1518 27.1182 13.0761C27.301 13.0004 27.502 12.9806 27.696 13.0192C27.89 13.0578 28.0682 13.153 28.208 13.2929C28.3479 13.4327 28.4431 13.6109 28.4817 13.8049C28.5203 13.9989 28.5005 14.1999 28.4248 14.3827C28.3491 14.5654 28.2209 14.7216 28.0565 14.8314C27.892 14.9413 27.6987 15 27.5009 15C27.2357 15 26.9814 14.8946 26.7938 14.7071C26.6063 14.5195 26.5009 14.2652 26.5009 14ZM27.5009 18C27.6987 18 27.892 18.0586 28.0565 18.1685C28.2209 18.2784 28.3491 18.4346 28.4248 18.6173C28.5005 18.8 28.5203 19.0011 28.4817 19.1951C28.4431 19.389 28.3479 19.5672 28.208 19.7071C28.0682 19.8469 27.89 19.9422 27.696 19.9808C27.502 20.0193 27.301 19.9995 27.1182 19.9238C26.9355 19.8482 26.7793 19.72 26.6695 19.5555C26.5596 19.3911 26.5009 19.1977 26.5009 19C26.5009 18.7348 26.6063 18.4804 26.7938 18.2929C26.9814 18.1053 27.2357 18 27.5009 18ZM28.9009 20.424L30.1509 21.174C30.054 21.4387 30.0033 21.7181 30.0009 22C30.0017 22.5761 30.201 23.1343 30.5653 23.5806C30.9296 24.0269 31.4366 24.3339 32.0009 24.45V25.0715C31.5729 25.182 31.1936 25.4311 30.9222 25.7801C30.6508 26.129 30.5027 26.5579 30.5009 27C30.5026 27.2384 30.5475 27.4746 30.6334 27.697L28.7924 28.9855C28.435 28.6725 27.976 28.5 27.5009 28.5C27.0258 28.5 26.5669 28.6725 26.2094 28.9855L24.3684 27.697C24.4544 27.4746 24.4993 27.2384 24.5009 27C24.4993 26.5579 24.3512 26.1288 24.0798 25.7797C23.8084 25.4307 23.429 25.1815 23.0009 25.071V23.929C23.429 23.8184 23.8084 23.5692 24.0798 23.2202C24.3512 22.8712 24.4993 22.4421 24.5009 22C24.4981 21.8091 24.4676 21.6196 24.4104 21.4375L26.1009 20.424C26.4738 20.7923 26.9768 20.9989 27.5009 20.9989C28.0251 20.9989 28.5281 20.7923 28.9009 20.424ZM21.5009 22C21.5009 21.8022 21.5596 21.6088 21.6695 21.4444C21.7793 21.2799 21.9355 21.1518 22.1182 21.0761C22.301 21.0004 22.502 20.9806 22.696 21.0192C22.89 21.0578 23.0682 21.153 23.208 21.2929C23.3479 21.4327 23.4431 21.6109 23.4817 21.8049C23.5203 21.9989 23.5005 22.1999 23.4248 22.3827C23.3491 22.5654 23.2209 22.7216 23.0565 22.8314C22.892 22.9413 22.6987 23 22.5009 23C22.2357 23 21.9814 22.8946 21.7938 22.7071C21.6063 22.5195 21.5009 22.2652 21.5009 22ZM22.5009 28C22.3031 28 22.1098 27.9413 21.9454 27.8314C21.7809 27.7216 21.6527 27.5654 21.577 27.3826C21.5014 27.1999 21.4816 26.9989 21.5201 26.8049C21.5587 26.6109 21.654 26.4327 21.7938 26.2929C21.9337 26.153 22.1119 26.0578 22.3058 26.0192C22.4998 25.9806 22.7009 26.0004 22.8836 26.0761C23.0663 26.1518 23.2225 26.2799 23.3324 26.4444C23.4423 26.6088 23.5009 26.8022 23.5009 27C23.5009 27.2652 23.3956 27.5195 23.208 27.7071C23.0205 27.8946 22.7661 28 22.5009 28ZM27.5009 31.5C27.3031 31.5 27.1098 31.4413 26.9454 31.3314C26.7809 31.2216 26.6527 31.0654 26.577 30.8826C26.5014 30.6999 26.4816 30.4989 26.5201 30.3049C26.5587 30.1109 26.654 29.9327 26.7938 29.7929C26.9337 29.653 27.1119 29.5578 27.3058 29.5192C27.4998 29.4806 27.7009 29.5004 27.8836 29.5761C28.0663 29.6518 28.2225 29.7799 28.3324 29.9444C28.4423 30.1088 28.5009 30.3022 28.5009 30.5C28.5009 30.7652 28.3956 31.0195 28.208 31.2071C28.0205 31.3946 27.7661 31.5 27.5009 31.5ZM38.5009 36.5C38.5009 36.6977 38.4423 36.8911 38.3324 37.0555C38.2225 37.22 38.0663 37.3482 37.8836 37.4238C37.7009 37.4995 37.4998 37.5193 37.3058 37.4808C37.1119 37.4422 36.9337 37.3469 36.7938 37.2071C36.654 37.0672 36.5587 36.889 36.5201 36.6951C36.4816 36.5011 36.5014 36.3 36.577 36.1173C36.6527 35.9346 36.7809 35.7784 36.9454 35.6685C37.1098 35.5586 37.3031 35.5 37.5009 35.5C37.7661 35.5 38.0205 35.6053 38.208 35.7929C38.3956 35.9804 38.5009 36.2347 38.5009 36.5ZM37.5009 29.5C37.6987 29.5 37.892 29.5586 38.0565 29.6685C38.2209 29.7784 38.3491 29.9346 38.4248 30.1173C38.5005 30.3 38.5203 30.5011 38.4817 30.6951C38.4431 30.889 38.3479 31.0672 38.208 31.2071C38.0682 31.3469 37.89 31.4422 37.696 31.4808C37.502 31.5193 37.301 31.4995 37.1182 31.4238C36.9355 31.3482 36.7793 31.22 36.6695 31.0555C36.5596 30.8911 36.5009 30.6977 36.5009 30.5C36.5009 30.2347 36.6063 29.9804 36.7938 29.7929C36.9814 29.6053 37.2357 29.5 37.5009 29.5ZM33.5009 27C33.5009 27.1977 33.4423 27.3911 33.3324 27.5555C33.2225 27.72 33.0663 27.8482 32.8836 27.9238C32.7009 27.9995 32.4998 28.0193 32.3058 27.9808C32.1119 27.9422 31.9337 27.8469 31.7938 27.7071C31.654 27.5672 31.5587 27.389 31.5201 27.1951C31.4816 27.0011 31.5014 26.8 31.577 26.6173C31.6527 26.4346 31.7809 26.2784 31.9454 26.1685C32.1098 26.0586 32.3031 26 32.5009 26C32.7661 26 33.0205 26.1053 33.208 26.2929C33.3956 26.4804 33.5009 26.7348 33.5009 27ZM32.5009 23.5C32.2043 23.5 31.9142 23.412 31.6676 23.2472C31.4209 23.0823 31.2286 22.8481 31.1151 22.574C31.0016 22.2999 30.9719 21.9983 31.0297 21.7073C31.0876 21.4164 31.2305 21.1491 31.4403 20.9393C31.65 20.7295 31.9173 20.5867 32.2083 20.5288C32.4993 20.4709 32.8009 20.5006 33.0749 20.6141C33.349 20.7277 33.5833 20.9199 33.7481 21.1666C33.913 21.4133 34.0009 21.7033 34.0009 22C34.0009 22.3978 33.8429 22.7793 33.5616 23.0606C33.2803 23.3419 32.8988 23.5 32.5009 23.5ZM32.5009 19.5C32.1551 19.5008 31.8133 19.5738 31.4973 19.7143C31.1813 19.8549 30.8982 20.0598 30.6659 20.316L29.4104 19.5625C29.4676 19.3803 29.4981 19.1909 29.5009 19C29.4993 18.5579 29.3512 18.1288 29.0798 17.7798C28.8084 17.4307 28.429 17.1815 28.0009 17.071V15.929C28.2728 15.8617 28.5272 15.7374 28.7474 15.5643C28.9675 15.3911 29.1482 15.1731 29.2776 14.9247C29.407 14.6764 29.4821 14.4033 29.4978 14.1237C29.5136 13.8441 29.4696 13.5643 29.3689 13.303L31.2094 12.0145C31.5669 12.3275 32.0258 12.5 32.5009 12.5C32.976 12.5 33.435 12.3275 33.7924 12.0145L35.6329 13.303C35.5322 13.5643 35.4883 13.8441 35.504 14.1237C35.5198 14.4033 35.5948 14.6764 35.7242 14.9247C35.8536 15.1731 36.0344 15.3911 36.2545 15.5643C36.4746 15.7374 36.7291 15.8617 37.0009 15.929V17.071C36.7398 17.1337 36.4944 17.2495 36.28 17.4112C36.0656 17.5728 35.8867 17.7768 35.7545 18.0106C35.6223 18.2443 35.5396 18.5027 35.5115 18.7698C35.4835 19.0369 35.5107 19.3069 35.5914 19.563L34.3359 20.316C34.1037 20.0598 33.8205 19.8549 33.5045 19.7143C33.1886 19.5738 32.8467 19.5008 32.5009 19.5Z" fill="white"></path><path d="M12 33.5449V29.7069L13.6465 31.3534L14.3535 30.6464L11.8535 28.1464C11.7597 28.0527 11.6326 28 11.5 28C11.3674 28 11.2403 28.0527 11.1465 28.1464L8.64651 30.6464L9.35351 31.3534L11 29.7069V33.5449C10.2583 33.6703 9.59077 34.0697 9.12968 34.664C8.6686 35.2584 8.44761 36.0042 8.51051 36.7538C8.57342 37.5034 8.91563 38.202 9.46932 38.7112C10.023 39.2203 10.7478 39.5029 11.5 39.5029C12.2522 39.5029 12.977 39.2203 13.5307 38.7112C14.0844 38.202 14.4266 37.5034 14.4895 36.7538C14.5524 36.0042 14.3314 35.2584 13.8703 34.664C13.4092 34.0697 12.7417 33.6703 12 33.5449ZM11.5 38.4999C11.1044 38.4999 10.7178 38.3826 10.3889 38.1628C10.06 37.9431 9.80362 37.6307 9.65225 37.2653C9.50087 36.8998 9.46127 36.4977 9.53844 36.1097C9.61561 35.7218 9.80609 35.3654 10.0858 35.0857C10.3655 34.806 10.7219 34.6155 11.1098 34.5383C11.4978 34.4612 11.8999 34.5008 12.2654 34.6521C12.6308 34.8035 12.9432 35.0599 13.1629 35.3888C13.3827 35.7176 13.5 36.1043 13.5 36.4999C13.5 37.0303 13.2893 37.539 12.9142 37.9141C12.5391 38.2892 12.0304 38.4999 11.5 38.4999Z" fill="white"></path><path d="M18.0002 28C17.251 28.0043 16.5306 28.2888 15.9806 28.7976C15.4305 29.3063 15.0908 30.0024 15.0281 30.7489C14.9654 31.4955 15.1843 32.2385 15.6418 32.8318C16.0993 33.4251 16.7622 33.8258 17.5002 33.955V37H16.0002V38H17.5002V39.5H18.5002V38H20.0002V37H18.5002V33.955C19.2382 33.8258 19.9011 33.4251 20.3586 32.8318C20.8161 32.2385 21.035 31.4955 20.9723 30.7489C20.9096 30.0024 20.5699 29.3063 20.0199 28.7976C19.4698 28.2888 18.7494 28.0043 18.0002 28ZM18.0002 33C17.6046 33 17.218 32.8827 16.8891 32.6629C16.5602 32.4432 16.3038 32.1308 16.1524 31.7654C16.0011 31.3999 15.9615 30.9978 16.0386 30.6098C16.1158 30.2219 16.3063 29.8655 16.586 29.5858C16.8657 29.3061 17.2221 29.1156 17.61 29.0384C17.998 28.9613 18.4001 29.0009 18.7656 29.1522C19.131 29.3036 19.4434 29.56 19.6631 29.8889C19.8829 30.2178 20.0002 30.6044 20.0002 31C20.0002 31.5304 19.7895 32.0391 19.4144 32.4142C19.0393 32.7893 18.5306 33 18.0002 33Z" fill="white"></path></g><defs><clipPath id="clip0_1682_4"><rect width="32" height="32" fill="white" transform="translate(8 8)"></rect></clipPath></defs></svg>