<svg xmlns="http://www.w3.org/2000/svg" id="Layer_1" height="512" viewBox="0 0 91 91" width="512"><g><path d="m89.3 73.4c0-5-7.2-13.4-8.6-15-.4-.4-1-.7-1.6-.7s-1.2.3-1.6.7c-1.4 1.6-8.6 10-8.6 15 0 5.6 4.6 10.2 10.2 10.2s10.2-4.6 10.2-10.2zm-16.2 0c0-2.1 3.1-6.8 6-10.4 2.9 3.5 6 8.2 6 10.4 0 3.3-2.7 6-6 6s-6-2.7-6-6z"></path><path d="m75.7 39.3c4.8 0 8.7-3.9 8.7-8.7 0-4.2-6-11.2-7.2-12.5-.4-.4-1-.7-1.6-.7s-1.2.3-1.6.7c-1 1.3-7 8.2-7 12.4 0 4.9 3.9 8.8 8.7 8.8zm0-16.6c2.4 3 4.5 6.4 4.5 7.9 0 2.5-2 4.5-4.5 4.5s-4.5-2-4.5-4.5c0-1.5 2.2-4.9 4.5-7.9z"></path><path d="m10.6 72.6c-.6 0-1.2.3-1.6.7-1.3 1.5-5.6 6.6-5.6 9.9 0 4 3.2 7.2 7.2 7.2s7.2-3.2 7.2-7.2c0-3.3-4.3-8.4-5.6-9.9-.4-.4-1-.7-1.6-.7zm0 13.6c-1.6 0-3-1.3-3-3 0-.9 1.4-3.1 3-5.2 1.6 2.1 3 4.3 3 5.2 0 1.7-1.3 3-3 3z"></path><path d="m12.6 32.5c5.5 0 9.9-4.5 9.9-9.9 0-4.9-7-13-8.4-14.6-.4-.4-1-.7-1.6-.7s-1.2.3-1.6.7c-1.4 1.6-8.4 9.7-8.4 14.6.2 5.4 4.6 9.9 10.1 9.9zm0-19.9c2.8 3.4 5.8 7.9 5.8 9.9 0 3.2-2.6 5.8-5.8 5.8s-5.8-2.6-5.8-5.8c.1-2 3.1-6.5 5.8-9.9z"></path><path d="m58.4 21.4c0-6.5-10.1-18-11.2-19.3-.4-.4-1-.7-1.6-.7s-1.2.3-1.6.7c-1.1 1.3-11.2 12.8-11.2 19.3 0 7.1 5.7 12.8 12.8 12.8s12.8-5.8 12.8-12.8zm-21.4 0c0-3.3 4.8-10.1 8.6-14.7 3.8 4.6 8.6 11.5 8.6 14.7 0 4.7-3.9 8.6-8.6 8.6s-8.6-3.9-8.6-8.6z"></path><path d="m50.3 23c-.7-.9-2-1.2-2.9-.5-1 .7-2.5.8-3.6 0-1-.6-2.3-.4-2.9.6s-.4 2.3.6 2.9c1.2.8 2.6 1.2 4.1 1.2s3-.5 4.2-1.3c1-.7 1.2-2 .5-2.9z"></path><path d="m28.9 7.2v-3.9c0-1.2-.9-2.1-2.1-2.1s-2.1.9-2.1 2.1v3.9c0 1.2.9 2.1 2.1 2.1s2.1-.9 2.1-2.1z"></path><path d="m68.8 9.2v-3.9c0-1.2-.9-2.1-2.1-2.1s-2.1.9-2.1 2.1v3.9c0 1.2.9 2.1 2.1 2.1s2.1-1 2.1-2.1z"></path><path d="m86.4 20.2c1.2 0 2.1-.9 2.1-2.1v-3.9c0-1.2-.9-2.1-2.1-2.1s-2.1.9-2.1 2.1v3.9c0 1.2 1 2.1 2.1 2.1z"></path><path d="m22.1 44.5c-.8-.8-2.2-.8-3 0s-.8 2.2 0 3l.3.3c1.4 1.4 3 2.9 5.3 3.5.7.2 1.4.2 2 .2h.3c1.1 0 2.2-.2 3.3-.7 1.6-.7 2.9-1.9 4-3 .3-.3.5-.5.8-.8 1.3-1.2 2.5-1.8 3.4-1.7 1.2 0 2.4 1.1 3.5 2.1l.3.3c1.4 1.4 3 2.9 5.3 3.5.7.2 2 .2 2 .2h.2c1.1 0 2.2-.2 3.3-.7 1.6-.7 2.9-1.9 4-3 .3-.3.5-.5.8-.8 1.3-1.2 2.5-1.8 3.4-1.7 1.2 0 2.4 1.1 3.5 2.1l.3.3c1.4 1.4 3 2.9 5.3 3.5.7.2 2 .2 2 .2s2.2 0 3.5-.7c1.6-.9 2.9-1.9 4-3l.8-.8c.9-.8.9-2.1.2-3-.8-.9-2.1-.9-3-.2-.3.3-.6.5-.9.8-1 .9-1.9 1.8-2.9 2.2-.5.2-1.1.3-1.7.3-.5 0-.8 0-1.1-.1-1.2-.3-2.2-1.3-3.3-2.4l-.3-.3c-1.6-1.6-3.6-3.2-6.2-3.3-2-.1-4.1.8-6.3 2.8-.3.3-.6.5-.9.8-1 .9-1.9 1.7-2.9 2.2-.5.2-1.1.4-1.7.3-.5 0-.8 0-1.1-.1-1.2-.3-2.2-1.3-3.3-2.4l-.3-.3c-1.6-1.6-3.6-3.2-6.2-3.3-2-.1-4.1.8-6.3 2.8-.3.3-.6.5-.9.8-1 .9-1.9 1.7-2.9 2.2-.5.2-1.1.3-1.7.3-.5 0-.8 0-1.1-.1-1.2-.3-2.2-1.3-3.3-2.4z"></path><path d="m2.1 64c1.4 1.4 3 2.9 5.3 3.5.7.2 1.4.2 2 .2h.1.2c1.1 0 2.2-.2 3.2-.7 1.6-.7 2.9-1.9 4-3 .3-.3.5-.5.8-.8 1.3-1.2 2.5-1.8 3.4-1.7 1.2 0 2.4 1.1 3.5 2.1l.3.3c1.4 1.4 3 2.9 5.2 3.5.7.2 1.4.2 2 .2h.1.2c1.1 0 2.2-.2 3.2-.7 1.6-.7 2.9-1.9 4-3 .3-.3.5-.5.8-.8 1.3-1.2 2.5-1.8 3.4-1.7 1.2 0 2.4 1.1 3.5 2.1l.3.3c1.4 1.4 3 2.9 5.2 3.5.7.2 1.4.2 2 .2h.1.2c1.1 0 2.2-.2 3.2-.7 1.6-.7 2.9-1.9 4-3 .3-.3.5-.5.8-.8.9-.8.9-2.1.2-3-.8-.9-2.1-.9-3-.2-.3.3-.6.6-.9.8-1 .9-1.9 1.7-2.9 2.2-.5.2-1.1.3-1.7.3-.5 0-.8 0-1.1-.1-1.1-.3-2.2-1.3-3.3-2.4l-.3-.3c-1.6-1.6-3.6-3.2-6.2-3.3-2-.1-4.1.8-6.3 2.8-.3.3-.6.6-.9.8-1 .9-1.9 1.7-2.9 2.2-.5.2-1.1.3-1.7.3-.5 0-.8 0-1.1-.1-1.1-.3-2.2-1.3-3.3-2.4l-.3-.3c-1.6-1.6-3.6-3.2-6.2-3.3-2-.1-4.1.8-6.3 2.8-.3.3-.6.6-.9.8-1 .9-1.9 1.7-2.9 2.2-.5.2-1.1.3-1.7.3-.5 0-.8 0-1.1-.1-1.2-.3-2.2-1.3-3.3-2.4l-.3-.3c-.8-.8-2.2-.8-3 0s-.8 2.2 0 3z"></path><path d="m60.8 80.9c-.3.3-.6.6-.9.8-1 .9-1.9 1.7-2.8 2.2-.5.2-1.1.3-1.7.3-.4 0-.8 0-1.1-.1-1.2-.3-2.2-1.3-3.3-2.4l-.3-.3c-1.6-1.6-3.6-3.2-6.2-3.3-2.1-.1-4.1.8-6.3 2.8-.3.3-.6.6-.9.8-1 .9-1.9 1.7-2.8 2.2-.5.2-1.1.3-1.7.3-.4 0-.8 0-1.1-.1-1.2-.3-2.2-1.3-3.3-2.4l-.3-.3c-.8-.8-2.2-.8-3 0s-.8 2.2 0 3l.3.3c1.4 1.4 3 2.9 5.3 3.5.8.2 1.4.2 2 .2h.2c1.1 0 2.2-.2 3.3-.7 1.6-.7 2.9-1.9 4-3l.8-.8c1.3-1.2 2.5-1.8 3.4-1.7 1.2 0 2.4 1.1 3.5 2.1l.3.3c1.4 1.4 3 2.9 5.3 3.5.8.2 1.4.2 2 .2h.3c1.1 0 2.2-.2 3.3-.7 1.6-.7 2.9-1.9 4-3 .3-.3.5-.5.8-.8.9-.8.9-2.1.2-3-1.2-.6-2.5-.6-3.3.1z"></path><path d="m9.5 39.8c-2 0-3.6 1.6-3.6 3.6s1.6 3.6 3.6 3.6 3.6-1.6 3.6-3.6c0-1.9-1.6-3.6-3.6-3.6z"></path></g></svg>