<svg xmlns="http://www.w3.org/2000/svg" width="50" height="50" viewBox="0 0 50 50" fill="none"><rect width="50" height="50" rx="25" fill="#273A2B"></rect><path d="M23.1367 20.064H24.1807V21.164H23.1367V20.064Z" fill="white"></path><path d="M29.8606 21.094C29.948 21.289 30.138 21.4037 30.3373 21.4037C30.4086 21.4037 30.4813 21.3883 30.5506 21.3577C30.814 21.239 30.9316 20.9307 30.814 20.668C30.7083 20.4323 30.6126 20.2003 30.526 19.972C30.4233 19.7017 30.1233 19.5693 29.8523 19.6687C29.5826 19.7707 29.4476 20.0727 29.5496 20.3417C29.644 20.5903 29.747 20.8403 29.8606 21.094Z" fill="white"></path><path d="M29.4194 13.741C29.4591 13.75 29.4991 13.755 29.5388 13.755C29.7758 13.755 29.9908 13.592 30.0468 13.351C30.1068 13.0947 30.1718 12.8527 30.2398 12.6257C30.3231 12.349 30.1664 12.0584 29.8904 11.9757C29.6124 11.8904 29.3231 12.0497 29.2404 12.325C29.1658 12.5724 29.0944 12.8347 29.0294 13.114C28.9638 13.3944 29.1384 13.6747 29.4194 13.741Z" fill="white"></path><path d="M29.2303 16.3411H29.2329C29.5203 16.3411 29.7536 16.1078 29.7549 15.8211C29.7563 15.5648 29.7663 15.3164 29.7843 15.0741C29.8053 14.7861 29.5893 14.5361 29.3019 14.5144C28.9986 14.5054 28.7633 14.7108 28.7429 14.9974C28.7239 15.2624 28.7123 15.5364 28.7109 15.8158C28.7096 16.1041 28.9423 16.3398 29.2303 16.3411Z" fill="white"></path><path d="M30.1723 11.2428C30.2437 11.2758 30.3177 11.2911 30.391 11.2911C30.5887 11.2911 30.7773 11.1791 30.8657 10.9878L31.0337 10.6324C31.1803 10.3291 31.235 10.2158 31.235 10.0564C31.235 9.76844 31.0107 9.47144 30.722 9.47144C30.434 9.47144 30.2097 9.6421 30.2097 9.93044C30.1913 9.9801 30.149 10.0631 30.0937 10.1791L29.917 10.5501C29.7967 10.8108 29.911 11.1218 30.1723 11.2428Z" fill="white"></path><path d="M30.0229 18.2964C29.9675 18.0467 29.9215 17.8017 29.8845 17.5611C29.8405 17.2754 29.5826 17.0857 29.2886 17.1237C29.0036 17.1684 28.8079 17.4347 28.8519 17.7191C28.8925 17.9831 28.9422 18.2507 29.0029 18.5234C29.0572 18.7667 29.2732 18.9324 29.5122 18.9324C29.5499 18.9324 29.5882 18.9274 29.6262 18.9197C29.9076 18.8571 30.0855 18.5781 30.0229 18.2964Z" fill="white"></path><path d="M17.5207 15.0907C17.536 15.333 17.545 15.584 17.5457 15.84C17.5464 16.128 17.7797 16.3613 18.0677 16.3613H18.069C18.357 16.36 18.5904 16.1257 18.5897 15.8373C18.589 15.5583 18.58 15.2867 18.5624 15.0217C18.5434 14.735 18.294 14.5387 18.008 14.5347C17.7197 14.554 17.5017 14.8027 17.5207 15.0907Z" fill="white"></path><path d="M18.2961 18.5384C18.3548 18.2658 18.4038 17.9994 18.4441 17.7354C18.4875 17.4511 18.2911 17.1848 18.0065 17.1414C17.7241 17.0994 17.4558 17.2944 17.4118 17.5798C17.3755 17.8208 17.3301 18.0668 17.2755 18.3191C17.2148 18.6008 17.3941 18.8788 17.6758 18.9384C17.7128 18.9474 17.7498 18.9511 17.7868 18.9511C18.0265 18.9514 18.2431 18.7831 18.2961 18.5384Z" fill="white"></path><path d="M17.0872 12.6348C17.1528 12.8628 17.2152 13.1064 17.2718 13.3614C17.3262 13.6048 17.5422 13.7704 17.7812 13.7704C17.8188 13.7704 17.8572 13.7654 17.8952 13.7578C18.1768 13.6954 18.3542 13.4161 18.2915 13.1344C18.2298 12.8564 18.1622 12.5928 18.0902 12.3441C18.0105 12.0674 17.7218 11.9134 17.4438 11.9871C17.1668 12.0674 17.0068 12.3568 17.0872 12.6348Z" fill="white"></path><path d="M17.4515 19.6894C17.1805 19.5861 16.8812 19.7277 16.7812 19.9977C16.6959 20.2284 16.6022 20.4604 16.4989 20.6961C16.3835 20.9601 16.5039 21.2684 16.7685 21.3831C16.8369 21.4137 16.9075 21.4277 16.9775 21.4277C17.1782 21.4277 17.3702 21.3104 17.4562 21.1141C17.5672 20.8604 17.6685 20.6081 17.7602 20.3594C17.8599 20.0897 17.7215 19.7887 17.4515 19.6894Z" fill="white"></path><path d="M16.4826 10.9854C16.5693 11.1804 16.76 11.2964 16.96 11.2964C17.0306 11.2964 17.1026 11.2811 17.1716 11.2504C17.4356 11.1344 17.554 10.8261 17.4373 10.5621L17.2673 10.1888C17.219 10.0854 17.1813 10.0078 17.1616 9.95545C17.115 9.71578 16.9033 9.53345 16.649 9.53345C16.361 9.53345 16.127 9.76811 16.127 10.0561C16.127 10.2114 16.1793 10.3251 16.32 10.6284L16.4826 10.9854Z" fill="white"></path><path d="M17.1484 36.565C17.0771 36.2847 16.7908 36.1253 16.5124 36.189C16.2334 36.2617 16.0658 36.546 16.1378 36.825L16.3301 37.5807C16.3894 37.8177 16.6021 37.977 16.8361 37.977C16.8781 37.977 16.9208 37.972 16.9634 37.9603C17.2431 37.8917 17.4128 37.6073 17.3431 37.328L17.1484 36.565Z" fill="white"></path><path d="M15.5514 29.7483C15.5107 29.4843 15.476 29.232 15.452 28.9963C15.422 28.7083 15.1684 28.4826 14.8784 28.531C14.5917 28.5603 14.383 28.8166 14.413 29.1033C14.4397 29.357 14.4754 29.6246 14.5187 29.9063C14.5587 30.165 14.7814 30.35 15.0344 30.35C15.0604 30.35 15.088 30.3473 15.1147 30.3436C15.3994 30.299 15.595 30.0326 15.5514 29.7483Z" fill="white"></path><path d="M16.3135 35.4317C16.5925 35.359 16.7602 35.0737 16.6882 34.7943L16.4932 34.0373C16.4218 33.7583 16.1352 33.586 15.8585 33.66C15.5788 33.7313 15.4098 34.0157 15.4812 34.2947L15.6775 35.057C15.7388 35.2917 15.9502 35.4483 16.1822 35.4483C16.2255 35.4483 16.2695 35.442 16.3135 35.4317Z" fill="white"></path><path d="M15.0413 32.5068C15.0973 32.7492 15.3123 32.9122 15.5493 32.9122C15.5883 32.9122 15.6283 32.9072 15.668 32.8982C15.949 32.8332 16.1237 32.5528 16.0587 32.2725L15.8873 31.5142C15.826 31.2325 15.545 31.0425 15.266 31.1152C14.9843 31.1765 14.806 31.4542 14.8677 31.7358L15.0413 32.5068Z" fill="white"></path><path d="M34.5704 23.9834C34.4024 23.3634 34.1961 22.8094 34.0047 22.3494C34.7814 20.6324 33.8657 17.5554 33.8254 17.4231C33.5744 16.5971 32.9071 15.2817 32.3661 14.3271C31.2564 12.3694 32.1941 11.3714 32.9474 10.5697C33.2827 10.2127 33.5471 9.93106 33.6084 9.57306L32.5837 9.37939C32.5511 9.46606 32.3411 9.69039 32.1867 9.85473C31.4117 10.6794 29.9691 12.2154 31.4577 14.8421C31.9477 15.7064 32.6004 16.9807 32.8274 17.7277C33.1587 18.8144 33.4977 20.8367 33.0827 21.8591C32.5984 22.0077 32.1241 22.1291 31.6477 22.2537C31.6424 22.2451 31.6367 22.2357 31.6311 22.2271C31.4821 21.9811 31.1621 21.8994 30.9147 22.0497C30.7484 22.1501 30.6661 22.3291 30.6707 22.5101C28.3301 23.0514 26.0477 23.3141 23.6477 23.3141C21.2371 23.3141 19.0447 23.0561 16.6584 22.4771C16.6411 22.3181 16.5604 22.1677 16.4121 22.0804C16.1804 21.9461 15.8954 22.0157 15.7387 22.2217C15.3461 22.1154 14.9581 22.0154 14.5511 21.8917C14.0294 20.7241 14.3337 18.4311 14.5484 17.7264C14.7754 16.9807 15.4277 15.7061 15.9181 14.8421C17.4061 12.2164 15.9641 10.6804 15.1891 9.85473C15.0347 9.69039 14.8244 9.46606 14.7921 9.38073L13.7661 9.57306C13.8274 9.93106 14.0924 10.2131 14.4271 10.5697C15.1804 11.3714 16.1177 12.3707 15.0091 14.3271C14.4687 15.2817 13.8014 16.5957 13.5491 17.4231C13.3234 18.1634 12.9307 20.6921 13.5711 22.2411L13.5384 22.3214C12.8631 23.9644 12.5141 25.0914 12.4474 25.7971H12.4207C12.4207 25.8851 12.4081 26.0877 12.3957 26.2927C12.3811 26.5297 12.3677 26.7694 12.3704 26.8254C12.0811 29.7161 13.5767 35.6507 14.6927 38.3081L15.6551 37.9027C14.5677 35.3141 13.1461 29.5657 13.4117 26.8777C13.4117 26.8254 13.4157 26.7364 13.4214 26.6341C13.7451 26.6951 14.0704 26.7521 14.3867 26.8334C14.3811 26.9601 14.3724 27.0787 14.3694 27.2117C14.3617 27.4997 14.5901 27.7394 14.8781 27.7457C14.8824 27.7471 14.8871 27.7471 14.8914 27.7471C15.1737 27.7471 15.4064 27.5214 15.4134 27.2374C15.4141 27.2084 15.4164 27.1831 15.4171 27.1541C18.6901 28.2494 21.4637 30.4131 23.1187 33.2657V38.0977H24.1627V33.3244C24.9301 31.9721 25.9597 30.7467 27.1947 29.7211C27.0827 30.2291 27.0197 30.7547 27.0197 31.2957C27.0197 35.3347 30.3051 38.6207 34.3434 38.6207C38.3817 38.6207 41.6674 35.3351 41.6674 31.2957C41.6674 27.3344 38.5037 24.1051 34.5704 23.9834ZM23.6581 32.1344C21.4501 28.7467 17.7461 26.3401 13.5264 25.5717C13.6257 25.0887 13.8697 24.2844 14.4104 22.9487C14.7761 23.0584 15.1171 23.1357 15.4714 23.2317C15.5111 23.2901 15.5621 23.3424 15.6264 23.3821C15.7117 23.4357 15.8074 23.4611 15.9011 23.4611C15.9777 23.4611 16.0517 23.4374 16.1214 23.4051C18.6977 24.0531 21.0554 24.3597 23.6474 24.3597C26.2721 24.3597 28.7631 24.0447 31.3274 23.4174C31.3691 23.4277 31.4081 23.4484 31.4511 23.4484C31.5474 23.4484 31.6447 23.4217 31.7321 23.3654C31.7637 23.3451 31.7841 23.3157 31.8097 23.2901C32.2461 23.1767 32.6784 23.0771 33.1214 22.9447C33.2501 23.2654 33.3764 23.6367 33.4927 24.0257C31.0227 24.3134 28.9281 25.8334 27.8347 27.9541C26.1494 29.0694 24.7177 30.4987 23.6581 32.1344ZM34.3437 37.5757C30.8814 37.5757 28.0637 34.7591 28.0637 31.2957C28.0637 27.8341 30.8811 25.0171 34.3437 25.0171C37.8064 25.0171 40.6237 27.8337 40.6237 31.2957C40.6234 34.7587 37.8061 37.5757 34.3437 37.5757Z" fill="white"></path><path d="M37.0171 28.9083C36.8921 28.7413 36.6807 28.6623 36.4774 28.7133C36.2747 28.7616 36.1197 28.925 36.0841 29.1313C36.0497 29.3263 35.9987 29.557 35.9431 29.7533C35.6851 28.7196 35.1071 27.5343 33.8381 26.7923C33.6284 26.6866 33.2194 26.5386 33.2194 26.5386C33.0537 26.4773 32.8707 26.5066 32.7301 26.61C32.5891 26.7156 32.5107 26.884 32.5211 27.06C32.5211 27.0613 32.5441 27.436 32.5394 27.5633C32.5227 28.4236 32.3851 29.0343 31.6874 29.9673C30.9444 30.917 30.7851 31.6766 30.7754 32.5306C30.7754 33.8676 31.5161 35.0786 32.7031 35.6903C33.1334 35.9173 33.5891 36.0433 33.9541 36.0496C34.0884 36.084 34.2154 36.0853 34.3047 36.0853C34.3207 36.0866 34.3377 36.0866 34.3544 36.0853C35.2747 36.0853 36.2114 35.7283 36.9311 35.104C37.7067 34.4296 38.1394 33.5413 38.1501 32.597V32.5486C38.2521 31.037 37.5967 29.7686 37.5351 29.6936C37.2917 29.2766 37.0171 28.9083 37.0171 28.9083ZM37.1064 32.5906C37.0987 33.228 36.7934 33.8396 36.2467 34.3153C35.7064 34.7843 34.9817 35.098 34.3254 35.0406C34.3234 35.0406 34.1074 35.0226 34.1054 35.0226C33.7917 35.0073 33.4841 34.922 33.1857 34.7653C32.3434 34.3306 31.8194 33.4753 31.8194 32.5373C31.8271 31.8656 31.9431 31.3353 32.5167 30.6026C33.3267 29.5193 33.5371 28.7276 33.5694 27.8573C34.9434 28.8336 35.0984 30.6423 35.0984 31.402C35.0984 31.62 35.2334 31.815 35.4381 31.8913C35.6434 31.9676 35.8734 31.9093 36.0147 31.7433C36.2187 31.5086 36.5131 31.11 36.7354 30.6C36.7487 30.577 36.7614 30.553 36.7751 30.526C36.9304 30.916 37.1671 31.663 37.1077 32.494C37.1071 32.504 37.1064 32.5803 37.1064 32.5906Z" fill="white"></path></svg>