<svg xmlns="http://www.w3.org/2000/svg" xmlns:xlink="http://www.w3.org/1999/xlink" id="Layer_1" x="0px" y="0px" viewBox="0 0 512.002 512.002" style="enable-background:new 0 0 512.002 512.002;" xml:space="preserve" width="512" height="512"><g>			<path style="fill-rule:evenodd;clip-rule:evenodd;fill:none;stroke:#000000;stroke-width:20;stroke-linecap:round;stroke-linejoin:round;stroke-miterlimit:22.9256;" d="&#10;&#9;&#9;M250.583,502.001l58.426-218.048c-13.336-3.574-21.251-17.282-17.678-30.619c3.574-13.336,17.282-21.251,30.619-17.678&#10;&#9;&#9;c9.559,2.561,16.331,10.329,18.086,19.435c6.072-7.008,15.821-10.349,25.38-7.788c13.337,3.573,21.251,17.282,17.678,30.619&#10;&#9;&#9;c-3.574,13.336-17.282,21.251-30.619,17.678l-55.305,206.401"></path>			<path style="fill-rule:evenodd;clip-rule:evenodd;fill:none;stroke:#000000;stroke-width:20;stroke-linecap:round;stroke-linejoin:round;stroke-miterlimit:22.9256;" d="&#10;&#9;&#9;M10,100.638l224.655,71.991c-6.832,11.998-2.645,27.263,9.353,34.096c11.998,6.833,27.263,2.646,34.096-9.352&#10;&#9;&#9;c4.897-8.599,4.133-18.877-1.11-26.525c9.253,0.607,18.482-3.979,23.38-12.578c6.833-11.998,2.646-27.263-9.352-34.096&#10;&#9;&#9;c-11.998-6.833-27.263-2.645-34.096,9.352L23.942,57.851"></path>			<path style="fill-rule:evenodd;clip-rule:evenodd;fill:none;stroke:#000000;stroke-width:20;stroke-linecap:round;stroke-linejoin:round;stroke-miterlimit:22.9256;" d="&#10;&#9;&#9;M146.701,10.001c0,0,194,73.001,229,85.001c35,12,95.201,55.98,67,145l-83,261.999"></path>			<path style="fill-rule:evenodd;clip-rule:evenodd;fill:none;stroke:#000000;stroke-width:20;stroke-linecap:round;stroke-linejoin:round;stroke-miterlimit:22.9256;" d="&#10;&#9;&#9;M10,220.251c69.097,25.861,169.379,6.523,218.201,27.251c-54,117-3.575,172.673-25.5,254.499"></path>			<path style="fill-rule:evenodd;clip-rule:evenodd;fill:none;stroke:#000000;stroke-width:20;stroke-linecap:round;stroke-linejoin:round;stroke-miterlimit:22.9256;" d="&#10;&#9;&#9;M364.574,150.55c13.945,0,23.708,14.549,26.958,34.494c3.25,19.945-11.763,20.256-25.708,20.256s-31.25,0.195-31.25-13.75&#10;&#9;&#9;C334.574,177.605,350.629,150.55,364.574,150.55z"></path>			<line style="fill-rule:evenodd;clip-rule:evenodd;fill:none;stroke:#000000;stroke-width:20;stroke-linecap:round;stroke-linejoin:round;stroke-miterlimit:22.9256;" x1="473.402" y1="411.317" x2="502.002" y2="420.378"></line>			<line style="fill-rule:evenodd;clip-rule:evenodd;fill:none;stroke:#000000;stroke-width:20;stroke-linecap:round;stroke-linejoin:round;stroke-miterlimit:22.9256;" x1="471.074" y1="363.376" x2="500.371" y2="356.922"></line>			<line style="fill-rule:evenodd;clip-rule:evenodd;fill:none;stroke:#000000;stroke-width:20;stroke-linecap:round;stroke-linejoin:round;stroke-miterlimit:22.9256;" x1="443.894" y1="449.173" x2="464.131" y2="471.319"></line>			<line style="fill-rule:evenodd;clip-rule:evenodd;fill:none;stroke:#000000;stroke-width:20;stroke-linecap:round;stroke-linejoin:round;stroke-miterlimit:22.9256;" x1="135.768" y1="373.349" x2="105.798" y2="374.698"></line>			<line style="fill-rule:evenodd;clip-rule:evenodd;fill:none;stroke:#000000;stroke-width:20;stroke-linecap:round;stroke-linejoin:round;stroke-miterlimit:22.9256;" x1="150.426" y1="327.643" x2="123.797" y2="313.827"></line>			<line style="fill-rule:evenodd;clip-rule:evenodd;fill:none;stroke:#000000;stroke-width:20;stroke-linecap:round;stroke-linejoin:round;stroke-miterlimit:22.9256;" x1="154.474" y1="417.552" x2="129.194" y2="433.706"></line></g></svg>