<svg xmlns="http://www.w3.org/2000/svg" xmlns:xlink="http://www.w3.org/1999/xlink" id="Capa_1" x="0px" y="0px" viewBox="0 0 512 512" style="enable-background:new 0 0 512 512;" xml:space="preserve"><g>	<g>		<g>			<path d="M375.752,280.042V164.714l-36.48-36.48h-43.666V95.242h24.044V0h-71.66v15.096h56.564v65.05h-97.108v-65.05h16.498V0    H192.35v95.242h24.045v32.992h-43.667l-36.48,36.48V512h47.619v-15.096h-32.523v-81.079h209.312v81.079H207.912V512h167.839    V304.087h-15.096v96.642H151.344V239.505h209.312v40.538H375.752z M151.344,224.409v-0.001v-53.443l27.637-27.637h85.033v-15.096    H231.49V95.242h49.02v48.088h52.51l27.637,27.637v53.443H151.344z"></path>			<rect x="223.943" y="40.073" width="16.029" height="15.096"></rect>			<rect x="247.986" y="40.073" width="16.029" height="15.096"></rect>			<rect x="272.028" y="40.073" width="16.03" height="15.096"></rect>			<path d="M335.68,280.51h-0.001H176.321v47.154H335.68V280.51z M320.584,312.568h-0.001H191.417v-16.962h129.167V312.568z"></path>			<rect x="320.114" y="352.641" width="16.03" height="15.096"></rect>			<rect x="288.06" y="352.641" width="16.029" height="15.096"></rect>			<rect x="175.857" y="352.641" width="80.149" height="15.096"></rect>			<polygon points="328.598,432.321 328.598,464.845 296.073,464.845 296.073,479.941 343.694,479.941 343.694,432.321    "></polygon>			<rect x="264.017" y="464.843" width="16.03" height="15.096"></rect>		</g>	</g></g><g></g><g></g><g></g><g></g><g></g><g></g><g></g><g></g><g></g><g></g><g></g><g></g><g></g><g></g><g></g></svg>