<svg xmlns="http://www.w3.org/2000/svg" clip-rule="evenodd" fill-rule="evenodd" stroke-linejoin="round" stroke-miterlimit="2" viewBox="0 0 512 513"><path d="m223.945 480.476-24.64-24.64c-1.562-1.562-1.562-4.095 0-5.657l23.475-23.475 32.268-32.267c.752-.752 1.764-1.172 2.828-1.172s2.076.42 2.828 1.172 1.171 1.764 1.171 2.828l.001 31.183c9.383-.215 18.581-1.183 27.536-2.848 79.749-14.824 140.207-84.833 140.207-168.85 0-2.209 1.791-4 4-4h47.31c2.209 0 4 1.791 4 4 0 114.572-85.046 209.436-195.398 224.86-9.059 1.266-18.288 1.996-27.655 2.159l-.001 24.981c0 1.064-.419 2.076-1.171 2.828s-1.764 1.172-2.828 1.172-2.076-.42-2.828-1.172zm4.492-48.115-20.647 20.647 46.086 46.085v-19.29c0-2.207 1.792-4 4-4 10.366 0 20.564-.721 30.548-2.116 105.174-14.7 186.518-104.202 188.469-212.937h-39.317c-1.885 86.147-64.506 157.436-146.702 172.715-10.698 1.989-21.728 3.029-32.998 3.029-2.208 0-4-1.793-4-4v-25.572zm25.439-347.309c-9.383.215-18.582 1.183-27.537 2.848-79.748 14.824-140.207 84.833-140.207 168.85 0 2.209-1.791 4-4 4h-47.31c-2.209 0-4-1.791-4-4 0-114.572 85.047-209.436 195.398-224.86 9.059-1.266 18.289-1.996 27.656-2.159v-24.981c0-1.064.419-2.076 1.172-2.828.752-.752 1.764-1.172 2.828-1.172s2.076.42 2.828 1.172l31.102 31.102 24.641 24.64c1.562 1.562 1.562 4.095 0 5.657l-23.475 23.475-32.268 32.267c-.752.752-1.764 1.171-2.828 1.171s-2.076-.419-2.828-1.171c-.753-.752-1.172-1.764-1.172-2.828zm4-47.355c-10.366 0-20.565.721-30.549 2.116-105.174 14.7-186.517 104.202-188.469 212.937h39.318c1.885-86.147 64.505-157.436 146.701-172.715 10.698-1.989 21.728-3.029 32.999-3.029 2.207 0 4 1.793 4 4v25.572l25.439-25.439 20.646-20.647-46.085-46.085v19.29c0 2.207-1.793 4-4 4zm-142.714 273.682c-20.171-5.775-45.834.075-59.656 28.176-1.726 3.509-3.288 6.701-4.72 9.617-.025.057-.052.114-.079.17-1.116 2.26-.474 5.708.607 9.488 1.982 6.934 6.107 14.738 9.697 19.772 1.268 1.778.854 4.252-.925 5.521-1.778 1.268-4.252.854-5.521-.924-3.782-5.304-8.058-13.349-10.423-20.765-8.231 15.774-12.417 19.753-27.833 30.604-1.786 1.257-4.258.828-5.515-.959-1.258-1.786-.828-4.258.959-5.515 17.666-12.434 19.472-15.417 31.711-40.422.046-.103.094-.204.144-.304.026-.053.053-.106.081-.157 1.419-2.899 2.976-6.09 4.713-9.62 17.341-35.254 50.897-39.962 74.856-30.258.686-12.287 3.491-20.276 7.743-25.369-.775-9.331-6.761-16.616-17.255-16.907-2.184-.061-3.908-1.883-3.847-4.067s1.883-3.907 4.067-3.847c13.199.367 21.569 8.318 24.169 19.292 6.161-2.936 14.053-3.271 23.392-2.233 6.049.672 12.501 1.212 18.495.704 1.664-.141 3.292-.359 4.86-.685.105-.029.211-.054.32-.075.05-.01.099-.018.149-.026 3.339-.745 6.388-1.997 8.9-4.049 5.094-4.16 7.668-11.506 6.652-23.695-.182-2.177 1.439-4.092 3.616-4.273 2.177-.182 4.092 1.439 4.273 3.616 1.318 15.819-2.922 25.085-9.534 30.484-2.391 1.952-5.153 3.39-8.167 4.424 2.943 5.233 10.397 9.93 21.641 8.652 2.171-.247 4.133 1.315 4.38 3.486s-1.316 4.133-3.486 4.38c-16.703 1.898-26.895-6.605-30.419-14.722-7.221.961-15.145.47-22.554-.353-9.219-1.024-16.751-1.027-21.916 3.3-.28.235-.553.481-.817.74-.06.061-.121.122-.183.182-4.192 4.249-6.334 11.643-6.676 23.618 9.593 1.855 18.636 10.191 25.925 21.697 11.588 18.292 19.059 44.267 19.059 59.724 0 25.703-19.836 46.809-45.022 48.833.046 8.696.139 16.657-1.23 23.297-1.19 5.77-3.455 10.621-7.426 14.339-4.132 3.869-10.199 6.578-19.266 7.472-2.175.215-4.114-1.376-4.328-3.55s1.377-4.114 3.551-4.328c7.895-.778 12.895-3.032 15.936-6.772 3.106-3.819 4.15-8.984 4.599-14.966.355-4.739.288-9.958.251-15.49-25.199-2.011-45.049-23.123-45.049-48.835 0-15.457 7.471-41.432 19.059-59.724 5.253-8.292 11.417-14.938 18.042-18.698zm11.891 119.497c22.67 0 41.075-18.405 41.075-41.075 0-14.369-7.057-38.482-17.83-55.488-3.473-5.482-7.327-10.22-11.495-13.566-3.708-2.977-7.63-4.839-11.75-4.839-.001 0-.002 0-.004 0-4.119.001-8.039 1.863-11.746 4.839-4.168 3.346-8.022 8.084-11.495 13.566-10.773 17.006-17.83 41.119-17.83 55.488 0 22.67 18.405 41.075 41.075 41.075zm0-67.459c14.562 0 26.384 11.822 26.384 26.384 0 14.561-11.822 26.384-26.384 26.384s-26.384-11.823-26.384-26.384c0-14.562 11.822-26.384 26.384-26.384zm0 7.917c-10.192 0-18.467 8.274-18.467 18.467 0 10.192 8.275 18.467 18.467 18.467s18.467-8.275 18.467-18.467c0-10.193-8.275-18.467-18.467-18.467zm170.137-173.626c-12.843-1.549-18.92-11.857-18.92-11.857-1.12-1.876-.506-4.308 1.37-5.427 1.876-1.12 4.308-.506 5.428 1.37 0 0 3.758 6.188 11.579 7.808.088-.568.203-1.144.344-1.726 1.641-6.747 2.321-15.348-2.867-20.487-2.115-2.094-5.218-3.499-9.529-4.019-2.169-.262-3.717-2.235-3.455-4.404s2.235-3.718 4.404-3.456c6.449.779 10.988 3.121 14.151 6.254 7.128 7.061 7.244 18.712 4.989 27.983-1.808 7.429 3.96 12.741 10.196 14.136.414-1.639.938-3.037 1.554-4.265 1.882-3.749 4.635-6.065 8.234-8.556l6.821-9.317c11.768-16.073 11.768-37.918 0-53.992l-6.703-9.155c-1.55-.825-5.506-2.776-9.879-3.721-.117-.019-.234-.044-.349-.073-.747-.151-1.505-.272-2.264-.351-3.402-.356-6.934.08-8.878 3.447-1.092 1.892-3.515 2.541-5.407 1.449s-2.541-3.515-1.449-5.407c2.934-5.082 7.559-7.16 12.577-7.465-1.471-4.908-.993-9.297.634-12.697 2.552-5.331 7.978-8.584 14.509-8.163 7.942.513 15.991-1.971 19.578-10.754.826-2.022 3.138-2.994 5.161-2.168 2.022.826 2.994 3.139 2.168 5.161-5.071 12.415-16.19 16.386-27.417 15.661-3.053-.197-5.665 1.188-6.858 3.681-1.277 2.669-.975 6.279 1.202 10.327 4.764 1.265 8.891 3.3 10.554 4.179l11.373 1.237c19.804 2.155 38.722-8.767 46.758-26.996l4.578-10.383c-.057-1.651-.316-5.647-1.487-9.662-.05-.139-.093-.281-.127-.424-.292-.949-.636-1.893-1.043-2.804-1.393-3.124-3.536-5.965-7.424-5.965-2.185 0-3.958-1.774-3.958-3.958 0-2.185 1.773-3.959 3.958-3.959 6.366 0 10.665 3.49 13.429 8.252 1.637-1.404 3.713-2.706 6.241-3.419.253-.805.524-1.803.714-2.867.243-1.349.429-2.834.011-4.029-.722-2.062.366-4.322 2.428-5.044 2.062-.721 4.322.367 5.044 2.428.836 2.387.794 5.347.31 8.043-.06.331-.125.657-.194.976 2.46.059 4.893.098 7.035-.139 1.009-.112 1.938-.279 2.726-.594.505-.202.961-.433 1.135-.939.713-2.066 2.968-3.164 5.033-2.451 2.066.713 3.164 2.968 2.451 5.033-1.202 3.482-4.039 5.538-8.06 6.429-4.014.889-9.488.504-14.485.504-.249 0-.491.011-.728.032-.049.006-.097.01-.146.015-3.301.357-5.388 2.678-6.381 4.117 1.094 4.432 1.363 8.578 1.429 10.34l4.615 10.468c8.036 18.229 26.954 29.151 46.758 26.996l11.281-1.227c1.401-.875 4.733-3.097 7.625-6.119.095-.113.196-.22.303-.322.675-.727 1.321-1.497 1.907-2.304 2.009-2.769 3.397-6.046 1.453-9.413-1.092-1.892-.443-4.315 1.449-5.407s4.315-.443 5.407 1.449c3.183 5.513 2.311 10.981-.431 15.756 3.055 1.074 6.404 3.121 8.646 7.004 1.885 3.266 3.657 6.945 5.657 9.666.601.819 1.21 1.539 1.877 2.064.427.337.856.616 1.381.514 2.145-.415 4.224.989 4.639 3.134.416 2.144-.988 4.223-3.133 4.638-3.617.701-6.816-.728-9.598-3.766-2.777-3.031-5.181-7.964-7.679-12.292-1.905-3.299-5.341-4.048-7.233-4.201-3.292 3.164-6.748 5.47-8.241 6.408l-6.758 9.23c-11.768 16.074-11.768 37.919 0 53.992l6.691 9.139c8.303 4.657 11.874 12.373 11.068 18.99.623.118 1.288.164 1.972.164 2.051-.002 4.261-.489 6.301-1.308 1.982-.796 3.812-1.902 5.129-3.253.898-.921 1.592-1.925 1.592-3.062 0-2.185 1.774-3.959 3.958-3.959 2.185 0 3.959 1.774 3.959 3.959 0 4.636-3.293 9.091-8.28 12-3.895 2.272-8.733 3.613-13.03 3.536-1.699-.031-3.318-.282-4.797-.753-.49.564-1.033 1.092-1.629 1.578-3.041 2.481-6.399 5.312-6.747 9.5-.232 2.803.96 6.053 4.005 10.094 1.315 1.744.966 4.228-.779 5.543-1.744 1.315-4.228.966-5.543-.778-4.623-6.134-5.926-11.258-5.572-15.514.531-6.401 4.983-11.187 9.632-14.979 1.541-1.258 2.189-3.106 2.066-5.055-.223-3.56-2.755-7.308-7.166-9.791l-11.382-1.239c-19.804-2.154-38.722 8.768-46.758 26.997l-4.578 10.383c.057 1.649.315 5.641 1.484 9.653.053.146.098.296.134.448.292.943.634 1.883 1.038 2.789 1.394 3.124 3.537 5.965 7.425 5.965 2.185 0 3.958 1.773 3.958 3.958s-1.773 3.958-3.958 3.958c-5.976 0-10.131-3.075-12.905-7.392-2.663 2.27-6.21 3.434-10.055 2.917-1.825-.246-3.759-.888-5.7-2.046-2.705-.248-5.455.51-7.84 1.465-4.291 1.718-7.479 4.21-7.479 4.21-1.718 1.35-4.209 1.052-5.558-.666-1.35-1.718-1.052-4.208.666-5.558 0 0 5.883-4.491 13.082-6.472-6.627-9.724-19.149-7.167-19.149-7.167-2.143.421-4.225-.978-4.647-3.122-.421-2.143.978-4.226 3.122-4.647 0 0 17.771-3.393 27.222 10.487 1.273 1.869 2.583 3.263 3.897 4.207.182.103.354.219.516.348.98.617 1.959.985 2.924 1.115 2.511.338 4.635-1.21 5.48-3.475-1.211-4.636-1.499-9.056-1.568-10.89l-4.615-10.468c-8.036-18.229-26.954-29.151-46.758-26.997l-11.164 1.215c-2.283 1.568-4.155 2.981-5.367 5.397-.692 1.378-1.173 3.039-1.459 5.139-.007.26-.039.514-.093.759-.241 2.201-.289 4.857-.161 8.126.789 20.16-11.838 25.599-19.732 22.227-2.009-.858-2.943-3.186-2.085-5.195s3.186-2.943 5.195-2.085c1.694.724 3.69.213 5.258-1.412 2.332-2.418 3.706-6.786 3.453-13.225-.082-2.113-.087-4.024-.021-5.759-7.418-1.461-14.4-6.642-16.675-14.036zm98.161-111.536-1.308 2.967c-9.428 21.386-31.624 34.201-54.859 31.673l-3.223-.351 1.916 2.616c13.806 18.858 13.806 44.487 0 63.345l-1.916 2.616 3.223-.351c23.235-2.528 45.431 10.287 54.859 31.673l1.308 2.966 1.308-2.966c9.428-21.386 31.623-34.201 54.858-31.673l3.223.351-1.915-2.616c-13.807-18.858-13.807-44.487 0-63.345l1.915-2.616-3.223.351c-23.235 2.528-45.43-10.287-54.858-31.673zm-26.506 50.282c8.773-3.039 16.896-7.729 23.915-13.807 1.487-1.288 3.695-1.288 5.182 0 7.019 6.078 15.142 10.768 23.915 13.807 1.859.644 2.963 2.556 2.591 4.488-1.754 9.117-1.754 18.497 0 27.615.372 1.932-.732 3.844-2.591 4.488-8.773 3.039-16.896 7.729-23.915 13.807-1.487 1.288-3.695 1.288-5.182 0-7.019-6.078-15.142-10.768-23.915-13.807-1.859-.644-2.963-2.556-2.591-4.488 1.754-9.118 1.754-18.498 0-27.615-.372-1.932.732-3.844 2.591-4.488zm5.75 6.312c1.188 7.943 1.188 16.024 0 23.967 7.472 2.942 14.471 6.983 20.756 11.983 6.284-5 13.283-9.041 20.756-11.983-1.188-7.943-1.188-16.024 0-23.967-7.473-2.943-14.472-6.984-20.756-11.984-6.285 5-13.284 9.041-20.756 11.984z"></path></svg>