<svg xmlns="http://www.w3.org/2000/svg" id="Layer_1" viewBox="0 0 512 512"><path d="m68.17 238.56c-.57-2.9-.86-5.88-.86-8.85 0-19.23 12.17-36.46 30.28-42.89 3.13-1.11 6.55.53 7.66 3.65s-.53 6.55-3.65 7.66c-13.33 4.73-22.29 17.42-22.29 31.58 0 2.2.21 4.4.63 6.53.64 3.25-1.47 6.41-4.72 7.05-.39.08-.78.11-1.17.11-2.81 0-5.32-1.98-5.88-4.84zm77.73-23.72c-19.01 6-31.79 23.44-31.79 43.39 0 3.32.36 6.63 1.07 9.84.62 2.8 3.1 4.71 5.85 4.71.43 0 .86-.05 1.3-.14 3.24-.71 5.28-3.92 4.57-7.15-.52-2.36-.79-4.8-.79-7.25 0-14.69 9.4-27.53 23.4-31.95 3.16-1 4.91-4.37 3.92-7.53-1-3.17-4.37-4.92-7.53-3.92zm-46.72 222.06c-12.52-5.22-20.61-17.36-20.61-30.93 0-4.28.79-8.44 2.36-12.38 1.23-3.08-.28-6.57-3.36-7.79-3.08-1.23-6.57.28-7.79 3.36-2.13 5.35-3.21 11.01-3.21 16.81 0 18.42 10.99 34.91 27.99 42 .76.32 1.54.46 2.31.46 2.35 0 4.58-1.39 5.54-3.69 1.28-3.05-.17-6.56-3.23-7.84zm-29.4-92.54c2.93-1.54 4.06-5.17 2.52-8.1-3.2-6.09-4.82-12.69-4.82-19.62 0-14.48 7.29-27.8 19.5-35.62 2.79-1.79 3.6-5.5 1.81-8.29s-5.5-3.6-8.29-1.81c-15.67 10.04-25.02 27.13-25.02 45.72 0 8.77 2.14 17.48 6.19 25.2 1.07 2.04 3.16 3.21 5.32 3.21.95-.01 1.9-.23 2.79-.69zm53.26 43.85c-10.97-7.94-17.52-20.75-17.52-34.27 0-9.68 3.18-18.78 9.2-26.33 2.07-2.59 1.64-6.37-.95-8.43-2.59-2.07-6.37-1.64-8.43.95-7.62 9.56-11.82 21.56-11.82 33.81 0 17.36 8.41 33.81 22.49 44 1.06.77 2.29 1.14 3.51 1.14 1.86 0 3.69-.86 4.87-2.48 1.94-2.7 1.34-6.45-1.35-8.39zm181.79-2.41c-3.08 1.22-4.58 4.71-3.36 7.79 1.57 3.93 2.36 8.1 2.36 12.38 0 13.56-8.09 25.71-20.61 30.93-3.06 1.28-4.5 4.79-3.23 7.85.96 2.3 3.19 3.69 5.54 3.69.77 0 1.55-.15 2.31-.46 17-7.09 27.99-23.58 27.99-42 0-5.81-1.08-11.46-3.21-16.81-1.23-3.09-4.71-4.59-7.79-3.37zm-27.76-65.68c-2.07-2.59-5.84-3.02-8.43-.95s-3.02 5.84-.95 8.43c6.02 7.55 9.2 16.65 9.2 26.33 0 13.52-6.55 26.33-17.52 34.27-2.68 1.94-3.29 5.69-1.34 8.38 1.17 1.62 3.01 2.48 4.87 2.48 1.22 0 2.45-.37 3.51-1.14 14.08-10.19 22.49-26.64 22.49-44-.01-12.23-4.21-24.24-11.83-33.8zm219.93-.15v83.92c0 26.44-13 49.42-35.66 63.05l-48.57 29.2c-.95.57-2.02.86-3.09.86s-2.14-.29-3.09-.86l-48.57-29.2c-8.13-4.89-15-10.98-20.49-18-9.57 11.81-24.04 18.87-39.57 18.87-.81 0-1.63-.02-2.43-.06-5-.23-9.33 1.9-12.18 6.02-10.07 14.55-26.63 23.23-44.3 23.23-20.81 0-38.89-11.87-47.85-29.2-8.96 17.32-27.04 29.2-47.85 29.2-17.67 0-34.23-8.69-44.3-23.23-2.85-4.12-7.18-6.25-12.18-6.02-.81.04-1.62.06-2.43.06-28.08 0-50.93-22.85-50.93-50.93 0-3.71.4-7.38 1.19-10.97-6.25-8.64-9.66-19.13-9.66-29.85 0-5.33.81-10.54 2.42-15.55-8.06-9.26-12.46-20.97-12.46-33.37 0-10.84 3.46-21.37 9.81-30.06-3.1-6.69-4.73-14.02-4.73-21.45 0-15.04 6.7-29.32 18.12-38.95-.65-3.27-.98-6.61-.98-9.97 0-17.93 9.32-34.35 24.53-43.56 3.41-20.48 19-36.87 39.27-41.31 8.71-16.82 26.13-27.52 45.24-27.52 19.43 0 36.34 10.94 44.93 26.98 8.58-16.04 25.5-26.98 44.93-26.98 4.73 0 9.38.65 13.87 1.92l66.28-98.59c1.64-2.44 4.8-3.33 7.47-2.11s4.07 4.19 3.3 7.03l-26.65 98.27h45.61c2.22 0 4.25 1.22 5.3 3.18 1.04 1.96.92 4.33-.32 6.17l-31.68 47.12c.56 1.92 1.02 3.87 1.35 5.84 15.21 9.21 24.53 25.63 24.53 43.56 0 3.36-.33 6.7-.98 9.97 11.41 9.63 18.12 23.91 18.12 38.95 0 7.43-1.62 14.76-4.73 21.45 3.6 4.91 6.27 10.41 7.91 16.24 14.21-2.45 26.99-7.86 40.94-16.82 1.98-1.27 4.51-1.27 6.48 0 24.69 15.85 45.69 20.59 77.49 17.5 1.68-.16 3.36.39 4.61 1.53 1.27 1.13 1.98 2.75 1.98 4.44zm-191.04-265.45-48.48 72.11s0 .01-.01.01l-14.51 21.59h42.17c1.87 0 3.63.87 4.77 2.35s1.51 3.41 1.03 5.22l-19.19 70.74 63-93.7h-42.17c-1.87 0-3.63-.87-4.77-2.35s-1.51-3.41-1.03-5.22zm-120.76 388.63c0-16.79-9.98-31.91-25.42-38.5-3.05-1.3-4.46-4.83-3.16-7.88s4.83-4.46 7.88-3.16c8.26 3.53 15.3 8.95 20.71 15.64v-79.67c-2.67-18.42-10.57-29.9-24.86-36.08-3.04-1.32-4.44-4.85-3.12-7.89s4.85-4.44 7.89-3.12c8.29 3.59 14.96 8.63 20.1 15.17v-99.6c-2.81 3.34-6.05 6.35-9.71 8.92-2.71 1.9-6.45 1.25-8.36-1.47-1.9-2.71-1.25-6.45 1.47-8.36 10.4-7.29 16.6-19.22 16.6-31.89 0-21.47-17.46-38.93-38.93-38.93-15.44 0-29.44 9.14-35.66 23.28-.83 1.88-2.56 3.2-4.58 3.52-17.47 2.68-30.94 16.83-32.77 34.41-.21 2-1.4 3.76-3.18 4.69-12.87 6.76-20.86 19.97-20.86 34.49 0 3.63.5 7.23 1.48 10.68.69 2.44-.22 5.05-2.28 6.52-10.23 7.3-16.34 19.16-16.34 31.71 0 6.73 1.75 13.37 5.05 19.19 1.25 2.21.98 4.96-.68 6.88-6.1 7.06-9.46 16.09-9.46 25.44 0 10.49 4.11 20.32 11.56 27.69 1.73 1.71 2.25 4.29 1.34 6.53-1.9 4.66-2.87 9.61-2.87 14.7 0 8.99 3.13 17.75 8.83 24.68 1.25 1.52 1.67 3.56 1.13 5.45-.98 3.46-1.48 7.05-1.48 10.69 0 21.47 17.46 38.93 38.93 38.93.63 0 1.25-.01 1.87-.04 9.16-.44 17.39 3.64 22.61 11.18 7.83 11.31 20.7 18.06 34.44 18.06 23.06-.01 41.83-18.78 41.83-41.86zm145.37-5.01c-5.35-10.26-8.2-21.87-8.2-34.25v-65.51c-.51 1.17-1.05 2.32-1.64 3.45-1.07 2.04-3.16 3.21-5.32 3.21-.94 0-1.89-.22-2.78-.69-2.93-1.54-4.06-5.17-2.52-8.1 3.2-6.09 4.82-12.69 4.82-19.62 0-14.48-7.29-27.8-19.5-35.62-2.79-1.79-3.6-5.5-1.81-8.29s5.5-3.6 8.29-1.81c14.98 9.6 24.16 25.64 24.95 43.27.68-.18 1.39-.25 2.11-.18 8.87.86 16.9 1.12 24.4.69-1.6-4.74-4.09-9.15-7.4-12.99-1.66-1.92-1.93-4.68-.68-6.88 3.3-5.82 5.05-12.45 5.05-19.19 0-12.55-6.11-24.4-16.34-31.71-2.06-1.47-2.98-4.09-2.28-6.53.98-3.46 1.48-7.05 1.48-10.68 0-14.52-7.99-27.74-20.86-34.49-.77-.4-1.42-.97-1.94-1.64l-48.97 72.83c-1.15 1.7-3.04 2.65-4.98 2.65-.84 0-1.69-.18-2.49-.54-2.67-1.22-4.07-4.19-3.3-7.03l26.65-98.27h-45.61c-2.22 0-4.25-1.22-5.3-3.18-1.04-1.96-.92-4.33.32-6.17l16.12-23.98c-2.2-.38-4.44-.58-6.7-.58-21.47 0-38.93 17.46-38.93 38.93 0 12.68 6.21 24.6 16.6 31.89 2.71 1.9 3.37 5.64 1.47 8.36-1.17 1.66-3.03 2.55-4.92 2.55-1.19 0-2.39-.35-3.44-1.09-3.65-2.56-6.9-5.58-9.71-8.92v99.6c5.13-6.54 11.8-11.58 20.1-15.17 3.04-1.32 6.57.08 7.89 3.12s-.08 6.57-3.12 7.89c-14.29 6.18-22.19 17.66-24.86 36.08v79.67c5.41-6.68 12.45-12.11 20.71-15.63 3.05-1.3 6.57.11 7.87 3.16s-.11 6.57-3.16 7.88c-15.44 6.6-25.42 21.71-25.42 38.5 0 23.08 18.77 41.85 41.85 41.85 13.73 0 26.61-6.75 34.44-18.06 5.22-7.54 13.45-11.6 22.61-11.18.62.03 1.24.04 1.87.04 13.21.02 25.42-6.68 32.58-17.64zm154.43-111.66c-29.58 1.96-51.46-3.25-75.32-17.85-15.74 9.63-30.63 15.15-47.42 17.25-.16.04-.31.07-.47.1-.28.04-.55.06-.82.07-8.28.94-17.03 1.07-26.6.44v77.41c0 22.13 10.88 41.36 29.84 52.77l45.47 27.33 45.48-27.34c18.96-11.41 29.84-30.64 29.84-52.77zm-10.34 16.68v60.72c0 18.69-8.82 34.28-24.83 43.91l-37.06 22.28c-.95.57-2.02.86-3.09.86s-2.14-.29-3.09-.86l-37.06-22.28c-16.01-9.63-24.83-25.22-24.83-43.91v-60.72c0-3.25 2.58-5.91 5.83-6 20.67-.59 38.04-5.21 56.32-15 1.77-.95 3.89-.95 5.66 0 18.28 9.78 35.65 14.41 56.32 15 3.25.1 5.83 2.76 5.83 6zm-12 5.73c-18.89-1.25-35.93-5.97-52.98-14.66-17.05 8.69-34.09 13.41-52.98 14.66v55c0 14.52 6.58 26.14 19.02 33.62l33.96 20.42 33.96-20.42c12.44-7.48 19.02-19.11 19.02-33.62zm-65.4 4.05h24.6c3.31 0 6 2.69 6 6v15.33h15.33c3.31 0 6 2.69 6 6v24.6c0 3.31-2.69 6-6 6h-15.33v15.33c0 3.31-2.69 6-6 6h-24.6c-3.31 0-6-2.69-6-6v-15.33h-15.33c-3.31 0-6-2.69-6-6v-24.6c0-3.31 2.69-6 6-6h15.33v-15.33c0-3.31 2.69-6 6-6zm0 33.33h-15.33v12.6h15.33c3.31 0 6 2.69 6 6v15.33h12.6v-15.33c0-3.31 2.69-6 6-6h15.33v-12.6h-15.33c-3.31 0-6-2.69-6-6v-15.33h-12.6v15.33c0 3.31-2.68 6-6 6z"></path></svg>