<svg xmlns="http://www.w3.org/2000/svg" xmlns:xlink="http://www.w3.org/1999/xlink" id="Capa_1" x="0px" y="0px" viewBox="0 0 512 512" style="enable-background:new 0 0 512 512;" xml:space="preserve"><g>	<g>		<path style="fill:none;stroke:#000000;stroke-width:15;stroke-linecap:round;stroke-linejoin:round;stroke-miterlimit:10;" d="&#10;&#9;&#9;&#9;M172.706,414.587c17.417,0,31.537,14.12,31.537,31.537"></path>		<path style="fill:none;stroke:#000000;stroke-width:15;stroke-linecap:round;stroke-linejoin:round;stroke-miterlimit:10;" d="&#10;&#9;&#9;&#9;M339.292,414.587c-17.417,0-31.537,14.12-31.537,31.537"></path>		<path style="fill:none;stroke:#000000;stroke-width:15;stroke-linecap:round;stroke-linejoin:round;stroke-miterlimit:10;" d="&#10;&#9;&#9;&#9;M224.463,278.485c0,10.839-4.942,20.523-12.696,26.922c-6.031,4.977-13.763,7.967-22.193,7.967&#10;&#9;&#9;&#9;c-11.632,0-21.934-5.692-28.273-14.443"></path>		<path style="fill:none;stroke:#000000;stroke-width:15;stroke-linecap:round;stroke-linejoin:round;stroke-miterlimit:10;" d="&#10;&#9;&#9;&#9;M188.991,313.374c0,10.839-4.942,20.523-12.696,26.922c-6.031,4.977-13.763,7.967-22.193,7.967"></path>		<path style="fill:none;stroke:#000000;stroke-width:15;stroke-linecap:round;stroke-linejoin:round;stroke-miterlimit:10;" d="&#10;&#9;&#9;&#9;M171.768,343.465c8.204,0,15.535,3.741,20.379,9.611c3.768,4.565,6.031,10.418,6.031,16.799"></path>		<path style="fill:none;stroke:#000000;stroke-width:15;stroke-linecap:round;stroke-linejoin:round;stroke-miterlimit:10;" d="&#10;&#9;&#9;&#9;M216.578,398.417c21.772,0,39.421,17.649,39.421,39.421"></path>		<path style="fill:none;stroke:#000000;stroke-width:15;stroke-linecap:round;stroke-linejoin:round;stroke-miterlimit:10;" d="&#10;&#9;&#9;&#9;M238.118,229.286c10.767,7.038,17.881,19.199,17.881,33.021"></path>		<path style="fill:none;stroke:#000000;stroke-width:15;stroke-linecap:round;stroke-linejoin:round;stroke-miterlimit:10;" d="&#10;&#9;&#9;&#9;M287.536,278.485c0,10.839,4.942,20.523,12.696,26.922c6.031,4.977,13.763,7.967,22.193,7.967&#10;&#9;&#9;&#9;c11.632,0,21.934-5.692,28.273-14.443"></path>		<path style="fill:none;stroke:#000000;stroke-width:15;stroke-linecap:round;stroke-linejoin:round;stroke-miterlimit:10;" d="&#10;&#9;&#9;&#9;M323.007,313.374c0,10.839,4.942,20.523,12.696,26.922c6.031,4.977,13.763,7.967,22.193,7.967"></path>		<path style="fill:none;stroke:#000000;stroke-width:15;stroke-linecap:round;stroke-linejoin:round;stroke-miterlimit:10;" d="&#10;&#9;&#9;&#9;M340.231,343.465c-8.204,0-15.535,3.741-20.379,9.611c-3.768,4.565-6.031,10.418-6.031,16.799"></path>		<path style="fill:none;stroke:#000000;stroke-width:15;stroke-linecap:round;stroke-linejoin:round;stroke-miterlimit:10;" d="&#10;&#9;&#9;&#9;M295.42,398.417c-21.772,0-39.421,17.649-39.421,39.421"></path>		<path style="fill:none;stroke:#000000;stroke-width:15;stroke-linecap:round;stroke-linejoin:round;stroke-miterlimit:10;" d="&#10;&#9;&#9;&#9;M273.881,229.286c-10.767,7.038-17.881,19.199-17.881,33.021"></path>		<path style="fill:none;stroke:#000000;stroke-width:15;stroke-linecap:round;stroke-linejoin:round;stroke-miterlimit:10;" d="&#10;&#9;&#9;&#9;M217.349,181.37c1.04-0.08,2.1-0.12,3.17-0.12c14.92,0,28.02,7.78,35.48,19.49c7.46-11.71,20.56-19.49,35.48-19.49&#10;&#9;&#9;&#9;c23.22,0,42.05,18.82,42.05,42.05c25.4,0,45.99,20.59,45.99,45.99c0,4.68-0.71,9.21-2.01,13.47c9.4,7.71,15.4,19.41,15.4,32.52&#10;&#9;&#9;&#9;c0,5.2-0.95,10.17-2.68,14.77c9.57,8.43,15.61,20.76,15.61,34.51c0,11.29-4.08,21.63-10.84,29.64c2.68,5.54,4.19,11.75,4.19,18.32&#10;&#9;&#9;&#9;c0,18.43-11.87,34.08-28.37,39.76c0,0.13,0.01,0.26,0.01,0.39c0,17.41-14.12,31.53-31.54,31.53c-1.85,0-3.65-0.17-5.42-0.47&#10;&#9;&#9;&#9;c-8.22,12.51-22.36,20.77-38.45,20.77c-16.73,0-31.37-8.94-39.42-22.3c-8.05,13.36-22.69,22.3-39.42,22.3&#10;&#9;&#9;&#9;c-16.09,0-30.23-8.26-38.45-20.77c-1.77,0.3-3.57,0.47-5.42,0.47c-17.42,0-31.54-14.12-31.54-31.53c0-0.13,0.01-0.26,0.01-0.39&#10;&#9;&#9;&#9;c-6.35-2.18-12.01-5.84-16.56-10.57 M112.929,409.45c0.38-5.44,1.81-10.58,4.07-15.25c-6.76-8.01-10.84-18.35-10.84-29.64&#10;&#9;&#9;&#9;c0-13.75,6.04-26.08,15.61-34.51c-1.73-4.6-2.68-9.57-2.68-14.77c0-13.11,6-24.81,15.4-32.52c-1.3-4.26-2.01-8.79-2.01-13.47&#10;&#9;&#9;&#9;c0-25.4,20.59-45.99,45.99-45.99c0-9.63,3.24-18.5,8.68-25.59"></path>					<line style="fill:none;stroke:#000000;stroke-width:15;stroke-linecap:round;stroke-linejoin:round;stroke-miterlimit:10;" x1="255.999" y1="200.74" x2="255.999" y2="482.204"></line>		<path style="fill:none;stroke:#000000;stroke-width:15;stroke-linecap:round;stroke-linejoin:round;stroke-miterlimit:10;" d="&#10;&#9;&#9;&#9;M208.091,65.239l43.066-55.371c2.456-3.157,7.228-3.157,9.683,0l43.066,55.371c3.134,4.029,0.263,9.899-4.842,9.899h-19.235&#10;&#9;&#9;&#9;v67.651c0,3.388-2.746,6.134-6.134,6.134h-35.396c-3.388,0-6.134-2.746-6.134-6.134V75.138h-19.235&#10;&#9;&#9;&#9;C207.829,75.138,204.958,69.268,208.091,65.239z"></path>		<path style="fill:none;stroke:#000000;stroke-width:15;stroke-linecap:round;stroke-linejoin:round;stroke-miterlimit:10;" d="&#10;&#9;&#9;&#9;M416.489,177.81v14.48c0,3.38-2.75,6.13-6.13,6.13h-35.4c-3.39,0-6.13-2.75-6.13-6.13v-67.65h-19.24c-5.1,0-7.97-5.87-4.84-9.9&#10;&#9;&#9;&#9;l43.07-55.37c2.45-3.16,7.22-3.16,9.68,0l43.07,55.37c3.13,4.03,0.26,9.9-4.85,9.9h-19.23v18.17"></path>		<path style="fill:none;stroke:#000000;stroke-width:15;stroke-linecap:round;stroke-linejoin:round;stroke-miterlimit:10;" d="&#10;&#9;&#9;&#9;M167.249,114.737l-43.066-55.371c-2.456-3.157-7.228-3.157-9.683,0l-43.066,55.371c-3.134,4.029-0.262,9.899,4.842,9.899h19.235&#10;&#9;&#9;&#9;v67.651c0,3.388,2.746,6.134,6.134,6.134h35.396c3.388,0,6.134-2.746,6.134-6.134v-67.651h19.235&#10;&#9;&#9;&#9;C167.511,124.636,170.382,118.766,167.249,114.737z"></path>	</g></g><g></g><g></g><g></g><g></g><g></g><g></g><g></g><g></g><g></g><g></g><g></g><g></g><g></g><g></g><g></g></svg>