<svg xmlns="http://www.w3.org/2000/svg" width="50" height="50" viewBox="0 0 50 50" fill="none"><rect width="50" height="50" rx="25" fill="#273A2B"></rect><path d="M39.6151 14.2978H39.2384V13.8406C39.2384 13.0771 38.6172 12.4558 37.8536 12.4558H28.4016C26.8881 12.4558 25.585 13.3627 24.9997 14.6604C24.4145 13.3628 23.1113 12.4558 21.5978 12.4558H12.1457C11.3821 12.4558 10.761 13.0771 10.761 13.8406V14.2978H10.3843C9.69095 14.2978 9.12695 14.8616 9.12695 15.555V34.4339C9.12695 35.1272 9.69095 35.6914 10.3843 35.6914H22.432C22.7606 35.6914 23.028 35.9588 23.028 36.2872C23.028 36.9806 23.592 37.5444 24.2853 37.5444H25.714C26.4073 37.5444 26.9713 36.9806 26.9713 36.2872C26.9713 35.9588 27.2386 35.6914 27.5673 35.6914H39.615C40.3083 35.6914 40.8723 35.1272 40.8723 34.4339V15.5549C40.8725 14.8616 40.3085 14.2978 39.6151 14.2978ZM11.4224 30.3184H21.5978C23.1793 30.3184 24.4846 31.5204 24.6505 33.0585H12.1457C11.7469 33.0585 11.4223 32.7339 11.4223 32.3351L11.4224 30.3184ZM28.4016 13.1171H37.8537C38.2525 13.1171 38.5771 13.4417 38.5771 13.8405V29.6571C36.375 29.6571 32.2195 29.6571 28.4016 29.6571C27.13 29.6571 26.0047 30.2964 25.3304 31.2707V16.1882C25.3304 14.4947 26.7082 13.1171 28.4016 13.1171ZM38.577 30.3184V32.3351C38.577 32.7339 38.2525 33.0585 37.8536 33.0585H25.349C25.5149 31.5204 26.8202 30.3184 28.4016 30.3184H38.577ZM11.4224 13.8405C11.4224 13.4417 11.747 13.1171 12.1458 13.1171H21.5978C23.2913 13.1171 24.6691 14.4947 24.6691 16.1882V31.2707C23.9948 30.2964 22.8695 29.657 21.5978 29.657C19.3804 29.657 14.0058 29.657 11.4224 29.657V13.8405ZM40.2111 34.4339C40.2111 34.7626 39.9437 35.03 39.6151 35.03H27.5673C26.874 35.03 26.31 35.5938 26.31 36.2872C26.31 36.6156 26.0426 36.883 25.714 36.883H24.2854C23.9568 36.883 23.6894 36.6156 23.6894 36.2872C23.6894 35.5939 23.1254 35.03 22.4321 35.03H10.3843C10.0558 35.03 9.78833 34.7626 9.78833 34.4339V15.5549C9.78833 15.2265 10.0557 14.9591 10.3843 14.9591H10.761V32.3351C10.761 33.0986 11.3822 33.7199 12.1458 33.7199H24.9965C24.9976 33.7199 24.9986 33.7205 24.9997 33.7205C25.0008 33.7205 25.0018 33.7199 25.0029 33.7199H37.8536C38.6172 33.7199 39.2384 33.0986 39.2384 32.3351C39.2384 27.3131 39.2384 19.9604 39.2384 14.9591H39.6151C39.9436 14.9591 40.2111 15.2265 40.2111 15.5549V34.4339Z" fill="white"></path><path d="M13.5865 23.4614H22.5047C22.6874 23.4614 22.8354 23.3135 22.8354 23.1307C22.8354 22.9479 22.6874 22.8 22.5047 22.8H13.5865C13.4039 22.8 13.2559 22.9479 13.2559 23.1307C13.2559 23.3135 13.4039 23.4614 13.5865 23.4614Z" fill="white"></path><path d="M22.8354 26.6173C22.8354 26.4346 22.6874 26.2866 22.5047 26.2866H13.5865C13.4039 26.2866 13.2559 26.4345 13.2559 26.6173C13.2559 26.8001 13.4039 26.948 13.5865 26.948H22.5047C22.6874 26.948 22.8354 26.8001 22.8354 26.6173Z" fill="white"></path><path d="M13.5865 16.4875H22.5047C22.6874 16.4875 22.8354 16.3397 22.8354 16.1569C22.8354 15.974 22.6874 15.8262 22.5047 15.8262H13.5865C13.4039 15.8262 13.2559 15.974 13.2559 16.1569C13.2559 16.3397 13.4039 16.4875 13.5865 16.4875Z" fill="white"></path><path d="M13.5865 19.9744H22.5047C22.6874 19.9744 22.8354 19.8265 22.8354 19.6437C22.8354 19.4609 22.6874 19.313 22.5047 19.313H13.5865C13.4039 19.313 13.2559 19.4609 13.2559 19.6437C13.2559 19.8265 13.4039 19.9744 13.5865 19.9744Z" fill="white"></path><path d="M31.0162 19.4021C31.1989 19.4021 31.3469 19.2543 31.3469 19.0715C31.3469 18.7372 31.6189 18.4653 31.9529 18.4653C32.1355 18.4653 32.2836 18.3175 32.2836 18.1346C32.2836 17.9518 32.1355 17.804 31.9529 17.804C31.2541 17.804 30.6855 18.3726 30.6855 19.0715C30.6855 19.2542 30.8336 19.4021 31.0162 19.4021Z" fill="white"></path><path d="M28.8066 26.2996C29.9103 26.2996 30.8084 25.4022 30.8084 24.2994C30.8084 23.6917 30.5354 23.1475 30.1068 22.78L30.9136 21.4397C31.5764 21.7316 32.3265 21.7339 32.9946 21.4397L33.8015 22.78C33.3729 23.1475 33.0998 23.6917 33.0998 24.2994C33.0998 25.4022 33.9979 26.2996 35.1017 26.2996C36.2055 26.2996 37.1036 25.4022 37.1036 24.2994C37.1036 23.1953 36.2055 22.2972 35.1017 22.2972C34.8425 22.2972 34.5954 22.3483 34.3679 22.4384L33.5607 21.0977C34.1589 20.6233 34.5443 19.8921 34.5443 19.0715C34.5443 17.6431 33.3824 16.4812 31.9541 16.4812C30.5259 16.4812 29.364 17.6431 29.364 19.0715C29.364 19.8921 29.7494 20.6232 30.3476 21.0977L29.5404 22.4384C29.3128 22.3483 29.0657 22.2972 28.8066 22.2972C27.7028 22.2972 26.8047 23.1953 26.8047 24.2994C26.8047 25.4022 27.7027 26.2996 28.8066 26.2996ZM36.4421 24.2994C36.4421 25.0376 35.8408 25.6383 35.1016 25.6383C34.3624 25.6383 33.7611 25.0376 33.7611 24.2994C33.7611 23.5602 34.3624 22.9586 35.1016 22.9586C35.8408 22.9586 36.4421 23.5602 36.4421 24.2994ZM30.0253 19.0715C30.0253 18.0077 30.8906 17.1426 31.954 17.1426C33.0176 17.1426 33.8829 18.0077 33.8829 19.0715C33.8829 20.1339 33.0176 20.9981 31.954 20.9981C30.8906 20.9981 30.0253 20.1339 30.0253 19.0715ZM28.8066 22.9586C29.5457 22.9586 30.1471 23.5602 30.1471 24.2994C30.1471 25.0376 29.5457 25.6383 28.8066 25.6383C28.0674 25.6383 27.4661 25.0376 27.4661 24.2994C27.4661 23.5602 28.0674 22.9586 28.8066 22.9586Z" fill="white"></path></svg>