<svg xmlns="http://www.w3.org/2000/svg" clip-rule="evenodd" fill-rule="evenodd" height="7.111in" viewBox="0 0 7111 7111" width="7.111in"><g id="Layer_x0020_1"><path d="m3556 5804c-897 0-1627-730-1627-1627 0-440 173-852 487-1160 49-49 147-21 142 69 0 3-43 353 108 532 55 65 129 99 226 101 143 6 253-23 325-86 35-30 87-26 118 9 30 34 26 87-8 118-106 91-254 134-440 127-344-13-474-294-497-587-191 251-293 557-293 879 0 805 655 1460 1460 1460 433 0 840-190 1119-522 29-35 82-40 118-10 34 30 40 82 9 118-312 367-766 579-1247 579zm1478-1103c-59 0-95-54-79-107 39-131 58-265 59-403 0-48-37-201-402-558-225-220-473-420-569-497-578-457-250-1124 114-1563-833 309-1036 671-1044 686-47 97-75 189-85 269-5 46-46 80-92 74-45-6-79-47-73-92 11-100 46-209 100-323 0 0 0-1 1-1 11-21 276-522 1451-872 81-24 146 78 79 141-6 6-619 578-600 1096 7 180 89 330 251 458 99 77 353 283 583 509 306 300 454 522 453 679-1 153-24 302-67 448-11 32-44 56-80 56z"></path><path d="m3554 5552c-8 0-18-2-26-5-113-36-196-112-238-218-136-337 157-896 191-959 30-57 114-61 147 0 33 63 326 622 190 959-43 106-125 182-237 218-9 3-19 5-27 5zm0-948c-84 198-177 492-108 663 21 53 55 89 108 112 53-23 88-59 108-112 70-171-23-465-108-663z"></path><path d="m3556 7109c-950 0-1842-369-2513-1041-672-670-1041-1563-1041-2512 0-950 369-1842 1041-2513 1390-1388 3636-1390 5025 0 672 672 1041 1563 1041 2513 0 949-369 1841-1041 2512-672 672-1564 1041-2512 1041zm0-6940c-1869 0-3387 1520-3387 3387 0 1866 1520 3386 3387 3386 1866 0 3386-1520 3386-3386 0-1867-1520-3387-3386-3387z"></path><path d="m3556 6693c-1679 0-3063-1324-3135-3001-33-778 220-1536 714-2132 31-38 86-42 122-6l4288 4309c34 34 30 92-7 122-560 460-1259 708-1982 708zm-2350-4954c-917 1179-818 2845 244 3913 1062 1067 2729 1172 3911 262zm4705 3843c-22 0-43-8-60-25l-4286-4307c-34-34-31-92 7-122 600-492 1359-741 2136-704 1618 78 2913 1378 2982 2997 33 777-220 1535-714 2132-15 18-37 29-59 30-3-1-5-1-6-1zm-4163-4383 4156 4175c916-1180 818-2846-244-3913s-2728-1174-3912-262z"></path></g></svg>