<svg xmlns="http://www.w3.org/2000/svg" width="50" height="50" viewBox="0 0 50 50" fill="none"><rect width="50" height="50" rx="25" fill="#273A2B"></rect><path d="M25 4.875C19.6644 4.88098 14.549 7.00321 10.7761 10.7761C7.00321 14.549 4.88098 19.6644 4.875 25C5.98026 51.6986 44.0238 51.6908 45.125 24.9998C45.119 19.6642 42.9968 14.5489 39.2239 10.776C35.451 7.00319 30.3356 4.88098 25 4.875ZM25 43.6875C20.0455 43.6819 15.2955 41.7113 11.7921 38.2079C8.28868 34.7045 6.31805 29.9545 6.3125 25C7.3388 0.208436 42.665 0.215653 43.6875 25.0001C43.6819 29.9547 41.7113 34.7046 38.2079 38.208C34.7045 41.7113 29.9545 43.682 25 43.6875Z" fill="white"></path><path d="M25.0003 9.03125C20.7665 9.036 16.7076 10.7199 13.7138 13.7136C10.7201 16.7073 9.0361 20.7662 9.03125 24.9999C9.90849 46.1845 40.0953 46.1784 40.9693 24.9998C40.9644 20.7661 39.2804 16.7072 36.2867 13.7135C33.2929 10.7199 29.234 9.036 25.0003 9.03125ZM25.719 39.4947V36.9053C25.719 36.7147 25.6433 36.5319 25.5085 36.3971C25.3737 36.2623 25.1909 36.1866 25.0003 36.1866C24.8096 36.1866 24.6268 36.2623 24.492 36.3971C24.3572 36.5319 24.2815 36.7147 24.2815 36.9053V39.4947C20.6865 39.3135 17.2868 37.8039 14.7415 35.2586C12.1961 32.7134 10.6865 29.3137 10.5052 25.7187H13.0946C13.2828 25.7151 13.4622 25.6378 13.5941 25.5034C13.7259 25.369 13.7998 25.1882 13.7998 24.9999C13.7998 24.8116 13.7259 24.6308 13.594 24.4964C13.4621 24.362 13.2828 24.2847 13.0945 24.2812H10.5052C10.6865 20.6862 12.1962 17.2865 14.7415 14.7412C17.2868 12.196 20.6865 10.6864 24.2815 10.5052V13.0946C24.2815 13.2852 24.3572 13.468 24.492 13.6028C24.6268 13.7376 24.8096 13.8133 25.0003 13.8133C25.1909 13.8133 25.3737 13.7376 25.5085 13.6028C25.6433 13.468 25.719 13.2852 25.719 13.0946V10.5052C29.314 10.6864 32.7137 12.196 35.2591 14.7412C37.8044 17.2865 39.314 20.6862 39.4954 24.2812H36.906C36.7177 24.2848 36.5384 24.3621 36.4065 24.4965C36.2746 24.6309 36.2007 24.8117 36.2008 24.9999C36.2008 25.1882 36.2746 25.369 36.4065 25.5034C36.5384 25.6378 36.7178 25.7151 36.906 25.7187H39.4954C39.314 29.3137 37.8044 32.7133 35.2591 35.2586C32.7137 37.8039 29.314 39.3134 25.719 39.4947Z" fill="white"></path><path d="M25.0001 17.2936C19.1628 13.5692 12.5682 20.7063 16.7535 26.2248C16.7927 26.2777 16.9127 26.4391 23.5815 33.129C23.958 33.5039 24.4677 33.7142 24.999 33.714C25.5302 33.7137 26.0398 33.5028 26.4158 33.1275C34.2315 24.9959 33.9794 26.569 34.542 22.4481C34.6559 17.652 28.9157 14.5865 25.0001 17.2936ZM32.1167 25.3336C31.8808 25.5996 27.9698 29.5334 25.3987 32.1115C25.2927 32.2176 25.1489 32.2773 24.999 32.2775C24.849 32.2778 24.705 32.2186 24.5986 32.113C22.0275 29.5335 18.1165 25.5996 17.8968 25.3536C17.1858 24.4429 16.8333 23.3033 16.9058 22.1502C16.9783 20.9971 17.4709 19.9106 18.2904 19.0962C19.1099 18.2818 20.1994 17.7959 21.3529 17.7305C22.5064 17.6651 23.6439 18.0247 24.5501 18.7413C24.677 18.8428 24.8345 18.8982 24.9969 18.8986C25.1593 18.899 25.317 18.8443 25.4444 18.7434C29.8183 15.36 35.4556 20.9396 32.1167 25.3336Z" fill="white"></path><path d="M26.8463 24.2812H25.7191V23.1543C25.7191 22.9637 25.6433 22.7809 25.5085 22.6461C25.3737 22.5113 25.1909 22.4355 25.0003 22.4355C24.8097 22.4355 24.6269 22.5113 24.4921 22.6461C24.3573 22.7809 24.2816 22.9637 24.2816 23.1543V24.2812H23.1543C22.9637 24.2812 22.7809 24.3569 22.6461 24.4917C22.5113 24.6265 22.4355 24.8093 22.4355 25C22.4355 25.1906 22.5113 25.3734 22.6461 25.5082C22.7809 25.643 22.9637 25.7187 23.1543 25.7187H24.2816V26.8456C24.2852 27.0338 24.3626 27.2131 24.497 27.3449C24.6314 27.4766 24.8121 27.5505 25.0003 27.5505C25.1886 27.5505 25.3693 27.4766 25.5037 27.3448C25.6381 27.213 25.7154 27.0338 25.7191 26.8456V25.7187H26.8463C27.0345 25.715 27.2138 25.6377 27.3456 25.5033C27.4774 25.3689 27.5512 25.1882 27.5512 25C27.5512 24.8117 27.4774 24.631 27.3456 24.4966C27.2138 24.3622 27.0345 24.2849 26.8463 24.2812Z" fill="white"></path></svg>