<svg xmlns="http://www.w3.org/2000/svg" width="50" height="50" viewBox="0 0 50 50" fill="none"><rect width="50" height="50" rx="25" fill="#273A2B"></rect><path d="M12.142 26.3209C12.5786 27.7933 13.16 29.2359 13.9639 30.5667C14.7642 31.8948 15.8042 33.1102 17.0931 34.0206C18.3798 34.9331 19.8722 35.5098 21.3908 35.8231C22.9137 36.1379 24.4674 36.2066 26.0007 36.128C27.5356 36.0487 29.0547 35.8189 30.5478 35.4909C31.2945 35.3261 32.035 35.1357 32.768 34.92C33.1348 34.8124 33.5 34.6981 33.8632 34.5773L34.4062 34.39L34.6776 34.2914L35.1875 34.0919L35.2065 33.5446L35.2091 33.256L35.2053 32.6809C35.1986 32.2983 35.1849 31.9163 35.1644 31.5349C35.1235 30.7713 35.0568 30.0099 34.964 29.2511C34.7761 27.7341 34.4876 26.2249 34.052 24.7508C33.6159 23.2783 33.034 21.8358 32.2306 20.5045C31.4298 19.1768 30.3902 17.961 29.1015 17.0511C27.8143 16.138 26.3219 15.5619 24.8032 15.2485C23.2808 14.9337 21.7265 14.865 20.1932 14.9431C17.1192 15.122 14.1265 15.81 11.2419 16.8857L10.9958 17.2332C10.9408 20.3119 11.2883 23.3623 12.142 26.3209ZM20.2342 15.7308C21.7156 15.6546 23.2049 15.7229 24.6433 16.0205C26.0785 16.317 27.4633 16.8559 28.6461 17.6944C29.8305 18.5309 30.7993 19.6576 31.5559 20.9127C32.3151 22.17 32.875 23.5522 33.296 24.9744C33.7167 26.3981 33.9985 27.8669 34.1812 29.3472C34.2725 30.0877 34.3371 30.8317 34.377 31.5769C34.3942 31.897 34.4043 32.2176 34.4116 32.5381C33.6827 31.4882 32.9024 30.4859 32.077 29.5229C32.0728 29.3424 32.0659 29.1855 32.0607 29.131L32.0176 28.6109C31.983 28.2657 31.9364 27.9219 31.8781 27.5797C31.7617 26.8965 31.6004 26.2201 31.3884 25.5574C30.9656 24.2344 30.3349 22.9556 29.4363 21.8625L28.8276 22.3637C29.6489 23.3617 30.2393 24.5498 30.6375 25.7977C30.8375 26.4222 30.9901 27.0634 31.1009 27.712C31.1476 27.9896 31.1828 28.2682 31.2138 28.5474C30.9965 28.3081 30.784 28.0657 30.5615 27.83C29.4994 26.7139 28.3696 25.6613 27.1862 24.6716L27.1259 24.4821L27.0499 24.2585L26.9443 23.9825C26.6511 23.252 26.2764 22.5672 25.8593 21.9176C25.0159 20.6177 24.0399 19.4444 22.9347 18.3545L22.3927 18.927C23.4339 19.9529 24.3994 21.1116 25.1954 22.3432C25.4724 22.7745 25.7255 23.2195 25.9453 23.6761C25.6377 23.4404 25.3335 23.2006 25.0187 22.9745C24.0185 22.2524 22.9742 21.5838 21.8937 20.9783C21.836 20.8843 21.7804 20.791 21.719 20.696C21.4247 20.2872 21.3418 20.1974 21.1854 20.0153C20.8915 19.6846 20.5772 19.3798 20.2502 19.0928C19.5912 18.5203 18.9021 18.0175 18.1481 17.5615L17.7519 18.2432C18.4398 18.6589 19.1183 19.1526 19.7308 19.6858C19.874 19.8118 20.0131 19.9409 20.149 20.073C17.5131 18.8089 14.6942 17.9279 11.7834 17.5579C11.7831 17.5486 17.3608 15.894 20.2342 15.7308ZM19.7725 20.7679C19.1957 20.7248 18.6191 20.6766 18.0439 20.621C16.857 20.505 15.6715 20.3643 14.5087 20.1539L14.367 20.9295C15.5666 21.1468 16.7667 21.2879 17.9679 21.406C18.5687 21.4643 19.1696 21.5146 19.7704 21.5587L20.6726 21.6201L21.5022 21.6632C22.5575 22.2545 23.5786 22.9084 24.5589 23.6153C25.0154 23.9432 25.4625 24.2838 25.9033 24.6327L25.8986 24.6338L25.3445 24.7078C23.8647 24.893 22.3717 24.9954 20.8851 24.9859C19.4007 24.9727 17.9124 24.8526 16.493 24.5005L16.3009 25.2651C17.8122 25.6392 19.3524 25.76 20.8794 25.7741C22.4085 25.7841 23.9308 25.6791 25.4433 25.4902L26.01 25.4142L26.7016 25.3072L26.7153 25.3051C27.8612 26.2664 28.958 27.2887 29.9903 28.3738C30.3067 28.7082 30.6147 29.0528 30.9222 29.3977L30.8793 29.405L30.1446 29.5179C29.6533 29.5882 29.1601 29.648 28.6664 29.6999C27.6783 29.8028 26.6864 29.871 25.6941 29.9025C23.71 29.9634 21.7201 29.881 19.7639 29.5908L19.6474 30.3706C21.6608 30.6691 23.6948 30.7525 25.7188 30.6902C26.731 30.6582 27.7413 30.5895 28.7483 30.484C29.2514 30.4314 29.7541 30.3701 30.2559 30.2987L31.0078 30.1827L31.3841 30.1182L31.5248 30.0904C32.4887 31.2202 33.3908 32.4009 34.1982 33.6266L34.1416 33.6476L33.6138 33.8298C33.2606 33.9473 32.9042 34.059 32.5464 34.164C31.8302 34.3739 31.1069 34.5608 30.3786 34.7214C28.9219 35.0414 27.4432 35.2644 25.9603 35.3411C24.4793 35.4166 22.9896 35.349 21.5512 35.0515C20.1161 34.755 18.7311 34.216 17.5489 33.3774C16.3645 32.541 15.3959 31.4143 14.6386 30.1591C13.8793 28.9019 13.3199 27.5197 12.8985 26.0975C12.1733 23.5976 11.8212 20.9607 11.7823 18.3532C14.5559 18.7177 17.2468 19.5599 19.7725 20.7679Z" fill="white"></path><path d="M41.5791 18.4419C42.5043 17.5251 43.0417 16.229 43.0353 14.926C43.0417 13.6236 42.5043 12.3269 41.5791 11.4102C40.6624 10.485 39.3662 9.94763 38.0637 9.95394C36.7609 9.94771 35.4647 10.485 34.548 11.4102C33.6229 12.3269 33.0854 13.6236 33.0918 14.926C33.0854 16.229 33.6229 17.5251 34.548 18.4419C35.4648 19.367 36.7609 19.9049 38.0637 19.8981C38.9612 19.9028 39.8532 19.6435 40.6225 19.1822C41.862 22.5638 41.9932 26.3414 40.9726 29.7948C39.8984 33.4802 37.5144 36.761 34.3554 38.9408C31.2068 41.1401 27.2954 42.1975 23.4657 41.9072C19.635 41.6427 15.9234 40.0119 13.128 37.3801C10.3174 34.7648 8.43888 31.1713 7.91987 27.3674C7.3783 23.5666 8.16754 19.5905 10.1522 16.3024C12.1163 13.0054 15.2323 10.4093 18.8363 9.08914C22.4335 7.75469 26.4903 7.69903 30.1243 8.92801L30.3762 8.18078C26.5702 6.89405 22.3306 6.95231 18.5629 8.34918C14.7899 9.73247 11.5311 12.447 9.47572 15.8978C7.39826 19.3386 6.57228 23.5021 7.13902 27.4765C7.68215 31.4584 9.64947 35.2203 12.5891 37.9559C15.513 40.7088 19.4 42.4173 23.4085 42.6939C27.4119 42.9977 31.5113 41.8904 34.8046 39.5884C38.11 37.3078 40.6036 33.8758 41.7287 30.0179C42.8186 26.3305 42.6664 22.293 41.2963 18.699C41.3933 18.6161 41.4894 18.5327 41.5791 18.4419ZM38.0637 19.1099C36.9649 19.1145 35.8792 18.6638 35.1058 17.8845C34.326 17.1106 33.8753 16.0243 33.88 14.9259C33.8753 13.8276 34.326 12.7414 35.1058 11.9679C35.8793 11.1882 36.965 10.7374 38.0637 10.7427C39.1616 10.7374 40.2479 11.1882 41.0219 11.9679C41.8011 12.7414 42.2518 13.8276 42.2472 14.9259C42.2518 16.0242 41.8011 17.1106 41.0219 17.8845C40.2479 18.6638 39.1616 19.1145 38.0637 19.1099Z" fill="white"></path><path d="M37.6699 14.1108H38.458V17.6891H37.6699V14.1108Z" fill="white"></path><path d="M37.6699 12.2886H38.458V13.1308H37.6699V12.2886Z" fill="white"></path></svg>