<svg xmlns="http://www.w3.org/2000/svg" width="50" height="50" viewBox="0 0 50 50" fill="none"><rect width="50" height="50" rx="25" fill="#273A2B"></rect><mask id="mask0_1469_12221" style="mask-type:luminance" maskUnits="userSpaceOnUse" x="6" y="7" width="37" height="37"><path d="M42.5 7.5V43.5H6.5V7.5H42.5Z" fill="white" stroke="white"></path></mask><g mask="url(#mask0_1469_12221)"><mask id="mask1_1469_12221" style="mask-type:luminance" maskUnits="userSpaceOnUse" x="6" y="7" width="37" height="37"><path d="M42.5 43.5V7.5H6.5V43.5H42.5Z" fill="white" stroke="white"></path></mask><g mask="url(#mask1_1469_12221)"><path d="M9.02148 25.303V34.4367L24.4998 43.373L39.9781 34.4367V16.5637L24.4998 7.62736L9.02148 16.5637V23.8577" stroke="white" stroke-miterlimit="10"></path></g><path d="M36.3648 22.8262V32.3504L24.4998 39.2007L12.6348 32.3504V18.6497L24.4998 11.7994L36.3648 18.6497V21.3809" stroke="white" stroke-miterlimit="10"></path><path d="M32.753 32.35L25.9277 36.2905" stroke="white" stroke-miterlimit="10" stroke-dasharray="20 13.33 20 13.33 733.33 20 13.33 20"></path><path d="M38.1719 20.1918V30.6943" stroke="white" stroke-miterlimit="10" stroke-dasharray="20 13.33 20 13.33 733.33 20 13.33 20"></path><mask id="mask2_1469_12221" style="mask-type:luminance" maskUnits="userSpaceOnUse" x="6" y="7" width="37" height="37"><path d="M42.5 43.5V7.5H6.5V43.5H42.5Z" fill="white" stroke="white"></path></mask><g mask="url(#mask2_1469_12221)"><path d="M24.5 39.2004V43.3726" stroke="white" stroke-miterlimit="10"></path></g><path d="M9.02148 16.5633L12.6348 18.6494" stroke="white" stroke-miterlimit="10"></path><path d="M39.9785 16.5633L36.3652 18.6494" stroke="white" stroke-miterlimit="10"></path><mask id="mask3_1469_12221" style="mask-type:luminance" maskUnits="userSpaceOnUse" x="6" y="7" width="37" height="37"><path d="M42.5 43.5V7.5H6.5V43.5H42.5Z" fill="white" stroke="white"></path></mask><g mask="url(#mask3_1469_12221)"><path d="M31.9218 26.4006C31.9218 30.499 28.5994 32.9331 24.501 32.9331C20.4026 32.9331 17.0801 30.499 17.0801 26.4006C17.0801 22.3021 24.501 15.2682 24.501 15.2682C24.501 15.2682 31.9218 22.3021 31.9218 26.4006Z" stroke="white" stroke-miterlimit="10"></path><path d="M29.8812 26.4013C29.8812 27.7515 29.3964 28.8407 28.4404 29.6386C27.8905 30.0975 27.2026 30.4397 26.4238 30.6499" stroke="white" stroke-miterlimit="10" stroke-dasharray="20 13.33 20 13.33 733.33 20 13.33 20"></path><path d="M24.5 35.479V20.9676" stroke="white" stroke-miterlimit="10"></path><path d="M27.4989 22.36L24.5024 25.3564L21.5059 22.36" stroke="white" stroke-miterlimit="10"></path><path d="M28.5953 25.5505L24.5018 29.644L20.4082 25.5505" stroke="white" stroke-miterlimit="10"></path><path d="M24.5 11.8001V13.896" stroke="white" stroke-miterlimit="10"></path><path d="M36.3655 32.3506L32.4727 30.1031" stroke="white" stroke-miterlimit="10"></path><path d="M16.5276 30.1031L12.6348 32.3506" stroke="white" stroke-miterlimit="10"></path></g></g></svg>