<svg xmlns="http://www.w3.org/2000/svg" width="50" height="50" viewBox="0 0 50 50" fill="none"><rect width="50" height="50" rx="25" fill="#273A2B"></rect><g clip-path="url(#clip0_1469_12227)"><g clip-path="url(#clip1_1469_12227)"><path fill-rule="evenodd" clip-rule="evenodd" d="M38.9736 29.4399L36.0195 22.282C35.8057 21.7665 35.2243 21.5254 34.7235 21.7442L32.2557 22.821C31.8228 23.0099 31.5821 23.4885 31.6736 23.9554C31.172 24.1471 30.6931 24.3674 30.2553 24.5687C29.5855 24.8768 29.0207 25.1366 28.7365 25.1375C28.4302 25.1386 27.3283 24.4374 26.0795 24.5841C25.8037 24.6164 25.6508 24.6305 25.4767 24.7013V24.1725C25.4767 22.416 26.3985 20.8502 27.8191 20.0092C30.8188 22.094 34.3556 20.9556 35.7646 17.5146C35.8537 17.2969 35.7779 17.0502 35.5955 16.9218C34.8919 16.3768 34.1171 15.9929 33.3155 15.804C31.677 15.418 30.0368 15.8701 28.8056 17.0467C28.2175 17.6087 27.7422 18.3178 27.3999 19.1257C27.3608 19.17 26.3149 19.6685 25.4768 20.9494V18.2311C27.4361 16.5513 28.1632 13.9515 26.9493 11.5949C26.5619 10.8427 25.9976 10.1694 25.3 9.61077C25.1326 9.4703 24.8873 9.4613 24.709 9.60299C21.7984 11.9201 21.6898 15.8025 24.5225 18.2311V20.9494C23.6846 19.6685 22.6384 19.17 22.5995 19.1257C22.2572 18.3179 21.7819 17.6088 21.1938 17.0468C19.9625 15.8702 18.3224 15.4181 16.6839 15.8041C15.8822 15.993 15.1074 16.3769 14.4038 16.9219C14.2214 17.0503 14.1457 17.297 14.2348 17.5146C15.6437 20.9558 19.1808 22.0941 22.1804 20.0093C23.6008 20.8504 24.5227 22.416 24.5227 24.1726V24.7467C23.8552 24.528 23.0519 24.4027 21.7294 24.856C21.3723 24.9783 21.0319 25.1709 20.7342 25.1396C19.9488 25.057 19.0515 24.6488 18.2146 24.2796L18.2667 24.1536C18.4793 23.6393 18.2441 23.0394 17.7437 22.821L15.2758 21.7442C14.775 21.5255 14.1943 21.7668 13.9806 22.2823L11.0256 29.4399C10.813 29.9541 11.0482 30.554 11.5486 30.7724L14.0164 31.8492C14.4737 32.0492 15.0057 31.8647 15.2547 31.4293L18.1627 33.5376L17.6256 34.5349C16.9872 35.7201 18.0395 37.1182 19.3114 36.7864C19.5556 37.565 20.3427 38.0138 21.1135 37.8126C21.3576 38.591 22.1446 39.0401 22.9156 38.8389C23.3193 40.126 25.0293 40.2958 25.6653 39.1152L26.0131 38.4692L27.0799 38.9892C27.4338 39.1617 27.8624 39.2729 28.2425 39.2258C28.6079 39.1805 28.9276 39.0058 29.1264 38.6398C29.3559 38.3235 29.4504 37.9439 29.4185 37.5772C30.2047 37.4533 30.7611 36.7249 30.6904 35.9109C31.4765 35.787 32.0329 35.0586 31.9623 34.2446C32.9425 34.09 33.5058 33.0295 33.1165 32.0994L34.3913 31.5686L34.7333 31.409C34.9768 31.8584 35.518 32.0524 35.9828 31.8492L38.4507 30.7724C38.9512 30.554 39.186 29.9541 38.9736 29.4399ZM34.7305 17.4887C33.5851 19.844 31.1973 20.7471 28.9109 19.5412C29.3043 19.4307 29.7184 19.3716 30.1458 19.3716C30.4093 19.3716 30.6228 19.1519 30.6228 18.881C30.6228 18.6101 30.4093 18.3905 30.1458 18.3905C29.6768 18.3905 29.2213 18.4496 28.7858 18.5608C30.208 16.4482 32.6574 16.0819 34.7305 17.4887ZM19.8534 19.3716C20.2808 19.3716 20.6949 19.4307 21.0882 19.5412C18.802 20.7471 16.4141 19.8442 15.2687 17.4887C17.3418 16.0819 19.7912 16.4482 21.2134 18.5608C20.7779 18.4495 20.3224 18.3904 19.8534 18.3904C19.59 18.3904 19.3764 18.6101 19.3764 18.8809C19.3764 19.1518 19.5899 19.3716 19.8534 19.3716ZM24.9996 10.625C26.8871 12.3454 27.146 14.9147 25.4767 16.8711V15.1258C25.4767 14.8549 25.263 14.6353 24.9996 14.6353C24.7362 14.6353 24.5225 14.8549 24.5225 15.1258V16.8711C22.8532 14.9148 23.112 12.3455 24.9996 10.625ZM14.4365 30.9282L14.3934 30.9505L11.9213 29.8717L11.8997 29.8275L14.8557 22.6652L14.8988 22.6428L17.3708 23.7215L17.3926 23.7658L14.4365 30.9282ZM19.4274 35.5616C19.354 35.6975 19.2324 35.7906 19.0956 35.831C18.6038 35.9762 18.2282 35.4343 18.4567 35.01L19.4808 33.1087C19.5542 32.9725 19.6759 32.8793 19.8129 32.8388C20.3045 32.6936 20.6815 33.2395 20.4519 33.6595L20.074 34.361L19.4274 35.5616ZM21.2297 36.5874C21.1564 36.7236 21.0348 36.8168 20.8978 36.8573C20.732 36.9062 20.5977 36.8788 20.4509 36.7957C20.2226 36.6665 20.1191 36.2998 20.2459 36.062L20.2782 36.0007L21.2831 34.135C21.3564 33.9988 21.4781 33.9057 21.615 33.8652C22.1025 33.7213 22.4841 34.2587 22.254 34.6861L21.2297 36.5874ZM23.0313 37.6146C22.9579 37.7503 22.8365 37.8432 22.6999 37.8835C22.2081 38.0288 21.8325 37.4868 22.0609 37.0626L23.0851 35.1613C23.1585 35.0252 23.2802 34.9319 23.4171 34.8915C23.9045 34.7476 24.2863 35.285 24.0561 35.7124L23.0313 37.6146ZM25.8712 36.7129L24.8526 38.6057C24.84 38.6249 24.8289 38.6451 24.8191 38.6662C24.7447 38.7882 24.6301 38.872 24.5021 38.9098C24.3363 38.9587 24.202 38.9313 24.055 38.8481C23.8247 38.7178 23.7237 38.3464 23.85 38.1145L24.8872 36.1874C24.9606 36.0513 25.0823 35.9581 25.2192 35.9176C25.3849 35.8687 25.5192 35.8961 25.6661 35.9792C25.8963 36.1095 25.9975 36.4808 25.8712 36.7129ZM31.3931 33.1625C31.1861 32.9954 30.8867 33.0323 30.724 33.245C30.5615 33.4575 30.5973 33.7655 30.8043 33.9329C30.9235 34.0292 30.9937 34.1672 31.0107 34.3117C31.071 34.8272 30.4973 35.1325 30.1213 34.8288C29.9143 34.6617 29.6148 34.6985 29.4523 34.9112C29.2897 35.124 29.3254 35.4319 29.5323 35.5991C29.6516 35.6954 29.7218 35.8334 29.7388 35.9779C29.7991 36.4935 29.2254 36.7987 28.8493 36.4951C28.6423 36.3279 28.3428 36.3648 28.1803 36.5774C28.0294 36.7747 28.0494 37.0538 28.2179 37.2267C28.2359 37.2451 28.2545 37.2622 28.2742 37.2771C28.4944 37.4542 28.536 37.8279 28.3647 38.0508C28.282 38.1585 28.2956 38.2319 28.1308 38.2523C27.9397 38.276 27.6983 38.2074 27.4861 38.1039L26.4752 37.6112L26.6894 37.2138C27.3288 36.0097 26.2636 34.6336 25.0035 34.9623C24.7595 34.1839 23.9703 33.7353 23.2014 33.9361C22.9573 33.1576 22.1683 32.7092 21.3992 32.9097C21.15 32.1149 20.3323 31.6656 19.552 31.896C19.1457 32.0158 18.8424 32.2757 18.6264 32.6765C17.5643 31.8942 16.6835 31.249 15.6405 30.5162L17.8421 25.1818C18.7462 25.5809 19.7016 26.0145 20.6372 26.1129C21.0908 26.1605 21.3966 26.036 21.7391 25.8965C22.7862 25.4699 23.5074 25.4639 24.1788 25.6653L21.2413 28.06C20.7279 28.4785 20.7675 29.2934 21.3117 29.6641C22.1635 30.2442 23.0065 30.3993 23.8382 30.2402C24.635 30.0877 25.4017 29.6442 26.1425 29.0123C26.1625 29.0121 26.1921 29.0188 26.2271 29.0301L29.2432 30.0048L32.0499 32.2445C32.1813 32.3579 32.261 32.4619 32.2825 32.6453C32.3426 33.1579 31.7711 33.4676 31.3931 33.1625ZM34.0286 30.6623L32.445 31.3217L29.7567 29.1764C29.7105 29.1398 29.6599 29.1132 29.6075 29.0964L26.5105 28.0951C26.1783 27.9877 25.8251 28.0135 25.5423 28.2552C24.3871 29.2427 23.1652 29.7499 21.8374 28.848L21.834 28.8266L25.5577 25.791C25.8462 25.5721 25.8309 25.5992 26.1875 25.5574C27.22 25.4363 28.1022 26.117 28.7365 26.115C29.2264 26.1133 29.8744 25.8153 30.643 25.4618C31.0725 25.2643 31.543 25.0478 32.026 24.8642L34.356 30.51C34.2439 30.5599 34.1344 30.6104 34.0286 30.6623ZM38.0859 29.867L35.6059 30.9505L35.5628 30.9282L32.6067 23.7659L32.6285 23.7216L35.0963 22.6448L35.1443 22.6648L38.084 29.79C38.0919 29.811 38.1142 29.8504 38.0859 29.867Z" fill="white"></path></g></g><defs><clipPath id="clip0_1469_12227"><rect width="30" height="31" fill="white" transform="translate(10 9.5)"></rect></clipPath><clipPath id="clip1_1469_12227"><rect width="30" height="31" fill="white" transform="translate(10 9.5)"></rect></clipPath></defs></svg>