<svg xmlns="http://www.w3.org/2000/svg" viewBox="0 0 64 64" width="512" height="512"><title>15 Patented Idea</title><g id="_15_Patented_Idea" data-name="15 Patented Idea"><path d="M22,23A11,11,0,1,0,33,34,11.013,11.013,0,0,0,22,23Zm0,20a9,9,0,1,1,9-9A9.01,9.01,0,0,1,22,43Z"></path><path d="M22,29a4.967,4.967,0,0,1,3.535,1.464,1,1,0,0,0,1.414-1.414,7,7,0,1,0,0,9.9,1,1,0,0,0-1.414-1.414A5,5,0,1,1,22,29Z"></path><path d="M22,53H12a1,1,0,0,0,0,2H22a1,1,0,0,0,0-2Z"></path><path d="M30,49H12a1,1,0,0,0,0,2H30a1,1,0,0,0,0-2Z"></path><path d="M55.335,31.8A11.017,11.017,0,0,0,49,29.054V10c0-.021-.011-.039-.012-.06a1,1,0,0,0-.054-.266A.948.948,0,0,0,48.9,9.58,1,1,0,0,0,48.71,9.3l0-.005-6-6,0,0a1,1,0,0,0-.283-.19.843.843,0,0,0-.1-.034.939.939,0,0,0-.262-.053C42.041,3.011,42.022,3,42,3H7A2,2,0,0,0,5,5V59a2,2,0,0,0,2,2H51a1,1,0,0,0,.9-.553l1-2A1,1,0,0,0,53,58V52.722A1.993,1.993,0,0,0,54,51a3.725,3.725,0,0,1,1.286-2.771A10.986,10.986,0,0,0,55.335,31.8ZM45.586,9H43V6.414ZM21,5V16.234l-3.485-2.091a1,1,0,0,0-1.03,0L13,16.234V5ZM7,59V5h4V18a1,1,0,0,0,1.515.857L17,16.166l4.485,2.691A1,1,0,0,0,23,18V5H41V9a2,2,0,0,0,2,2h4V29.042q-.124.01-.249.024a11.193,11.193,0,0,0-8.431,5.7A10.623,10.623,0,0,0,37.005,38.9a11.021,11.021,0,0,0,.052,2.6c0,.031.014.061.019.092a10.99,10.99,0,0,0,3.606,6.6A3.79,3.79,0,0,1,42,51a2.007,2.007,0,0,0,.065.481c.012.046.027.089.042.134a2,2,0,0,0,.135.319c.022.04.041.08.065.119a2,2,0,0,0,.283.363l.017.015a2.056,2.056,0,0,0,.349.267c.016.01.028.024.044.033V58a1,1,0,0,0,.1.447l.277.553Zm44-1.236L50.382,59H45.618L45,57.764V57h3a1,1,0,0,0,0-2H45V53h6Zm2.961-11.033A5.726,5.726,0,0,0,52,51H49V47.414l2.707-2.707a1,1,0,0,0-1.414-1.414L48,45.586l-2.293-2.293a1,1,0,0,0-1.414,1.414L47,47.414V51H44a5.794,5.794,0,0,0-1.985-4.3A8.931,8.931,0,0,1,39,39.1a8.639,8.639,0,0,1,.918-3.093,9.169,9.169,0,0,1,7.056-4.95A9.384,9.384,0,0,1,48.012,31,8.892,8.892,0,0,1,54,33.293a8.986,8.986,0,0,1-.04,13.438Z"></path><path d="M46.851,33.094A6.987,6.987,0,0,0,41.1,38.85,1,1,0,0,0,41.918,40a1.025,1.025,0,0,0,.164.013,1,1,0,0,0,.985-.837,4.989,4.989,0,0,1,4.11-4.109,1,1,0,0,0-.326-1.973Z"></path></g></svg>