<svg xmlns="http://www.w3.org/2000/svg" clip-rule="evenodd" fill-rule="evenodd" stroke-linejoin="round" stroke-miterlimit="2" viewBox="0 0 510 510"><g id="Artboard41"><path d="m267.338 445.186h-197.823c-4.418 0-8-3.581-8-8v-325.068c0-2.122.843-4.157 2.343-5.657l46.457-46.457c1.5-1.5 3.535-2.343 5.657-2.343h134.021v-13.313c0-3.201 1.907-6.094 4.85-7.354l68.517-29.348c2.011-.861 4.287-.861 6.299 0l68.541 29.347c2.942 1.26 4.851 4.153 4.851 7.355v59.123c0 30.403-15.221 58.022-38.877 74.83v80.513c.467.309.929.633 1.383.973 7.993 5.976 10.95 8.826 14.531 10.129 3.581 1.304 7.675 1.021 17.634 1.579h.002c12.273.691 22.219 9.031 24.991 20.975 2.282 9.714 2.718 13.797 4.624 17.099 1.907 3.303 5.226 5.722 12.485 12.55 8.94 8.371 11.221 21.17 5.695 32.141l-.006.012c-4.503 8.905-6.803 12.309-7.466 16.06-.662 3.75.333 7.731 1.525 17.632.001.01.002.02.003.029 1.422 12.187-5.051 23.43-16.339 28.231-.002 0-.004.001-.006.002l19.312 45.086c1.172 2.736.728 5.897-1.153 8.205-1.881 2.307-4.888 3.379-7.804 2.783l-25.826-5.284-13.907 22.389c-1.577 2.54-4.439 3.988-7.419 3.755s-5.582-2.108-6.746-4.862l-16.908-40.008c-6.999-2.2-10.253-3.446-13.547-3.446-1.955 0-3.894.439-6.607 1.255l-24.588 52.304c-1.266 2.693-3.92 4.46-6.892 4.589-2.972.13-5.77-1.401-7.265-3.973 0 0-13.241-22.787-13.241-22.787l-25.962 4.548c-2.934.514-5.911-.645-7.726-3.008-1.814-2.362-2.165-5.537-.911-8.24zm-17.345-371.525h-126.021v38.457c0 4.418-3.582 8-8 8h-38.457v309.068h197.249l5.114-11.021c-1.378-.567-2.912-1.205-4.629-1.941-11.296-4.804-17.8-16.062-16.337-28.25 1.18-9.91 2.174-13.895 1.514-17.648-.038-.213-.08-.425-.128-.636h-39.231c-4.416 0-8-3.585-8-8 0-4.416 3.584-8 8-8h31.619c-1.486-3.119-2.352-6.374-2.623-9.625h-28.996c-4.416 0-8-3.585-8-8 0-4.416 3.584-8 8-8h32.754c1.295-2.143 2.911-4.145 4.836-5.942 7.263-6.832 10.58-9.249 12.482-12.549 1.903-3.302 2.331-7.385 4.602-17.102l.002-.008c2.803-11.943 12.75-20.278 25.018-20.969h.002c9.958-.558 14.053-.275 17.634-1.579 3.581-1.303 6.538-4.153 14.531-10.129 4.609-3.447 9.906-5.279 15.246-5.494v-66.889c-6.373 2.818-13.139 4.935-20.208 6.244-.963.178-1.95.178-2.914 0-19.873-3.682-37.355-13.758-50.436-27.854h-53.549c-4.416 0-8-3.584-8-8 0-4.415 3.584-8 8-8h41.62c-8.085-13.706-12.694-29.593-12.694-46.323zm-142.021 11.314-19.143 19.143h19.143zm300.629 337.733c-.5.323-.963.662-1.402 1.03-2.919 2.451-4.718 6.144-10.171 14.5l-.007.011c-3.919 5.985-9.725 9.998-16.218 11.587l7.609 18.005 8.696-14.001c1.767-2.844 5.119-4.287 8.399-3.616l16.309 3.336zm-85.761 27.87c-8.531-.378-16.44-4.79-21.376-12.329l-.003-.004c-3.835-5.864-5.867-9.433-7.745-11.888-6.074 13.087-16.717 36.021-16.717 36.021l16.374-2.869c3.301-.578 6.613.963 8.297 3.861 0 0 8.378 14.418 8.378 14.418zm3.67-426.875-60.517 25.921v53.847c0 35.834 25.616 66.978 60.519 74.159 34.921-7.181 60.539-38.325 60.539-74.159v-53.846zm-46.118 88.391-.017-.017c-7.078-7.054-7.075-18.495.009-25.545 7.042-7.032 18.429-7.046 25.51-.008.005.006.011.011.017.017 0 0 9.703 9.703 9.703 9.703l31.515-31.817.01-.01c7.014-7.057 18.432-7.096 25.488-.082 7.094 7.051 7.09 18.461.093 25.501-19.205 19.395-24.989 25.441-44.312 44.74-7.057 7.08-18.502 7.074-25.535-.001zm11.297-11.331 22.498 22.498c.006.006.012.011.017.017.793.798 2.081.798 2.874 0 .007-.007.014-.014.021-.02 19.298-19.274 25.073-25.311 44.251-44.68l.011-.011c.792-.797.789-2.087-.013-2.884-.792-.787-2.072-.779-2.86.012l-37.163 37.52c-1.498 1.512-3.536 2.365-5.665 2.37-2.128.005-4.171-.838-5.676-2.343 0 0-15.373-15.373-15.382-15.382-.813-.796-2.11-.809-2.913-.005-.006.005-.011.011-.017.017-.798.793-.798 2.081 0 2.874.006.005.011.011.017.017zm64.285 171.837c-4.057-3.035-9.406-3.035-13.464 0l-.001.001c-10.089 7.543-14.119 10.705-18.639 12.35-4.521 1.646-9.637 1.814-22.21 2.519-5.066.285-9.182 3.717-10.34 8.649-2.866 12.265-3.916 17.277-6.318 21.445-2.403 4.168-6.214 7.589-15.392 16.222-.009.008-.017.016-.026.025-3.701 3.449-4.606 8.727-2.33 13.249 5.685 11.242 8.097 15.758 8.93 20.495.833 4.736.105 9.804-1.385 22.311v.007c-.603 5.019 2.069 9.656 6.72 11.63.009.004.018.008.027.012 11.583 4.966 16.333 6.875 20.018 9.971 3.683 3.094 6.385 7.448 13.286 17.999 2.765 4.222 7.793 6.065 12.653 4.59l.011-.003c12.046-3.636 16.908-5.228 21.718-5.228 4.808 0 9.676 1.592 21.736 5.227.007.002.014.004.021.006 4.84 1.474 9.88-.371 12.645-4.59 6.886-10.554 9.591-14.908 13.279-18.004 3.688-3.095 8.446-5.003 20.026-9.968l.027-.012c4.655-1.976 7.3-6.623 6.718-11.646-1.504-12.502-2.23-17.571-1.393-22.308.837-4.736 3.256-9.251 8.94-20.489 2.278-4.527 1.345-9.808-2.343-13.262l-.013-.012c-9.175-8.631-12.987-12.05-15.393-16.217-2.406-4.168-3.462-9.18-6.345-21.447-.002-.009-.004-.018-.006-.027-1.138-4.922-5.251-8.341-10.306-8.625-12.573-.705-17.689-.873-22.21-2.519-4.52-1.645-8.55-4.807-18.639-12.35zm-6.746 141.684c-34.053 0-61.843-27.79-61.843-61.843 0-34.054 27.79-61.844 61.843-61.844 34.087 0 61.844 27.79 61.844 61.844 0 34.053-27.757 61.843-61.844 61.843zm0-16c25.268 0 45.844-20.6 45.844-45.843s-20.576-45.844-45.844-45.844c-25.243 0-45.843 20.601-45.843 45.844s20.6 45.843 45.843 45.843zm-219.707-172.869h41.741c7.399 0 13.445 6.046 13.445 13.446v41.74c0 7.4-6.046 13.446-13.445 13.446h-41.741c-7.399 0-13.445-6.046-13.445-13.446v-41.74c0-7.4 6.046-13.446 13.445-13.446zm2.555 52.632h36.631v-36.632h-36.631zm-2.555-141.756h41.741c7.399 0 13.445 6.046 13.445 13.446v41.74c0 7.4-6.046 13.446-13.445 13.446h-41.741c-7.399 0-13.445-6.046-13.445-13.446v-41.74c0-7.4 6.046-13.446 13.445-13.446zm2.555 16v36.632h36.631v-36.632zm-2.547 162.259h41.725c7.392 0 13.444 6.071 13.444 13.463v41.725c0 7.399-6.045 13.444-13.444 13.444h-41.725c-7.399 0-13.444-6.045-13.444-13.444v-41.725c0-7.392 6.052-13.463 13.444-13.463zm2.556 16v36.632h36.613v-36.632zm88.982-50.006c-4.416 0-8-3.585-8-8 0-4.416 3.584-8 8-8h52.767c4.416 0 8 3.584 8 8 0 4.415-3.584 8-8 8zm0-25.625c-4.416 0-8-3.585-8-8 0-4.416 3.584-8 8-8h81.059c4.415 0 8 3.584 8 8 0 4.415-3.585 8-8 8zm0-63.499c-4.416 0-8-3.585-8-8 0-4.416 3.584-8 8-8h52.767c4.416 0 8 3.584 8 8 0 4.415-3.584 8-8 8z"></path></g></svg>