<svg xmlns="http://www.w3.org/2000/svg" data-name="Layer 1" id="Layer_1" viewBox="0 0 128 128"><title></title><path d="M94.35815,103.0282a2.02212,2.02212,0,0,0,1.25745-2.54846L94.363,96.65356a1.97639,1.97639,0,0,0-2.51013-1.27667,2.02212,2.02212,0,0,0-1.25745,2.54846l1.25262,3.82617a1.989,1.989,0,0,0,1.88379,1.381A1.93572,1.93572,0,0,0,94.35815,103.0282Z"></path><path d="M87.778,82.94366a2.02275,2.02275,0,0,0-1.25653,2.54944l1.2536,3.82513a1.98936,1.98936,0,0,0,1.88379,1.38007,1.94527,1.94527,0,0,0,.62732-.10431,2.02271,2.02271,0,0,0,1.25647-2.54944l-1.2536-3.8252A1.97566,1.97566,0,0,0,87.778,82.94366Z"></path><path d="M95.922,114.18573a1.989,1.989,0,0,0,1.88379,1.381,1.93518,1.93518,0,0,0,.62628-.10437,2.02179,2.02179,0,0,0,1.25751-2.54846l-1.2536-3.82611a1.97561,1.97561,0,0,0-2.51013-1.27673,2.02176,2.02176,0,0,0-1.25745,2.54846Z"></path><path d="M86.21606,71.78613a1.97481,1.97481,0,0,0-2.51013-1.27667,2.02171,2.02171,0,0,0-1.25745,2.54846l1.2536,3.82611a1.989,1.989,0,0,0,1.88379,1.381,1.93509,1.93509,0,0,0,.62628-.10431,2.02179,2.02179,0,0,0,1.25751-2.54846Z"></path><path d="M99.99493,126.61993A1.98938,1.98938,0,0,0,101.87872,128a1.94564,1.94564,0,0,0,.62732-.10437,2.02266,2.02266,0,0,0,1.25647-2.54944l-1.2536-3.82513a1.97564,1.97564,0,0,0-2.511-1.2757,2.02275,2.02275,0,0,0-1.25653,2.54944Z"></path><path d="M112.92938,102.226a1.989,1.989,0,0,0,1.88379,1.381,1.9339,1.9339,0,0,0,.62634-.10437,2.02171,2.02171,0,0,0,1.25745-2.54846l-1.2536-3.82611a1.97549,1.97549,0,0,0-2.51007-1.27667,2.02174,2.02174,0,0,0-1.25751,2.54846Z"></path><path d="M103.22345,59.82635a1.97592,1.97592,0,0,0-2.51007-1.27667,2.02179,2.02179,0,0,0-1.25751,2.54846l1.2536,3.82611a1.989,1.989,0,0,0,1.88379,1.381,1.93518,1.93518,0,0,0,.62634-.10431,2.02174,2.02174,0,0,0,1.25745-2.54846Z"></path><path d="M104.7854,70.98389a2.02267,2.02267,0,0,0-1.25653,2.54944l1.2536,3.8252a1.98932,1.98932,0,0,0,1.88379,1.38,1.94518,1.94518,0,0,0,.62726-.10431A2.02267,2.02267,0,0,0,108.55,76.08478l-1.2536-3.8252A1.97533,1.97533,0,0,0,104.7854,70.98389Z"></path><path d="M119.51343,115.93585a2.02264,2.02264,0,0,0,1.25653-2.54944l-1.2536-3.82513a1.97528,1.97528,0,0,0-2.511-1.2757,2.02264,2.02264,0,0,0-1.25653,2.54944l1.2536,3.82513a1.9893,1.9893,0,0,0,1.88379,1.38007A1.94362,1.94362,0,0,0,119.51343,115.93585Z"></path><path d="M112.623,88.52l-1.25262-3.82611a1.976,1.976,0,0,0-2.51013-1.27673,2.02217,2.02217,0,0,0-1.25745,2.54846l1.25262,3.82617a1.989,1.989,0,0,0,1.88379,1.381,1.93518,1.93518,0,0,0,.62628-.10437A2.0222,2.0222,0,0,0,112.623,88.52Z"></path><path d="M45.93323,120.68433l1.27686,3.8183a1.989,1.989,0,0,0,1.87994,1.3692,1.95583,1.95583,0,0,0,.63794-.10828,2.02213,2.02213,0,0,0,1.24194-2.55634L49.69305,119.389a1.97684,1.97684,0,0,0-2.51788-1.261A2.02218,2.02218,0,0,0,45.93323,120.68433Z"></path><path d="M45.54248,106.98132a1.97787,1.97787,0,0,0-2.51782-1.26093,2.02211,2.02211,0,0,0-1.242,2.55634l1.27692,3.81824a1.98887,1.98887,0,0,0,1.87988,1.3692,1.95556,1.95556,0,0,0,.63794-.10828,2.02211,2.02211,0,0,0,1.242-2.55634Z"></path><path d="M37.63214,95.871,38.909,99.68829a1.98943,1.98943,0,0,0,1.87994,1.36829,1.96723,1.96723,0,0,0,.63892-.10828,2.02278,2.02278,0,0,0,1.241-2.55737L41.392,94.57367a1.97779,1.97779,0,0,0-2.51886-1.25995A2.02311,2.02311,0,0,0,37.63214,95.871Z"></path><path d="M37.24146,82.166a1.97666,1.97666,0,0,0-2.51886-1.25995,2.02311,2.02311,0,0,0-1.241,2.55731l1.27686,3.81732a1.98938,1.98938,0,0,0,1.87988,1.36823,1.96723,1.96723,0,0,0,.63892-.10828,2.02312,2.02312,0,0,0,1.241-2.55731Z"></path><path d="M33.09088,69.75836a1.97772,1.97772,0,0,0-2.5188-1.25995,2.02272,2.02272,0,0,0-1.241,2.55731L30.60791,74.873a1.98945,1.98945,0,0,0,1.87994,1.36823,1.96723,1.96723,0,0,0,.63892-.10828,2.02311,2.02311,0,0,0,1.241-2.55731Z"></path><path d="M52.89539,103.89636a2.02112,2.02112,0,0,0-1.24969,2.55243l1.2652,3.8222a1.98854,1.98854,0,0,0,1.88184,1.37512,1.946,1.946,0,0,0,.63214-.10632,2.02111,2.02111,0,0,0,1.24976-2.55237l-1.26526-3.8222A1.977,1.977,0,0,0,52.89539,103.89636Z"></path><path d="M48.78168,91.476A2.02248,2.02248,0,0,0,47.533,94.02936l1.26617,3.8222A1.98975,1.98975,0,0,0,50.681,99.22565a1.9563,1.9563,0,0,0,.63312-.10626A2.02256,2.02256,0,0,0,52.56287,96.566l-1.26624-3.8222A1.97787,1.97787,0,0,0,48.78168,91.476Z"></path><path d="M47.18488,80.32434a1.97737,1.97737,0,0,0-2.514-1.26886,2.02112,2.02112,0,0,0-1.24969,2.55243l1.2652,3.8222a1.98854,1.98854,0,0,0,1.88184,1.37512,1.94442,1.94442,0,0,0,.63214-.10632,2.02111,2.02111,0,0,0,1.24976-2.55237Z"></path><path d="M43.07214,67.90387a1.9762,1.9762,0,0,0-2.514-1.2688,2.02112,2.02112,0,0,0-1.24969,2.55243l1.2652,3.8222a1.98854,1.98854,0,0,0,1.88184,1.37512,1.946,1.946,0,0,0,.63214-.10632,2.02115,2.02115,0,0,0,1.24976-2.55243Z"></path><path d="M63.27515,103.64539a2.02111,2.02111,0,0,0-1.24976,2.55237l1.26526,3.8222a1.98854,1.98854,0,0,0,1.88184,1.37512,1.94623,1.94623,0,0,0,.63214-.10626,2.02112,2.02112,0,0,0,1.24969-2.55243l-1.2652-3.8222A1.977,1.977,0,0,0,63.27515,103.64539Z"></path><path d="M59.16144,91.22491a2.02256,2.02256,0,0,0-1.24878,2.55341l1.26624,3.8222a1.98981,1.98981,0,0,0,1.88184,1.37415,1.95475,1.95475,0,0,0,.63312-.10632A2.02244,2.02244,0,0,0,62.94257,96.315l-1.26617-3.8222A1.97634,1.97634,0,0,0,59.16144,91.22491Z"></path><path d="M57.56464,80.0733a1.97584,1.97584,0,0,0-2.514-1.2688,2.02111,2.02111,0,0,0-1.24976,2.55237l1.26526,3.8222A1.98851,1.98851,0,0,0,56.948,86.55426a1.94632,1.94632,0,0,0,.63214-.10632,2.02112,2.02112,0,0,0,1.24969-2.55243Z"></path><path d="M50.93793,66.384a2.0212,2.0212,0,0,0-1.24976,2.55243l1.26526,3.8222a1.98854,1.98854,0,0,0,1.88184,1.37512,1.94469,1.94469,0,0,0,.63214-.10632A2.02108,2.02108,0,0,0,54.7171,71.4751l-1.2652-3.8222A1.97621,1.97621,0,0,0,50.93793,66.384Z"></path><path d="M25.21637,120.328a1.97037,1.97037,0,0,0,2.50623,1.28656A2.02309,2.02309,0,0,0,28.98981,119.07L27.74976,115.239a1.98184,1.98184,0,0,0-2.50623-1.2865,2.023,2.023,0,0,0-1.26715,2.54449Z"></path><path d="M24.9585,106.62006l-1.241-3.83008a1.97808,1.97808,0,0,0-2.50623-1.28455,2.022,2.022,0,0,0-1.26526,2.54449l1.241,3.83008a1.98854,1.98854,0,0,0,1.88568,1.387,1.95338,1.95338,0,0,0,.62054-.10236A2.022,2.022,0,0,0,24.9585,106.62006Z"></path><path d="M15.91479,91.60193l1.24,3.83008a1.9718,1.9718,0,0,0,2.5072,1.28558,2.02436,2.02436,0,0,0,1.26617-2.54553l-1.24-3.83008a1.98081,1.98081,0,0,0-2.5072-1.28552A2.02429,2.02429,0,0,0,15.91479,91.60193Z"></path><path d="M15.65588,77.894a1.97847,1.97847,0,0,0-2.50623-1.28455,2.02194,2.02194,0,0,0-1.2652,2.54449l1.241,3.83008a1.98862,1.98862,0,0,0,1.88574,1.387,1.95274,1.95274,0,0,0,.62048-.10236,2.022,2.022,0,0,0,1.26526-2.54456Z"></path><path d="M11.62653,65.446a1.98191,1.98191,0,0,0-2.50714-1.28552,2.02432,2.02432,0,0,0-1.26624,2.54547L9.0932,70.536a1.9718,1.9718,0,0,0,2.5072,1.28558,2.02441,2.02441,0,0,0,1.26617-2.54553Z"></path><path d="M35.23254,119.8772a1.989,1.989,0,0,0,1.87994,1.3692,1.95556,1.95556,0,0,0,.63794-.10828,2.02208,2.02208,0,0,0,1.24194-2.55634l-1.27686-3.81824a1.9768,1.9768,0,0,0-2.51782-1.261,2.02216,2.02216,0,0,0-1.242,2.55634Z"></path><path d="M34.84186,106.17413,33.565,102.3559a1.97753,1.97753,0,0,0-2.51788-1.26093,2.02213,2.02213,0,0,0-1.24194,2.55634l1.27686,3.81824a1.989,1.989,0,0,0,1.87988,1.3692,1.95592,1.95592,0,0,0,.638-.10828A2.02213,2.02213,0,0,0,34.84186,106.17413Z"></path><path d="M26.89563,88.68829a2.02309,2.02309,0,0,0-1.241,2.55731l1.27686,3.81726a1.98943,1.98943,0,0,0,1.87994,1.36829,1.96723,1.96723,0,0,0,.63892-.10828,2.02318,2.02318,0,0,0,1.241-2.55737l-1.27686-3.81726A1.97691,1.97691,0,0,0,26.89563,88.68829Z"></path><path d="M25.26392,77.54059a1.97625,1.97625,0,0,0-2.51886-1.25995,2.02271,2.02271,0,0,0-1.241,2.55731l1.27686,3.81732a1.98945,1.98945,0,0,0,1.87994,1.36823,1.96751,1.96751,0,0,0,.63892-.10828,2.02313,2.02313,0,0,0,1.241-2.55731Z"></path><path d="M21.11334,65.13293a1.97734,1.97734,0,0,0-2.5188-1.25995,2.02272,2.02272,0,0,0-1.241,2.55731l1.27692,3.81732a1.98932,1.98932,0,0,0,1.87988,1.36823,1.96723,1.96723,0,0,0,.63892-.10828,2.02269,2.02269,0,0,0,1.241-2.55731Z"></path><path d="M97.49457,87.04736l1.25262,3.82617a1.989,1.989,0,0,0,1.88379,1.381,1.93518,1.93518,0,0,0,.62628-.10437,2.02215,2.02215,0,0,0,1.25751-2.54846l-1.25262-3.82611A1.97561,1.97561,0,0,0,98.752,84.4989,2.02217,2.02217,0,0,0,97.49457,87.04736Z"></path><path d="M93.391,61.74982a23.86219,23.86219,0,0,1-3.6698,1.57031l.88,2.686a1.989,1.989,0,0,0,1.88379,1.381,1.93518,1.93518,0,0,0,.62634-.10431,2.02174,2.02174,0,0,0,1.25745-2.54846Z"></path><path d="M97.18817,73.34137a1.97571,1.97571,0,0,0-2.511-1.2757,2.0227,2.0227,0,0,0-1.25653,2.54944l1.2536,3.8252a1.98932,1.98932,0,0,0,1.88379,1.38,1.94518,1.94518,0,0,0,.62726-.10431,2.02267,2.02267,0,0,0,1.25653-2.54944Z"></path><path d="M105.33124,104.58441a2.02171,2.02171,0,0,0,1.25745-2.54846l-1.2536-3.82611a1.97592,1.97592,0,0,0-2.51007-1.27667,2.02174,2.02174,0,0,0-1.25751,2.54846l1.2536,3.82611a1.989,1.989,0,0,0,1.88379,1.381A1.93389,1.93389,0,0,0,105.33124,104.58441Z"></path><path d="M106.8941,115.74194a1.9893,1.9893,0,0,0,1.88379,1.38007,1.94519,1.94519,0,0,0,.62726-.10431,2.02274,2.02274,0,0,0,1.25653-2.5495l-1.2536-3.82513a1.97413,1.97413,0,0,0-2.511-1.2757,2.02264,2.02264,0,0,0-1.25653,2.54944Z"></path><path d="M107.83844,54.74518a1.989,1.989,0,0,0,1.88379,1.381,1.93509,1.93509,0,0,0,.62628-.10431,2.00924,2.00924,0,0,0,1.348-2.0257,23.48212,23.48212,0,0,1-3.96564.4209Z"></path><path d="M114.42535,62.08051a1.97531,1.97531,0,0,0-2.511-1.2757,2.02275,2.02275,0,0,0-1.25653,2.54944l1.2536,3.82513a1.9893,1.9893,0,0,0,1.88379,1.38007,1.94555,1.94555,0,0,0,.62732-.10431A2.02271,2.02271,0,0,0,115.679,65.9057Z"></path><path d="M122.56744,93.32355a2.02179,2.02179,0,0,0,1.25751-2.54846l-1.2536-3.82611a1.97561,1.97561,0,0,0-2.51013-1.27673,2.02176,2.02176,0,0,0-1.25745,2.54846l1.2536,3.82617a1.989,1.989,0,0,0,1.88379,1.381A1.93518,1.93518,0,0,0,122.56744,93.32355Z"></path><path d="M118.49445,80.88934a2.02172,2.02172,0,0,0,1.25751-2.54846l-1.2536-3.82617a1.97562,1.97562,0,0,0-2.51013-1.27667,2.02174,2.02174,0,0,0-1.25745,2.54846l1.2536,3.82617a1.989,1.989,0,0,0,1.88379,1.381A1.93509,1.93509,0,0,0,118.49445,80.88934Z"></path><path d="M124.13031,104.48108a1.989,1.989,0,0,0,1.88379,1.381,1.9339,1.9339,0,0,0,.62634-.10437,2.02171,2.02171,0,0,0,1.25745-2.54846l-1.2536-3.82611a1.97592,1.97592,0,0,0-2.51007-1.27667,2.02179,2.02179,0,0,0-1.25751,2.54846Z"></path><path d="M64.15161,74.27454a7.86512,7.86512,0,0,1-2.35217-.37372l.5401,1.64844a1.989,1.989,0,0,0,1.88379,1.381,1.93572,1.93572,0,0,0,.62634-.10431,1.97421,1.97421,0,0,0,.9231-.65668l-.31348-2.00378A7.841,7.841,0,0,1,64.15161,74.27454Z"></path><path d="M67.80066,89.13171l-1.1842-7.56915a1.91933,1.91933,0,0,0-.201.04633,2.02269,2.02269,0,0,0-1.25647,2.54944l1.2536,3.8252a1.97851,1.97851,0,0,0,1.41986,1.30591C67.82306,89.23633,67.809,89.18524,67.80066,89.13171Z"></path><path d="M73.05719,95.49207a7.84807,7.84807,0,0,1-2.5434-1.45532l-.02344.00537a2.02212,2.02212,0,0,0-1.25751,2.54846l1.25262,3.82617a1.98908,1.98908,0,0,0,1.88379,1.381,1.93527,1.93527,0,0,0,.62634-.10437A2.02212,2.02212,0,0,0,74.25305,99.145Z"></path><path d="M73.30585,109.02478l1.2536,3.82617a1.989,1.989,0,0,0,1.88379,1.381,1.93518,1.93518,0,0,0,.62628-.10437,2.02169,2.02169,0,0,0,1.25751-2.54846l-1.2536-3.82611a1.97643,1.97643,0,0,0-2.51013-1.27673A2.02176,2.02176,0,0,0,73.30585,109.02478Z"></path><path d="M82.4,124.01141l-1.2536-3.82513a1.97494,1.97494,0,0,0-2.51111-1.2757A2.02266,2.02266,0,0,0,77.37885,121.46l1.2536,3.82513a1.98924,1.98924,0,0,0,1.88379,1.38007,1.94362,1.94362,0,0,0,.62726-.10437A2.02275,2.02275,0,0,0,82.4,124.01141Z"></path><path d="M79.25214,95.05713a2.03329,2.03329,0,0,0,.089.45166L80.59375,99.335a1.989,1.989,0,0,0,1.88379,1.381,1.93518,1.93518,0,0,0,.62634-.10431,2.02212,2.02212,0,0,0,1.25745-2.54846L83.1087,94.237a1.993,1.993,0,0,0-1.28748-1.28241A7.89159,7.89159,0,0,1,79.25214,95.05713Z"></path><path d="M88.74072,124.20337a1.98932,1.98932,0,0,0,1.88379,1.38007,1.94528,1.94528,0,0,0,.62726-.10437,2.02275,2.02275,0,0,0,1.25653-2.54944l-1.2536-3.82513a1.97451,1.97451,0,0,0-2.51111-1.2757,2.02266,2.02266,0,0,0-1.25647,2.54944Z"></path><path d="M88.4353,110.49738l-1.2536-3.82611a1.97522,1.97522,0,0,0-2.51013-1.27673,2.02176,2.02176,0,0,0-1.25745,2.54846l1.2536,3.82617a1.989,1.989,0,0,0,1.88379,1.381,1.93518,1.93518,0,0,0,.62628-.10437A2.02169,2.02169,0,0,0,88.4353,110.49738Z"></path><path d="M107.2218,10.07965a19.62332,19.62332,0,0,0-9.414,2.40662A19.72284,19.72284,0,0,0,64.53162,6.83411a19.71011,19.71011,0,0,0-32.3114,3.59515A19.65837,19.65837,0,0,0,19.8559,6.04779a20.22026,20.22026,0,0,0-9.62677,37.79645A19.74982,19.74982,0,0,0,44.17938,54.19366a19.906,19.906,0,0,0,10.06927,5.78339l-1.21857-4.54443a15.9975,15.9975,0,0,1-8.85071-8.30011A15.83826,15.83826,0,0,1,13.919,41.16534,16.16592,16.16592,0,0,1,19.8559,10.07965,15.84094,15.84094,0,0,1,33.83447,18.5365a15.83982,15.83982,0,0,1,30.69714-4.00165,15.84919,15.84919,0,0,1,30.76672,5.04993,15.71338,15.71338,0,0,1,11.92346-5.47327,16.12933,16.12933,0,0,1,0,32.25494,15.72854,15.72854,0,0,1-9.223-2.98358A15.985,15.985,0,0,1,84.13147,56.34106L84.0614,60.401a19.90356,19.90356,0,0,0,16.20331-11.27051,19.55253,19.55253,0,0,0,6.229,1.23511c.243.00885.4837.03271.72809.03271.57629,0,1.14453-.03278,1.70673-.08777.53149-.04626,1.05322-.12286,1.572-.21094h.00006a20.17274,20.17274,0,0,0-3.27881-40.02Z"></path><path d="M78.44543,49.66791a3.91951,3.91951,0,0,0-3.79706-.33533l-2.62927,1.1723L69.64685,29.8764A4.03546,4.03546,0,0,0,67.677,26.84583a3.91788,3.91788,0,0,0-3.57123-.19348L54.13,31.09973a4.05007,4.05007,0,0,0-2.235,4.75073L60.3197,67.26953a4.01693,4.01693,0,0,0,2.12006,2.579,3.91715,3.91715,0,0,0,3.30835.05353l2.86505-1.27734,3.10938,19.87518a3.99029,3.99029,0,0,0,3.91882,3.39954q.13971,0,.281-.01007A4.00572,4.00572,0,0,0,79.61511,87.938l.60052-34.84314A4.04961,4.04961,0,0,0,78.44543,49.66791Zm-2.8009,38.19958L71.728,62.83264l-7.57654,3.37781L55.72668,34.79138l9.97577-4.44745,2.99518,26.04523,7.54742-3.36493Z"></path><path d="M9.67975,26.20715a1.98582,1.98582,0,1,0,3.97119,0,6.00939,6.00939,0,0,1,5.95673-6.04785,2.01616,2.01616,0,0,0,0-4.03186A10.01645,10.01645,0,0,0,9.67975,26.20715Z"></path></svg>