<svg xmlns="http://www.w3.org/2000/svg" id="Layer_1" viewBox="0 0 512 512" data-name="Layer 1"><path d="m327.93 326.569a13.447 13.447 0 0 0 0-18.993l-1.618-1.618a69.746 69.746 0 0 0 5.4-13.036h2.288a13.444 13.444 0 0 0 13.43-13.431v-13.556a13.445 13.445 0 0 0 -13.43-13.435h-2.287a69.517 69.517 0 0 0 -5.4-13.03l1.619-1.62a13.447 13.447 0 0 0 0-19l-9.588-9.588a13.451 13.451 0 0 0 -18.993 0l-1.618 1.619a69.959 69.959 0 0 0 -13.031-5.408v-2.288a13.45 13.45 0 0 0 -13.434-13.427h-13.568a13.445 13.445 0 0 0 -13.43 13.43v2.289a69.64 69.64 0 0 0 -13.035 5.409l-1.618-1.62a13.442 13.442 0 0 0 -18.994 0l-9.58 9.593a13.451 13.451 0 0 0 0 19l1.619 1.618a70.366 70.366 0 0 0 -5.4 13.035h-2.288a13.445 13.445 0 0 0 -13.43 13.43v13.558a13.445 13.445 0 0 0 13.431 13.43h2.287a69.537 69.537 0 0 0 5.4 13.031l-1.62 1.619a13.446 13.446 0 0 0 0 19l9.588 9.587a13.452 13.452 0 0 0 18.994 0l1.618-1.62a69.64 69.64 0 0 0 13.038 5.409v2.287a13.439 13.439 0 0 0 13.42 13.417h13.563a13.446 13.446 0 0 0 13.437-13.431v-2.287a69.067 69.067 0 0 0 13.03-5.407l1.618 1.62a13.451 13.451 0 0 0 19 0l9.586-9.586zm-19.547.554-5.106-5.105a6.384 6.384 0 0 0 -7.952-.867 57.152 57.152 0 0 1 -18.4 7.621 6.386 6.386 0 0 0 -5 6.235v7.224a.682.682 0 0 1 -.657.655h-13.568a.682.682 0 0 1 -.654-.656v-7.222a6.389 6.389 0 0 0 -5.011-6.238 56.79 56.79 0 0 1 -18.391-7.622 6.39 6.39 0 0 0 -7.952.868l-5.1 5.106a.675.675 0 0 1 -.926 0l-9.588-9.587a.685.685 0 0 1 -.181-.463.675.675 0 0 1 .182-.462l5.105-5.106a6.391 6.391 0 0 0 .869-7.954 56.954 56.954 0 0 1 -7.621-18.389 6.386 6.386 0 0 0 -6.235-5.007h-7.225a.67.67 0 0 1 -.654-.655v-13.564a.681.681 0 0 1 .655-.656h7.223a6.388 6.388 0 0 0 6.237-5 56.861 56.861 0 0 1 7.619-18.39 6.385 6.385 0 0 0 -.867-7.953l-5.1-5.1a.672.672 0 0 1 0-.926l9.588-9.588a.669.669 0 0 1 .926 0l5.1 5.105a6.387 6.387 0 0 0 7.954.867 56.92 56.92 0 0 1 18.393-7.62 6.387 6.387 0 0 0 5-6.235v-7.225a.68.68 0 0 1 .653-.655h13.568a.682.682 0 0 1 .657.655v7.223a6.385 6.385 0 0 0 5 6.235 56.871 56.871 0 0 1 18.392 7.624 6.393 6.393 0 0 0 7.952-.871l5.105-5.105a.675.675 0 0 1 .926 0l9.588 9.587a.681.681 0 0 1 0 .927l-5.105 5.1a6.387 6.387 0 0 0 -.867 7.954 56.953 56.953 0 0 1 7.619 18.393 6.388 6.388 0 0 0 6.236 5h7.23a.679.679 0 0 1 .655.654v13.565a.672.672 0 0 1 -.655.655h-7.224a6.387 6.387 0 0 0 -6.236 5 57 57 0 0 1 -7.617 18.393 6.378 6.378 0 0 0 .865 7.951l5.111 5.1a.675.675 0 0 1 0 .925l-9.588 9.588a.671.671 0 0 1 -.923.008zm-43.9-96.839a42.428 42.428 0 1 1 -42.428 42.427 42.477 42.477 0 0 1 42.428-42.427zm0 72.083a29.653 29.653 0 1 1 29.653-29.653 29.689 29.689 0 0 1 -29.651 29.651zm-66.408 66.419v32.013a15.377 15.377 0 0 1 -15.361 15.359h-2.675a20.338 20.338 0 0 1 -40.04 0h-64.166a20.339 20.339 0 0 1 -40.04 0h-13.4a6.388 6.388 0 0 1 -6.393-6.387v-35.7a6.389 6.389 0 0 1 6.388-6.388h1.243v-42.512c0-5.121 4.709-8.839 11.2-8.839h91.1c.17-.006.347-.011.519-.011a12.267 12.267 0 0 1 8.427 3.355h23.419.251a23.884 23.884 0 0 1 20.394 11.456l15.459 24.778a23.674 23.674 0 0 1 3.687 12.687v.192zm-161.668-39.679v38.578h87.934v-38.578zm-7.632 51.354v22.917h8.9a20.328 20.328 0 0 1 36.28 0h50.385v-22.917zm27.038 39.675a7.574 7.574 0 0 0 7.567-7.568 7.569 7.569 0 1 0 -7.569 7.568zm104.2 0a7.576 7.576 0 0 0 7.563-7.568 7.569 7.569 0 1 0 -7.568 7.568zm25.28-19.343a2.585 2.585 0 0 1 -2.583 2.584h-4.557a20.329 20.329 0 0 0 -36.281 0h-4.764v-70.926h21.17.28a11.066 11.066 0 0 1 9.53 5.445l15.457 24.78a10.79 10.79 0 0 1 1.754 5.9v.217 32zm307.507-296.523-61.7-35.623a6.392 6.392 0 0 0 -6.387 0l-61.7 35.623a6.389 6.389 0 0 0 -3.194 5.533v106.869a6.388 6.388 0 0 0 6.387 6.388h123.406a6.388 6.388 0 0 0 6.388-6.387v-106.873a6.39 6.39 0 0 0 -3.194-5.533zm-34.4 106.014h-60.982v-64.273h60.982zm24.824 0h-12.046v-70.661a6.388 6.388 0 0 0 -6.387-6.387h-73.757a6.388 6.388 0 0 0 -6.388 6.387v70.661h-12.046v-96.8l55.31-31.927 55.315 31.933v96.794zm-82.14-99.669h12.863v12.775h-12.775l-.087-12.775zm20.4 0h12.862v12.775h-12.782l-.083-12.775zm20.48 12.775-.086-12.776h12.862v12.776zm-361.753 59.846h119.071a12.683 12.683 0 0 0 12.674-12.668v-119.068a12.684 12.684 0 0 0 -12.669-12.671h-119.076a12.685 12.685 0 0 0 -12.67 12.671v119.07a12.683 12.683 0 0 0 12.67 12.669zm68.647-98.75-4.189-5.061a6.386 6.386 0 0 0 -9.845 0l-4.189 5.065v-32.89h18.224v32.886zm-68.542-32.886h37.547v50.632a6.4 6.4 0 0 0 11.263 4.116c3.447-4.309 7.09-8.568 10.613-12.828l10.567 12.78a6.394 6.394 0 0 0 11.318-4.019q0-25.339 0-50.68h37.538v118.86h-118.846zm48.821 101.52a6.388 6.388 0 0 1 -6.387 6.388h-25.018a6.389 6.389 0 0 1 0-12.777h25.018a6.388 6.388 0 0 1 6.387 6.388zm277.375 235.145h-53.431c-21 0-38.077 18.783-38.077 41.872v36.649a6.389 6.389 0 0 0 6.389 6.388h116.815a6.389 6.389 0 0 0 6.388-6.388v-36.649c0-23.088-17.084-41.872-38.08-41.872zm-53.431 12.778h53.435c13.951 0 25.3 13.053 25.3 29.1v30.257h-12.116v-11.744a6.388 6.388 0 1 0 -12.776 0v11.744h-54.26v-11.664c0-.026 0-.054 0-.08a6.389 6.389 0 1 0 -12.777 0v.08 11.664h-12.111v-30.263c0-16.044 11.354-29.094 25.305-29.094zm26.719-16.327a31.588 31.588 0 1 0 -31.587-31.588 31.62 31.62 0 0 0 31.587 31.585zm0-50.4a18.812 18.812 0 1 1 -18.811 18.812 18.814 18.814 0 0 1 18.811-18.81zm-145.48-243.786a189.083 189.083 0 0 1 30.171-2.455h.165a185.064 185.064 0 0 1 51.459 7.316l-4.125-8.741a6.315 6.315 0 0 1 -.631-2.758 6.388 6.388 0 0 1 12.185-2.684l10.51 22.285a6.37 6.37 0 0 1 -3.042 8.5l-22.285 10.507a6.388 6.388 0 1 1 -5.452-11.554l7.855-3.7a171.881 171.881 0 0 0 -46.444-6.4h-.209a175.39 175.39 0 0 0 -28.1 2.293 7.3 7.3 0 0 1 -1.03.077c-7.762 0-8.663-11.431-1.031-12.683zm65.168 357.118a6.4 6.4 0 0 0 -6.308-5.355 5.553 5.553 0 0 0 -1.018.091 175.043 175.043 0 0 1 -27.669 2.207h-.2a171.882 171.882 0 0 1 -46.445-6.4l7.855-3.7a6.389 6.389 0 0 0 -5.449-11.557l-22.284 10.505a6.39 6.39 0 0 0 -3.053 8.5l10.51 22.287a6.388 6.388 0 0 0 12.186-2.684 6.631 6.631 0 0 0 -.62-2.778l-4.124-8.741a185.051 185.051 0 0 0 51.443 7.336h.176a189.33 189.33 0 0 0 29.715-2.382 6.394 6.394 0 0 0 5.285-7.325zm-200.466-221.578a171.872 171.872 0 0 0 -6.4 46.442v.209c0 5.049.222 10.149.66 15.16.016.179.025.365.025.55 0 8.1-12.044 8.622-12.75.557-.469-5.379-.709-10.854-.709-16.272v-.174a185.066 185.066 0 0 1 7.337-51.442l-8.743 4.125a6.638 6.638 0 0 1 -2.693.581 6.389 6.389 0 0 1 -2.77-12.145l22.286-10.51a6.4 6.4 0 0 1 8.51 3.044l10.51 22.285a6.388 6.388 0 0 1 -11.553 5.453l-3.71-7.86zm360.022 97.2a6.388 6.388 0 0 1 -3.051 8.509l-22.286 10.51a6.4 6.4 0 0 1 -8.5-3.047l-10.507-22.29a6.389 6.389 0 0 1 11.556-5.451l3.7 7.856a171.986 171.986 0 0 0 6.4-46.444v-.21-.006a174.3 174.3 0 0 0 -1.784-24.913 5.55 5.55 0 0 1 -.083-.973c0-7.891 11.661-8.639 12.716-.86a188.709 188.709 0 0 1 1.925 26.749v.187a185.062 185.062 0 0 1 -7.315 51.452l8.741-4.125a6.31 6.31 0 0 1 2.708-.608 6.39 6.39 0 0 1 5.78 3.667z" fill-rule="evenodd"></path></svg>