<svg xmlns="http://www.w3.org/2000/svg" xmlns:xlink="http://www.w3.org/1999/xlink" xmlns:svgjs="http://svgjs.dev/svgjs" id="Capa_1" x="0px" y="0px" viewBox="0 0 512 512" style="enable-background:new 0 0 512 512;" xml:space="preserve" width="300" height="300"><g width="100%" height="100%" transform="matrix(1,0,0,1,0,0)"><g>	<g>		<path style="stroke-linecap: round; stroke-linejoin: round; stroke-miterlimit: 10;" d="&#10;&#9;&#9;&#9;M256,171.114C256,82.686,327.686,11,416.114,11C416.114,99.429,344.429,171.114,256,171.114S95.886,99.429,95.886,11&#10;&#9;&#9;&#9;C184.314,11,256,82.686,256,171.114" fill="none" fill-opacity="1" stroke="#000000" stroke-opacity="1" data-original-stroke-color="#33ccccff" stroke-width="22" data-original-stroke-width="22"></path>		<path style="stroke-linecap: round; stroke-linejoin: round; stroke-miterlimit: 10;" d="&#10;&#9;&#9;&#9;M377.992,318.012c0,67.266-54.725,121.992-121.992,121.992s-121.992-54.725-121.992-121.992H11V501h490V318.012H377.992z" fill="none" fill-opacity="1" stroke="#000000" stroke-opacity="1" data-original-stroke-color="#000000ff" stroke-width="22" data-original-stroke-width="22"></path>					<line style="stroke-linecap: round; stroke-linejoin: round; stroke-miterlimit: 10;" x1="361.615" y1="379.008" x2="501" y2="379.008" fill="none" fill-opacity="1" stroke="#000000" stroke-opacity="1" data-original-stroke-color="#000000ff" stroke-width="22" data-original-stroke-width="22"></line>					<line style="stroke-linecap: round; stroke-linejoin: round; stroke-miterlimit: 10;" x1="11" y1="379.008" x2="150.385" y2="379.008" fill="none" fill-opacity="1" stroke="#000000" stroke-opacity="1" data-original-stroke-color="#000000ff" stroke-width="22" data-original-stroke-width="22"></line>					<line style="stroke-linecap: round; stroke-linejoin: round; stroke-miterlimit: 10;" x1="256" y1="279.506" x2="256" y2="171.114" fill="none" fill-opacity="1" stroke="#000000" stroke-opacity="1" data-original-stroke-color="#33ccccff" stroke-width="22" data-original-stroke-width="22"></line>	</g>	<path style="stroke-linecap: round; stroke-linejoin: round; stroke-miterlimit: 10;" d="&#10;&#9;&#9;M327.559,292.862c0-20.432-16.587-36.995-37.049-36.995c-15.745,0-29.194,9.808-34.559,23.639&#10;&#9;&#9;c-5.365-13.831-18.814-23.639-34.559-23.639c-21.478-0.057-36.944,18.247-36.944,39.79h-0.006&#10;&#9;&#9;c0,52.779,71.534,89.382,71.534,89.382C256.621,384.942,327.559,349.701,327.559,292.862z" fill="none" fill-opacity="1" stroke="#000000" stroke-opacity="1" data-original-stroke-color="#33ccccff" stroke-width="22" data-original-stroke-width="22"></path></g></g></svg>