<svg xmlns="http://www.w3.org/2000/svg" xmlns:svg="http://www.w3.org/2000/svg" id="svg519" xml:space="preserve" width="682.66669" height="682.66669" viewBox="0 0 682.66669 682.66669"><defs id="defs523"><clipPath clipPathUnits="userSpaceOnUse" id="clipPath541"><path d="M 0,512 H 512 V 0 H 0 Z" id="path539"></path></clipPath></defs><g id="g525" transform="matrix(1.3333333,0,0,-1.3333333,0,682.66667)"><g id="g527" transform="translate(193.5924,69.1867)"><path d="M 0,0 V -12" style="fill:none;stroke:#000000;stroke-width:15;stroke-linecap:round;stroke-linejoin:round;stroke-miterlimit:10;stroke-dasharray:none;stroke-opacity:1" id="path529"></path></g><g id="g531" transform="translate(318.4898,69.1867)"><path d="M 0,0 V -12" style="fill:none;stroke:#000000;stroke-width:15;stroke-linecap:round;stroke-linejoin:round;stroke-miterlimit:10;stroke-dasharray:none;stroke-opacity:1" id="path533"></path></g><g id="g535"><g id="g537" clip-path="url(#clipPath541)"><g id="g543" transform="translate(239.5769,57.5439)"><path d="m 0,0 c 4.003,-4.594 9.892,-7.501 16.464,-7.501 6.572,0 12.461,2.907 16.464,7.501" style="fill:none;stroke:#000000;stroke-width:15;stroke-linecap:round;stroke-linejoin:round;stroke-miterlimit:10;stroke-dasharray:none;stroke-opacity:1" id="path545"></path></g><g id="g547" transform="translate(159.5238,148.8455)"><path d="m 0,0 -16.952,-118.514 c -1.724,-12.049 7.626,-22.832 19.798,-22.832 h 187.342 c 12.173,0 21.522,10.783 19.799,22.832 l -39.165,273.807" style="fill:none;stroke:#000000;stroke-width:15;stroke-linecap:round;stroke-linejoin:round;stroke-miterlimit:10;stroke-dasharray:none;stroke-opacity:1" id="path549"></path></g><g id="g551" transform="translate(181.7176,304.0052)"><path d="M 0,0 -17.978,-125.683" style="fill:none;stroke:#000000;stroke-width:15;stroke-linecap:round;stroke-linejoin:round;stroke-miterlimit:10;stroke-dasharray:none;stroke-opacity:1" id="path553"></path></g><g id="g555" transform="translate(340.9585,215.9601)"><path d="M 0,0 H -72.084" style="fill:none;stroke:#000000;stroke-width:15;stroke-linecap:round;stroke-linejoin:round;stroke-miterlimit:10;stroke-dasharray:none;stroke-opacity:1" id="path557"></path></g><g id="g559" transform="translate(156.2148,111.73)"><path d="M 0,0 H 199.653" style="fill:none;stroke:#000000;stroke-width:15;stroke-linecap:round;stroke-linejoin:round;stroke-miterlimit:10;stroke-dasharray:none;stroke-opacity:1" id="path561"></path></g><g id="g563" transform="translate(243.1254,215.9601)"><path d="M 0,0 H -72.002" style="fill:none;stroke:#000000;stroke-width:15;stroke-linecap:round;stroke-linejoin:round;stroke-miterlimit:10;stroke-dasharray:none;stroke-opacity:1" id="path565"></path></g><g id="g567" transform="translate(201.1258,483.2599)"><path d="m 0,0 c -19.864,13.42 -43.811,21.256 -69.588,21.256 -65.104,0 -118.532,-49.986 -124.001,-113.673 -0.499,-5.812 4.141,-10.789 9.975,-10.789 h 61.821" style="fill:none;stroke:#000000;stroke-width:15;stroke-linecap:round;stroke-linejoin:round;stroke-miterlimit:10;stroke-dasharray:none;stroke-opacity:1" id="path569"></path></g><g id="g571" transform="translate(433.0825,380.0539)"><path d="m 0,0 h 61.406 c 5.833,0 10.474,4.977 9.975,10.789 -5.469,63.687 -58.898,113.673 -124.001,113.673 -25.777,0 -49.724,-7.836 -69.588,-21.256" style="fill:none;stroke:#000000;stroke-width:15;stroke-linecap:round;stroke-linejoin:round;stroke-miterlimit:10;stroke-dasharray:none;stroke-opacity:1" id="path573"></path></g><g id="g575" transform="translate(336.6219,416.29)"><path d="m 0,0 c 34.267,2.025 69.212,-10.054 95.394,-36.236 46.035,-46.035 48.47,-119.161 7.303,-168.061 -3.757,-4.463 -10.557,-4.701 -14.682,-0.576 L -18.412,-98.446" style="fill:none;stroke:#000000;stroke-width:15;stroke-linecap:round;stroke-linejoin:round;stroke-miterlimit:10;stroke-dasharray:none;stroke-opacity:1" id="path577"></path></g><g id="g579" transform="translate(175.6678,416.2726)"><path d="m 0,0 c -34.36,2.11 -69.428,-9.963 -95.684,-36.219 -46.035,-46.035 -48.47,-119.16 -7.303,-168.061 3.757,-4.462 10.558,-4.7 14.682,-0.575 L 18.139,-98.412" style="fill:none;stroke:#000000;stroke-width:15;stroke-linecap:round;stroke-linejoin:round;stroke-miterlimit:10;stroke-dasharray:none;stroke-opacity:1" id="path581"></path></g><g id="g583" transform="translate(332.3736,380.0539)"><path d="m 0,0 c 2.31,15.018 3.626,29.998 3.626,44.462 0,44.183 -35.817,80 -80,80 -44.182,0 -80,-35.817 -80,-80 0,-96.516 58.612,-216.038 80,-216.038 16.043,0 53.025,67.238 70.511,141.575" style="fill:none;stroke:#000000;stroke-width:15;stroke-linecap:round;stroke-linejoin:round;stroke-miterlimit:10;stroke-dasharray:none;stroke-opacity:1" id="path585"></path></g></g></g></g></svg>