<svg xmlns="http://www.w3.org/2000/svg" id="Layer_1" viewBox="0 0 96 96"><path d="m29.291 29.727c-4.225 4.655-6.552 10.683-6.552 16.974v.663c-3.422 1.437-5.831 4.821-5.831 8.759 0 5.236 4.259 9.495 9.495 9.495s9.495-4.259 9.495-9.495c0-3.938-2.41-7.322-5.831-8.759v-.663c0-8.529 6.047-15.855 14.271-17.561v32.764c-3.422 1.437-5.831 4.821-5.831 8.759 0 5.235 4.259 9.495 9.495 9.495s9.495-4.259 9.495-9.495c0-3.937-2.41-7.322-5.831-8.759v-32.764c8.224 1.706 14.271 9.031 14.271 17.561v.663c-3.422 1.437-5.831 4.821-5.831 8.759 0 5.236 4.259 9.495 9.495 9.495 5.235 0 9.495-4.259 9.495-9.495 0-3.938-2.41-7.322-5.832-8.759v-.663c0-6.291-2.327-12.319-6.552-16.974-3.957-4.36-9.267-7.183-15.046-8.024v-3.523h1.635c.645 0 1.169-.523 1.169-1.169 0-.645-.523-1.169-1.169-1.169h-10.599c-.645 0-1.169.523-1.169 1.169 0 .645.523 1.169 1.169 1.169h1.635v3.524c-5.779.84-11.089 3.664-15.046 8.023zm4.268 26.396c0 3.947-3.211 7.158-7.157 7.158-3.947 0-7.158-3.211-7.158-7.158s3.211-7.158 7.158-7.158c3.946 0 7.157 3.211 7.157 7.158zm21.599 14.54c0 3.947-3.211 7.157-7.158 7.157s-7.157-3.211-7.157-7.157c0-3.947 3.211-7.157 7.157-7.157 3.947-.001 7.158 3.21 7.158 7.157zm21.598-14.54c0 3.947-3.211 7.158-7.158 7.158s-7.158-3.211-7.158-7.158 3.211-7.158 7.158-7.158 7.158 3.211 7.158 7.158zm-27.43-37.943v4.556c0 .599.453 1.101 1.049 1.162 11.715 1.205 20.549 11.008 20.549 22.803v.021c-.434-.061-.876-.095-1.326-.095s-.892.034-1.326.095v-.021c0-10.149-7.578-18.791-17.626-20.101-.334-.044-.669.059-.922.281s-.398.542-.398.878v33.504c-.434-.061-.876-.095-1.326-.095s-.892.034-1.326.095v-33.504c0-.336-.145-.656-.398-.878s-.589-.324-.922-.281c-10.049 1.31-17.626 9.952-17.626 20.101v.021c-.434-.061-.876-.095-1.326-.095s-.892.034-1.326.095v-.021c0-11.795 8.834-21.598 20.549-22.803.596-.061 1.049-.563 1.049-1.162v-4.556zm-22.924 40.897c.645 0 1.169.523 1.169 1.169s-.523 1.169-1.169 1.169c-2.918 0-5.292-2.374-5.292-5.291 0-.645.523-1.169 1.169-1.169.645 0 1.169.523 1.169 1.169 0 1.628 1.325 2.953 2.954 2.953zm43.196 0c1.629 0 2.954-1.325 2.954-2.954 0-.645.523-1.169 1.169-1.169s1.169.523 1.169 1.169c0 2.918-2.374 5.291-5.291 5.291-.645 0-1.169-.523-1.169-1.169s.523-1.168 1.168-1.168zm-21.598 14.54c1.629 0 2.954-1.325 2.954-2.954 0-.645.523-1.169 1.169-1.169s1.169.523 1.169 1.169c0 2.918-2.374 5.291-5.291 5.291-.645 0-1.169-.523-1.169-1.169-.001-.645.523-1.168 1.168-1.168zm31.815 4.546c.457.456.457 1.196 0 1.653-8.498 8.497-19.797 13.178-31.815 13.178s-23.317-4.68-31.815-13.178c-6.484-6.484-10.784-14.661-12.435-23.645-1.613-8.775-.615-17.733 2.885-25.904.254-.593.941-.869 1.534-.614.593.254.868.941.614 1.534-6.909 16.128-3.355 34.567 9.053 46.976 8.058 8.056 18.77 12.493 30.164 12.493s22.106-4.437 30.163-12.494c.456-.456 1.196-.456 1.652.001zm9.549-12.43c-.19.443-.621.709-1.075.709-.154 0-.309-.03-.46-.095-.593-.254-.868-.941-.614-1.534 6.909-16.128 3.355-34.567-9.053-46.975-8.056-8.057-18.768-12.494-30.162-12.494s-22.106 4.437-30.163 12.493c-.456.456-1.196.456-1.653 0s-.457-1.196 0-1.653c8.499-8.497 19.798-13.178 31.816-13.178s23.317 4.68 31.815 13.178c6.484 6.484 10.784 14.66 12.434 23.645 1.613 8.776.615 17.733-2.885 25.904zm-81.482-39.593c-.295-.295-.411-.726-.303-1.129l3.509-13.097c.167-.623.809-.993 1.431-.826.624.167.993.808.826 1.431l-2.985 11.141 11.142-2.985c.623-.168 1.264.203 1.431.826s-.203 1.264-.826 1.431l-13.096 3.511c-.1.027-.202.04-.302.04-.307 0-.605-.121-.827-.343zm80.236 43.72c.295.295.411.726.303 1.129l-3.509 13.097c-.14.522-.612.867-1.128.867-.1 0-.202-.013-.303-.04-.624-.167-.993-.808-.826-1.431l2.985-11.142-11.142 2.985c-.624.167-1.264-.203-1.431-.826-.167-.624.203-1.264.826-1.431l13.097-3.509c.403-.11.833.005 1.128.301z"></path></svg>