<svg xmlns="http://www.w3.org/2000/svg" xmlns:svg="http://www.w3.org/2000/svg" id="svg5241" xml:space="preserve" width="682.66669" height="682.66669" viewBox="0 0 682.66669 682.66669"><defs id="defs5245"><clipPath clipPathUnits="userSpaceOnUse" id="clipPath5255"><path d="M 0,512 H 512 V 0 H 0 Z" id="path5253"></path></clipPath></defs><g id="g5247" transform="matrix(1.3333333,0,0,-1.3333333,0,682.66667)"><g id="g5249"><g id="g5251" clip-path="url(#clipPath5255)"><g id="g5257" transform="translate(162.7285,198.3574)"><path d="m 0,0 c -5.584,3.741 -12.303,5.953 -19.53,5.953 -19.247,0 -34.894,-15.619 -34.894,-34.895 0,-19.276 15.647,-34.895 34.894,-34.895 7.851,0 14.286,2.58 19.161,6.917 1.02,0.907 1.956,1.871 2.835,2.92" style="fill:none;stroke:#000000;stroke-width:15.118;stroke-linecap:round;stroke-linejoin:round;stroke-miterlimit:10;stroke-dasharray:none;stroke-opacity:1" id="path5259"></path></g><g id="g5261" transform="translate(93.9326,217.123)"><path d="M 0,0 -0.028,-0.057" style="fill:none;stroke:#000000;stroke-width:15.118;stroke-linecap:round;stroke-linejoin:round;stroke-miterlimit:10;stroke-dasharray:none;stroke-opacity:1" id="path5263"></path></g><g id="g5265" transform="translate(432.7217,462.5186)"><path d="M 0,0 H 71.771" style="fill:none;stroke:#000000;stroke-width:15.118;stroke-linecap:round;stroke-linejoin:round;stroke-miterlimit:10;stroke-dasharray:none;stroke-opacity:1" id="path5267"></path></g><g id="g5269" transform="translate(432.7217,417.4189)"><path d="M 0,0 H 35.886" style="fill:none;stroke:#000000;stroke-width:15.118;stroke-linecap:round;stroke-linejoin:round;stroke-miterlimit:10;stroke-dasharray:none;stroke-opacity:1" id="path5271"></path></g><g id="g5273" transform="translate(432.7217,372.3486)"><path d="M 0,0 H 71.771" style="fill:none;stroke:#000000;stroke-width:15.118;stroke-linecap:round;stroke-linejoin:round;stroke-miterlimit:10;stroke-dasharray:none;stroke-opacity:1" id="path5275"></path></g><g id="g5277" transform="translate(432.7217,327.2773)"><path d="M 0,0 H 35.886" style="fill:none;stroke:#000000;stroke-width:15.118;stroke-linecap:round;stroke-linejoin:round;stroke-miterlimit:10;stroke-dasharray:none;stroke-opacity:1" id="path5279"></path></g><g id="g5281" transform="translate(432.7217,282.2061)"><path d="M 0,0 H 71.771" style="fill:none;stroke:#000000;stroke-width:15.118;stroke-linecap:round;stroke-linejoin:round;stroke-miterlimit:10;stroke-dasharray:none;stroke-opacity:1" id="path5283"></path></g><g id="g5285" transform="translate(432.7217,237.1074)"><path d="M 0,0 H 35.886" style="fill:none;stroke:#000000;stroke-width:15.118;stroke-linecap:round;stroke-linejoin:round;stroke-miterlimit:10;stroke-dasharray:none;stroke-opacity:1" id="path5287"></path></g><g id="g5289" transform="translate(299.667,319.624)"><path d="M 0,0 H 40.987" style="fill:none;stroke:#000000;stroke-width:15.118;stroke-linecap:round;stroke-linejoin:round;stroke-miterlimit:10;stroke-dasharray:none;stroke-opacity:1" id="path5291"></path></g><g id="g5293" transform="translate(173.8115,378.1875)"><path d="M 0,0 H 13.124" style="fill:none;stroke:#000000;stroke-width:15.118;stroke-linecap:round;stroke-linejoin:round;stroke-miterlimit:10;stroke-dasharray:none;stroke-opacity:1" id="path5295"></path></g><g id="g5297" transform="translate(112.7266,317.1289)"><path d="M 0,0 V -13.152" style="fill:none;stroke:#000000;stroke-width:15.118;stroke-linecap:round;stroke-linejoin:round;stroke-miterlimit:10;stroke-dasharray:none;stroke-opacity:1" id="path5299"></path></g><g id="g5301" transform="translate(155.9248,421.3594)"><path d="m 0,0 9.27,9.298 m -95.639,-95.67 -9.298,-9.269" style="fill:none;stroke:#000000;stroke-width:15.118;stroke-linecap:round;stroke-linejoin:round;stroke-miterlimit:10;stroke-dasharray:none;stroke-opacity:1" id="path5303"></path></g><g id="g5305" transform="translate(112.7266,439.2461)"><path d="M 0,0 V 13.153" style="fill:none;stroke:#000000;stroke-width:15.118;stroke-linecap:round;stroke-linejoin:round;stroke-miterlimit:10;stroke-dasharray:none;stroke-opacity:1" id="path5307"></path></g><g id="g5309" transform="translate(51.6699,378.1875)"><path d="M 0,0 H -13.153" style="fill:none;stroke:#000000;stroke-width:15.118;stroke-linecap:round;stroke-linejoin:round;stroke-miterlimit:10;stroke-dasharray:none;stroke-opacity:1" id="path5311"></path></g><g id="g5313" transform="translate(69.5557,421.3594)"><path d="m 0,0 -9.298,9.298 m 95.667,-95.67 9.27,-9.269" style="fill:none;stroke:#000000;stroke-width:15.118;stroke-linecap:round;stroke-linejoin:round;stroke-miterlimit:10;stroke-dasharray:none;stroke-opacity:1" id="path5315"></path></g><g id="g5317" transform="translate(112.7266,272.9375)"><path d="m 0,0 c 57.967,0 105.248,47.281 105.248,105.25 0,57.969 -47.281,105.223 -105.248,105.223 -57.968,0 -105.22,-47.254 -105.22,-105.223 C -105.22,47.281 -57.968,0 0,0 Z" style="fill:none;stroke:#000000;stroke-width:15.118;stroke-linecap:round;stroke-linejoin:round;stroke-miterlimit:10;stroke-dasharray:none;stroke-opacity:1" id="path5319"></path></g><g id="g5321" transform="translate(112.7266,347.1484)"><path d="m 0,0 c 17.092,0 31.038,13.946 31.038,31.039 0,17.093 -13.946,31.04 -31.038,31.04 -17.093,0 -31.039,-13.947 -31.039,-31.04 C -31.039,13.946 -17.093,0 0,0 Z" style="fill:none;stroke:#000000;stroke-width:15.118;stroke-linecap:round;stroke-linejoin:round;stroke-miterlimit:10;stroke-dasharray:none;stroke-opacity:1" id="path5323"></path></g><g id="g5325" transform="translate(382.6631,331.1328)"><path d="m 0,0 v -124.64 c 28.289,-19.757 46.799,-52.554 46.799,-89.688 0,-60.351 -48.925,-109.305 -109.301,-109.305 -60.377,0 -109.302,48.954 -109.302,109.305 0,37.134 18.51,69.931 46.799,89.688 v 235.532 c 0,34.355 28.119,62.475 62.503,62.475 C -28.119,173.367 0,145.247 0,110.892 V 34.781" style="fill:none;stroke:#000000;stroke-width:15.118;stroke-linecap:round;stroke-linejoin:round;stroke-miterlimit:10;stroke-dasharray:none;stroke-opacity:1" id="path5327"></path></g><g id="g5329" transform="translate(299.667,237.1924)"><path d="m 0,0 v -52.611 l -17.943,-12.53 c -18.114,-12.642 -28.856,-33.108 -28.856,-55.247 0,-37.191 30.103,-67.295 67.293,-67.295 37.19,0 67.292,30.104 67.292,67.295 0,22.139 -10.742,42.605 -28.827,55.247 l -17.972,12.53 V 204.832 C 40.987,216 31.69,225.326 20.494,225.326 9.297,225.326 0,216 0,204.832 V 37.275" style="fill:none;stroke:#000000;stroke-width:15.118;stroke-linecap:round;stroke-linejoin:round;stroke-miterlimit:10;stroke-dasharray:none;stroke-opacity:1" id="path5331"></path></g></g></g></g></svg>