<svg xmlns="http://www.w3.org/2000/svg" clip-rule="evenodd" fill-rule="evenodd" height="512" viewBox="0 0 43.3492 43.3492" width="512"><g id="Layer_x0020_1"><g id="_210257888"><path id="_210260192" d="m9.5893 23.9096c.0551 0 .1103.0098.1636.0296.5058.1863.9464.1902 1.3092.0138.4644-.2258.8479-.772 1.1101-1.5794.0691-.21.2741-.3461.4929-.3254.846.0759 1.4996-.0621 1.889-.4002.3056-.2642.4742-.6714.5018-1.2097.004-.0641.0198-.1272.0483-.1844.5788-1.1761.5748-2.1157-.0108-2.8709-.0798-.1025-.1134-.2317-.0947-.3598.4014-2.6925-.7404-2.8995-1.1712-2.9774-.1685-.0316-.3076-.1509-.3628-.3125-.548-1.6021-1.606-2.3721-3.2317-2.3514-.0956-.002-.1893-.0266-.2682-.0798-3.6763-2.4539-4.6376-2.2321-4.8446-2.1049-.2307.141-.21.6379-.1765.9209.0208.1774-.0601.3509-.21.4495-.1489.0986-.3401.1045-.4949.0158-.2485-.142-.696-.3559-.9169-.1992-.1981.14-.7798.9366.0316 5.2814.0177.0937.0059.1913-.0326.278-.6575 1.4887-.3657 2.7625.8913 3.8962.1282.1144.1833.2899.1449.4565-.0976.4259-.3559 1.5587 2.2774 2.2478.1252.0325.2317.1154.2938.2278.4644.836 1.327 1.2096 2.6363 1.1387.0078 0 .0167-.001.0247-.001zm.8912 1.1209c-.3057 0-.6271-.0571-.9613-.1705-1.5468.0611-2.6599-.4269-3.3126-1.4522-2.511-.7118-2.9586-1.9955-2.8216-3.0474-1.3782-1.3467-1.7105-2.9143-.9879-4.6622-.6525-3.5581-.5363-5.4372.3767-6.0859.3381-.2396.7482-.2928 1.2245-.1587.065-.491.275-.8479.6279-1.0638.9554-.5847 2.729.0463 5.7438 2.0457 1.8919.0227 3.2022.9445 3.8992 2.7408 1.0214.2878 2.025 1.2037 1.6927 3.7927.6853 1.0036.6971 2.2192.0336 3.6162-.0591.7591-.3352 1.3566-.8213 1.7785-.5303.4594-1.2787.6763-2.2251.6497-.347.8824-.8419 1.4838-1.4729 1.7914-.3095.1498-.6428.2258-.9957.2257z"></path><path id="_210260096" d="m12.6229 22.9927c-.1696 0-.3344-.0917-.4191-.2533-2.5189-4.7994-4.4838-7.9019-5.8385-9.221-.1872-.1825-.1902-.4822-.0088-.6695.1834-.1873.4821-.1912.6694-.0088 1.4463 1.4088 3.4141 4.5025 6.0159 9.4595.1213.2317.0325.5176-.1992.6389-.0699.0365-.1449.0542-.2197.0542z"></path><path id="_210260408" d="m8.1094 16.3725c-2.5022 0-4.0579-.8646-4.6287-2.5771-.0828-.2485.0512-.5166.2997-.5994.2474-.0819.5156.0522.5984.2997.4772 1.4334 1.9146 2.0585 4.3931 1.9096.2613-.0167.485.1834.5008.4447.0158.2602-.1833.485-.4446.5008-.2474.0148-.487.0217-.7187.0217z"></path><path id="_210260384" d="m10.2054 20.807c-2.7319 0-4.7224-.7177-5.9272-2.1384-.1685-.1991-.1439-.4979.0552-.6664.1992-.1696.4979-.145.6665.0542 1.1762 1.3871 3.3254 1.9796 6.3905 1.7598.2613-.0178.487.1775.5058.4377.0187.2613-.1775.488-.4378.5058-.4337.0315-.8518.0473-1.253.0473z"></path><path id="_210259832" d="m26.0388 19.3055c-.5729 0-1.1023.3135-1.3774.8272-.2987.558-.2327 1.2362.1676 1.7272.0997.1203.1321.282.0877.4319-.2532.8646-.1449 1.811.2978 2.5958s1.1968 1.3664 2.0684 1.5961c.1726.0454.3046.1834.3421.3569.3983 1.8288 1.8505 3.1982 3.699 3.4891.0178.0029.0355.0069.0533.0118 1.7262.4792 3.5334-.2839 4.395-1.8544.0681-.1243.1883-.211.3283-.2376.8421-.1568.842-.1696.8479-.8489.0011-.1311.0552-.2544.1508-.3431.0947-.0887.2229-.1351.353-.1262.7237.0464 1.4197-.2662 1.8653-.838.4447-.5718.5767-1.325.3529-2.0141-.0502-.1578-.0157-.3303.0917-.4555.5028-.5837.7345-1.3566.634-2.1197-.1005-.764-.5226-1.4512-1.1595-1.885-.1528-.1045-.2307-.2889-.1991-.4722.209-1.2097-.2544-2.4401-1.2087-3.212-.9543-.772-2.2547-.9672-3.3934-.5107-.1577.064-.3372.0374-.4703-.0681-.8093-.6398-1.8091-.9779-2.8403-.9651-.3302.2947-.7335.5028-1.2038.6201-.7137 1.5715-1.7549 2.5347-3.1006 2.8669-.0719.3165-.1085.6409-.1104.9662-.001.1331-.0572.2603-.1558.349-.0985.0897-.2307.1341-.3628.1203-.0512-.0049-.1025-.0079-.1527-.0079zm6.3767 12.1244c-.4191 0-.844-.0552-1.265-.1686-2.1314-.346-3.8233-1.8781-4.3832-3.9455-1.0007-.3372-1.8565-1.0401-2.377-1.9629-.5284-.9366-.6852-2.0516-.4427-3.0956-.5076-.7651-.5609-1.749-.1203-2.5713.4004-.7482 1.1378-1.2313 1.959-1.3141.0315-.3491.0976-.6941.1962-1.0303.0503-.1735.1962-.3026.3737-.3332 1.2382-.213 2.1512-1.0608 2.792-2.5929.0621-.1499.1971-.2563.3559-.2839.4584-.0789.8114-.2544 1.0815-.5354.0839-.0867.1972-.139.3175-.1449 1.2294-.0631 2.438.2899 3.4348 1.0017 1.3931-.4605 2.9359-.1844 4.0865.7463 1.1437.9247 1.7361 2.3651 1.5863 3.8164.7246.5866 1.2018 1.4334 1.324 2.3651.1233.9445-.1282 1.8998-.6931 2.6589.2151.9159.0069 1.8841-.5777 2.6343-.5392.6941-1.3378 1.1229-2.1995 1.1969-.1114.8153-.5373 1.0854-1.3753 1.2668-.8824 1.4473-2.4332 2.2922-4.0736 2.2922z"></path><path id="_210259928" d="m27.1627 27.4144c-.1115 0-.2219-.0384-.3126-.1173-.1962-.1725-.2159-.4713-.0434-.6684 2.4224-2.7625 6.4073-6.2949 9.916-8.7892.213-.1518.5087-.1016.6596.1114.1519.2129.1015.5087-.1114.6595-3.4545 2.4559-7.3744 5.9291-9.7524 8.6423-.0937.1075-.2248.1617-.3558.1617z"></path><path id="_210260048" d="m32.8551 21.9339c-.1735 0-.3391-.0947-.4229-.2593-.8203-1.6208-.9406-3.6369-.3066-5.1384.1015-.2406.3795-.353.6201-.2514.2406.1015.3539.3795.2524.6201-.5225 1.2362-.4111 2.9813.278 4.3418.1184.2327.0256.5176-.208.6359-.068.0345-.142.0513-.213.0513z"></path><path id="_210260072" d="m32.2055 19.4317c-.2031 0-.3915-.1321-.4536-.3362-.0749-.2504.067-.5146.3165-.5895 1.1752-.355 2.2488-1.0816 2.8009-1.8959.1469-.2169.4416-.2731.6576-.1262.2169.1459.2731.4407.1261.6566-.6791 1.0017-1.9165 1.8505-3.3105 2.2715-.0464.0138-.0917.0197-.137.0197z"></path><path id="_210259160" d="m28.5084 25.9622c-.1775 0-.3471-.0996-.4279-.2701-1.0509-2.2035-1.052-4.6248-.001-7.0028.1055-.2386.3844-.347.624-.2415.2386.1054.3471.3845.2416.624-.9484 2.1473-.9524 4.2384-.0099 6.2131.1124.2356.0119.5186-.2238.631-.066.0315-.135.0463-.203.0463z"></path><path id="_210259664" d="m27.9217 24.2497c-.064 0-.1291-.0128-.1912-.0404-1.0815-.4811-2.3652-1.5626-2.4292-3.0326-.0118-.2612.1912-.4821.4525-.4939.2603-.0119.4821.1912.4929.4525.0424.9711.9682 1.8091 1.8673 2.2084.2396.1065.347.3855.2405.625-.0778.1765-.2514.281-.4328.281z"></path><path id="_210259040" d="m35.7202 22.9099c-1.0865 0-2.2302-.3756-3.151-1.0716-.209-.1578-.2504-.4545-.0927-.6636.1578-.208.4545-.2494.6635-.0916 1.0442.7897 2.4835 1.0834 3.5798.7315.2495-.0799.5156.0572.5955.3056.0799.2495-.0572.5156-.3057.5955-.4071.1311-.8439.1942-1.2894.1942z"></path><path id="_210259616" d="m33.1273 27.8305c-1.3586 0-2.9923-.6508-4.8871-1.9521-.2159-.1479-.2701-.4417-.1223-.6576.148-.2159.4417-.2701.6576-.1222 2.8571 1.9609 4.9511 2.3 6.2259 1.0085.1844-.1853.484-.1883.6694-.0039.1864.1834.1883.4831.0049.6694-.697.7059-1.5488 1.0579-2.5484 1.0579z"></path><path id="_210259496" d="m32.7033 29.7973c-.8025 0-1.744-.5738-2.3109-2.864-.0621-.2534.0926-.5097.346-.5728.2544-.0621.5107.0927.5728.3461.3835 1.5498.9139 2.2655 1.5765 2.1245.2563-.0542.5067.1085.5609.3648.0542.2553-.1084.5067-.3648.561-.1212.0256-.2494.0404-.3805.0404z"></path><path id="_210259112" d="m23.8837 43.3493c-.0889 0-.1796-.0257-.2594-.0779-2.2301-1.467-4.3912-3.4299-5.0951-7.822-.6674-4.1624-.0887-10.2384 1.8781-19.703.0533-.2563.3037-.4209.56-.3667.2563.0532.42.3037.3668.559-1.9155 9.22-2.5101 15.3719-1.8713 19.3608.6104 3.8055 2.3129 5.6235 4.682 7.1812.2179.144.279.4368.1351.6556-.0907.138-.2416.213-.3962.213z"></path><path id="_210258968" d="m20.8707 15.3698c.0858 0 .1695.0227.2435.0671 2.3849 1.4275 4.3054 1.9175 5.7083 1.4562 1.0056-.3303 1.7667-1.1407 2.3257-2.4776.0621-.1499.1971-.2563.3559-.2839.8163-.14 1.883-.6349 1.7351-3.2939-.0069-.1153.0296-.2297.1016-.3204.6891-.8676.9868-1.6711.8873-2.3878-.1006-.7207-.6113-1.4167-1.5193-2.0684-.1567-.1134-.2297-.3096-.1834-.4979.2476-1.0056.1726-1.7558-.2237-2.231-.5038-.6034-1.5725-.8597-3.1776-.7621-.1586.0098-.3105-.0601-.4061-.1854-.6536-.8607-1.3458-1.3388-2.0586-1.4246-.7245-.0867-1.533.2278-2.4006.9337-.1852.1518-.4555.14-.627-.0257-.4564-.4406-.8518-.6201-1.1732-.5333-.3411.0917-1.0135.5925-1.674 2.9152-.0493.1726-.1913.3027-.3678.3352-.9612.1815-1.5843.5226-1.8534 1.0126-.2623.4791-.2179 1.1613.1301 2.0289.0612.1499.0404.3204-.0542.4525-1.3388 1.8683-1.2166 3.3629.3854 4.7037.0948.0778.1538.1893.1676.3115.1105 1.0086.6123 2.3425 3.6685 2.2755.0031-.0001.0069 0 .0099-.0001zm4.8249 2.6422c-1.3959 0-3.0316-.5609-4.9511-1.6937-.0305 0-.0611 0-.0907 0-3.2031 0-4.1634-1.5429-4.3773-2.9321-1.7855-1.5804-1.9748-3.5265-.5522-5.6481-.3696-1.0362-.3667-1.9087.0089-2.5949.3796-.692 1.1259-1.1712 2.2222-1.4275.5956-1.9679 1.3359-3.0474 2.2567-3.2948.5689-.1529 1.1624.0128 1.7677.4939.9623-.7 1.9008-.9997 2.792-.8942.9139.1094 1.7687.6448 2.5436 1.5922 1.8102-.0749 3.0267.2908 3.7129 1.1131.5521.6615.7147 1.5872.485 2.7555.9701.7611 1.5252 1.607 1.6523 2.518.1313.9395-.1961 1.9362-.973 2.9645.1035 2.796-1.116 3.7573-2.2715 4.0461-.6586 1.4522-1.6011 2.3868-2.8039 2.7821-.4436.1469-.9178.2199-1.4216.2199z"></path><path id="_210259376" d="m20.8707 16.3163c-.0502 0-.1016-.0089-.1518-.0257-.2475-.0837-.3796-.3529-.2958-.6003 1.8683-5.4915 3.6734-9.3768 5.3652-11.5497.1608-.2061.4574-.2425.6635-.0818.2071.1597.2435.4574.0828.6635-1.6257 2.0891-3.3806 5.8818-5.2153 11.2726-.067.1972-.2514.3214-.4486.3214z"></path><path id="_210259328" d="m25.4905 7.6307c-.3795 0-.7561-.0858-1.1278-.2564-.2376-.1085-.3411-.3894-.2327-.627.1095-.2376.3904-.3421.628-.2327.909.417 1.8811.0385 2.9734-1.1574.1756-.1922.4752-.2061.6685-.0306.1933.1765.206.4762.0305.6694-.9937 1.0875-1.9786 1.6347-2.9399 1.6347z"></path><path id="_210259232" d="m21.7324 13.8851c-.1716 0-.3382-.0946-.422-.2583-1.7232-3.3826-2.2567-6.5029-1.5833-9.2752.0621-.2534.3174-.4101.5718-.348.2534.0621.4091.3174.348.5718-.6181 2.5455-.1114 5.446 1.5074 8.6216.1184.2326.0256.5176-.207.6359-.0689.0354-.142.0522-.2149.0522z"></path><path id="_210259400" d="m20.3236 10.2708c-.077 0-.1549-.0187-.2268-.0581-1.5538-.8528-2.2705-2.1345-2.1305-3.8105.0217-.2603.2494-.4544.5107-.4318.2603.0217.4535.2505.4328.5107-.1075 1.2866.4298 2.236 1.6425 2.9015.2287.1261.3125.414.1863.6428-.0857.1567-.2475.2454-.415.2454z"></path><path id="_210258704" d="m18.7541 33.1641c-.1874 0-.3649-.1124-.4388-.2967-2.4459-6.0505-4.3172-9.2013-5.8887-9.9171-.2375-.1084-.3431-.3894-.2347-.627.1085-.2376.3895-.3421.6271-.2346 1.8554.8449 3.7621 3.9622 6.3737 10.4247.0976.2415-.0187.5176-.2613.6162-.0581.0226-.1183.0345-.1773.0345z"></path><path id="_210258656" d="m18.7412 31.8647c-.2474 0-.4555-.1923-.4723-.4427-.0167-.2612.1814-.486.4427-.5027 2.1621-.1401 5.1295-1.7194 8.1405-4.336.1972-.1706.4958-.1498.6674.0473.1715.1972.1508.4959-.0464.6675-3.2109 2.79-6.3007 4.4108-8.7014 4.5656-.0097 0-.0207.001-.0305.001z"></path><path id="_210258368" d="m37.4928 24.719c-.7592 0-1.6761-.4555-2.5348-2.0753-.1232-.2307-.0345-.5176.1962-.6398.2307-.1223.5176-.0345.6398.1961.9968 1.8811 1.8062 1.5982 2.0714 1.5055.2465-.0868.5166.0434.6033.2899.0868.2464-.0434.5166-.2908.6033-.206.072-.4377.1203-.6851.1203z"></path><path id="_210258800" d="m21.7324 13.8851c-.2051 0-.3934-.1341-.4546-.3401-.0729-.2505.0701-.5137.3215-.5876 3.5798-1.0529 6.0533-2.6639 7.3497-4.7865.1361-.2228.4279-.2938.6507-.1567.2229.136.2938.4268.1568.6506-1.4226 2.3297-4.0777 4.0796-7.891 5.2006-.0444.0128-.0888.0197-.1331.0197z"></path><path id="_210258488" d="m28.4315 11.4095c-.4052 0-.8529-.0473-1.3409-.1409-.2562-.0493-.4249-.2978-.3756-.5541.0494-.2563.2968-.4249.5541-.3756 1.2965.2484 2.1788.1311 2.6244-.35.1775-.1913.4762-.2031.6684-.0256.1913.1774.2031.4771.0257.6684-.4781.5175-1.2008.7778-2.1561.7778z"></path><path id="_210258824" d="m24.5599 7.4177c-.208 0-.3983-.138-.4555-.348-.6033-2.2015-.5482-3.6231.1686-4.3458.1844-.1853.484-.1863.6694-.003.1863.1844.1873.4841.0029.6695-.2533.2563-.5816 1.042.072 3.4289.0691.2523-.0798.5126-.3322.5816-.0414.0118-.0838.0168-.1252.0168z"></path><path id="_210258512" d="m11.424 20.7616c-.0868 0-.1756-.0246-.2544-.0749-.2199-.141-.2849-.4338-.144-.6536 1.3853-2.164 1.6504-3.8874.8114-5.2686-.136-.2238-.065-.5146.1587-.6507.2229-.135.5137-.0641.6497.1588 1.0313 1.6976.7542 3.8075-.8222 6.2702-.0906.1419-.2435.2189-.3992.2188z"></path><path id="_210258296" d="m8.7995 16.3518c-.065 0-.1321-.0138-.1952-.0434-.2376-.1075-.3431-.3884-.2347-.626.8638-1.8988.5009-3.1884-1.1416-4.058-.2306-.1222-.3194-.4091-.1972-.6398.1223-.2317.4092-.3194.6399-.1971 1.4581.7719 2.9123 2.3158 1.5606 5.2863-.0798.1745-.2514.278-.4318.278z"></path><path id="_210258152" d="m21.196 15.3748c-.0768 0-.1548-.0188-.2277-.0582-1.6808-.9208-2.792-2.6086-2.9725-4.5173-.0245-.2603.1666-.491.4269-.5156.2614-.0247.491.1666.5156.4269.151 1.5951 1.0796 3.0069 2.4855 3.7759.2288.1252.3125.4131.1873.6428-.0858.1567-.2485.2455-.4151.2455z"></path><path id="_210258872" d="m22.2963 15.4901c-.3983 0-.7996-.0414-1.1989-.1252-.2553-.0542-.419-.3056-.3647-.561.0542-.2563.3056-.419.5619-.3657 1.5667.3322 3.1913-.1331 4.3458-1.2442.1873-.1814.487-.1765.6684.0118.1815.1883.1765.488-.0118.6694-1.0874 1.0471-2.5239 1.6149-4.0007 1.6149z"></path></g></g></svg>